<svg width="32" height="100" viewBox="0 0 32 100" fill="none" xmlns="http://www.w3.org/2000/svg">
<path d="M19.3306 1.29578C18.4138 0.373541 17.5729 -0.0623122 16.8331 0.0071717C11.7811 0.480926 1.94279 16.1211 1.04494 40.2573C0.507501 54.7226 4.89556 63.8945 8.56914 68.9858C8.52488 68.9668 8.49326 68.9352 8.449 68.9163C7.43102 68.4552 6.3182 68.6004 5.24964 68.771C4.94614 68.8152 5.07892 69.2763 5.3761 69.2258C6.30556 69.0805 7.32354 68.9289 8.21506 69.3269C8.82837 69.5985 9.30259 70.0912 9.61241 70.6786C8.80941 70.2681 7.90524 70.0659 6.99475 70.1101C6.69125 70.1228 6.69125 70.5965 6.99475 70.5839C8.24667 70.5207 9.49227 70.9566 10.4217 71.7967C10.1625 71.8662 9.89694 71.9862 9.66299 72.0746C8.96748 72.3463 8.24035 72.5547 7.5069 72.7C7.20972 72.7568 7.33618 73.218 7.63336 73.1548C8.27829 73.0285 8.91057 72.8516 9.52389 72.6305C9.83371 72.5168 10.1309 72.3715 10.4344 72.2641C10.6936 72.1757 10.9529 72.1441 11.1489 72.3778C11.1805 72.4157 11.2121 72.4347 11.25 72.441C11.1868 72.4536 11.1236 72.4536 11.0667 72.4726C10.5988 72.5863 10.1435 72.7821 9.7199 73.0221C8.85999 73.5148 8.14551 74.216 7.5069 74.9614C7.31089 75.1888 7.646 75.5299 7.84201 75.2962C8.37313 74.6771 8.95483 74.0834 9.64402 73.6285C9.98546 73.4011 10.3459 73.2116 10.7252 73.0727C10.9149 73.0032 11.1046 72.9463 11.3006 72.9084C11.4018 72.8895 11.5029 72.8705 11.6041 72.8579C11.6547 72.8516 11.7053 72.8453 11.7622 72.839C11.876 72.8263 11.8633 72.8516 11.8254 72.7947C11.8507 72.8263 11.8823 72.8516 11.9266 72.8642C12.0846 73.0158 12.2364 73.1548 12.3755 73.2811C12.1479 73.3317 11.9202 73.4517 11.7306 73.5464C11.2563 73.7738 10.8011 74.0518 10.3838 74.3676C9.54918 75.0056 8.84102 75.8078 8.32887 76.7237C8.17712 76.989 8.58811 77.2291 8.73985 76.9638C9.17613 76.1931 9.73887 75.5109 10.4154 74.9424C10.7442 74.6645 11.0983 74.4245 11.4776 74.2097C11.6673 74.1023 11.8633 74.0012 12.0657 73.9128C12.1668 73.8686 12.268 73.8244 12.3755 73.7802C12.3945 73.7738 12.4893 73.7422 12.5462 73.7233C11.7685 74.355 11.1742 75.1761 10.8454 76.13C10.7442 76.4205 11.2058 76.5406 11.3006 76.2563C11.6168 75.3404 12.2174 74.5255 12.9951 73.9507C13.0267 73.9254 13.052 73.9002 13.071 73.8686C13.1279 73.9128 13.1785 73.9507 13.2164 73.9823C13.3872 88.8897 14.0131 98.7249 14.2597 99.1671C14.5442 99.6724 15.0374 99.9819 15.5812 100.001C15.5938 100.001 15.6065 100.001 15.6191 100.001C16.1629 100.001 16.6561 99.704 16.9849 99.1797C17.1935 98.8449 17.1176 96.3245 16.8584 88.3907C16.7383 84.8028 16.5928 80.3495 16.4601 75.2014C16.4917 75.2204 16.5296 75.233 16.5675 75.233C17.0797 75.2835 17.5097 75.6689 17.7689 76.0921C18.0977 76.629 18.2115 77.2733 18.3253 77.8797C18.3822 78.1766 18.8375 78.0503 18.7805 77.7534C18.6478 77.0585 18.5087 76.3384 18.1103 75.7447C17.9206 75.4604 17.674 75.2267 17.3958 75.0498C18.3253 74.8477 19.4255 74.7466 20.14 75.492C20.3486 75.7131 20.6837 75.3783 20.4751 75.1572C20.1147 74.7782 19.6784 74.5824 19.2105 74.5003C20.0894 74.1276 21.1706 74.2918 21.8724 74.9424C22.0937 75.1509 22.4352 74.8161 22.2075 74.6076C21.727 74.1655 21.1137 73.9065 20.4751 73.8433C20.943 73.6349 21.4867 73.6665 21.9167 73.9507C22.0242 74.0202 22.1759 73.9697 22.2391 73.8686C22.3087 73.7549 22.2644 73.6159 22.1569 73.5464C21.7776 73.3001 21.3097 73.199 20.8671 73.2495C20.924 73.2053 20.9746 73.1674 21.0315 73.1232C21.4109 72.8137 21.8092 72.4536 22.2075 72.0241C22.2518 72.0431 22.3087 72.0557 22.3593 72.0367C22.8588 71.8725 23.352 71.7841 23.8704 71.7651C23.9969 71.7651 24.1107 71.6577 24.1107 71.5251C24.1107 71.3988 24.0095 71.285 23.8704 71.285C23.6238 71.2914 23.3836 71.323 23.1433 71.3608C23.5543 71.1398 23.9906 70.9818 24.4585 70.8871C24.5849 70.8618 24.6545 70.7102 24.6229 70.5965C24.5849 70.4639 24.4585 70.407 24.332 70.4323C23.9653 70.5081 23.6049 70.6281 23.2634 70.7797C25.8432 67.3876 28.4924 61.1909 29.6495 49.884C31.9827 26.8153 24.3004 6.29863 19.3306 1.29578ZM11.446 72.4031C11.446 72.4031 11.4524 72.4094 11.4587 72.4157C11.446 72.4157 11.4334 72.4157 11.4207 72.4157C11.4271 72.4157 11.4397 72.4031 11.446 72.3968V72.4031ZM16.5739 98.927C16.3273 99.3187 15.9542 99.5082 15.5875 99.5271C15.2145 99.5208 14.873 99.2997 14.677 98.946C14.1649 97.411 11.9961 53.1561 16.2008 9.0464C14.892 43.0051 15.8847 73.2875 16.3842 88.4034C16.5802 94.2906 16.7193 98.5417 16.5802 98.927H16.5739ZM29.15 49.8398C26.7537 73.2685 17.8953 74.5129 16.4284 74.5571C15.9542 56.3902 15.6128 29.7652 17.0101 1.21367L16.5359 1.17577C13.5515 27.4786 13.0015 54.4194 13.2038 73.3822C12.9572 73.1801 12.6031 72.8769 12.1732 72.4663C12.1732 72.4663 12.1732 72.4663 12.1668 72.46C10.9276 71.2787 9.04967 69.2195 7.22237 66.1243C4.36444 61.2794 1.05127 52.8655 1.51916 40.2763C2.46759 14.8767 12.7169 0.866246 16.8774 0.480926C17.4527 0.430392 18.1925 0.822029 18.9955 1.63057C21.7333 4.38466 24.8062 11.3141 26.8295 19.2795C28.5999 26.2531 30.4399 37.219 29.15 49.8398Z" fill="#021120"/>
<path d="M7.81329 21.0635C7.2095 22.2162 6.79482 23.5181 6.40357 24.7545C6.28265 25.1366 6.07024 25.6524 6.07024 26.0705C6.07024 26.162 6.13735 25.9 6.16746 25.8135C6.38817 25.1795 6.62532 24.5516 6.86538 23.9246C7.29802 22.7947 7.6965 21.6215 8.25079 20.5427C8.29887 20.4491 8.8724 19.4562 8.65357 20.0496C7.79429 22.3799 4.65397 29.1391 5.76468 26.9177C6.15725 26.1325 6.39321 25.2076 6.69524 24.3864C7.18344 23.0591 7.67582 21.7403 8.26121 20.4524C8.28329 20.4038 8.60042 19.6488 8.54246 20.1052C8.36005 21.5417 7.71598 22.9642 7.2126 24.3066C6.87379 25.2101 6.51111 26.1096 6.29593 27.0531C6.27813 27.1312 6.23856 27.362 6.27857 27.2927C6.53929 26.8408 6.70729 26.2101 6.88274 25.7406C7.49831 24.0932 8.11222 22.4453 8.72302 20.7962C8.75933 20.6981 8.86665 20.4105 8.8619 20.5149C8.83874 21.0246 8.58111 21.649 8.43135 22.1087C7.98864 23.4673 7.4681 24.7975 6.97996 26.1399C6.86568 26.4542 6.74427 26.771 6.67093 27.0982C6.64552 27.2116 6.53574 27.4974 6.63968 27.4455C6.67217 27.4292 6.68054 27.3849 6.69524 27.3517C6.80853 27.0958 7.00328 26.5375 7.07024 26.3482C7.42372 25.3489 7.76049 24.3438 8.08413 23.3343C8.34274 22.5277 8.58644 21.7164 8.84802 20.9107C8.90013 20.7502 8.9921 20.3179 9.12579 20.1538C9.18474 20.0815 9.17356 20.3392 9.16052 20.4316C9.06045 21.1404 8.80011 21.8436 8.57024 22.5149C7.92242 24.4068 7.11358 26.2621 6.57024 28.1885C6.45176 28.6086 6.35305 29.4313 6.72302 28.508C7.56091 26.4168 8.17086 24.2208 8.78552 22.0566C8.94275 21.503 9.15759 20.7219 9.31329 20.1468C9.35556 19.9908 9.39691 19.8344 9.43829 19.6781C9.46474 19.5782 9.43564 19.3222 9.52163 19.3795C9.54185 19.393 9.52595 19.4285 9.52163 19.4524C9.44817 19.8593 9.30538 20.3872 9.20218 20.751C8.7881 22.2106 8.31107 23.6514 7.84454 25.0948C7.32016 26.7171 6.6766 28.3875 6.4869 30.0948C6.3555 31.2774 7.0267 29.464 7.06677 29.3413C8.11369 26.1359 8.87263 22.8215 9.63274 19.5392C9.80111 18.8122 9.94941 18.0756 10.1466 17.3552C10.1553 17.3234 10.239 16.9034 10.282 17.1955C10.3898 17.9257 10.2871 18.7812 10.2091 19.4941C10.0101 21.3131 9.67215 23.108 9.21607 24.8795C8.69882 26.8886 7.89838 28.8569 7.61538 30.9212C7.44768 32.1444 7.94263 30.6473 8.03552 30.3691C9.14813 27.0368 9.88006 23.6121 10.6466 20.1885C10.893 19.0883 11.1212 17.9786 11.4175 16.8899C11.4807 16.6576 11.5494 16.3252 11.6744 16.1052C11.8057 15.8741 11.6569 16.6378 11.6154 16.9003C11.4112 18.1893 11.129 19.4664 10.8341 20.7371C10.1622 23.6329 9.30225 26.4843 8.66052 29.3864C8.51932 30.025 8.2822 31.8663 8.68135 31.3482C9.10004 30.8048 9.27435 29.8361 9.44524 29.2163C9.89698 27.5779 10.2689 25.9186 10.6119 24.2545C11.1059 21.8579 11.423 19.3778 12.1397 17.0323C12.1703 16.932 12.2717 16.6604 12.2994 16.7614C12.4599 17.346 12.3249 18.2231 12.2716 18.7996C11.961 22.1619 10.9861 25.4466 10.3966 28.7649C10.2712 29.4712 10.1721 30.1826 10.105 30.8968C10.0895 31.0614 10.0171 31.4121 10.105 31.5843C10.2047 31.78 10.3358 31.2016 10.3827 30.9871C10.7229 29.432 10.9811 27.8502 11.23 26.2788C11.7331 23.1022 11.952 19.8793 12.5355 16.7163C12.6206 16.255 12.7142 15.7803 12.8654 15.3343C12.9514 15.0805 12.9781 15.1907 12.973 15.4246C12.8901 19.2697 10.4008 30.5836 11.2577 26.8343C12.3542 22.0375 11.5529 16.8686 13.3341 12.2163C13.5291 11.7071 13.7623 11.2225 14.0216 10.7441C14.0601 10.6731 14.1784 10.3738 14.2682 10.3239C14.419 10.2401 14.225 10.6674 14.1813 10.8343C14.0002 11.5279 13.7931 12.2159 13.5807 12.9003C13.0197 14.7071 11.1794 20.0718 11.8862 18.317C12.6315 16.4665 13.1282 14.5157 13.7022 12.6087C13.9834 11.6743 14.1959 10.4728 14.7716 9.65032C14.7956 9.61607 14.8422 9.5322 14.8654 9.56699C14.9312 9.66569 14.7841 10.2052 14.7786 10.2302C14.4276 11.8285 13.9373 13.4088 13.4175 14.9593C13.2762 15.3807 12.887 16.6558 13.0147 16.2302C13.4044 14.9313 13.8695 13.6521 14.3272 12.376C14.6938 11.3539 15.004 10.1925 15.6327 9.28574C15.732 9.14258 15.7526 9.19847 15.723 9.35865C15.6262 9.88301 15.4277 10.4017 15.2577 10.9038C14.5978 12.8537 12.5623 18.6844 13.23 16.7371C14.1682 14.0007 14.8394 11.2064 16.0459 8.56699C16.2493 8.12212 16.761 6.7663 16.6952 7.25102C16.6099 7.88018 16.3357 8.53639 16.1397 9.13296C15.8804 9.92222 15.6067 10.7061 15.2959 11.4767C15.0254 12.1475 14.7223 12.8035 14.4661 13.4802C14.4468 13.5311 14.2551 14.1448 14.3411 13.7649C14.7217 12.0839 15.2803 10.4314 15.7647 8.77879C16.0464 7.81757 16.2975 6.83715 16.6258 5.8899C16.6393 5.85097 16.775 5.40079 16.7369 5.5531C16.5829 6.16924 16.3576 6.76055 16.157 7.36213C16.0269 7.75258 15.9199 8.14562 15.8133 8.54268C15.7934 8.61669 15.7487 8.90285 15.664 8.95935C15.5176 9.05694 15.6461 8.60619 15.6675 8.43157C15.7619 7.66163 15.9252 6.90031 16.0911 6.14338C16.3321 5.04326 17.0507 1.74189 16.8063 2.84129C16.696 3.33786 16.4913 3.81893 16.3202 4.29615C16.1702 4.71475 16.0793 5.23166 15.855 5.61907C15.8173 5.6842 15.8452 5.09077 15.855 5.03574C15.9903 4.27064 16.2609 3.52067 16.4869 2.77879C16.591 2.4372 16.6883 2.1076 16.6883 1.75102C16.6883 1.55442 16.7401 1.38055 16.7508 1.18852C16.7582 1.05489 16.9821 0.577189 16.6744 0.862127C15.7254 1.74081 14.9171 2.92643 14.3133 4.06699C13.9308 4.78956 13.4996 5.48512 13.1466 6.22324C11.92 8.78807 11.0027 11.4798 10.0702 14.1607C9.36639 16.1843 8.43681 18.1246 7.79246 20.1677C7.6049 20.7624 7.70024 20.2044 7.75774 19.9385C8.17555 18.0061 8.86418 16.098 9.64663 14.2857C9.98394 13.5045 10.3838 12.7621 10.7751 12.008C10.9232 11.7226 11.0629 11.4331 11.2091 11.1468C11.2161 11.1332 11.3525 10.8417 11.2786 11.0913C10.3121 14.3531 8.38854 17.2652 7.32718 20.4871C7.13742 21.0632 6.69446 22.8277 6.81677 22.2337C7.16537 20.5404 7.70307 18.8732 8.22302 17.2267C8.44734 16.5163 8.81653 15.7711 8.92788 15.0288C8.93514 14.9804 8.93631 14.8414 8.91052 14.883C8.6775 15.2588 8.49044 15.7091 8.30288 16.1017C7.48892 17.8057 6.80427 19.5519 6.28552 21.3691C6.09282 22.0441 5.91422 22.7339 5.80288 23.4281C5.78717 23.526 5.77018 23.6242 5.76468 23.7232C5.76317 23.7504 5.7641 23.8236 5.78204 23.8031C5.82748 23.7512 5.84111 23.6779 5.8619 23.6121C6.44401 21.7701 6.85684 19.8517 7.27163 17.9663C7.39074 17.4249 7.8011 15.8154 7.62579 16.3413C6.81726 18.7669 5.87251 21.1555 5.13968 23.6052C5.02367 23.993 4.72695 25.1698 4.85496 24.7857C5.3178 23.3972 5.68297 21.9569 6.05635 20.5427C6.28278 19.685 6.53018 18.8009 6.61885 17.9142C6.62408 17.8619 6.63698 17.7227 6.59802 17.758C6.47092 17.873 6.37374 18.2204 6.32371 18.3482C5.6574 20.051 4.97179 21.7677 4.47649 23.5288C4.02882 25.1205 5.49563 20.3743 5.80982 18.751C5.86952 18.4426 5.85075 18.8442 5.83065 18.9385C5.64366 19.8159 5.31671 20.6841 5.03899 21.5357C4.84764 22.1226 4.65728 22.7056 4.51468 23.3066C4.48209 23.4439 4.36967 23.8789 4.49385 23.4593C4.72308 22.6849 5.01256 21.9298 5.2369 21.1538C5.33911 20.8003 5.63732 19.7737 5.41052 20.0635C5.21654 20.3114 5.12398 20.7741 5.0251 21.06C4.80143 21.7069 4.58247 22.3568 4.38274 23.0114C4.2974 23.2911 4.25079 23.6688 4.25079 23.2093C4.25079 21.606 5.11195 20.2334 5.45218 18.7024C5.67433 17.7028 6.03132 16.5667 6.50427 15.6503C6.96984 14.7483 7.34722 13.7666 7.88274 12.9038C8.3614 12.1326 8.83695 11.3683 9.34107 10.6121C10.3015 9.17153 11.2171 7.70096 12.223 6.29268C13.1631 4.97663 13.9668 3.59752 15.1223 2.44199C15.5238 2.04054 15.9286 1.47222 16.4383 1.2024C16.7234 1.05148 16.5163 0.621745 16.1883 0.785738C15.9944 0.88268 15.821 1.13719 15.6536 1.28227C15.3747 1.52393 15.094 1.7393 14.8376 2.00796C14.1134 2.7666 13.4106 3.49967 12.9244 4.43852C12.6698 4.9301 12.296 5.40406 11.9661 5.84824C11.5467 6.41283 11.2286 7.03653 10.8341 7.61907C10.2964 8.41321 9.9314 9.29952 9.5251 10.1642C8.93597 11.418 8.28718 12.6224 7.80982 13.9281C7.35564 15.1704 7.10325 16.4025 6.96954 17.7128C6.95956 17.8107 6.91906 18.0944 6.96607 18.008C7.228 17.5264 7.39883 16.9141 7.60843 16.4177C8.39432 14.5564 9.33146 12.8028 10.3168 11.0427C10.6862 10.3827 11.0459 9.71836 11.4244 9.06352C11.4682 8.9877 11.592 8.75602 11.5529 8.83435C11.3512 9.23762 11.1452 9.63881 10.9313 10.0357C10.0411 11.6878 9.07325 13.2961 8.15357 14.9316C7.86116 15.4516 7.56632 15.9745 7.32718 16.5218C7.26034 16.6748 7.0593 17.1149 7.18135 17.001C7.33113 16.8612 7.40424 16.657 7.50774 16.4802C8.23422 15.239 8.93433 13.9819 9.63621 12.7267C10.7563 10.7237 11.8713 8.71781 12.9626 6.69893C13.0058 6.61896 13.1421 6.38333 13.105 6.46629C12.9256 6.86637 12.6939 7.25681 12.48 7.63643C11.4199 9.51721 10.315 11.3859 9.07371 13.1538C8.84274 13.4828 8.18589 14.4933 8.38968 14.1468C9.15819 12.8404 9.78584 11.4485 10.5425 10.133C10.8634 9.57504 11.2016 9.02862 11.5598 8.49407C11.6675 8.33346 11.7033 8.02185 11.8966 8.02185C12.0742 8.02185 11.741 8.34152 11.6501 8.49407C11.3461 9.00433 11.0259 9.50566 10.7091 10.008C10.3086 10.643 9.90402 11.2749 9.48343 11.8968C9.44734 11.9502 9.11197 12.5531 8.97996 12.6191C8.9545 12.6318 9.00456 12.5677 9.01815 12.5427C9.09447 12.4023 9.40822 11.8484 9.42788 11.8135C9.86532 11.0364 10.2998 10.2576 10.7369 9.48018C11.0928 8.84722 11.9896 6.88893 11.8341 7.59824C11.7512 7.9764 11.5491 8.36405 11.3932 8.70935C10.9603 9.66784 10.4982 10.6129 10.0633 11.5705C9.70504 12.3593 9.27873 13.3182 8.95218 14.126C8.90377 14.2458 8.29162 15.4917 8.44177 15.7753C8.46198 15.8135 8.53687 15.8201 8.57024 15.7927C8.92984 15.4967 9.46989 14.561 9.6119 14.3135C10.433 12.8827 11.1304 11.3852 11.8307 9.89338C12.03 9.46862 12.2446 8.98344 12.0077 9.73713C11.6814 10.7756 11.3247 11.8067 10.9661 12.8343C10.2972 14.751 9.45845 16.6194 8.88274 18.567C8.83753 18.7199 8.79298 18.8733 8.75774 19.0288C8.73267 19.1394 8.64746 19.3956 8.75774 19.3691C9.07954 19.2916 9.58216 18.0191 9.62579 17.9246C10.7406 15.5107 11.336 12.9279 11.8966 10.3413C11.9436 10.1248 12.0771 9.47403 12.0216 9.68852C11.8462 10.367 11.6874 11.0471 11.5008 11.7232C10.7536 14.4299 9.76478 17.0818 9.08065 19.8031C8.96088 20.2795 8.94334 21.2486 9.47302 20.3066C10.1174 19.1606 10.5083 17.8133 10.8793 16.567C11.4407 14.6805 11.8835 12.767 12.2855 10.8413C12.4379 10.1112 12.5644 9.37465 12.7438 8.65032C12.7718 8.5375 12.7974 8.42378 12.8341 8.31352C12.8429 8.28732 12.8734 8.21709 12.8793 8.24407C12.8955 8.31879 12.8794 8.3975 12.8688 8.47324C12.4709 11.3319 11.5801 14.137 10.8341 16.9177C10.629 17.6822 10.4005 18.4585 10.2855 19.2441C10.2697 19.3521 10.2494 19.4616 10.2577 19.5705C10.2719 19.756 10.4201 19.5829 10.4452 19.5427C11.0201 18.6239 11.368 17.4046 11.7161 16.4073C12.393 14.4677 12.9696 12.5019 13.5147 10.5218C13.8871 9.16882 14.2359 7.8091 14.6327 6.46282C14.6769 6.31288 14.7183 6.16184 14.7716 6.0149C14.8128 5.90157 14.8588 5.86416 14.8619 6.02879C14.8763 6.79362 14.6975 7.60313 14.5425 8.34129C14.2327 9.81555 13.827 11.2685 13.3897 12.7093C12.9023 14.3152 12.3024 15.8935 11.8793 17.5184C11.8598 17.5931 11.8409 17.6681 11.8272 17.7441C11.8202 17.7828 11.8709 17.6774 11.8827 17.6399C12.1259 16.8714 12.3164 16.0825 12.5182 15.3031C13.1572 12.834 13.7487 10.3457 14.5112 7.91074C14.5614 7.75031 14.5919 7.30079 14.6883 7.43852C14.7921 7.58687 14.567 8.31982 14.5529 8.37602C14.1429 10.0068 13.5192 11.5928 12.8758 13.1434C12.7598 13.4229 12.6382 13.6999 12.5425 13.9871C12.432 14.3184 12.7527 13.321 12.855 12.9871C13.5977 10.5622 14.2107 8.11177 14.7751 5.6399C14.8767 5.19491 15.1422 3.85786 15.1154 4.31352C15.058 5.28852 14.675 6.28615 14.3411 7.18852C14.0304 8.02785 13.6833 8.85574 13.2994 9.66421C13.2776 9.71003 13.0639 10.26 12.9522 10.3205C12.9332 10.3308 12.9336 10.2795 12.9348 10.258C12.9496 10.0009 13.0661 9.48399 13.105 9.31004C13.3391 8.26089 13.6348 7.22908 13.9522 6.2024C14.1978 5.40802 14.4592 4.61822 14.7161 3.8274C14.7802 3.63 14.8359 3.41391 14.9383 3.23018C15.1654 2.82276 14.9534 4.10726 14.9522 4.11213C14.6327 5.34948 14.0245 6.58171 13.4036 7.69546C13.3687 7.75805 13.2627 7.94466 13.2925 7.87949C13.5049 7.41485 13.7104 6.94721 13.9175 6.48018C14.2875 5.64575 14.6545 4.80968 15.0355 3.98018C15.2344 3.54717 15.4269 3.05344 15.7091 2.66074C15.7451 2.61069 15.8217 2.50989 15.8619 2.55657C15.98 2.69359 15.7992 3.32497 15.782 3.40032C15.5751 4.30703 15.2183 5.18416 14.8029 6.0149C14.2434 7.13389 15.4929 3.60877 15.8966 2.42463C16.7129 0.030206 14.6008 7.31534 13.9557 9.76143C13.8493 10.1647 13.7379 10.5712 13.6536 10.9802C13.6472 11.0111 13.6397 11.0423 13.6397 11.0739C13.6397 11.1384 13.69 10.955 13.7091 10.8934C14.1211 9.56371 14.4559 8.2118 14.8341 6.87254C14.9593 6.42944 15.0527 6.1055 15.1987 5.68157C15.2583 5.50869 15.3091 5.03965 15.4244 5.18157C15.4947 5.26804 15.4114 5.83305 15.4105 5.84129C15.3225 6.64971 15.1566 7.45063 14.9522 8.23713C14.7437 9.03923 14.3242 9.79849 14.1397 10.5982C13.9117 11.5862 14.768 8.66927 15.1327 7.72324C15.307 7.27118 15.4738 6.75816 15.7473 6.35171C15.9086 6.11203 15.8772 6.548 15.8758 6.59129C15.8329 7.90572 15.385 9.20071 14.9591 10.4316C14.7704 10.9771 14.8163 10.9053 14.9036 10.3899C14.9601 10.0563 15.0409 9.70296 15.0077 9.36213C14.9807 9.08396 14.8927 9.15867 14.7508 9.00102" stroke="#021120" stroke-linecap="round"/>
<path d="M6.87581 17.8135C6.8824 17.7684 7.06022 15.7788 7.36192 15.7788C7.55295 15.7788 7.21551 16.1334 7.11539 16.2961C6.89962 16.6468 6.69813 17.001 6.50081 17.3621C6.41604 17.5172 6.31998 17.6666 6.25428 17.8308C6.18616 18.0011 6.31155 17.4669 6.36886 17.2927C6.48386 16.9431 6.59634 16.481 6.80289 16.1711C6.92609 15.9863 6.72003 16.6124 6.62581 16.8135C6.48736 17.109 6.35519 17.3996 6.26122 17.7128C6.19402 17.9368 6.34933 17.2525 6.41747 17.0288C6.59561 16.4439 6.81815 15.8745 7.02511 15.2996C7.11359 15.0538 7.23609 14.7937 7.25081 14.5288C7.25131 14.5197 6.8666 15.2123 6.77858 15.3968C6.77538 15.4035 6.56014 15.8827 6.57372 15.7197C6.59939 15.4117 6.70807 15.0814 6.81331 14.7927C6.95837 14.3947 7.15587 14.0172 7.30289 13.619C7.30604 13.6105 7.52684 13.0305 7.43831 13.3274C7.31162 13.7522 7.1287 14.2252 6.93831 14.626C6.7643 14.9923 6.79612 14.893 6.9522 14.5496C7.28076 13.8268 7.64829 13.1155 8.00081 12.4038C8.14771 12.1072 8.29647 11.818 8.3897 11.501C8.40953 11.4335 8.45719 11.3232 8.52858 11.2927C8.58916 11.2667 8.36834 11.7052 8.36192 11.7163C7.99655 12.3452 7.59097 12.9387 7.27858 13.5982C7.18953 13.7862 7.23782 13.6422 7.25428 13.494C7.33016 12.8112 7.81234 12.1263 8.16053 11.5565C8.45518 11.0744 8.66352 10.5504 8.94178 10.0635C9.20722 9.59896 9.61679 9.20057 9.84456 8.71974C10.0115 8.36722 10.225 7.94576 10.4522 7.62599C10.776 7.1703 10.9733 6.6408 11.3411 6.20932C11.7726 5.7031 12.0518 5.09557 12.5147 4.6121C13.2252 3.87005 13.7908 2.91088 14.5946 2.28571C15.0361 1.94231 14.3698 2.56952 14.2508 2.68849C13.8731 3.06622 13.464 3.43112 13.1605 3.87251C12.8898 4.26626 12.5983 4.65704 12.3098 5.03571C11.8337 5.66058 11.4705 6.34932 11.0321 6.99751C10.4772 7.81776 9.98839 8.76341 9.28206 9.46974C9.22972 9.52208 8.98711 9.81354 9.09803 9.56001C9.21168 9.30024 9.37177 9.07626 9.53206 8.84474C9.76399 8.50972 9.94221 8.10646 10.1397 7.75099C10.7539 6.64534 11.5822 5.57936 12.348 4.59474C12.6904 4.15458 13.0057 3.72236 13.348 3.28224C13.4716 3.1234 13.6075 2.85271 13.7855 2.75099C13.88 2.69699 14.4867 2.27478 14.1258 2.56349" stroke="#021120" stroke-linecap="round"/>
<path d="M11.9383 23.626C11.9666 22.9829 12.1529 21.0726 11.9904 21.6955C11.6587 22.9667 11.1788 24.2202 10.7647 25.4663C10.592 25.9858 10.3897 26.4986 10.2508 27.0288C10.2397 27.0709 10.0617 27.8152 10.1883 27.4628C10.9429 25.3629 11.5065 23.1987 12.1952 21.0774C12.3109 20.7213 12.4008 20.3505 12.5355 20.001C12.5591 19.9397 12.5982 19.8586 12.5841 19.9941C12.5296 20.5194 12.3917 21.0538 12.282 21.567C11.7233 24.181 11.0065 26.7877 10.7786 29.4594C10.5026 32.6946 12.0157 23.0812 12.4661 19.8656C12.5175 19.4986 12.4791 18.87 12.6258 18.4941C12.8431 17.9371 12.6133 19.6921 12.5425 20.2857C12.1997 23.1561 11.4238 25.9886 11.2022 28.8691C11.1607 29.4085 11.2426 29.0515 11.3411 28.6191C11.832 26.4632 12.2557 24.292 12.6813 22.1225C12.9507 20.7498 13.2116 19.3756 13.4522 17.9975C13.5669 17.3405 13.6311 16.6655 13.7786 16.0149C13.8168 15.8464 13.9383 15.3491 13.9383 15.5219C13.9383 16.251 13.6788 17.0468 13.539 17.751C13.2236 19.3394 12.9133 20.9289 12.5529 22.508C12.3648 23.3318 12.0889 24.1632 11.9661 25.001C11.6319 27.2811 12.9417 20.496 13.3619 18.2302C13.7166 16.3179 14.1071 14.4491 14.598 12.5705C14.6601 12.3329 15.0088 11.1526 14.8341 12.0635C14.2958 14.8706 12.6625 23.2883 13.1952 20.4802C13.6251 18.2145 14.237 15.9906 14.8341 13.7649C15.053 12.9492 15.3352 12.1302 15.3758 11.2788C15.3935 10.9064 15.1329 11.9861 15.0598 12.3517C14.6116 14.5928 14.0608 16.8063 13.5286 19.0288C13.4192 19.4853 13.3234 19.9426 13.2369 20.4038C13.2254 20.465 13.1681 21.1061 13.098 21.1295C13.0351 21.1505 13.1065 20.9967 13.1188 20.9316C13.2379 20.3043 13.3826 19.6811 13.5147 19.0566C13.8534 17.4544 14.1692 15.8477 14.4834 14.2406C14.596 13.6651 14.6916 13.0851 14.8133 12.5114C14.8393 12.3887 14.8697 11.9431 14.9869 11.8552C15.1328 11.7458 14.9452 12.2178 14.9105 12.3969C14.6919 13.5262 14.5071 14.6588 14.3341 15.7962C13.9808 18.119 13.5403 20.4333 13.2508 22.7649C13.2292 22.9388 13.1679 23.4518 13.1397 23.2788C13.1253 23.1906 13.1373 22.8722 13.1397 22.8344C13.1947 21.9437 13.329 21.0568 13.4557 20.1746C13.7999 17.7774 14.239 15.3936 14.5633 12.9941C14.6293 12.5057 14.7438 12.1242 14.7438 12.9038C14.7438 15.1384 14.2627 17.3928 13.8411 19.5774C13.7413 20.0946 13.6653 20.6156 13.5668 21.133C13.5393 21.277 13.4762 21.653 13.5147 21.2649C13.7929 18.4617 14.4072 15.7159 14.7994 12.9316C15.1314 10.5742 14.2271 17.6589 14.0008 20.0288C13.9656 20.397 13.9243 20.7647 13.8897 21.133C13.8864 21.1675 13.881 21.2707 13.8897 21.2371C13.9379 21.0501 13.9552 20.8429 13.9834 20.6538C14.2603 18.7974 14.5437 16.9256 14.723 15.0566C14.7822 14.4397 14.8133 13.8218 14.8133 13.2024C14.8133 13.1165 14.8131 12.8937 14.8758 12.9524C14.9544 13.0261 14.9213 13.1642 14.9244 13.2719C14.9415 13.8692 14.9009 14.4679 14.8237 15.06C14.6032 16.7504 14.2638 18.4448 13.9383 20.1191C13.872 20.4601 13.8094 20.8023 13.7647 21.1469C13.7391 21.3442 13.7942 20.7494 13.8272 20.5531C14.1162 18.8353 14.4614 17.1327 14.6883 15.4038C14.7363 15.0377 14.8133 13.9338 14.8133 14.3031C14.8133 16.673 14.4006 19.0648 14.0008 21.3969C13.8736 22.1387 13.7112 22.9059 13.6883 23.6607C13.6681 24.3274 13.7007 22.3258 13.7508 21.6607C13.8614 20.1923 14.0662 18.7389 14.2126 17.2753C14.214 17.2618 14.2508 16.6536 14.2508 16.7719C14.2508 17.2024 14.2542 17.633 14.2508 18.0635C14.2381 19.6853 14.0004 21.2566 13.7855 22.8587C13.7175 23.3657 13.6876 23.8994 13.5633 24.3969C13.5189 24.5743 13.5621 24.0311 13.5633 23.8482C13.568 23.1261 13.6522 22.41 13.723 21.692C13.8396 20.5094 13.999 19.3574 14.2369 18.1955C14.2852 17.9597 14.3758 17.2465 14.3758 17.4871C14.3758 18.6591 14.3743 19.8307 14.2473 20.9975C14.1353 22.0265 13.8603 23.05 13.8133 24.0844C13.8116 24.1214 13.8223 23.7484 13.8272 23.6955C13.9117 22.7723 14.0886 21.8502 14.2126 20.9316C14.3578 19.8564 14.5511 18.8024 14.5633 17.7163C14.5636 17.6934 14.6115 17.3503 14.6223 17.4316C14.6671 17.7673 14.6275 18.1446 14.6119 18.4802C14.5354 20.126 14.2834 21.7516 14.098 23.3864C13.975 24.4708 13.9346 25.5621 13.8133 26.6469C13.7914 26.8429 13.7183 27.9968 13.6918 27.1885C13.6438 25.7262 13.9027 24.266 14.1293 22.8274C14.221 22.2448 14.3258 21.6631 14.3966 21.0774C14.4217 20.8701 14.4422 20.2436 14.4383 20.4524C14.4078 22.0992 14.1328 23.7813 13.907 25.4107C13.7442 26.5863 13.5941 27.7758 13.5008 28.9594C13.4627 29.4428 13.4227 29.9269 13.3897 30.4107C13.3872 30.4465 13.3758 31.1101 13.3758 30.751C13.3758 28.6086 13.5781 26.4844 13.7091 24.3482C13.7689 23.3743 13.7508 20.4454 13.7508 21.4212C13.7508 24.4054 12.9322 27.3861 12.3966 30.2996C12.2662 31.0091 12.1294 31.7282 12.0668 32.4489C12.0655 32.4635 12.1782 31.3375 12.1952 31.2094C12.5978 28.1866 13.2508 25.1346 13.2508 22.0739C13.2508 21.9583 13.2626 21.7238 13.2438 22.0566C13.1612 23.5233 12.9612 24.9869 12.7438 26.4385C12.3707 28.931 11.7151 31.4307 11.5668 33.9524C11.5515 34.2116 11.6414 33.4386 11.6779 33.1816C11.9537 31.2403 12.2016 29.3019 12.3758 27.3482C12.4776 26.2065 12.5956 25.0576 12.6258 23.9107C12.6375 23.4652 12.5934 23.7521 12.5494 24.06C12.1061 27.1635 11.8616 30.3099 11.5772 33.4316C11.5195 34.0646 11.4383 34.711 11.4383 35.3482C11.4383 35.8544 11.7608 34.3859 11.8619 33.8899C12.2763 31.8575 12.5812 29.8052 12.9105 27.758C12.9887 27.2718 13.0659 26.7854 13.1466 26.2996C13.1812 26.0916 13.1974 25.7672 13.3098 25.5705C13.4486 25.3277 13.3754 26.1277 13.3688 26.4073C13.3347 27.8592 13.1891 29.2979 13.0008 30.7371C12.8844 31.6263 12.6004 34.3017 12.7022 33.4107C12.9932 30.8644 13.5161 28.3144 13.973 25.7927C14.0182 25.5431 14.1846 24.0725 14.1119 25.1816C13.9683 27.3722 13.5827 29.538 13.3897 31.7232C13.3433 32.2489 13.314 32.7756 13.2508 33.2996C13.2327 33.4496 13.1697 34.1776 13.1952 33.5253C13.2746 31.5017 13.6442 29.5219 13.9244 27.5219C13.9837 27.0985 14.0416 26.6716 14.0598 26.2441C14.0778 25.8221 14.0651 26.2457 14.0633 26.3969C14.0367 28.5947 13.6535 30.807 13.355 32.9802C13.2824 33.5087 13.2126 34.0364 13.157 34.567C13.132 34.8068 13.1185 34.931 13.098 35.1712C13.0843 35.3319 13.1354 35.7981 13.0633 35.6538C12.9915 35.5101 13.0618 35.0355 13.0633 34.9038C13.0789 33.5548 13.2179 32.2222 13.4001 30.8864C13.4888 30.2363 13.5873 29.588 13.6536 28.935C13.6636 28.8366 13.6149 28.7099 13.6848 28.6399C13.7012 28.6235 13.6883 28.6862 13.6883 28.7094C13.6883 28.8956 13.6767 29.5441 13.6744 29.633C13.6156 31.8617 13.3547 34.0734 13.1605 36.2927C13.135 36.5847 13.1258 36.8747 13.1258 37.1677C13.1258 37.6509 13.125 36.9944 13.1258 36.9107C13.1449 34.8597 13.4246 32.8352 13.5563 30.7927C13.5695 30.5894 13.5225 30.3091 13.6119 30.1191C13.7327 29.8625 13.6269 30.6862 13.6223 30.9698C13.5895 33.024 13.3036 35.0566 13.2022 37.1052C13.1856 37.4406 13.1883 37.7764 13.1883 38.1121C13.1883 38.2753 13.1883 38.7404 13.1883 38.2337C13.1883 36.157 13.8112 29.9531 13.7473 32.0288C13.6628 34.777 13.0633 37.4876 13.0633 40.2371C13.0633 41.6719 13.156 37.3674 13.2855 35.9385C13.3365 35.3761 13.492 33.6933 13.5008 34.258C13.5213 35.5682 13.3971 36.8846 13.282 38.1885C13.2018 39.0985 13.0823 41.8371 13.1258 40.9246C13.2015 39.3342 13.3701 37.7484 13.5286 36.1642C13.5371 36.0794 13.5633 35.8255 13.5633 35.9107C13.5633 36.4645 13.5364 37.0179 13.5008 37.5705C13.4234 38.7697 13.2859 39.9615 13.2543 41.1642C13.2495 41.3447 13.2508 41.5253 13.2508 41.7059C13.2508 41.9061 13.2508 41.3054 13.2508 41.1052C13.2508 40.1552 13.3181 37.3096 13.3723 38.258C13.4483 39.588 13.2563 40.9347 13.1605 42.258C13.1525 42.3688 13.1853 43.1464 13.0633 43.2684C12.9721 43.3596 13.0338 43.0118 13.0286 42.883C12.9758 41.5856 12.9686 40.2853 12.98 38.9871C13.0001 36.6787 13.2594 34.3367 13.0911 32.0288C13.0764 31.828 13.087 31.5039 13.0008 31.31C12.9873 31.2796 12.9712 31.3709 12.9661 31.4038C12.8904 31.8901 12.8744 32.3943 12.8341 32.883C12.6144 35.5487 12.3044 38.2073 11.98 40.8621C11.9564 41.0553 11.9548 41.0603 11.9418 41.2163C11.9356 41.2906 11.9383 41.3103 11.9383 41.1503C11.9383 39.339 11.9383 37.5276 11.9383 35.7163C11.9383 33.3077 11.9383 30.8992 11.9383 28.4906C11.9383 28.0262 11.9141 29.4191 11.8932 29.883C11.7906 32.1551 11.5182 34.4096 11.2577 36.6677C11.0984 38.0495 10.9467 39.4335 10.8862 40.8239C10.8736 41.1143 10.8567 41.6758 10.8897 41.0427C11.1099 36.8191 11.1883 32.598 11.1883 28.3691C11.1883 27.7919 11.2664 27.1021 11.1536 26.5219C11.0763 26.1243 10.947 27.3075 10.8966 27.7094C10.6351 29.7976 10.3561 31.8832 10.0563 33.9663C9.8344 35.5085 9.53022 37.0621 9.4244 38.6191C9.41982 38.6865 9.43523 38.8867 9.44871 38.8205C9.61533 38.0012 9.58915 37.0643 9.6119 36.2441C9.69206 33.3555 9.70261 30.4632 9.65704 27.5739C9.64928 27.082 9.61288 25.6065 9.62927 26.0982C9.67866 27.5801 9.68679 29.0545 9.59107 30.5357C9.41505 33.2595 8.87579 35.9866 8.87579 38.7198C8.87579 39.1712 8.97287 37.8221 9.01468 37.3725C9.21575 35.2111 9.3575 33.0477 9.51468 30.883C9.52389 30.7562 9.61272 29.5922 9.64663 29.3413C9.65359 29.2898 9.66293 29.1487 9.69177 29.192C9.90929 29.5183 9.78883 29.9707 9.81329 30.3621C9.96603 32.8059 9.94136 35.2561 9.87579 37.7024C9.85137 38.6136 9.80431 39.5267 9.81329 40.4385C9.81442 40.5528 9.78103 40.8659 9.85496 40.7788C10.0689 40.5267 10.1009 39.4924 10.1258 39.2788C10.3281 37.5399 10.3964 35.7918 10.4313 34.0427C10.4505 33.0837 10.4501 32.5071 10.473 31.5705C10.485 31.079 10.4498 30.4573 10.5494 29.9594C10.668 29.3666 10.6053 31.1674 10.6119 31.7719C10.6326 33.6643 10.5592 35.5525 10.4036 37.4385C10.3196 38.4566 10.1809 39.4763 10.1397 40.4975C10.1365 40.5759 10.1501 40.8047 10.1744 40.7302C10.3883 40.0742 10.4157 39.2391 10.4869 38.5705C10.7192 36.3903 10.8548 34.2007 11.0216 32.0149C11.029 31.9189 11.1323 30.5338 11.1744 30.2232C11.2479 29.6819 11.1907 31.3166 11.1605 31.8621C11.045 33.9461 10.8349 36.023 10.4834 38.0809C10.3921 38.6158 10.3067 39.0666 10.1813 39.5809C9.99976 40.326 10.0635 39.2182 10.0633 39.1885C10.0368 35.0778 10.1545 30.9317 9.66052 26.8413C9.65774 26.8183 9.44605 25.5369 9.43829 25.7371C9.36952 27.5114 9.27571 29.284 9.11885 31.0531C8.98025 32.6162 8.75777 34.1681 8.58065 35.7267C8.50923 36.3552 8.43829 38.2516 8.43829 37.6191C8.43829 33.9851 8.54426 30.3505 8.56677 26.7163C8.57171 25.9181 8.58765 25.1213 8.62232 24.3239C8.66174 23.4173 8.49111 26.1348 8.38274 27.0357C8.1759 28.7554 7.87179 30.4626 7.6119 32.1746C7.39505 33.6032 7.22328 35.0425 6.97649 36.4663C6.89813 36.9183 6.88274 36.6107 6.88274 36.2545C6.88274 33.7763 6.96952 31.297 7.0494 28.8205C7.09359 27.4508 7.15289 23.3439 7.21607 24.7128C7.34615 27.5312 6.67074 30.366 6.27857 33.1399C6.26895 33.2079 6.12234 34.4235 6.13621 33.6538C6.17274 31.6264 6.36552 29.5882 6.5494 27.5705C6.6399 26.5774 6.75999 25.5884 6.87579 24.5982C6.90923 24.3123 6.96372 24.0088 6.93482 23.7198C6.93042 23.6758 6.62234 24.6607 6.62232 24.6607C6.35706 25.6295 6.16315 26.6144 5.93135 27.5913C5.82233 28.0507 5.69265 28.5007 5.55635 28.9524C5.5371 29.0162 5.51375 29.2009 5.4869 29.1399C5.39824 28.9384 5.47453 28.3964 5.48343 28.2302C5.57448 26.5306 5.98032 24.8392 6.00079 23.1399C6.00564 22.7375 5.92065 22.7902 5.8376 23.1607C5.64037 24.0407 5.44476 24.9246 5.1744 25.7857C5.15356 25.8521 5.06329 26.1149 5.06329 25.8691C5.06329 25.258 5.16163 24.6469 5.18135 24.0357C5.19336 23.6633 5.18829 23.2903 5.18829 22.9177C5.18829 22.8694 5.20053 22.717 5.12232 22.8344C4.99117 23.0311 4.96446 23.3182 4.9001 23.5392C4.77404 23.9722 4.61599 24.3951 4.4869 24.8274C4.43139 25.0133 4.33086 25.5762 4.31329 25.383C4.26903 24.896 4.39466 24.346 4.46954 23.8691C4.49941 23.6789 4.62673 22.761 4.62579 22.7788C4.60064 23.2567 4.41596 23.7337 4.34802 24.2094C4.24928 24.9005 4.33462 24.2694 4.37579 23.9594C4.39219 23.8359 4.60985 22.7766 4.43482 23.3309C4.28538 23.8041 4.24295 24.2844 4.1744 24.7719C4.10074 25.2957 4.17875 24.2932 4.18829 24.2163C4.22273 23.9388 4.25293 23.6564 4.31329 23.383C4.36106 23.1666 4.38202 23.281 4.3376 23.4142C4.26838 23.6219 4.19501 24.2434 4.12579 24.0357C4.05787 23.832 4.18725 23.4545 4.27857 23.2719C4.28427 23.2605 4.23023 23.6908 4.20218 23.8135C4.00701 24.6674 3.87045 25.5247 3.80982 26.4038C3.75413 27.2113 3.45654 27.9991 3.37579 28.8066C3.3082 29.4825 3.12962 30.1432 3.06329 30.8205C2.94163 32.0627 2.86364 33.3115 2.77857 34.5566C2.65008 36.4371 2.56329 38.3104 2.56329 40.1955C2.56329 40.6422 2.56329 41.089 2.56329 41.5357C2.56329 42.7346 2.69011 39.1399 2.82718 37.9489C3.2284 34.463 4.14288 31.0827 4.97302 27.6816C5.14503 26.9768 5.31307 26.2642 5.55982 25.5809C5.6267 25.3957 5.75079 24.8249 5.75079 25.0219C5.75079 25.3068 5.68387 25.5943 5.61885 25.8691C5.31995 27.1322 4.99036 28.3861 4.70913 29.6538C4.39183 31.0841 4.07965 32.518 3.87579 33.9698C3.80591 34.4674 3.69827 35.9714 3.76468 35.4732C4.17917 32.3646 4.3921 29.2294 4.7994 26.1191C4.85614 25.6858 4.89629 25.239 5.00079 24.8135C5.05142 24.6074 5.1546 24.4077 5.08413 24.7649C4.56723 27.3851 4.18171 30.0305 3.74038 32.6642C3.67099 33.0783 3.57024 33.515 3.57024 33.9385C3.57024 34.844 3.84394 32.1482 3.96607 31.251C4.2707 29.0132 4.4915 26.7384 4.93482 24.5219C5.50207 21.6856 3.87941 30.2112 3.46607 33.0739C3.26343 34.4774 3.16122 35.886 3.13274 37.3031C3.12025 37.9243 3.03445 38.8071 3.34802 39.383C3.46943 39.6059 3.56883 39.1999 3.57024 39.1955C3.68782 38.8212 3.86955 37.8836 3.9244 37.5705C4.31863 35.3198 4.48626 33.0389 4.68135 30.7649C4.73419 30.149 4.79399 29.4243 4.86538 28.7962C4.88673 28.6082 4.77796 28.2782 4.9626 28.2371C4.9974 28.2294 4.98613 28.3056 4.9869 28.3413C4.99078 28.5184 4.98439 28.6956 4.97649 28.8725C4.91141 30.3302 4.76922 31.7856 4.62579 33.2371C4.39034 35.6199 4.07356 37.995 3.9869 40.3899C3.96414 41.019 3.99865 42.8285 4.26468 42.258C4.40538 41.9562 4.50507 41.2741 4.53552 41.0149C4.64163 40.1114 4.70043 38.85 4.7369 37.9802C4.85326 35.205 4.87666 32.4262 5.05635 29.6538C5.06922 29.4552 5.0982 29.037 5.11885 28.7892C5.12541 28.7105 5.15992 28.4578 5.10149 28.9628C4.83978 31.2247 4.47289 33.475 4.16052 35.7302C3.7915 38.3942 2.81818 46.4014 3.25427 43.7475C3.94599 39.5379 4.24311 35.2266 4.37232 30.9628C4.37609 30.8384 4.38887 30.7444 4.35149 30.9073C4.29336 31.1606 4.13993 31.9141 4.11885 32.0184C3.6865 34.1574 3.23544 36.3172 3.04246 38.4941C2.94459 39.5981 2.90222 40.7569 3.01468 41.8621C3.025 41.9635 3.00857 42.0887 3.08065 42.1607C3.11978 42.1999 3.16818 42.0825 3.18135 42.0288C3.72735 39.8009 3.88203 37.363 4.1744 35.1052C4.28391 34.2595 4.69427 30.9996 4.86538 29.7927C4.90029 29.5465 4.92319 29.297 4.9869 29.0566C5.0008 29.0041 5.01565 29.1621 5.01815 29.2163C5.04263 29.7449 4.99034 30.6565 4.96607 31.0774C4.8421 33.2278 4.63082 35.3706 4.43135 37.5149C4.23224 39.6554 4.00175 41.8069 3.99385 43.9594C3.99364 44.0174 3.99869 44.885 4.07718 45.0774C4.23219 45.4573 4.55977 44.395 4.6744 44.001C5.33768 41.7215 5.50886 39.3282 5.63968 36.9698C5.82078 33.7051 5.89284 30.4342 6.03552 27.1677C6.04653 26.9154 6.07426 26.663 6.06329 26.4107C6.05151 26.1398 6.03692 26.9525 6.02163 27.2232C5.84204 30.4036 5.48723 33.5689 5.24038 36.7441C5.07426 38.8808 4.94524 41.0204 4.94524 43.1642C4.94524 43.8928 4.89494 46.0275 5.13968 45.3413C5.24362 45.0498 5.40487 43.8354 5.41052 43.7927C5.73386 41.3449 5.95683 38.8841 6.16746 36.4246C6.38241 33.9148 6.52584 31.3958 6.78552 28.8899C6.85809 28.1896 6.76244 30.2985 6.71607 31.001C6.44964 35.0378 5.98373 39.0557 5.62579 43.0844C5.50072 44.4921 5.26612 46.0427 5.4001 47.4628C5.43284 47.8099 5.50897 47.6699 5.59454 47.3864C6.01065 46.0081 6.10765 44.4705 6.22996 43.0496C6.52367 39.6376 6.58802 36.2093 6.81329 32.7927C6.86884 31.9502 6.96372 30.6931 7.07024 29.7927C7.1828 28.8412 7.17608 29.7229 7.16746 30.0288C7.08861 32.8279 6.90454 35.6253 6.75427 38.4212C6.59023 41.4731 6.33323 44.5469 6.34107 47.6052C6.34141 47.7383 6.39082 48.1208 6.43135 47.9941C6.55238 47.6156 6.71268 46.306 6.72996 46.1538C7.1562 42.3981 7.21508 38.6224 7.31329 34.8482C7.33721 33.9293 7.41626 31.1769 7.46607 32.0948C7.61745 34.8844 7.36253 37.7218 7.16052 40.501C6.98619 42.8994 6.6985 45.305 6.61885 47.7094C6.61233 47.906 6.60824 48.104 6.62927 48.2996C6.63861 48.3866 6.62556 48.5755 6.70913 48.5496C6.82581 48.5135 6.83947 48.3399 6.87579 48.2232C7.11508 47.455 7.26504 46.3587 7.3619 45.6225C7.8517 41.9001 7.88867 38.1398 8.1119 34.3969C8.13279 34.0467 8.21414 32.7576 8.28552 32.2441C8.29227 32.1955 8.31502 32.06 8.33413 32.1052C8.49741 32.4911 8.36587 32.9431 8.35843 33.3621C8.30996 36.0928 8.08853 38.8179 7.87232 41.5392C7.73871 43.2208 7.63248 44.4652 7.49385 46.1191C7.45213 46.6168 7.40835 47.1143 7.36885 47.6121C7.33677 48.0165 7.19637 48.437 7.30635 48.8274C7.3805 49.0906 7.47421 48.3051 7.52163 48.0357C7.68044 47.1337 7.85517 45.8072 7.94524 44.9385C8.38248 40.7215 8.42785 36.4766 8.79593 32.2545C8.83661 31.7879 8.86177 31.4581 8.95565 31.0392C9.00959 30.7986 8.99507 31.0423 8.99732 31.2059C9.037 34.0823 8.92809 36.9645 8.74385 39.8344C8.56195 42.6676 8.28618 45.4943 8.10496 48.3274C8.08847 48.5852 8.06855 48.8434 8.07024 49.1017C8.07087 49.1988 8.0192 49.4187 8.1119 49.3899C8.23458 49.3518 8.23217 49.1615 8.27163 49.0392C8.53784 48.2144 8.72227 47.2398 8.86538 46.4107C9.37124 43.4801 9.51079 40.5348 9.58413 37.567C9.59487 37.1323 9.635 35.0339 9.65704 34.3725C9.69371 33.2725 9.73506 33.8147 9.7369 34.3413C9.74798 37.4969 9.51939 40.6529 9.31329 43.7996C9.14976 46.2964 8.60896 53.7556 9.10496 51.3031C9.33495 50.1659 9.54008 47.829 9.61885 46.935C9.84424 44.3769 9.94304 42.722 10.0911 40.1746C10.0924 40.1524 10.2461 37.1564 10.2994 36.5288C10.3072 36.4374 10.3326 36.1675 10.348 36.258C10.452 36.8696 10.3513 37.4989 10.3341 38.1191C10.2435 41.3909 10.0981 44.6626 9.87579 47.9281C9.78345 49.2844 9.33606 53.3194 9.66746 52.001C10.1683 50.0084 10.2243 47.8026 10.3827 45.7719C10.5272 43.9211 10.6128 42.3515 10.723 40.508C10.7967 39.2763 10.8202 38.0112 10.9938 36.7857C11.037 36.4814 11.0635 36.4295 11.0876 36.7719C11.1328 37.4145 11.1081 38.2273 11.0876 38.8239C10.951 42.7942 10.6363 46.7715 10.1675 50.7163C10.1502 50.8614 10.0047 51.9569 9.97996 52.2163C9.9727 52.2924 9.9351 52.3791 9.97302 52.4455C9.99716 52.4877 10.0231 52.3606 10.0355 52.3135C10.7356 49.6557 10.7788 46.77 10.9869 44.0496C11.0196 43.6221 11.2294 40.7584 11.289 40.0184C11.3109 39.7462 11.3313 39.4738 11.3619 39.2024C11.3684 39.1446 11.3493 39.004 11.4001 39.0323C11.4602 39.0657 11.4225 39.1684 11.4244 39.2371C11.4318 39.5102 11.4296 39.7834 11.4279 40.0566C11.4164 41.9153 11.3704 43.7762 11.2855 45.633C11.1796 47.9503 10.9267 50.2475 10.723 52.5566C10.7195 52.596 10.619 53.748 10.6397 53.9871C10.7014 54.6994 10.9179 52.5839 11.0182 51.876C11.3537 49.5062 11.6042 47.1347 11.7751 44.7475C11.941 42.429 11.834 43.7834 11.9904 41.6607C12.0319 41.0976 12.0308 39.4191 12.1397 39.9732C12.2196 40.3799 12.164 40.8019 12.1605 41.2163C12.1513 42.325 12.1186 43.6281 12.0563 44.7232C11.9182 47.154 11.4998 49.5493 11.3133 51.9732C11.298 52.1718 11.1761 52.696 11.3307 52.5705C11.5705 52.3756 11.6936 50.3893 11.6952 50.376C12.0925 47.0776 12.3159 43.7647 12.6397 40.4594C12.6756 40.0924 12.7107 39.7398 12.7716 39.3795C12.8062 39.1749 12.8063 39.2298 12.8063 39.435C12.8063 41.6398 12.5295 43.8398 12.2438 46.0219C12.0043 47.8516 11.3942 53.3499 11.7126 51.5323C12.2729 48.3341 12.596 45.0444 12.848 41.8066C12.8755 41.4537 12.8705 41.0946 12.9244 40.7441C12.9742 40.4203 12.9387 41.3992 12.9348 41.7267C12.9026 44.467 12.5192 47.1662 12.3897 49.8969C12.371 50.29 12.3758 50.684 12.3758 51.0774C12.3758 51.1445 12.3697 51.3456 12.3758 51.2788C12.3995 51.0182 12.4049 50.7505 12.4244 50.4906C12.6191 47.8953 12.9383 45.3003 12.9383 42.6955C12.9383 42.3563 12.9383 42.0172 12.9383 41.6781C12.9383 41.4824 12.9434 42.0694 12.9522 42.2649C13.0559 44.5867 12.6996 46.8979 12.5147 49.2094C12.4709 49.7565 12.4473 50.3044 12.407 50.8517C12.4009 50.9353 12.3865 51.1852 12.3793 51.1017C12.3322 50.5604 12.4084 49.9334 12.4452 49.4038C12.6087 47.0543 12.829 44.6984 13.157 42.3656C13.1993 42.0649 13.2329 41.7631 13.2786 41.4628C13.295 41.3546 13.3133 41.0628 13.3133 41.3552C13.3133 43.6861 13.0361 46.0116 12.8619 48.3344C12.7892 49.3042 12.6811 50.293 12.473 51.2441C12.277 52.1401 12.1796 53.0801 12.1258 53.9941C12.1092 54.2759 12.0739 54.5514 12.0355 54.8309C12.0173 54.9635 12.0008 55.3126 12.0008 54.9524C12.0008 53.0694 12.1502 51.1926 12.3098 49.317C12.4001 48.2563 12.4652 47.1133 12.7022 46.0705C12.7505 45.858 12.7423 46.5054 12.7369 46.7232C12.7015 48.1438 12.6376 49.563 12.532 50.9802C12.4396 52.2207 12.3133 53.4706 12.3133 54.7163C12.3133 55.5358 12.3832 53.0785 12.4452 52.2614C12.5342 51.0905 12.6569 49.9234 12.7994 48.758C12.8933 47.9902 12.908 47.2114 13.0598 46.4524C13.0649 46.4269 13.0633 46.8337 13.0633 46.8448C13.0633 47.6214 13.0665 48.3981 13.0494 49.1746C13.0167 50.6619 12.8708 52.1407 12.8168 53.626C12.8155 53.6611 12.8133 54.109 12.8133 53.8205C12.8133 53.4132 12.8263 53.0085 12.848 52.6017C12.9255 51.1513 13.045 49.7015 13.1119 48.251C13.1218 48.0357 13.1258 47.8206 13.1258 47.6052C13.1258 47.2369 13.1128 48.3421 13.0841 48.7094C12.9694 50.1793 12.7567 51.6484 12.5772 53.1121C12.4944 53.7872 12.4955 54.5115 12.1883 55.126" stroke="#021120" stroke-linecap="round"/>
<path d="M2.31329 44.9384C2.24195 44.7512 2.24664 44.5532 2.25426 44.3551C2.28258 43.6188 2.41695 42.8828 2.53551 42.1572C2.71019 41.0881 2.98581 40.0574 3.24731 39.0114C3.46978 38.1215 2.92927 40.819 2.72301 41.7127C2.64802 42.0377 2.61404 42.9837 2.47301 42.6815C2.38984 42.5033 2.45762 42.0451 2.46606 41.8968C2.50501 41.213 2.57009 40.5313 2.65356 39.8516C2.71323 39.3658 2.80511 38.8805 2.81329 38.3898C2.817 38.1671 2.69317 38.9768 2.6744 39.0565C2.29489 40.6673 2.12545 42.2534 1.95218 43.8898C1.85692 44.7894 2.03832 42.0819 2.12579 41.1815C2.15071 40.9249 2.18829 40.1529 2.18829 40.4107C2.18829 40.8032 2.15927 41.1923 2.13968 41.5843C2.09359 42.5061 2.02532 43.429 1.94176 44.3482C1.90309 44.7735 1.93829 43.494 1.93829 43.0669C1.93829 42.3987 1.87841 41.7013 1.97301 41.0391C2.07494 40.3256 2.24836 39.6389 2.30634 38.9141C2.50841 36.3883 3.06943 33.8198 3.68829 31.3621C4.18688 29.3819 4.28385 27.3449 4.68829 25.3516C4.79681 24.8168 4.94404 24.2929 5.00426 23.7509C5.0095 23.7038 5.09869 23.5208 5.02509 23.5044C4.8632 23.4684 4.75885 23.6335 4.69176 23.7509C4.48953 24.1048 4.35105 24.4601 4.1744 24.8134C4.09847 24.9653 4.04954 25.4109 3.95218 25.2718C3.85023 25.1261 4.22369 24.3493 4.26468 24.1398C4.27543 24.0849 4.34873 23.4472 4.21954 23.6051C4.09346 23.7592 4.03224 24.0866 3.99731 24.2787C3.93121 24.6423 3.62579 24.9771 3.62579 25.3759C3.62579 25.9152 3.42987 26.4244 3.37926 26.9558C3.34662 27.2985 3.37579 27.6566 3.37579 28.0009C3.37579 28.4611 3.17421 28.9619 3.07718 29.4107C2.90903 30.1883 2.76189 31.0421 2.75079 31.8412C2.72615 33.6152 2.36132 35.3345 2.24731 37.1016C2.1843 38.0784 2.14748 39.0736 2.12579 40.0496C2.12254 40.1957 1.95033 41.2906 1.93829 41.2718C1.80206 41.0589 1.87579 40.6438 1.87579 40.4072C1.87579 39.8968 1.87579 39.3864 1.87579 38.8759C1.87579 38.314 2.00079 37.7655 2.00079 37.2127C2.00079 36.6972 2.03508 36.1962 2.06329 35.6884C2.07712 35.4395 2.13591 35.1301 2.20218 34.8898C2.27719 34.6179 2.25219 34.3214 2.32718 34.0496C2.43832 33.6467 2.43258 33.1474 2.49731 32.7266C2.56813 32.2663 2.68829 31.7449 2.68829 31.2822C2.68829 30.4486 2.93829 29.6598 2.93829 28.8134C2.93829 27.7675 3.52437 26.8298 3.87579 25.8759" stroke="#021120" stroke-linecap="round"/>
<path d="M3.3133 44.501C3.10984 43.9624 3.08893 44.5991 3.04942 44.8552C2.90964 45.7612 2.82388 46.6709 2.7508 47.5844C2.72122 47.9541 2.6883 49.0664 2.6883 48.6955C2.6883 47.9663 2.6883 47.2371 2.6883 46.508C2.6883 45.6157 2.76545 44.6771 2.56678 43.7996C2.53491 43.6589 2.49441 43.1428 2.4383 43.5983C2.33039 44.4743 2.31622 45.3628 2.3133 46.2441C2.31103 46.93 2.24081 47.6645 2.31678 48.3483C2.47118 49.7379 2.43341 45.5479 2.32719 44.1538C2.32424 44.1151 2.26469 43.7719 2.26469 43.7719C2.09016 44.2955 2.13845 45.0665 2.12928 45.6121C2.11977 46.1778 2.0822 46.7694 2.12928 47.3344C2.18031 47.9467 2.22122 46.1084 2.23692 45.4941C2.25334 44.8515 2.27602 44.1996 2.2508 43.5566C2.24776 43.4789 2.0706 44.233 2.06678 44.3934C2.04893 45.1428 2.0633 45.8938 2.0633 46.6434C2.0633 46.7835 2.0633 47.5439 2.0633 46.9385C2.0633 46.1978 2.0633 45.457 2.0633 44.7163C2.0633 44.5349 2.19865 43.4848 1.96955 43.383C1.81788 43.3156 1.81861 43.914 1.81678 43.9663C1.78377 44.907 1.92172 45.8638 2.0008 46.7996C2.04 47.2635 2.04994 47.7356 2.1258 48.1955C2.22263 48.7825 2.1883 47.5295 2.1883 47.4489C2.1883 46.5901 2.1883 45.7314 2.1883 44.8726C2.1883 44.6838 2.25186 44.1345 2.17442 44.3066C1.98465 44.7283 2.06485 45.3379 2.0633 45.7788C2.05854 47.1411 1.99155 48.5419 2.19178 49.8934C2.26306 50.3745 2.3815 50.9009 2.58761 51.3448C2.63451 51.4458 2.66286 51.4162 2.67442 51.3135C2.7152 50.951 2.6883 50.5732 2.6883 50.2094C2.6883 49.4204 2.68502 48.6354 2.6258 47.8483C2.59239 47.404 2.61165 46.8877 2.38275 46.4871C2.36778 46.4609 2.3758 46.5472 2.3758 46.5774C2.3758 46.882 2.37514 47.186 2.38622 47.4906C2.4462 49.1401 2.65083 50.7963 2.86886 52.4316C2.9418 52.9787 3.0548 53.5149 3.21608 54.0427C3.22001 54.0556 3.28 54.2804 3.29942 54.1121C3.36498 53.5439 3.31459 52.9383 3.3133 52.3691C3.30914 50.5251 3.23555 48.6845 3.20219 46.8413C3.19184 46.269 3.18381 45.6941 3.22303 45.1226C3.23006 45.0201 3.22572 44.4678 3.34803 44.3899C3.49692 44.2952 3.47693 44.722 3.5008 44.8969C3.60394 45.6522 3.62885 46.4209 3.65011 47.1816C3.72331 49.8006 3.6258 52.417 3.6258 55.0358C3.6258 55.4248 3.61676 55.8217 3.66053 56.2094C3.66926 56.2867 3.74749 56.4821 3.77858 56.4108C3.95207 56.0128 3.94014 55.4298 3.96261 55.0219C4.05781 53.2937 4.0222 51.5594 3.95914 49.8309C3.89179 47.9847 3.71851 46.147 3.63275 44.3031C3.625 44.1366 3.61624 43.9601 3.6258 43.7927C3.64504 43.456 3.73784 44.458 3.77858 44.7927C4.07484 47.2266 4.14749 49.6569 4.21608 52.1052C4.25152 53.37 4.29496 54.6356 4.44178 55.8934C4.50998 56.4776 4.56957 57.2008 4.84455 57.7406C4.91527 57.8794 5.04262 58.0027 5.11192 57.7649C5.29129 57.1493 5.25688 56.389 5.27511 55.7649C5.37006 52.5156 5.287 49.2545 5.13969 46.008C5.11291 45.4178 5.0008 44.8071 5.0008 44.2163C5.0008 42.3672 5.1209 47.9127 5.15358 49.7614C5.19763 52.2532 5.12339 54.787 5.46955 57.2614C5.50773 57.5343 5.55475 58.0156 5.7508 58.258C5.9573 58.5133 6.1215 57.6882 6.16053 57.3621C6.31849 56.0427 6.30486 54.6867 6.28553 53.3621C6.25563 51.3142 6.13563 49.2731 5.91053 47.2371C5.79617 46.2028 5.65661 45.1569 5.46261 44.133C5.43044 43.9632 5.41455 43.8769 5.41747 44.1017C5.4223 44.4733 5.46081 44.9823 5.48344 45.317C5.66728 48.0358 5.82627 50.748 5.87233 53.4733C5.88527 54.2387 5.85633 55.0309 5.96608 55.7927C5.98993 55.9582 6.05113 56.5923 6.23692 56.6955C6.40019 56.7862 6.30713 56.3267 6.30983 56.1399C6.32346 55.1994 6.2843 54.2574 6.20219 53.3205C5.96868 50.6559 5.51276 47.9957 4.89317 45.3934C4.69834 44.5751 4.96265 46.0423 4.96955 46.0983C5.33611 49.0693 5.28275 52.0881 5.73692 55.0496C5.7941 55.4225 5.99351 56.3617 6.03553 55.3413C6.1484 52.6001 5.67532 49.8887 5.01122 47.2406C4.78641 46.3442 4.14255 43.6544 4.26469 44.5705C4.31994 44.9848 4.42488 45.3982 4.50775 45.8066C4.8874 47.6777 5.20257 49.5587 5.49386 51.4455C5.74913 53.0989 5.96492 54.76 6.23692 56.4108C6.25159 56.4998 6.3275 56.75 6.34108 56.6608C6.41669 56.1639 6.38154 55.6006 6.3758 55.1052C6.34335 52.303 5.77558 49.6349 5.01469 46.9455C4.82447 46.2731 4.62416 45.5969 4.36886 44.9455C4.34618 44.8876 4.27419 44.7159 4.29247 44.7753C4.62667 45.8615 3.90593 43.427 4.56678 45.6434C5.23766 47.8934 5.74369 50.1919 6.08414 52.5149C6.25274 53.6654 6.37644 54.8215 6.53553 55.9733C6.60443 56.4721 6.62881 57.165 6.8758 57.633C6.97839 57.8273 7.06617 57.5971 7.09108 57.501C7.24793 56.896 7.22845 56.2069 7.23692 55.5913C7.27926 52.5105 6.95968 49.4565 6.64317 46.3969C6.59686 45.9492 6.39154 44.6309 6.55636 45.0496C6.85373 45.8051 6.92058 46.8514 7.03205 47.6226C7.52628 51.0416 7.61821 54.4765 7.84803 57.9177C7.88416 58.4587 7.90882 59.0098 8.06678 59.5323C8.11493 59.6915 8.20352 60.0913 8.3133 59.9663C8.49728 59.7568 8.42674 58.8369 8.42789 58.692C8.44488 56.5427 8.31961 54.3911 8.17789 52.2476C8.03926 50.1507 7.83671 48.0638 7.63275 45.9733C7.48319 44.4403 8.0035 49.0331 8.09803 50.5705C8.26895 53.3504 8.27663 56.1352 8.3758 58.9177C8.39067 59.3347 8.3847 59.7945 8.46955 60.2094C8.47708 60.2462 8.51977 60.3386 8.53205 60.3031C8.60997 60.078 8.58528 59.8293 8.59455 59.5913C8.72081 56.3507 8.64657 53.104 8.62928 49.8621C8.62498 49.0556 8.60072 48.2384 8.63969 47.4316C8.64449 47.3323 8.65434 47.0528 8.70219 47.1399C8.84432 47.3988 8.81273 47.721 8.84108 48.0149C9.10195 50.7195 9.07796 53.4416 8.98692 56.1538C8.95552 57.0891 8.90856 58.0239 8.88275 58.9594C8.87911 59.0913 8.87315 59.487 8.87928 59.3552C8.89087 59.1059 8.90612 58.2653 8.90705 58.2128C8.94857 55.8717 8.92603 53.5322 8.84803 51.192C8.836 50.8312 8.8133 50.4668 8.8133 50.1052C8.8133 49.9073 8.86537 50.4979 8.8758 50.6955C9.00743 53.1886 9.0002 55.694 8.92442 58.1885C8.88252 59.5678 8.7508 60.9472 8.7508 62.3274C8.7508 63.509 8.8725 59.967 8.90011 58.7858C8.9323 57.4087 8.93633 56.0312 8.9383 54.6538C8.93941 53.8852 8.77186 51.6083 8.97997 52.3483C9.17614 53.0457 9.16827 53.9234 9.20914 54.626C9.28555 55.9395 9.31593 57.2551 9.27164 58.5705C9.23828 59.561 9.14827 60.5479 9.07372 61.5358C9.0671 61.6235 8.87296 62.8764 9.039 62.9871C9.0577 62.9996 9.0715 62.9533 9.07719 62.9316C9.12741 62.74 9.18865 62.211 9.20219 62.0844C9.31535 61.0265 9.38243 59.963 9.42789 58.9003C9.48575 57.5478 9.49291 56.1941 9.54247 54.8413C9.57662 53.9092 9.53443 52.8512 9.7508 51.9316C9.76764 51.86 9.84091 52.0563 9.84803 52.1295C9.93862 53.0602 9.9522 54.0049 9.97303 54.9385C10.0294 57.4657 9.94525 59.9886 9.94525 62.5149C9.94525 63.0716 10.0452 63.3183 10.1293 62.5358C10.4601 59.4548 10.4094 56.2782 10.2508 53.1885C10.2192 52.5735 10.1669 51.9597 10.1327 51.3448C10.1299 51.2927 10.1235 51.2406 10.1258 51.1885C10.1312 51.0652 10.1558 51.4337 10.1675 51.5566C10.4496 54.5241 10.538 57.518 10.4661 60.4976C10.4483 61.2351 10.4179 61.9721 10.3897 62.7094C10.3837 62.8667 10.2385 63.1112 10.3793 63.1816C10.3901 63.187 10.3881 63.1588 10.3897 63.1469C10.4111 62.9841 10.4457 62.5575 10.4522 62.4594C10.5723 60.6571 10.5928 58.8482 10.6119 57.0427C10.6303 55.3018 10.4752 53.4875 10.6397 51.751C10.7779 50.2927 10.9095 54.6716 10.9244 56.1364C10.9457 58.2266 10.8484 60.3111 10.7265 62.3969C10.7134 62.621 10.5843 63.2413 10.73 63.0705C10.8639 62.9134 10.8739 62.682 10.9175 62.4802C11.0335 61.9436 11.144 61.2172 11.2091 60.6885C11.4578 58.6702 11.4607 56.6399 11.5633 54.6121C11.578 54.3218 11.5844 54.0162 11.6258 53.7267C11.6521 53.5429 11.7092 54.0901 11.723 54.2753C11.8865 56.4605 11.8713 58.6649 11.7508 60.8517C11.7225 61.3653 11.6732 61.8768 11.6397 62.3899C11.6383 62.4115 11.6243 62.6548 11.6258 62.7094C11.6269 62.7498 11.6482 62.6314 11.6536 62.5913C11.9124 60.6569 11.9577 58.6994 12.0008 56.751C12.031 55.3876 12.0518 54.024 12.0911 52.6608C12.102 52.2805 12.0496 51.735 12.1571 51.3483C12.2062 51.1715 12.1974 51.7134 12.2022 51.8969C12.2281 52.8885 12.2489 53.8806 12.2334 54.8726C12.2015 56.9146 11.8302 63.0308 11.98 60.9941C12.1814 58.2547 12.1732 55.5047 12.3619 52.7649C12.381 52.4876 12.3812 52.1267 12.4696 51.8517C12.5214 51.6903 12.5827 52.1756 12.5946 52.3448C12.7968 55.2218 12.4544 58.0904 12.5008 60.9663C12.5172 61.9811 12.5991 58.9388 12.6397 57.9246C12.6948 56.5502 12.8133 55.1687 12.8133 53.7927C12.8133 53.7237 12.8133 53.4317 12.8133 53.4594C12.8133 53.7857 12.8107 54.1122 12.8133 54.4385C12.826 56.039 12.8758 57.6387 12.8758 59.2406C12.8758 59.6906 12.8445 60.1277 12.7855 60.5739C12.7439 60.8891 12.7508 61.3252 12.7508 60.6816C12.7508 58.8483 12.7508 57.0149 12.7508 55.1816C12.7508 52.5713 12.6317 60.4017 12.4869 63.008C12.3929 64.6999 12.2351 66.3789 12.0772 68.0635C12.0156 68.7203 12.0633 69.4003 12.0633 70.0601C12.0633 70.4525 12.0965 70.6156 11.973 70.0496C11.4426 67.6184 11.1635 65.1234 10.7577 62.6677C10.5953 61.6846 10.4181 60.7083 10.23 59.7302C10.1958 59.5525 10.1724 59.3733 10.1397 59.1955C10.0516 58.7175 10.2248 60.1638 10.2786 60.6469C10.5137 62.7588 10.7474 64.8748 11.0355 66.9802C11.0606 67.1633 11.0897 67.6953 11.1536 67.5219C11.2197 67.3425 11.1801 67.1401 11.1779 66.9489C11.1717 66.4064 11.1411 65.546 11.1258 65.0427C11.066 63.0797 11.0111 61.1066 11.098 59.1434C11.1017 59.0615 11.0874 58.5464 11.2022 58.4316C11.2513 58.3825 11.3086 58.5313 11.3272 58.5983C11.4003 58.8619 11.4632 59.3456 11.4869 59.5844C11.7353 62.0861 11.4683 69.6381 11.5668 67.126C11.6558 64.8569 11.8564 58.0497 11.8758 60.3205C11.8966 62.748 11.7508 65.1708 11.7508 67.5948C11.7508 67.6673 11.7574 67.8326 11.723 67.6191C11.6421 67.1167 11.5853 66.6098 11.5216 66.1052C11.2408 63.8781 10.9834 61.6332 10.5772 59.4246C10.1419 57.058 10.7844 64.2329 10.9001 66.6364C10.9185 67.0177 10.9172 67.4051 10.9522 67.7858C10.9558 67.8251 10.9877 68.092 10.9973 67.8274C11.0735 65.7324 10.6693 63.5854 10.2647 61.5427C10.0763 60.5918 9.85538 59.6461 9.58067 58.7163C9.48106 58.3792 9.3827 57.9916 9.20219 57.6816C9.11633 57.5341 9.07609 57.5918 9.08067 57.7406C9.09952 58.3535 9.23532 58.9916 9.33414 59.5913C9.68653 61.7298 10.111 63.8508 10.3897 66.001C10.505 66.8906 10.5867 67.7981 10.7473 68.6816C10.9428 69.7565 10.4815 66.5118 10.2959 65.4351C9.86725 62.9471 9.26691 60.4851 8.60497 58.0496C8.58849 57.989 8.40858 57.2646 8.45219 57.7163C8.66339 59.9037 9.14144 62.0792 9.59108 64.2267C9.86275 65.5243 10.0501 66.8868 10.4383 68.1573C10.4783 68.2881 10.5417 68.535 10.6466 68.6399C10.6893 68.6826 10.6681 68.5193 10.6605 68.4594C10.6324 68.2362 10.5417 67.7201 10.5077 67.5427C10.0616 65.214 9.40036 62.9266 8.70914 60.6608C8.31514 59.3692 7.92991 58.0467 7.32372 56.8344C7.08662 56.3602 7.23682 56.9888 7.26817 57.1816C7.68108 59.721 8.1093 62.267 8.66747 64.7788C8.80887 65.4151 8.94634 66.0788 9.20567 66.6816C9.44513 67.2382 9.3283 66.5705 9.29942 66.4177C8.73942 63.4547 7.93369 60.5019 7.10844 57.6017C6.99223 57.1933 6.87411 56.7401 6.6883 56.3552C6.66011 56.2968 6.5977 56.1339 6.57719 56.1955C6.4594 56.5489 6.68023 57.2971 6.72997 57.626C7.02997 59.6099 7.45465 61.5793 8.00775 63.508C8.18402 64.1226 8.37572 64.7374 8.61539 65.3309C8.70643 65.5563 8.8285 65.9683 9.01817 66.1434C9.19023 66.3022 8.98667 65.6746 8.9383 65.4455C8.7603 64.6023 8.54832 63.765 8.31678 62.9351C7.64903 60.5416 6.94354 58.1139 5.91053 55.8483C5.76222 55.523 5.31958 54.5602 5.38969 54.9108C5.76411 56.7828 6.29355 58.6435 6.7265 60.5045C7.03201 61.8177 7.26462 63.2469 7.77858 64.501C7.82586 64.6164 7.89322 64.9162 7.97303 64.8205C8.15164 64.6061 7.71829 63.2392 7.68136 63.0774C7.00044 60.0941 6.01556 57.1893 5.32025 54.2094C4.82659 52.0937 6.03755 58.4965 6.5008 60.6191C6.72513 61.6469 6.91487 62.7611 7.36192 63.7233C7.74833 64.5549 7.26138 62.7182 7.25428 62.692C6.75295 60.8417 6.273 58.9829 5.70914 57.1503C5.51143 56.5078 5.25482 55.8831 5.07025 55.2371C5.02693 55.0855 4.93524 54.7258 4.94872 55.1503C5.00398 56.8911 5.58454 58.7005 6.05636 60.3621C6.23583 60.9942 6.41686 61.6635 6.73692 62.2441C6.76736 62.2993 6.85411 62.445 6.86539 62.383C6.90322 62.1749 6.69029 61.743 6.63275 61.5878C6.02234 59.9419 5.38388 58.3062 4.77164 56.6608C4.65815 56.3557 4.53787 56.0544 4.40358 55.758C4.40117 55.7526 4.21129 55.2754 4.21608 55.508C4.24028 56.6814 4.58981 57.9225 4.85497 59.0566C5.09351 60.0768 5.30246 61.1814 5.93136 62.0462C6.18609 62.3964 6.19976 62.2616 6.09803 61.8899C5.67058 60.3281 5.02252 58.8348 4.57025 57.2788C4.39549 56.6776 4.22997 56.0825 4.15358 55.4594C4.12658 55.2391 4.0633 54.5777 4.0633 54.7996C4.0633 55.2532 4.16512 55.7079 4.21608 56.1573C4.25312 56.4839 4.28036 56.8118 4.29942 57.1399C4.29942 57.1399 4.29744 57.6095 4.28553 57.5913C4.00846 57.1684 3.95697 56.4835 3.8758 56.001C3.75192 55.2646 3.70345 54.5203 3.59455 53.7823C3.517 53.2566 3.45299 52.752 3.4383 52.2233C3.42979 51.9168 3.31057 51.6158 3.2508 51.317C3.09487 50.5373 3.02556 51.7834 3.01469 51.9871C2.98992 52.4516 3.0008 52.918 3.0008 53.383C3.0008 53.6767 2.97676 53.0042 2.96955 52.9351C2.92061 52.4651 2.90034 51.9672 2.8758 51.501C2.86736 51.3406 2.71965 50.9754 2.69178 51.3517C2.66058 51.7728 2.60672 52.3666 2.7508 52.7719C2.88002 53.1353 2.8133 53.1501 2.8133 52.6885C2.8133 52.486 2.8133 52.2834 2.8133 52.0809C2.8133 51.8945 2.81048 52.4536 2.8133 52.6399C2.8283 53.6296 3.1018 54.6716 3.29942 55.6399C3.44634 56.3598 3.66041 56.9955 3.93483 57.6816C4.13867 58.1912 4.23778 58.7411 4.42442 59.258C4.74404 60.1431 5.13523 60.9701 5.51469 61.8274C5.9644 62.8434 6.36791 63.8788 6.8133 64.8969C7.12483 65.6089 7.79247 65.9268 7.97303 66.8331C8.47303 66.7324 8.65867 67.7858 8.7508 67.7858C8.79317 67.7858 8.07741 67.1497 8.0633 67.1087C7.8657 66.5338 7.72099 65.9409 7.6258 65.3413C7.5678 64.9758 7.47589 64.6208 7.3758 64.2649C7.37123 64.2487 7.26707 63.9261 7.25428 63.9837C7.20609 64.2005 7.37458 64.4349 7.4383 64.626" stroke="#021120" stroke-linecap="round"/>
<path d="M6.12579 49.001C5.58477 48.5843 5.25501 48.2028 5.07024 49.0739C4.97803 49.5086 5.02056 49.9512 4.96954 50.3899C4.92857 50.7423 4.93829 50.6235 4.93829 50.3274C4.93829 49.9518 5.00079 48.8268 5.00079 49.2024C5.00079 50.0753 4.9881 50.9419 4.93829 51.8135" stroke="#021120" stroke-linecap="round"/>
<path d="M6.37579 62.126C6.48837 62.6239 6.63814 63.0811 6.81329 63.5565C6.84048 63.6303 6.9433 63.9884 6.93829 63.7232C6.93006 63.2869 6.76267 62.8927 6.69871 62.4663C6.62578 61.9801 6.92972 63.3406 6.93829 63.376" stroke="#021120" stroke-linecap="round"/>
<path d="M12.3133 51.6885C12.1585 52.391 11.9095 53.0697 11.7543 53.7683C11.6583 54.2002 11.8105 52.8849 11.8619 52.4454C11.9028 52.0958 11.5987 52.8021 11.5008 52.9419C11.1592 53.4299 11.1708 54.2401 11.0633 54.8135" stroke="#021120" stroke-linecap="round"/>
<path d="M8.00079 65.3135C8.04007 66.099 8.50405 66.943 8.87579 67.6121C8.97537 67.7913 9.78953 68.8195 9.3376 68.1121C9.11378 67.7618 8.98756 67.3662 8.77857 67.0079C8.5988 66.6998 8.38068 66.4157 8.19871 66.1086C8.08036 65.9089 8.07471 65.9962 8.14663 66.192C8.34521 66.7325 8.60012 67.2806 8.88274 67.7822C9.0611 68.0988 9.53146 69.0521 9.48343 68.692C9.45302 68.4638 9.23222 68.1849 9.11885 67.9906C8.93562 67.6765 8.75909 67.3589 8.57371 67.0461C8.55755 67.0188 8.44524 66.7758 8.44524 66.9558C8.44524 67.6617 9.16669 68.5941 9.6501 69.0565C9.97929 69.3714 9.97554 69.0759 9.86885 68.7406C9.77294 68.4391 9.65799 68.1397 9.53552 67.8482C9.44592 67.635 9.32078 66.9849 9.26468 67.2093C9.17951 67.55 9.65158 68.1791 9.78552 68.4593C10.0172 68.9439 10.2412 69.4123 10.5355 69.8621C10.5513 69.8862 10.7508 70.275 10.7508 70.0982C10.7508 69.6679 10.537 69.2341 10.3897 68.8413C10.1661 68.2451 9.93994 67.6414 9.68829 67.0565C9.50121 66.6217 9.72603 67.7294 9.74385 67.7857C9.97254 68.5088 10.6539 70.6408 10.6258 69.8829C10.607 69.3752 10.3166 68.8496 10.1327 68.3899C9.96343 67.9666 9.78904 67.5454 9.61885 67.1225C9.57515 67.0139 9.47408 66.6985 9.45218 66.8135C9.35628 67.317 9.71238 68.0372 9.88968 68.4871C10.1183 69.0672 10.4157 69.5997 10.7577 70.119C10.8007 70.1843 10.9615 70.4934 10.9244 70.2301C10.8565 69.748 10.6528 69.308 10.4383 68.876C10.3176 68.6329 9.69963 67.4095 9.92093 68.3968C9.97751 68.6492 10.9378 71.1703 11.1536 71.1086C11.4792 71.0156 10.2089 68.7539 10.0841 68.5426C9.89838 68.2283 9.93046 68.6102 9.94871 68.7683C10.0144 69.3373 10.3532 69.8363 10.6154 70.3308C10.6321 70.3625 11.0634 71.2295 11.0459 70.942C11.0131 70.4006 10.4934 69.8221 10.2369 69.369C10.2067 69.3158 9.78231 68.4157 9.76121 68.8378C9.73691 69.3237 10.0016 69.8292 10.2473 70.2301C10.3718 70.4333 10.607 70.86 10.8654 70.9246C11.0216 70.9636 10.9874 70.3556 10.9834 70.3031C10.9236 69.5157 10.6691 68.7371 10.5077 67.9663C10.4578 67.7278 10.3758 67.0039 10.3758 67.2475C10.3758 67.719 10.5353 68.1837 10.6605 68.6329C10.861 69.3519 11.0746 70.0676 11.2786 70.7857C11.2791 70.7877 11.5398 71.6227 11.5598 71.2822C11.5932 70.7143 11.5714 70.126 11.5251 69.56C11.4891 69.12 11.3758 67.8026 11.3758 68.244C11.3758 68.7313 11.5555 69.2414 11.6188 69.7232C11.6935 70.2911 11.6479 70.9776 11.8758 71.5149C11.9674 71.7307 12.0545 71.7607 12.0911 71.494C12.1917 70.7608 12.0535 68.5368 12.0043 69.2753C11.9559 70.0001 11.9884 70.7624 12.2195 71.4558C12.3087 71.7232 12.4999 72.2399 12.7195 72.4107C12.8561 72.5169 13.0534 72.7702 13.0633 72.9385C13.1091 73.718 12.8431 71.3914 12.6883 70.626C12.5915 70.1476 12.5801 69.6554 12.4383 69.1885C12.3205 68.8005 12.1977 68.3722 12.1883 67.9663C12.1701 67.1831 12.1258 66.401 12.1258 65.6121C12.1258 64.6933 12.0633 63.782 12.0633 62.8656C12.0633 62.7643 12.1222 61.3834 12.4105 61.4246C12.8072 61.4813 12.4753 64.1303 12.4383 64.3864C12.4327 64.4252 12.3133 65.3156 12.3133 65.067C12.3133 64.6393 12.3191 64.2211 12.3758 63.7961C12.4986 62.8751 12.5538 61.9345 12.7543 61.0322C12.8362 60.6636 12.8996 60.869 12.9244 61.1538C13.0004 62.028 12.9905 62.9875 12.9244 63.8621C12.8242 65.1875 12.6883 66.4962 12.6883 67.8274C12.6883 68.6176 12.6694 69.4712 12.5494 70.251C12.5085 70.5168 12.5008 71.4837 12.5008 70.6954C12.5008 69.7768 12.5048 68.814 12.6397 67.9038C12.6714 67.6898 12.6852 67.7419 12.6883 67.9246C12.6932 68.2128 12.7481 68.4961 12.7508 68.7857C12.7554 69.2722 12.8133 70.7306 12.8133 70.244C12.8133 69.7556 12.8133 69.2672 12.8133 68.7788C12.8133 68.3436 12.8133 69.6491 12.8133 70.0843C12.8133 70.7877 12.8488 71.5877 13.0494 72.2649C13.0885 72.3968 13.1232 73.0023 13.0008 73.0635" stroke="#021120" stroke-linecap="round"/>
<path d="M12.0008 71.5635V72.3135" stroke="#021120" stroke-linecap="round"/>
<path d="M19.9383 20.8135C19.8661 22.8546 19.2775 24.6644 18.6188 26.5774C18.407 27.1926 18.1839 27.8158 18.0425 28.4524C18.0378 28.4732 18.0498 28.5352 18.0563 28.5149C18.2867 27.7951 18.4393 27.035 18.6015 26.2996C18.9282 24.8186 19.1976 23.3301 19.4244 21.8309C19.5228 21.1802 19.5887 20.512 19.7508 19.8725C19.7742 19.7801 19.9178 19.2382 19.9591 19.6815C20.0583 20.7446 19.84 21.8833 19.6605 22.9246C19.4693 24.0343 19.2073 25.1303 19.0008 26.2371C18.8917 26.8219 18.5076 28.5527 18.73 28.001C19.115 27.0454 19.1983 25.8483 19.348 24.8482C19.577 23.3193 19.8238 21.7642 19.9279 20.2197C19.9403 20.0356 19.9383 19.852 19.9383 19.6677C19.9383 19.6159 19.7298 20.4368 19.7091 20.5149C19.189 22.4782 18.4889 24.4611 18.2612 26.4871C18.2347 26.723 18.3061 27.4015 18.1883 27.1954C18.1031 27.0464 18.1626 26.8531 18.157 26.6815C18.138 26.0935 18.1319 25.7056 18.1362 25.0947C18.1484 23.3739 18.3472 21.6618 18.3758 19.9454C18.3762 19.92 18.3791 19.8438 18.3758 19.869C18.3587 20.0001 18.3687 19.9645 18.3341 20.1399C18.2273 20.6817 18.062 21.2087 17.973 21.7545C17.8148 22.7246 17.7068 23.7023 17.5633 24.6746C17.4946 25.1403 17.4673 25.6094 17.3758 26.067C17.2827 26.5323 17.0633 27.9304 17.0633 27.4559C17.0633 26.2765 17.1883 25.1162 17.1883 23.9385C17.1883 22.8746 17.2949 21.7858 17.4522 20.7371C17.5175 20.3015 17.6883 19.8444 17.6883 19.4072C17.6883 18.685 17.7768 17.922 17.907 17.2128C18.0842 16.2484 18.0862 15.298 18.1744 14.3274C18.2878 13.0804 18.4905 11.8293 18.5008 10.5774C18.5179 8.48556 18.6181 6.42325 18.4244 4.34127C18.3607 3.65675 18.3758 2.97064 18.3758 2.28224C18.3758 1.88689 17.851 1.86534 17.8133 1.56349C17.808 1.52104 17.7585 1.41643 17.7369 1.37599C17.708 1.32182 17.6883 1.82834 17.6883 1.90724C17.6883 2.72401 17.7237 3.54984 17.6848 4.36558C17.6477 5.14503 17.3758 5.8747 17.3758 6.66766C17.3758 7.56756 17.2367 8.46352 17.1918 9.3621C17.1211 10.7755 16.8133 12.1987 16.8133 13.6121C16.8133 17.8855 16.8843 22.1674 16.7508 26.4385" stroke="#021120" stroke-width="2" stroke-linecap="round"/>
<path d="M17.5008 9.68842C17.4901 9.60297 17.1734 10.2104 17.1258 10.3412C17.0603 10.5212 17.1789 9.71406 17.1536 9.76481C17.1041 9.86382 16.8599 10.7925 16.973 10.3724C17.058 10.0567 17.072 9.7881 17.1293 9.47314C17.1884 9.14774 17.1712 9.92674 17.1258 10.0495C17.0221 10.3301 16.9498 10.5916 16.9383 10.8898C16.9269 11.1864 16.5256 11.53 17.0008 11.6884" stroke="#021120" stroke-width="2" stroke-linecap="round"/>
<path d="M18.7508 15.2509C18.7941 16.578 18.8133 17.9023 18.8133 19.2301C18.8133 20.2536 18.738 21.3131 18.848 22.3343C18.8582 22.4288 18.9831 23.2545 18.9973 22.7301C19.0513 20.7346 19.0093 18.7295 18.9973 16.7336C18.99 15.5251 18.9201 14.3135 18.9383 13.1051C18.954 12.063 19.3189 13.8273 19.3341 14.0218C19.4985 16.1177 19.3772 18.271 19.3341 20.369C19.2967 22.1905 19.2259 24.0156 19.2647 25.8377C19.2694 26.0594 19.2537 26.5774 19.3897 26.8343C19.4111 26.8748 19.4794 26.7823 19.4869 26.7371C19.6053 26.0268 19.5749 25.2557 19.598 24.5426C19.6835 21.9087 19.8827 19.2825 19.9869 16.6502C20.0169 15.8934 20.0085 15.1322 19.9695 14.3759C19.9079 13.1794 20.0534 14.8847 20.0668 15.0773C20.2702 18.0022 20.271 20.9355 20.3168 23.8655C20.3394 25.3134 20.298 26.867 20.7161 28.2718C20.7275 28.3102 20.8422 28.765 20.9383 28.7787C20.9695 28.7832 20.9859 28.7328 20.9938 28.7023C21.0531 28.4737 21.0588 27.8793 21.0633 27.7475C21.1643 24.7812 21.2072 21.8126 21.1813 18.8447C21.1709 17.6419 21.1868 16.4224 21.0008 15.2301C20.8576 14.312 21.2628 16.0233 21.2647 16.0357C21.688 18.7958 21.6306 21.5962 21.8063 24.3759C21.9294 26.3228 22.2086 28.2213 22.5355 30.1398C22.55 30.2249 22.6813 31.3002 22.6813 30.6016C22.6813 28.1264 22.5045 25.6389 22.3341 23.1711C22.1827 20.9779 22.1167 18.6615 21.5425 16.5252C21.502 16.3749 21.3764 15.8863 21.5147 16.5357C21.7644 17.7081 21.9917 18.8818 22.1744 20.0669C22.5432 22.4588 22.7279 24.8743 23.105 27.2648C23.301 28.5078 23.4681 29.8358 23.8758 31.0357C23.9022 31.1134 24.0019 31.3961 23.9765 31.0739C23.9215 30.3769 23.7776 29.6794 23.6883 28.9871C23.3087 26.0444 23.1245 23.0798 22.723 20.1398C22.6052 19.2767 22.4634 18.4162 22.3029 17.56C22.244 17.2462 22.2214 17.1564 22.355 17.5634C23.0814 19.7773 23.4251 22.0417 23.73 24.3482C23.9949 26.3532 24.1158 28.384 24.473 30.3759C24.5276 30.6804 24.6997 31.5879 24.6883 31.2787C24.6321 29.7623 24.4391 28.2457 24.3202 26.7336C24.1418 24.4639 24.1029 22.1737 23.657 19.935C23.5092 19.1925 23.2524 18.4398 23.1918 17.6815C23.181 17.5474 23.2998 17.9284 23.3411 18.0565C23.6431 18.9938 23.9167 19.9371 24.1397 20.8968C24.9335 24.3131 25.1652 27.8519 25.723 31.3134C25.7385 31.4094 25.7532 31.5056 25.7682 31.6016C25.7805 31.6815 25.8066 31.8603 25.7647 31.5704C25.6725 30.9338 25.5758 30.2978 25.4869 29.6607C25.1872 27.5125 24.9908 25.35 24.6397 23.2093C24.524 22.504 24.3976 21.8073 24.3793 21.0912C24.3754 20.9417 24.2875 20.2531 24.4973 20.7336C25.7521 23.6075 26.074 26.7769 26.3758 29.8621C26.4594 30.7165 26.5374 31.5741 26.657 32.4246C26.6782 32.5753 26.7975 33.1633 26.7091 32.6329C26.2057 29.6125 25.8341 26.5712 25.2612 23.5634C25.1629 23.0471 25.1095 22.5253 25.0772 22.0009C25.068 21.8516 25.0509 21.4361 25.1397 21.5565C25.5443 22.1057 25.7437 22.9085 25.9452 23.5426C26.2563 24.5212 26.483 25.5319 26.6605 26.5426C26.8931 27.8668 27.0569 29.2238 27.1744 30.5634C27.213 31.0035 27.1467 32.2974 27.2994 31.8829C27.3842 31.6528 27.2202 31.194 27.1848 30.9732C27.0321 30.0185 26.9405 29.0567 26.8168 28.0982C26.6664 26.9325 26.634 25.76 26.5008 24.5947C26.4434 24.0923 26.3758 23.5727 26.3758 23.0669C26.3758 22.395 26.6339 24.3866 26.7195 25.053C26.867 26.1996 27.0472 27.3511 27.2647 28.4871C27.3272 28.8136 27.2701 29.2276 27.407 29.5287C27.4756 29.6795 27.4383 29.3968 27.4383 29.3621C27.4383 28.8835 27.4027 28.4057 27.3758 27.928C27.3179 26.901 27.1258 25.8367 27.1258 24.8134C27.1258 24.0093 27.4357 26.3924 27.5494 27.1884C27.6329 27.7726 27.6337 28.3822 27.6848 28.9697C27.7479 29.695 27.7508 30.4248 27.7508 31.1537C27.7508 31.5983 27.7508 31.438 27.7508 31.0843C27.7508 30.3273 27.7508 29.5704 27.7508 28.8134C27.7508 28.6764 27.7221 27.5126 27.7543 28.1711C27.7982 29.0726 27.9594 29.972 28.032 30.8725C28.0384 30.9513 28.0706 31.921 28.0633 31.5773C28.0497 30.9395 28.0087 29.0336 27.9383 29.6676C27.8595 30.3763 28.0108 31.1671 28.0633 31.8759C28.1049 32.4381 28.1258 32.9894 28.1258 33.553C28.1258 34.1514 28.1258 34.7498 28.1258 35.3482C28.1258 35.9611 28.1258 34.7933 28.1258 34.6746C28.1258 33.8181 28.1258 32.9616 28.1258 32.1051C28.1258 31.8237 28.1079 31.562 28.1848 31.2926C28.2071 31.2147 28.1853 31.4549 28.1918 31.5357C28.2125 31.7948 28.2588 32.0536 28.282 32.3134C28.3486 33.0584 28.4383 33.786 28.4383 34.5322C28.4383 35.6049 28.4729 36.6827 28.3758 37.7509" stroke="#021120" stroke-width="2" stroke-linecap="round"/>
<path d="M19.6258 9.75098C19.5532 10.9122 19.5708 12.0699 19.6015 13.2336C19.6279 14.2356 19.668 15.237 19.7369 16.2371C19.7716 16.741 19.7795 17.2859 19.9383 17.7718C19.9566 17.8279 20.05 17.9624 20.0564 17.9038C20.1268 17.2518 20.0497 16.5309 20.0147 15.8829C19.8853 13.4841 19.619 11.0849 19.2855 8.70584C19.237 8.35971 19.0239 7.32992 19.3202 8.34126C20.073 10.9101 20.5263 13.5608 21.2022 16.1503C21.5484 17.4767 21.842 18.8886 22.348 20.1676C22.4912 20.5295 22.4117 19.9022 22.4105 19.8899C22.3005 18.7149 22.0757 17.5491 21.8619 16.3899C21.3945 13.8556 20.8011 11.3598 20.2022 8.85515C20.1725 8.73111 20.0553 8.40791 20.0911 8.26487C20.116 8.16519 20.1754 8.45254 20.2091 8.54959C20.3094 8.8382 20.5449 9.5494 20.6189 9.7857C21.4619 12.4782 22.0334 15.2463 22.9105 17.9281C23.1743 18.7346 23.4515 19.5346 23.7716 20.3204C23.842 20.4932 23.8946 20.6206 23.9591 20.7926C23.9883 20.8705 23.9829 21.0752 24.0494 21.0253C24.0707 21.0093 24.0524 20.9719 24.0494 20.9454C24.0241 20.7176 23.958 20.3521 23.9175 20.1538C23.6342 18.7686 23.2713 17.397 22.9175 16.0288C22.4825 14.3466 21.9846 12.6658 21.664 10.9558C21.6471 10.8656 21.5669 10.6256 21.6397 10.6815C21.8715 10.8598 22.0604 11.7763 22.1327 11.9871C23.0013 14.5165 23.6535 17.1159 24.5355 19.6399C24.6765 20.0432 25.1029 21.2399 25.0425 20.817C24.9939 20.4771 24.852 20.1173 24.7577 19.7926C24.3959 18.5466 24.0379 17.2992 23.6883 16.0496C23.4673 15.2596 23.2495 14.4693 23.0598 13.6711C23.0069 13.4485 22.7943 12.7998 22.8966 13.0045C23.1413 13.4939 23.26 14.1312 23.4209 14.6468C23.7911 15.8325 24.1337 17.0268 24.5251 18.2058C24.869 19.2417 25.2276 20.2777 25.6119 21.2996C25.6669 21.4457 25.7188 21.5925 25.7682 21.7406C25.8569 22.0067 25.5709 21.2153 25.473 20.9524C24.7521 19.0166 24.1307 17.0252 23.6258 15.0218C23.5547 14.7398 23.3229 13.8996 23.4175 14.1746C23.5941 14.6883 23.8049 15.1904 23.9869 15.7024C24.7118 17.7416 25.3916 19.7885 26.1744 21.8065C26.4072 22.4066 26.6055 23.0477 26.8793 23.6295C27.2538 24.4253 27.4097 25.0082 27.3133 25.876" stroke="#021120" stroke-width="2" stroke-linecap="round"/>
<path d="M22.1258 10.001C22.7614 11.3096 23.1727 12.7243 23.7022 14.0774C23.7551 14.2127 24.0666 14.8983 24.0598 14.8274C23.9809 13.999 23.6201 13.1966 23.3966 12.4038C23.2229 11.7873 23.1368 11.0299 22.848 10.4524C22.6356 10.0274 23.1238 11.3624 23.2925 11.8065C23.6429 12.7294 24.5322 15.54 24.3654 14.5669C24.2387 13.8277 24.002 13.1008 23.8133 12.376C23.7125 11.9889 23.6443 11.3124 23.407 10.9801C23.1088 10.5626 23.6305 11.9829 23.782 12.4732C24.2524 13.9948 24.965 15.4573 25.3619 17.001C25.5859 17.8722 25.7914 18.7601 25.9869 19.6399C26.1978 20.5888 26.4203 21.5666 26.5043 22.5322C26.5335 22.8685 26.6077 23.1822 26.6883 23.5044C26.7844 23.8887 26.9061 24.2328 26.8723 23.5565C26.8396 22.9022 26.6258 22.2479 26.6258 21.5947C26.6258 21.5283 26.6258 22.1345 26.6258 22.3135" stroke="#021120" stroke-width="2" stroke-linecap="round"/>
<path d="M19.2508 5.87596C19.2632 5.70206 19.3749 5.97564 19.3932 6.01137C19.6969 6.60619 19.9359 7.23509 20.1536 7.86554C20.2426 8.1234 20.4612 8.89155 20.473 8.61901C20.4905 8.21774 20.1911 7.66626 20.0772 7.29262C19.9289 6.80652 19.7834 6.31967 19.6327 5.83429C19.6037 5.74068 19.3848 5.1646 19.5147 5.59123C19.9334 6.96687 20.5905 8.31416 21.1779 9.62596C21.6264 10.6276 20.9617 9.28484 20.855 9.05651C20.2029 7.66159 19.7184 6.16911 18.973 4.8204C18.9305 4.74341 18.7201 4.48155 18.8966 4.6954C19.3208 5.20926 19.6542 5.76087 19.9939 6.33429C20.4293 7.06949 20.812 7.82853 21.2091 8.58429C21.236 8.63551 21.475 9.06671 21.4591 9.0079C21.3718 8.6849 21.1692 8.37251 21.0251 8.07387C20.6537 7.3039 20.3407 6.49874 20.0494 5.6954C19.8426 5.12517 19.6029 4.57658 19.3758 4.01485C19.2284 3.65025 19.0943 3.34094 18.8445 3.03568C18.8229 3.00917 18.6751 2.71184 18.6883 2.71623C19.028 2.82946 19.3249 3.48245 19.5008 3.75096C20.026 4.55261 20.4715 5.43891 20.9348 6.27873C21.6542 7.58263 23.6165 11.5969 22.9105 10.2857C22.2335 9.02832 21.6005 7.74485 20.9244 6.48707C20.5914 5.86749 20.4895 5.10276 20.0945 4.53221C19.9761 4.36109 19.8661 4.18774 19.7508 4.01485C19.479 3.60722 19.7476 3.96498 19.8827 4.16762C20.4553 5.02648 20.9394 5.96947 21.4522 6.86207C21.8283 7.51673 22.1513 8.13071 22.407 8.84123C22.5555 9.25353 22.7235 9.49877 22.6258 9.93846" stroke="#021120" stroke-width="2" stroke-linecap="round"/>
<path d="M17.2508 27.501C17.1623 28.8834 17.0481 30.3153 16.7022 31.6607C16.4582 32.6095 16.9054 29.7094 17.0911 28.7475C17.1348 28.5211 17.1883 28.3084 17.1883 28.0774C17.1883 27.9798 17.0849 28.4573 17.0772 28.5288C17.0098 29.1485 16.9619 29.7809 16.9418 30.4038C16.9216 31.0291 16.9326 30.556 16.973 30.244C17.0538 29.6206 17.3598 28.7655 17.1744 28.1399C17.1604 28.0926 17.1215 27.8604 17.1293 27.9419C17.2205 28.9004 17.256 29.8422 17.2473 30.8065C17.2337 32.3104 17.1298 33.7896 17.0147 35.2857C17.0024 35.445 16.9403 35.9062 17.0147 35.7649C17.132 35.542 17.1486 35.1719 17.1883 34.9315C17.4434 33.3865 17.4752 31.8126 17.6848 30.2614C17.7938 29.4551 17.9521 28.6482 17.9973 27.8343C18.0001 27.7834 18.0039 27.6307 18.0008 27.6815C17.9483 28.5389 17.871 29.3951 17.7994 30.251C17.6322 32.2483 17.4049 34.2587 17.3758 36.2649C17.3621 37.2067 17.4301 36.1255 17.4348 35.8031C17.4514 34.6686 17.3986 33.5444 17.3133 32.4142C17.2877 32.0748 17.3126 31.2749 17.0772 30.9871C17.0072 30.9015 16.9438 30.9523 16.907 31.0461C16.6995 31.5766 16.7652 32.3133 16.7543 32.869C16.7463 33.274 16.7508 33.6793 16.7508 34.0843C16.7508 34.4755 16.7347 33.3008 16.7647 32.9107C16.7897 32.5859 16.8758 32.2733 16.8758 31.9454C16.8758 31.6313 16.8727 32.4699 16.8723 32.4871C16.842 33.7156 16.7651 34.9462 16.7508 36.1746C16.7482 36.3944 16.7508 36.6144 16.7508 36.8343C16.7508 37.2302 16.6827 36.0454 16.657 35.6503C16.6205 35.0868 16.6258 34.5237 16.6258 33.9593C16.6258 33.5585 16.7228 34.0393 16.7369 34.1746C16.8796 35.545 16.8022 36.9368 16.973 38.3031C17.0053 38.561 17.087 39.3014 17.1744 39.0565C17.2553 38.83 17.2379 38.4985 17.2647 38.2649C17.3837 37.2247 17.454 36.1796 17.5772 35.1399C17.6944 34.1506 17.8883 33.1801 18.1883 32.2301C18.1895 32.2264 18.3489 31.7334 18.4036 31.8378C18.6567 32.3211 18.4933 33.4695 18.4869 33.9454C18.4565 36.2122 18.1883 38.4694 18.1883 40.7371C18.1883 40.9473 18.253 41.5166 18.3688 41.3413C18.5314 41.0952 18.6749 40.447 18.7161 40.2579C18.8709 39.5468 19.0573 38.3831 19.1605 37.6885C19.5514 35.0591 19.725 32.4314 19.8411 29.7788C19.862 29.2995 19.8428 27.8659 19.907 28.3413C19.9574 28.714 19.9409 29.1143 19.9383 29.4871C19.926 31.2189 19.8258 32.9497 19.6744 34.6746C19.4562 37.16 18.9183 39.6679 18.9036 42.1676C18.9028 42.2961 18.9111 42.6567 18.9765 42.5461C19.0795 42.3719 19.0792 42.1543 19.1188 41.9558C19.2193 41.4536 19.3707 40.6552 19.4557 40.1919C20.1589 36.3583 20.3939 32.5343 20.2195 28.6399C20.2117 28.4638 20.2027 28.2877 20.1883 28.1121C20.1775 27.9804 20.2086 27.6332 20.1119 27.7232C19.9375 27.8856 20.0065 28.1886 19.973 28.4246C19.9065 28.8937 19.7991 29.7921 19.7508 30.2301C19.3683 33.7001 18.9738 37.2214 19.0147 40.7163C19.0198 41.1499 19.0096 41.6407 19.1293 42.0669C19.224 42.4044 19.3357 42.3531 19.4105 41.994C19.6683 40.7567 19.6942 39.4352 19.7334 38.1781C19.7921 36.2971 19.7056 34.4247 19.5598 32.5496C19.4763 31.4751 19.3662 30.4026 19.2925 29.3274C19.2663 28.9461 19.2508 27.7993 19.2508 28.1815C19.2508 30.8166 19.1144 33.45 19.0633 36.0843C19.0123 38.7099 18.8671 41.4297 19.2786 44.0357C19.3076 44.2193 19.423 44.6988 19.5182 44.5392C19.6479 44.3214 19.7713 43.7256 19.8029 43.5878C19.9966 42.7426 20.1177 42.0858 20.2473 41.2058C20.7686 37.6673 20.932 34.1073 20.9383 30.5357C20.9393 29.9922 20.9294 29.4474 20.9383 28.9038C20.9441 28.547 20.9818 29.6164 20.9869 29.9732C21.0364 33.4489 20.8123 36.9056 20.605 40.3725C20.5174 41.8362 20.4291 43.3083 20.48 44.7753C20.4803 44.7848 20.4767 45.9802 20.657 46.0079C20.8869 46.0433 21.7912 37.8909 21.848 37.2996C22.0666 35.023 22.2098 32.741 22.3619 30.4593C22.3835 30.1355 22.4453 29.1874 22.4869 28.7857C22.5011 28.6488 22.4426 28.3541 22.5772 28.3829C22.6192 28.3919 22.6184 28.4594 22.6293 28.501C22.7187 28.8418 22.7242 29.2166 22.7334 29.56C22.802 32.1049 22.6178 34.6621 22.3966 37.1954C22.1957 39.497 21.9108 41.7904 21.7404 44.0947C21.6695 45.0532 21.5478 46.0852 21.6397 47.0496C21.6696 47.3636 21.7886 47.3234 21.8758 47.0288C22.3178 45.5346 22.4071 43.8485 22.5772 42.3135C23.007 38.4347 23.1257 34.5836 23.1952 30.6885C23.2003 30.4034 23.2691 29.5596 23.3133 29.8413C23.5533 31.3712 23.44 33.0256 23.4105 34.5635C23.3318 38.668 22.8092 42.7371 22.6397 46.8343C22.6348 46.9534 22.6327 47.0727 22.6327 47.1919C22.6327 47.2968 22.572 47.5478 22.6675 47.5044C22.8418 47.4252 22.7693 47.1345 22.7994 46.9454C22.9012 46.3067 23.0011 45.4955 23.0772 44.8794C23.618 40.4987 23.9222 36.116 24.1466 31.7093C24.1558 31.5288 24.1647 31.3482 24.1744 31.1676C24.1809 31.0471 24.1203 30.8952 24.2022 30.8065C24.301 30.6994 24.2646 31.092 24.2786 31.2371C24.3359 31.8339 24.3825 32.6793 24.3966 33.244C24.4968 37.2374 23.9372 41.1677 23.6675 45.1399C23.6431 45.4981 23.584 45.9407 23.6327 46.3065C23.6869 46.7127 23.8076 45.5048 23.8584 45.0982C24.3815 40.9138 24.7502 36.7156 25.1813 32.5218C25.2095 32.2481 25.3146 31.4585 25.3897 31.7232C25.471 32.0098 25.515 32.8665 25.5216 33.0426C25.5535 33.896 25.545 35.0724 25.5216 35.9038C25.4575 38.1819 25.2598 40.446 25.0008 42.7093C24.8611 43.9297 24.6605 45.1595 24.6258 46.3899C24.6226 46.5015 24.6076 46.8216 24.6605 46.7232C24.7444 46.5674 24.7215 46.3744 24.7438 46.1989C25.1887 42.6983 24.3577 49.1782 25.0182 44.0288C25.4445 40.7046 25.841 37.382 26.0876 34.0392C26.0988 33.887 26.1063 33.4354 26.1397 33.5843C26.3041 34.3166 26.2762 35.1805 26.2855 35.9176C26.3153 38.2782 26.1073 40.6286 25.855 42.9732C25.7065 44.353 25.4882 45.7328 25.4036 47.119C25.3892 47.3548 25.2548 47.9056 25.4765 47.8239C25.7611 47.719 25.8379 45.9244 25.855 45.7926C26.318 42.2191 26.7304 38.6359 27.1466 35.0565C27.1759 34.8051 27.187 34.5264 27.2508 34.2788C27.3682 33.823 27.3209 35.2179 27.3272 35.6885C27.3677 38.7144 27.173 41.6764 26.855 44.6815C26.7816 45.375 26.7158 46.0694 26.6293 46.7614C26.5885 47.0873 26.5831 47.4954 26.473 47.81C26.2201 48.5326 26.5844 46.2825 26.6709 45.5218C26.8674 43.7949 27.0504 42.0682 27.2126 40.3378C27.3017 39.3869 27.3427 38.4117 27.4869 37.4663C27.5247 37.2183 27.5454 37.9654 27.5494 38.2163C27.5715 39.59 27.5175 40.9659 27.3966 42.3343C27.225 44.2762 26.8645 46.2027 26.7577 48.1503C26.729 48.6744 26.8152 48.0317 26.8272 47.9454C26.9904 46.7665 27.1206 45.5832 27.2508 44.4003C27.4589 42.51 27.7827 40.593 27.8133 38.6885C27.818 38.3945 27.8208 37.5126 27.8272 37.8065C27.8562 39.1421 27.7177 40.4909 27.5494 41.8135C27.2661 44.0404 26.8325 46.2533 26.2126 48.4107C25.8379 49.7145 25.4374 51.0128 24.7473 52.1885C24.2726 52.9972 23.6656 53.7847 23.4522 54.7093C23.2641 55.5242 23.7167 53.0578 23.8584 52.2336C24.344 49.4095 24.8164 46.5594 24.8688 43.6885C24.8802 43.0682 24.8758 42.4477 24.8758 41.8274C24.8758 41.6399 24.8786 41.4523 24.8758 41.2649C24.8751 41.216 24.8655 41.362 24.8619 41.4107C24.6049 44.8898 23.9119 48.3263 23.2091 51.7371C22.7947 53.7486 22.3011 55.7429 21.8897 57.7544C21.7532 58.4215 21.8978 57.6915 21.9279 57.501C22.1926 55.8244 22.404 54.1383 22.598 52.4524C22.9305 49.5636 23.3501 46.6295 23.3758 43.7163C23.3793 43.3211 23.4025 43.0866 23.2786 43.7024C22.9497 45.3365 22.6348 46.9739 22.3272 48.6121C21.8379 51.2174 21.2966 53.8385 21.105 56.4871C21.0864 56.7442 20.9902 57.2192 21.0668 57.4871C21.0966 57.5914 21.0989 57.2723 21.1084 57.1642C21.1689 56.4752 21.2127 55.8201 21.2577 55.1225C21.4797 51.6822 21.7843 48.1622 21.5008 44.7163C21.4749 44.4018 21.3871 43.4759 21.3272 43.7857C21.1615 44.6415 21.2192 45.6105 21.1466 46.4732C20.807 50.5092 20.1709 54.5079 19.4279 58.4871C19.3202 59.0637 19.1959 59.6427 19.1327 60.2267C19.0868 60.6514 19.246 59.3797 19.2994 58.9558C19.7578 55.3148 19.8939 51.6549 19.8619 47.9871C19.8572 47.4531 19.9506 46.6265 19.8133 46.0774C19.7807 45.947 19.8048 46.3459 19.7994 46.4801C19.7707 47.1918 19.7474 47.6467 19.7091 48.4038C19.5313 51.9213 19.2757 55.4558 19.3272 58.9801C19.3378 59.7068 19.3181 60.5465 19.5598 61.2475C19.5835 61.3163 19.6292 61.484 19.6952 61.31C19.7967 61.0425 19.8583 60.4211 19.8793 60.2371C20.3369 56.2251 20.134 52.1839 19.98 48.1607C19.9166 46.5065 19.9314 46.9429 19.8897 45.5635C19.8834 45.355 19.9196 44.7381 19.8619 44.9385C19.7337 45.3836 19.7582 45.8591 19.7161 46.3204C19.5991 47.5991 19.4335 49.5681 19.3411 50.7857C19.0754 54.2862 18.7289 57.8752 19.0633 61.3864C19.0876 61.6419 19.1115 61.8363 19.1536 62.0808C19.1665 62.1562 19.1664 62.351 19.223 62.2996C19.3552 62.1794 19.2998 61.9497 19.3168 61.7718C19.3792 61.1162 19.4072 60.5071 19.4313 59.8413C19.5884 55.5109 19.4143 51.1782 19.3411 46.8482C19.3219 45.7128 19.5693 42.3176 19.6119 43.4524C19.6411 44.232 19.5646 45.0307 19.5216 45.8065C19.396 48.0737 19.2719 50.3408 19.157 52.6086C19.0496 54.7302 18.9322 56.8526 18.8862 58.9767C18.8752 59.4858 18.767 60.224 18.8862 60.7406C18.9435 60.9887 19.0408 60.253 19.0772 60.001C19.3477 58.126 19.417 56.2185 19.4591 54.3274C19.5347 50.9324 19.3105 47.5218 19.5355 44.1329C19.8336 39.6436 18.5914 53.1073 18.7057 57.6051C18.7231 58.2912 18.7795 58.9744 18.8758 59.6538C18.913 59.9165 18.9378 60.2566 19.0633 60.501C19.1118 60.5955 19.1675 60.3083 19.1744 60.2024C19.2058 59.7195 19.2247 59.2342 19.2508 58.751" stroke="#021120" stroke-width="2" stroke-linecap="round"/>
<path d="M17.6883 38.5634C17.5984 38.2153 17.5606 38.5233 17.5147 38.7301C17.3591 39.4303 17.2791 40.1584 17.1883 40.869C17.1371 41.2693 17.0904 41.6701 17.039 42.0704C17.0368 42.0871 17.0272 42.3565 16.9869 42.3968C16.9328 42.4509 16.9452 42.2476 16.9452 42.1711C16.9452 41.8365 16.9781 41.501 17.0008 41.1676C17.0664 40.2043 17.0633 37.3063 17.0633 38.2718C17.0633 38.6302 17.124 39.0505 17.0598 39.4037C17.0504 39.4553 17.0008 38.7511 17.0008 38.5634C17.0008 38.303 16.8133 38.326 16.8133 38.5877C16.8133 39.8824 17.0533 41.1101 17.0633 42.4037C17.074 43.7849 17.008 45.1677 17.0008 46.5495C16.9991 46.8708 16.9888 47.1907 16.9695 47.5113C16.9594 47.6792 16.9791 48.1779 16.9383 48.0148C16.8959 47.8455 16.9405 47.4962 16.9452 47.3481C16.9641 46.7581 17.0135 46.171 17.0772 45.5843C17.2002 44.4508 17.7154 41.0714 17.4869 42.1884C17.3971 42.6273 17.3578 43.0837 17.3133 43.5287C17.2603 44.0586 17.3623 44.9312 17.0945 45.4072C17.0512 45.4842 16.9433 44.6735 16.9418 44.6086C16.9272 43.9986 16.9595 43.3874 16.907 42.7787C16.8245 41.821 16.6596 43.2354 16.6397 43.487C16.6137 43.8145 16.6258 44.145 16.6258 44.4731C16.6258 44.6114 16.663 44.425 16.6883 44.3759C16.7649 44.2271 16.8365 44.2382 16.8758 44.4106C17.0046 44.976 17.0411 45.58 17.0633 46.1572C17.094 46.9546 17.1258 47.7514 17.1258 48.5495C17.1258 48.8704 16.9905 49.7812 17.164 49.5113C17.2809 49.3295 17.3081 48.9087 17.3411 48.7231C17.4691 48.0016 17.57 47.2771 17.657 46.5495C17.8038 45.3231 17.9135 44.0906 18.1223 42.8725C18.1284 42.8366 18.1752 42.7517 18.1883 42.7856C18.2603 42.9721 18.2684 43.2164 18.2786 43.4072C18.3849 45.3977 18.2318 47.3992 18.1293 49.3863C18.052 50.883 17.9588 52.3971 18.0043 53.8968C18.0078 54.0141 17.9735 54.3196 18.0633 54.244C18.1789 54.1466 18.1354 53.9496 18.1536 53.7995C18.2054 53.3703 18.2711 52.6122 18.2994 52.2162C18.4413 50.2294 18.486 48.2303 18.3133 46.244C18.2802 45.8641 18.2355 45.484 18.1918 45.1051C18.1834 45.0327 18.1569 44.8309 18.1258 44.8968C18.0111 45.1395 18.0435 45.6597 18.032 45.8863C17.9955 46.6093 17.9703 47.3329 17.9522 48.0565C17.925 49.138 17.8946 50.2188 17.8445 51.2995C17.837 51.4628 17.8762 51.8611 17.7994 52.0287C17.7145 52.214 17.7097 51.6303 17.6848 51.428C17.5559 50.381 17.4348 49.3188 17.3827 48.2648C17.3793 48.1955 17.3096 46.894 17.1883 47.5218C17.0301 48.3408 17.2298 49.2238 17.0494 50.0356C16.9112 50.6574 17.0232 48.7618 16.9869 48.1259C16.9765 47.9434 17.0111 47.5772 16.9244 47.4037C16.8739 47.3027 16.7743 47.456 16.7647 47.5009C16.6853 47.8715 16.7508 48.3114 16.7508 48.6884C16.7508 49.0977 16.7485 49.4989 16.8133 49.9037C16.9899 51.0074 16.8758 52.194 16.8758 53.3134C16.8758 54.017 16.8712 54.7519 16.7994 55.4523C16.7791 55.6503 16.7324 55.9303 16.7647 55.5287C16.8238 54.7927 16.9203 54.0633 16.9348 53.3238C16.9438 52.8634 16.9383 52.4024 16.9383 51.9419C16.9383 51.5646 16.9383 52.6965 16.9383 53.0738C16.9383 54.8123 16.9383 56.5507 16.9383 58.2891C16.9383 58.3574 16.9383 58.4257 16.9383 58.494C16.9383 58.4986 16.9383 58.4847 16.9383 58.4801C16.9383 58.0495 16.9383 57.619 16.9383 57.1884C16.9383 56.25 16.9175 55.3166 16.8793 54.3794C16.8185 52.8911 16.8758 57.3586 16.8758 58.8482C16.8758 59.7298 16.8639 60.6124 16.8758 61.494C16.8869 62.3167 17.0468 61.3405 17.0633 61.0912C17.1272 60.1263 17.1814 59.1556 17.1883 58.1884C17.1884 58.1726 17.1785 57.7465 17.1918 58.1502C17.2058 58.5775 17.2326 59.0044 17.2508 59.4315C17.3081 60.7766 17.3613 62.1214 17.4244 63.4662C17.4368 63.7314 17.4349 64.0018 17.4765 64.2648C17.4903 64.3525 17.5848 64.5785 17.6119 64.494C17.7356 64.1086 17.7021 63.5851 17.7161 63.1954C17.7434 62.4294 17.7482 61.663 17.7647 60.8968C17.7793 60.2158 17.6932 58.1918 17.848 58.8551C18.1266 60.0491 18.0357 61.4087 18.0911 62.6259C18.1291 63.4629 18.0088 64.5608 18.3133 65.3655C18.4074 65.6143 18.4492 65.188 18.4522 65.1676C18.5386 64.5808 18.5763 63.9838 18.6258 63.3933C18.7047 62.4502 18.654 61.3287 18.9661 60.4211C19.036 60.2177 19.1493 61.2078 19.1536 61.2718C19.2148 62.1812 19.1883 63.0969 19.1883 64.0079C19.1883 64.0375 19.1778 64.7339 19.2299 64.6155C19.6594 63.6395 19.8438 62.4535 20.098 61.4245C20.3307 60.4827 20.5384 59.5341 20.7647 58.5912C20.9539 57.8025 20.653 60.2104 20.5494 61.0148C20.4056 62.1307 20.1968 63.2544 20.1883 64.3829C20.1807 65.3869 20.4215 63.7023 20.4313 63.6329C20.7356 61.4754 20.9777 59.2858 21.4869 57.1641C21.5386 56.9486 21.646 56.3348 21.723 56.5426C21.8322 56.8375 21.7494 57.414 21.7404 57.6954C21.6826 59.4845 20.8587 64.7772 21.3272 63.0495C21.8805 61.009 22.6759 54.7276 22.6258 56.8412C22.5866 58.4938 22.2825 60.1345 22.0355 61.7648C22.0171 61.8865 21.7097 64.3611 21.8063 64.3412C21.9717 64.3072 22.0652 63.8473 22.0806 63.7857C22.3231 62.8157 22.4716 61.8125 22.6327 60.8273C22.9712 58.7574 23.2181 56.6703 23.6258 54.612C23.6837 54.3194 23.8133 53.4388 23.8133 53.737C23.8133 55.8546 23.6265 57.9666 23.3723 60.0669C23.1936 61.5433 23.0031 63.0185 22.8168 64.494C22.7357 65.1353 22.8221 64.5593 22.8619 64.3482C23.0455 63.3742 23.2418 62.4028 23.4556 61.435C23.8383 59.7032 24.2605 57.9788 24.4834 56.2162C24.7021 54.4874 24.7609 52.7331 24.8619 50.994C24.8758 50.7536 24.8871 50.0312 24.8758 50.2718C24.8018 51.8495 24.6144 53.4237 24.4522 54.994C24.2724 56.7339 24.0958 58.4739 23.8758 60.2093C23.7257 61.393 23.519 62.5771 23.4383 63.7683C23.4334 63.8398 23.3138 64.5266 23.4591 64.1502C23.9106 62.9805 24.2239 61.7349 24.532 60.5218C25.2911 57.5337 25.5008 54.4994 25.5008 51.428C25.5008 50.7625 25.5008 50.097 25.5008 49.4315C25.5008 49.1404 25.5008 48.7713 25.5008 49.3481C25.5008 53.0097 24.7679 56.6491 24.1119 60.237C23.9372 61.1924 23.5831 62.2558 23.6258 63.237C23.6395 63.5524 23.8924 63.1621 23.9313 63.0843C24.4926 61.9616 24.8169 60.7005 25.1223 59.4905C26.1345 55.4807 26.8856 51.3944 26.6883 47.2509" stroke="#021120" stroke-width="2" stroke-linecap="round"/>
<path d="M23.3758 64.501C23.9027 64.6631 24.0983 63.8192 24.2577 63.4593C24.8272 62.174 25.2427 60.8258 25.6536 59.4836C25.7716 59.0982 25.9106 58.7122 25.9938 58.3169C26.0079 58.25 25.9954 58.651 25.9938 58.6746C25.9309 59.634 25.6201 60.5962 25.348 61.5114C25.1263 62.257 24.8599 62.9893 24.6952 63.751C24.6192 64.1029 24.6926 63.6944 24.7404 63.5669C25.1517 62.47 25.4314 61.3569 25.6848 60.2163C25.7127 60.0908 25.8 59.7236 25.8098 59.8517C25.8307 60.1227 25.791 60.4018 25.7438 60.6676C25.5739 61.6269 25.3702 62.5791 25.223 63.5426C25.1848 63.7927 25.0527 64.5361 25.1327 64.2961C25.2793 63.8563 25.521 63.4529 25.657 63.0044C25.8835 62.2581 26.0096 61.4569 26.0598 60.6781C26.0832 60.3161 25.9297 61.0164 25.9105 61.0913C25.8051 61.5033 25.7282 61.9223 25.657 62.3413C25.609 62.6242 25.5195 62.8748 25.4418 63.1468C25.3786 63.368 25.582 62.7067 25.6848 62.501C26.0489 61.7729 26.2445 60.9504 26.5008 60.1815C26.7251 59.5086 26.8758 58.7556 26.8758 58.0461C26.8758 57.826 26.7814 58.4763 26.723 58.6885C26.5999 59.136 26.4946 59.5897 26.4105 60.0461C26.389 60.1629 26.2955 60.5067 26.3168 60.3899C26.3893 59.9907 26.5094 59.6015 26.598 59.2058C26.7769 58.4067 26.9986 57.6054 27.0841 56.7892C27.1803 55.8708 27.1258 54.9263 27.1258 54.0044C27.1258 52.662 27.1883 51.3209 27.1883 49.9801C27.1883 49.6192 27.1545 50.6584 27.1501 50.7093C27.0313 52.0689 26.8891 53.4287 26.6883 54.7788C26.5165 55.9338 26.3133 57.1669 26.3133 58.3413C26.3133 58.5453 26.2046 58.9681 26.5008 58.9385C26.8978 58.8988 27.2083 57.7191 27.2994 57.4107C27.454 56.8875 27.4822 56.2765 27.5008 55.7371C27.5073 55.547 27.5254 55.3727 27.5772 55.1885C27.6276 55.0091 27.4737 55.6577 27.4522 55.7371C27.358 56.0848 27.2746 56.4466 27.2022 56.7996C27.1477 57.0652 27.332 56.2729 27.3897 56.0079C27.7034 54.567 27.8272 53.1517 27.9244 51.6815C27.9703 50.9881 27.9383 50.2861 27.9383 49.5913C27.9383 49.481 27.9383 49.0042 27.9383 49.4107C27.9383 50.6726 27.6291 51.8756 27.5633 53.126C27.545 53.4729 27.623 52.4325 27.6883 52.0913C27.9307 50.8237 28.0829 49.5756 28.1397 48.2857C28.1657 47.6941 28.1883 47.107 28.1883 46.5149C28.1883 46.2752 28.1887 46.5712 28.1883 46.619C28.1841 47.0557 28.152 47.4898 28.1119 47.9246C28.0599 48.4882 28.0001 49.0512 27.9244 49.6121C27.9127 49.6987 27.8668 50.5328 27.7647 50.5635C27.7091 50.5802 27.7515 50.4479 27.7508 50.3899C27.749 50.2325 27.75 50.075 27.7508 49.9176C27.7542 49.2065 27.7718 48.4958 27.8133 47.7857C27.8928 46.4256 28.1645 45.0472 28.1883 43.6885C28.2008 42.9737 28.2447 42.2261 28.1744 41.5149C28.1085 40.8472 27.9469 40.1562 27.9383 39.4871C27.9314 38.9503 27.9383 38.4129 27.9383 37.876C27.9383 37.2962 27.9575 37.0294 27.5633 36.5635" stroke="#021120" stroke-width="2" stroke-linecap="round"/>
<path d="M28.9383 35.9385C28.8684 36.8905 28.6972 37.8606 28.6883 38.8135C28.6841 39.2579 28.6883 40.5913 28.6883 40.1468C28.6883 39.0512 28.6234 37.9346 28.7022 36.8413C28.7157 36.6535 28.7508 36.0906 28.7508 36.2788C28.7508 36.6919 28.7558 37.1053 28.7473 37.5183C28.717 39.0058 28.5649 40.4886 28.5043 41.9732C28.4758 42.67 28.451 43.3373 28.348 44.0288C28.3069 44.3051 28.2707 44.5935 28.2543 44.8725C28.2404 45.108 28.2402 45.1929 28.2543 44.8899C28.2826 44.2814 28.4065 43.6765 28.4661 43.0704C28.5473 42.243 28.5455 41.4112 28.6258 40.5843C28.6581 40.2521 28.7328 39.9244 28.7508 39.5913C28.7601 39.4198 28.8122 39.5926 28.8133 39.6676C28.8302 40.8004 28.7581 41.9134 28.7022 43.0426C28.6602 43.8916 28.6765 44.7839 28.5494 45.626C28.5378 45.7031 28.4828 45.9849 28.5147 45.7301C28.6037 45.0178 28.7055 44.3049 28.7473 43.5878C28.7849 42.9433 28.8133 42.2959 28.8133 41.6503C28.8133 41.4376 28.8209 41.4405 28.8098 41.6503C28.7423 42.933 28.6471 44.239 28.5008 45.5149C28.409 46.3151 28.3802 47.1195 28.2994 47.9176C28.2538 48.3684 28.1258 48.8172 28.1258 49.2683C28.1258 50.1418 28.2655 47.5271 28.3445 46.6572C28.3874 46.1858 28.3891 45.6969 28.4695 45.2301C28.5305 44.8769 28.5008 45.3679 28.5008 45.4524C28.5008 46.4945 28.4419 47.5233 28.3411 48.56C28.3051 48.93 28.2165 49.2933 28.1918 49.6642C28.1851 49.7641 28.1851 49.7763 28.1883 49.6538C28.1978 49.2886 28.2625 48.9362 28.3272 48.5774C28.4724 47.7719 28.5907 46.9614 28.723 46.1538C28.7556 45.9551 28.7233 45.3765 28.8133 45.5565C28.926 45.7818 28.7696 46.3722 28.7369 46.5982C28.6511 47.1918 28.5386 47.7801 28.4661 48.376C28.3721 49.1473 28.2651 49.9219 28.1397 50.6885C28.0788 51.0605 27.9309 51.4105 27.8758 51.7822C27.8341 52.0637 27.6883 52.3669 27.6883 52.6503C27.6883 53.2392 27.8836 51.4886 27.9973 50.9107C28.0689 50.5466 28.1367 50.1679 28.1813 49.7996C28.2194 49.4861 28.1883 49.7724 28.1883 49.9176C28.1883 50.7248 28.0994 51.562 27.9869 52.3621C27.9671 52.5028 27.9383 52.9278 27.9383 52.7857C27.9383 52.3863 28.031 51.983 28.098 51.5913C28.1524 51.2731 28.1934 50.9462 28.2994 50.6399C28.3823 50.4002 28.3118 51.1489 28.2786 51.4003C28.2375 51.7114 28.1525 52.0174 28.1293 52.3308C28.1061 52.6433 28.1771 52.2055 28.1918 52.1433C28.271 51.8067 28.3133 51.4855 28.3133 51.1399C28.3133 51.1094 28.3069 51.0201 28.2994 51.0496C28.1865 51.4939 27.9847 51.8906 27.8133 52.3135" stroke="#021120" stroke-width="2" stroke-linecap="round"/>
<path d="M17.3133 62.5635C17.2376 62.4166 17.1656 62.2646 17.032 62.1607C16.887 62.0479 16.9383 62.7326 16.9383 62.7857C16.9383 63.1549 16.9383 63.5242 16.9383 63.8934C16.9383 64.1994 16.937 63.779 16.9383 63.7024C16.9435 63.3906 17.0414 63.0849 17.0598 62.7718C17.0856 62.3333 17.0698 62.9512 17.0772 63.0704C17.152 64.2768 17.1982 65.5235 17.032 66.7232C16.96 67.2438 16.8288 67.7739 16.8133 68.2996C16.8027 68.6595 16.7977 68.5195 16.8202 68.2371C16.9081 67.139 17.4383 66.1472 17.4383 65.0288C17.4383 63.7973 17.4383 67.4917 17.4383 68.7232C17.4383 68.8291 17.4254 70.2467 17.5077 70.2232C17.6962 70.1694 17.9112 69.4529 17.9557 69.3448C18.303 68.5003 18.5656 67.6296 18.8341 66.7579C18.9794 66.2864 19.1164 65.8073 19.2994 65.3482C19.3004 65.3457 19.5706 64.7854 19.598 64.8274C19.6887 64.9661 19.5484 65.5574 19.5355 65.6364C19.3747 66.6199 19.1432 67.5907 18.9001 68.5566C18.8213 68.8697 18.7327 69.1785 18.7022 69.501C18.7012 69.5112 18.6664 70.0249 18.7439 69.9663C19.0549 69.7309 19.2195 69.0649 19.3341 68.7441C19.6945 67.7356 19.9795 66.7032 20.3202 65.6885C20.3743 65.5275 20.5655 65.0707 20.5633 65.2406C20.5509 66.2048 20.3348 67.2054 20.1432 68.1468C20.0815 68.4495 19.7925 69.1052 19.8758 69.4385C19.9012 69.54 19.9823 69.2581 20.0286 69.1642C20.3311 68.5507 20.63 67.9373 20.9036 67.31C21.1569 66.729 21.3913 66.1396 21.6709 65.5704C21.6909 65.5298 21.8309 65.1607 21.9001 65.1607C22.0548 65.1607 21.4203 67.144 21.3619 67.2857C21.1054 67.9083 20.7559 68.4997 20.5425 69.1399C20.0675 70.5647 22.1873 66.6229 22.9105 65.3066C22.9461 65.2417 23.4776 64.4132 23.4904 64.56C23.5481 65.2237 23.0254 66.0804 22.7369 66.6399C22.3264 67.436 21.8035 68.1528 21.355 68.9246C21.3064 69.0083 20.838 69.779 20.9904 69.6399C21.9938 68.7238 22.8368 67.8035 23.4383 66.567C23.7206 65.9867 23.9433 65.2363 24.4348 64.7857C24.5232 64.7048 24.5801 64.6607 24.5494 64.8413C24.4773 65.2662 24.2212 65.6635 23.9869 66.0149C23.6038 66.5895 23.1583 67.1178 22.7508 67.6746C22.5848 67.9014 22.2451 68.3892 22.6605 67.876C23.3297 67.0493 23.98 66.2425 24.4244 65.2649C24.4845 65.1327 24.915 63.8759 24.8064 64.6364C24.6964 65.4059 24.1589 66.1846 23.7855 66.8413C23.7406 66.9202 23.3134 67.6509 23.5564 67.3204C23.8454 66.9273 24.1507 66.5103 24.3897 66.0843C24.6295 65.6569 24.7101 64.9736 25.0772 64.6399C25.1991 64.5291 25.1607 64.7625 25.1466 64.7996C25.0013 65.1828 24.7537 65.5443 24.5251 65.8829C23.8924 66.8203 23.3034 67.7922 22.6119 68.6885C22.3761 68.9942 22.1273 69.2927 21.8897 69.5982C21.6484 69.9085 21.2736 70.0821 21.032 70.3795C20.6553 70.8432 20.1617 71.3335 19.6883 71.6885" stroke="#021120" stroke-width="2" stroke-linecap="round"/>
<path d="M18.2508 72.6885C19.1179 72.6735 20.0435 71.9996 20.6848 71.4385C20.9923 71.1694 21.3141 70.8752 21.6015 70.5878C21.8448 70.3445 22.0211 70.0467 22.3098 69.8482C22.5906 69.6552 22.8457 69.2559 23.0633 68.9871C23.2506 68.7557 23.4225 68.5002 23.6258 68.2857C24.0981 67.7871 24.3906 66.961 24.5633 66.3135" stroke="#021120" stroke-width="2" stroke-linecap="round"/>
<path d="M17.6258 71.3135C17.6258 70.6681 17.6137 70.0366 17.6848 69.3968C17.7351 68.9445 17.5278 70.2939 17.4244 70.7371C17.3564 71.0285 17.1952 71.9044 17.1952 71.6051C17.1952 70.9301 17.4928 70.2617 17.5008 69.5704C17.5025 69.4217 17.5008 68.674 17.5008 69.2058C17.5008 69.4258 17.4969 69.6435 17.4695 69.8621C17.452 70.0024 17.478 70.3892 17.3897 70.2787C17.2821 70.1443 17.4417 68.2214 17.2508 69.3551C17.2151 69.5668 17.0575 70.251 17.1918 70.4523C17.3194 70.6437 17.2508 69.9949 17.2508 69.7648C17.2508 69.7221 17.2394 69.4444 17.2543 69.6155C17.297 70.1075 17.3247 70.5987 17.3619 71.0912C17.3822 71.3601 17.4625 71.8318 17.3445 72.0912C17.2967 72.1964 17.3537 71.5225 17.3619 71.4246C17.3683 71.3488 17.4383 70.7064 17.4383 70.8621C17.4383 71.2492 17.4372 71.6192 17.5008 72.001" stroke="#021120" stroke-width="2" stroke-linecap="round"/>
<path d="M17.1258 73.6885C17.1558 73.317 17.2508 72.2047 17.2508 72.5774C17.2508 72.8704 17.2086 73.2746 17.032 73.5218C16.9986 73.5687 17.0872 73.3629 17.098 73.3413C17.2099 73.1174 17.1074 73.4222 17.0772 73.494C17.0017 73.6732 16.9383 73.7676 16.9383 73.9628C16.9383 73.9731 16.9871 73.8819 17.0008 73.8621C17.0836 73.7425 17.2079 73.6746 17.2994 73.5635C17.4442 73.3877 17.5373 73.376 17.7508 73.376C17.8968 73.376 17.9378 73.4931 18.0633 73.5496C18.3666 73.6861 18.6805 73.3866 18.914 73.251C19.4144 72.9604 20.0824 72.8956 20.4383 72.3899C20.5831 72.1842 20.8539 71.8993 20.8723 71.6503C20.8994 71.2846 20.9673 70.5958 20.5494 70.4176C20.1037 70.2277 19.4108 71.1662 19.1397 71.3899C19.1041 71.4192 18.7992 71.7049 18.7647 71.5565C18.6968 71.2646 18.8518 70.9158 18.9244 70.6399C19.1321 69.8507 18.7968 70.7193 18.7195 70.994C18.6761 71.1484 18.608 71.2519 18.7161 71.0357C19.048 70.3719 19.4052 69.7202 19.7508 69.0635" stroke="#021120" stroke-width="2" stroke-linecap="round"/>
<path d="M17.0633 1.56346C17.0633 1.33781 17.147 1.14064 17.2369 0.938458C17.4185 0.529918 16.8676 0.68436 17.1258 0.813458" stroke="#021120" stroke-linecap="round"/>
<path d="M17.1258 1.12596C17.036 1.26624 17.0008 1.53833 17.0008 1.26485C17.0008 0.988684 17.0008 1.45781 17.0008 1.27874C17.0008 1.14107 17.0285 1.07602 17.0598 0.966242C17.109 0.794134 17.0484 0.888565 17.1883 1.06346" stroke="#021120" stroke-linecap="round"/>
<path d="M8.5 68L6 63.5C6 63.5 9.5 62 10.5 64.5C11.5 67 8.5 68 8.5 68Z" fill="#F5EFE7"/>
<path d="M4.45479 60.3301L2.85175 55.4382C2.85175 55.4382 6.5724 54.6278 7.08112 57.2719C7.58984 59.916 4.45479 60.3301 4.45479 60.3301Z" fill="#F5EFE7"/>
<path d="M2.32579 52.5185L1.65041 47.4152C1.65041 47.4152 5.45665 47.3034 5.47008 49.9959C5.4835 52.6885 2.32579 52.5185 2.32579 52.5185Z" fill="#F5EFE7"/>
<path d="M24.6681 67.1631L26.7252 62.4442C26.7252 62.4442 23.0975 61.2866 22.3418 63.871C21.586 66.4553 24.6681 67.1631 24.6681 67.1631Z" fill="#F5EFE7"/>
<path d="M27.4509 60.2861L28.5622 55.2596C28.5622 55.2596 24.7796 54.8212 24.5349 57.5027C24.2902 60.1841 27.4509 60.2861 27.4509 60.2861Z" fill="#F5EFE7"/>
<path d="M28.9267 52.4973L29.4667 47.3779C29.4667 47.3779 25.6589 47.3669 25.7167 50.0588C25.7746 52.7508 28.9267 52.4973 28.9267 52.4973Z" fill="#F5EFE7"/>
</svg>
