<?xml version="1.0" encoding="UTF-8"?>
<svg id="Calque_2" data-name="Calque 2" xmlns="http://www.w3.org/2000/svg" viewBox="0 0 24.21 98.97">
  <defs>
    <style>
      .cls-1 {
        fill: #1d1d1b;
        stroke-width: 0px;
      }
    </style>
  </defs>
  <g id="Plume_2" data-name="Plume 2">
    <path class="cls-1" d="M22.33.19c-.76-.37-1.73-.2-2.89.48C13.9,3.93,2.4,21.19.92,46.31c-.54,9.01.93,14.17,2.3,16.95-.82-.13-1.7.13-2.32.69-.15.14-.14.39,0,.53.15.15.38.14.53,0,.13-.12.27-.22.47-.31.02-.01.05-.02.07-.03.03-.02-.03,0,.03-.01.05-.02.09-.03.14-.05.1-.03.21-.06.31-.08,0,0,.08-.01.04,0-.03,0,.04,0,.04,0,.05,0,.1,0,.15-.01.11,0,.21,0,.32,0,.02,0,.04,0,.06,0,0,0,.02,0,.03,0,.05,0,.1.02.15.03.11.03.22.06.32.1.04.02.08.02.12.01.27.46.52.82.74,1.1-.39-.05-.8.01-1.16.17-.61.27-1.08.82-1.37,1.41-.09.18-.05.41.13.51.16.1.42.05.51-.13.23-.48.54-.87,1.02-1.11.43-.21.95-.18,1.34.11.03.02.06.02.09.03-.41,2.89-1.2,7-2.05,11.35-2.29,11.82-3.7,19.68-2.54,21.09.16.19.37.29.6.29,1.95,0,4.33-8.72,8.18-30.05.02,0,.04,0,.06,0,1.1-.35,2.63-.46,3.31.69.25.42.89.04.65-.38-.37-.62-1-1.04-1.69-1.21-.72-.18-1.47-.09-2.19.1l.16-.88c.11.05.24.05.36,0,1.25-.56,2.65-1.16,4.03-.67.46.16.65-.56.2-.72-.66-.24-1.33-.25-1.99-.14.32-.2.65-.43,1-.69.53-.1,1.04-.36,1.58-.38.5-.02.97.12,1.38.39.41.26.78-.38.38-.65-.5-.33-1.11-.5-1.71-.49-.12,0-.24.02-.35.04,1.8-1.7,3.64-4.23,4.73-8,1.33-4.61,3.27-18.19,4.3-30.27.94-10.92,1.51-24.2-1.09-25.46ZM1.02,98.22h0c-1.18-.61,1.23-13.06,2.67-20.49.89-4.62,1.74-8.98,2.13-11.9.05-.36.09-.69.12-1.06-.58-15.8,3.36-32.09,7.21-43.96-4,13.8-7.88,32.66-4.31,45.88l-.27,1.5c-4.7,26.13-6.75,30.04-7.55,30.04ZM18.39,55.71c-2.15,7.43-7.48,9.93-8.91,10.48C3.53,43.26,19.82,3.48,19.99,3.08l-.68-.31c-.15.32-15.21,32.02-14.11,61.97,0,.06-.02.13-.02.19-1.23-1.52-4.22-6.52-3.5-18.59C3.07,22.66,14.06,4.71,19.82,1.32c.92-.54,1.67-.7,2.18-.45,3.76,1.81-.69,44.79-3.61,54.84Z"/>
  </g>
</svg>