<?xml version="1.0" encoding="UTF-8"?>
<svg id="Calque_2" data-name="Calque 2" xmlns="http://www.w3.org/2000/svg" viewBox="0 0 54.64 189.13">
  <defs>
    <style>
      .cls-1 {
        fill: #1d1d1b;
        stroke-width: 0px;
      }
    </style>
  </defs>
  <g id="Plume_12" data-name="Plume 12">
    <path class="cls-1" d="M52.5,42.64C48.9,23.25,38.8,6.25,27.95,1.29c-3.79-1.73-7.36-1.73-10.35.03-8.68,6.47-8.8,12.59-9.06,26-.21,10.59-.52,26.59-5.5,51.38-10.53,52.33,9.48,69.74,11.63,71.43-.09.45-.17.89-.25,1.32-2.27-3.92-6.08-6.86-10.47-8.01-.47-.12-.67.6-.2.72,4.42,1.16,8.21,4.18,10.35,8.21-2.18-3.14-5.74-4.86-9.16-6.35-.44-.19-.82.46-.38.65,3.02,1.31,6.21,2.78,8.34,5.34-1.98-1.67-4.58-2.56-7.05-3.34-.46-.15-.66.58-.2.72,2.1.67,4.34,1.41,6.14,2.71-1.17-.57-2.43-.91-3.73-1.02-.48-.04-.48.71,0,.75,1.08.09,2.15.36,3.14.81.49.22.95.48,1.4.78.22.15.44.31.65.47.1.08.21.17.31.26.05.04.1.09.15.13.08.08.06.12.12,0-.06.11-.05.22-.02.32-1.41,7.29-2.59,13.16-3.53,17.79-1.61,8-2.42,12.01-2.42,13.44,0,1.08.21,1.91.62,2.46.39.52.94.8,1.6.8,1.64,0,3.52-1.74,3.52-3.26,0-1.35,1.14-8.92,2.87-20.38.47-3.09.98-6.49,1.53-10.15.13-.08.35-.2.65-.39,1.64-.42,3.43-.64,4.94.25.42.24.79-.4.38-.65-.89-.52-1.86-.71-2.85-.71,1.42-.75,3.03-1.35,4.55-.63.43.21.81-.44.38-.65-1.38-.65-2.78-.44-4.11.08,2.1-1.6,4.78-2.33,7.41-2.04.48.05.48-.7,0-.75-1.61-.18-3.23.02-4.74.54,2.21-1.96,4.77-4.55,7.44-7.87,6.85-8.55,15.76-23.82,19.29-48.05,4.28-35.02,4.1-35.97,1.16-51.82ZM15.72,165.37c-1.79,11.9-2.88,19.09-2.88,20.49,0,1.13-1.53,2.51-2.77,2.51-.42,0-.75-.17-1-.49-.31-.42-.48-1.12-.48-2.02,0-1.35.85-5.59,2.41-13.29.94-4.67,2.14-10.6,3.57-17.99.15-.1.24-.29.12-.49,0,0-.01-.02-.02-.03,3.16-16.32,7.45-39.67,12.72-72.25,1.98-17.96,1.79-31.67.41-42.93,4.15,30.3-1.33,60.8-5.33,83.11-1,5.55-1.86,10.35-2.47,14.6-1.63,11.23-3.1,20.96-4.28,28.78ZM50.59,94.36c-6.02,41.28-27.71,57-32.27,59.89-.06.02-.12.03-.18.05.8-5.34,1.67-11.21,2.6-17.59.62-4.24,1.47-9.03,2.47-14.57,5.58-31.12,14.02-78.14-4.66-118.49l-.69.28c6.54,18.15,13.3,36.92,8.79,77.79-4.79,29.6-8.77,51.57-11.82,67.59-3.13-2.65-21.12-20.38-11.05-70.45,5-24.86,5.31-40.9,5.52-51.52.26-13.16.37-19.17,8.72-25.4,2.74-1.61,6.06-1.6,9.62.03,8.71,3.97,19.97,18.44,24.12,40.8,2.92,15.74,3.1,16.69-1.17,51.59Z"/>
  </g>
</svg>