<?xml version="1.0" encoding="UTF-8"?>
<svg id="Calque_2" data-name="Calque 2" xmlns="http://www.w3.org/2000/svg" viewBox="0 0 31.14 111.03">
  <defs>
    <style>
      .cls-1 {
        fill: #1d1d1b;
        stroke-width: 0px;
      }
    </style>
  </defs>
  <g id="Plume_7" data-name="Plume 7">
    <path class="cls-1" d="M30.97,42.82c.8-10.95-1.06-38.76-10.43-42.6-2.42-.72-5.03.3-7.74,3.03C4.98,11.15-2.01,32.55.53,40.8c3.02,9.78,10.84,18.5,11.81,19.55-.02,1.76-.04,3.16-.08,4.04,0,.05,0,.11,0,.17-.07-.22-.16-.44-.24-.66-.73-2.81-2.2-5.37-3.97-7.7-1.1-1.45-2.3-2.84-3.5-4.21-1.15-1.32-2.35-2.6-3.96-3.34-.44-.2-.82.45-.38.65,1.52.69,2.64,1.88,3.72,3.12,1.19,1.36,2.38,2.72,3.47,4.16.72.95,1.39,1.94,1.99,2.97-.19-.24-.39-.48-.6-.71-2.04-2.3-4.47-4.72-7.46-5.66-.46-.15-.66.58-.2.72,2.81.88,5.07,3.17,6.99,5.31,1.31,1.46,2.48,3.1,3.19,4.92.04.15.08.3.12.46-.73-1.35-1.76-2.55-2.94-3.54-1.22-1.03-2.57-1.89-3.95-2.68-1.23-.71-2.66-1.81-4.16-1.54-.47.09-.27.81.2.72.78-.14,1.5.3,2.15.66.63.35,1.25.69,1.87,1.06,1.23.72,2.44,1.5,3.52,2.44,1.29,1.12,2.4,2.5,3.06,4.06-1.94-3.02-5.11-5.23-8.68-5.86-.47-.08-.67.64-.2.72,4.52.79,8.38,4.21,9.65,8.62.01.05.04.09.07.13,0,.18-.02.36-.03.55-.02.37-.04.71-.06,1.07-1.47-3.99-4.67-7.28-8.67-8.8-.45-.17-.65.55-.2.72,4.43,1.69,7.79,5.69,8.74,10.32,0,.01.01.02.02.04,0,.17-.02.33-.03.5-1.32-3.84-4.01-7.15-7.55-9.16-.42-.24-.8.41-.38.65,2.71,1.54,4.91,3.87,6.32,6.62-1.36-1.92-3.2-3.49-5.35-4.45-.44-.2-.82.45-.38.65,3.46,1.55,6.1,4.65,7.04,8.33.03.1.09.17.16.21,0,.08,0,.15-.01.22-1.45-2.97-3.88-5.42-6.89-6.83-.43-.2-.82.44-.38.65,3.21,1.51,5.79,4.24,7.06,7.56.03.07.08.12.13.17,0,.1-.01.2-.02.3-1.61-2.79-3.97-5.13-6.79-6.69-.42-.23-.8.41-.38.65,2.26,1.25,4.19,3,5.67,5.09-1.41-1.6-3.03-3-4.86-4.11-.41-.25-.79.4-.38.65,2.63,1.6,4.87,3.78,6.54,6.36.03.04.06.07.1.1,0,.17-.02.34-.02.51-1.2-2.32-3.12-4.24-5.48-5.38-.43-.21-.81.44-.38.65,2.63,1.28,4.73,3.55,5.75,6.3,0,.02.02.03.03.05,0,.11-.01.22-.02.33-.54-1.14-1.29-2.15-2.15-3.07-.89-.96-1.89-2.11-3.19-2.48-.46-.13-.66.59-.2.72.6.17,1.1.55,1.55.97.45.42.89.86,1.31,1.32.19.2.37.41.55.62-1.13-.69-2.43-1.14-3.71-1.44-.47-.11-.67.61-.2.72,2.31.54,4.71,1.55,5.83,3.79.04.07.09.12.14.15-.03.56-.05,1.1-.08,1.64-.3-.81-.71-1.57-1.26-2.24-.95-1.15-2.3-1.93-3.79-2.1-.48-.06-.47.7,0,.75,1.32.15,2.51.93,3.32,1.96.61.76,1,1.66,1.25,2.59-.96-1.58-2.36-2.9-4.03-3.72-.43-.21-.81.44-.38.65,2.07,1.01,3.69,2.8,4.5,4.94-1.12-1.56-2.72-2.77-4.54-3.41-.46-.16-.65.56-.2.72,2.1.73,3.85,2.3,4.84,4.28.02.05.05.08.08.11-.74,17.26-.49,19.9.03,20.29h0c.08.05.17.08.26.08.08,0,.17-.02.24-.07.9-.51,1.49-9.11,1.88-18.99.04-.01.07-.02.11-.04,1.22-.81,1.7-2.21,2.38-3.44.77-1.39,1.72-2.68,2.83-3.83.33-.35-.2-.88-.53-.53-1.06,1.1-1.99,2.33-2.76,3.65-.61,1.06-1.04,2.42-1.99,3.25.02-.62.04-1.24.07-1.86.05-.02.1-.05.15-.1.4-.46.65-.99.92-1.53.28-.54.59-1.05.94-1.55.69-.97,1.52-1.84,2.45-2.59.38-.3-.16-.83-.53-.53-.93.75-1.75,1.62-2.45,2.59-.35.48-.66.97-.94,1.49-.17.31-.32.64-.49.96.02-.49.03-.98.05-1.47,1.27-2.17,2.62-4.46,4.87-5.74.42-.24.04-.89-.38-.65-1.96,1.11-3.29,2.95-4.45,4.85.01-.49.03-.97.04-1.46,0,0,0,0,0,0,.53-.65,1.06-1.29,1.53-1.98.48-.7.85-1.45,1.28-2.18.79-1.37,1.88-2.45,3.32-3.13.44-.21.06-.85-.38-.65-1.41.67-2.56,1.73-3.38,3.06-.44.72-.81,1.48-1.26,2.19-.33.51-.69.99-1.07,1.47.01-.56.03-1.11.04-1.66.04-.02.09-.04.13-.07,1.16-1.05,1.78-2.49,2.62-3.78.88-1.35,2.13-2.41,3.64-2.99.45-.17.25-.9-.2-.72-1.55.6-2.88,1.62-3.84,2.98-.82,1.15-1.37,2.5-2.31,3.55,0-.26.01-.53.02-.79.09-.04.17-.11.22-.22,1.34-3.56,3.87-6.62,7.1-8.63.41-.25.03-.9-.38-.65-3.01,1.87-5.41,4.6-6.9,7.8.01-.58.02-1.15.03-1.72.05-.03.1-.07.14-.14,1.84-3.61,4.82-6.54,8.47-8.31.43-.21.05-.86-.38-.65-3.42,1.66-6.29,4.35-8.2,7.63,0-.52.02-1.03.03-1.53,1.27-4.44,5.62-6.79,9.46-8.72.43-.22.05-.86-.38-.65-3.4,1.71-7.09,3.76-8.96,7.15,2.12-4.85,7.03-7.37,11.53-9.61.43-.21.05-.86-.38-.65-3.58,1.78-7.41,3.76-9.96,6.89,2.11-3.8,5.8-6.48,9.35-8.89.4-.27.02-.92-.38-.65-3.27,2.22-6.61,4.67-8.85,7.93.53-1.08,1.16-2.11,1.91-3.06,1.28-1.61,2.86-2.9,4.47-4.17,3.21-2.54,6.02-5.44,8.32-8.83.27-.4-.38-.78-.65-.38-2.49,3.65-5.56,6.56-8.99,9.3-2.5,2-4.52,4.32-5.88,7.13.51-1.85,1.37-3.6,2.57-5.11.3-.37-.23-.91-.53-.53-1.13,1.42-2,3.03-2.56,4.74.01-1.42.01-2.34,0-2.6-.02-.38-.04-.76-.06-1.13,1.59-.78,16.34-8.28,17.02-17.66ZM11.34,109.7c-.44-4.67.88-29.84,1.39-39.74.13-2.46.23-4.4.28-5.53.05-1.15.07-3.14.09-5.65.05.95.1,1.91.16,2.87.04,1.63,0,5.54-.08,10.46,0,.01,0,.02-.01.03-.02.08-.01.15,0,.21-.24,13.15-.89,33.35-1.84,37.35ZM13.9,59.66c-1.44-27.35,1.82-47.57,5.77-55.61l-.67-.33c-6.29,12.47-6.53,41.18-6.65,54.98,0,.18,0,.35,0,.53-2.03-2.31-8.45-10.07-11.1-18.66C-1.24,32.52,5.65,11.54,13.33,3.79c2.5-2.52,4.86-3.47,6.96-2.86,8.85,3.63,10.69,31.4,9.93,41.84-.61,8.45-13.85,15.63-16.32,16.9Z"/>
  </g>
</svg>