<?xml version="1.0" encoding="UTF-8"?>
<svg id="Calque_2" data-name="Calque 2" xmlns="http://www.w3.org/2000/svg" viewBox="0 0 40.84 158.62">
  <defs>
    <style>
      .cls-1 {
        fill: #1d1d1b;
        stroke-width: 0px;
      }
    </style>
  </defs>
  <g id="Plume_10" data-name="Plume 10">
    <path class="cls-1" d="M40.84,21c0-5-6.39-16.53-13.19-19.99-2.76-1.41-5.25-1.34-7.4.21-3,1.18-10.69,8.92-18.39,54.98-4.23,29.35-.29,42.1,2.5,47.15-1.04-.94-2.22-1.74-3.4-2.51-.4-.27-.78.38-.38.65,1.81,1.19,3.75,2.48,4.94,4.33-1.1-1.06-2.5-1.81-4.02-2.08-.47-.08-.67.64-.2.72,1.97.35,3.74,1.52,4.79,3.23.06.1.15.15.24.17-.03.53-.05,1.06-.08,1.59-.31-.7-.71-1.34-1.32-1.82-.48-.38-1.03-.66-1.64-.74-.71-.1-1.4.08-2.04.38-.44.21-.06.85.38.65.51-.24,1.1-.39,1.66-.27.48.1.92.34,1.28.67.82.74,1.2,1.81,1.47,2.85.02.08.06.13.11.18-.53,11.93-.87,24.96-.96,39.19-.01,1.91-.02,3.17-.04,3.64-.09,2.17.28,3.52,1.14,4.12.36.25.75.34,1.13.34.67,0,1.32-.27,1.74-.44l.14-.09c.47-.52.45-3.56.31-13.09-.12-8.04-.28-19.23-.04-32.45.29-.1.8-.28,1.48-.61.02,0,.05,0,.07,0,1.51-.59,3.29-.35,4.55.68.16.13.38.15.53,0,.13-.13.16-.4,0-.53-.82-.67-1.83-1.07-2.87-1.18,1.39-.84,2.97-1.56,4.61-1.17.47.11.67-.61.2-.72-.85-.2-1.67-.14-2.47.05,1.27-1.02,2.63-1.96,4.25-2.29.47-.1.27-.82-.2-.72-.61.13-1.17.34-1.72.6,1.98-2.04,4.15-4.74,6.35-8.32,12.52-20.44,15.86-53.33,16.46-77.32ZM8.79,157.54c-.55.22-1.45.55-2.04.13-.62-.43-.9-1.63-.82-3.47.02-.48.03-1.75.04-3.67.28-45.51,3.09-78.72,6.78-102.84-1,9.04-1.57,17.97-2.14,26.78-.14,2.21-.29,4.4-.43,6.58-1.82,26.9-1.48,50.1-1.28,63.96.1,6.56.17,11.77-.1,12.53ZM9.61,111.75c.18-9.35.56-19.68,1.3-30.65.15-2.18.29-4.38.43-6.58,1.45-22.32,2.94-45.4,11.19-69.19l-.71-.25s0,0,0,0t0,0c-5.81,16.62-12.58,46.76-15.35,100.01-2.07-2.49-8.93-13.69-3.88-48.79C10.49,9.11,18.34,2.73,20.56,1.9l.09-.05c1.91-1.39,4.15-1.45,6.66-.17,6.47,3.29,12.78,14.62,12.78,19.31-1.08,43.19-9.45,65.62-16.29,76.84-6.3,10.33-12.47,13.27-14.19,13.92Z"/>
  </g>
</svg>