<?xml version="1.0" encoding="UTF-8"?>
<svg id="Calque_2" data-name="Calque 2" xmlns="http://www.w3.org/2000/svg" viewBox="0 0 44.81 238.09">
  <defs>
    <style>
      .cls-1 {
        fill: #1d1d1b;
        stroke-width: 0px;
      }
    </style>
  </defs>
  <g id="Plume_9" data-name="Plume 9">
    <path class="cls-1" d="M38.42,62.96c-1.29-2.74.12-8.04,1.9-14.76,1.21-4.55,2.58-9.71,3.4-15.18C45.87,18.62,44.89,1.45,40.35.02l-.07-.02h-.07c-9.34.58-18.45,38.77-24.47,64.05-2.16,9.04-3.86,16.18-4.63,17.25-.24.33-.5.67-.78,1.03-3.19,4.09-8.52,10.93-10.15,44.99-.97,20.2,2.05,30.45,5.05,35.63-.71-.52-1.48-.95-2.32-1.27-.19-.07-.41.08-.46.26-.06.21.07.39.26.46,1.65.62,3.11,1.75,4.12,3.2.1.15.26.19.4.16,1.32,1.46,2.43,2.05,2.93,2.25.01.66.03,1.33.04,1.99-.26-.6-.66-1.14-1.1-1.64-.65-.72-1.39-1.36-2.2-1.89-1.64-1.09-3.54-1.75-5.5-1.92-.48-.04-.48.71,0,.75,1.74.15,3.42.73,4.89,1.67.73.46,1.4,1,1.99,1.62.24.25.49.53.72.83-.09-.06-.16-.14-.25-.2-1.04-.67-2.35-.85-3.54-.55-.47.12-.27.84.2.72,1.79-.44,3.6.49,4.34,2.11-.39-.32-.8-.63-1.25-.85-.51-.25-1.06-.39-1.63-.34-.64.05-1.23.27-1.82.5-.44.17-.25.9.2.72.94-.37,1.91-.7,2.88-.23.41.2.78.47,1.13.76.31.25.74.53.86.94.03.1.08.16.15.2.14,5.29.36,10.74.68,16.52.38,5.85.67,11.32.96,16.61.7,13.1,1.25,23.45,2.68,30.01l.02.1.07.07c.96,1.06,1.87,1.58,2.93,1.58.7,0,1.46-.22,2.33-.66.88-.44.63-3.79-.91-19.21-.97-9.67-2.26-22.59-3.21-37.01,1.02-.69,2.47-.45,3.18.57.12.17.33.24.51.13.16-.1.25-.35.13-.51-.48-.67-1.2-1.17-2.02-1.3-.31-.05-.62-.03-.92,0,.56-.23,1.29-.56,2.14-1,.11.07.26.07.4.01,1.24-.52,2.76-.15,3.66.81.33.35.86-.18.53-.53-.76-.81-1.83-1.23-2.91-1.25.11-.07.23-.14.35-.21.11.1.26.15.43.06.78-.43,1.7-.48,2.53-.16.19.07.41-.08.46-.26.06-.21-.07-.39-.26-.46-.51-.19-1.05-.27-1.59-.22,4.64-3.28,10.53-9.2,14.15-19.44,3.79-12.55,4.92-34.27,6.35-61.76.24-4.58.49-9.31.75-14.2-.74-10.23-2.27-12.72-3.62-14.91-.62-1-1.2-1.94-1.68-3.63ZM19.62,236.76c-1.85.93-2.99.75-4.31-.67-1.4-6.5-1.95-16.79-2.65-29.79-.28-5.29-.58-10.76-.96-16.61-.42-7.76-.68-14.93-.79-21.93-.49-30.05,1.12-75.02,18.25-134.13-7.24,28.68-14.27,67.28-15.24,100.87-.42,15.85.18,31.94,1.14,46.5,0,.02,0,.05,0,.07.95,14.51,2.25,27.5,3.23,37.23.99,9.92,1.78,17.75,1.32,18.47ZM42.22,95.65c-1.43,27.44-2.56,49.11-6.32,61.56-5.85,16.57-17.72,21.59-20.16,22.46-.91-14.21-1.47-29.8-1.06-45.16,1.34-46.3,14.21-102.12,23.24-128.26.17-.49.35-.99.52-1.48l-.71-.25c-.17.48-.34.97-.52,1.48C11.96,78.45,9.63,132.55,10.16,167.17c-2.16-1.19-10.75-7.96-9.23-39.81,1.62-33.82,6.86-40.55,9.99-44.57.29-.37.56-.71.8-1.05.86-1.19,2.41-7.68,4.75-17.52C22.07,40.75,31.43,1.5,40.19.76c3.64,1.32,5.02,17.16,2.78,32.15-.81,5.42-2.17,10.56-3.38,15.09-1.82,6.87-3.26,12.29-1.88,15.21.49,1.73,1.1,2.71,1.74,3.76,1.3,2.12,2.78,4.52,3.51,14.52-.27,4.84-.52,9.57-.75,14.15Z"/>
  </g>
</svg>