<?xml version="1.0" encoding="UTF-8"?>
<svg id="Calque_2" data-name="Calque 2" xmlns="http://www.w3.org/2000/svg" viewBox="0 0 45.96 158.31">
  <defs>
    <style>
      .cls-1 {
        fill: #1d1d1b;
        stroke-width: 0px;
      }
    </style>
  </defs>
  <g id="Plume_15" data-name="Plume 15">
    <path class="cls-1" d="M28.99,2.05C27.54.59,26.21-.1,25.04.01,17.05.76,1.49,25.52.07,63.73c-.85,22.9,6.09,37.42,11.9,45.48-.07-.03-.12-.08-.19-.11-1.61-.73-3.37-.5-5.06-.23-.48.07-.27.8.2.72,1.47-.23,3.08-.47,4.49.16.97.43,1.72,1.21,2.21,2.14-1.27-.65-2.7-.97-4.14-.9-.48.02-.48.77,0,.75,1.98-.1,3.95.59,5.42,1.92-.41.11-.83.3-1.2.44-1.1.43-2.25.76-3.41.99-.47.09-.27.82.2.72,1.02-.2,2.02-.48,2.99-.83.49-.18.96-.41,1.44-.58.41-.14.82-.19,1.13.18.05.06.1.09.16.1-.1.02-.2.02-.29.05-.74.18-1.46.49-2.13.87-1.36.78-2.49,1.89-3.5,3.07-.31.36.22.9.53.53.84-.98,1.76-1.92,2.85-2.64.54-.36,1.11-.66,1.71-.88.3-.11.6-.2.91-.26.16-.03.32-.06.48-.08.08-.01.16-.02.25-.03.18-.02.16.02.1-.07.04.05.09.09.16.11.25.24.49.46.71.66-.36.08-.72.27-1.02.42-.75.36-1.47.8-2.13,1.3-1.32,1.01-2.44,2.28-3.25,3.73-.24.42.41.8.65.38.69-1.22,1.58-2.3,2.65-3.2.52-.44,1.08-.82,1.68-1.16.3-.17.61-.33.93-.47.16-.07.32-.14.49-.21.03-.01.18-.06.27-.09-1.23,1-2.17,2.3-2.69,3.81-.16.46.57.65.72.2.5-1.45,1.45-2.74,2.68-3.65.05-.04.09-.08.12-.13.09.07.17.13.23.18.27,23.6,1.26,39.17,1.65,39.87.45.8,1.23,1.29,2.09,1.32.02,0,.04,0,.06,0,.86,0,1.64-.47,2.16-1.3.33-.53.21-4.52-.2-17.08-.19-5.68-.42-12.73-.63-20.88.05.03.11.05.17.05.81.08,1.49.69,1.9,1.36.52.85.7,1.87.88,2.83.09.47.81.27.72-.2-.21-1.1-.43-2.24-1.06-3.18-.3-.45-.69-.82-1.13-1.1,1.47-.32,3.21-.48,4.34.7.33.35.86-.18.53-.53-.57-.6-1.26-.91-2-1.04,1.39-.59,3.1-.33,4.21.7.35.33.89-.2.53-.53-.76-.7-1.73-1.11-2.74-1.21.74-.33,1.6-.28,2.28.17.17.11.41.03.51-.13.11-.18.04-.4-.13-.51-.6-.39-1.34-.55-2.04-.47.09-.07.17-.13.26-.2.6-.49,1.23-1.06,1.86-1.74.07.03.16.05.24.02.79-.26,1.57-.4,2.39-.43.2,0,.38-.17.38-.38,0-.2-.16-.38-.38-.38-.39.01-.77.06-1.15.12.65-.35,1.34-.6,2.08-.75.2-.04.31-.28.26-.46-.06-.21-.26-.3-.46-.26-.58.12-1.15.31-1.69.55,4.08-5.37,8.27-15.18,10.1-33.08C49,42.45,36.85,9.97,28.99,2.05ZM16.52,114.62s.01.01.02.02c-.02,0-.04,0-.06,0,.01,0,.03-.02.04-.03ZM24.63,156.61c-.39.62-.98.92-1.56.95-.59-.01-1.13-.36-1.44-.92-.81-2.43-4.24-72.49,2.41-142.32-2.07,53.76-.5,101.7.29,125.63.31,9.32.53,16.05.31,16.66ZM44.52,78.9c-3.79,37.09-17.8,39.06-20.12,39.13-.75-28.76-1.29-70.91.92-116.11l-.75-.06c-4.72,41.64-5.59,84.29-5.27,114.31-.39-.32-.95-.8-1.63-1.45,0,0,0,0-.01-.01-1.96-1.87-4.93-5.13-7.82-10.03C5.32,97.01.08,83.69.82,63.76,2.32,23.55,18.53,1.37,25.11.76c.91-.08,2.08.54,3.35,1.82,4.33,4.36,9.19,15.33,12.39,27.94,2.8,11.04,5.71,28.4,3.67,48.38Z"/>
  </g>
</svg>