<?xml version="1.0" encoding="UTF-8"?>
<svg id="Calque_2" data-name="Calque 2" xmlns="http://www.w3.org/2000/svg" viewBox="0 0 42.45 137.05">
  <defs>
    <style>
      .cls-1 {
        fill: #1d1d1b;
        stroke-width: 0px;
      }
    </style>
  </defs>
  <g id="Plume_14" data-name="Plume 14">
    <path class="cls-1" d="M41.22,64.83c3.37-34.32-.66-56.36-6.16-62.98-.94-1.14-1.9-1.75-2.82-1.83-.09,0-.18-.01-.27-.01C25.38,0,9.06,23.58,1.46,68.62c-3.69,25.89.31,35.6,4.32,39.19.51.46,1.02.81,1.52,1.1-.17.02-.34.03-.5.07-1.12.28-1.97,1.1-2.75,1.9-.34.35.19.88.53.53.7-.71,1.43-1.46,2.42-1.71.9-.22,1.84-.06,2.73.14-.21.1-.42.21-.61.33-.97.6-1.79,1.39-2.59,2.2-.34.34.19.87.53.53.71-.72,1.44-1.43,2.28-1.98.74-.49,1.64-.9,2.53-.66-1.88,1.03-3.32,2.8-3.94,4.85-.14.46.58.66.72.2.58-1.92,1.94-3.54,3.72-4.47.13.29.28.61.45.96-.83.37-1.48,1.04-1.79,1.91-.07.18.07.42.26.46.21.05.39-.06.46-.26,0-.02.02-.05.03-.07,0,0,0,0,0-.01.01-.04.04-.08.06-.12.04-.09.09-.17.14-.26.02-.04.05-.08.08-.12.01-.02.02-.03.04-.05,0,0,0-.01.01-.02.06-.07.12-.14.18-.21.06-.07.13-.13.2-.19.03-.03.07-.06.1-.08,0,0,0,0,.01,0,.02-.01.04-.03.06-.04.08-.05.16-.1.24-.15,0,0,.01,0,.02,0-.15.74-.41,1.39-.81,2.03-.11.17-.04.42.13.51.19.1.4.04.51-.13.35-.55.61-1.14.79-1.77,4.03,7.52,13.94,22.55,15.36,23.4.49.3.98.45,1.41.45.35,0,.68-.1.95-.29.66-.47.89-1.4.63-2.55-.21-.92-2.45-4.55-6.09-10.39-2.35-3.77-4.98-7.99-6.71-11.03.22.18.46.34.72.46.87.39,1.83.41,2.75.59.2.04.4-.06.46-.26.05-.18-.06-.42-.26-.46-.83-.16-1.7-.18-2.5-.49-.47-.18-.91-.5-1.14-.95.71,0,1.42-.06,2.13,0,.68.06,1.42.31,1.79.92.25.41.9.03.65-.38-.44-.73-1.24-1.12-2.06-1.25-.21-.03-.41-.04-.62-.05.37-.15.74-.3,1.12-.41.86-.25,1.89-.28,2.55.41.34.35.87-.18.53-.53-.7-.72-1.74-.88-2.7-.73-.22.04-.44.1-.65.16.6-.34,1.24-.75,1.92-1.24,1.03-.41,2.24-.1,2.9.86.27.4.92.02.65-.38-.46-.68-1.16-1.18-1.97-1.35-.05-.01-.1,0-.15-.02,1.1-.73,2.36-1.38,3.67-.88.19.07.41-.08.46-.26.06-.21-.07-.39-.26-.46-.84-.32-1.66-.23-2.44.04,5.6-5.64,12.19-17.28,14.55-41.29ZM2.2,68.73c4.27-25.29,10.86-41.8,15.64-51.2C23.93,5.55,29.37.47,32.17.76c.72.06,1.52.6,2.32,1.57,4.03,4.85,9.82,23.45,5.99,62.42-3.96,40.36-20.33,45.34-22.56,45.83-.31-.62-.53-1.12-.65-1.46l-.07-.21c-10.84-32.23-.02-70.53,8.55-92.76,2.26-5.71,4.4-10.61,6.14-14.4l-.68-.32c-3.02,6.39-5.6,12.55-7.79,18.46-7.7,20.01-12.34,38.66-13.82,55.61-1.09,12.41-.45,23.32,1.89,32.46l.23.86c.03.12.06.23.09.33-.89.11-3.22.15-5.52-1.93-3.86-3.48-7.7-12.98-4.06-38.5ZM31.17,134.37c.18.83.06,1.5-.34,1.78-.36.26-.92.19-1.54-.19-1.61-.97-15.85-23.05-16.68-26.59-.04-.18-.11-.43-.19-.74l-.22-.86c-4.73-18.45-1.96-40.3,3.11-59.95-6.71,32.48-1.32,53.93,1.17,61.33l.07.2c.14.43.41,1.03.82,1.82.21.41.46.87.73,1.36,1.71,3.09,4.56,7.66,7.08,11.69,2.86,4.58,5.81,9.31,6,10.16Z"/>
  </g>
</svg>