<?xml version="1.0" encoding="UTF-8"?>
<svg id="Calque_2" data-name="Calque 2" xmlns="http://www.w3.org/2000/svg" viewBox="0 0 53.4 142.61">
  <defs>
    <style>
      .cls-1 {
        fill: #1d1d1b;
        stroke-width: 0px;
      }
    </style>
  </defs>
  <g id="Plume_11" data-name="Plume 11">
    <path class="cls-1" d="M51.31,3.1c-2.89-3.38-8.58-3.99-17.38-1.87-6.5,1.24-17.19,13.6-27.66,44.59-9.9,29.27-.31,43.44.47,44.52,0,.14-.02.27-.03.41-1.42-3-3.13-5.93-5.71-8.07-.37-.31-.9.22-.53.53,2.26,1.87,3.82,4.36,5.13,6.96-1.34-1.84-3-3.43-4.91-4.68-.4-.27-.78.38-.38.65,2.27,1.49,4.17,3.47,5.57,5.79-.44-.39-.92-.73-1.43-1-.63-.34-1.29-.6-1.96-.84-.69-.25-1.38-.51-2.12-.59-.48-.05-.48.7,0,.75.62.07,1.22.32,1.81.52.61.22,1.22.45,1.79.75.51.26.99.57,1.42.95.4.36.91.86,1.03,1.4.02.09.07.15.13.2-1.22,25.66,1.43,47.52,3.16,48.22.58.23,1.08.33,1.53.33,1.02,0,1.79-.51,2.61-1.16l.11-.09.03-.14c.17-.91-.12-3.22-.6-7.07-.97-7.81-2.58-20.87-2.37-37.38.06.04.13.07.21.08,1.21.08,2.36.61,3.23,1.45.35.34.88-.19.53-.53-.76-.73-1.7-1.25-2.71-1.5.61-.12,1.36-.34,2.23-.71.66.03,1.33-.05,1.98.06.49.09,1.01.29,1.29.73.26.41.91.03.65-.38-.36-.57-.98-.91-1.63-1.05-.28-.06-.57-.08-.85-.09.19-.11.38-.23.58-.36,1.03-.25,2.09-.3,3.14-.17.2.03.38-.19.38-.38,0-.22-.17-.35-.38-.38-.6-.08-1.2-.09-1.8-.05,3.88-3.08,8.6-9.41,12.19-22.39,2.02-5.45,4.58-10.85,7.28-16.57,3.15-6.65,6.72-14.19,10.23-23.43,4.48-10.8,8.43-22.57,3.78-28.02ZM12.63,134.25c.41,3.33.72,5.78.62,6.7-1.12.86-1.84,1.19-3.24.65-1.47-1.77-6.6-41.9,1.07-79.83,2.99-12.64,6.96-23.13,11-31.59-5.11,11.93-7.42,23.31-8.85,33-5.4,32.29-2.16,58.49-.6,71.08ZM46.84,30.84c-3.5,9.22-7.06,16.75-10.21,23.39-2.71,5.73-5.28,11.15-7.32,16.66-3.68,13.29-8.56,19.32-12.01,22.04-2.97,2.34-5.41,2.69-6.27,2.73.17-9.75.99-20.66,2.95-32.38,2.5-16.93,7.7-39.07,25.96-60.22l-.55-.51c-2.02,2.02-19.98,20.81-29.03,59.05-1.82,9-2.93,18.4-3.54,27.48-2.04-3.44-8.55-17.27.16-43.03C17.36,15.35,28.06,3.11,34.09,1.96,42.49-.06,48.1.49,50.74,3.59c4.39,5.14.49,16.66-3.9,27.25Z"/>
  </g>
</svg>