<?xml version="1.0" encoding="UTF-8"?>
<svg id="Calque_2" data-name="Calque 2" xmlns="http://www.w3.org/2000/svg" viewBox="0 0 30.72 89.89">
  <defs>
    <style>
      .cls-1 {
        fill: #1d1d1b;
        stroke-width: 0px;
      }
    </style>
  </defs>
  <g id="Plume_6" data-name="Plume 6">
    <path class="cls-1" d="M21.5.21c-2.05-.61-4.23.12-6.49,2.16C6.3,10.25-1.38,35.65,1.08,48.43l.03.09c2.11,4.26,9.59,10.5,10.68,11.39,0,.51,0,1.04.01,1.56-4.36-2.91-7.97-6.83-10.5-11.42-.23-.42-.88-.04-.65.38,2.65,4.8,6.45,8.88,11.04,11.88.04.03.08.04.12.05,0,.53,0,1.06.01,1.6,0,.35.01.68.02,1.02-.46-.69-.99-1.33-1.54-1.95-.86-.97-1.75-1.91-2.67-2.82-1.8-1.78-3.71-3.43-5.72-4.96-.38-.29-.76.36-.38.65,1.95,1.5,3.81,3.12,5.57,4.85.85.84,1.68,1.71,2.48,2.6.81.9,1.58,1.82,2.14,2.9.04.07.09.11.14.14,0,.58.02,1.16.03,1.71-2.46-4.06-5.81-7.48-9.29-10.68-.35-.33-.89.2-.53.53,3.76,3.46,7.38,7.17,9.85,11.69,0,.11,0,.22,0,.33-2.84-4.55-6.34-8.52-10.72-11.67-.39-.28-.77.37-.38.65,4.55,3.27,8.12,7.45,10.98,12.24.04.07.1.11.15.14,0,.4.02.79.03,1.17-2.99-4.79-6.52-9.42-11.43-12.36-.42-.25-.79.4-.38.65,3.85,2.31,6.82,5.68,9.36,9.34-1.69-1.72-3.71-3.02-6.26-2.98-.48,0-.48.76,0,.75,3.04-.06,5.28,2.03,7.09,4.29-1.4-1.09-3.14-1.77-4.89-2.13-.47-.1-.67.62-.2.72,2.18.45,4.34,1.4,5.77,3.11-.31-.16-.63-.3-.98-.38-1.18-.26-2.38.02-3.49.44-.45.17-.25.89.2.72.95-.35,1.99-.66,3.01-.45.71.14,1.36.51,1.86,1.03-1.3.16-2.56.54-3.72,1.16-.43.23-.05.87.38.65,1.17-.62,2.47-1,3.79-1.11,0,0,0,0,0,0,.41,12.32,1.07,13.73,1.78,13.91l.2.05.15-.14c1.68-1.52,1.6-6.22,1-13.37.07-.01.13-.03.19-.09,1.25-1.1,2.84-1.81,4.5-1.99.2-.02.38-.16.38-.38,0-.19-.17-.4-.38-.38-1.49.16-2.9.7-4.13,1.54,2.28-3.05,6.52-4.13,8.46-7.56.24-.42-.41-.8-.65-.38-1.94,3.43-6.23,4.5-8.51,7.62-.02-.22-.04-.45-.06-.67.07-.03.13-.07.18-.15,3.15-5.04,9.96-6.56,12.45-12.15.19-.44-.45-.82-.65-.38-2.35,5.27-8.62,6.95-11.94,11.42.47-1.46,1.68-2.56,2.88-3.49,1.51-1.16,3.14-2.15,4.56-3.43.36-.32-.17-.85-.53-.53-1.49,1.34-3.23,2.36-4.79,3.61-.91.73-1.81,1.58-2.39,2.61-.02-.26-.05-.52-.07-.78,0,0,0,0,0,0,.07,0,.15-.04.21-.12,3.83-4.93,11.29-6.88,13.08-13.4.13-.47-.6-.67-.72-.2-1.51,5.52-7.4,7.72-11.34,11.4,2.72-3.59,6.87-5.92,9.4-9.7.27-.4-.38-.78-.65-.38-2.48,3.7-6.5,6-9.22,9.46.45-.9,1.08-1.73,1.73-2.49.97-1.13,2.04-2.18,3.1-3.24,2.03-2.02,4.06-4.11,5.27-6.75.2-.44-.45-.82-.65-.38-1.31,2.87-3.6,5.05-5.8,7.25-1.74,1.74-3.79,3.68-4.63,6.07-.04-.44-.08-.88-.12-1.33.03-.03.06-.07.07-.11,1.27-3.23,4.17-5.39,6.53-7.8,2.5-2.55,4.68-5.39,6.53-8.44.25-.41-.4-.79-.65-.38-1.97,3.24-4.32,6.24-7.02,8.9-2.03,1.99-4.25,3.87-5.59,6.39-.04-.5-.09-1.01-.13-1.52.83-1.21,1.68-2.4,2.66-3.5.97-1.09,2.09-2.02,3.17-3,2.11-1.9,3.81-4.13,5.49-6.41.29-.39-.36-.76-.65-.38-1.74,2.36-3.52,4.62-5.72,6.57-1.06.94-2.12,1.88-3.05,2.95-.71.83-1.36,1.71-1.99,2.6-.08-.98-.16-1.98-.23-2.99,1.52-1.19,12.98-10.23,16.15-15.73l.04-.1c1.74-6.96,1.05-39.98-8.47-43.88ZM13.96,88.92c-1.06-2.3-1.3-19.24-1.38-24.97-.06-4.08-.05-7.99.01-11.7.28,6.82.87,13.18,1.38,18.67.83,8.85,1.49,15.93,0,18.01ZM29.25,43.86c-2.9,4.96-13.05,13.18-15.54,15.15-.57-8.32-.85-17.64.03-27.11.44-4.17,1-8,1.69-11.5,1.15-5.58,2.83-11.1,5.2-16.36l-.68-.32c-2.17,4.29-3.89,9.68-5.19,16.22-.85,4.04-1.42,8.11-1.79,12.15-.81,7.78-1.2,16.72-1.18,26.87-1.95-1.64-8.13-7.03-9.98-10.7C-.54,35.88,7.13,10.5,15.51,2.92c2.05-1.86,3.99-2.52,5.74-2.01,3.76,1.54,6.58,8.76,7.93,20.33,1.09,9.29.92,19.17.08,22.62Z"/>
  </g>
</svg>