<?xml version="1.0" encoding="UTF-8"?>
<svg id="Calque_2" data-name="Calque 2" xmlns="http://www.w3.org/2000/svg" viewBox="0 0 35.36 99.4">
  <defs>
    <style>
      .cls-1 {
        fill: #1d1d1b;
        stroke-width: 0px;
      }
    </style>
  </defs>
  <g id="Plume_3" data-name="Plume 3">
    <g>
      <path class="cls-1" d="M34.13,3.42c-1.24-1.99-3.41-3.12-6.46-3.38-5.52-.45-10.7,2.25-15.01,7.8-3.24,4.16-4.87,8.53-4.87,8.53-.03.05-2.56,5.13-4.72,14.35C1.09,39.23-.97,53.08.5,70.89c.47,3.37,1.97,5.83,3.55,7.55-1.29.02-2.57.54-3.5,1.44-.35.34.18.87.53.53.92-.88,2.19-1.32,3.45-1.21.07,0,.14-.02.2-.07.44.42.88.79,1.29,1.1-.97,0-1.94.2-2.77.71-.94.58-1.67,1.55-1.84,2.65-.03.2.05.4.26.46.18.05.43-.06.46-.26.15-.95.75-1.75,1.57-2.24.94-.56,2.06-.66,3.12-.53.09.01.16-.03.23-.08.41.26.75.45,1,.58-.82.01-1.63.15-2.39.44-.77.29-1.5.72-1.8,1.52-.07.19.08.41.26.46.21.06.39-.07.46-.26.22-.6.93-.89,1.49-1.08.72-.24,1.48-.34,2.24-.33.02.3.04.59.06.88-.77-.26-1.68.1-2.1.78-.1.17-.04.42.13.51.18.1.4.04.51-.13,0,0,.05-.07.06-.09,0,0,0,0,0,0,.01-.02.03-.03.04-.04.02-.03.05-.05.08-.08.01-.01.03-.03.04-.04,0,0,0,0,.01-.01,0,0,.02-.02.02-.02.01,0,.03-.02.04-.03.03-.02.07-.04.1-.06,0,0,.05-.02.08-.04-.02,0-.03,0,.01,0,0,0,0,0,0,0,0,0,0,0,0,0,0,0,0,0,0,0,.02,0,.03-.01.05-.02.07-.02.14-.04.22-.06,0,0,0,0-.01,0,.02,0,.04,0,.06,0,.04,0,.07,0,.11,0,.04,0,.08,0,.12,0,0,0,.03,0,.04,0,0,0,0,0,0,0,.08.01.16.04.23.06.06.02.13.02.2,0,.61,8.24,1.65,14.37,3.14,15.35l.22.15.21-.16c2.23-1.68,1.57-5.66.47-12.24-.16-.95-.32-1.95-.49-2.98.38-.19.79-.38,1.2-.39.05,0,.1,0,.15,0,.02,0,.04,0,.06,0,0,0,0,0,.02,0,.09.02.18.04.27.08.01,0,.08.04.09.04,0,0,.07.05.08.05.03.03.06.06.09.09.02.02.03.04.05.05-.02-.03-.02-.02,0,.01.11.17.33.24.51.13.17-.1.25-.34.13-.51-.31-.47-.84-.7-1.4-.71-.49-.01-.95.17-1.39.37-.02-.14-.04-.27-.06-.41.07,0,.14,0,.2-.03.63-.3,1.31-.62,2.01-.73.61-.1,1.2.11,1.61.57.32.36.85-.17.53-.53-.52-.58-1.32-.89-2.1-.8-.04,0-.09.02-.13.03.29-.15.6-.32.91-.52.07.03.15.05.23.03.56-.11,1.04-.43,1.59-.58.46-.13.98-.05,1.36.26.16.13.38.15.53,0,.13-.13.16-.4,0-.53-.54-.43-1.2-.62-1.88-.5-.06,0-.11.03-.16.04.23-.21.46-.43.69-.67.12.09.27.1.42.03-.07.03.06-.02.07-.03.03-.01.07-.02.1-.03.08-.02.16-.04.23-.06.01,0,.09-.01.1-.02.03,0,.05,0,.08,0,.09,0,.17,0,.26,0,.08,0,.16,0,.23.02.02,0,.04,0,.06.01.04,0,.08.02.12.02.08.02.16.04.23.07.04.01.08.03.11.04-.07-.03.06.03.07.03.18.09.41.05.51-.13.09-.17.05-.42-.13-.51-.55-.27-1.15-.34-1.74-.24,2.44-2.98,4.9-8.52,4.13-18.54-.03-5.09.37-9.35,1.24-13.41,1.11-5.17,2.94-9.72,5.25-15.48.89-2.23,1.91-4.76,2.97-7.56.13-.37.32-.85.54-1.42,1.69-4.3,5.2-13.26,2.1-18.23ZM11.76,98.44c-2.58-3.07-4.38-31.79-2.61-55.43.13-1.7.34-3.4.62-5.09-.66,9.5-.29,24.17-.14,28.93.08,8.26,1.19,14.92,2.08,20.27.97,5.82,1.62,9.75.05,11.32ZM31.33,21.38c-.23.58-.42,1.07-.55,1.44-1.06,2.78-2.07,5.31-2.96,7.54-2.32,5.79-4.16,10.37-5.28,15.6-.89,4.11-1.29,8.43-1.26,13.6.8,10.52-1.99,15.93-4.47,18.62-2.12,2.29-4.37,3.05-5.23,3.26-.61-4.2-1.14-9.03-1.19-14.61-.17-5.44-.64-23.88.5-32.61.75-5.81,4.94-16.05,8.9-23.42,2.01-3.59,3.77-6.19,4.7-7.35.23-.26.45-.49.66-.69l-.45-.59c-.06.04-.15.12-.27.25-1.91,1.91-4.62,6.41-7.17,11.62-3.92,7.69-8.06,18.24-8.85,28.91-.8,10.7-.89,25.89-.2,37.82-1.6-.86-6.11-3.8-6.96-9.97C-.21,53.13,1.83,39.37,3.79,30.93c2.13-9.14,4.64-14.17,4.68-14.25.06-.17,6.45-16.96,19.14-15.88,2.79.23,4.77,1.25,5.88,3.02,2.9,4.66-.52,13.37-2.16,17.56Z"/>
      <path class="cls-1" d="M7.67,83.84s0,0,0,0c.04,0,.05,0,0,0Z"/>
      <path class="cls-1" d="M7.38,83.92s.02,0,.02-.01c0,0,0,0,0,0,0,0-.01,0-.02,0Z"/>
    </g>
  </g>
</svg>