<svg width="59" height="82" viewBox="0 0 59 82" fill="none" xmlns="http://www.w3.org/2000/svg">
<mask id="path-1-inside-1_90_1556" fill="white">
<path d="M53.1537 64.5115C52.9557 63.8519 52.552 63.3832 52.0249 63.15C55.0844 61.8336 57.3033 60.0888 57.8601 58.3509C58.1223 57.5344 58.0135 56.741 57.554 56.1179C56.5881 54.8093 54.7246 54.7387 53.1346 54.9808C53.383 54.3838 53.4599 53.7194 53.2208 53.0228C52.9846 52.336 52.3878 51.4457 50.8822 51.107C50.1763 50.948 49.4199 50.9664 48.6358 51.1609C45.3899 51.9632 33.8256 54.4062 21.2926 52.1376C6.38007 49.4398 3.10892 59.3195 2.90274 59.9997C1.09195 65.3837 2.01634 70.4562 5.57665 74.6687C6.31584 75.5439 7.14216 76.345 8.01745 77.0697C12.71 80.955 18.8267 82.6481 20.6812 81.7756C21.8052 81.2471 22.5049 80.4477 22.7605 79.4021C22.8829 78.901 22.8842 78.4123 22.8248 77.9698C26.5003 79.1168 29.1771 79.0187 30.7957 77.676C31.4733 77.1142 31.8272 76.4497 32.0124 75.9114C35.1386 76.6665 39.4228 77.3451 41.7074 75.1532C42.6298 74.2678 43.0248 73.3273 42.88 72.3565C42.8146 71.9178 42.6411 71.5344 42.4131 71.2053C45.9855 70.8414 49.2063 69.9144 51.3028 68.6122C53.0899 67.507 53.5152 65.7114 53.1537 64.5115ZM56.4336 57.2751C56.5001 57.3653 56.5532 57.4677 56.4698 57.7276C55.928 59.4151 51.6769 62.2887 45.1019 63.2967C45.0193 63.3088 40.4673 63.9259 35.1727 63.2206C35.2733 62.6811 35.3069 62.1943 35.3094 61.8205C36.3958 61.3326 37.1979 60.5961 37.7904 59.8147C44.7517 60.3824 50.3338 57.656 50.905 57.3658C52.3484 56.8138 55.5535 56.0741 56.4336 57.2751ZM20.1323 80.1427C18.7786 80.7792 11.2535 78.8982 6.6299 73.4267C3.47477 69.6929 2.68836 65.3896 4.29081 60.6373C4.29471 60.6244 4.29861 60.6116 4.30251 60.5987C4.32957 60.5071 7.16892 51.365 21.0673 53.8794C33.8487 56.19 45.6339 53.7018 48.9414 52.8832C49.5326 52.7367 50.0923 52.7206 50.6048 52.8365C50.9081 52.9048 51.2643 53.0257 51.5256 53.2421C51.6675 53.3596 51.7807 53.5045 51.8433 53.685C52.0705 54.3453 50.9699 55.3478 50.3218 55.747C49.9342 55.9421 44.9748 58.3624 38.7778 58.1117C39.2316 57.0678 39.3696 56.223 39.381 56.1432C39.4537 55.6654 39.1838 55.2066 38.7792 55.1215C38.3745 55.0365 37.9885 55.3543 37.9152 55.8331C37.9095 55.8678 37.3542 59.3278 34.3322 60.3492C33.975 60.4701 33.7474 60.8899 33.8008 61.3259C33.8035 61.3442 34.0146 63.2032 32.971 64.6858C32.0985 65.9254 30.5894 66.6029 28.4864 66.7009C28.1672 66.7158 27.8911 66.9712 27.8012 67.3339C27.7893 67.3811 26.5804 72.0118 21.0954 71.1957C20.8374 71.1575 20.5804 71.2824 20.4184 71.5226C20.3232 71.6645 18.0405 74.9808 14.3323 73.9369C13.933 73.8241 13.5315 74.116 13.4363 74.5898C13.3636 74.9507 13.4912 75.3136 13.7334 75.5142C13.8081 75.576 13.8937 75.6235 13.9885 75.6494C15.49 76.0724 16.7989 75.9207 17.891 75.5193C19.1371 76.4341 20.5169 77.0941 21.0734 77.3444C21.2246 77.6654 21.4746 78.3227 21.3308 78.9142C21.2102 79.4123 20.8063 79.825 20.1323 80.1427ZM29.942 76.2382C29.1382 76.9046 27.0137 77.7319 21.8051 75.7893C21.6925 75.7414 20.6729 75.3022 19.5744 74.6266C20.3949 74.0427 20.984 73.3945 21.3054 72.9938C22.1588 73.0894 22.9186 73.0591 23.6057 72.9511C23.6346 72.9837 23.6572 73.0229 23.6903 73.0504C23.7368 73.0888 23.7876 73.1221 23.843 73.1475C25.974 74.1487 29.0772 75.1011 30.5179 75.5205C30.4008 75.7496 30.221 76.0072 29.942 76.2382ZM40.7711 73.7903C38.7046 75.7724 33.7153 74.5391 32.0752 74.133C31.8887 74.0867 31.743 74.0509 31.6347 74.027C31.5559 74.0056 28.4879 73.1585 25.9131 72.1552C27.1406 71.4479 27.9464 70.444 28.4574 69.579C33.7789 70.8549 39.1367 71.2865 39.9889 71.3487C40.5682 71.6106 41.3442 72.1814 41.4158 72.6661C41.4564 72.9483 41.2214 73.3576 40.7711 73.7903ZM50.6122 67.0579C48.2799 68.5056 44.3731 69.4552 40.157 69.599C39.7367 69.5697 35.2292 69.2368 30.3495 68.2128C31.9993 67.8301 33.2731 67.0237 34.1332 65.7884C34.3314 65.5037 34.4894 65.2119 34.6274 64.9183C40.0243 65.6951 44.6292 65.1306 45.2166 65.0511C45.7284 65.0845 48.9021 65.2604 50.9066 64.7797C51.1172 64.7289 51.6212 64.6608 51.7529 65.1002C51.874 65.5075 51.6724 66.3991 50.6122 67.0579Z"/>
<path d="M18.6907 68.3245C19.1859 67.7345 19.3331 66.9514 19.3174 66.2263C20.705 66.5536 22.8999 66.7348 23.94 65.02C24.5191 64.0652 24.4557 63.2597 24.3 62.7522C24.2244 62.5039 24.1119 62.2806 23.9758 62.0802C25.408 61.8435 27.0636 61.3633 27.7822 60.3837C28.1054 59.9422 28.247 59.4191 28.1919 58.8691C27.9206 56.1868 22.2836 55.9407 18.9463 56.0329C18.535 56.0447 18.2097 56.4479 18.2195 56.9325C18.2295 57.4189 18.5704 57.8036 18.9803 57.792C22.7441 57.6875 26.4298 58.3078 26.7133 59.0776C26.7164 59.1079 26.7196 59.1442 26.6567 59.2296C26.0495 60.0587 23.3318 60.4973 21.595 60.5447C21.4921 60.5472 21.3959 60.5801 21.3071 60.6279C20.671 60.6685 19.8025 60.6673 18.8585 60.5012C18.4516 60.4304 18.0735 60.7621 18.0128 61.2425C17.9705 61.5833 18.0988 61.9074 18.3228 62.0928C18.4141 62.1684 18.5224 62.2215 18.6403 62.2416C19.8433 62.4526 20.9317 62.4269 21.6655 62.3633C22.1731 62.573 22.7841 62.9693 22.9007 63.3509C22.9183 63.4109 22.9744 63.5918 22.7309 63.9925C22.0013 65.1955 19.4375 64.5201 18.5967 64.1881C18.5279 64.1603 18.4568 64.1468 18.3866 64.1442C17.5714 63.8421 16.7971 63.4437 16.7863 63.4391C16.4096 63.2442 15.9707 63.4466 15.8067 63.8927C15.662 64.2832 15.7759 64.7298 16.0605 64.9654C16.1003 64.9984 16.143 65.0265 16.1895 65.0503C16.2351 65.0735 16.9465 65.4402 17.772 65.7583C17.8534 66.1867 17.8931 66.7795 17.634 67.0855C17.412 67.3476 16.3714 68.0504 12.2782 66.1161C11.8964 65.936 11.4637 66.1552 11.3114 66.6066C11.1808 66.9941 11.2981 67.4245 11.5752 67.654C11.6217 67.6924 11.6716 67.725 11.727 67.7504C15.3121 69.4468 17.5909 69.6347 18.6907 68.3245Z"/>
</mask>
<path d="M53.1537 64.5115C52.9557 63.8519 52.552 63.3832 52.0249 63.15C55.0844 61.8336 57.3033 60.0888 57.8601 58.3509C58.1223 57.5344 58.0135 56.741 57.554 56.1179C56.5881 54.8093 54.7246 54.7387 53.1346 54.9808C53.383 54.3838 53.4599 53.7194 53.2208 53.0228C52.9846 52.336 52.3878 51.4457 50.8822 51.107C50.1763 50.948 49.4199 50.9664 48.6358 51.1609C45.3899 51.9632 33.8256 54.4062 21.2926 52.1376C6.38007 49.4398 3.10892 59.3195 2.90274 59.9997C1.09195 65.3837 2.01634 70.4562 5.57665 74.6687C6.31584 75.5439 7.14216 76.345 8.01745 77.0697C12.71 80.955 18.8267 82.6481 20.6812 81.7756C21.8052 81.2471 22.5049 80.4477 22.7605 79.4021C22.8829 78.901 22.8842 78.4123 22.8248 77.9698C26.5003 79.1168 29.1771 79.0187 30.7957 77.676C31.4733 77.1142 31.8272 76.4497 32.0124 75.9114C35.1386 76.6665 39.4228 77.3451 41.7074 75.1532C42.6298 74.2678 43.0248 73.3273 42.88 72.3565C42.8146 71.9178 42.6411 71.5344 42.4131 71.2053C45.9855 70.8414 49.2063 69.9144 51.3028 68.6122C53.0899 67.507 53.5152 65.7114 53.1537 64.5115ZM56.4336 57.2751C56.5001 57.3653 56.5532 57.4677 56.4698 57.7276C55.928 59.4151 51.6769 62.2887 45.1019 63.2967C45.0193 63.3088 40.4673 63.9259 35.1727 63.2206C35.2733 62.6811 35.3069 62.1943 35.3094 61.8205C36.3958 61.3326 37.1979 60.5961 37.7904 59.8147C44.7517 60.3824 50.3338 57.656 50.905 57.3658C52.3484 56.8138 55.5535 56.0741 56.4336 57.2751ZM20.1323 80.1427C18.7786 80.7792 11.2535 78.8982 6.6299 73.4267C3.47477 69.6929 2.68836 65.3896 4.29081 60.6373C4.29471 60.6244 4.29861 60.6116 4.30251 60.5987C4.32957 60.5071 7.16892 51.365 21.0673 53.8794C33.8487 56.19 45.6339 53.7018 48.9414 52.8832C49.5326 52.7367 50.0923 52.7206 50.6048 52.8365C50.9081 52.9048 51.2643 53.0257 51.5256 53.2421C51.6675 53.3596 51.7807 53.5045 51.8433 53.685C52.0705 54.3453 50.9699 55.3478 50.3218 55.747C49.9342 55.9421 44.9748 58.3624 38.7778 58.1117C39.2316 57.0678 39.3696 56.223 39.381 56.1432C39.4537 55.6654 39.1838 55.2066 38.7792 55.1215C38.3745 55.0365 37.9885 55.3543 37.9152 55.8331C37.9095 55.8678 37.3542 59.3278 34.3322 60.3492C33.975 60.4701 33.7474 60.8899 33.8008 61.3259C33.8035 61.3442 34.0146 63.2032 32.971 64.6858C32.0985 65.9254 30.5894 66.6029 28.4864 66.7009C28.1672 66.7158 27.8911 66.9712 27.8012 67.3339C27.7893 67.3811 26.5804 72.0118 21.0954 71.1957C20.8374 71.1575 20.5804 71.2824 20.4184 71.5226C20.3232 71.6645 18.0405 74.9808 14.3323 73.9369C13.933 73.8241 13.5315 74.116 13.4363 74.5898C13.3636 74.9507 13.4912 75.3136 13.7334 75.5142C13.8081 75.576 13.8937 75.6235 13.9885 75.6494C15.49 76.0724 16.7989 75.9207 17.891 75.5193C19.1371 76.4341 20.5169 77.0941 21.0734 77.3444C21.2246 77.6654 21.4746 78.3227 21.3308 78.9142C21.2102 79.4123 20.8063 79.825 20.1323 80.1427ZM29.942 76.2382C29.1382 76.9046 27.0137 77.7319 21.8051 75.7893C21.6925 75.7414 20.6729 75.3022 19.5744 74.6266C20.3949 74.0427 20.984 73.3945 21.3054 72.9938C22.1588 73.0894 22.9186 73.0591 23.6057 72.9511C23.6346 72.9837 23.6572 73.0229 23.6903 73.0504C23.7368 73.0888 23.7876 73.1221 23.843 73.1475C25.974 74.1487 29.0772 75.1011 30.5179 75.5205C30.4008 75.7496 30.221 76.0072 29.942 76.2382ZM40.7711 73.7903C38.7046 75.7724 33.7153 74.5391 32.0752 74.133C31.8887 74.0867 31.743 74.0509 31.6347 74.027C31.5559 74.0056 28.4879 73.1585 25.9131 72.1552C27.1406 71.4479 27.9464 70.444 28.4574 69.579C33.7789 70.8549 39.1367 71.2865 39.9889 71.3487C40.5682 71.6106 41.3442 72.1814 41.4158 72.6661C41.4564 72.9483 41.2214 73.3576 40.7711 73.7903ZM50.6122 67.0579C48.2799 68.5056 44.3731 69.4552 40.157 69.599C39.7367 69.5697 35.2292 69.2368 30.3495 68.2128C31.9993 67.8301 33.2731 67.0237 34.1332 65.7884C34.3314 65.5037 34.4894 65.2119 34.6274 64.9183C40.0243 65.6951 44.6292 65.1306 45.2166 65.0511C45.7284 65.0845 48.9021 65.2604 50.9066 64.7797C51.1172 64.7289 51.6212 64.6608 51.7529 65.1002C51.874 65.5075 51.6724 66.3991 50.6122 67.0579Z" fill="#B6DCFA"/>
<path d="M18.6907 68.3245C19.1859 67.7345 19.3331 66.9514 19.3174 66.2263C20.705 66.5536 22.8999 66.7348 23.94 65.02C24.5191 64.0652 24.4557 63.2597 24.3 62.7522C24.2244 62.5039 24.1119 62.2806 23.9758 62.0802C25.408 61.8435 27.0636 61.3633 27.7822 60.3837C28.1054 59.9422 28.247 59.4191 28.1919 58.8691C27.9206 56.1868 22.2836 55.9407 18.9463 56.0329C18.535 56.0447 18.2097 56.4479 18.2195 56.9325C18.2295 57.4189 18.5704 57.8036 18.9803 57.792C22.7441 57.6875 26.4298 58.3078 26.7133 59.0776C26.7164 59.1079 26.7196 59.1442 26.6567 59.2296C26.0495 60.0587 23.3318 60.4973 21.595 60.5447C21.4921 60.5472 21.3959 60.5801 21.3071 60.6279C20.671 60.6685 19.8025 60.6673 18.8585 60.5012C18.4516 60.4304 18.0735 60.7621 18.0128 61.2425C17.9705 61.5833 18.0988 61.9074 18.3228 62.0928C18.4141 62.1684 18.5224 62.2215 18.6403 62.2416C19.8433 62.4526 20.9317 62.4269 21.6655 62.3633C22.1731 62.573 22.7841 62.9693 22.9007 63.3509C22.9183 63.4109 22.9744 63.5918 22.7309 63.9925C22.0013 65.1955 19.4375 64.5201 18.5967 64.1881C18.5279 64.1603 18.4568 64.1468 18.3866 64.1442C17.5714 63.8421 16.7971 63.4437 16.7863 63.4391C16.4096 63.2442 15.9707 63.4466 15.8067 63.8927C15.662 64.2832 15.7759 64.7298 16.0605 64.9654C16.1003 64.9984 16.143 65.0265 16.1895 65.0503C16.2351 65.0735 16.9465 65.4402 17.772 65.7583C17.8534 66.1867 17.8931 66.7795 17.634 67.0855C17.412 67.3476 16.3714 68.0504 12.2782 66.1161C11.8964 65.936 11.4637 66.1552 11.3114 66.6066C11.1808 66.9941 11.2981 67.4245 11.5752 67.654C11.6217 67.6924 11.6716 67.725 11.727 67.7504C15.3121 69.4468 17.5909 69.6347 18.6907 68.3245Z" fill="#B6DCFA"/>
<path d="M53.1537 64.5115C52.9557 63.8519 52.552 63.3832 52.0249 63.15C55.0844 61.8336 57.3033 60.0888 57.8601 58.3509C58.1223 57.5344 58.0135 56.741 57.554 56.1179C56.5881 54.8093 54.7246 54.7387 53.1346 54.9808C53.383 54.3838 53.4599 53.7194 53.2208 53.0228C52.9846 52.336 52.3878 51.4457 50.8822 51.107C50.1763 50.948 49.4199 50.9664 48.6358 51.1609C45.3899 51.9632 33.8256 54.4062 21.2926 52.1376C6.38007 49.4398 3.10892 59.3195 2.90274 59.9997C1.09195 65.3837 2.01634 70.4562 5.57665 74.6687C6.31584 75.5439 7.14216 76.345 8.01745 77.0697C12.71 80.955 18.8267 82.6481 20.6812 81.7756C21.8052 81.2471 22.5049 80.4477 22.7605 79.4021C22.8829 78.901 22.8842 78.4123 22.8248 77.9698C26.5003 79.1168 29.1771 79.0187 30.7957 77.676C31.4733 77.1142 31.8272 76.4497 32.0124 75.9114C35.1386 76.6665 39.4228 77.3451 41.7074 75.1532C42.6298 74.2678 43.0248 73.3273 42.88 72.3565C42.8146 71.9178 42.6411 71.5344 42.4131 71.2053C45.9855 70.8414 49.2063 69.9144 51.3028 68.6122C53.0899 67.507 53.5152 65.7114 53.1537 64.5115ZM56.4336 57.2751C56.5001 57.3653 56.5532 57.4677 56.4698 57.7276C55.928 59.4151 51.6769 62.2887 45.1019 63.2967C45.0193 63.3088 40.4673 63.9259 35.1727 63.2206C35.2733 62.6811 35.3069 62.1943 35.3094 61.8205C36.3958 61.3326 37.1979 60.5961 37.7904 59.8147C44.7517 60.3824 50.3338 57.656 50.905 57.3658C52.3484 56.8138 55.5535 56.0741 56.4336 57.2751ZM20.1323 80.1427C18.7786 80.7792 11.2535 78.8982 6.6299 73.4267C3.47477 69.6929 2.68836 65.3896 4.29081 60.6373C4.29471 60.6244 4.29861 60.6116 4.30251 60.5987C4.32957 60.5071 7.16892 51.365 21.0673 53.8794C33.8487 56.19 45.6339 53.7018 48.9414 52.8832C49.5326 52.7367 50.0923 52.7206 50.6048 52.8365C50.9081 52.9048 51.2643 53.0257 51.5256 53.2421C51.6675 53.3596 51.7807 53.5045 51.8433 53.685C52.0705 54.3453 50.9699 55.3478 50.3218 55.747C49.9342 55.9421 44.9748 58.3624 38.7778 58.1117C39.2316 57.0678 39.3696 56.223 39.381 56.1432C39.4537 55.6654 39.1838 55.2066 38.7792 55.1215C38.3745 55.0365 37.9885 55.3543 37.9152 55.8331C37.9095 55.8678 37.3542 59.3278 34.3322 60.3492C33.975 60.4701 33.7474 60.8899 33.8008 61.3259C33.8035 61.3442 34.0146 63.2032 32.971 64.6858C32.0985 65.9254 30.5894 66.6029 28.4864 66.7009C28.1672 66.7158 27.8911 66.9712 27.8012 67.3339C27.7893 67.3811 26.5804 72.0118 21.0954 71.1957C20.8374 71.1575 20.5804 71.2824 20.4184 71.5226C20.3232 71.6645 18.0405 74.9808 14.3323 73.9369C13.933 73.8241 13.5315 74.116 13.4363 74.5898C13.3636 74.9507 13.4912 75.3136 13.7334 75.5142C13.8081 75.576 13.8937 75.6235 13.9885 75.6494C15.49 76.0724 16.7989 75.9207 17.891 75.5193C19.1371 76.4341 20.5169 77.0941 21.0734 77.3444C21.2246 77.6654 21.4746 78.3227 21.3308 78.9142C21.2102 79.4123 20.8063 79.825 20.1323 80.1427ZM29.942 76.2382C29.1382 76.9046 27.0137 77.7319 21.8051 75.7893C21.6925 75.7414 20.6729 75.3022 19.5744 74.6266C20.3949 74.0427 20.984 73.3945 21.3054 72.9938C22.1588 73.0894 22.9186 73.0591 23.6057 72.9511C23.6346 72.9837 23.6572 73.0229 23.6903 73.0504C23.7368 73.0888 23.7876 73.1221 23.843 73.1475C25.974 74.1487 29.0772 75.1011 30.5179 75.5205C30.4008 75.7496 30.221 76.0072 29.942 76.2382ZM40.7711 73.7903C38.7046 75.7724 33.7153 74.5391 32.0752 74.133C31.8887 74.0867 31.743 74.0509 31.6347 74.027C31.5559 74.0056 28.4879 73.1585 25.9131 72.1552C27.1406 71.4479 27.9464 70.444 28.4574 69.579C33.7789 70.8549 39.1367 71.2865 39.9889 71.3487C40.5682 71.6106 41.3442 72.1814 41.4158 72.6661C41.4564 72.9483 41.2214 73.3576 40.7711 73.7903ZM50.6122 67.0579C48.2799 68.5056 44.3731 69.4552 40.157 69.599C39.7367 69.5697 35.2292 69.2368 30.3495 68.2128C31.9993 67.8301 33.2731 67.0237 34.1332 65.7884C34.3314 65.5037 34.4894 65.2119 34.6274 64.9183C40.0243 65.6951 44.6292 65.1306 45.2166 65.0511C45.7284 65.0845 48.9021 65.2604 50.9066 64.7797C51.1172 64.7289 51.6212 64.6608 51.7529 65.1002C51.874 65.5075 51.6724 66.3991 50.6122 67.0579Z" stroke="#2D4941" stroke-width="0.8" mask="url(#path-1-inside-1_90_1556)"/>
<path d="M18.6907 68.3245C19.1859 67.7345 19.3331 66.9514 19.3174 66.2263C20.705 66.5536 22.8999 66.7348 23.94 65.02C24.5191 64.0652 24.4557 63.2597 24.3 62.7522C24.2244 62.5039 24.1119 62.2806 23.9758 62.0802C25.408 61.8435 27.0636 61.3633 27.7822 60.3837C28.1054 59.9422 28.247 59.4191 28.1919 58.8691C27.9206 56.1868 22.2836 55.9407 18.9463 56.0329C18.535 56.0447 18.2097 56.4479 18.2195 56.9325C18.2295 57.4189 18.5704 57.8036 18.9803 57.792C22.7441 57.6875 26.4298 58.3078 26.7133 59.0776C26.7164 59.1079 26.7196 59.1442 26.6567 59.2296C26.0495 60.0587 23.3318 60.4973 21.595 60.5447C21.4921 60.5472 21.3959 60.5801 21.3071 60.6279C20.671 60.6685 19.8025 60.6673 18.8585 60.5012C18.4516 60.4304 18.0735 60.7621 18.0128 61.2425C17.9705 61.5833 18.0988 61.9074 18.3228 62.0928C18.4141 62.1684 18.5224 62.2215 18.6403 62.2416C19.8433 62.4526 20.9317 62.4269 21.6655 62.3633C22.1731 62.573 22.7841 62.9693 22.9007 63.3509C22.9183 63.4109 22.9744 63.5918 22.7309 63.9925C22.0013 65.1955 19.4375 64.5201 18.5967 64.1881C18.5279 64.1603 18.4568 64.1468 18.3866 64.1442C17.5714 63.8421 16.7971 63.4437 16.7863 63.4391C16.4096 63.2442 15.9707 63.4466 15.8067 63.8927C15.662 64.2832 15.7759 64.7298 16.0605 64.9654C16.1003 64.9984 16.143 65.0265 16.1895 65.0503C16.2351 65.0735 16.9465 65.4402 17.772 65.7583C17.8534 66.1867 17.8931 66.7795 17.634 67.0855C17.412 67.3476 16.3714 68.0504 12.2782 66.1161C11.8964 65.936 11.4637 66.1552 11.3114 66.6066C11.1808 66.9941 11.2981 67.4245 11.5752 67.654C11.6217 67.6924 11.6716 67.725 11.727 67.7504C15.3121 69.4468 17.5909 69.6347 18.6907 68.3245Z" stroke="#2D4941" stroke-width="0.8" mask="url(#path-1-inside-1_90_1556)"/>
<path d="M1.64645 39.6464C1.45118 39.8417 1.45118 40.1583 1.64645 40.3536L4.82843 43.5355C5.02369 43.7308 5.34027 43.7308 5.53553 43.5355C5.7308 43.3403 5.7308 43.0237 5.53553 42.8284L2.70711 40L5.53553 37.1716C5.7308 36.9763 5.7308 36.6597 5.53553 36.4645C5.34027 36.2692 5.02369 36.2692 4.82843 36.4645L1.64645 39.6464ZM58.1675 40.3536C58.3628 40.1583 58.3628 39.8417 58.1675 39.6464L54.9855 36.4645C54.7903 36.2692 54.4737 36.2692 54.2784 36.4645C54.0832 36.6597 54.0832 36.9763 54.2784 37.1716L57.1068 40L54.2784 42.8284C54.0832 43.0237 54.0832 43.3403 54.2784 43.5355C54.4737 43.7308 54.7903 43.7308 54.9855 43.5355L58.1675 40.3536ZM2 40.5H57.814V39.5H2V40.5Z" fill="#B6DCFA"/>
<!-- <path d="M5.805 20.948C6.60767 22.9833 8.14133 24.001 10.406 24.001C11.8393 24.001 13.0003 23.5567 13.889 22.668C14.7777 21.7507 15.222 20.5897 15.222 19.185C15.222 17.7803 14.7633 16.6337 13.846 15.745C12.9573 14.8277 11.782 14.369 10.32 14.369C8.62867 14.369 7.28133 15.014 6.278 16.304L2.279 15.358L3.827 0.909998H19.006V5.339H7.74L7.095 11.402C8.24167 10.456 9.74667 9.983 11.61 9.983C13.2727 9.983 14.749 10.3843 16.039 11.187C17.3577 11.961 18.3897 13.0503 19.135 14.455C19.8803 15.831 20.253 17.3933 20.253 19.142C20.253 20.8907 19.8373 22.4817 19.006 23.915C18.1747 25.3197 17.0137 26.4233 15.523 27.226C14.0323 28.0287 12.3553 28.43 10.492 28.43C8.28467 28.43 6.39267 27.957 4.816 27.011C3.268 26.0363 2.12133 24.732 1.376 23.098L5.805 20.948ZM27.515 20.948C28.3176 22.9833 29.8513 24.001 32.116 24.001C33.5493 24.001 34.7103 23.5567 35.599 22.668C36.4876 21.7507 36.932 20.5897 36.932 19.185C36.932 17.7803 36.4733 16.6337 35.556 15.745C34.6673 14.8277 33.492 14.369 32.03 14.369C30.3386 14.369 28.9913 15.014 27.988 16.304L23.989 15.358L25.537 0.909998H40.716V5.339H29.45L28.805 11.402C29.9516 10.456 31.4566 9.983 33.32 9.983C34.9826 9.983 36.459 10.3843 37.749 11.187C39.0676 11.961 40.0996 13.0503 40.845 14.455C41.5903 15.831 41.963 17.3933 41.963 19.142C41.963 20.8907 41.5473 22.4817 40.716 23.915C39.8846 25.3197 38.7236 26.4233 37.233 27.226C35.7423 28.0287 34.0653 28.43 32.202 28.43C29.9946 28.43 28.1026 27.957 26.526 27.011C24.978 26.0363 23.8313 24.732 23.086 23.098L27.515 20.948Z" fill="#F8F8F8"/> -->
<path d="M46.1355 28.1C45.6422 28.1 45.1989 27.9867 44.8055 27.76C44.4122 27.5333 44.1055 27.2267 43.8855 26.84C43.6722 26.4467 43.5655 26.0167 43.5655 25.55C43.5655 25.0833 43.6722 24.6567 43.8855 24.27C44.1055 23.8767 44.4122 23.5667 44.8055 23.34C45.1989 23.1067 45.6422 22.99 46.1355 22.99C46.7289 22.99 47.2355 23.1533 47.6555 23.48C48.0755 23.8 48.3589 24.2233 48.5055 24.75L47.4355 25.05C47.3489 24.75 47.1889 24.51 46.9555 24.33C46.7289 24.1433 46.4555 24.05 46.1355 24.05C45.7222 24.05 45.3855 24.1933 45.1255 24.48C44.8722 24.7667 44.7455 25.1233 44.7455 25.55C44.7455 25.9767 44.8722 26.3333 45.1255 26.62C45.3855 26.9067 45.7222 27.05 46.1355 27.05C46.4555 27.05 46.7289 26.96 46.9555 26.78C47.1822 26.6 47.3389 26.36 47.4255 26.06L48.4955 26.37C48.3422 26.89 48.0555 27.31 47.6355 27.63C47.2222 27.9433 46.7222 28.1 46.1355 28.1ZM49.8091 28V24.72L48.9591 23.67L49.8491 22.94L50.6091 23.9C50.7691 23.6133 50.9858 23.39 51.2591 23.23C51.5391 23.07 51.8625 22.99 52.2291 22.99C52.5758 22.99 52.8925 23.0633 53.1791 23.21C53.4725 23.3567 53.7025 23.5633 53.8691 23.83C54.0291 23.5633 54.2425 23.3567 54.5091 23.21C54.7825 23.0633 55.0991 22.99 55.4591 22.99C55.8325 22.99 56.1658 23.07 56.4591 23.23C56.7591 23.39 56.9925 23.6233 57.1591 23.93C57.3325 24.2367 57.4191 24.5967 57.4191 25.01V28H56.2491V25.07C56.2491 24.77 56.1525 24.5267 55.9591 24.34C55.7658 24.1467 55.5225 24.05 55.2291 24.05C54.9291 24.05 54.6825 24.1467 54.4891 24.34C54.3025 24.5267 54.2091 24.77 54.2091 25.07V28H53.0291V25.07C53.0291 24.77 52.9325 24.5267 52.7391 24.34C52.5458 24.1467 52.3025 24.05 52.0091 24.05C51.7158 24.05 51.4725 24.1467 51.2791 24.34C51.0858 24.5267 50.9891 24.77 50.9891 25.07V28H49.8091Z" fill="#F8F8F8"/>
</svg>
