<svg width="48" height="252" viewBox="0 0 48 252" fill="none" xmlns="http://www.w3.org/2000/svg">
<g id="type-plume-rp-externe 1" clip-path="url(#clip0_226_3322)">
<g id="Plume 9">
<path id="Vector" d="M41.1549 66.6383C39.7731 63.7383 41.2834 58.1286 43.1901 51.016C44.4863 46.2002 45.9538 40.7387 46.8322 34.9491C49.1353 19.7078 48.0855 1.53471 43.2223 0.0211685L43.1473 0H43.0723C33.0674 0.613885 23.3089 41.0351 16.8603 67.792C14.5465 77.3602 12.7255 84.9173 11.9007 86.0498C11.6436 86.3991 11.3651 86.759 11.0652 87.14C7.64808 91.4689 1.93864 98.7086 0.192603 134.758C-0.846451 156.139 2.38854 166.987 5.60211 172.47C4.84157 171.92 4.01675 171.465 3.11695 171.126C2.91342 171.052 2.67776 171.211 2.6242 171.401C2.55993 171.623 2.69919 171.814 2.90271 171.888C4.67017 172.544 6.23411 173.74 7.31601 175.275C7.42313 175.434 7.59452 175.476 7.74449 175.444C9.15846 176.99 10.3475 177.614 10.8831 177.826C10.8938 178.524 10.9152 179.233 10.9259 179.932C10.6474 179.297 10.2189 178.725 9.74761 178.196C9.05134 177.434 8.25866 176.757 7.391 176.196C5.63425 175.042 3.59899 174.343 1.49945 174.164C0.985283 174.121 0.985283 174.915 1.49945 174.957C3.36332 175.116 5.16292 175.73 6.73757 176.725C7.51954 177.212 8.23724 177.783 8.86924 178.44C9.12632 178.704 9.39412 179.001 9.64049 179.318C9.54409 179.255 9.4691 179.17 9.3727 179.106C8.25866 178.397 6.8554 178.207 5.58069 178.524C5.07723 178.651 5.29146 179.413 5.79492 179.286C7.71235 178.821 9.65121 179.805 10.4439 181.52C10.0261 181.181 9.58693 180.853 9.1049 180.62C8.55859 180.355 7.96944 180.207 7.35886 180.26C6.6733 180.313 6.0413 180.546 5.4093 180.789C4.93797 180.969 5.1415 181.742 5.62353 181.551C6.63045 181.16 7.66951 180.81 8.70856 181.308C9.14775 181.52 9.54409 181.805 9.919 182.112C10.2511 182.377 10.7117 182.673 10.8402 183.107C10.8724 183.213 10.9259 183.277 11.0009 183.319C11.1509 188.918 11.3865 194.686 11.7293 200.804C12.1364 206.996 12.447 212.785 12.7577 218.384C13.5075 232.25 14.0966 243.204 15.6284 250.148L15.6499 250.254L15.7248 250.328C16.7532 251.45 17.728 252 18.8634 252C19.6133 252 20.4274 251.767 21.3593 251.301C22.302 250.836 22.0342 247.29 20.3845 230.969C19.3455 220.734 17.9636 207.059 16.946 191.797C18.0386 191.067 19.5918 191.321 20.3524 192.4C20.4809 192.58 20.7059 192.654 20.8987 192.538C21.0701 192.432 21.1665 192.167 21.0379 191.998C20.5238 191.289 19.7525 190.76 18.8741 190.622C18.5421 190.569 18.21 190.59 17.8887 190.622C18.4885 190.379 19.2705 190.029 20.181 189.564C20.2988 189.638 20.4595 189.638 20.6095 189.574C21.9377 189.024 23.566 189.415 24.53 190.432C24.8835 190.802 25.4512 190.241 25.0978 189.871C24.2837 189.013 23.1375 188.569 21.9806 188.548C22.0984 188.473 22.227 188.399 22.3555 188.325C22.4733 188.431 22.634 188.484 22.8161 188.389C23.6516 187.934 24.6371 187.881 25.5262 188.219C25.7298 188.294 25.9654 188.135 26.019 187.944C26.0833 187.722 25.944 187.531 25.7405 187.457C25.1942 187.256 24.6157 187.172 24.0373 187.224C29.0076 183.753 35.3169 177.487 39.1946 166.649C43.2544 153.366 44.4649 130.377 45.9967 101.281C46.2537 96.4329 46.5215 91.4266 46.8001 86.2509C46.0074 75.4232 44.3685 72.7878 42.9223 70.4698C42.2582 69.4114 41.6369 68.4165 41.1227 66.6277L41.1549 66.6383ZM21.0165 250.592C19.0348 251.577 17.8137 251.386 16.3997 249.883C14.9 243.003 14.3109 232.112 13.561 218.353C13.2611 212.754 12.9398 206.964 12.5327 200.772C12.0828 192.559 11.8043 184.97 11.6865 177.561C11.1616 145.755 12.8862 98.1582 31.2357 35.5948C23.4803 65.9504 15.9498 106.805 14.9107 142.358C14.4608 159.134 15.1036 176.164 16.1319 191.575C16.1319 191.596 16.1319 191.628 16.1319 191.649C17.1495 207.006 18.5421 220.755 19.5918 231.054C20.6523 241.553 21.4986 249.841 21.0058 250.603L21.0165 250.592ZM45.2254 101.238C43.6936 130.281 42.4832 153.217 38.4555 166.395C32.189 183.933 19.474 189.246 16.8603 190.167C15.8855 175.127 15.2857 158.626 15.7248 142.369C17.1602 93.3635 30.9464 34.2823 40.6193 6.61515C40.8014 6.09652 40.9942 5.56731 41.1763 5.04868L40.4158 4.78407C40.2337 5.29212 40.0516 5.81074 39.8587 6.35054C12.8112 83.0333 10.3153 140.294 10.8831 176.937C8.5693 175.677 -0.632213 168.512 0.995995 134.801C2.73132 99.0049 8.34435 91.8817 11.6972 87.6269C12.0078 87.2352 12.297 86.8754 12.5541 86.5155C13.4754 85.256 15.1357 78.3868 17.6423 67.9719C23.6409 43.1308 33.6673 1.58763 43.0509 0.804402C46.95 2.20152 48.4283 18.9669 46.0288 34.8327C45.1611 40.5694 43.7043 46.0097 42.4082 50.8043C40.4586 58.0757 38.9161 63.8123 40.3943 66.9029C40.9192 68.734 41.5727 69.7713 42.2582 70.8826C43.6508 73.1265 45.2361 75.6667 46.0181 86.2509C45.7289 91.3737 45.4611 96.38 45.2147 101.228L45.2254 101.238Z" fill="#1D1D1B"/>
</g>
</g>
<defs>
<clipPath id="clip0_226_3322">
<rect width="48" height="252" fill="white"/>
</clipPath>
</defs>
</svg>
