<svg width="56" height="50" viewBox="0 0 56 50" fill="none" xmlns="http://www.w3.org/2000/svg">
<path d="M3.7182 43.17L1.3182 38.81V44.5H0.558203V37.5H1.5282L4.0582 42.25L6.6182 37.5H7.5082V44.5H6.7382V38.81L4.3482 43.17H3.7182ZM11.0982 44.6C9.8282 44.6 9.0082 43.87 9.0082 42.44V41.68C9.0082 40.25 9.8282 39.52 11.0982 39.52C12.3682 39.52 13.1982 40.25 13.1982 41.68V42.44C13.1982 43.87 12.3682 44.6 11.0982 44.6ZM11.0982 40.2C10.2082 40.2 9.8082 40.79 9.8082 41.68V42.43C9.8082 43.34 10.2082 43.92 11.0982 43.92C11.9882 43.92 12.3982 43.34 12.3982 42.43V41.68C12.3982 40.79 11.9882 40.2 11.0982 40.2ZM15.3991 41.72V44.5H14.6091V39.62H15.3991V40.54C15.7091 39.86 16.2791 39.52 16.9791 39.52C18.0391 39.52 18.6191 40.08 18.6191 41.26V44.5H17.8391V41.42C17.8391 40.61 17.5091 40.2 16.7191 40.2C15.9891 40.2 15.3991 40.76 15.3991 41.72ZM25.0827 44.6C24.3427 44.6 23.8327 44.26 23.5827 43.71V46.5H22.7927V39.62H23.5827V40.44C23.8427 39.83 24.3827 39.52 25.0827 39.52C26.1927 39.52 26.9827 40.25 26.9827 41.69V42.44C26.9827 43.87 26.1927 44.6 25.0827 44.6ZM24.9027 43.92C25.7827 43.92 26.1927 43.34 26.1927 42.43V41.7C26.1927 40.79 25.7827 40.2 24.8927 40.2C24.0827 40.2 23.5827 40.72 23.5827 41.74V42.45C23.5827 43.36 24.0927 43.92 24.9027 43.92ZM29.1579 43.28C29.1579 43.74 29.2979 43.87 29.6979 43.87H29.8479V44.55H29.6679C28.7479 44.55 28.3679 44.28 28.3679 43.29V37.2H29.1579V43.28ZM33.9591 44.5V43.52C33.6791 44.26 33.1291 44.6 32.4091 44.6C31.3591 44.6 30.7991 44.05 30.7991 42.89V39.62H31.5791V42.73C31.5791 43.54 31.9091 43.95 32.6691 43.95C33.3791 43.95 33.9591 43.39 33.9591 42.43V39.62H34.7491V44.5H33.9591ZM37.1764 41.72V44.5H36.3864V39.62H37.1764V40.55C37.4764 39.86 38.0464 39.52 38.7364 39.52C39.5164 39.52 40.0164 39.86 40.1964 40.56C40.5164 39.87 41.1164 39.52 41.8564 39.52C42.8664 39.52 43.4164 40.08 43.4164 41.26V44.5H42.6264V41.42C42.6264 40.61 42.3264 40.2 41.5964 40.2C40.8764 40.2 40.2964 40.76 40.2964 41.72V44.5H39.5064V41.42C39.5064 40.61 39.2064 40.2 38.4764 40.2C37.7564 40.2 37.1764 40.76 37.1764 41.72ZM45.3897 38.67C45.0797 38.67 44.8397 38.45 44.8397 38.16C44.8397 37.87 45.0797 37.65 45.3897 37.65C45.7197 37.65 45.9497 37.87 45.9497 38.16C45.9497 38.45 45.7197 38.67 45.3897 38.67ZM44.9997 44.5V39.62H45.7897V44.5H44.9997ZM51.2513 43.04C51.1413 44.05 50.3913 44.6 49.2813 44.6C48.0413 44.6 47.2113 43.87 47.2113 42.44V41.68C47.2113 40.25 48.0313 39.52 49.2913 39.52C50.5013 39.52 51.2813 40.26 51.2813 41.7V42.15H48.0213C48.0213 42.31 48.0313 42.47 48.0413 42.62C48.0813 43.44 48.4813 43.94 49.3213 43.94C49.4013 43.94 49.4713 43.94 49.5413 43.93C50.1113 43.86 50.4313 43.55 50.5013 43.04H51.2513ZM48.0213 41.58L48.0813 41.65H50.5413C50.5013 40.63 50.1313 40.17 49.2913 40.17C48.4313 40.17 48.0313 40.72 48.0213 41.58ZM53.4655 41.77V44.5H52.6755V39.62H53.4655V40.48C53.7755 39.83 54.2955 39.52 54.9455 39.52H55.1855V40.28H54.9255C54.0655 40.28 53.4655 40.79 53.4655 41.77Z" fill="#F8F8F8"/>
<path d="M17.3091 26.0828L17.3091 26.083C17.3099 26.4851 17.47 26.8705 17.7543 27.1548C18.0386 27.4391 18.424 27.5992 18.8261 27.6H18.8263H34.5763C34.6803 27.6 34.7801 27.5587 34.8536 27.4851C34.9272 27.4116 34.9685 27.3118 34.9685 27.2078V25.4844H34.9825C35.0865 25.4844 35.1862 25.4431 35.2598 25.3695C35.3334 25.296 35.3747 25.1962 35.3747 25.0922V5.29221C35.3747 5.18819 35.3334 5.08843 35.2598 5.01487C35.1862 4.94132 35.0865 4.9 34.9825 4.9H18.5604C18.2285 4.9 17.9102 5.03183 17.6756 5.2665C17.4409 5.50116 17.3091 5.81943 17.3091 6.1513L17.3091 26.0828ZM18.6917 24.7C18.4836 24.7003 18.2792 24.748 18.0935 24.8385V6.1513C18.0935 6.02747 18.1427 5.90872 18.2303 5.82116C18.3178 5.7336 18.4366 5.68442 18.5604 5.68442H18.9367V24.7H18.6919H18.6917ZM33.3308 26.8156H18.8263C18.6319 26.8156 18.4456 26.7384 18.3081 26.601C18.1707 26.4635 18.0935 26.2771 18.0935 26.0828C18.0935 25.9241 18.1565 25.7719 18.2688 25.6597C18.381 25.5475 18.5332 25.4844 18.6919 25.4844H33.3308V25.7578H27.9081C27.8041 25.7578 27.7043 25.7991 27.6308 25.8727C27.5572 25.9462 27.5159 26.046 27.5159 26.15C27.5159 26.254 27.5572 26.3538 27.6308 26.4273C27.7043 26.5009 27.8041 26.5422 27.9081 26.5422H33.3308V26.8156ZM34.5903 24.7H19.7211V5.68442H34.5903V24.7ZM34.1841 26.8156H34.1123V25.4844H34.1841V26.8156Z" fill="#F8F8F8" stroke="#F8F8F8" stroke-width="0.2"/>
<path d="M24.2589 15.0036C24.3363 14.9908 24.4069 15.0238 24.4324 15.0844L29.4044 13.7164C29.3908 13.9506 29.0199 19.4079 26.317 20.8515C26.3671 21.9484 26.455 22.6867 26.4665 22.7833C26.4672 22.7896 26.4677 22.7932 26.4677 22.7939C26.4767 22.8647 26.4253 22.9351 26.3484 22.9631C26.338 22.9669 26.3272 22.9694 26.3164 22.972C26.2227 22.9907 26.139 22.9401 26.1283 22.8601C26.1283 22.8592 26.1274 22.8512 26.1257 22.8364C26.1097 22.6958 26.0241 21.9438 25.9747 20.8503C25.2148 20.4378 23.2918 18.984 24.104 15.1397C24.1183 15.073 24.1814 15.0164 24.2589 15.0036ZM29.5042 13.723C29.4969 13.8487 29.3996 15.2766 28.9656 16.8569C28.7481 17.6488 28.4452 18.4824 28.0244 19.2106C27.615 19.9189 27.0908 20.5333 26.4198 20.9092C26.4698 21.9605 26.5532 22.6656 26.5658 22.7714C26.5663 22.7757 26.5666 22.779 26.5669 22.7813L26.5669 22.7813C26.5833 22.91 26.4914 23.0175 26.3826 23.0571C26.3665 23.0629 26.3507 23.0667 26.3407 23.069L26.3392 23.0693L26.3393 23.0694L26.336 23.07C26.2019 23.0968 26.0495 23.0258 26.0292 22.8734L26.0285 22.8735L26.0284 22.866L26.0278 22.8604L26.0245 22.8318C26.0217 22.8068 26.0176 22.7701 26.0125 22.7226C26.0023 22.6277 25.9881 22.4895 25.9723 22.3138C25.9417 21.9732 25.9046 21.4917 25.8774 20.9107C25.4793 20.6856 24.8275 20.209 24.3614 19.3287C23.8746 18.4093 23.596 17.0603 24.0062 15.119L24.0062 15.1188C24.0303 15.006 24.1309 14.9234 24.2426 14.905C24.3203 14.8921 24.404 14.9105 24.4635 14.9617C24.4772 14.1394 24.7178 13.0028 25.5263 11.556L25.5263 11.5559C25.576 11.4673 25.6753 11.41 25.7785 11.4076C25.8445 11.4061 25.9108 11.4271 25.9598 11.4701C26.2018 10.7108 26.7711 9.59296 28.1024 8.34395C28.3805 8.08244 28.7803 7.96989 29.1464 8.05012L29.1464 8.05012L29.1467 8.05018C29.5136 8.13154 29.7762 8.39404 29.814 8.74429L29.814 8.74453C29.8869 9.43343 29.9319 10.375 29.8135 11.3456C29.7253 12.0688 29.5458 12.8122 29.2164 13.48C29.2318 13.478 29.2472 13.4771 29.2626 13.4775C29.3913 13.4807 29.5147 13.5769 29.5042 13.723ZM29.2758 8.82713C29.2615 8.68588 29.1612 8.57436 28.9853 8.53417C28.8072 8.49437 28.6176 8.54717 28.4787 8.67786L28.4786 8.67797C26.3055 10.717 26.3266 12.3804 26.3271 12.4191C26.3271 12.4197 26.3271 12.4199 26.3271 12.4197L26.3271 12.4207C26.3335 12.5539 26.2281 12.6594 26.1092 12.6889C25.9893 12.7187 25.8469 12.6718 25.8001 12.5432L25.7171 12.3153C24.4769 14.8778 25.214 16.1731 25.2708 16.2661C25.2816 16.2813 25.2904 16.2978 25.2968 16.3156C25.3487 16.458 25.2492 16.5931 25.1237 16.6388C25.0301 16.6728 24.9249 16.6594 24.8512 16.5993C24.7364 16.5115 24.6257 16.3732 24.5265 16.2249C24.4832 16.1601 24.4411 16.092 24.401 16.0232C24.2505 17.3282 24.4597 18.2797 24.7915 18.965C25.0987 19.5995 25.5138 20.0114 25.8565 20.2662C25.841 19.6963 25.8375 19.0598 25.8567 18.3858L25.8567 18.3856C25.9254 16.0812 26.2891 12.8286 27.653 10.4817C27.7216 10.3637 27.8758 10.3076 28.0042 10.3539C28.0716 10.3782 28.1234 10.428 28.1469 10.4927C28.1705 10.5573 28.1628 10.6288 28.1268 10.6907L28.1267 10.6908C26.8191 12.9348 26.4625 16.0939 26.3954 18.3605L26.3954 18.3605C26.3741 19.077 26.3797 19.7504 26.3985 20.3461C27.2651 19.7357 27.8512 18.5949 28.242 17.4131C28.6114 16.2959 28.8002 15.1611 28.8909 14.4508C28.5786 14.6499 28.2521 14.7734 28.1906 14.7957C28.0851 14.8342 27.95 14.8145 27.8784 14.7124C27.8017 14.606 27.8391 14.4741 27.9238 14.3961L27.9242 14.3958C28.6856 13.7018 29.065 12.6883 29.2326 11.6521C29.4001 10.617 29.3542 9.57129 29.2758 8.82752L29.2758 8.82752L29.2758 8.82713Z" fill="#F8F8F8" stroke="#F8F8F8" stroke-width="0.2"/>
</svg>
