<svg width="30" height="100" viewBox="0 0 30 100" fill="none" xmlns="http://www.w3.org/2000/svg">
<path d="M18.3306 1.29578C17.4138 0.373541 16.5729 -0.0623122 15.8331 0.0071717C10.7811 0.480926 0.942789 16.1211 0.0449436 40.2573C-0.492499 54.7226 3.89556 63.8945 7.56914 68.9858C7.52488 68.9668 7.49326 68.9352 7.449 68.9163C6.43102 68.4552 5.3182 68.6004 4.24964 68.771C3.94614 68.8152 4.07892 69.2763 4.3761 69.2258C5.30556 69.0805 6.32354 68.9289 7.21506 69.3269C7.82837 69.5985 8.30259 70.0912 8.61241 70.6786C7.80941 70.2681 6.90524 70.0659 5.99475 70.1101C5.69125 70.1228 5.69125 70.5965 5.99475 70.5839C7.24667 70.5207 8.49227 70.9566 9.42173 71.7967C9.1625 71.8662 8.89694 71.9862 8.66299 72.0746C7.96748 72.3463 7.24035 72.5547 6.5069 72.7C6.20972 72.7568 6.33618 73.218 6.63336 73.1548C7.27829 73.0285 7.91057 72.8516 8.52389 72.6305C8.83371 72.5168 9.13088 72.3715 9.43438 72.2641C9.69362 72.1757 9.95285 72.1441 10.1489 72.3778C10.1805 72.4157 10.2121 72.4347 10.25 72.441C10.1868 72.4536 10.1236 72.4536 10.0667 72.4726C9.59877 72.5863 9.14353 72.7821 8.7199 73.0221C7.85999 73.5148 7.14551 74.216 6.5069 74.9614C6.31089 75.1888 6.646 75.5299 6.84201 75.2962C7.37313 74.6771 7.95483 74.0834 8.64402 73.6285C8.98546 73.4011 9.34586 73.2116 9.72523 73.0727C9.91492 73.0032 10.1046 72.9463 10.3006 72.9084C10.4018 72.8895 10.5029 72.8705 10.6041 72.8579C10.6547 72.8516 10.7053 72.8453 10.7622 72.839C10.876 72.8263 10.8633 72.8516 10.8254 72.7947C10.8507 72.8263 10.8823 72.8516 10.9266 72.8642C11.0846 73.0158 11.2364 73.1548 11.3755 73.2811C11.1479 73.3317 10.9202 73.4517 10.7306 73.5464C10.2563 73.7738 9.80111 74.0518 9.3838 74.3676C8.54918 75.0056 7.84102 75.8078 7.32887 76.7237C7.17712 76.989 7.58811 77.2291 7.73985 76.9638C8.17613 76.1931 8.73887 75.5109 9.41541 74.9424C9.7442 74.6645 10.0983 74.4245 10.4776 74.2097C10.6673 74.1023 10.8633 74.0012 11.0657 73.9128C11.1668 73.8686 11.268 73.8244 11.3755 73.7802C11.3945 73.7738 11.4893 73.7422 11.5462 73.7233C10.7685 74.355 10.1742 75.1761 9.84536 76.13C9.7442 76.4205 10.2058 76.5406 10.3006 76.2563C10.6168 75.3404 11.2174 74.5255 11.9951 73.9507C12.0267 73.9254 12.052 73.9002 12.071 73.8686C12.1279 73.9128 12.1785 73.9507 12.2164 73.9823C12.3872 88.8897 13.0131 98.7249 13.2597 99.1671C13.5442 99.6724 14.0374 99.9819 14.5812 100.001C14.5938 100.001 14.6065 100.001 14.6191 100.001C15.1629 100.001 15.6561 99.704 15.9849 99.1797C16.1935 98.8449 16.1176 96.3245 15.8584 88.3907C15.7383 84.8028 15.5928 80.3495 15.4601 75.2014C15.4917 75.2204 15.5296 75.233 15.5675 75.233C16.0797 75.2835 16.5097 75.6689 16.7689 76.0921C17.0977 76.629 17.2115 77.2733 17.3253 77.8797C17.3822 78.1766 17.8375 78.0503 17.7805 77.7534C17.6478 77.0585 17.5087 76.3384 17.1103 75.7447C16.9206 75.4604 16.674 75.2267 16.3958 75.0498C17.3253 74.8477 18.4255 74.7466 19.14 75.492C19.3486 75.7131 19.6837 75.3783 19.4751 75.1572C19.1147 74.7782 18.6784 74.5824 18.2105 74.5003C19.0894 74.1276 20.1706 74.2918 20.8724 74.9424C21.0937 75.1509 21.4352 74.8161 21.2075 74.6076C20.727 74.1655 20.1137 73.9065 19.4751 73.8433C19.943 73.6349 20.4867 73.6665 20.9167 73.9507C21.0242 74.0202 21.1759 73.9697 21.2391 73.8686C21.3087 73.7549 21.2644 73.6159 21.1569 73.5464C20.7776 73.3001 20.3097 73.199 19.8671 73.2495C19.924 73.2053 19.9746 73.1674 20.0315 73.1232C20.4109 72.8137 20.8092 72.4536 21.2075 72.0241C21.2518 72.0431 21.3087 72.0557 21.3593 72.0367C21.8588 71.8725 22.352 71.7841 22.8704 71.7651C22.9969 71.7651 23.1107 71.6577 23.1107 71.5251C23.1107 71.3988 23.0095 71.285 22.8704 71.285C22.6238 71.2914 22.3836 71.323 22.1433 71.3608C22.5543 71.1398 22.9906 70.9818 23.4585 70.8871C23.5849 70.8618 23.6545 70.7102 23.6229 70.5965C23.5849 70.4639 23.4585 70.407 23.332 70.4323C22.9653 70.5081 22.6049 70.6281 22.2634 70.7797C24.8432 67.3876 27.4924 61.1909 28.6495 49.884C30.9827 26.8153 23.3004 6.29863 18.3306 1.29578ZM10.446 72.4031C10.446 72.4031 10.4524 72.4094 10.4587 72.4157C10.446 72.4157 10.4334 72.4157 10.4207 72.4157C10.4271 72.4157 10.4397 72.4031 10.446 72.3968V72.4031ZM15.5739 98.927C15.3273 99.3187 14.9542 99.5082 14.5875 99.5271C14.2145 99.5208 13.873 99.2997 13.677 98.946C13.1649 97.411 10.9961 53.1561 15.2008 9.0464C13.892 43.0051 14.8847 73.2875 15.3842 88.4034C15.5802 94.2906 15.7193 98.5417 15.5802 98.927H15.5739ZM28.15 49.8398C25.7537 73.2685 16.8953 74.5129 15.4284 74.5571C14.9542 56.3902 14.6128 29.7652 16.0101 1.21367L15.5359 1.17577C12.5515 27.4786 12.0015 54.4194 12.2038 73.3822C11.9572 73.1801 11.6031 72.8769 11.1732 72.4663C11.1732 72.4663 11.1732 72.4663 11.1668 72.46C9.92756 71.2787 8.04967 69.2195 6.22237 66.1243C3.36444 61.2794 0.0512665 52.8655 0.519158 40.2763C1.46759 14.8767 11.7169 0.866246 15.8774 0.480926C16.4527 0.430392 17.1925 0.822029 17.9955 1.63057C20.7333 4.38466 23.8062 11.3141 25.8295 19.2795C27.5999 26.2531 29.4399 37.219 28.15 49.8398Z" fill="#021120"/>
<path d="M6.81329 21.0635C6.2095 22.2162 5.79482 23.5181 5.40357 24.7545C5.28265 25.1366 5.07024 25.6524 5.07024 26.0705C5.07024 26.162 5.13735 25.9 5.16746 25.8135C5.38817 25.1795 5.62532 24.5516 5.86538 23.9246C6.29802 22.7947 6.6965 21.6215 7.25079 20.5427C7.29887 20.4491 7.8724 19.4562 7.65357 20.0496C6.79429 22.3799 3.65397 29.1391 4.76468 26.9177C5.15725 26.1325 5.39321 25.2076 5.69524 24.3864C6.18344 23.0591 6.67582 21.7403 7.26121 20.4524C7.28329 20.4038 7.60042 19.6488 7.54246 20.1052C7.36005 21.5417 6.71598 22.9642 6.2126 24.3066C5.87379 25.2101 5.51111 26.1096 5.29593 27.0531C5.27813 27.1312 5.23856 27.362 5.27857 27.2927C5.53929 26.8408 5.70729 26.2101 5.88274 25.7406C6.49831 24.0932 7.11222 22.4453 7.72302 20.7962C7.75933 20.6981 7.86665 20.4105 7.8619 20.5149C7.83874 21.0246 7.58111 21.649 7.43135 22.1087C6.98864 23.4673 6.4681 24.7975 5.97996 26.1399C5.86568 26.4542 5.74427 26.771 5.67093 27.0982C5.64552 27.2116 5.53574 27.4974 5.63968 27.4455C5.67217 27.4292 5.68054 27.3849 5.69524 27.3517C5.80853 27.0958 6.00328 26.5375 6.07024 26.3482C6.42372 25.3489 6.76049 24.3438 7.08413 23.3343C7.34274 22.5277 7.58644 21.7164 7.84802 20.9107C7.90013 20.7502 7.9921 20.3179 8.12579 20.1538C8.18474 20.0815 8.17356 20.3392 8.16052 20.4316C8.06045 21.1404 7.80011 21.8436 7.57024 22.5149C6.92242 24.4068 6.11358 26.2621 5.57024 28.1885C5.45176 28.6086 5.35305 29.4313 5.72302 28.508C6.56091 26.4168 7.17086 24.2208 7.78552 22.0566C7.94275 21.503 8.15759 20.7219 8.31329 20.1468C8.35556 19.9908 8.39691 19.8344 8.43829 19.6781C8.46474 19.5782 8.43564 19.3222 8.52163 19.3795C8.54185 19.393 8.52595 19.4285 8.52163 19.4524C8.44817 19.8593 8.30538 20.3872 8.20218 20.751C7.7881 22.2106 7.31107 23.6514 6.84454 25.0948C6.32016 26.7171 5.6766 28.3875 5.4869 30.0948C5.3555 31.2774 6.0267 29.464 6.06677 29.3413C7.11369 26.1359 7.87263 22.8215 8.63274 19.5392C8.80111 18.8122 8.94941 18.0756 9.14663 17.3552C9.15532 17.3234 9.23896 16.9034 9.28204 17.1955C9.38978 17.9257 9.28714 18.7812 9.20913 19.4941C9.01007 21.3131 8.67215 23.108 8.21607 24.8795C7.69882 26.8886 6.89838 28.8569 6.61538 30.9212C6.44768 32.1444 6.94263 30.6473 7.03552 30.3691C8.14813 27.0368 8.88006 23.6121 9.64663 20.1885C9.89299 19.0883 10.1212 17.9786 10.4175 16.8899C10.4807 16.6576 10.5494 16.3252 10.6744 16.1052C10.8057 15.8741 10.6569 16.6378 10.6154 16.9003C10.4112 18.1893 10.129 19.4664 9.83413 20.7371C9.16216 23.6329 8.30225 26.4843 7.66052 29.3864C7.51932 30.025 7.2822 31.8663 7.68135 31.3482C8.10004 30.8048 8.27435 29.8361 8.44524 29.2163C8.89698 27.5779 9.26892 25.9186 9.6119 24.2545C10.1059 21.8579 10.423 19.3778 11.1397 17.0323C11.1703 16.932 11.2717 16.6604 11.2994 16.7614C11.4599 17.346 11.3249 18.2231 11.2716 18.7996C10.961 22.1619 9.9861 25.4466 9.39663 28.7649C9.27115 29.4712 9.17211 30.1826 9.10496 30.8968C9.08949 31.0614 9.01712 31.4121 9.10496 31.5843C9.20468 31.78 9.33582 31.2016 9.38274 30.9871C9.72292 29.432 9.98107 27.8502 10.23 26.2788C10.7331 23.1022 10.952 19.8793 11.5355 16.7163C11.6206 16.255 11.7142 15.7803 11.8654 15.3343C11.9514 15.0805 11.9781 15.1907 11.973 15.4246C11.8901 19.2697 9.40076 30.5836 10.2577 26.8343C11.3542 22.0375 10.5529 16.8686 12.3341 12.2163C12.5291 11.7071 12.7623 11.2225 13.0216 10.7441C13.0601 10.6731 13.1784 10.3738 13.2682 10.3239C13.419 10.2401 13.225 10.6674 13.1813 10.8343C13.0002 11.5279 12.7931 12.2159 12.5807 12.9003C12.0197 14.7071 10.1794 20.0718 10.8862 18.317C11.6315 16.4665 12.1282 14.5157 12.7022 12.6087C12.9834 11.6743 13.1959 10.4728 13.7716 9.65032C13.7956 9.61607 13.8422 9.5322 13.8654 9.56699C13.9312 9.66569 13.7841 10.2052 13.7786 10.2302C13.4276 11.8285 12.9373 13.4088 12.4175 14.9593C12.2762 15.3807 11.887 16.6558 12.0147 16.2302C12.4044 14.9313 12.8695 13.6521 13.3272 12.376C13.6938 11.3539 14.004 10.1925 14.6327 9.28574C14.732 9.14258 14.7526 9.19847 14.723 9.35865C14.6262 9.88301 14.4277 10.4017 14.2577 10.9038C13.5978 12.8537 11.5623 18.6844 12.23 16.7371C13.1682 14.0007 13.8394 11.2064 15.0459 8.56699C15.2493 8.12212 15.761 6.7663 15.6952 7.25102C15.6099 7.88018 15.3357 8.53639 15.1397 9.13296C14.8804 9.92222 14.6067 10.7061 14.2959 11.4767C14.0254 12.1475 13.7223 12.8035 13.4661 13.4802C13.4468 13.5311 13.2551 14.1448 13.3411 13.7649C13.7217 12.0839 14.2803 10.4314 14.7647 8.77879C15.0464 7.81757 15.2975 6.83715 15.6258 5.8899C15.6393 5.85097 15.775 5.40079 15.7369 5.5531C15.5829 6.16924 15.3576 6.76055 15.157 7.36213C15.0269 7.75258 14.9199 8.14562 14.8133 8.54268C14.7934 8.61669 14.7487 8.90285 14.664 8.95935C14.5176 9.05694 14.6461 8.60619 14.6675 8.43157C14.7619 7.66163 14.9252 6.90031 15.0911 6.14338C15.3321 5.04326 16.0507 1.74189 15.8063 2.84129C15.696 3.33786 15.4913 3.81893 15.3202 4.29615C15.1702 4.71475 15.0793 5.23166 14.855 5.61907C14.8173 5.6842 14.8452 5.09077 14.855 5.03574C14.9903 4.27064 15.2609 3.52067 15.4869 2.77879C15.591 2.4372 15.6883 2.1076 15.6883 1.75102C15.6883 1.55442 15.7401 1.38055 15.7508 1.18852C15.7582 1.05489 15.9821 0.577189 15.6744 0.862127C14.7254 1.74081 13.9171 2.92643 13.3133 4.06699C12.9308 4.78956 12.4996 5.48512 12.1466 6.22324C10.92 8.78807 10.0027 11.4798 9.07024 14.1607C8.36639 16.1843 7.43681 18.1246 6.79246 20.1677C6.6049 20.7624 6.70024 20.2044 6.75774 19.9385C7.17555 18.0061 7.86418 16.098 8.64663 14.2857C8.98394 13.5045 9.38381 12.7621 9.7751 12.008C9.92317 11.7226 10.0629 11.4331 10.2091 11.1468C10.2161 11.1332 10.3525 10.8417 10.2786 11.0913C9.31211 14.3531 7.38854 17.2652 6.32718 20.4871C6.13742 21.0632 5.69446 22.8277 5.81677 22.2337C6.16537 20.5404 6.70307 18.8732 7.22302 17.2267C7.44734 16.5163 7.81653 15.7711 7.92788 15.0288C7.93514 14.9804 7.93631 14.8414 7.91052 14.883C7.6775 15.2588 7.49044 15.7091 7.30288 16.1017C6.48892 17.8057 5.80427 19.5519 5.28552 21.3691C5.09282 22.0441 4.91422 22.7339 4.80288 23.4281C4.78717 23.526 4.77018 23.6242 4.76468 23.7232C4.76317 23.7504 4.7641 23.8236 4.78204 23.8031C4.82748 23.7512 4.84111 23.6779 4.8619 23.6121C5.44401 21.7701 5.85684 19.8517 6.27163 17.9663C6.39074 17.4249 6.8011 15.8154 6.62579 16.3413C5.81726 18.7669 4.87251 21.1555 4.13968 23.6052C4.02367 23.993 3.72695 25.1698 3.85496 24.7857C4.3178 23.3972 4.68297 21.9569 5.05635 20.5427C5.28278 19.685 5.53018 18.8009 5.61885 17.9142C5.62408 17.8619 5.63698 17.7227 5.59802 17.758C5.47092 17.873 5.37374 18.2204 5.32371 18.3482C4.6574 20.051 3.97179 21.7677 3.47649 23.5288C3.02882 25.1205 4.49563 20.3743 4.80982 18.751C4.86952 18.4426 4.85075 18.8442 4.83065 18.9385C4.64366 19.8159 4.31671 20.6841 4.03899 21.5357C3.84764 22.1226 3.65728 22.7056 3.51468 23.3066C3.48209 23.4439 3.36967 23.8789 3.49385 23.4593C3.72308 22.6849 4.01256 21.9298 4.2369 21.1538C4.33911 20.8003 4.63732 19.7737 4.41052 20.0635C4.21654 20.3114 4.12398 20.7741 4.0251 21.06C3.80143 21.7069 3.58247 22.3568 3.38274 23.0114C3.2974 23.2911 3.25079 23.6688 3.25079 23.2093C3.25079 21.606 4.11195 20.2334 4.45218 18.7024C4.67433 17.7028 5.03132 16.5667 5.50427 15.6503C5.96984 14.7483 6.34722 13.7666 6.88274 12.9038C7.3614 12.1326 7.83695 11.3683 8.34107 10.6121C9.30147 9.17153 10.2171 7.70096 11.223 6.29268C12.1631 4.97663 12.9668 3.59752 14.1223 2.44199C14.5238 2.04054 14.9286 1.47222 15.4383 1.2024C15.7234 1.05148 15.5163 0.621745 15.1883 0.785738C14.9944 0.88268 14.821 1.13719 14.6536 1.28227C14.3747 1.52393 14.094 1.7393 13.8376 2.00796C13.1134 2.7666 12.4106 3.49967 11.9244 4.43852C11.6698 4.9301 11.296 5.40406 10.9661 5.84824C10.5467 6.41283 10.2286 7.03653 9.83413 7.61907C9.29643 8.41321 8.9314 9.29952 8.5251 10.1642C7.93597 11.418 7.28718 12.6224 6.80982 13.9281C6.35564 15.1704 6.10325 16.4025 5.96954 17.7128C5.95956 17.8107 5.91906 18.0944 5.96607 18.008C6.228 17.5264 6.39883 16.9141 6.60843 16.4177C7.39432 14.5564 8.33146 12.8028 9.31677 11.0427C9.68622 10.3827 10.0459 9.71836 10.4244 9.06352C10.4682 8.9877 10.592 8.75602 10.5529 8.83435C10.3512 9.23762 10.1452 9.63881 9.93135 10.0357C9.04109 11.6878 8.07325 13.2961 7.15357 14.9316C6.86116 15.4516 6.56632 15.9745 6.32718 16.5218C6.26034 16.6748 6.0593 17.1149 6.18135 17.001C6.33113 16.8612 6.40424 16.657 6.50774 16.4802C7.23422 15.239 7.93433 13.9819 8.63621 12.7267C9.75628 10.7237 10.8713 8.71781 11.9626 6.69893C12.0058 6.61896 12.1421 6.38333 12.105 6.46629C11.9256 6.86637 11.6939 7.25681 11.48 7.63643C10.4199 9.51721 9.31501 11.3859 8.07371 13.1538C7.84274 13.4828 7.18589 14.4933 7.38968 14.1468C8.15819 12.8404 8.78584 11.4485 9.54246 10.133C9.86335 9.57504 10.2016 9.02862 10.5598 8.49407C10.6675 8.33346 10.7033 8.02185 10.8966 8.02185C11.0742 8.02185 10.741 8.34152 10.6501 8.49407C10.3461 9.00433 10.0259 9.50566 9.70913 10.008C9.30862 10.643 8.90402 11.2749 8.48343 11.8968C8.44734 11.9502 8.11197 12.5531 7.97996 12.6191C7.9545 12.6318 8.00456 12.5677 8.01815 12.5427C8.09447 12.4023 8.40822 11.8484 8.42788 11.8135C8.86532 11.0364 9.29984 10.2576 9.7369 9.48018C10.0928 8.84722 10.9896 6.88893 10.8341 7.59824C10.7512 7.9764 10.5491 8.36405 10.3932 8.70935C9.96029 9.66784 9.4982 10.6129 9.06329 11.5705C8.70504 12.3593 8.27873 13.3182 7.95218 14.126C7.90377 14.2458 7.29162 15.4917 7.44177 15.7753C7.46198 15.8135 7.53687 15.8201 7.57024 15.7927C7.92984 15.4967 8.46989 14.561 8.6119 14.3135C9.43296 12.8827 10.1304 11.3852 10.8307 9.89338C11.03 9.46862 11.2446 8.98344 11.0077 9.73713C10.6814 10.7756 10.3247 11.8067 9.96607 12.8343C9.2972 14.751 8.45845 16.6194 7.88274 18.567C7.83753 18.7199 7.79298 18.8733 7.75774 19.0288C7.73267 19.1394 7.64746 19.3956 7.75774 19.3691C8.07954 19.2916 8.58216 18.0191 8.62579 17.9246C9.74057 15.5107 10.336 12.9279 10.8966 10.3413C10.9436 10.1248 11.0771 9.47403 11.0216 9.68852C10.8462 10.367 10.6874 11.0471 10.5008 11.7232C9.75362 14.4299 8.76478 17.0818 8.08065 19.8031C7.96088 20.2795 7.94334 21.2486 8.47302 20.3066C9.11741 19.1606 9.5083 17.8133 9.87927 16.567C10.4407 14.6805 10.8835 12.767 11.2855 10.8413C11.4379 10.1112 11.5644 9.37465 11.7438 8.65032C11.7718 8.5375 11.7974 8.42378 11.8341 8.31352C11.8429 8.28732 11.8734 8.21709 11.8793 8.24407C11.8955 8.31879 11.8794 8.3975 11.8688 8.47324C11.4709 11.3319 10.5801 14.137 9.83413 16.9177C9.62904 17.6822 9.40048 18.4585 9.28552 19.2441C9.26971 19.3521 9.24943 19.4616 9.25774 19.5705C9.27189 19.756 9.42009 19.5829 9.44524 19.5427C10.0201 18.6239 10.368 17.4046 10.7161 16.4073C11.393 14.4677 11.9696 12.5019 12.5147 10.5218C12.8871 9.16882 13.2359 7.8091 13.6327 6.46282C13.6769 6.31288 13.7183 6.16184 13.7716 6.0149C13.8128 5.90157 13.8588 5.86416 13.8619 6.02879C13.8763 6.79362 13.6975 7.60313 13.5425 8.34129C13.2327 9.81555 12.827 11.2685 12.3897 12.7093C11.9023 14.3152 11.3024 15.8935 10.8793 17.5184C10.8598 17.5931 10.8409 17.6681 10.8272 17.7441C10.8202 17.7828 10.8709 17.6774 10.8827 17.6399C11.1259 16.8714 11.3164 16.0825 11.5182 15.3031C12.1572 12.834 12.7487 10.3457 13.5112 7.91074C13.5614 7.75031 13.5919 7.30079 13.6883 7.43852C13.7921 7.58687 13.567 8.31982 13.5529 8.37602C13.1429 10.0068 12.5192 11.5928 11.8758 13.1434C11.7598 13.4229 11.6382 13.6999 11.5425 13.9871C11.432 14.3184 11.7527 13.321 11.855 12.9871C12.5977 10.5622 13.2107 8.11177 13.7751 5.6399C13.8767 5.19491 14.1422 3.85786 14.1154 4.31352C14.058 5.28852 13.675 6.28615 13.3411 7.18852C13.0304 8.02785 12.6833 8.85574 12.2994 9.66421C12.2776 9.71003 12.0639 10.26 11.9522 10.3205C11.9332 10.3308 11.9336 10.2795 11.9348 10.258C11.9496 10.0009 12.0661 9.48399 12.105 9.31004C12.3391 8.26089 12.6348 7.22908 12.9522 6.2024C13.1978 5.40802 13.4592 4.61822 13.7161 3.8274C13.7802 3.63 13.8359 3.41391 13.9383 3.23018C14.1654 2.82276 13.9534 4.10726 13.9522 4.11213C13.6327 5.34948 13.0245 6.58171 12.4036 7.69546C12.3687 7.75805 12.2627 7.94466 12.2925 7.87949C12.5049 7.41485 12.7104 6.94721 12.9175 6.48018C13.2875 5.64575 13.6545 4.80968 14.0355 3.98018C14.2344 3.54717 14.4269 3.05344 14.7091 2.66074C14.7451 2.61069 14.8217 2.50989 14.8619 2.55657C14.98 2.69359 14.7992 3.32497 14.782 3.40032C14.5751 4.30703 14.2183 5.18416 13.8029 6.0149C13.2434 7.13389 14.4929 3.60877 14.8966 2.42463C15.7129 0.030206 13.6008 7.31534 12.9557 9.76143C12.8493 10.1647 12.7379 10.5712 12.6536 10.9802C12.6472 11.0111 12.6397 11.0423 12.6397 11.0739C12.6397 11.1384 12.69 10.955 12.7091 10.8934C13.1211 9.56371 13.4559 8.2118 13.8341 6.87254C13.9593 6.42944 14.0527 6.1055 14.1987 5.68157C14.2583 5.50869 14.3091 5.03965 14.4244 5.18157C14.4947 5.26804 14.4114 5.83305 14.4105 5.84129C14.3225 6.64971 14.1566 7.45063 13.9522 8.23713C13.7437 9.03923 13.3242 9.79849 13.1397 10.5982C12.9117 11.5862 13.768 8.66927 14.1327 7.72324C14.307 7.27118 14.4738 6.75816 14.7473 6.35171C14.9086 6.11203 14.8772 6.548 14.8758 6.59129C14.8329 7.90572 14.385 9.20071 13.9591 10.4316C13.7704 10.9771 13.8163 10.9053 13.9036 10.3899C13.9601 10.0563 14.0409 9.70296 14.0077 9.36213C13.9807 9.08396 13.8927 9.15867 13.7508 9.00102" stroke="#021120" stroke-linecap="round"/>
<path d="M5.87581 17.8135C5.8824 17.7684 6.06022 15.7788 6.36192 15.7788C6.55295 15.7788 6.21551 16.1334 6.11539 16.2961C5.89962 16.6468 5.69813 17.001 5.50081 17.3621C5.41604 17.5172 5.31998 17.6666 5.25428 17.8308C5.18616 18.0011 5.31155 17.4669 5.36886 17.2927C5.48386 16.9431 5.59634 16.481 5.80289 16.1711C5.92609 15.9863 5.72003 16.6124 5.62581 16.8135C5.48736 17.109 5.35519 17.3996 5.26122 17.7128C5.19402 17.9368 5.34933 17.2525 5.41747 17.0288C5.59561 16.4439 5.81815 15.8745 6.02511 15.2996C6.11359 15.0538 6.23609 14.7937 6.25081 14.5288C6.25131 14.5197 5.8666 15.2123 5.77858 15.3968C5.77538 15.4035 5.56014 15.8827 5.57372 15.7197C5.59939 15.4117 5.70807 15.0814 5.81331 14.7927C5.95837 14.3947 6.15587 14.0172 6.30289 13.619C6.30604 13.6105 6.52684 13.0305 6.43831 13.3274C6.31162 13.7522 6.1287 14.2252 5.93831 14.626C5.7643 14.9923 5.79612 14.893 5.9522 14.5496C6.28076 13.8268 6.64829 13.1155 7.00081 12.4038C7.14771 12.1072 7.29647 11.818 7.3897 11.501C7.40953 11.4335 7.45719 11.3232 7.52858 11.2927C7.58916 11.2667 7.36834 11.7052 7.36192 11.7163C6.99655 12.3452 6.59097 12.9387 6.27858 13.5982C6.18953 13.7862 6.23782 13.6422 6.25428 13.494C6.33016 12.8112 6.81234 12.1263 7.16053 11.5565C7.45518 11.0744 7.66352 10.5504 7.94178 10.0635C8.20722 9.59896 8.61679 9.20057 8.84456 8.71974C9.01154 8.36722 9.22498 7.94576 9.4522 7.62599C9.77597 7.1703 9.97326 6.6408 10.3411 6.20932C10.7726 5.7031 11.0518 5.09557 11.5147 4.6121C12.2252 3.87005 12.7908 2.91088 13.5946 2.28571C14.0361 1.94231 13.3698 2.56952 13.2508 2.68849C12.8731 3.06622 12.464 3.43112 12.1605 3.87251C11.8898 4.26626 11.5983 4.65704 11.3098 5.03571C10.8337 5.66058 10.4705 6.34932 10.0321 6.99751C9.47719 7.81776 8.98839 8.76341 8.28206 9.46974C8.22972 9.52208 7.98711 9.81354 8.09803 9.56001C8.21168 9.30024 8.37177 9.07626 8.53206 8.84474C8.76399 8.50972 8.94221 8.10646 9.1397 7.75099C9.75394 6.64534 10.5822 5.57936 11.348 4.59474C11.6904 4.15458 12.0057 3.72236 12.348 3.28224C12.4716 3.1234 12.6075 2.85271 12.7855 2.75099C12.88 2.69699 13.4867 2.27478 13.1258 2.56349" stroke="#021120" stroke-linecap="round"/>
<path d="M10.9383 23.626C10.9666 22.9829 11.1529 21.0726 10.9904 21.6955C10.6587 22.9667 10.1788 24.2202 9.76468 25.4663C9.59201 25.9858 9.38974 26.4986 9.25079 27.0288C9.23975 27.0709 9.06166 27.8152 9.18829 27.4628C9.94294 25.3629 10.5065 23.1987 11.1952 21.0774C11.3109 20.7213 11.4008 20.3505 11.5355 20.001C11.5591 19.9397 11.5982 19.8586 11.5841 19.9941C11.5296 20.5194 11.3917 21.0538 11.282 21.567C10.7233 24.181 10.0065 26.7877 9.77857 29.4594C9.50258 32.6946 11.0157 23.0812 11.4661 19.8656C11.5175 19.4986 11.4791 18.87 11.6258 18.4941C11.8431 17.9371 11.6133 19.6921 11.5425 20.2857C11.1997 23.1561 10.4238 25.9886 10.2022 28.8691C10.1607 29.4085 10.2426 29.0515 10.3411 28.6191C10.832 26.4632 11.2557 24.292 11.6813 22.1225C11.9507 20.7498 12.2116 19.3756 12.4522 17.9975C12.5669 17.3405 12.6311 16.6655 12.7786 16.0149C12.8168 15.8464 12.9383 15.3491 12.9383 15.5219C12.9383 16.251 12.6788 17.0468 12.539 17.751C12.2236 19.3394 11.9133 20.9289 11.5529 22.508C11.3648 23.3318 11.0889 24.1632 10.9661 25.001C10.6319 27.2811 11.9417 20.496 12.3619 18.2302C12.7166 16.3179 13.1071 14.4491 13.598 12.5705C13.6601 12.3329 14.0088 11.1526 13.8341 12.0635C13.2958 14.8706 11.6625 23.2883 12.1952 20.4802C12.6251 18.2145 13.237 15.9906 13.8341 13.7649C14.053 12.9492 14.3352 12.1302 14.3758 11.2788C14.3935 10.9064 14.1329 11.9861 14.0598 12.3517C13.6116 14.5928 13.0608 16.8063 12.5286 19.0288C12.4192 19.4853 12.3234 19.9426 12.2369 20.4038C12.2254 20.465 12.1681 21.1061 12.098 21.1295C12.0351 21.1505 12.1065 20.9967 12.1188 20.9316C12.2379 20.3043 12.3826 19.6811 12.5147 19.0566C12.8534 17.4544 13.1692 15.8477 13.4834 14.2406C13.596 13.6651 13.6916 13.0851 13.8133 12.5114C13.8393 12.3887 13.8697 11.9431 13.9869 11.8552C14.1328 11.7458 13.9452 12.2178 13.9105 12.3969C13.6919 13.5262 13.5071 14.6588 13.3341 15.7962C12.9808 18.119 12.5403 20.4333 12.2508 22.7649C12.2292 22.9388 12.1679 23.4518 12.1397 23.2788C12.1253 23.1906 12.1373 22.8722 12.1397 22.8344C12.1947 21.9437 12.329 21.0568 12.4557 20.1746C12.7999 17.7774 13.239 15.3936 13.5633 12.9941C13.6293 12.5057 13.7438 12.1242 13.7438 12.9038C13.7438 15.1384 13.2627 17.3928 12.8411 19.5774C12.7413 20.0946 12.6653 20.6156 12.5668 21.133C12.5393 21.277 12.4762 21.653 12.5147 21.2649C12.7929 18.4617 13.4072 15.7159 13.7994 12.9316C14.1314 10.5742 13.2271 17.6589 13.0008 20.0288C12.9656 20.397 12.9243 20.7647 12.8897 21.133C12.8864 21.1675 12.881 21.2707 12.8897 21.2371C12.9379 21.0501 12.9552 20.8429 12.9834 20.6538C13.2603 18.7974 13.5437 16.9256 13.723 15.0566C13.7822 14.4397 13.8133 13.8218 13.8133 13.2024C13.8133 13.1165 13.8131 12.8937 13.8758 12.9524C13.9544 13.0261 13.9213 13.1642 13.9244 13.2719C13.9415 13.8692 13.9009 14.4679 13.8237 15.06C13.6032 16.7504 13.2638 18.4448 12.9383 20.1191C12.872 20.4601 12.8094 20.8023 12.7647 21.1469C12.7391 21.3442 12.7942 20.7494 12.8272 20.5531C13.1162 18.8353 13.4614 17.1327 13.6883 15.4038C13.7363 15.0377 13.8133 13.9338 13.8133 14.3031C13.8133 16.673 13.4006 19.0648 13.0008 21.3969C12.8736 22.1387 12.7112 22.9059 12.6883 23.6607C12.6681 24.3274 12.7007 22.3258 12.7508 21.6607C12.8614 20.1923 13.0662 18.7389 13.2126 17.2753C13.214 17.2618 13.2508 16.6536 13.2508 16.7719C13.2508 17.2024 13.2542 17.633 13.2508 18.0635C13.2381 19.6853 13.0004 21.2566 12.7855 22.8587C12.7175 23.3657 12.6876 23.8994 12.5633 24.3969C12.5189 24.5743 12.5621 24.0311 12.5633 23.8482C12.568 23.1261 12.6522 22.41 12.723 21.692C12.8396 20.5094 12.999 19.3574 13.2369 18.1955C13.2852 17.9597 13.3758 17.2465 13.3758 17.4871C13.3758 18.6591 13.3743 19.8307 13.2473 20.9975C13.1353 22.0265 12.8603 23.05 12.8133 24.0844C12.8116 24.1214 12.8223 23.7484 12.8272 23.6955C12.9117 22.7723 13.0886 21.8502 13.2126 20.9316C13.3578 19.8564 13.5511 18.8024 13.5633 17.7163C13.5636 17.6934 13.6115 17.3503 13.6223 17.4316C13.6671 17.7673 13.6275 18.1446 13.6119 18.4802C13.5354 20.126 13.2834 21.7516 13.098 23.3864C12.975 24.4708 12.9346 25.5621 12.8133 26.6469C12.7914 26.8429 12.7183 27.9968 12.6918 27.1885C12.6438 25.7262 12.9027 24.266 13.1293 22.8274C13.221 22.2448 13.3258 21.6631 13.3966 21.0774C13.4217 20.8701 13.4422 20.2436 13.4383 20.4524C13.4078 22.0992 13.1328 23.7813 12.907 25.4107C12.7442 26.5863 12.5941 27.7758 12.5008 28.9594C12.4627 29.4428 12.4227 29.9269 12.3897 30.4107C12.3872 30.4465 12.3758 31.1101 12.3758 30.751C12.3758 28.6086 12.5781 26.4844 12.7091 24.3482C12.7689 23.3743 12.7508 20.4454 12.7508 21.4212C12.7508 24.4054 11.9322 27.3861 11.3966 30.2996C11.2662 31.0091 11.1294 31.7282 11.0668 32.4489C11.0655 32.4635 11.1782 31.3375 11.1952 31.2094C11.5978 28.1866 12.2508 25.1346 12.2508 22.0739C12.2508 21.9583 12.2626 21.7238 12.2438 22.0566C12.1612 23.5233 11.9612 24.9869 11.7438 26.4385C11.3707 28.931 10.7151 31.4307 10.5668 33.9524C10.5515 34.2116 10.6414 33.4386 10.6779 33.1816C10.9537 31.2403 11.2016 29.3019 11.3758 27.3482C11.4776 26.2065 11.5956 25.0576 11.6258 23.9107C11.6375 23.4652 11.5934 23.7521 11.5494 24.06C11.1061 27.1635 10.8616 30.3099 10.5772 33.4316C10.5195 34.0646 10.4383 34.711 10.4383 35.3482C10.4383 35.8544 10.7608 34.3859 10.8619 33.8899C11.2763 31.8575 11.5812 29.8052 11.9105 27.758C11.9887 27.2718 12.0659 26.7854 12.1466 26.2996C12.1812 26.0916 12.1974 25.7672 12.3098 25.5705C12.4486 25.3277 12.3754 26.1277 12.3688 26.4073C12.3347 27.8592 12.1891 29.2979 12.0008 30.7371C11.8844 31.6263 11.6004 34.3017 11.7022 33.4107C11.9932 30.8644 12.5161 28.3144 12.973 25.7927C13.0182 25.5431 13.1846 24.0725 13.1119 25.1816C12.9683 27.3722 12.5827 29.538 12.3897 31.7232C12.3433 32.2489 12.314 32.7756 12.2508 33.2996C12.2327 33.4496 12.1697 34.1776 12.1952 33.5253C12.2746 31.5017 12.6442 29.5219 12.9244 27.5219C12.9837 27.0985 13.0416 26.6716 13.0598 26.2441C13.0778 25.8221 13.0651 26.2457 13.0633 26.3969C13.0367 28.5947 12.6535 30.807 12.355 32.9802C12.2824 33.5087 12.2126 34.0364 12.157 34.567C12.132 34.8068 12.1185 34.931 12.098 35.1712C12.0843 35.3319 12.1354 35.7981 12.0633 35.6538C11.9915 35.5101 12.0618 35.0355 12.0633 34.9038C12.0789 33.5548 12.2179 32.2222 12.4001 30.8864C12.4888 30.2363 12.5873 29.588 12.6536 28.935C12.6636 28.8366 12.6149 28.7099 12.6848 28.6399C12.7012 28.6235 12.6883 28.6862 12.6883 28.7094C12.6883 28.8956 12.6767 29.5441 12.6744 29.633C12.6156 31.8617 12.3547 34.0734 12.1605 36.2927C12.135 36.5847 12.1258 36.8747 12.1258 37.1677C12.1258 37.6509 12.125 36.9944 12.1258 36.9107C12.1449 34.8597 12.4246 32.8352 12.5563 30.7927C12.5695 30.5894 12.5225 30.3091 12.6119 30.1191C12.7327 29.8625 12.6269 30.6862 12.6223 30.9698C12.5895 33.024 12.3036 35.0566 12.2022 37.1052C12.1856 37.4406 12.1883 37.7764 12.1883 38.1121C12.1883 38.2753 12.1883 38.7404 12.1883 38.2337C12.1883 36.157 12.8112 29.9531 12.7473 32.0288C12.6628 34.777 12.0633 37.4876 12.0633 40.2371C12.0633 41.6719 12.156 37.3674 12.2855 35.9385C12.3365 35.3761 12.492 33.6933 12.5008 34.258C12.5213 35.5682 12.3971 36.8846 12.282 38.1885C12.2018 39.0985 12.0823 41.8371 12.1258 40.9246C12.2015 39.3342 12.3701 37.7484 12.5286 36.1642C12.5371 36.0794 12.5633 35.8255 12.5633 35.9107C12.5633 36.4645 12.5364 37.0179 12.5008 37.5705C12.4234 38.7697 12.2859 39.9615 12.2543 41.1642C12.2495 41.3447 12.2508 41.5253 12.2508 41.7059C12.2508 41.9061 12.2508 41.3054 12.2508 41.1052C12.2508 40.1552 12.3181 37.3096 12.3723 38.258C12.4483 39.588 12.2563 40.9347 12.1605 42.258C12.1525 42.3688 12.1853 43.1464 12.0633 43.2684C11.9721 43.3596 12.0338 43.0118 12.0286 42.883C11.9758 41.5856 11.9686 40.2853 11.98 38.9871C12.0001 36.6787 12.2594 34.3367 12.0911 32.0288C12.0764 31.828 12.087 31.5039 12.0008 31.31C11.9873 31.2796 11.9712 31.3709 11.9661 31.4038C11.8904 31.8901 11.8744 32.3943 11.8341 32.883C11.6144 35.5487 11.3044 38.2073 10.98 40.8621C10.9564 41.0553 10.9548 41.0603 10.9418 41.2163C10.9356 41.2906 10.9383 41.3103 10.9383 41.1503C10.9383 39.339 10.9383 37.5276 10.9383 35.7163C10.9383 33.3077 10.9383 30.8992 10.9383 28.4906C10.9383 28.0262 10.9141 29.4191 10.8932 29.883C10.7906 32.1551 10.5182 34.4096 10.2577 36.6677C10.0984 38.0495 9.94666 39.4335 9.88621 40.8239C9.87359 41.1143 9.85668 41.6758 9.88968 41.0427C10.1099 36.8191 10.1883 32.598 10.1883 28.3691C10.1883 27.7919 10.2664 27.1021 10.1536 26.5219C10.0763 26.1243 9.94695 27.3075 9.89663 27.7094C9.63511 29.7976 9.35614 31.8832 9.05635 33.9663C8.8344 35.5085 8.53022 37.0621 8.4244 38.6191C8.41982 38.6865 8.43523 38.8867 8.44871 38.8205C8.61533 38.0012 8.58915 37.0643 8.6119 36.2441C8.69206 33.3555 8.70261 30.4632 8.65704 27.5739C8.64928 27.082 8.61288 25.6065 8.62927 26.0982C8.67866 27.5801 8.68679 29.0545 8.59107 30.5357C8.41505 33.2595 7.87579 35.9866 7.87579 38.7198C7.87579 39.1712 7.97287 37.8221 8.01468 37.3725C8.21575 35.2111 8.3575 33.0477 8.51468 30.883C8.52389 30.7562 8.61272 29.5922 8.64663 29.3413C8.65359 29.2898 8.66293 29.1487 8.69177 29.192C8.90929 29.5183 8.78883 29.9707 8.81329 30.3621C8.96603 32.8059 8.94136 35.2561 8.87579 37.7024C8.85137 38.6136 8.80431 39.5267 8.81329 40.4385C8.81442 40.5528 8.78103 40.8659 8.85496 40.7788C9.06888 40.5267 9.10094 39.4924 9.12579 39.2788C9.32813 37.5399 9.39637 35.7918 9.43135 34.0427C9.45053 33.0837 9.45009 32.5071 9.47302 31.5705C9.48504 31.079 9.44981 30.4573 9.5494 29.9594C9.66796 29.3666 9.60529 31.1674 9.6119 31.7719C9.63262 33.6643 9.55918 35.5525 9.40357 37.4385C9.31957 38.4566 9.18094 39.4763 9.13968 40.4975C9.13652 40.5759 9.1501 40.8047 9.1744 40.7302C9.38832 40.0742 9.41565 39.2391 9.4869 38.5705C9.71922 36.3903 9.85475 34.2007 10.0216 32.0149C10.029 31.9189 10.1323 30.5338 10.1744 30.2232C10.2479 29.6819 10.1907 31.3166 10.1605 31.8621C10.045 33.9461 9.83493 36.023 9.48343 38.0809C9.39207 38.6158 9.30667 39.0666 9.18135 39.5809C8.99976 40.326 9.06348 39.2182 9.06329 39.1885C9.03683 35.0778 9.15453 30.9317 8.66052 26.8413C8.65774 26.8183 8.44605 25.5369 8.43829 25.7371C8.36952 27.5114 8.27571 29.284 8.11885 31.0531C7.98025 32.6162 7.75777 34.1681 7.58065 35.7267C7.50923 36.3552 7.43829 38.2516 7.43829 37.6191C7.43829 33.9851 7.54426 30.3505 7.56677 26.7163C7.57171 25.9181 7.58765 25.1213 7.62232 24.3239C7.66174 23.4173 7.49111 26.1348 7.38274 27.0357C7.1759 28.7554 6.87179 30.4626 6.6119 32.1746C6.39505 33.6032 6.22328 35.0425 5.97649 36.4663C5.89813 36.9183 5.88274 36.6107 5.88274 36.2545C5.88274 33.7763 5.96952 31.297 6.0494 28.8205C6.09359 27.4508 6.15289 23.3439 6.21607 24.7128C6.34615 27.5312 5.67074 30.366 5.27857 33.1399C5.26895 33.2079 5.12234 34.4235 5.13621 33.6538C5.17274 31.6264 5.36552 29.5882 5.5494 27.5705C5.6399 26.5774 5.75999 25.5884 5.87579 24.5982C5.90923 24.3123 5.96372 24.0088 5.93482 23.7198C5.93042 23.6758 5.62234 24.6607 5.62232 24.6607C5.35706 25.6295 5.16315 26.6144 4.93135 27.5913C4.82233 28.0507 4.69265 28.5007 4.55635 28.9524C4.5371 29.0162 4.51375 29.2009 4.4869 29.1399C4.39824 28.9384 4.47453 28.3964 4.48343 28.2302C4.57448 26.5306 4.98032 24.8392 5.00079 23.1399C5.00564 22.7375 4.92065 22.7902 4.8376 23.1607C4.64037 24.0407 4.44476 24.9246 4.1744 25.7857C4.15356 25.8521 4.06329 26.1149 4.06329 25.8691C4.06329 25.258 4.16163 24.6469 4.18135 24.0357C4.19336 23.6633 4.18829 23.2903 4.18829 22.9177C4.18829 22.8694 4.20053 22.717 4.12232 22.8344C3.99117 23.0311 3.96446 23.3182 3.9001 23.5392C3.77404 23.9722 3.61599 24.3951 3.4869 24.8274C3.43139 25.0133 3.33086 25.5762 3.31329 25.383C3.26903 24.896 3.39466 24.346 3.46954 23.8691C3.49941 23.6789 3.62673 22.761 3.62579 22.7788C3.60064 23.2567 3.41596 23.7337 3.34802 24.2094C3.24928 24.9005 3.33462 24.2694 3.37579 23.9594C3.39219 23.8359 3.60985 22.7766 3.43482 23.3309C3.28538 23.8041 3.24295 24.2844 3.1744 24.7719C3.10074 25.2957 3.17875 24.2932 3.18829 24.2163C3.22273 23.9388 3.25293 23.6564 3.31329 23.383C3.36106 23.1666 3.38202 23.281 3.3376 23.4142C3.26838 23.6219 3.19501 24.2434 3.12579 24.0357C3.05787 23.832 3.18725 23.4545 3.27857 23.2719C3.28427 23.2605 3.23023 23.6908 3.20218 23.8135C3.00701 24.6674 2.87045 25.5247 2.80982 26.4038C2.75413 27.2113 2.45654 27.9991 2.37579 28.8066C2.3082 29.4825 2.12962 30.1432 2.06329 30.8205C1.94163 32.0627 1.86364 33.3115 1.77857 34.5566C1.65008 36.4371 1.56329 38.3104 1.56329 40.1955C1.56329 40.6422 1.56329 41.089 1.56329 41.5357C1.56329 42.7346 1.69011 39.1399 1.82718 37.9489C2.2284 34.463 3.14288 31.0827 3.97302 27.6816C4.14503 26.9768 4.31307 26.2642 4.55982 25.5809C4.6267 25.3957 4.75079 24.8249 4.75079 25.0219C4.75079 25.3068 4.68387 25.5943 4.61885 25.8691C4.31995 27.1322 3.99036 28.3861 3.70913 29.6538C3.39183 31.0841 3.07965 32.518 2.87579 33.9698C2.80591 34.4674 2.69827 35.9714 2.76468 35.4732C3.17917 32.3646 3.3921 29.2294 3.7994 26.1191C3.85614 25.6858 3.89629 25.239 4.00079 24.8135C4.05142 24.6074 4.1546 24.4077 4.08413 24.7649C3.56723 27.3851 3.18171 30.0305 2.74038 32.6642C2.67099 33.0783 2.57024 33.515 2.57024 33.9385C2.57024 34.844 2.84394 32.1482 2.96607 31.251C3.2707 29.0132 3.4915 26.7384 3.93482 24.5219C4.50207 21.6856 2.87941 30.2112 2.46607 33.0739C2.26343 34.4774 2.16122 35.886 2.13274 37.3031C2.12025 37.9243 2.03445 38.8071 2.34802 39.383C2.46943 39.6059 2.56883 39.1999 2.57024 39.1955C2.68782 38.8212 2.86955 37.8836 2.9244 37.5705C3.31863 35.3198 3.48626 33.0389 3.68135 30.7649C3.73419 30.149 3.79399 29.4243 3.86538 28.7962C3.88673 28.6082 3.77796 28.2782 3.9626 28.2371C3.9974 28.2294 3.98613 28.3056 3.9869 28.3413C3.99078 28.5184 3.98439 28.6956 3.97649 28.8725C3.91141 30.3302 3.76922 31.7856 3.62579 33.2371C3.39034 35.6199 3.07356 37.995 2.9869 40.3899C2.96414 41.019 2.99865 42.8285 3.26468 42.258C3.40538 41.9562 3.50507 41.2741 3.53552 41.0149C3.64163 40.1114 3.70043 38.85 3.7369 37.9802C3.85326 35.205 3.87666 32.4262 4.05635 29.6538C4.06922 29.4552 4.0982 29.037 4.11885 28.7892C4.12541 28.7105 4.15992 28.4578 4.10149 28.9628C3.83978 31.2247 3.47289 33.475 3.16052 35.7302C2.7915 38.3942 1.81818 46.4014 2.25427 43.7475C2.94599 39.5379 3.24311 35.2266 3.37232 30.9628C3.37609 30.8384 3.38887 30.7444 3.35149 30.9073C3.29336 31.1606 3.13993 31.9141 3.11885 32.0184C2.6865 34.1574 2.23544 36.3172 2.04246 38.4941C1.94459 39.5981 1.90222 40.7569 2.01468 41.8621C2.025 41.9635 2.00857 42.0887 2.08065 42.1607C2.11978 42.1999 2.16818 42.0825 2.18135 42.0288C2.72735 39.8009 2.88203 37.363 3.1744 35.1052C3.28391 34.2595 3.69427 30.9996 3.86538 29.7927C3.90029 29.5465 3.92319 29.297 3.9869 29.0566C4.0008 29.0041 4.01565 29.1621 4.01815 29.2163C4.04263 29.7449 3.99034 30.6565 3.96607 31.0774C3.8421 33.2278 3.63082 35.3706 3.43135 37.5149C3.23224 39.6554 3.00175 41.8069 2.99385 43.9594C2.99364 44.0174 2.99869 44.885 3.07718 45.0774C3.23219 45.4573 3.55977 44.395 3.6744 44.001C4.33768 41.7215 4.50886 39.3282 4.63968 36.9698C4.82078 33.7051 4.89284 30.4342 5.03552 27.1677C5.04653 26.9154 5.07426 26.663 5.06329 26.4107C5.05151 26.1398 5.03692 26.9525 5.02163 27.2232C4.84204 30.4036 4.48723 33.5689 4.24038 36.7441C4.07426 38.8808 3.94524 41.0204 3.94524 43.1642C3.94524 43.8928 3.89494 46.0275 4.13968 45.3413C4.24362 45.0498 4.40487 43.8354 4.41052 43.7927C4.73386 41.3449 4.95683 38.8841 5.16746 36.4246C5.38241 33.9148 5.52584 31.3958 5.78552 28.8899C5.85809 28.1896 5.76244 30.2985 5.71607 31.001C5.44964 35.0378 4.98373 39.0557 4.62579 43.0844C4.50072 44.4921 4.26612 46.0427 4.4001 47.4628C4.43284 47.8099 4.50897 47.6699 4.59454 47.3864C5.01065 46.0081 5.10765 44.4705 5.22996 43.0496C5.52367 39.6376 5.58802 36.2093 5.81329 32.7927C5.86884 31.9502 5.96372 30.6931 6.07024 29.7927C6.1828 28.8412 6.17608 29.7229 6.16746 30.0288C6.08861 32.8279 5.90454 35.6253 5.75427 38.4212C5.59023 41.4731 5.33323 44.5469 5.34107 47.6052C5.34141 47.7383 5.39082 48.1208 5.43135 47.9941C5.55238 47.6156 5.71268 46.306 5.72996 46.1538C6.1562 42.3981 6.21508 38.6224 6.31329 34.8482C6.33721 33.9293 6.41626 31.1769 6.46607 32.0948C6.61745 34.8844 6.36253 37.7218 6.16052 40.501C5.98619 42.8994 5.6985 45.305 5.61885 47.7094C5.61233 47.906 5.60824 48.104 5.62927 48.2996C5.63861 48.3866 5.62556 48.5755 5.70913 48.5496C5.82581 48.5135 5.83947 48.3399 5.87579 48.2232C6.11508 47.455 6.26504 46.3587 6.3619 45.6225C6.8517 41.9001 6.88867 38.1398 7.1119 34.3969C7.13279 34.0467 7.21414 32.7576 7.28552 32.2441C7.29227 32.1955 7.31502 32.06 7.33413 32.1052C7.49741 32.4911 7.36587 32.9431 7.35843 33.3621C7.30996 36.0928 7.08853 38.8179 6.87232 41.5392C6.73871 43.2208 6.63248 44.4652 6.49385 46.1191C6.45213 46.6168 6.40835 47.1143 6.36885 47.6121C6.33677 48.0165 6.19637 48.437 6.30635 48.8274C6.3805 49.0906 6.47421 48.3051 6.52163 48.0357C6.68044 47.1337 6.85517 45.8072 6.94524 44.9385C7.38248 40.7215 7.42785 36.4766 7.79593 32.2545C7.83661 31.7879 7.86177 31.4581 7.95565 31.0392C8.00959 30.7986 7.99507 31.0423 7.99732 31.2059C8.037 34.0823 7.92809 36.9645 7.74385 39.8344C7.56195 42.6676 7.28618 45.4943 7.10496 48.3274C7.08847 48.5852 7.06855 48.8434 7.07024 49.1017C7.07087 49.1988 7.0192 49.4187 7.1119 49.3899C7.23458 49.3518 7.23217 49.1615 7.27163 49.0392C7.53784 48.2144 7.72227 47.2398 7.86538 46.4107C8.37124 43.4801 8.51079 40.5348 8.58413 37.567C8.59487 37.1323 8.635 35.0339 8.65704 34.3725C8.69371 33.2725 8.73506 33.8147 8.7369 34.3413C8.74798 37.4969 8.51939 40.6529 8.31329 43.7996C8.14976 46.2964 7.60896 53.7556 8.10496 51.3031C8.33495 50.1659 8.54008 47.829 8.61885 46.935C8.84424 44.3769 8.94304 42.722 9.09107 40.1746C9.09236 40.1524 9.24612 37.1564 9.2994 36.5288C9.30716 36.4374 9.33264 36.1675 9.34802 36.258C9.45199 36.8696 9.3513 37.4989 9.33413 38.1191C9.24355 41.3909 9.09813 44.6626 8.87579 47.9281C8.78345 49.2844 8.33606 53.3194 8.66746 52.001C9.16834 50.0084 9.22427 47.8026 9.38274 45.7719C9.52716 43.9211 9.61275 42.3515 9.72302 40.508C9.79668 39.2763 9.82016 38.0112 9.99385 36.7857C10.037 36.4814 10.0635 36.4295 10.0876 36.7719C10.1328 37.4145 10.1081 38.2273 10.0876 38.8239C9.95096 42.7942 9.63626 46.7715 9.16746 50.7163C9.15022 50.8614 9.00472 51.9569 8.97996 52.2163C8.9727 52.2924 8.9351 52.3791 8.97302 52.4455C8.99716 52.4877 9.02312 52.3606 9.03552 52.3135C9.73555 49.6557 9.77879 46.77 9.9869 44.0496C10.0196 43.6221 10.2294 40.7584 10.289 40.0184C10.3109 39.7462 10.3313 39.4738 10.3619 39.2024C10.3684 39.1446 10.3493 39.004 10.4001 39.0323C10.4602 39.0657 10.4225 39.1684 10.4244 39.2371C10.4318 39.5102 10.4296 39.7834 10.4279 40.0566C10.4164 41.9153 10.3704 43.7762 10.2855 45.633C10.1796 47.9503 9.92666 50.2475 9.72302 52.5566C9.71954 52.596 9.61897 53.748 9.63968 53.9871C9.70137 54.6994 9.91793 52.5839 10.0182 51.876C10.3537 49.5062 10.6042 47.1347 10.7751 44.7475C10.941 42.429 10.834 43.7834 10.9904 41.6607C11.0319 41.0976 11.0308 39.4191 11.1397 39.9732C11.2196 40.3799 11.164 40.8019 11.1605 41.2163C11.1513 42.325 11.1186 43.6281 11.0563 44.7232C10.9182 47.154 10.4998 49.5493 10.3133 51.9732C10.298 52.1718 10.1761 52.696 10.3307 52.5705C10.5705 52.3756 10.6936 50.3893 10.6952 50.376C11.0925 47.0776 11.3159 43.7647 11.6397 40.4594C11.6756 40.0924 11.7107 39.7398 11.7716 39.3795C11.8062 39.1749 11.8063 39.2298 11.8063 39.435C11.8063 41.6398 11.5295 43.8398 11.2438 46.0219C11.0043 47.8516 10.3942 53.3499 10.7126 51.5323C11.2729 48.3341 11.596 45.0444 11.848 41.8066C11.8755 41.4537 11.8705 41.0946 11.9244 40.7441C11.9742 40.4203 11.9387 41.3992 11.9348 41.7267C11.9026 44.467 11.5192 47.1662 11.3897 49.8969C11.371 50.29 11.3758 50.684 11.3758 51.0774C11.3758 51.1445 11.3697 51.3456 11.3758 51.2788C11.3995 51.0182 11.4049 50.7505 11.4244 50.4906C11.6191 47.8953 11.9383 45.3003 11.9383 42.6955C11.9383 42.3563 11.9383 42.0172 11.9383 41.6781C11.9383 41.4824 11.9434 42.0694 11.9522 42.2649C12.0559 44.5867 11.6996 46.8979 11.5147 49.2094C11.4709 49.7565 11.4473 50.3044 11.407 50.8517C11.4009 50.9353 11.3865 51.1852 11.3793 51.1017C11.3322 50.5604 11.4084 49.9334 11.4452 49.4038C11.6087 47.0543 11.829 44.6984 12.157 42.3656C12.1993 42.0649 12.2329 41.7631 12.2786 41.4628C12.295 41.3546 12.3133 41.0628 12.3133 41.3552C12.3133 43.6861 12.0361 46.0116 11.8619 48.3344C11.7892 49.3042 11.6811 50.293 11.473 51.2441C11.277 52.1401 11.1796 53.0801 11.1258 53.9941C11.1092 54.2759 11.0739 54.5514 11.0355 54.8309C11.0173 54.9635 11.0008 55.3126 11.0008 54.9524C11.0008 53.0694 11.1502 51.1926 11.3098 49.317C11.4001 48.2563 11.4652 47.1133 11.7022 46.0705C11.7505 45.858 11.7423 46.5054 11.7369 46.7232C11.7015 48.1438 11.6376 49.563 11.532 50.9802C11.4396 52.2207 11.3133 53.4706 11.3133 54.7163C11.3133 55.5358 11.3832 53.0785 11.4452 52.2614C11.5342 51.0905 11.6569 49.9234 11.7994 48.758C11.8933 47.9902 11.908 47.2114 12.0598 46.4524C12.0649 46.4269 12.0633 46.8337 12.0633 46.8448C12.0633 47.6214 12.0665 48.3981 12.0494 49.1746C12.0167 50.6619 11.8708 52.1407 11.8168 53.626C11.8155 53.6611 11.8133 54.109 11.8133 53.8205C11.8133 53.4132 11.8263 53.0085 11.848 52.6017C11.9255 51.1513 12.045 49.7015 12.1119 48.251C12.1218 48.0357 12.1258 47.8206 12.1258 47.6052C12.1258 47.2369 12.1128 48.3421 12.0841 48.7094C11.9694 50.1793 11.7567 51.6484 11.5772 53.1121C11.4944 53.7872 11.4955 54.5115 11.1883 55.126" stroke="#021120" stroke-linecap="round"/>
<path d="M1.31329 44.9384C1.24195 44.7512 1.24664 44.5532 1.25426 44.3551C1.28258 43.6188 1.41695 42.8828 1.53551 42.1572C1.71019 41.0881 1.98581 40.0574 2.24731 39.0114C2.46978 38.1215 1.92927 40.819 1.72301 41.7127C1.64802 42.0377 1.61404 42.9837 1.47301 42.6815C1.38984 42.5033 1.45762 42.0451 1.46606 41.8968C1.50501 41.213 1.57009 40.5313 1.65356 39.8516C1.71323 39.3658 1.80511 38.8805 1.81329 38.3898C1.817 38.1671 1.69317 38.9768 1.6744 39.0565C1.29489 40.6673 1.12545 42.2534 0.952176 43.8898C0.856924 44.7894 1.03832 42.0819 1.12579 41.1815C1.15071 40.9249 1.18829 40.1529 1.18829 40.4107C1.18829 40.8032 1.15927 41.1923 1.13968 41.5843C1.09359 42.5061 1.02532 43.429 0.941759 44.3482C0.903093 44.7735 0.938287 43.494 0.938287 43.0669C0.938287 42.3987 0.878411 41.7013 0.973009 41.0391C1.07494 40.3256 1.24836 39.6389 1.30634 38.9141C1.50841 36.3883 2.06943 33.8198 2.68829 31.3621C3.18688 29.3819 3.28385 27.3449 3.68829 25.3516C3.79681 24.8168 3.94404 24.2929 4.00426 23.7509C4.0095 23.7038 4.09869 23.5208 4.02509 23.5044C3.8632 23.4684 3.75885 23.6335 3.69176 23.7509C3.48953 24.1048 3.35105 24.4601 3.1744 24.8134C3.09847 24.9653 3.04954 25.4109 2.95218 25.2718C2.85023 25.1261 3.22369 24.3493 3.26468 24.1398C3.27543 24.0849 3.34873 23.4472 3.21954 23.6051C3.09346 23.7592 3.03224 24.0866 2.99731 24.2787C2.93121 24.6423 2.62579 24.9771 2.62579 25.3759C2.62579 25.9152 2.42987 26.4244 2.37926 26.9558C2.34662 27.2985 2.37579 27.6566 2.37579 28.0009C2.37579 28.4611 2.17421 28.9619 2.07718 29.4107C1.90903 30.1883 1.76189 31.0421 1.75079 31.8412C1.72615 33.6152 1.36132 35.3345 1.24731 37.1016C1.1843 38.0784 1.14748 39.0736 1.12579 40.0496C1.12254 40.1957 0.95033 41.2906 0.938287 41.2718C0.802055 41.0589 0.875787 40.6438 0.875787 40.4072C0.875787 39.8968 0.875787 39.3864 0.875787 38.8759C0.875787 38.314 1.00079 37.7655 1.00079 37.2127C1.00079 36.6972 1.03508 36.1962 1.06329 35.6884C1.07712 35.4395 1.13591 35.1301 1.20218 34.8898C1.27719 34.6179 1.25219 34.3214 1.32718 34.0496C1.43832 33.6467 1.43258 33.1474 1.49731 32.7266C1.56813 32.2663 1.68829 31.7449 1.68829 31.2822C1.68829 30.4486 1.93829 29.6598 1.93829 28.8134C1.93829 27.7675 2.52437 26.8298 2.87579 25.8759" stroke="#021120" stroke-linecap="round"/>
<path d="M2.3133 44.501C2.10984 43.9624 2.08893 44.5991 2.04942 44.8552C1.90964 45.7612 1.82388 46.6709 1.7508 47.5844C1.72122 47.9541 1.6883 49.0664 1.6883 48.6955C1.6883 47.9663 1.6883 47.2371 1.6883 46.508C1.6883 45.6157 1.76545 44.6771 1.56678 43.7996C1.53491 43.6589 1.49441 43.1428 1.4383 43.5983C1.33039 44.4743 1.31622 45.3628 1.3133 46.2441C1.31103 46.93 1.24081 47.6645 1.31678 48.3483C1.47118 49.7379 1.43341 45.5479 1.32719 44.1538C1.32424 44.1151 1.26469 43.7719 1.26469 43.7719C1.09016 44.2955 1.13845 45.0665 1.12928 45.6121C1.11977 46.1778 1.0822 46.7694 1.12928 47.3344C1.18031 47.9467 1.22122 46.1084 1.23692 45.4941C1.25334 44.8515 1.27602 44.1996 1.2508 43.5566C1.24776 43.4789 1.0706 44.233 1.06678 44.3934C1.04893 45.1428 1.0633 45.8938 1.0633 46.6434C1.0633 46.7835 1.0633 47.5439 1.0633 46.9385C1.0633 46.1978 1.0633 45.457 1.0633 44.7163C1.0633 44.5349 1.19865 43.4848 0.969555 43.383C0.817878 43.3156 0.818611 43.914 0.816777 43.9663C0.78377 44.907 0.921716 45.8638 1.0008 46.7996C1.04 47.2635 1.04994 47.7356 1.1258 48.1955C1.22263 48.7825 1.1883 47.5295 1.1883 47.4489C1.1883 46.5901 1.1883 45.7314 1.1883 44.8726C1.1883 44.6838 1.25186 44.1345 1.17442 44.3066C0.984648 44.7283 1.06485 45.3379 1.0633 45.7788C1.05854 47.1411 0.991549 48.5419 1.19178 49.8934C1.26306 50.3745 1.3815 50.9009 1.58761 51.3448C1.63451 51.4458 1.66286 51.4162 1.67442 51.3135C1.7152 50.951 1.6883 50.5732 1.6883 50.2094C1.6883 49.4204 1.68502 48.6354 1.6258 47.8483C1.59239 47.404 1.61165 46.8877 1.38275 46.4871C1.36778 46.4609 1.3758 46.5472 1.3758 46.5774C1.3758 46.882 1.37514 47.186 1.38622 47.4906C1.4462 49.1401 1.65083 50.7963 1.86886 52.4316C1.9418 52.9787 2.0548 53.5149 2.21608 54.0427C2.22001 54.0556 2.28 54.2804 2.29942 54.1121C2.36498 53.5439 2.31459 52.9383 2.3133 52.3691C2.30914 50.5251 2.23555 48.6845 2.20219 46.8413C2.19184 46.269 2.18381 45.6941 2.22303 45.1226C2.23006 45.0201 2.22572 44.4678 2.34803 44.3899C2.49692 44.2952 2.47693 44.722 2.5008 44.8969C2.60394 45.6522 2.62885 46.4209 2.65011 47.1816C2.72331 49.8006 2.6258 52.417 2.6258 55.0358C2.6258 55.4248 2.61676 55.8217 2.66053 56.2094C2.66926 56.2867 2.74749 56.4821 2.77858 56.4108C2.95207 56.0128 2.94014 55.4298 2.96261 55.0219C3.05781 53.2937 3.0222 51.5594 2.95914 49.8309C2.89179 47.9847 2.71851 46.147 2.63275 44.3031C2.625 44.1366 2.61624 43.9601 2.6258 43.7927C2.64504 43.456 2.73784 44.458 2.77858 44.7927C3.07484 47.2266 3.14749 49.6569 3.21608 52.1052C3.25152 53.37 3.29496 54.6356 3.44178 55.8934C3.50998 56.4776 3.56957 57.2008 3.84455 57.7406C3.91527 57.8794 4.04262 58.0027 4.11192 57.7649C4.29129 57.1493 4.25688 56.389 4.27511 55.7649C4.37006 52.5156 4.287 49.2545 4.13969 46.008C4.11291 45.4178 4.0008 44.8071 4.0008 44.2163C4.0008 42.3672 4.1209 47.9127 4.15358 49.7614C4.19763 52.2532 4.12339 54.787 4.46955 57.2614C4.50773 57.5343 4.55475 58.0156 4.7508 58.258C4.9573 58.5133 5.1215 57.6882 5.16053 57.3621C5.31849 56.0427 5.30486 54.6867 5.28553 53.3621C5.25563 51.3142 5.13563 49.2731 4.91053 47.2371C4.79617 46.2028 4.65661 45.1569 4.46261 44.133C4.43044 43.9632 4.41455 43.8769 4.41747 44.1017C4.4223 44.4733 4.46081 44.9823 4.48344 45.317C4.66728 48.0358 4.82627 50.748 4.87233 53.4733C4.88527 54.2387 4.85633 55.0309 4.96608 55.7927C4.98993 55.9582 5.05113 56.5923 5.23692 56.6955C5.40019 56.7862 5.30713 56.3267 5.30983 56.1399C5.32346 55.1994 5.2843 54.2574 5.20219 53.3205C4.96868 50.6559 4.51276 47.9957 3.89317 45.3934C3.69834 44.5751 3.96265 46.0423 3.96955 46.0983C4.33611 49.0693 4.28275 52.0881 4.73692 55.0496C4.7941 55.4225 4.99351 56.3617 5.03553 55.3413C5.1484 52.6001 4.67532 49.8887 4.01122 47.2406C3.78641 46.3442 3.14255 43.6544 3.26469 44.5705C3.31994 44.9848 3.42488 45.3982 3.50775 45.8066C3.8874 47.6777 4.20257 49.5587 4.49386 51.4455C4.74913 53.0989 4.96492 54.76 5.23692 56.4108C5.25159 56.4998 5.3275 56.75 5.34108 56.6608C5.41669 56.1639 5.38154 55.6006 5.3758 55.1052C5.34335 52.303 4.77558 49.6349 4.01469 46.9455C3.82447 46.2731 3.62416 45.5969 3.36886 44.9455C3.34618 44.8876 3.27419 44.7159 3.29247 44.7753C3.62667 45.8615 2.90593 43.427 3.56678 45.6434C4.23766 47.8934 4.74369 50.1919 5.08414 52.5149C5.25274 53.6654 5.37644 54.8215 5.53553 55.9733C5.60443 56.4721 5.62881 57.165 5.8758 57.633C5.97839 57.8273 6.06617 57.5971 6.09108 57.501C6.24793 56.896 6.22845 56.2069 6.23692 55.5913C6.27926 52.5105 5.95968 49.4565 5.64317 46.3969C5.59686 45.9492 5.39154 44.6309 5.55636 45.0496C5.85373 45.8051 5.92058 46.8514 6.03205 47.6226C6.52628 51.0416 6.61821 54.4765 6.84803 57.9177C6.88416 58.4587 6.90882 59.0098 7.06678 59.5323C7.11493 59.6915 7.20352 60.0913 7.3133 59.9663C7.49728 59.7568 7.42674 58.8369 7.42789 58.692C7.44488 56.5427 7.31961 54.3911 7.17789 52.2476C7.03926 50.1507 6.83671 48.0638 6.63275 45.9733C6.48319 44.4403 7.0035 49.0331 7.09803 50.5705C7.26895 53.3504 7.27663 56.1352 7.3758 58.9177C7.39067 59.3347 7.3847 59.7945 7.46955 60.2094C7.47708 60.2462 7.51977 60.3386 7.53205 60.3031C7.60997 60.078 7.58528 59.8293 7.59455 59.5913C7.72081 56.3507 7.64657 53.104 7.62928 49.8621C7.62498 49.0556 7.60072 48.2384 7.63969 47.4316C7.64449 47.3323 7.65434 47.0528 7.70219 47.1399C7.84432 47.3988 7.81273 47.721 7.84108 48.0149C8.10195 50.7195 8.07796 53.4416 7.98692 56.1538C7.95552 57.0891 7.90856 58.0239 7.88275 58.9594C7.87911 59.0913 7.87315 59.487 7.87928 59.3552C7.89087 59.1059 7.90612 58.2653 7.90705 58.2128C7.94857 55.8717 7.92603 53.5322 7.84803 51.192C7.836 50.8312 7.8133 50.4668 7.8133 50.1052C7.8133 49.9073 7.86537 50.4979 7.8758 50.6955C8.00743 53.1886 8.0002 55.694 7.92442 58.1885C7.88252 59.5678 7.7508 60.9472 7.7508 62.3274C7.7508 63.509 7.8725 59.967 7.90011 58.7858C7.9323 57.4087 7.93633 56.0312 7.9383 54.6538C7.93941 53.8852 7.77186 51.6083 7.97997 52.3483C8.17614 53.0457 8.16827 53.9234 8.20914 54.626C8.28555 55.9395 8.31593 57.2551 8.27164 58.5705C8.23828 59.561 8.14827 60.5479 8.07372 61.5358C8.0671 61.6235 7.87296 62.8764 8.039 62.9871C8.0577 62.9996 8.0715 62.9533 8.07719 62.9316C8.12741 62.74 8.18865 62.211 8.20219 62.0844C8.31535 61.0265 8.38243 59.963 8.42789 58.9003C8.48575 57.5478 8.49291 56.1941 8.54247 54.8413C8.57662 53.9092 8.53443 52.8512 8.7508 51.9316C8.76764 51.86 8.84091 52.0563 8.84803 52.1295C8.93862 53.0602 8.9522 54.0049 8.97303 54.9385C9.02941 57.4657 8.94525 59.9886 8.94525 62.5149C8.94525 63.0716 9.04524 63.3183 9.12928 62.5358C9.46012 59.4548 9.40938 56.2782 9.2508 53.1885C9.21924 52.5735 9.16691 51.9597 9.13275 51.3448C9.12986 51.2927 9.12354 51.2406 9.1258 51.1885C9.13117 51.0652 9.15579 51.4337 9.16747 51.5566C9.4496 54.5241 9.538 57.518 9.46608 60.4976C9.44828 61.2351 9.41793 61.9721 9.38969 62.7094C9.38367 62.8667 9.23845 63.1112 9.37928 63.1816C9.39009 63.187 9.38812 63.1588 9.38969 63.1469C9.41111 62.9841 9.44565 62.5575 9.45219 62.4594C9.57234 60.6571 9.59283 58.8482 9.61192 57.0427C9.63032 55.3018 9.47519 53.4875 9.63969 51.751C9.77785 50.2927 9.90951 54.6716 9.92442 56.1364C9.94569 58.2266 9.84839 60.3111 9.7265 62.3969C9.7134 62.621 9.58426 63.2413 9.72997 63.0705C9.86395 62.9134 9.87386 62.682 9.91747 62.4802C10.0335 61.9436 10.144 61.2172 10.2091 60.6885C10.4578 58.6702 10.4607 56.6399 10.5633 54.6121C10.578 54.3218 10.5844 54.0162 10.6258 53.7267C10.6521 53.5429 10.7092 54.0901 10.723 54.2753C10.8865 56.4605 10.8713 58.6649 10.7508 60.8517C10.7225 61.3653 10.6732 61.8768 10.6397 62.3899C10.6383 62.4115 10.6243 62.6548 10.6258 62.7094C10.6269 62.7498 10.6482 62.6314 10.6536 62.5913C10.9124 60.6569 10.9577 58.6994 11.0008 56.751C11.031 55.3876 11.0518 54.024 11.0911 52.6608C11.102 52.2805 11.0496 51.735 11.1571 51.3483C11.2062 51.1715 11.1974 51.7134 11.2022 51.8969C11.2281 52.8885 11.2489 53.8806 11.2334 54.8726C11.2015 56.9146 10.8302 63.0308 10.98 60.9941C11.1814 58.2547 11.1732 55.5047 11.3619 52.7649C11.381 52.4876 11.3812 52.1267 11.4696 51.8517C11.5214 51.6903 11.5827 52.1756 11.5946 52.3448C11.7968 55.2218 11.4544 58.0904 11.5008 60.9663C11.5172 61.9811 11.5991 58.9388 11.6397 57.9246C11.6948 56.5502 11.8133 55.1687 11.8133 53.7927C11.8133 53.7237 11.8133 53.4317 11.8133 53.4594C11.8133 53.7857 11.8107 54.1122 11.8133 54.4385C11.826 56.039 11.8758 57.6387 11.8758 59.2406C11.8758 59.6906 11.8445 60.1277 11.7855 60.5739C11.7439 60.8891 11.7508 61.3252 11.7508 60.6816C11.7508 58.8483 11.7508 57.0149 11.7508 55.1816C11.7508 52.5713 11.6317 60.4017 11.4869 63.008C11.3929 64.6999 11.2351 66.3789 11.0772 68.0635C11.0156 68.7203 11.0633 69.4003 11.0633 70.0601C11.0633 70.4525 11.0965 70.6156 10.973 70.0496C10.4426 67.6184 10.1635 65.1234 9.75775 62.6677C9.59533 61.6846 9.41808 60.7083 9.22997 59.7302C9.1958 59.5525 9.17244 59.3733 9.13969 59.1955C9.05165 58.7175 9.2248 60.1638 9.27858 60.6469C9.51372 62.7588 9.74742 64.8748 10.0355 66.9802C10.0606 67.1633 10.0897 67.6953 10.1536 67.5219C10.2197 67.3425 10.1801 67.1401 10.1779 66.9489C10.1717 66.4064 10.1411 65.546 10.1258 65.0427C10.066 63.0797 10.0111 61.1066 10.098 59.1434C10.1017 59.0615 10.0874 58.5464 10.2022 58.4316C10.2513 58.3825 10.3086 58.5313 10.3272 58.5983C10.4003 58.8619 10.4632 59.3456 10.4869 59.5844C10.7353 62.0861 10.4683 69.6381 10.5668 67.126C10.6558 64.8569 10.8564 58.0497 10.8758 60.3205C10.8966 62.748 10.7508 65.1708 10.7508 67.5948C10.7508 67.6673 10.7574 67.8326 10.723 67.6191C10.6421 67.1167 10.5853 66.6098 10.5216 66.1052C10.2408 63.8781 9.98336 61.6332 9.57719 59.4246C9.14195 57.058 9.78443 64.2329 9.90011 66.6364C9.91846 67.0177 9.91724 67.4051 9.95219 67.7858C9.95581 67.8251 9.98771 68.092 9.99733 67.8274C10.0735 65.7324 9.66932 63.5854 9.26469 61.5427C9.07634 60.5918 8.85538 59.6461 8.58067 58.7163C8.48106 58.3792 8.3827 57.9916 8.20219 57.6816C8.11633 57.5341 8.07609 57.5918 8.08067 57.7406C8.09952 58.3535 8.23532 58.9916 8.33414 59.5913C8.68653 61.7298 9.11096 63.8508 9.38969 66.001C9.50501 66.8906 9.5867 67.7981 9.74733 68.6816C9.94278 69.7565 9.48147 66.5118 9.29594 65.4351C8.86725 62.9471 8.26691 60.4851 7.60497 58.0496C7.58849 57.989 7.40858 57.2646 7.45219 57.7163C7.66339 59.9037 8.14144 62.0792 8.59108 64.2267C8.86275 65.5243 9.05011 66.8868 9.4383 68.1573C9.47829 68.2881 9.54173 68.535 9.64664 68.6399C9.68932 68.6826 9.66806 68.5193 9.66053 68.4594C9.63244 68.2362 9.54174 67.7201 9.50775 67.5427C9.06157 65.214 8.40036 62.9266 7.70914 60.6608C7.31514 59.3692 6.92991 58.0467 6.32372 56.8344C6.08662 56.3602 6.23682 56.9888 6.26817 57.1816C6.68108 59.721 7.1093 62.267 7.66747 64.7788C7.80887 65.4151 7.94634 66.0788 8.20567 66.6816C8.44513 67.2382 8.3283 66.5705 8.29942 66.4177C7.73942 63.4547 6.93369 60.5019 6.10844 57.6017C5.99223 57.1933 5.87411 56.7401 5.6883 56.3552C5.66011 56.2968 5.5977 56.1339 5.57719 56.1955C5.4594 56.5489 5.68023 57.2971 5.72997 57.626C6.02997 59.6099 6.45465 61.5793 7.00775 63.508C7.18402 64.1226 7.37572 64.7374 7.61539 65.3309C7.70643 65.5563 7.8285 65.9683 8.01817 66.1434C8.19023 66.3022 7.98667 65.6746 7.9383 65.4455C7.7603 64.6023 7.54832 63.765 7.31678 62.9351C6.64903 60.5416 5.94354 58.1139 4.91053 55.8483C4.76222 55.523 4.31958 54.5602 4.38969 54.9108C4.76411 56.7828 5.29355 58.6435 5.7265 60.5045C6.03201 61.8177 6.26462 63.2469 6.77858 64.501C6.82586 64.6164 6.89322 64.9162 6.97303 64.8205C7.15164 64.6061 6.71829 63.2392 6.68136 63.0774C6.00044 60.0941 5.01556 57.1893 4.32025 54.2094C3.82659 52.0937 5.03755 58.4965 5.5008 60.6191C5.72513 61.6469 5.91487 62.7611 6.36192 63.7233C6.74833 64.5549 6.26138 62.7182 6.25428 62.692C5.75295 60.8417 5.273 58.9829 4.70914 57.1503C4.51143 56.5078 4.25482 55.8831 4.07025 55.2371C4.02693 55.0855 3.93524 54.7258 3.94872 55.1503C4.00398 56.8911 4.58454 58.7005 5.05636 60.3621C5.23583 60.9942 5.41686 61.6635 5.73692 62.2441C5.76736 62.2993 5.85411 62.445 5.86539 62.383C5.90322 62.1749 5.69029 61.743 5.63275 61.5878C5.02234 59.9419 4.38388 58.3062 3.77164 56.6608C3.65815 56.3557 3.53787 56.0544 3.40358 55.758C3.40117 55.7526 3.21129 55.2754 3.21608 55.508C3.24028 56.6814 3.58981 57.9225 3.85497 59.0566C4.09351 60.0768 4.30246 61.1814 4.93136 62.0462C5.18609 62.3964 5.19976 62.2616 5.09803 61.8899C4.67058 60.3281 4.02252 58.8348 3.57025 57.2788C3.39549 56.6776 3.22997 56.0825 3.15358 55.4594C3.12658 55.2391 3.0633 54.5777 3.0633 54.7996C3.0633 55.2532 3.16512 55.7079 3.21608 56.1573C3.25312 56.4839 3.28036 56.8118 3.29942 57.1399C3.29942 57.1399 3.29744 57.6095 3.28553 57.5913C3.00846 57.1684 2.95697 56.4835 2.8758 56.001C2.75192 55.2646 2.70345 54.5203 2.59455 53.7823C2.517 53.2566 2.45299 52.752 2.4383 52.2233C2.42979 51.9168 2.31057 51.6158 2.2508 51.317C2.09487 50.5373 2.02556 51.7834 2.01469 51.9871C1.98992 52.4516 2.0008 52.918 2.0008 53.383C2.0008 53.6767 1.97676 53.0042 1.96955 52.9351C1.92061 52.4651 1.90034 51.9672 1.8758 51.501C1.86736 51.3406 1.71965 50.9754 1.69178 51.3517C1.66058 51.7728 1.60672 52.3666 1.7508 52.7719C1.88002 53.1353 1.8133 53.1501 1.8133 52.6885C1.8133 52.486 1.8133 52.2834 1.8133 52.0809C1.8133 51.8945 1.81048 52.4536 1.8133 52.6399C1.8283 53.6296 2.1018 54.6716 2.29942 55.6399C2.44634 56.3598 2.66041 56.9955 2.93483 57.6816C3.13867 58.1912 3.23778 58.7411 3.42442 59.258C3.74404 60.1431 4.13523 60.9701 4.51469 61.8274C4.9644 62.8434 5.36791 63.8788 5.8133 64.8969C6.12483 65.6089 6.48066 66.0367 6.9271 66.6816C7.00023 66.7872 7.59455 67.6191 7.59455 67.6191C7.90705 67.6191 7.38991 67.1671 7.3758 67.126C7.1782 66.5512 6.72099 65.9409 6.6258 65.3413C6.5678 64.9758 6.47589 64.6208 6.3758 64.2649C6.37123 64.2487 6.26707 63.9261 6.25428 63.9837C6.20609 64.2005 6.37458 64.4349 6.4383 64.626" stroke="#021120" stroke-linecap="round"/>
<path d="M5.12579 49.001C4.58477 48.5843 4.25501 48.2028 4.07024 49.0739C3.97803 49.5086 4.02056 49.9512 3.96954 50.3899C3.92857 50.7423 3.93829 50.6235 3.93829 50.3274C3.93829 49.9518 4.00079 48.8268 4.00079 49.2024C4.00079 50.0753 3.9881 50.9419 3.93829 51.8135" stroke="#021120" stroke-linecap="round"/>
<path d="M5.37579 62.126C5.48837 62.6239 5.63814 63.0811 5.81329 63.5565C5.84048 63.6303 5.9433 63.9884 5.93829 63.7232C5.93006 63.2869 5.76267 62.8927 5.69871 62.4663C5.62578 61.9801 5.92972 63.3406 5.93829 63.376" stroke="#021120" stroke-linecap="round"/>
<path d="M11.3133 51.6885C11.1585 52.391 10.9095 53.0697 10.7543 53.7683C10.6583 54.2002 10.8105 52.8849 10.8619 52.4454C10.9028 52.0958 10.5987 52.8021 10.5008 52.9419C10.1592 53.4299 10.1708 54.2401 10.0633 54.8135" stroke="#021120" stroke-linecap="round"/>
<path d="M7.00079 65.3135C7.04007 66.099 7.50405 66.943 7.87579 67.6121C7.97537 67.7913 8.78953 68.8195 8.3376 68.1121C8.11378 67.7618 7.98756 67.3662 7.77857 67.0079C7.5988 66.6998 7.38068 66.4157 7.19871 66.1086C7.08036 65.9089 7.07471 65.9962 7.14663 66.192C7.34521 66.7325 7.60012 67.2806 7.88274 67.7822C8.0611 68.0988 8.53146 69.0521 8.48343 68.692C8.45302 68.4638 8.23222 68.1849 8.11885 67.9906C7.93562 67.6765 7.75909 67.3589 7.57371 67.0461C7.55755 67.0188 7.44524 66.7758 7.44524 66.9558C7.44524 67.6617 8.16669 68.5941 8.6501 69.0565C8.97929 69.3714 8.97554 69.0759 8.86885 68.7406C8.77294 68.4391 8.65799 68.1397 8.53552 67.8482C8.44592 67.635 8.32078 66.9849 8.26468 67.2093C8.17951 67.55 8.65158 68.1791 8.78552 68.4593C9.01715 68.9439 9.2412 69.4123 9.53552 69.8621C9.55131 69.8862 9.75079 70.275 9.75079 70.0982C9.75079 69.6679 9.53701 69.2341 9.38968 68.8413C9.16611 68.2451 8.93994 67.6414 8.68829 67.0565C8.50121 66.6217 8.72603 67.7294 8.74385 67.7857C8.97254 68.5088 9.65386 70.6408 9.62579 69.8829C9.60699 69.3752 9.31663 68.8496 9.13274 68.3899C8.96343 67.9666 8.78904 67.5454 8.61885 67.1225C8.57515 67.0139 8.47408 66.6985 8.45218 66.8135C8.35628 67.317 8.71238 68.0372 8.88968 68.4871C9.11829 69.0672 9.41573 69.5997 9.75774 70.119C9.80072 70.1843 9.96149 70.4934 9.9244 70.2301C9.8565 69.748 9.65277 69.308 9.43829 68.876C9.31762 68.6329 8.69963 67.4095 8.92093 68.3968C8.97751 68.6492 9.93783 71.1703 10.1536 71.1086C10.4792 71.0156 9.20895 68.7539 9.08413 68.5426C8.89838 68.2283 8.93046 68.6102 8.94871 68.7683C9.01436 69.3373 9.35319 69.8363 9.61538 70.3308C9.63213 70.3625 10.0634 71.2295 10.0459 70.942C10.0131 70.4006 9.49344 69.8221 9.2369 69.369C9.20674 69.3158 8.78231 68.4157 8.76121 68.8378C8.73691 69.3237 9.00161 69.8292 9.24732 70.2301C9.37182 70.4333 9.607 70.86 9.86538 70.9246C10.0216 70.9636 9.98742 70.3556 9.98343 70.3031C9.92363 69.5157 9.66909 68.7371 9.50774 67.9663C9.45784 67.7278 9.37579 67.0039 9.37579 67.2475C9.37579 67.719 9.53526 68.1837 9.66052 68.6329C9.86101 69.3519 10.0746 70.0676 10.2786 70.7857C10.2791 70.7877 10.5398 71.6227 10.5598 71.2822C10.5932 70.7143 10.5714 70.126 10.5251 69.56C10.4891 69.12 10.3758 67.8026 10.3758 68.244C10.3758 68.7313 10.5555 69.2414 10.6188 69.7232C10.6935 70.2911 10.6479 70.9776 10.8758 71.5149C10.9674 71.7307 11.0545 71.7607 11.0911 71.494C11.1917 70.7608 11.0535 68.5368 11.0043 69.2753C10.9559 70.0001 10.9884 70.7624 11.2195 71.4558C11.3087 71.7232 11.4999 72.2399 11.7195 72.4107C11.8561 72.5169 12.0534 72.7702 12.0633 72.9385C12.1091 73.718 11.8431 71.3914 11.6883 70.626C11.5915 70.1476 11.5801 69.6554 11.4383 69.1885C11.3205 68.8005 11.1977 68.3722 11.1883 67.9663C11.1701 67.1831 11.1258 66.401 11.1258 65.6121C11.1258 64.6933 11.0633 63.782 11.0633 62.8656C11.0633 62.7643 11.1222 61.3834 11.4105 61.4246C11.8072 61.4813 11.4753 64.1303 11.4383 64.3864C11.4327 64.4252 11.3133 65.3156 11.3133 65.067C11.3133 64.6393 11.3191 64.2211 11.3758 63.7961C11.4986 62.8751 11.5538 61.9345 11.7543 61.0322C11.8362 60.6636 11.8996 60.869 11.9244 61.1538C12.0004 62.028 11.9905 62.9875 11.9244 63.8621C11.8242 65.1875 11.6883 66.4962 11.6883 67.8274C11.6883 68.6176 11.6694 69.4712 11.5494 70.251C11.5085 70.5168 11.5008 71.4837 11.5008 70.6954C11.5008 69.7768 11.5048 68.814 11.6397 67.9038C11.6714 67.6898 11.6852 67.7419 11.6883 67.9246C11.6932 68.2128 11.7481 68.4961 11.7508 68.7857C11.7554 69.2722 11.8133 70.7306 11.8133 70.244C11.8133 69.7556 11.8133 69.2672 11.8133 68.7788C11.8133 68.3436 11.8133 69.6491 11.8133 70.0843C11.8133 70.7877 11.8488 71.5877 12.0494 72.2649C12.0885 72.3968 12.1232 73.0023 12.0008 73.0635" stroke="#021120" stroke-linecap="round"/>
<path d="M11.0008 71.5635V72.3135" stroke="#021120" stroke-linecap="round"/>
<path d="M18.9383 20.8135C18.8661 22.8546 18.2775 24.6644 17.6188 26.5774C17.407 27.1926 17.1839 27.8158 17.0425 28.4524C17.0378 28.4732 17.0498 28.5352 17.0563 28.5149C17.2867 27.7951 17.4393 27.035 17.6015 26.2996C17.9282 24.8186 18.1976 23.3301 18.4244 21.8309C18.5228 21.1802 18.5887 20.512 18.7508 19.8725C18.7742 19.7801 18.9178 19.2382 18.9591 19.6815C19.0583 20.7446 18.84 21.8833 18.6605 22.9246C18.4693 24.0343 18.2073 25.1303 18.0008 26.2371C17.8917 26.8219 17.5076 28.5527 17.73 28.001C18.115 27.0454 18.1983 25.8483 18.348 24.8482C18.577 23.3193 18.8238 21.7642 18.9279 20.2197C18.9403 20.0356 18.9383 19.852 18.9383 19.6677C18.9383 19.6159 18.7298 20.4368 18.7091 20.5149C18.189 22.4782 17.4889 24.4611 17.2612 26.4871C17.2347 26.723 17.3061 27.4015 17.1883 27.1954C17.1031 27.0464 17.1626 26.8531 17.157 26.6815C17.138 26.0935 17.1319 25.7056 17.1362 25.0947C17.1484 23.3739 17.3472 21.6618 17.3758 19.9454C17.3762 19.92 17.3791 19.8438 17.3758 19.869C17.3587 20.0001 17.3687 19.9645 17.3341 20.1399C17.2273 20.6817 17.062 21.2087 16.973 21.7545C16.8148 22.7246 16.7068 23.7023 16.5633 24.6746C16.4946 25.1403 16.4673 25.6094 16.3758 26.067C16.2827 26.5323 16.0633 27.9304 16.0633 27.4559C16.0633 26.2765 16.1883 25.1162 16.1883 23.9385C16.1883 22.8746 16.2949 21.7858 16.4522 20.7371C16.5175 20.3015 16.6883 19.8444 16.6883 19.4072C16.6883 18.685 16.7768 17.922 16.907 17.2128C17.0842 16.2484 17.0862 15.298 17.1744 14.3274C17.2878 13.0804 17.4905 11.8293 17.5008 10.5774C17.5179 8.48556 17.6181 6.42325 17.4244 4.34127C17.3607 3.65675 17.3758 2.97064 17.3758 2.28224C17.3758 1.88689 16.851 1.86534 16.8133 1.56349C16.808 1.52104 16.7585 1.41643 16.7369 1.37599C16.708 1.32182 16.6883 1.82834 16.6883 1.90724C16.6883 2.72401 16.7237 3.54984 16.6848 4.36558C16.6477 5.14503 16.3758 5.8747 16.3758 6.66766C16.3758 7.56756 16.2367 8.46352 16.1918 9.3621C16.1211 10.7755 15.8133 12.1987 15.8133 13.6121C15.8133 17.8855 15.8843 22.1674 15.7508 26.4385" stroke="#021120" stroke-width="2" stroke-linecap="round"/>
<path d="M16.5008 9.68842C16.4901 9.60297 16.1734 10.2104 16.1258 10.3412C16.0603 10.5212 16.1789 9.71406 16.1536 9.76481C16.1041 9.86382 15.8599 10.7925 15.973 10.3724C16.058 10.0567 16.072 9.7881 16.1293 9.47314C16.1884 9.14774 16.1712 9.92674 16.1258 10.0495C16.0221 10.3301 15.9498 10.5916 15.9383 10.8898C15.9269 11.1864 15.5256 11.53 16.0008 11.6884" stroke="#021120" stroke-width="2" stroke-linecap="round"/>
<path d="M17.7508 15.2509C17.7941 16.578 17.8133 17.9023 17.8133 19.2301C17.8133 20.2536 17.738 21.3131 17.848 22.3343C17.8582 22.4288 17.9831 23.2545 17.9973 22.7301C18.0513 20.7346 18.0093 18.7295 17.9973 16.7336C17.99 15.5251 17.9201 14.3135 17.9383 13.1051C17.954 12.063 18.3189 13.8273 18.3341 14.0218C18.4985 16.1177 18.3772 18.271 18.3341 20.369C18.2967 22.1905 18.2259 24.0156 18.2647 25.8377C18.2694 26.0594 18.2537 26.5774 18.3897 26.8343C18.4111 26.8748 18.4794 26.7823 18.4869 26.7371C18.6053 26.0268 18.5749 25.2557 18.598 24.5426C18.6835 21.9087 18.8827 19.2825 18.9869 16.6502C19.0169 15.8934 19.0085 15.1322 18.9695 14.3759C18.9079 13.1794 19.0534 14.8847 19.0668 15.0773C19.2702 18.0022 19.271 20.9355 19.3168 23.8655C19.3394 25.3134 19.298 26.867 19.7161 28.2718C19.7275 28.3102 19.8422 28.765 19.9383 28.7787C19.9695 28.7832 19.9859 28.7328 19.9938 28.7023C20.0531 28.4737 20.0588 27.8793 20.0633 27.7475C20.1643 24.7812 20.2072 21.8126 20.1813 18.8447C20.1709 17.6419 20.1868 16.4224 20.0008 15.2301C19.8576 14.312 20.2628 16.0233 20.2647 16.0357C20.688 18.7958 20.6306 21.5962 20.8063 24.3759C20.9294 26.3228 21.2086 28.2213 21.5355 30.1398C21.55 30.2249 21.6813 31.3002 21.6813 30.6016C21.6813 28.1264 21.5045 25.6389 21.3341 23.1711C21.1827 20.9779 21.1167 18.6615 20.5425 16.5252C20.502 16.3749 20.3764 15.8863 20.5147 16.5357C20.7644 17.7081 20.9917 18.8818 21.1744 20.0669C21.5432 22.4588 21.7279 24.8743 22.105 27.2648C22.301 28.5078 22.4681 29.8358 22.8758 31.0357C22.9022 31.1134 23.0019 31.3961 22.9765 31.0739C22.9215 30.3769 22.7776 29.6794 22.6883 28.9871C22.3087 26.0444 22.1245 23.0798 21.723 20.1398C21.6052 19.2767 21.4634 18.4162 21.3029 17.56C21.244 17.2462 21.2214 17.1564 21.355 17.5634C22.0814 19.7773 22.4251 22.0417 22.73 24.3482C22.9949 26.3532 23.1158 28.384 23.473 30.3759C23.5276 30.6804 23.6997 31.5879 23.6883 31.2787C23.6321 29.7623 23.4391 28.2457 23.3202 26.7336C23.1418 24.4639 23.1029 22.1737 22.657 19.935C22.5092 19.1925 22.2524 18.4398 22.1918 17.6815C22.181 17.5474 22.2998 17.9284 22.3411 18.0565C22.6431 18.9938 22.9167 19.9371 23.1397 20.8968C23.9335 24.3131 24.1652 27.8519 24.723 31.3134C24.7385 31.4094 24.7532 31.5056 24.7682 31.6016C24.7805 31.6815 24.8066 31.8603 24.7647 31.5704C24.6725 30.9338 24.5758 30.2978 24.4869 29.6607C24.1872 27.5125 23.9908 25.35 23.6397 23.2093C23.524 22.504 23.3976 21.8073 23.3793 21.0912C23.3754 20.9417 23.2875 20.2531 23.4973 20.7336C24.7521 23.6075 25.074 26.7769 25.3758 29.8621C25.4594 30.7165 25.5374 31.5741 25.657 32.4246C25.6782 32.5753 25.7975 33.1633 25.7091 32.6329C25.2057 29.6125 24.8341 26.5712 24.2612 23.5634C24.1629 23.0471 24.1095 22.5253 24.0772 22.0009C24.068 21.8516 24.0509 21.4361 24.1397 21.5565C24.5443 22.1057 24.7437 22.9085 24.9452 23.5426C25.2563 24.5212 25.483 25.5319 25.6605 26.5426C25.8931 27.8668 26.0569 29.2238 26.1744 30.5634C26.213 31.0035 26.1467 32.2974 26.2994 31.8829C26.3842 31.6528 26.2202 31.194 26.1848 30.9732C26.0321 30.0185 25.9405 29.0567 25.8168 28.0982C25.6664 26.9325 25.634 25.76 25.5008 24.5947C25.4434 24.0923 25.3758 23.5727 25.3758 23.0669C25.3758 22.395 25.6339 24.3866 25.7195 25.053C25.867 26.1996 26.0472 27.3511 26.2647 28.4871C26.3272 28.8136 26.2701 29.2276 26.407 29.5287C26.4756 29.6795 26.4383 29.3968 26.4383 29.3621C26.4383 28.8835 26.4027 28.4057 26.3758 27.928C26.3179 26.901 26.1258 25.8367 26.1258 24.8134C26.1258 24.0093 26.4357 26.3924 26.5494 27.1884C26.6329 27.7726 26.6337 28.3822 26.6848 28.9697C26.7479 29.695 26.7508 30.4248 26.7508 31.1537C26.7508 31.5983 26.7508 31.438 26.7508 31.0843C26.7508 30.3273 26.7508 29.5704 26.7508 28.8134C26.7508 28.6764 26.7221 27.5126 26.7543 28.1711C26.7982 29.0726 26.9594 29.972 27.032 30.8725C27.0384 30.9513 27.0706 31.921 27.0633 31.5773C27.0497 30.9395 27.0087 29.0336 26.9383 29.6676C26.8595 30.3763 27.0108 31.1671 27.0633 31.8759C27.1049 32.4381 27.1258 32.9894 27.1258 33.553C27.1258 34.1514 27.1258 34.7498 27.1258 35.3482C27.1258 35.9611 27.1258 34.7933 27.1258 34.6746C27.1258 33.8181 27.1258 32.9616 27.1258 32.1051C27.1258 31.8237 27.1079 31.562 27.1848 31.2926C27.2071 31.2147 27.1853 31.4549 27.1918 31.5357C27.2125 31.7948 27.2588 32.0536 27.282 32.3134C27.3486 33.0584 27.4383 33.786 27.4383 34.5322C27.4383 35.6049 27.4729 36.6827 27.3758 37.7509" stroke="#021120" stroke-width="2" stroke-linecap="round"/>
<path d="M18.6258 9.75098C18.5532 10.9122 18.5708 12.0699 18.6015 13.2336C18.6279 14.2356 18.668 15.237 18.7369 16.2371C18.7716 16.741 18.7795 17.2859 18.9383 17.7718C18.9566 17.8279 19.05 17.9624 19.0564 17.9038C19.1268 17.2518 19.0497 16.5309 19.0147 15.8829C18.8853 13.4841 18.619 11.0849 18.2855 8.70584C18.237 8.35971 18.0239 7.32992 18.3202 8.34126C19.073 10.9101 19.5263 13.5608 20.2022 16.1503C20.5484 17.4767 20.842 18.8886 21.348 20.1676C21.4912 20.5295 21.4117 19.9022 21.4105 19.8899C21.3005 18.7149 21.0757 17.5491 20.8619 16.3899C20.3945 13.8556 19.8011 11.3598 19.2022 8.85515C19.1725 8.73111 19.0553 8.40791 19.0911 8.26487C19.116 8.16519 19.1754 8.45254 19.2091 8.54959C19.3094 8.8382 19.5449 9.5494 19.6189 9.7857C20.4619 12.4782 21.0334 15.2463 21.9105 17.9281C22.1743 18.7346 22.4515 19.5346 22.7716 20.3204C22.842 20.4932 22.8946 20.6206 22.9591 20.7926C22.9883 20.8705 22.9829 21.0752 23.0494 21.0253C23.0707 21.0093 23.0524 20.9719 23.0494 20.9454C23.0241 20.7176 22.958 20.3521 22.9175 20.1538C22.6342 18.7686 22.2713 17.397 21.9175 16.0288C21.4825 14.3466 20.9846 12.6658 20.664 10.9558C20.6471 10.8656 20.5669 10.6256 20.6397 10.6815C20.8715 10.8598 21.0604 11.7763 21.1327 11.9871C22.0013 14.5165 22.6535 17.1159 23.5355 19.6399C23.6765 20.0432 24.1029 21.2399 24.0425 20.817C23.9939 20.4771 23.852 20.1173 23.7577 19.7926C23.3959 18.5466 23.0379 17.2992 22.6883 16.0496C22.4673 15.2596 22.2495 14.4693 22.0598 13.6711C22.0069 13.4485 21.7943 12.7998 21.8966 13.0045C22.1413 13.4939 22.26 14.1312 22.4209 14.6468C22.7911 15.8325 23.1337 17.0268 23.5251 18.2058C23.869 19.2417 24.2276 20.2777 24.6119 21.2996C24.6669 21.4457 24.7188 21.5925 24.7682 21.7406C24.8569 22.0067 24.5709 21.2153 24.473 20.9524C23.7521 19.0166 23.1307 17.0252 22.6258 15.0218C22.5547 14.7398 22.3229 13.8996 22.4175 14.1746C22.5941 14.6883 22.8049 15.1904 22.9869 15.7024C23.7118 17.7416 24.3916 19.7885 25.1744 21.8065C25.4072 22.4066 25.6055 23.0477 25.8793 23.6295C26.2538 24.4253 26.4097 25.0082 26.3133 25.876" stroke="#021120" stroke-width="2" stroke-linecap="round"/>
<path d="M21.1258 10.001C21.7614 11.3096 22.1727 12.7243 22.7022 14.0774C22.7551 14.2127 23.0666 14.8983 23.0598 14.8274C22.9809 13.999 22.6201 13.1966 22.3966 12.4038C22.2229 11.7873 22.1368 11.0299 21.848 10.4524C21.6356 10.0274 22.1238 11.3624 22.2925 11.8065C22.6429 12.7294 23.5322 15.54 23.3654 14.5669C23.2387 13.8277 23.002 13.1008 22.8133 12.376C22.7125 11.9889 22.6443 11.3124 22.407 10.9801C22.1088 10.5626 22.6305 11.9829 22.782 12.4732C23.2524 13.9948 23.965 15.4573 24.3619 17.001C24.5859 17.8722 24.7914 18.7601 24.9869 19.6399C25.1978 20.5888 25.4203 21.5666 25.5043 22.5322C25.5335 22.8685 25.6077 23.1822 25.6883 23.5044C25.7844 23.8887 25.9061 24.2328 25.8723 23.5565C25.8396 22.9022 25.6258 22.2479 25.6258 21.5947C25.6258 21.5283 25.6258 22.1345 25.6258 22.3135" stroke="#021120" stroke-width="2" stroke-linecap="round"/>
<path d="M18.2508 5.87596C18.2632 5.70206 18.3749 5.97564 18.3932 6.01137C18.6969 6.60619 18.9359 7.23509 19.1536 7.86554C19.2426 8.1234 19.4612 8.89155 19.473 8.61901C19.4905 8.21774 19.1911 7.66626 19.0772 7.29262C18.9289 6.80652 18.7834 6.31967 18.6327 5.83429C18.6037 5.74068 18.3848 5.1646 18.5147 5.59123C18.9334 6.96687 19.5905 8.31416 20.1779 9.62596C20.6264 10.6276 19.9617 9.28484 19.855 9.05651C19.2029 7.66159 18.7184 6.16911 17.973 4.8204C17.9305 4.74341 17.7201 4.48155 17.8966 4.6954C18.3208 5.20926 18.6542 5.76087 18.9939 6.33429C19.4293 7.06949 19.812 7.82853 20.2091 8.58429C20.236 8.63551 20.475 9.06671 20.4591 9.0079C20.3718 8.6849 20.1692 8.37251 20.0251 8.07387C19.6537 7.3039 19.3407 6.49874 19.0494 5.6954C18.8426 5.12517 18.6029 4.57658 18.3758 4.01485C18.2284 3.65025 18.0943 3.34094 17.8445 3.03568C17.8229 3.00917 17.6751 2.71184 17.6883 2.71623C18.028 2.82946 18.3249 3.48245 18.5008 3.75096C19.026 4.55261 19.4715 5.43891 19.9348 6.27873C20.6542 7.58263 22.6165 11.5969 21.9105 10.2857C21.2335 9.02832 20.6005 7.74485 19.9244 6.48707C19.5914 5.86749 19.4895 5.10276 19.0945 4.53221C18.9761 4.36109 18.8661 4.18774 18.7508 4.01485C18.479 3.60722 18.7476 3.96498 18.8827 4.16762C19.4553 5.02648 19.9394 5.96947 20.4522 6.86207C20.8283 7.51673 21.1513 8.13071 21.407 8.84123C21.5555 9.25353 21.7235 9.49877 21.6258 9.93846" stroke="#021120" stroke-width="2" stroke-linecap="round"/>
<path d="M16.2508 27.501C16.1623 28.8834 16.0481 30.3153 15.7022 31.6607C15.4582 32.6095 15.9054 29.7094 16.0911 28.7475C16.1348 28.5211 16.1883 28.3084 16.1883 28.0774C16.1883 27.9798 16.0849 28.4573 16.0772 28.5288C16.0098 29.1485 15.9619 29.7809 15.9418 30.4038C15.9216 31.0291 15.9326 30.556 15.973 30.244C16.0538 29.6206 16.3598 28.7655 16.1744 28.1399C16.1604 28.0926 16.1215 27.8604 16.1293 27.9419C16.2205 28.9004 16.256 29.8422 16.2473 30.8065C16.2337 32.3104 16.1298 33.7896 16.0147 35.2857C16.0024 35.445 15.9403 35.9062 16.0147 35.7649C16.132 35.542 16.1486 35.1719 16.1883 34.9315C16.4434 33.3865 16.4752 31.8126 16.6848 30.2614C16.7938 29.4551 16.9521 28.6482 16.9973 27.8343C17.0001 27.7834 17.0039 27.6307 17.0008 27.6815C16.9483 28.5389 16.871 29.3951 16.7994 30.251C16.6322 32.2483 16.4049 34.2587 16.3758 36.2649C16.3621 37.2067 16.4301 36.1255 16.4348 35.8031C16.4514 34.6686 16.3986 33.5444 16.3133 32.4142C16.2877 32.0748 16.3126 31.2749 16.0772 30.9871C16.0072 30.9015 15.9438 30.9523 15.907 31.0461C15.6995 31.5766 15.7652 32.3133 15.7543 32.869C15.7463 33.274 15.7508 33.6793 15.7508 34.0843C15.7508 34.4755 15.7347 33.3008 15.7647 32.9107C15.7897 32.5859 15.8758 32.2733 15.8758 31.9454C15.8758 31.6313 15.8727 32.4699 15.8723 32.4871C15.842 33.7156 15.7651 34.9462 15.7508 36.1746C15.7482 36.3944 15.7508 36.6144 15.7508 36.8343C15.7508 37.2302 15.6827 36.0454 15.657 35.6503C15.6205 35.0868 15.6258 34.5237 15.6258 33.9593C15.6258 33.5585 15.7228 34.0393 15.7369 34.1746C15.8796 35.545 15.8022 36.9368 15.973 38.3031C16.0053 38.561 16.087 39.3014 16.1744 39.0565C16.2553 38.83 16.2379 38.4985 16.2647 38.2649C16.3837 37.2247 16.454 36.1796 16.5772 35.1399C16.6944 34.1506 16.8883 33.1801 17.1883 32.2301C17.1895 32.2264 17.3489 31.7334 17.4036 31.8378C17.6567 32.3211 17.4933 33.4695 17.4869 33.9454C17.4565 36.2122 17.1883 38.4694 17.1883 40.7371C17.1883 40.9473 17.253 41.5166 17.3688 41.3413C17.5314 41.0952 17.6749 40.447 17.7161 40.2579C17.8709 39.5468 18.0573 38.3831 18.1605 37.6885C18.5514 35.0591 18.725 32.4314 18.8411 29.7788C18.862 29.2995 18.8428 27.8659 18.907 28.3413C18.9574 28.714 18.9409 29.1143 18.9383 29.4871C18.926 31.2189 18.8258 32.9497 18.6744 34.6746C18.4562 37.16 17.9183 39.6679 17.9036 42.1676C17.9028 42.2961 17.9111 42.6567 17.9765 42.5461C18.0795 42.3719 18.0792 42.1543 18.1188 41.9558C18.2193 41.4536 18.3707 40.6552 18.4557 40.1919C19.1589 36.3583 19.3939 32.5343 19.2195 28.6399C19.2117 28.4638 19.2027 28.2877 19.1883 28.1121C19.1775 27.9804 19.2086 27.6332 19.1119 27.7232C18.9375 27.8856 19.0065 28.1886 18.973 28.4246C18.9065 28.8937 18.7991 29.7921 18.7508 30.2301C18.3683 33.7001 17.9738 37.2214 18.0147 40.7163C18.0198 41.1499 18.0096 41.6407 18.1293 42.0669C18.224 42.4044 18.3357 42.3531 18.4105 41.994C18.6683 40.7567 18.6942 39.4352 18.7334 38.1781C18.7921 36.2971 18.7056 34.4247 18.5598 32.5496C18.4763 31.4751 18.3662 30.4026 18.2925 29.3274C18.2663 28.9461 18.2508 27.7993 18.2508 28.1815C18.2508 30.8166 18.1144 33.45 18.0633 36.0843C18.0123 38.7099 17.8671 41.4297 18.2786 44.0357C18.3076 44.2193 18.423 44.6988 18.5182 44.5392C18.6479 44.3214 18.7713 43.7256 18.8029 43.5878C18.9966 42.7426 19.1177 42.0858 19.2473 41.2058C19.7686 37.6673 19.932 34.1073 19.9383 30.5357C19.9393 29.9922 19.9294 29.4474 19.9383 28.9038C19.9441 28.547 19.9818 29.6164 19.9869 29.9732C20.0364 33.4489 19.8123 36.9056 19.605 40.3725C19.5174 41.8362 19.4291 43.3083 19.48 44.7753C19.4803 44.7848 19.4767 45.9802 19.657 46.0079C19.8869 46.0433 20.7912 37.8909 20.848 37.2996C21.0666 35.023 21.2098 32.741 21.3619 30.4593C21.3835 30.1355 21.4453 29.1874 21.4869 28.7857C21.5011 28.6488 21.4426 28.3541 21.5772 28.3829C21.6192 28.3919 21.6184 28.4594 21.6293 28.501C21.7187 28.8418 21.7242 29.2166 21.7334 29.56C21.802 32.1049 21.6178 34.6621 21.3966 37.1954C21.1957 39.497 20.9108 41.7904 20.7404 44.0947C20.6695 45.0532 20.5478 46.0852 20.6397 47.0496C20.6696 47.3636 20.7886 47.3234 20.8758 47.0288C21.3178 45.5346 21.4071 43.8485 21.5772 42.3135C22.007 38.4347 22.1257 34.5836 22.1952 30.6885C22.2003 30.4034 22.2691 29.5596 22.3133 29.8413C22.5533 31.3712 22.44 33.0256 22.4105 34.5635C22.3318 38.668 21.8092 42.7371 21.6397 46.8343C21.6348 46.9534 21.6327 47.0727 21.6327 47.1919C21.6327 47.2968 21.572 47.5478 21.6675 47.5044C21.8418 47.4252 21.7693 47.1345 21.7994 46.9454C21.9012 46.3067 22.0011 45.4955 22.0772 44.8794C22.618 40.4987 22.9222 36.116 23.1466 31.7093C23.1558 31.5288 23.1647 31.3482 23.1744 31.1676C23.1809 31.0471 23.1203 30.8952 23.2022 30.8065C23.301 30.6994 23.2646 31.092 23.2786 31.2371C23.3359 31.8339 23.3825 32.6793 23.3966 33.244C23.4968 37.2374 22.9372 41.1677 22.6675 45.1399C22.6431 45.4981 22.584 45.9407 22.6327 46.3065C22.6869 46.7127 22.8076 45.5048 22.8584 45.0982C23.3815 40.9138 23.7502 36.7156 24.1813 32.5218C24.2095 32.2481 24.3146 31.4585 24.3897 31.7232C24.471 32.0098 24.515 32.8665 24.5216 33.0426C24.5535 33.896 24.545 35.0724 24.5216 35.9038C24.4575 38.1819 24.2598 40.446 24.0008 42.7093C23.8611 43.9297 23.6605 45.1595 23.6258 46.3899C23.6226 46.5015 23.6076 46.8216 23.6605 46.7232C23.7444 46.5674 23.7215 46.3744 23.7438 46.1989C24.1887 42.6983 23.3577 49.1782 24.0182 44.0288C24.4445 40.7046 24.841 37.382 25.0876 34.0392C25.0988 33.887 25.1063 33.4354 25.1397 33.5843C25.3041 34.3166 25.2762 35.1805 25.2855 35.9176C25.3153 38.2782 25.1073 40.6286 24.855 42.9732C24.7065 44.353 24.4882 45.7328 24.4036 47.119C24.3892 47.3548 24.2548 47.9056 24.4765 47.8239C24.7611 47.719 24.8379 45.9244 24.855 45.7926C25.318 42.2191 25.7304 38.6359 26.1466 35.0565C26.1759 34.8051 26.187 34.5264 26.2508 34.2788C26.3682 33.823 26.3209 35.2179 26.3272 35.6885C26.3677 38.7144 26.173 41.6764 25.855 44.6815C25.7816 45.375 25.7158 46.0694 25.6293 46.7614C25.5885 47.0873 25.5831 47.4954 25.473 47.81C25.2201 48.5326 25.5844 46.2825 25.6709 45.5218C25.8674 43.7949 26.0504 42.0682 26.2126 40.3378C26.3017 39.3869 26.3427 38.4117 26.4869 37.4663C26.5247 37.2183 26.5454 37.9654 26.5494 38.2163C26.5715 39.59 26.5175 40.9659 26.3966 42.3343C26.225 44.2762 25.8645 46.2027 25.7577 48.1503C25.729 48.6744 25.8152 48.0317 25.8272 47.9454C25.9904 46.7665 26.1206 45.5832 26.2508 44.4003C26.4589 42.51 26.7827 40.593 26.8133 38.6885C26.818 38.3945 26.8208 37.5126 26.8272 37.8065C26.8562 39.1421 26.7177 40.4909 26.5494 41.8135C26.2661 44.0404 25.8325 46.2533 25.2126 48.4107C24.8379 49.7145 24.4374 51.0128 23.7473 52.1885C23.2726 52.9972 22.6656 53.7847 22.4522 54.7093C22.2641 55.5242 22.7167 53.0578 22.8584 52.2336C23.344 49.4095 23.8164 46.5594 23.8688 43.6885C23.8802 43.0682 23.8758 42.4477 23.8758 41.8274C23.8758 41.6399 23.8786 41.4523 23.8758 41.2649C23.8751 41.216 23.8655 41.362 23.8619 41.4107C23.6049 44.8898 22.9119 48.3263 22.2091 51.7371C21.7947 53.7486 21.3011 55.7429 20.8897 57.7544C20.7532 58.4215 20.8978 57.6915 20.9279 57.501C21.1926 55.8244 21.404 54.1383 21.598 52.4524C21.9305 49.5636 22.3501 46.6295 22.3758 43.7163C22.3793 43.3211 22.4025 43.0866 22.2786 43.7024C21.9497 45.3365 21.6348 46.9739 21.3272 48.6121C20.8379 51.2174 20.2966 53.8385 20.105 56.4871C20.0864 56.7442 19.9902 57.2192 20.0668 57.4871C20.0966 57.5914 20.0989 57.2723 20.1084 57.1642C20.1689 56.4752 20.2127 55.8201 20.2577 55.1225C20.4797 51.6822 20.7843 48.1622 20.5008 44.7163C20.4749 44.4018 20.3871 43.4759 20.3272 43.7857C20.1615 44.6415 20.2192 45.6105 20.1466 46.4732C19.807 50.5092 19.1709 54.5079 18.4279 58.4871C18.3202 59.0637 18.1959 59.6427 18.1327 60.2267C18.0868 60.6514 18.246 59.3797 18.2994 58.9558C18.7578 55.3148 18.8939 51.6549 18.8619 47.9871C18.8572 47.4531 18.9506 46.6265 18.8133 46.0774C18.7807 45.947 18.8048 46.3459 18.7994 46.4801C18.7707 47.1918 18.7474 47.6467 18.7091 48.4038C18.5313 51.9213 18.2757 55.4558 18.3272 58.9801C18.3378 59.7068 18.3181 60.5465 18.5598 61.2475C18.5835 61.3163 18.6292 61.484 18.6952 61.31C18.7967 61.0425 18.8583 60.4211 18.8793 60.2371C19.3369 56.2251 19.134 52.1839 18.98 48.1607C18.9166 46.5065 18.9314 46.9429 18.8897 45.5635C18.8834 45.355 18.9196 44.7381 18.8619 44.9385C18.7337 45.3836 18.7582 45.8591 18.7161 46.3204C18.5991 47.5991 18.4335 49.5681 18.3411 50.7857C18.0754 54.2862 17.7289 57.8752 18.0633 61.3864C18.0876 61.6419 18.1115 61.8363 18.1536 62.0808C18.1665 62.1562 18.1664 62.351 18.223 62.2996C18.3552 62.1794 18.2998 61.9497 18.3168 61.7718C18.3792 61.1162 18.4072 60.5071 18.4313 59.8413C18.5884 55.5109 18.4143 51.1782 18.3411 46.8482C18.3219 45.7128 18.5693 42.3176 18.6119 43.4524C18.6411 44.232 18.5646 45.0307 18.5216 45.8065C18.396 48.0737 18.2719 50.3408 18.157 52.6086C18.0496 54.7302 17.9322 56.8526 17.8862 58.9767C17.8752 59.4858 17.767 60.224 17.8862 60.7406C17.9435 60.9887 18.0408 60.253 18.0772 60.001C18.3477 58.126 18.417 56.2185 18.4591 54.3274C18.5347 50.9324 18.3105 47.5218 18.5355 44.1329C18.8336 39.6436 17.5914 53.1073 17.7057 57.6051C17.7231 58.2912 17.7795 58.9744 17.8758 59.6538C17.913 59.9165 17.9378 60.2566 18.0633 60.501C18.1118 60.5955 18.1675 60.3083 18.1744 60.2024C18.2058 59.7195 18.2247 59.2342 18.2508 58.751" stroke="#021120" stroke-width="2" stroke-linecap="round"/>
<path d="M16.6883 38.5634C16.5984 38.2153 16.5606 38.5233 16.5147 38.7301C16.3591 39.4303 16.2791 40.1584 16.1883 40.869C16.1371 41.2693 16.0904 41.6701 16.039 42.0704C16.0368 42.0871 16.0272 42.3565 15.9869 42.3968C15.9328 42.4509 15.9452 42.2476 15.9452 42.1711C15.9452 41.8365 15.9781 41.501 16.0008 41.1676C16.0664 40.2043 16.0633 37.3063 16.0633 38.2718C16.0633 38.6302 16.124 39.0505 16.0598 39.4037C16.0504 39.4553 16.0008 38.7511 16.0008 38.5634C16.0008 38.303 15.8133 38.326 15.8133 38.5877C15.8133 39.8824 16.0533 41.1101 16.0633 42.4037C16.074 43.7849 16.008 45.1677 16.0008 46.5495C15.9991 46.8708 15.9888 47.1907 15.9695 47.5113C15.9594 47.6792 15.9791 48.1779 15.9383 48.0148C15.8959 47.8455 15.9405 47.4962 15.9452 47.3481C15.9641 46.7581 16.0135 46.171 16.0772 45.5843C16.2002 44.4508 16.7154 41.0714 16.4869 42.1884C16.3971 42.6273 16.3578 43.0837 16.3133 43.5287C16.2603 44.0586 16.3623 44.9312 16.0945 45.4072C16.0512 45.4842 15.9433 44.6735 15.9418 44.6086C15.9272 43.9986 15.9595 43.3874 15.907 42.7787C15.8245 41.821 15.6596 43.2354 15.6397 43.487C15.6137 43.8145 15.6258 44.145 15.6258 44.4731C15.6258 44.6114 15.663 44.425 15.6883 44.3759C15.7649 44.2271 15.8365 44.2382 15.8758 44.4106C16.0046 44.976 16.0411 45.58 16.0633 46.1572C16.094 46.9546 16.1258 47.7514 16.1258 48.5495C16.1258 48.8704 15.9905 49.7812 16.164 49.5113C16.2809 49.3295 16.3081 48.9087 16.3411 48.7231C16.4691 48.0016 16.57 47.2771 16.657 46.5495C16.8038 45.3231 16.9135 44.0906 17.1223 42.8725C17.1284 42.8366 17.1752 42.7517 17.1883 42.7856C17.2603 42.9721 17.2684 43.2164 17.2786 43.4072C17.3849 45.3977 17.2318 47.3992 17.1293 49.3863C17.052 50.883 16.9588 52.3971 17.0043 53.8968C17.0078 54.0141 16.9735 54.3196 17.0633 54.244C17.1789 54.1466 17.1354 53.9496 17.1536 53.7995C17.2054 53.3703 17.2711 52.6122 17.2994 52.2162C17.4413 50.2294 17.486 48.2303 17.3133 46.244C17.2802 45.8641 17.2355 45.484 17.1918 45.1051C17.1834 45.0327 17.1569 44.8309 17.1258 44.8968C17.0111 45.1395 17.0435 45.6597 17.032 45.8863C16.9955 46.6093 16.9703 47.3329 16.9522 48.0565C16.925 49.138 16.8946 50.2188 16.8445 51.2995C16.837 51.4628 16.8762 51.8611 16.7994 52.0287C16.7145 52.214 16.7097 51.6303 16.6848 51.428C16.5559 50.381 16.4348 49.3188 16.3827 48.2648C16.3793 48.1955 16.3096 46.894 16.1883 47.5218C16.0301 48.3408 16.2298 49.2238 16.0494 50.0356C15.9112 50.6574 16.0232 48.7618 15.9869 48.1259C15.9765 47.9434 16.0111 47.5772 15.9244 47.4037C15.8739 47.3027 15.7743 47.456 15.7647 47.5009C15.6853 47.8715 15.7508 48.3114 15.7508 48.6884C15.7508 49.0977 15.7485 49.4989 15.8133 49.9037C15.9899 51.0074 15.8758 52.194 15.8758 53.3134C15.8758 54.017 15.8712 54.7519 15.7994 55.4523C15.7791 55.6503 15.7324 55.9303 15.7647 55.5287C15.8238 54.7927 15.9203 54.0633 15.9348 53.3238C15.9438 52.8634 15.9383 52.4024 15.9383 51.9419C15.9383 51.5646 15.9383 52.6965 15.9383 53.0738C15.9383 54.8123 15.9383 56.5507 15.9383 58.2891C15.9383 58.3574 15.9383 58.4257 15.9383 58.494C15.9383 58.4986 15.9383 58.4847 15.9383 58.4801C15.9383 58.0495 15.9383 57.619 15.9383 57.1884C15.9383 56.25 15.9175 55.3166 15.8793 54.3794C15.8185 52.8911 15.8758 57.3586 15.8758 58.8482C15.8758 59.7298 15.8639 60.6124 15.8758 61.494C15.8869 62.3167 16.0468 61.3405 16.0633 61.0912C16.1272 60.1263 16.1814 59.1556 16.1883 58.1884C16.1884 58.1726 16.1785 57.7465 16.1918 58.1502C16.2058 58.5775 16.2326 59.0044 16.2508 59.4315C16.3081 60.7766 16.3613 62.1214 16.4244 63.4662C16.4368 63.7314 16.4349 64.0018 16.4765 64.2648C16.4903 64.3525 16.5848 64.5785 16.6119 64.494C16.7356 64.1086 16.7021 63.5851 16.7161 63.1954C16.7434 62.4294 16.7482 61.663 16.7647 60.8968C16.7793 60.2158 16.6932 58.1918 16.848 58.8551C17.1266 60.0491 17.0357 61.4087 17.0911 62.6259C17.1291 63.4629 17.0088 64.5608 17.3133 65.3655C17.4074 65.6143 17.4492 65.188 17.4522 65.1676C17.5386 64.5808 17.5763 63.9838 17.6258 63.3933C17.7047 62.4502 17.654 61.3287 17.9661 60.4211C18.036 60.2177 18.1493 61.2078 18.1536 61.2718C18.2148 62.1812 18.1883 63.0969 18.1883 64.0079C18.1883 64.0375 18.1778 64.7339 18.2299 64.6155C18.6594 63.6395 18.8438 62.4535 19.098 61.4245C19.3307 60.4827 19.5384 59.5341 19.7647 58.5912C19.9539 57.8025 19.653 60.2104 19.5494 61.0148C19.4056 62.1307 19.1968 63.2544 19.1883 64.3829C19.1807 65.3869 19.4215 63.7023 19.4313 63.6329C19.7356 61.4754 19.9777 59.2858 20.4869 57.1641C20.5386 56.9486 20.646 56.3348 20.723 56.5426C20.8322 56.8375 20.7494 57.414 20.7404 57.6954C20.6826 59.4845 19.8587 64.7772 20.3272 63.0495C20.8805 61.009 21.6759 54.7276 21.6258 56.8412C21.5866 58.4938 21.2825 60.1345 21.0355 61.7648C21.0171 61.8865 20.7097 64.3611 20.8063 64.3412C20.9717 64.3072 21.0652 63.8473 21.0806 63.7857C21.3231 62.8157 21.4716 61.8125 21.6327 60.8273C21.9712 58.7574 22.2181 56.6703 22.6258 54.612C22.6837 54.3194 22.8133 53.4388 22.8133 53.737C22.8133 55.8546 22.6265 57.9666 22.3723 60.0669C22.1936 61.5433 22.0031 63.0185 21.8168 64.494C21.7357 65.1353 21.8221 64.5593 21.8619 64.3482C22.0455 63.3742 22.2418 62.4028 22.4556 61.435C22.8383 59.7032 23.2605 57.9788 23.4834 56.2162C23.7021 54.4874 23.7609 52.7331 23.8619 50.994C23.8758 50.7536 23.8871 50.0312 23.8758 50.2718C23.8018 51.8495 23.6144 53.4237 23.4522 54.994C23.2724 56.7339 23.0958 58.4739 22.8758 60.2093C22.7257 61.393 22.519 62.5771 22.4383 63.7683C22.4334 63.8398 22.3138 64.5266 22.4591 64.1502C22.9106 62.9805 23.2239 61.7349 23.532 60.5218C24.2911 57.5337 24.5008 54.4994 24.5008 51.428C24.5008 50.7625 24.5008 50.097 24.5008 49.4315C24.5008 49.1404 24.5008 48.7713 24.5008 49.3481C24.5008 53.0097 23.7679 56.6491 23.1119 60.237C22.9372 61.1924 22.5831 62.2558 22.6258 63.237C22.6395 63.5524 22.8924 63.1621 22.9313 63.0843C23.4926 61.9616 23.8169 60.7005 24.1223 59.4905C25.1345 55.4807 25.8856 51.3944 25.6883 47.2509" stroke="#021120" stroke-width="2" stroke-linecap="round"/>
<path d="M22.3758 64.501C22.9027 64.6631 23.0983 63.8192 23.2577 63.4593C23.8272 62.174 24.2427 60.8258 24.6536 59.4836C24.7716 59.0982 24.9106 58.7122 24.9938 58.3169C25.0079 58.25 24.9954 58.651 24.9938 58.6746C24.9309 59.634 24.6201 60.5962 24.348 61.5114C24.1263 62.257 23.8599 62.9893 23.6952 63.751C23.6192 64.1029 23.6926 63.6944 23.7404 63.5669C24.1517 62.47 24.4314 61.3569 24.6848 60.2163C24.7127 60.0908 24.8 59.7236 24.8098 59.8517C24.8307 60.1227 24.791 60.4018 24.7438 60.6676C24.5739 61.6269 24.3702 62.5791 24.223 63.5426C24.1848 63.7927 24.0527 64.5361 24.1327 64.2961C24.2793 63.8563 24.521 63.4529 24.657 63.0044C24.8835 62.2581 25.0096 61.4569 25.0598 60.6781C25.0832 60.3161 24.9297 61.0164 24.9105 61.0913C24.8051 61.5033 24.7282 61.9223 24.657 62.3413C24.609 62.6242 24.5195 62.8748 24.4418 63.1468C24.3786 63.368 24.582 62.7067 24.6848 62.501C25.0489 61.7729 25.2445 60.9504 25.5008 60.1815C25.7251 59.5086 25.8758 58.7556 25.8758 58.0461C25.8758 57.826 25.7814 58.4763 25.723 58.6885C25.5999 59.136 25.4946 59.5897 25.4105 60.0461C25.389 60.1629 25.2955 60.5067 25.3168 60.3899C25.3893 59.9907 25.5094 59.6015 25.598 59.2058C25.7769 58.4067 25.9986 57.6054 26.0841 56.7892C26.1803 55.8708 26.1258 54.9263 26.1258 54.0044C26.1258 52.662 26.1883 51.3209 26.1883 49.9801C26.1883 49.6192 26.1545 50.6584 26.1501 50.7093C26.0313 52.0689 25.8891 53.4287 25.6883 54.7788C25.5165 55.9338 25.3133 57.1669 25.3133 58.3413C25.3133 58.5453 25.2046 58.9681 25.5008 58.9385C25.8978 58.8988 26.2083 57.7191 26.2994 57.4107C26.454 56.8875 26.4822 56.2765 26.5008 55.7371C26.5073 55.547 26.5254 55.3727 26.5772 55.1885C26.6276 55.0091 26.4737 55.6577 26.4522 55.7371C26.358 56.0848 26.2746 56.4466 26.2022 56.7996C26.1477 57.0652 26.332 56.2729 26.3897 56.0079C26.7034 54.567 26.8272 53.1517 26.9244 51.6815C26.9703 50.9881 26.9383 50.2861 26.9383 49.5913C26.9383 49.481 26.9383 49.0042 26.9383 49.4107C26.9383 50.6726 26.6291 51.8756 26.5633 53.126C26.545 53.4729 26.623 52.4325 26.6883 52.0913C26.9307 50.8237 27.0829 49.5756 27.1397 48.2857C27.1657 47.6941 27.1883 47.107 27.1883 46.5149C27.1883 46.2752 27.1887 46.5712 27.1883 46.619C27.1841 47.0557 27.152 47.4898 27.1119 47.9246C27.0599 48.4882 27.0001 49.0512 26.9244 49.6121C26.9127 49.6987 26.8668 50.5328 26.7647 50.5635C26.7091 50.5802 26.7515 50.4479 26.7508 50.3899C26.749 50.2325 26.75 50.075 26.7508 49.9176C26.7542 49.2065 26.7718 48.4958 26.8133 47.7857C26.8928 46.4256 27.1645 45.0472 27.1883 43.6885C27.2008 42.9737 27.2447 42.2261 27.1744 41.5149C27.1085 40.8472 26.9469 40.1562 26.9383 39.4871C26.9314 38.9503 26.9383 38.4129 26.9383 37.876C26.9383 37.2962 26.9575 37.0294 26.5633 36.5635" stroke="#021120" stroke-width="2" stroke-linecap="round"/>
<path d="M27.9383 35.9385C27.8684 36.8905 27.6972 37.8606 27.6883 38.8135C27.6841 39.2579 27.6883 40.5913 27.6883 40.1468C27.6883 39.0512 27.6234 37.9346 27.7022 36.8413C27.7157 36.6535 27.7508 36.0906 27.7508 36.2788C27.7508 36.6919 27.7558 37.1053 27.7473 37.5183C27.717 39.0058 27.5649 40.4886 27.5043 41.9732C27.4758 42.67 27.451 43.3373 27.348 44.0288C27.3069 44.3051 27.2707 44.5935 27.2543 44.8725C27.2404 45.108 27.2402 45.1929 27.2543 44.8899C27.2826 44.2814 27.4065 43.6765 27.4661 43.0704C27.5473 42.243 27.5455 41.4112 27.6258 40.5843C27.6581 40.2521 27.7328 39.9244 27.7508 39.5913C27.7601 39.4198 27.8122 39.5926 27.8133 39.6676C27.8302 40.8004 27.7581 41.9134 27.7022 43.0426C27.6602 43.8916 27.6765 44.7839 27.5494 45.626C27.5378 45.7031 27.4828 45.9849 27.5147 45.7301C27.6037 45.0178 27.7055 44.3049 27.7473 43.5878C27.7849 42.9433 27.8133 42.2959 27.8133 41.6503C27.8133 41.4376 27.8209 41.4405 27.8098 41.6503C27.7423 42.933 27.6471 44.239 27.5008 45.5149C27.409 46.3151 27.3802 47.1195 27.2994 47.9176C27.2538 48.3684 27.1258 48.8172 27.1258 49.2683C27.1258 50.1418 27.2655 47.5271 27.3445 46.6572C27.3874 46.1858 27.3891 45.6969 27.4695 45.2301C27.5305 44.8769 27.5008 45.3679 27.5008 45.4524C27.5008 46.4945 27.4419 47.5233 27.3411 48.56C27.3051 48.93 27.2165 49.2933 27.1918 49.6642C27.1851 49.7641 27.1851 49.7763 27.1883 49.6538C27.1978 49.2886 27.2625 48.9362 27.3272 48.5774C27.4724 47.7719 27.5907 46.9614 27.723 46.1538C27.7556 45.9551 27.7233 45.3765 27.8133 45.5565C27.926 45.7818 27.7696 46.3722 27.7369 46.5982C27.6511 47.1918 27.5386 47.7801 27.4661 48.376C27.3721 49.1473 27.2651 49.9219 27.1397 50.6885C27.0788 51.0605 26.9309 51.4105 26.8758 51.7822C26.8341 52.0637 26.6883 52.3669 26.6883 52.6503C26.6883 53.2392 26.8836 51.4886 26.9973 50.9107C27.0689 50.5466 27.1367 50.1679 27.1813 49.7996C27.2194 49.4861 27.1883 49.7724 27.1883 49.9176C27.1883 50.7248 27.0994 51.562 26.9869 52.3621C26.9671 52.5028 26.9383 52.9278 26.9383 52.7857C26.9383 52.3863 27.031 51.983 27.098 51.5913C27.1524 51.2731 27.1934 50.9462 27.2994 50.6399C27.3823 50.4002 27.3118 51.1489 27.2786 51.4003C27.2375 51.7114 27.1525 52.0174 27.1293 52.3308C27.1061 52.6433 27.1771 52.2055 27.1918 52.1433C27.271 51.8067 27.3133 51.4855 27.3133 51.1399C27.3133 51.1094 27.3069 51.0201 27.2994 51.0496C27.1865 51.4939 26.9847 51.8906 26.8133 52.3135" stroke="#021120" stroke-width="2" stroke-linecap="round"/>
<path d="M16.3133 62.5635C16.2376 62.4166 16.1656 62.2646 16.032 62.1607C15.887 62.0479 15.9383 62.7326 15.9383 62.7857C15.9383 63.1549 15.9383 63.5242 15.9383 63.8934C15.9383 64.1994 15.937 63.779 15.9383 63.7024C15.9435 63.3906 16.0414 63.0849 16.0598 62.7718C16.0856 62.3333 16.0698 62.9512 16.0772 63.0704C16.152 64.2768 16.1982 65.5235 16.032 66.7232C15.96 67.2438 15.8288 67.7739 15.8133 68.2996C15.8027 68.6595 15.7977 68.5195 15.8202 68.2371C15.9081 67.139 16.4383 66.1472 16.4383 65.0288C16.4383 63.7973 16.4383 67.4917 16.4383 68.7232C16.4383 68.8291 16.4254 70.2467 16.5077 70.2232C16.6962 70.1694 16.9112 69.4529 16.9557 69.3448C17.303 68.5003 17.5656 67.6296 17.8341 66.7579C17.9794 66.2864 18.1164 65.8073 18.2994 65.3482C18.3004 65.3457 18.5706 64.7854 18.598 64.8274C18.6887 64.9661 18.5484 65.5574 18.5355 65.6364C18.3747 66.6199 18.1432 67.5907 17.9001 68.5566C17.8213 68.8697 17.7327 69.1785 17.7022 69.501C17.7012 69.5112 17.6664 70.0249 17.7439 69.9663C18.0549 69.7309 18.2195 69.0649 18.3341 68.7441C18.6945 67.7356 18.9795 66.7032 19.3202 65.6885C19.3743 65.5275 19.5655 65.0707 19.5633 65.2406C19.5509 66.2048 19.3348 67.2054 19.1432 68.1468C19.0815 68.4495 18.7925 69.1052 18.8758 69.4385C18.9012 69.54 18.9823 69.2581 19.0286 69.1642C19.3311 68.5507 19.63 67.9373 19.9036 67.31C20.1569 66.729 20.3913 66.1396 20.6709 65.5704C20.6909 65.5298 20.8309 65.1607 20.9001 65.1607C21.0548 65.1607 20.4203 67.144 20.3619 67.2857C20.1054 67.9083 19.7559 68.4997 19.5425 69.1399C19.0675 70.5647 21.1873 66.6229 21.9105 65.3066C21.9461 65.2417 22.4776 64.4132 22.4904 64.56C22.5481 65.2237 22.0254 66.0804 21.7369 66.6399C21.3264 67.436 20.8035 68.1528 20.355 68.9246C20.3064 69.0083 19.838 69.779 19.9904 69.6399C20.9938 68.7238 21.8368 67.8035 22.4383 66.567C22.7206 65.9867 22.9433 65.2363 23.4348 64.7857C23.5232 64.7048 23.5801 64.6607 23.5494 64.8413C23.4773 65.2662 23.2212 65.6635 22.9869 66.0149C22.6038 66.5895 22.1583 67.1178 21.7508 67.6746C21.5848 67.9014 21.2451 68.3892 21.6605 67.876C22.3297 67.0493 22.98 66.2425 23.4244 65.2649C23.4845 65.1327 23.915 63.8759 23.8064 64.6364C23.6964 65.4059 23.1589 66.1846 22.7855 66.8413C22.7406 66.9202 22.3134 67.6509 22.5564 67.3204C22.8454 66.9273 23.1507 66.5103 23.3897 66.0843C23.6295 65.6569 23.7101 64.9736 24.0772 64.6399C24.1991 64.5291 24.1607 64.7625 24.1466 64.7996C24.0013 65.1828 23.7537 65.5443 23.5251 65.8829C22.8924 66.8203 22.3034 67.7922 21.6119 68.6885C21.3761 68.9942 21.1273 69.2927 20.8897 69.5982C20.6484 69.9085 20.2736 70.0821 20.032 70.3795C19.6553 70.8432 19.1617 71.3335 18.6883 71.6885" stroke="#021120" stroke-width="2" stroke-linecap="round"/>
<path d="M17.2508 72.6885C18.1179 72.6735 19.0435 71.9996 19.6848 71.4385C19.9923 71.1694 20.3141 70.8752 20.6015 70.5878C20.8448 70.3445 21.0211 70.0467 21.3098 69.8482C21.5906 69.6552 21.8457 69.2559 22.0633 68.9871C22.2506 68.7557 22.4225 68.5002 22.6258 68.2857C23.0981 67.7871 23.3906 66.961 23.5633 66.3135" stroke="#021120" stroke-width="2" stroke-linecap="round"/>
<path d="M16.6258 71.3135C16.6258 70.6681 16.6137 70.0366 16.6848 69.3968C16.7351 68.9445 16.5278 70.2939 16.4244 70.7371C16.3564 71.0285 16.1952 71.9044 16.1952 71.6051C16.1952 70.9301 16.4928 70.2617 16.5008 69.5704C16.5025 69.4217 16.5008 68.674 16.5008 69.2058C16.5008 69.4258 16.4969 69.6435 16.4695 69.8621C16.452 70.0024 16.478 70.3892 16.3897 70.2787C16.2821 70.1443 16.4417 68.2214 16.2508 69.3551C16.2151 69.5668 16.0575 70.251 16.1918 70.4523C16.3194 70.6437 16.2508 69.9949 16.2508 69.7648C16.2508 69.7221 16.2394 69.4444 16.2543 69.6155C16.297 70.1075 16.3247 70.5987 16.3619 71.0912C16.3822 71.3601 16.4625 71.8318 16.3445 72.0912C16.2967 72.1964 16.3537 71.5225 16.3619 71.4246C16.3683 71.3488 16.4383 70.7064 16.4383 70.8621C16.4383 71.2492 16.4372 71.6192 16.5008 72.001" stroke="#021120" stroke-width="2" stroke-linecap="round"/>
<path d="M16.1258 73.6885C16.1558 73.317 16.2508 72.2047 16.2508 72.5774C16.2508 72.8704 16.2086 73.2746 16.032 73.5218C15.9986 73.5687 16.0872 73.3629 16.098 73.3413C16.2099 73.1174 16.1074 73.4222 16.0772 73.494C16.0017 73.6732 15.9383 73.7676 15.9383 73.9628C15.9383 73.9731 15.9871 73.8819 16.0008 73.8621C16.0836 73.7425 16.2079 73.6746 16.2994 73.5635C16.4442 73.3877 16.5373 73.376 16.7508 73.376C16.8968 73.376 16.9378 73.4931 17.0633 73.5496C17.3666 73.6861 17.6805 73.3866 17.914 73.251C18.4144 72.9604 19.0824 72.8956 19.4383 72.3899C19.5831 72.1842 19.8539 71.8993 19.8723 71.6503C19.8994 71.2846 19.9673 70.5958 19.5494 70.4176C19.1037 70.2277 18.4108 71.1662 18.1397 71.3899C18.1041 71.4192 17.7992 71.7049 17.7647 71.5565C17.6968 71.2646 17.8518 70.9158 17.9244 70.6399C18.1321 69.8507 17.7968 70.7193 17.7195 70.994C17.6761 71.1484 17.608 71.2519 17.7161 71.0357C18.048 70.3719 18.4052 69.7202 18.7508 69.0635" stroke="#021120" stroke-width="2" stroke-linecap="round"/>
<path d="M16.0633 1.56346C16.0633 1.33781 16.147 1.14064 16.2369 0.938458C16.4185 0.529918 15.8676 0.68436 16.1258 0.813458" stroke="#021120" stroke-linecap="round"/>
<path d="M16.1258 1.12596C16.036 1.26624 16.0008 1.53833 16.0008 1.26485C16.0008 0.988684 16.0008 1.45781 16.0008 1.27874C16.0008 1.14107 16.0285 1.07602 16.0598 0.966242C16.109 0.794134 16.0484 0.888565 16.1883 1.06346" stroke="#021120" stroke-linecap="round"/>
<path d="M13 72C13 72 1.51767 63.028 2 41C3.44659 9.18182 16 2 16 2" stroke="#F5EFE7" stroke-width="3" stroke-linecap="round" stroke-linejoin="round"/>
</svg>
