<svg width="52" height="42" viewBox="0 0 52 42" fill="none" xmlns="http://www.w3.org/2000/svg">
<mask id="path-1-inside-1_67_4269" fill="white">
<path d="M51.3654 40.6275C49.694 40.6275 48.0227 40.6275 46.3513 40.6275C44.2765 40.6275 42.2594 40.6275 40.1846 40.6275C40.1846 37.5834 40.1846 34.5393 40.1846 31.4951C40.1846 31.261 40.1846 30.9683 40.1846 30.7341C41.5678 30.7341 42.951 30.7341 44.3341 30.7341C46.1784 30.7341 48.0227 30.7341 49.8669 30.7341C50.4432 30.7341 50.6738 30.0316 50.328 29.6218C48.8871 27.8656 47.4463 26.1679 46.0055 24.4116C46.87 24.4116 47.7345 24.4116 48.599 24.4116C49.1753 24.4116 49.4058 23.7092 49.06 23.2994C47.3311 21.1919 45.5444 19.0844 43.8154 16.9769C45.0257 16.9769 46.236 16.9769 47.3887 16.9769C47.965 16.9769 48.1956 16.2744 47.8498 15.8646C46.0631 13.6986 44.2765 11.5326 42.4323 9.36658C43.0086 9.36658 43.5273 9.36658 44.1036 9.36658C44.7376 9.36658 44.9105 8.66409 44.5647 8.2543C42.6628 5.91265 40.7033 3.51247 38.8014 1.17082C38.5132 0.819576 38.2827 0.52687 37.9945 0.175623C37.764 -0.0585411 37.3029 -0.0585411 37.0724 0.175623C35.2858 2.34164 33.5568 4.50767 31.7702 6.67369C30.3293 4.91745 28.8885 3.10268 27.4477 1.34645C27.1595 0.936658 26.8137 0.585411 26.5256 0.175623C26.295 -0.0585411 25.834 -0.0585411 25.6034 0.175623C23.9321 2.22456 22.2031 4.33204 20.5317 6.38098C18.8604 4.33204 17.1314 2.22456 15.46 0.175623C15.2295 -0.0585411 14.7684 -0.0585411 14.5379 0.175623C12.636 2.51727 10.6765 4.91745 8.77462 7.2591C8.48645 7.61035 8.25592 7.90305 7.96776 8.2543C7.62196 8.66409 7.85249 9.36658 8.42882 9.36658C9.00515 9.36658 9.52384 9.36658 10.1002 9.36658C8.54408 11.2399 7.04563 13.0547 5.48954 14.928C5.20137 15.2207 4.97084 15.5719 4.68268 15.8646C4.33688 16.2744 4.56741 16.9769 5.14374 16.9769C6.35403 16.9769 7.56432 16.9769 8.71698 16.9769C7.21853 18.7917 5.72007 20.5479 4.22161 22.3627C3.93345 22.6554 3.70292 23.0067 3.41475 23.2994C3.06895 23.7092 3.29949 24.4116 3.87582 24.4116C4.74031 24.4116 5.6048 24.4116 6.4693 24.4116C5.02847 26.1679 3.58765 27.8656 2.14683 29.6218C1.80103 30.0316 2.03156 30.7341 2.60789 30.7341C5.83534 30.7341 9.06278 30.7341 12.2902 30.7341C12.2902 33.7782 12.2902 36.8224 12.2902 39.8665C12.2902 40.1007 12.2902 40.3934 12.2902 40.6275C10.5036 40.6275 8.65935 40.6275 6.87273 40.6275C4.85558 40.6275 2.78079 40.569 0.763636 40.6275C0.706003 40.6275 0.706004 40.6275 0.648371 40.6275C-0.216124 40.6275 -0.216124 41.974 0.648371 41.974C2.31973 41.974 3.99108 41.974 5.66244 41.974C8.08302 41.974 10.5036 41.974 12.9242 41.974C14.2497 41.974 15.5753 41.974 16.8432 41.974C17.1314 41.974 17.4772 41.974 17.7654 41.974C19.8401 41.974 21.9149 41.974 23.9897 41.974C25.3153 41.974 26.6408 41.974 27.9088 41.974C29.4072 41.974 30.9057 41.974 32.4041 41.974C33.4415 41.974 34.4213 41.974 35.4587 41.974C36.7842 41.974 38.1098 41.974 39.3777 41.974C41.2796 41.974 43.1239 41.974 45.0257 41.974C47.0429 41.974 49.1177 42.0325 51.1348 41.974C51.1925 41.974 51.1925 41.974 51.2501 41.974C52.2299 41.974 52.2299 40.6275 51.3654 40.6275ZM38.859 39.8665C38.859 40.1007 38.859 40.3934 38.859 40.6275C37.9945 40.6275 37.0724 40.6275 36.2079 40.6275C36.2079 37.5834 36.2079 34.5393 36.2079 31.4951C36.2079 31.261 36.2079 30.9683 36.2079 30.7341C36.8995 30.7341 37.6487 30.7341 38.3403 30.7341C38.5132 30.7341 38.6861 30.7341 38.859 30.7341C38.859 33.7782 38.859 36.8224 38.859 39.8665ZM27.3901 39.8665C27.3901 40.1007 27.3901 40.3934 27.3901 40.6275C26.5256 40.6275 25.6034 40.6275 24.7389 40.6275C24.7389 37.5834 24.7389 34.5393 24.7389 31.4951C24.7389 31.261 24.7389 30.9683 24.7389 30.7341C25.6034 30.7341 26.5256 30.7341 27.3901 30.7341C27.3901 33.7782 27.3901 36.8224 27.3901 39.8665ZM16.3245 39.8665C16.3245 40.1007 16.3245 40.3934 16.3245 40.6275C15.46 40.6275 14.5379 40.6275 13.6734 40.6275C13.6734 37.5834 13.6734 34.5393 13.6734 31.4951C13.6734 31.261 13.6734 30.9683 13.6734 30.7341C13.731 30.7341 13.7311 30.7341 13.7887 30.7341C14.6532 30.7341 15.46 30.7341 16.3245 30.7341C16.3245 33.7782 16.3245 36.8224 16.3245 39.8665ZM37.5335 1.63915C39.2624 3.74663 40.9914 5.91265 42.7204 8.02013C42.1441 8.02013 41.5678 8.02013 40.9914 8.02013C40.4151 8.02013 40.1846 8.72263 40.5304 9.13241C42.317 11.2984 44.1036 13.4645 45.9479 15.6305C44.7376 15.6305 43.5273 15.6305 42.3746 15.6305C41.7983 15.6305 41.5678 16.333 41.9136 16.7428C43.6425 18.8502 45.4292 20.9577 47.1582 23.0652C46.2937 23.0652 45.4292 23.0652 44.5647 23.0652C43.9883 23.0652 43.7578 23.7677 44.1036 24.1775C45.5444 25.9337 46.9853 27.6314 48.4261 29.3876C45.4868 29.3876 42.5475 29.3876 39.6659 29.3876C39.6082 29.3876 39.6082 29.3876 39.5506 29.3876C39.2624 29.3876 38.9743 29.3876 38.6861 29.3876C37.3029 27.6899 35.9197 26.0508 34.5365 24.3531C35.401 24.3531 36.2655 24.3531 37.13 24.3531C37.7064 24.3531 37.9369 23.6506 37.5911 23.2408C35.8621 21.1333 34.0755 19.0259 32.3465 16.9184C32.4618 16.9184 32.6347 16.9184 32.7499 16.9184C33.7873 16.9184 34.8823 16.9184 35.9197 16.9184C36.4961 16.9184 36.7266 16.2159 36.3808 15.8061C34.5942 13.6401 32.8076 11.4741 30.9633 9.30804C31.5396 9.30804 32.0583 9.30804 32.6347 9.30804C32.6923 9.30804 32.6923 9.30804 32.7499 9.30804C32.8076 9.30804 32.8652 9.2495 32.9228 9.2495C32.9228 9.2495 32.9805 9.2495 32.9805 9.19096L33.0381 9.13241C33.0381 9.13241 33.0381 9.13241 33.0957 9.07387C33.1534 9.01533 33.1534 9.01533 33.1534 8.95679C33.1534 8.89825 33.211 8.83971 33.211 8.78117V8.72263V8.66409C33.211 8.48846 33.1534 8.31284 33.0381 8.19576C32.8652 8.02013 32.7499 7.84451 32.577 7.61035C34.2484 5.61995 35.9197 3.62955 37.5335 1.63915ZM26.0645 1.63915C27.7935 3.74663 29.4648 5.79557 31.1938 7.90305C31.2515 7.96159 31.2515 7.96159 31.3091 8.02013C31.1938 8.02013 31.1362 8.02013 31.0209 8.02013C30.5599 8.02013 30.0988 8.02013 29.6377 8.02013C29.0614 8.02013 28.8309 8.72263 29.1767 9.13241C30.9633 11.2984 32.7499 13.4645 34.5942 15.6305C33.3839 15.6305 32.1736 15.6305 31.0209 15.6305C30.9633 15.6305 30.9633 15.6305 30.9057 15.6305C30.7904 15.6305 30.6751 15.689 30.5599 15.8061L30.5022 15.8646C30.5022 15.8646 30.5022 15.9232 30.4446 15.9232V15.9817C30.387 16.0988 30.387 16.2159 30.387 16.333C30.387 16.333 30.387 16.333 30.387 16.3915C30.387 16.5086 30.4446 16.6257 30.5599 16.7428C32.2889 18.8502 34.0755 20.9577 35.8045 23.0652C34.9976 23.0652 34.1907 23.0652 33.3839 23.0652C33.2686 23.0067 33.0957 23.0652 32.9805 23.1237C32.4041 23.2994 32.3465 23.8848 32.6347 24.236C34.0755 25.9923 35.5163 27.6899 36.9571 29.4462C36.4961 29.4462 36.035 29.4462 35.5739 29.4462C33.7297 29.4462 31.8854 29.4462 30.0412 29.4462C29.4072 29.4462 28.7156 29.4462 28.0817 29.4462C26.7561 29.4462 25.4305 29.4462 24.1626 29.4462C21.8573 29.4462 19.552 29.4462 17.2467 29.4462C17.189 29.4462 17.1314 29.4462 17.0738 29.4462C16.4974 29.4462 15.8635 29.4462 15.2871 29.4462C16.728 27.6899 18.1688 25.9923 19.6096 24.236C19.9554 23.8262 19.7249 23.1237 19.1485 23.1237C18.2841 23.1237 17.4196 23.1237 16.5551 23.1237C17.9959 21.3675 19.4367 19.6113 20.8775 17.9136C20.9352 17.7965 21.0504 17.738 21.1081 17.6209L21.1657 17.5623C21.3962 17.3282 21.5691 17.0355 21.7997 16.8013C21.8573 16.6842 21.9149 16.5671 21.9726 16.4501V16.3915C21.9726 16.333 21.9726 16.2744 21.9726 16.2159C21.9726 16.1573 21.9726 16.0988 21.9149 16.0403V15.9817C21.8573 15.8061 21.6844 15.689 21.5115 15.689C21.4539 15.689 21.4539 15.689 21.3962 15.689C20.1859 15.689 18.9756 15.689 17.823 15.689C19.3791 13.8157 20.8775 12.0009 22.4336 10.1276C22.7218 9.83491 22.9523 9.48366 23.2405 9.19096C23.5863 8.78117 23.3558 8.07867 22.7794 8.07867C22.4336 8.07867 22.1455 8.07867 21.7997 8.07867C21.5691 8.07867 21.3386 8.07867 21.1081 8.07867C22.6642 6.14682 24.2779 4.21496 25.834 2.2831C25.7187 1.9904 25.8916 1.81477 26.0645 1.63915ZM4.10635 29.4462C5.54717 27.6899 6.98799 25.9923 8.42882 24.236C8.77462 23.8262 8.54408 23.1237 7.96776 23.1237C7.10326 23.1237 6.23877 23.1237 5.37427 23.1237C6.87273 21.309 8.37119 19.5527 9.86964 17.738C10.1578 17.4453 10.3883 17.094 10.6765 16.8013C11.0223 16.3915 10.7918 15.689 10.2154 15.689C9.00515 15.689 7.79486 15.689 6.6422 15.689C8.19829 13.8157 9.69674 12.0009 11.2528 10.1276C11.541 9.83491 11.7715 9.48366 12.0597 9.19096C12.4055 8.78117 12.175 8.07867 11.5986 8.07867C11.0223 8.07867 10.446 8.07867 9.86964 8.07867C11.4834 6.08828 13.0971 4.09788 14.7108 2.16602C14.8261 2.04894 14.9413 1.87332 15.0566 1.75623C16.6127 3.68809 18.1688 5.56141 19.7249 7.49326C19.4943 7.78597 19.2638 8.02013 19.0333 8.31284C18.918 8.42992 18.8604 8.66409 18.8604 8.83971V8.89825C18.8604 8.89825 18.8604 8.89825 18.8604 8.95679V9.01533V9.07387C18.8604 9.07387 18.8604 9.13241 18.918 9.13241C18.9756 9.2495 19.1485 9.36658 19.3214 9.36658C19.3791 9.36658 19.3791 9.36658 19.4367 9.36658C20.013 9.36658 20.5317 9.36658 21.1081 9.36658C19.552 11.2399 18.0535 13.0547 16.4974 14.928C16.2093 15.2207 15.9787 15.5719 15.6906 15.8646C15.3448 16.2744 15.5753 16.9769 16.1516 16.9769C17.2467 16.9769 18.3417 16.9769 19.4367 16.9769C19.4943 17.0355 19.552 17.094 19.552 17.1525C18.1112 18.8502 16.728 20.5479 15.2871 22.3042C14.999 22.6554 14.7108 23.0067 14.4226 23.3579C14.0768 23.7677 14.3074 24.4702 14.8837 24.4702C15.7482 24.4702 16.6127 24.4702 17.4772 24.4702C16.094 26.1679 14.7108 27.807 13.3276 29.5047C13.1547 29.5047 13.0395 29.5047 12.8666 29.5047C11.3105 29.5047 9.69674 29.5047 8.14065 29.5047C6.93036 29.4462 5.54717 29.4462 4.10635 29.4462ZM17.6501 40.6275C17.6501 37.5834 17.6501 34.5393 17.6501 31.4951C17.6501 31.261 17.6501 30.9683 17.6501 30.7341C19.1485 30.7341 20.647 30.7341 22.1455 30.7341C22.6065 30.7341 23.01 30.7341 23.471 30.7341C23.471 33.7782 23.471 36.8224 23.471 39.8665C23.471 40.1007 23.471 40.3934 23.471 40.6275C22.2031 40.6275 20.9352 40.6275 19.6672 40.6275C18.9756 40.6275 18.2841 40.6275 17.6501 40.6275ZM28.7156 40.6275C28.7156 37.5834 28.7156 34.5393 28.7156 31.4951C28.7156 31.261 28.7156 30.9683 28.7156 30.7341C30.7904 30.7341 32.8652 30.7341 34.94 30.7341C34.94 33.7782 34.94 36.8224 34.94 39.8665C34.94 40.1007 34.94 40.3934 34.94 40.6275C34.7094 40.6275 34.4789 40.6275 34.2484 40.6275C32.4041 40.6275 30.5599 40.6275 28.7156 40.6275Z"/>
</mask>
<path d="M51.3654 40.6275C49.694 40.6275 48.0227 40.6275 46.3513 40.6275C44.2765 40.6275 42.2594 40.6275 40.1846 40.6275C40.1846 37.5834 40.1846 34.5393 40.1846 31.4951C40.1846 31.261 40.1846 30.9683 40.1846 30.7341C41.5678 30.7341 42.951 30.7341 44.3341 30.7341C46.1784 30.7341 48.0227 30.7341 49.8669 30.7341C50.4432 30.7341 50.6738 30.0316 50.328 29.6218C48.8871 27.8656 47.4463 26.1679 46.0055 24.4116C46.87 24.4116 47.7345 24.4116 48.599 24.4116C49.1753 24.4116 49.4058 23.7092 49.06 23.2994C47.3311 21.1919 45.5444 19.0844 43.8154 16.9769C45.0257 16.9769 46.236 16.9769 47.3887 16.9769C47.965 16.9769 48.1956 16.2744 47.8498 15.8646C46.0631 13.6986 44.2765 11.5326 42.4323 9.36658C43.0086 9.36658 43.5273 9.36658 44.1036 9.36658C44.7376 9.36658 44.9105 8.66409 44.5647 8.2543C42.6628 5.91265 40.7033 3.51247 38.8014 1.17082C38.5132 0.819576 38.2827 0.52687 37.9945 0.175623C37.764 -0.0585411 37.3029 -0.0585411 37.0724 0.175623C35.2858 2.34164 33.5568 4.50767 31.7702 6.67369C30.3293 4.91745 28.8885 3.10268 27.4477 1.34645C27.1595 0.936658 26.8137 0.585411 26.5256 0.175623C26.295 -0.0585411 25.834 -0.0585411 25.6034 0.175623C23.9321 2.22456 22.2031 4.33204 20.5317 6.38098C18.8604 4.33204 17.1314 2.22456 15.46 0.175623C15.2295 -0.0585411 14.7684 -0.0585411 14.5379 0.175623C12.636 2.51727 10.6765 4.91745 8.77462 7.2591C8.48645 7.61035 8.25592 7.90305 7.96776 8.2543C7.62196 8.66409 7.85249 9.36658 8.42882 9.36658C9.00515 9.36658 9.52384 9.36658 10.1002 9.36658C8.54408 11.2399 7.04563 13.0547 5.48954 14.928C5.20137 15.2207 4.97084 15.5719 4.68268 15.8646C4.33688 16.2744 4.56741 16.9769 5.14374 16.9769C6.35403 16.9769 7.56432 16.9769 8.71698 16.9769C7.21853 18.7917 5.72007 20.5479 4.22161 22.3627C3.93345 22.6554 3.70292 23.0067 3.41475 23.2994C3.06895 23.7092 3.29949 24.4116 3.87582 24.4116C4.74031 24.4116 5.6048 24.4116 6.4693 24.4116C5.02847 26.1679 3.58765 27.8656 2.14683 29.6218C1.80103 30.0316 2.03156 30.7341 2.60789 30.7341C5.83534 30.7341 9.06278 30.7341 12.2902 30.7341C12.2902 33.7782 12.2902 36.8224 12.2902 39.8665C12.2902 40.1007 12.2902 40.3934 12.2902 40.6275C10.5036 40.6275 8.65935 40.6275 6.87273 40.6275C4.85558 40.6275 2.78079 40.569 0.763636 40.6275C0.706003 40.6275 0.706004 40.6275 0.648371 40.6275C-0.216124 40.6275 -0.216124 41.974 0.648371 41.974C2.31973 41.974 3.99108 41.974 5.66244 41.974C8.08302 41.974 10.5036 41.974 12.9242 41.974C14.2497 41.974 15.5753 41.974 16.8432 41.974C17.1314 41.974 17.4772 41.974 17.7654 41.974C19.8401 41.974 21.9149 41.974 23.9897 41.974C25.3153 41.974 26.6408 41.974 27.9088 41.974C29.4072 41.974 30.9057 41.974 32.4041 41.974C33.4415 41.974 34.4213 41.974 35.4587 41.974C36.7842 41.974 38.1098 41.974 39.3777 41.974C41.2796 41.974 43.1239 41.974 45.0257 41.974C47.0429 41.974 49.1177 42.0325 51.1348 41.974C51.1925 41.974 51.1925 41.974 51.2501 41.974C52.2299 41.974 52.2299 40.6275 51.3654 40.6275ZM38.859 39.8665C38.859 40.1007 38.859 40.3934 38.859 40.6275C37.9945 40.6275 37.0724 40.6275 36.2079 40.6275C36.2079 37.5834 36.2079 34.5393 36.2079 31.4951C36.2079 31.261 36.2079 30.9683 36.2079 30.7341C36.8995 30.7341 37.6487 30.7341 38.3403 30.7341C38.5132 30.7341 38.6861 30.7341 38.859 30.7341C38.859 33.7782 38.859 36.8224 38.859 39.8665ZM27.3901 39.8665C27.3901 40.1007 27.3901 40.3934 27.3901 40.6275C26.5256 40.6275 25.6034 40.6275 24.7389 40.6275C24.7389 37.5834 24.7389 34.5393 24.7389 31.4951C24.7389 31.261 24.7389 30.9683 24.7389 30.7341C25.6034 30.7341 26.5256 30.7341 27.3901 30.7341C27.3901 33.7782 27.3901 36.8224 27.3901 39.8665ZM16.3245 39.8665C16.3245 40.1007 16.3245 40.3934 16.3245 40.6275C15.46 40.6275 14.5379 40.6275 13.6734 40.6275C13.6734 37.5834 13.6734 34.5393 13.6734 31.4951C13.6734 31.261 13.6734 30.9683 13.6734 30.7341C13.731 30.7341 13.7311 30.7341 13.7887 30.7341C14.6532 30.7341 15.46 30.7341 16.3245 30.7341C16.3245 33.7782 16.3245 36.8224 16.3245 39.8665ZM37.5335 1.63915C39.2624 3.74663 40.9914 5.91265 42.7204 8.02013C42.1441 8.02013 41.5678 8.02013 40.9914 8.02013C40.4151 8.02013 40.1846 8.72263 40.5304 9.13241C42.317 11.2984 44.1036 13.4645 45.9479 15.6305C44.7376 15.6305 43.5273 15.6305 42.3746 15.6305C41.7983 15.6305 41.5678 16.333 41.9136 16.7428C43.6425 18.8502 45.4292 20.9577 47.1582 23.0652C46.2937 23.0652 45.4292 23.0652 44.5647 23.0652C43.9883 23.0652 43.7578 23.7677 44.1036 24.1775C45.5444 25.9337 46.9853 27.6314 48.4261 29.3876C45.4868 29.3876 42.5475 29.3876 39.6659 29.3876C39.6082 29.3876 39.6082 29.3876 39.5506 29.3876C39.2624 29.3876 38.9743 29.3876 38.6861 29.3876C37.3029 27.6899 35.9197 26.0508 34.5365 24.3531C35.401 24.3531 36.2655 24.3531 37.13 24.3531C37.7064 24.3531 37.9369 23.6506 37.5911 23.2408C35.8621 21.1333 34.0755 19.0259 32.3465 16.9184C32.4618 16.9184 32.6347 16.9184 32.7499 16.9184C33.7873 16.9184 34.8823 16.9184 35.9197 16.9184C36.4961 16.9184 36.7266 16.2159 36.3808 15.8061C34.5942 13.6401 32.8076 11.4741 30.9633 9.30804C31.5396 9.30804 32.0583 9.30804 32.6347 9.30804C32.6923 9.30804 32.6923 9.30804 32.7499 9.30804C32.8076 9.30804 32.8652 9.2495 32.9228 9.2495C32.9228 9.2495 32.9805 9.2495 32.9805 9.19096L33.0381 9.13241C33.0381 9.13241 33.0381 9.13241 33.0957 9.07387C33.1534 9.01533 33.1534 9.01533 33.1534 8.95679C33.1534 8.89825 33.211 8.83971 33.211 8.78117V8.72263V8.66409C33.211 8.48846 33.1534 8.31284 33.0381 8.19576C32.8652 8.02013 32.7499 7.84451 32.577 7.61035C34.2484 5.61995 35.9197 3.62955 37.5335 1.63915ZM26.0645 1.63915C27.7935 3.74663 29.4648 5.79557 31.1938 7.90305C31.2515 7.96159 31.2515 7.96159 31.3091 8.02013C31.1938 8.02013 31.1362 8.02013 31.0209 8.02013C30.5599 8.02013 30.0988 8.02013 29.6377 8.02013C29.0614 8.02013 28.8309 8.72263 29.1767 9.13241C30.9633 11.2984 32.7499 13.4645 34.5942 15.6305C33.3839 15.6305 32.1736 15.6305 31.0209 15.6305C30.9633 15.6305 30.9633 15.6305 30.9057 15.6305C30.7904 15.6305 30.6751 15.689 30.5599 15.8061L30.5022 15.8646C30.5022 15.8646 30.5022 15.9232 30.4446 15.9232V15.9817C30.387 16.0988 30.387 16.2159 30.387 16.333C30.387 16.333 30.387 16.333 30.387 16.3915C30.387 16.5086 30.4446 16.6257 30.5599 16.7428C32.2889 18.8502 34.0755 20.9577 35.8045 23.0652C34.9976 23.0652 34.1907 23.0652 33.3839 23.0652C33.2686 23.0067 33.0957 23.0652 32.9805 23.1237C32.4041 23.2994 32.3465 23.8848 32.6347 24.236C34.0755 25.9923 35.5163 27.6899 36.9571 29.4462C36.4961 29.4462 36.035 29.4462 35.5739 29.4462C33.7297 29.4462 31.8854 29.4462 30.0412 29.4462C29.4072 29.4462 28.7156 29.4462 28.0817 29.4462C26.7561 29.4462 25.4305 29.4462 24.1626 29.4462C21.8573 29.4462 19.552 29.4462 17.2467 29.4462C17.189 29.4462 17.1314 29.4462 17.0738 29.4462C16.4974 29.4462 15.8635 29.4462 15.2871 29.4462C16.728 27.6899 18.1688 25.9923 19.6096 24.236C19.9554 23.8262 19.7249 23.1237 19.1485 23.1237C18.2841 23.1237 17.4196 23.1237 16.5551 23.1237C17.9959 21.3675 19.4367 19.6113 20.8775 17.9136C20.9352 17.7965 21.0504 17.738 21.1081 17.6209L21.1657 17.5623C21.3962 17.3282 21.5691 17.0355 21.7997 16.8013C21.8573 16.6842 21.9149 16.5671 21.9726 16.4501V16.3915C21.9726 16.333 21.9726 16.2744 21.9726 16.2159C21.9726 16.1573 21.9726 16.0988 21.9149 16.0403V15.9817C21.8573 15.8061 21.6844 15.689 21.5115 15.689C21.4539 15.689 21.4539 15.689 21.3962 15.689C20.1859 15.689 18.9756 15.689 17.823 15.689C19.3791 13.8157 20.8775 12.0009 22.4336 10.1276C22.7218 9.83491 22.9523 9.48366 23.2405 9.19096C23.5863 8.78117 23.3558 8.07867 22.7794 8.07867C22.4336 8.07867 22.1455 8.07867 21.7997 8.07867C21.5691 8.07867 21.3386 8.07867 21.1081 8.07867C22.6642 6.14682 24.2779 4.21496 25.834 2.2831C25.7187 1.9904 25.8916 1.81477 26.0645 1.63915ZM4.10635 29.4462C5.54717 27.6899 6.98799 25.9923 8.42882 24.236C8.77462 23.8262 8.54408 23.1237 7.96776 23.1237C7.10326 23.1237 6.23877 23.1237 5.37427 23.1237C6.87273 21.309 8.37119 19.5527 9.86964 17.738C10.1578 17.4453 10.3883 17.094 10.6765 16.8013C11.0223 16.3915 10.7918 15.689 10.2154 15.689C9.00515 15.689 7.79486 15.689 6.6422 15.689C8.19829 13.8157 9.69674 12.0009 11.2528 10.1276C11.541 9.83491 11.7715 9.48366 12.0597 9.19096C12.4055 8.78117 12.175 8.07867 11.5986 8.07867C11.0223 8.07867 10.446 8.07867 9.86964 8.07867C11.4834 6.08828 13.0971 4.09788 14.7108 2.16602C14.8261 2.04894 14.9413 1.87332 15.0566 1.75623C16.6127 3.68809 18.1688 5.56141 19.7249 7.49326C19.4943 7.78597 19.2638 8.02013 19.0333 8.31284C18.918 8.42992 18.8604 8.66409 18.8604 8.83971V8.89825C18.8604 8.89825 18.8604 8.89825 18.8604 8.95679V9.01533V9.07387C18.8604 9.07387 18.8604 9.13241 18.918 9.13241C18.9756 9.2495 19.1485 9.36658 19.3214 9.36658C19.3791 9.36658 19.3791 9.36658 19.4367 9.36658C20.013 9.36658 20.5317 9.36658 21.1081 9.36658C19.552 11.2399 18.0535 13.0547 16.4974 14.928C16.2093 15.2207 15.9787 15.5719 15.6906 15.8646C15.3448 16.2744 15.5753 16.9769 16.1516 16.9769C17.2467 16.9769 18.3417 16.9769 19.4367 16.9769C19.4943 17.0355 19.552 17.094 19.552 17.1525C18.1112 18.8502 16.728 20.5479 15.2871 22.3042C14.999 22.6554 14.7108 23.0067 14.4226 23.3579C14.0768 23.7677 14.3074 24.4702 14.8837 24.4702C15.7482 24.4702 16.6127 24.4702 17.4772 24.4702C16.094 26.1679 14.7108 27.807 13.3276 29.5047C13.1547 29.5047 13.0395 29.5047 12.8666 29.5047C11.3105 29.5047 9.69674 29.5047 8.14065 29.5047C6.93036 29.4462 5.54717 29.4462 4.10635 29.4462ZM17.6501 40.6275C17.6501 37.5834 17.6501 34.5393 17.6501 31.4951C17.6501 31.261 17.6501 30.9683 17.6501 30.7341C19.1485 30.7341 20.647 30.7341 22.1455 30.7341C22.6065 30.7341 23.01 30.7341 23.471 30.7341C23.471 33.7782 23.471 36.8224 23.471 39.8665C23.471 40.1007 23.471 40.3934 23.471 40.6275C22.2031 40.6275 20.9352 40.6275 19.6672 40.6275C18.9756 40.6275 18.2841 40.6275 17.6501 40.6275ZM28.7156 40.6275C28.7156 37.5834 28.7156 34.5393 28.7156 31.4951C28.7156 31.261 28.7156 30.9683 28.7156 30.7341C30.7904 30.7341 32.8652 30.7341 34.94 30.7341C34.94 33.7782 34.94 36.8224 34.94 39.8665C34.94 40.1007 34.94 40.3934 34.94 40.6275C34.7094 40.6275 34.4789 40.6275 34.2484 40.6275C32.4041 40.6275 30.5599 40.6275 28.7156 40.6275Z" fill="#021120" stroke="#F8F8F8" stroke-width="0.4" mask="url(#path-1-inside-1_67_4269)"/>
</svg>
