<svg width="30" height="100" viewBox="0 0 30 100" fill="none" xmlns="http://www.w3.org/2000/svg">
<path d="M18.9383 20.8135C18.8661 22.8546 18.2775 24.6644 17.6188 26.5774C17.407 27.1926 17.1839 27.8158 17.0425 28.4524C17.0378 28.4732 17.0498 28.5352 17.0563 28.5149C17.2867 27.7951 17.4393 27.035 17.6015 26.2996C17.9282 24.8186 18.1976 23.3301 18.4244 21.8309C18.5228 21.1802 18.5887 20.512 18.7508 19.8725C18.7742 19.7801 18.9178 19.2382 18.9591 19.6815C19.0583 20.7446 18.84 21.8833 18.6605 22.9246C18.4693 24.0343 18.2073 25.1303 18.0008 26.2371C17.8917 26.8219 17.5076 28.5527 17.73 28.001C18.115 27.0454 18.1983 25.8483 18.348 24.8482C18.577 23.3193 18.8238 21.7642 18.9279 20.2197C18.9403 20.0356 18.9383 19.852 18.9383 19.6677C18.9383 19.6159 18.7298 20.4368 18.7091 20.5149C18.189 22.4782 17.4889 24.4611 17.2612 26.4871C17.2347 26.723 17.3061 27.4015 17.1883 27.1954C17.1031 27.0464 17.1626 26.8531 17.157 26.6815C17.138 26.0935 17.1319 25.7056 17.1362 25.0947C17.1484 23.3739 17.3472 21.6618 17.3758 19.9454C17.3762 19.92 17.3791 19.8438 17.3758 19.869C17.3587 20.0001 17.3687 19.9645 17.3341 20.1399C17.2273 20.6817 17.062 21.2087 16.973 21.7545C16.8148 22.7246 16.7068 23.7023 16.5633 24.6746C16.4946 25.1403 16.4673 25.6094 16.3758 26.067C16.2827 26.5323 16.0633 27.9304 16.0633 27.4559C16.0633 26.2765 16.1883 25.1162 16.1883 23.9385C16.1883 22.8746 16.2949 21.7858 16.4522 20.7371C16.5175 20.3015 16.6883 19.8444 16.6883 19.4072C16.6883 18.685 16.7768 17.922 16.907 17.2128C17.0842 16.2484 17.0862 15.298 17.1744 14.3274C17.2878 13.0804 17.4905 11.8293 17.5008 10.5774C17.5179 8.48556 17.6181 6.42325 17.4244 4.34127C17.3607 3.65675 17.3758 2.97064 17.3758 2.28224C17.3758 1.88689 16.851 1.86534 16.8133 1.56349C16.808 1.52104 16.7585 1.41643 16.7369 1.37599C16.708 1.32182 16.6883 1.82834 16.6883 1.90724C16.6883 2.72401 16.7237 3.54984 16.6848 4.36558C16.6477 5.14503 16.3758 5.8747 16.3758 6.66766C16.3758 7.56756 16.2367 8.46352 16.1918 9.3621C16.1211 10.7755 15.8133 12.1987 15.8133 13.6121C15.8133 17.8855 15.8843 22.1674 15.7508 26.4385" stroke="#021120" stroke-width="2" stroke-linecap="round"/>
<path d="M16.5008 9.68842C16.4901 9.60297 16.1734 10.2104 16.1258 10.3412C16.0603 10.5212 16.1789 9.71406 16.1536 9.76481C16.1041 9.86382 15.8599 10.7925 15.973 10.3724C16.058 10.0567 16.072 9.7881 16.1293 9.47314C16.1884 9.14774 16.1712 9.92674 16.1258 10.0495C16.0221 10.3301 15.9498 10.5916 15.9383 10.8898C15.9269 11.1864 15.5256 11.53 16.0008 11.6884" stroke="#021120" stroke-width="2" stroke-linecap="round"/>
<path d="M17.7508 15.2509C17.7941 16.578 17.8133 17.9023 17.8133 19.2301C17.8133 20.2536 17.738 21.3131 17.848 22.3343C17.8582 22.4288 17.9831 23.2545 17.9973 22.7301C18.0513 20.7346 18.0093 18.7295 17.9973 16.7336C17.99 15.5251 17.9201 14.3135 17.9383 13.1051C17.954 12.063 18.3189 13.8273 18.3341 14.0218C18.4985 16.1177 18.3772 18.271 18.3341 20.369C18.2967 22.1905 18.2259 24.0156 18.2647 25.8377C18.2694 26.0594 18.2537 26.5774 18.3897 26.8343C18.4111 26.8748 18.4794 26.7823 18.4869 26.7371C18.6053 26.0268 18.5749 25.2557 18.598 24.5426C18.6835 21.9087 18.8827 19.2825 18.9869 16.6502C19.0169 15.8934 19.0085 15.1322 18.9695 14.3759C18.9079 13.1794 19.0534 14.8847 19.0668 15.0773C19.2702 18.0022 19.271 20.9355 19.3168 23.8655C19.3394 25.3134 19.298 26.867 19.7161 28.2718C19.7275 28.3102 19.8422 28.765 19.9383 28.7787C19.9695 28.7832 19.9859 28.7328 19.9938 28.7023C20.0531 28.4737 20.0588 27.8793 20.0633 27.7475C20.1643 24.7812 20.2072 21.8126 20.1813 18.8447C20.1709 17.6419 20.1868 16.4224 20.0008 15.2301C19.8576 14.312 20.2628 16.0233 20.2647 16.0357C20.688 18.7958 20.6306 21.5962 20.8063 24.3759C20.9294 26.3228 21.2086 28.2213 21.5355 30.1398C21.55 30.2249 21.6813 31.3002 21.6813 30.6016C21.6813 28.1264 21.5045 25.6389 21.3341 23.1711C21.1827 20.9779 21.1167 18.6615 20.5425 16.5252C20.502 16.3749 20.3764 15.8863 20.5147 16.5357C20.7644 17.7081 20.9917 18.8818 21.1744 20.0669C21.5432 22.4588 21.7279 24.8743 22.105 27.2648C22.301 28.5078 22.4681 29.8358 22.8758 31.0357C22.9022 31.1134 23.0019 31.3961 22.9765 31.0739C22.9215 30.3769 22.7776 29.6794 22.6883 28.9871C22.3087 26.0444 22.1245 23.0798 21.723 20.1398C21.6052 19.2767 21.4634 18.4162 21.3029 17.56C21.244 17.2462 21.2214 17.1564 21.355 17.5634C22.0814 19.7773 22.4251 22.0417 22.73 24.3482C22.9949 26.3532 23.1158 28.384 23.473 30.3759C23.5276 30.6804 23.6997 31.5879 23.6883 31.2787C23.6321 29.7623 23.4391 28.2457 23.3202 26.7336C23.1418 24.4639 23.1029 22.1737 22.657 19.935C22.5092 19.1925 22.2524 18.4398 22.1918 17.6815C22.181 17.5474 22.2998 17.9284 22.3411 18.0565C22.6431 18.9938 22.9167 19.9371 23.1397 20.8968C23.9335 24.3131 24.1652 27.8519 24.723 31.3134C24.7385 31.4094 24.7532 31.5056 24.7682 31.6016C24.7805 31.6815 24.8066 31.8603 24.7647 31.5704C24.6725 30.9338 24.5758 30.2978 24.4869 29.6607C24.1872 27.5125 23.9908 25.35 23.6397 23.2093C23.524 22.504 23.3976 21.8073 23.3793 21.0912C23.3754 20.9417 23.2875 20.2531 23.4973 20.7336C24.7521 23.6075 25.074 26.7769 25.3758 29.8621C25.4594 30.7165 25.5374 31.5741 25.657 32.4246C25.6782 32.5753 25.7975 33.1633 25.7091 32.6329C25.2057 29.6125 24.8341 26.5712 24.2612 23.5634C24.1629 23.0471 24.1095 22.5253 24.0772 22.0009C24.068 21.8516 24.0509 21.4361 24.1397 21.5565C24.5443 22.1057 24.7437 22.9085 24.9452 23.5426C25.2563 24.5212 25.483 25.5319 25.6605 26.5426C25.8931 27.8668 26.0569 29.2238 26.1744 30.5634C26.213 31.0035 26.1467 32.2974 26.2994 31.8829C26.3842 31.6528 26.2202 31.194 26.1848 30.9732C26.0321 30.0185 25.9405 29.0567 25.8168 28.0982C25.6664 26.9325 25.634 25.76 25.5008 24.5947C25.4434 24.0923 25.3758 23.5727 25.3758 23.0669C25.3758 22.395 25.6339 24.3866 25.7195 25.053C25.867 26.1996 26.0472 27.3511 26.2647 28.4871C26.3272 28.8136 26.2701 29.2276 26.407 29.5287C26.4756 29.6795 26.4383 29.3968 26.4383 29.3621C26.4383 28.8835 26.4027 28.4057 26.3758 27.928C26.3179 26.901 26.1258 25.8367 26.1258 24.8134C26.1258 24.0093 26.4357 26.3924 26.5494 27.1884C26.6329 27.7726 26.6337 28.3822 26.6848 28.9697C26.7479 29.695 26.7508 30.4248 26.7508 31.1537C26.7508 31.5983 26.7508 31.438 26.7508 31.0843C26.7508 30.3273 26.7508 29.5704 26.7508 28.8134C26.7508 28.6764 26.7221 27.5126 26.7543 28.1711C26.7982 29.0726 26.9594 29.972 27.032 30.8725C27.0384 30.9513 27.0706 31.921 27.0633 31.5773C27.0497 30.9395 27.0087 29.0336 26.9383 29.6676C26.8595 30.3763 27.0108 31.1671 27.0633 31.8759C27.1049 32.4381 27.1258 32.9894 27.1258 33.553C27.1258 34.1514 27.1258 34.7498 27.1258 35.3482C27.1258 35.9611 27.1258 34.7933 27.1258 34.6746C27.1258 33.8181 27.1258 32.9616 27.1258 32.1051C27.1258 31.8237 27.1079 31.562 27.1848 31.2926C27.2071 31.2147 27.1853 31.4549 27.1918 31.5357C27.2125 31.7948 27.2588 32.0536 27.282 32.3134C27.3486 33.0584 27.4383 33.786 27.4383 34.5322C27.4383 35.6049 27.4729 36.6827 27.3758 37.7509" stroke="#021120" stroke-width="2" stroke-linecap="round"/>
<path d="M18.6258 9.75098C18.5532 10.9122 18.5708 12.0699 18.6015 13.2336C18.6279 14.2356 18.668 15.237 18.7369 16.2371C18.7716 16.741 18.7795 17.2859 18.9383 17.7718C18.9566 17.8279 19.05 17.9624 19.0564 17.9038C19.1268 17.2518 19.0497 16.5309 19.0147 15.8829C18.8853 13.4841 18.619 11.0849 18.2855 8.70584C18.237 8.35971 18.0239 7.32992 18.3202 8.34126C19.073 10.9101 19.5263 13.5608 20.2022 16.1503C20.5484 17.4767 20.842 18.8886 21.348 20.1676C21.4912 20.5295 21.4117 19.9022 21.4105 19.8899C21.3005 18.7149 21.0757 17.5491 20.8619 16.3899C20.3945 13.8556 19.8011 11.3598 19.2022 8.85515C19.1725 8.73111 19.0553 8.40791 19.0911 8.26487C19.116 8.16519 19.1754 8.45254 19.2091 8.54959C19.3094 8.8382 19.5449 9.5494 19.6189 9.7857C20.4619 12.4782 21.0334 15.2463 21.9105 17.9281C22.1743 18.7346 22.4515 19.5346 22.7716 20.3204C22.842 20.4932 22.8946 20.6206 22.9591 20.7926C22.9883 20.8705 22.9829 21.0752 23.0494 21.0253C23.0707 21.0093 23.0524 20.9719 23.0494 20.9454C23.0241 20.7176 22.958 20.3521 22.9175 20.1538C22.6342 18.7686 22.2713 17.397 21.9175 16.0288C21.4825 14.3466 20.9846 12.6658 20.664 10.9558C20.6471 10.8656 20.5669 10.6256 20.6397 10.6815C20.8715 10.8598 21.0604 11.7763 21.1327 11.9871C22.0013 14.5165 22.6535 17.1159 23.5355 19.6399C23.6765 20.0432 24.1029 21.2399 24.0425 20.817C23.9939 20.4771 23.852 20.1173 23.7577 19.7926C23.3959 18.5466 23.0379 17.2992 22.6883 16.0496C22.4673 15.2596 22.2495 14.4693 22.0598 13.6711C22.0069 13.4485 21.7943 12.7998 21.8966 13.0045C22.1413 13.4939 22.26 14.1312 22.4209 14.6468C22.7911 15.8325 23.1337 17.0268 23.5251 18.2058C23.869 19.2417 24.2276 20.2777 24.6119 21.2996C24.6669 21.4457 24.7188 21.5925 24.7682 21.7406C24.8569 22.0067 24.5709 21.2153 24.473 20.9524C23.7521 19.0166 23.1307 17.0252 22.6258 15.0218C22.5547 14.7398 22.3229 13.8996 22.4175 14.1746C22.5941 14.6883 22.8049 15.1904 22.9869 15.7024C23.7118 17.7416 24.3916 19.7885 25.1744 21.8065C25.4072 22.4066 25.6055 23.0477 25.8793 23.6295C26.2538 24.4253 26.4097 25.0082 26.3133 25.876" stroke="#021120" stroke-width="2" stroke-linecap="round"/>
<path d="M21.1258 10.001C21.7614 11.3096 22.1727 12.7243 22.7022 14.0774C22.7551 14.2127 23.0666 14.8983 23.0598 14.8274C22.9809 13.999 22.6201 13.1966 22.3966 12.4038C22.2229 11.7873 22.1368 11.0299 21.848 10.4524C21.6356 10.0274 22.1238 11.3624 22.2925 11.8065C22.6429 12.7294 23.5322 15.54 23.3654 14.5669C23.2387 13.8277 23.002 13.1008 22.8133 12.376C22.7125 11.9889 22.6443 11.3124 22.407 10.9801C22.1088 10.5626 22.6305 11.9829 22.782 12.4732C23.2524 13.9948 23.965 15.4573 24.3619 17.001C24.5859 17.8722 24.7914 18.7601 24.9869 19.6399C25.1978 20.5888 25.4203 21.5666 25.5043 22.5322C25.5335 22.8685 25.6077 23.1822 25.6883 23.5044C25.7844 23.8887 25.9061 24.2328 25.8723 23.5565C25.8396 22.9022 25.6258 22.2479 25.6258 21.5947C25.6258 21.5283 25.6258 22.1345 25.6258 22.3135" stroke="#021120" stroke-width="2" stroke-linecap="round"/>
<path d="M18.2508 5.87596C18.2632 5.70206 18.3749 5.97564 18.3932 6.01137C18.6969 6.60619 18.9359 7.23509 19.1536 7.86554C19.2426 8.1234 19.4612 8.89155 19.473 8.61901C19.4905 8.21774 19.1911 7.66626 19.0772 7.29262C18.9289 6.80652 18.7834 6.31967 18.6327 5.83429C18.6037 5.74068 18.3848 5.1646 18.5147 5.59123C18.9334 6.96687 19.5905 8.31416 20.1779 9.62596C20.6264 10.6276 19.9617 9.28484 19.855 9.05651C19.2029 7.66159 18.7184 6.16911 17.973 4.8204C17.9305 4.74341 17.7201 4.48155 17.8966 4.6954C18.3208 5.20926 18.6542 5.76087 18.9939 6.33429C19.4293 7.06949 19.812 7.82853 20.2091 8.58429C20.236 8.63551 20.475 9.06671 20.4591 9.0079C20.3718 8.6849 20.1692 8.37251 20.0251 8.07387C19.6537 7.3039 19.3407 6.49874 19.0494 5.6954C18.8426 5.12517 18.6029 4.57658 18.3758 4.01485C18.2284 3.65025 18.0943 3.34094 17.8445 3.03568C17.8229 3.00917 17.6751 2.71184 17.6883 2.71623C18.028 2.82946 18.3249 3.48245 18.5008 3.75096C19.026 4.55261 19.4715 5.43891 19.9348 6.27873C20.6542 7.58263 22.6165 11.5969 21.9105 10.2857C21.2335 9.02832 20.6005 7.74485 19.9244 6.48707C19.5914 5.86749 19.4895 5.10276 19.0945 4.53221C18.9761 4.36109 18.8661 4.18774 18.7508 4.01485C18.479 3.60722 18.7476 3.96498 18.8827 4.16762C19.4553 5.02648 19.9394 5.96947 20.4522 6.86207C20.8283 7.51673 21.1513 8.13071 21.407 8.84123C21.5555 9.25353 21.7235 9.49877 21.6258 9.93846" stroke="#021120" stroke-width="2" stroke-linecap="round"/>
<path d="M16.2508 27.501C16.1623 28.8834 16.0481 30.3153 15.7022 31.6607C15.4582 32.6095 15.9054 29.7094 16.0911 28.7475C16.1348 28.5211 16.1883 28.3084 16.1883 28.0774C16.1883 27.9798 16.0849 28.4573 16.0772 28.5288C16.0098 29.1485 15.9619 29.7809 15.9418 30.4038C15.9216 31.0291 15.9326 30.556 15.973 30.244C16.0538 29.6206 16.3598 28.7655 16.1744 28.1399C16.1604 28.0926 16.1215 27.8604 16.1293 27.9419C16.2205 28.9004 16.256 29.8422 16.2473 30.8065C16.2337 32.3104 16.1298 33.7896 16.0147 35.2857C16.0024 35.445 15.9403 35.9062 16.0147 35.7649C16.132 35.542 16.1486 35.1719 16.1883 34.9315C16.4434 33.3865 16.4752 31.8126 16.6848 30.2614C16.7938 29.4551 16.9521 28.6482 16.9973 27.8343C17.0001 27.7834 17.0039 27.6307 17.0008 27.6815C16.9483 28.5389 16.871 29.3951 16.7994 30.251C16.6322 32.2483 16.4049 34.2587 16.3758 36.2649C16.3621 37.2067 16.4301 36.1255 16.4348 35.8031C16.4514 34.6686 16.3986 33.5444 16.3133 32.4142C16.2877 32.0748 16.3126 31.2749 16.0772 30.9871C16.0072 30.9015 15.9438 30.9523 15.907 31.0461C15.6995 31.5766 15.7652 32.3133 15.7543 32.869C15.7463 33.274 15.7508 33.6793 15.7508 34.0843C15.7508 34.4755 15.7347 33.3008 15.7647 32.9107C15.7897 32.5859 15.8758 32.2733 15.8758 31.9454C15.8758 31.6313 15.8727 32.4699 15.8723 32.4871C15.842 33.7156 15.7651 34.9462 15.7508 36.1746C15.7482 36.3944 15.7508 36.6144 15.7508 36.8343C15.7508 37.2302 15.6827 36.0454 15.657 35.6503C15.6205 35.0868 15.6258 34.5237 15.6258 33.9593C15.6258 33.5585 15.7228 34.0393 15.7369 34.1746C15.8796 35.545 15.8022 36.9368 15.973 38.3031C16.0053 38.561 16.087 39.3014 16.1744 39.0565C16.2553 38.83 16.2379 38.4985 16.2647 38.2649C16.3837 37.2247 16.454 36.1796 16.5772 35.1399C16.6944 34.1506 16.8883 33.1801 17.1883 32.2301C17.1895 32.2264 17.3489 31.7334 17.4036 31.8378C17.6567 32.3211 17.4933 33.4695 17.4869 33.9454C17.4565 36.2122 17.1883 38.4694 17.1883 40.7371C17.1883 40.9473 17.253 41.5166 17.3688 41.3413C17.5314 41.0952 17.6749 40.447 17.7161 40.2579C17.8709 39.5468 18.0573 38.3831 18.1605 37.6885C18.5514 35.0591 18.725 32.4314 18.8411 29.7788C18.862 29.2995 18.8428 27.8659 18.907 28.3413C18.9574 28.714 18.9409 29.1143 18.9383 29.4871C18.926 31.2189 18.8258 32.9497 18.6744 34.6746C18.4562 37.16 17.9183 39.6679 17.9036 42.1676C17.9028 42.2961 17.9111 42.6567 17.9765 42.5461C18.0795 42.3719 18.0792 42.1543 18.1188 41.9558C18.2193 41.4536 18.3707 40.6552 18.4557 40.1919C19.1589 36.3583 19.3939 32.5343 19.2195 28.6399C19.2117 28.4638 19.2027 28.2877 19.1883 28.1121C19.1775 27.9804 19.2086 27.6332 19.1119 27.7232C18.9375 27.8856 19.0065 28.1886 18.973 28.4246C18.9065 28.8937 18.7991 29.7921 18.7508 30.2301C18.3683 33.7001 17.9738 37.2214 18.0147 40.7163C18.0198 41.1499 18.0096 41.6407 18.1293 42.0669C18.224 42.4044 18.3357 42.3531 18.4105 41.994C18.6683 40.7567 18.6942 39.4352 18.7334 38.1781C18.7921 36.2971 18.7056 34.4247 18.5598 32.5496C18.4763 31.4751 18.3662 30.4026 18.2925 29.3274C18.2663 28.9461 18.2508 27.7993 18.2508 28.1815C18.2508 30.8166 18.1144 33.45 18.0633 36.0843C18.0123 38.7099 17.8671 41.4297 18.2786 44.0357C18.3076 44.2193 18.423 44.6988 18.5182 44.5392C18.6479 44.3214 18.7713 43.7256 18.8029 43.5878C18.9966 42.7426 19.1177 42.0858 19.2473 41.2058C19.7686 37.6673 19.932 34.1073 19.9383 30.5357C19.9393 29.9922 19.9294 29.4474 19.9383 28.9038C19.9441 28.547 19.9818 29.6164 19.9869 29.9732C20.0364 33.4489 19.8123 36.9056 19.605 40.3725C19.5174 41.8362 19.4291 43.3083 19.48 44.7753C19.4803 44.7848 19.4767 45.9802 19.657 46.0079C19.8869 46.0433 20.7912 37.8909 20.848 37.2996C21.0666 35.023 21.2098 32.741 21.3619 30.4593C21.3835 30.1355 21.4453 29.1874 21.4869 28.7857C21.5011 28.6488 21.4426 28.3541 21.5772 28.3829C21.6192 28.3919 21.6184 28.4594 21.6293 28.501C21.7187 28.8418 21.7242 29.2166 21.7334 29.56C21.802 32.1049 21.6178 34.6621 21.3966 37.1954C21.1957 39.497 20.9108 41.7904 20.7404 44.0947C20.6695 45.0532 20.5478 46.0852 20.6397 47.0496C20.6696 47.3636 20.7886 47.3234 20.8758 47.0288C21.3178 45.5346 21.4071 43.8485 21.5772 42.3135C22.007 38.4347 22.1257 34.5836 22.1952 30.6885C22.2003 30.4034 22.2691 29.5596 22.3133 29.8413C22.5533 31.3712 22.44 33.0256 22.4105 34.5635C22.3318 38.668 21.8092 42.7371 21.6397 46.8343C21.6348 46.9534 21.6327 47.0727 21.6327 47.1919C21.6327 47.2968 21.572 47.5478 21.6675 47.5044C21.8418 47.4252 21.7693 47.1345 21.7994 46.9454C21.9012 46.3067 22.0011 45.4955 22.0772 44.8794C22.618 40.4987 22.9222 36.116 23.1466 31.7093C23.1558 31.5288 23.1647 31.3482 23.1744 31.1676C23.1809 31.0471 23.1203 30.8952 23.2022 30.8065C23.301 30.6994 23.2646 31.092 23.2786 31.2371C23.3359 31.8339 23.3825 32.6793 23.3966 33.244C23.4968 37.2374 22.9372 41.1677 22.6675 45.1399C22.6431 45.4981 22.584 45.9407 22.6327 46.3065C22.6869 46.7127 22.8076 45.5048 22.8584 45.0982C23.3815 40.9138 23.7502 36.7156 24.1813 32.5218C24.2095 32.2481 24.3146 31.4585 24.3897 31.7232C24.471 32.0098 24.515 32.8665 24.5216 33.0426C24.5535 33.896 24.545 35.0724 24.5216 35.9038C24.4575 38.1819 24.2598 40.446 24.0008 42.7093C23.8611 43.9297 23.6605 45.1595 23.6258 46.3899C23.6226 46.5015 23.6076 46.8216 23.6605 46.7232C23.7444 46.5674 23.7215 46.3744 23.7438 46.1989C24.1887 42.6983 23.3577 49.1782 24.0182 44.0288C24.4445 40.7046 24.841 37.382 25.0876 34.0392C25.0988 33.887 25.1063 33.4354 25.1397 33.5843C25.3041 34.3166 25.2762 35.1805 25.2855 35.9176C25.3153 38.2782 25.1073 40.6286 24.855 42.9732C24.7065 44.353 24.4882 45.7328 24.4036 47.119C24.3892 47.3548 24.2548 47.9056 24.4765 47.8239C24.7611 47.719 24.8379 45.9244 24.855 45.7926C25.318 42.2191 25.7304 38.6359 26.1466 35.0565C26.1759 34.8051 26.187 34.5264 26.2508 34.2788C26.3682 33.823 26.3209 35.2179 26.3272 35.6885C26.3677 38.7144 26.173 41.6764 25.855 44.6815C25.7816 45.375 25.7158 46.0694 25.6293 46.7614C25.5885 47.0873 25.5831 47.4954 25.473 47.81C25.2201 48.5326 25.5844 46.2825 25.6709 45.5218C25.8674 43.7949 26.0504 42.0682 26.2126 40.3378C26.3017 39.3869 26.3427 38.4117 26.4869 37.4663C26.5247 37.2183 26.5454 37.9654 26.5494 38.2163C26.5715 39.59 26.5175 40.9659 26.3966 42.3343C26.225 44.2762 25.8645 46.2027 25.7577 48.1503C25.729 48.6744 25.8152 48.0317 25.8272 47.9454C25.9904 46.7665 26.1206 45.5832 26.2508 44.4003C26.4589 42.51 26.7827 40.593 26.8133 38.6885C26.818 38.3945 26.8208 37.5126 26.8272 37.8065C26.8562 39.1421 26.7177 40.4909 26.5494 41.8135C26.2661 44.0404 25.8325 46.2533 25.2126 48.4107C24.8379 49.7145 24.4374 51.0128 23.7473 52.1885C23.2726 52.9972 22.6656 53.7847 22.4522 54.7093C22.2641 55.5242 22.7167 53.0578 22.8584 52.2336C23.344 49.4095 23.8164 46.5594 23.8688 43.6885C23.8802 43.0682 23.8758 42.4477 23.8758 41.8274C23.8758 41.6399 23.8786 41.4523 23.8758 41.2649C23.8751 41.216 23.8655 41.362 23.8619 41.4107C23.6049 44.8898 22.9119 48.3263 22.2091 51.7371C21.7947 53.7486 21.3011 55.7429 20.8897 57.7544C20.7532 58.4215 20.8978 57.6915 20.9279 57.501C21.1926 55.8244 21.404 54.1383 21.598 52.4524C21.9305 49.5636 22.3501 46.6295 22.3758 43.7163C22.3793 43.3211 22.4025 43.0866 22.2786 43.7024C21.9497 45.3365 21.6348 46.9739 21.3272 48.6121C20.8379 51.2174 20.2966 53.8385 20.105 56.4871C20.0864 56.7442 19.9902 57.2192 20.0668 57.4871C20.0966 57.5914 20.0989 57.2723 20.1084 57.1642C20.1689 56.4752 20.2127 55.8201 20.2577 55.1225C20.4797 51.6822 20.7843 48.1622 20.5008 44.7163C20.4749 44.4018 20.3871 43.4759 20.3272 43.7857C20.1615 44.6415 20.2192 45.6105 20.1466 46.4732C19.807 50.5092 19.1709 54.5079 18.4279 58.4871C18.3202 59.0637 18.1959 59.6427 18.1327 60.2267C18.0868 60.6514 18.246 59.3797 18.2994 58.9558C18.7578 55.3148 18.8939 51.6549 18.8619 47.9871C18.8572 47.4531 18.9506 46.6265 18.8133 46.0774C18.7807 45.947 18.8048 46.3459 18.7994 46.4801C18.7707 47.1918 18.7474 47.6467 18.7091 48.4038C18.5313 51.9213 18.2757 55.4558 18.3272 58.9801C18.3378 59.7068 18.3181 60.5465 18.5598 61.2475C18.5835 61.3163 18.6292 61.484 18.6952 61.31C18.7967 61.0425 18.8583 60.4211 18.8793 60.2371C19.3369 56.2251 19.134 52.1839 18.98 48.1607C18.9166 46.5065 18.9314 46.9429 18.8897 45.5635C18.8834 45.355 18.9196 44.7381 18.8619 44.9385C18.7337 45.3836 18.7582 45.8591 18.7161 46.3204C18.5991 47.5991 18.4335 49.5681 18.3411 50.7857C18.0754 54.2862 17.7289 57.8752 18.0633 61.3864C18.0876 61.6419 18.1115 61.8363 18.1536 62.0808C18.1665 62.1562 18.1664 62.351 18.223 62.2996C18.3552 62.1794 18.2998 61.9497 18.3168 61.7718C18.3792 61.1162 18.4072 60.5071 18.4313 59.8413C18.5884 55.5109 18.4143 51.1782 18.3411 46.8482C18.3219 45.7128 18.5693 42.3176 18.6119 43.4524C18.6411 44.232 18.5646 45.0307 18.5216 45.8065C18.396 48.0737 18.2719 50.3408 18.157 52.6086C18.0496 54.7302 17.9322 56.8526 17.8862 58.9767C17.8752 59.4858 17.767 60.224 17.8862 60.7406C17.9435 60.9887 18.0408 60.253 18.0772 60.001C18.3477 58.126 18.417 56.2185 18.4591 54.3274C18.5347 50.9324 18.3105 47.5218 18.5355 44.1329C18.8336 39.6436 17.5914 53.1073 17.7057 57.6051C17.7231 58.2912 17.7795 58.9744 17.8758 59.6538C17.913 59.9165 17.9378 60.2566 18.0633 60.501C18.1118 60.5955 18.1675 60.3083 18.1744 60.2024C18.2058 59.7195 18.2247 59.2342 18.2508 58.751" stroke="#021120" stroke-width="2" stroke-linecap="round"/>
<path d="M16.6883 38.5634C16.5984 38.2153 16.5606 38.5233 16.5147 38.7301C16.3591 39.4303 16.2791 40.1584 16.1883 40.869C16.1371 41.2693 16.0904 41.6701 16.039 42.0704C16.0368 42.0871 16.0272 42.3565 15.9869 42.3968C15.9328 42.4509 15.9452 42.2476 15.9452 42.1711C15.9452 41.8365 15.9781 41.501 16.0008 41.1676C16.0664 40.2043 16.0633 37.3063 16.0633 38.2718C16.0633 38.6302 16.124 39.0505 16.0598 39.4037C16.0504 39.4553 16.0008 38.7511 16.0008 38.5634C16.0008 38.303 15.8133 38.326 15.8133 38.5877C15.8133 39.8824 16.0533 41.1101 16.0633 42.4037C16.074 43.7849 16.008 45.1677 16.0008 46.5495C15.9991 46.8708 15.9888 47.1907 15.9695 47.5113C15.9594 47.6792 15.9791 48.1779 15.9383 48.0148C15.8959 47.8455 15.9405 47.4962 15.9452 47.3481C15.9641 46.7581 16.0135 46.171 16.0772 45.5843C16.2002 44.4508 16.7154 41.0714 16.4869 42.1884C16.3971 42.6273 16.3578 43.0837 16.3133 43.5287C16.2603 44.0586 16.3623 44.9312 16.0945 45.4072C16.0512 45.4842 15.9433 44.6735 15.9418 44.6086C15.9272 43.9986 15.9595 43.3874 15.907 42.7787C15.8245 41.821 15.6596 43.2354 15.6397 43.487C15.6137 43.8145 15.6258 44.145 15.6258 44.4731C15.6258 44.6114 15.663 44.425 15.6883 44.3759C15.7649 44.2271 15.8365 44.2382 15.8758 44.4106C16.0046 44.976 16.0411 45.58 16.0633 46.1572C16.094 46.9546 16.1258 47.7514 16.1258 48.5495C16.1258 48.8704 15.9905 49.7812 16.164 49.5113C16.2809 49.3295 16.3081 48.9087 16.3411 48.7231C16.4691 48.0016 16.57 47.2771 16.657 46.5495C16.8038 45.3231 16.9135 44.0906 17.1223 42.8725C17.1284 42.8366 17.1752 42.7517 17.1883 42.7856C17.2603 42.9721 17.2684 43.2164 17.2786 43.4072C17.3849 45.3977 17.2318 47.3992 17.1293 49.3863C17.052 50.883 16.9588 52.3971 17.0043 53.8968C17.0078 54.0141 16.9735 54.3196 17.0633 54.244C17.1789 54.1466 17.1354 53.9496 17.1536 53.7995C17.2054 53.3703 17.2711 52.6122 17.2994 52.2162C17.4413 50.2294 17.486 48.2303 17.3133 46.244C17.2802 45.8641 17.2355 45.484 17.1918 45.1051C17.1834 45.0327 17.1569 44.8309 17.1258 44.8968C17.0111 45.1395 17.0435 45.6597 17.032 45.8863C16.9955 46.6093 16.9703 47.3329 16.9522 48.0565C16.925 49.138 16.8946 50.2188 16.8445 51.2995C16.837 51.4628 16.8762 51.8611 16.7994 52.0287C16.7145 52.214 16.7097 51.6303 16.6848 51.428C16.5559 50.381 16.4348 49.3188 16.3827 48.2648C16.3793 48.1955 16.3096 46.894 16.1883 47.5218C16.0301 48.3408 16.2298 49.2238 16.0494 50.0356C15.9112 50.6574 16.0232 48.7618 15.9869 48.1259C15.9765 47.9434 16.0111 47.5772 15.9244 47.4037C15.8739 47.3027 15.7743 47.456 15.7647 47.5009C15.6853 47.8715 15.7508 48.3114 15.7508 48.6884C15.7508 49.0977 15.7485 49.4989 15.8133 49.9037C15.9899 51.0074 15.8758 52.194 15.8758 53.3134C15.8758 54.017 15.8712 54.7519 15.7994 55.4523C15.7791 55.6503 15.7324 55.9303 15.7647 55.5287C15.8238 54.7927 15.9203 54.0633 15.9348 53.3238C15.9438 52.8634 15.9383 52.4024 15.9383 51.9419C15.9383 51.5646 15.9383 52.6965 15.9383 53.0738C15.9383 54.8123 15.9383 56.5507 15.9383 58.2891C15.9383 58.3574 15.9383 58.4257 15.9383 58.494C15.9383 58.4986 15.9383 58.4847 15.9383 58.4801C15.9383 58.0495 15.9383 57.619 15.9383 57.1884C15.9383 56.25 15.9175 55.3166 15.8793 54.3794C15.8185 52.8911 15.8758 57.3586 15.8758 58.8482C15.8758 59.7298 15.8639 60.6124 15.8758 61.494C15.8869 62.3167 16.0468 61.3405 16.0633 61.0912C16.1272 60.1263 16.1814 59.1556 16.1883 58.1884C16.1884 58.1726 16.1785 57.7465 16.1918 58.1502C16.2058 58.5775 16.2326 59.0044 16.2508 59.4315C16.3081 60.7766 16.3613 62.1214 16.4244 63.4662C16.4368 63.7314 16.4349 64.0018 16.4765 64.2648C16.4903 64.3525 16.5848 64.5785 16.6119 64.494C16.7356 64.1086 16.7021 63.5851 16.7161 63.1954C16.7434 62.4294 16.7482 61.663 16.7647 60.8968C16.7793 60.2158 16.6932 58.1918 16.848 58.8551C17.1266 60.0491 17.0357 61.4087 17.0911 62.6259C17.1291 63.4629 17.0088 64.5608 17.3133 65.3655C17.4074 65.6143 17.4492 65.188 17.4522 65.1676C17.5386 64.5808 17.5763 63.9838 17.6258 63.3933C17.7047 62.4502 17.654 61.3287 17.9661 60.4211C18.036 60.2177 18.1493 61.2078 18.1536 61.2718C18.2148 62.1812 18.1883 63.0969 18.1883 64.0079C18.1883 64.0375 18.1778 64.7339 18.2299 64.6155C18.6594 63.6395 18.8438 62.4535 19.098 61.4245C19.3307 60.4827 19.5384 59.5341 19.7647 58.5912C19.9539 57.8025 19.653 60.2104 19.5494 61.0148C19.4056 62.1307 19.1968 63.2544 19.1883 64.3829C19.1807 65.3869 19.4215 63.7023 19.4313 63.6329C19.7356 61.4754 19.9777 59.2858 20.4869 57.1641C20.5386 56.9486 20.646 56.3348 20.723 56.5426C20.8322 56.8375 20.7494 57.414 20.7404 57.6954C20.6826 59.4845 19.8587 64.7772 20.3272 63.0495C20.8805 61.009 21.6759 54.7276 21.6258 56.8412C21.5866 58.4938 21.2825 60.1345 21.0355 61.7648C21.0171 61.8865 20.7097 64.3611 20.8063 64.3412C20.9717 64.3072 21.0652 63.8473 21.0806 63.7857C21.3231 62.8157 21.4716 61.8125 21.6327 60.8273C21.9712 58.7574 22.2181 56.6703 22.6258 54.612C22.6837 54.3194 22.8133 53.4388 22.8133 53.737C22.8133 55.8546 22.6265 57.9666 22.3723 60.0669C22.1936 61.5433 22.0031 63.0185 21.8168 64.494C21.7357 65.1353 21.8221 64.5593 21.8619 64.3482C22.0455 63.3742 22.2418 62.4028 22.4556 61.435C22.8383 59.7032 23.2605 57.9788 23.4834 56.2162C23.7021 54.4874 23.7609 52.7331 23.8619 50.994C23.8758 50.7536 23.8871 50.0312 23.8758 50.2718C23.8018 51.8495 23.6144 53.4237 23.4522 54.994C23.2724 56.7339 23.0958 58.4739 22.8758 60.2093C22.7257 61.393 22.519 62.5771 22.4383 63.7683C22.4334 63.8398 22.3138 64.5266 22.4591 64.1502C22.9106 62.9805 23.2239 61.7349 23.532 60.5218C24.2911 57.5337 24.5008 54.4994 24.5008 51.428C24.5008 50.7625 24.5008 50.097 24.5008 49.4315C24.5008 49.1404 24.5008 48.7713 24.5008 49.3481C24.5008 53.0097 23.7679 56.6491 23.1119 60.237C22.9372 61.1924 22.5831 62.2558 22.6258 63.237C22.6395 63.5524 22.8924 63.1621 22.9313 63.0843C23.4926 61.9616 23.8169 60.7005 24.1223 59.4905C25.1345 55.4807 25.8856 51.3944 25.6883 47.2509" stroke="#021120" stroke-width="2" stroke-linecap="round"/>
<path d="M22.3758 64.501C22.9027 64.6631 23.0983 63.8192 23.2577 63.4593C23.8272 62.174 24.2427 60.8258 24.6536 59.4836C24.7716 59.0982 24.9106 58.7122 24.9938 58.3169C25.0079 58.25 24.9954 58.651 24.9938 58.6746C24.9309 59.634 24.6201 60.5962 24.348 61.5114C24.1263 62.257 23.8599 62.9893 23.6952 63.751C23.6192 64.1029 23.6926 63.6944 23.7404 63.5669C24.1517 62.47 24.4314 61.3569 24.6848 60.2163C24.7127 60.0908 24.8 59.7236 24.8098 59.8517C24.8307 60.1227 24.791 60.4018 24.7438 60.6676C24.5739 61.6269 24.3702 62.5791 24.223 63.5426C24.1848 63.7927 24.0527 64.5361 24.1327 64.2961C24.2793 63.8563 24.521 63.4529 24.657 63.0044C24.8835 62.2581 25.0096 61.4569 25.0598 60.6781C25.0832 60.3161 24.9297 61.0164 24.9105 61.0913C24.8051 61.5033 24.7282 61.9223 24.657 62.3413C24.609 62.6242 24.5195 62.8748 24.4418 63.1468C24.3786 63.368 24.582 62.7067 24.6848 62.501C25.0489 61.7729 25.2445 60.9504 25.5008 60.1815C25.7251 59.5086 25.8758 58.7556 25.8758 58.0461C25.8758 57.826 25.7814 58.4763 25.723 58.6885C25.5999 59.136 25.4946 59.5897 25.4105 60.0461C25.389 60.1629 25.2955 60.5067 25.3168 60.3899C25.3893 59.9907 25.5094 59.6015 25.598 59.2058C25.7769 58.4067 25.9986 57.6054 26.0841 56.7892C26.1803 55.8708 26.1258 54.9263 26.1258 54.0044C26.1258 52.662 26.1883 51.3209 26.1883 49.9801C26.1883 49.6192 26.1545 50.6584 26.1501 50.7093C26.0313 52.0689 25.8891 53.4287 25.6883 54.7788C25.5165 55.9338 25.3133 57.1669 25.3133 58.3413C25.3133 58.5453 25.2046 58.9681 25.5008 58.9385C25.8978 58.8988 26.2083 57.7191 26.2994 57.4107C26.454 56.8875 26.4822 56.2765 26.5008 55.7371C26.5073 55.547 26.5254 55.3727 26.5772 55.1885C26.6276 55.0091 26.4737 55.6577 26.4522 55.7371C26.358 56.0848 26.2746 56.4466 26.2022 56.7996C26.1477 57.0652 26.332 56.2729 26.3897 56.0079C26.7034 54.567 26.8272 53.1517 26.9244 51.6815C26.9703 50.9881 26.9383 50.2861 26.9383 49.5913C26.9383 49.481 26.9383 49.0042 26.9383 49.4107C26.9383 50.6726 26.6291 51.8756 26.5633 53.126C26.545 53.4729 26.623 52.4325 26.6883 52.0913C26.9307 50.8237 27.0829 49.5756 27.1397 48.2857C27.1657 47.6941 27.1883 47.107 27.1883 46.5149C27.1883 46.2752 27.1887 46.5712 27.1883 46.619C27.1841 47.0557 27.152 47.4898 27.1119 47.9246C27.0599 48.4882 27.0001 49.0512 26.9244 49.6121C26.9127 49.6987 26.8668 50.5328 26.7647 50.5635C26.7091 50.5802 26.7515 50.4479 26.7508 50.3899C26.749 50.2325 26.75 50.075 26.7508 49.9176C26.7542 49.2065 26.7718 48.4958 26.8133 47.7857C26.8928 46.4256 27.1645 45.0472 27.1883 43.6885C27.2008 42.9737 27.2447 42.2261 27.1744 41.5149C27.1085 40.8472 26.9469 40.1562 26.9383 39.4871C26.9314 38.9503 26.9383 38.4129 26.9383 37.876C26.9383 37.2962 26.9575 37.0294 26.5633 36.5635" stroke="#021120" stroke-width="2" stroke-linecap="round"/>
<path d="M27.9383 35.9385C27.8684 36.8905 27.6972 37.8606 27.6883 38.8135C27.6841 39.2579 27.6883 40.5913 27.6883 40.1468C27.6883 39.0512 27.6234 37.9346 27.7022 36.8413C27.7157 36.6535 27.7508 36.0906 27.7508 36.2788C27.7508 36.6919 27.7558 37.1053 27.7473 37.5183C27.717 39.0058 27.5649 40.4886 27.5043 41.9732C27.4758 42.67 27.451 43.3373 27.348 44.0288C27.3069 44.3051 27.2707 44.5935 27.2543 44.8725C27.2404 45.108 27.2402 45.1929 27.2543 44.8899C27.2826 44.2814 27.4065 43.6765 27.4661 43.0704C27.5473 42.243 27.5455 41.4112 27.6258 40.5843C27.6581 40.2521 27.7328 39.9244 27.7508 39.5913C27.7601 39.4198 27.8122 39.5926 27.8133 39.6676C27.8302 40.8004 27.7581 41.9134 27.7022 43.0426C27.6602 43.8916 27.6765 44.7839 27.5494 45.626C27.5378 45.7031 27.4828 45.9849 27.5147 45.7301C27.6037 45.0178 27.7055 44.3049 27.7473 43.5878C27.7849 42.9433 27.8133 42.2959 27.8133 41.6503C27.8133 41.4376 27.8209 41.4405 27.8098 41.6503C27.7423 42.933 27.6471 44.239 27.5008 45.5149C27.409 46.3151 27.3802 47.1195 27.2994 47.9176C27.2538 48.3684 27.1258 48.8172 27.1258 49.2683C27.1258 50.1418 27.2655 47.5271 27.3445 46.6572C27.3874 46.1858 27.3891 45.6969 27.4695 45.2301C27.5305 44.8769 27.5008 45.3679 27.5008 45.4524C27.5008 46.4945 27.4419 47.5233 27.3411 48.56C27.3051 48.93 27.2165 49.2933 27.1918 49.6642C27.1851 49.7641 27.1851 49.7763 27.1883 49.6538C27.1978 49.2886 27.2625 48.9362 27.3272 48.5774C27.4724 47.7719 27.5907 46.9614 27.723 46.1538C27.7556 45.9551 27.7233 45.3765 27.8133 45.5565C27.926 45.7818 27.7696 46.3722 27.7369 46.5982C27.6511 47.1918 27.5386 47.7801 27.4661 48.376C27.3721 49.1473 27.2651 49.9219 27.1397 50.6885C27.0788 51.0605 26.9309 51.4105 26.8758 51.7822C26.8341 52.0637 26.6883 52.3669 26.6883 52.6503C26.6883 53.2392 26.8836 51.4886 26.9973 50.9107C27.0689 50.5466 27.1367 50.1679 27.1813 49.7996C27.2194 49.4861 27.1883 49.7724 27.1883 49.9176C27.1883 50.7248 27.0994 51.562 26.9869 52.3621C26.9671 52.5028 26.9383 52.9278 26.9383 52.7857C26.9383 52.3863 27.031 51.983 27.098 51.5913C27.1524 51.2731 27.1934 50.9462 27.2994 50.6399C27.3823 50.4002 27.3118 51.1489 27.2786 51.4003C27.2375 51.7114 27.1525 52.0174 27.1293 52.3308C27.1061 52.6433 27.1771 52.2055 27.1918 52.1433C27.271 51.8067 27.3133 51.4855 27.3133 51.1399C27.3133 51.1094 27.3069 51.0201 27.2994 51.0496C27.1865 51.4939 26.9847 51.8906 26.8133 52.3135" stroke="#021120" stroke-width="2" stroke-linecap="round"/>
<path d="M16.3133 62.5635C16.2376 62.4166 16.1656 62.2646 16.032 62.1607C15.887 62.0479 15.9383 62.7326 15.9383 62.7857C15.9383 63.1549 15.9383 63.5242 15.9383 63.8934C15.9383 64.1994 15.937 63.779 15.9383 63.7024C15.9435 63.3906 16.0414 63.0849 16.0598 62.7718C16.0856 62.3333 16.0698 62.9512 16.0772 63.0704C16.152 64.2768 16.1982 65.5235 16.032 66.7232C15.96 67.2438 15.8288 67.7739 15.8133 68.2996C15.8027 68.6595 15.7977 68.5195 15.8202 68.2371C15.9081 67.139 16.4383 66.1472 16.4383 65.0288C16.4383 63.7973 16.4383 67.4917 16.4383 68.7232C16.4383 68.8291 16.4254 70.2467 16.5077 70.2232C16.6962 70.1694 16.9112 69.4529 16.9557 69.3448C17.303 68.5003 17.5656 67.6296 17.8341 66.7579C17.9794 66.2864 18.1164 65.8073 18.2994 65.3482C18.3004 65.3457 18.5706 64.7854 18.598 64.8274C18.6887 64.9661 18.5484 65.5574 18.5355 65.6364C18.3747 66.6199 18.1432 67.5907 17.9001 68.5566C17.8213 68.8697 17.7327 69.1785 17.7022 69.501C17.7012 69.5112 17.6664 70.0249 17.7439 69.9663C18.0549 69.7309 18.2195 69.0649 18.3341 68.7441C18.6945 67.7356 18.9795 66.7032 19.3202 65.6885C19.3743 65.5275 19.5655 65.0707 19.5633 65.2406C19.5509 66.2048 19.3348 67.2054 19.1432 68.1468C19.0815 68.4495 18.7925 69.1052 18.8758 69.4385C18.9012 69.54 18.9823 69.2581 19.0286 69.1642C19.3311 68.5507 19.63 67.9373 19.9036 67.31C20.1569 66.729 20.3913 66.1396 20.6709 65.5704C20.6909 65.5298 20.8309 65.1607 20.9001 65.1607C21.0548 65.1607 20.4203 67.144 20.3619 67.2857C20.1054 67.9083 19.7559 68.4997 19.5425 69.1399C19.0675 70.5647 21.1873 66.6229 21.9105 65.3066C21.9461 65.2417 22.4776 64.4132 22.4904 64.56C22.5481 65.2237 22.0254 66.0804 21.7369 66.6399C21.3264 67.436 20.8035 68.1528 20.355 68.9246C20.3064 69.0083 19.838 69.779 19.9904 69.6399C20.9938 68.7238 21.8368 67.8035 22.4383 66.567C22.7206 65.9867 22.9433 65.2363 23.4348 64.7857C23.5232 64.7048 23.5801 64.6607 23.5494 64.8413C23.4773 65.2662 23.2212 65.6635 22.9869 66.0149C22.6038 66.5895 22.1583 67.1178 21.7508 67.6746C21.5848 67.9014 21.2451 68.3892 21.6605 67.876C22.3297 67.0493 22.98 66.2425 23.4244 65.2649C23.4845 65.1327 23.915 63.8759 23.8064 64.6364C23.6964 65.4059 23.1589 66.1846 22.7855 66.8413C22.7406 66.9202 22.3134 67.6509 22.5564 67.3204C22.8454 66.9273 23.1507 66.5103 23.3897 66.0843C23.6295 65.6569 23.7101 64.9736 24.0772 64.6399C24.1991 64.5291 24.1607 64.7625 24.1466 64.7996C24.0013 65.1828 23.7537 65.5443 23.5251 65.8829C22.8924 66.8203 22.3034 67.7922 21.6119 68.6885C21.3761 68.9942 21.1273 69.2927 20.8897 69.5982C20.6484 69.9085 20.2736 70.0821 20.032 70.3795C19.6553 70.8432 19.1617 71.3335 18.6883 71.6885" stroke="#021120" stroke-width="2" stroke-linecap="round"/>
<path d="M17.2508 72.6885C18.1179 72.6735 19.0435 71.9996 19.6848 71.4385C19.9923 71.1694 20.3141 70.8752 20.6015 70.5878C20.8448 70.3445 21.0211 70.0467 21.3098 69.8482C21.5906 69.6552 21.8457 69.2559 22.0633 68.9871C22.2506 68.7557 22.4225 68.5002 22.6258 68.2857C23.0981 67.7871 23.3906 66.961 23.5633 66.3135" stroke="#021120" stroke-width="2" stroke-linecap="round"/>
<path d="M16.6258 71.3135C16.6258 70.6681 16.6137 70.0366 16.6848 69.3968C16.7351 68.9445 16.5278 70.2939 16.4244 70.7371C16.3564 71.0285 16.1952 71.9044 16.1952 71.6051C16.1952 70.9301 16.4928 70.2617 16.5008 69.5704C16.5025 69.4217 16.5008 68.674 16.5008 69.2058C16.5008 69.4258 16.4969 69.6435 16.4695 69.8621C16.452 70.0024 16.478 70.3892 16.3897 70.2787C16.2821 70.1443 16.4417 68.2214 16.2508 69.3551C16.2151 69.5668 16.0575 70.251 16.1918 70.4523C16.3194 70.6437 16.2508 69.9949 16.2508 69.7648C16.2508 69.7221 16.2394 69.4444 16.2543 69.6155C16.297 70.1075 16.3247 70.5987 16.3619 71.0912C16.3822 71.3601 16.4625 71.8318 16.3445 72.0912C16.2967 72.1964 16.3537 71.5225 16.3619 71.4246C16.3683 71.3488 16.4383 70.7064 16.4383 70.8621C16.4383 71.2492 16.4372 71.6192 16.5008 72.001" stroke="#021120" stroke-width="2" stroke-linecap="round"/>
<path d="M16.1258 73.6885C16.1558 73.317 16.2508 72.2047 16.2508 72.5774C16.2508 72.8704 16.2086 73.2746 16.032 73.5218C15.9986 73.5687 16.0872 73.3629 16.098 73.3413C16.2099 73.1174 16.1074 73.4222 16.0772 73.494C16.0017 73.6732 15.9383 73.7676 15.9383 73.9628C15.9383 73.9731 15.9871 73.8819 16.0008 73.8621C16.0836 73.7425 16.2079 73.6746 16.2994 73.5635C16.4442 73.3877 16.5373 73.376 16.7508 73.376C16.8968 73.376 16.9378 73.4931 17.0633 73.5496C17.3666 73.6861 17.6805 73.3866 17.914 73.251C18.4144 72.9604 19.0824 72.8956 19.4383 72.3899C19.5831 72.1842 19.8539 71.8993 19.8723 71.6503C19.8994 71.2846 19.9673 70.5958 19.5494 70.4176C19.1037 70.2277 18.4108 71.1662 18.1397 71.3899C18.1041 71.4192 17.7992 71.7049 17.7647 71.5565C17.6968 71.2646 17.8518 70.9158 17.9244 70.6399C18.1321 69.8507 17.7968 70.7193 17.7195 70.994C17.6761 71.1484 17.608 71.2519 17.7161 71.0357C18.048 70.3719 18.4052 69.7202 18.7508 69.0635" stroke="#021120" stroke-width="2" stroke-linecap="round"/>
<path d="M16.0633 1.56346C16.0633 1.33781 16.147 1.14064 16.2369 0.938458C16.4185 0.529918 15.8676 0.68436 16.1258 0.813458" stroke="#021120" stroke-linecap="round"/>
<path d="M16.1258 1.12596C16.036 1.26624 16.0008 1.53833 16.0008 1.26485C16.0008 0.988684 16.0008 1.45781 16.0008 1.27874C16.0008 1.14107 16.0285 1.07602 16.0598 0.966242C16.109 0.794134 16.0484 0.888565 16.1883 1.06346" stroke="#021120" stroke-linecap="round"/>
<path d="M18.3306 1.29578C17.4138 0.373541 16.5729 -0.0623122 15.8331 0.0071717C10.7811 0.480926 0.942789 16.1211 0.0449436 40.2573C-0.492499 54.7226 3.89556 63.8945 7.56914 68.9858C7.52488 68.9668 7.49326 68.9352 7.449 68.9163C6.43102 68.4552 5.3182 68.6004 4.24964 68.771C3.94614 68.8152 4.07892 69.2763 4.3761 69.2258C5.30556 69.0805 6.32354 68.9289 7.21506 69.3269C7.82837 69.5985 8.30259 70.0912 8.61241 70.6786C7.80941 70.2681 6.90524 70.0659 5.99475 70.1101C5.69125 70.1228 5.69125 70.5965 5.99475 70.5839C7.24667 70.5207 8.49227 70.9566 9.42173 71.7967C9.1625 71.8662 8.89694 71.9862 8.66299 72.0746C7.96748 72.3463 7.24035 72.5547 6.5069 72.7C6.20972 72.7568 6.33618 73.218 6.63336 73.1548C7.27829 73.0285 7.91057 72.8516 8.52389 72.6305C8.83371 72.5168 9.13088 72.3715 9.43438 72.2641C9.69362 72.1757 9.95285 72.1441 10.1489 72.3778C10.1805 72.4157 10.2121 72.4347 10.25 72.441C10.1868 72.4536 10.1236 72.4536 10.0667 72.4726C9.59877 72.5863 9.14353 72.7821 8.7199 73.0221C7.85999 73.5148 7.14551 74.216 6.5069 74.9614C6.31089 75.1888 6.646 75.5299 6.84201 75.2962C7.37313 74.6771 7.95483 74.0834 8.64402 73.6285C8.98546 73.4011 9.34586 73.2116 9.72523 73.0727C9.91492 73.0032 10.1046 72.9463 10.3006 72.9084C10.4018 72.8895 10.5029 72.8705 10.6041 72.8579C10.6547 72.8516 10.7053 72.8453 10.7622 72.839C10.876 72.8263 10.8633 72.8516 10.8254 72.7947C10.8507 72.8263 10.8823 72.8516 10.9266 72.8642C11.0846 73.0158 11.2364 73.1548 11.3755 73.2811C11.1479 73.3317 10.9202 73.4517 10.7306 73.5464C10.2563 73.7738 9.80111 74.0518 9.3838 74.3676C8.54918 75.0056 7.84102 75.8078 7.32887 76.7237C7.17712 76.989 7.58811 77.2291 7.73985 76.9638C8.17613 76.1931 8.73887 75.5109 9.41541 74.9424C9.7442 74.6645 10.0983 74.4245 10.4776 74.2097C10.6673 74.1023 10.8633 74.0012 11.0657 73.9128C11.1668 73.8686 11.268 73.8244 11.3755 73.7802C11.3945 73.7738 11.4893 73.7422 11.5462 73.7233C10.7685 74.355 10.1742 75.1761 9.84536 76.13C9.7442 76.4205 10.2058 76.5406 10.3006 76.2563C10.6168 75.3404 11.2174 74.5255 11.9951 73.9507C12.0267 73.9254 12.052 73.9002 12.071 73.8686C12.1279 73.9128 12.1785 73.9507 12.2164 73.9823C12.3872 88.8897 13.0131 98.7249 13.2597 99.1671C13.5442 99.6724 14.0374 99.9819 14.5812 100.001C14.5938 100.001 14.6065 100.001 14.6191 100.001C15.1629 100.001 15.6561 99.704 15.9849 99.1797C16.1935 98.8449 16.1176 96.3245 15.8584 88.3907C15.7383 84.8028 15.5928 80.3495 15.4601 75.2014C15.4917 75.2204 15.5296 75.233 15.5675 75.233C16.0797 75.2835 16.5097 75.6689 16.7689 76.0921C17.0977 76.629 17.2115 77.2733 17.3253 77.8797C17.3822 78.1766 17.8375 78.0503 17.7805 77.7534C17.6478 77.0585 17.5087 76.3384 17.1103 75.7447C16.9206 75.4604 16.674 75.2267 16.3958 75.0498C17.3253 74.8477 18.4255 74.7466 19.14 75.492C19.3486 75.7131 19.6837 75.3783 19.4751 75.1572C19.1147 74.7782 18.6784 74.5824 18.2105 74.5003C19.0894 74.1276 20.1706 74.2918 20.8724 74.9424C21.0937 75.1509 21.4352 74.8161 21.2075 74.6076C20.727 74.1655 20.1137 73.9065 19.4751 73.8433C19.943 73.6349 20.4867 73.6665 20.9167 73.9507C21.0242 74.0202 21.1759 73.9697 21.2391 73.8686C21.3087 73.7549 21.2644 73.6159 21.1569 73.5464C20.7776 73.3001 20.3097 73.199 19.8671 73.2495C19.924 73.2053 19.9746 73.1674 20.0315 73.1232C20.4109 72.8137 20.8092 72.4536 21.2075 72.0241C21.2518 72.0431 21.3087 72.0557 21.3593 72.0367C21.8588 71.8725 22.352 71.7841 22.8704 71.7651C22.9969 71.7651 23.1107 71.6577 23.1107 71.5251C23.1107 71.3988 23.0095 71.285 22.8704 71.285C22.6238 71.2914 22.3836 71.323 22.1433 71.3608C22.5543 71.1398 22.9906 70.9818 23.4585 70.8871C23.5849 70.8618 23.6545 70.7102 23.6229 70.5965C23.5849 70.4639 23.4585 70.407 23.332 70.4323C22.9653 70.5081 22.6049 70.6281 22.2634 70.7797C24.8432 67.3876 27.4924 61.1909 28.6495 49.884C30.9827 26.8153 23.3004 6.29863 18.3306 1.29578ZM10.446 72.4031C10.446 72.4031 10.4524 72.4094 10.4587 72.4157C10.446 72.4157 10.4334 72.4157 10.4207 72.4157C10.4271 72.4157 10.4397 72.4031 10.446 72.3968V72.4031ZM15.5739 98.927C15.3273 99.3187 14.9542 99.5082 14.5875 99.5271C14.2145 99.5208 13.873 99.2997 13.677 98.946C13.1649 97.411 10.9961 53.1561 15.2008 9.0464C13.892 43.0051 14.8847 73.2875 15.3842 88.4034C15.5802 94.2906 15.7193 98.5417 15.5802 98.927H15.5739ZM28.15 49.8398C25.7537 73.2685 16.8953 74.5129 15.4284 74.5571C14.9542 56.3902 14.6128 29.7652 16.0101 1.21367L15.5359 1.17577C12.5515 27.4786 12.0015 54.4194 12.2038 73.3822C11.9572 73.1801 11.6031 72.8769 11.1732 72.4663C11.1732 72.4663 11.1732 72.4663 11.1668 72.46C9.92756 71.2787 8.04967 69.2195 6.22237 66.1243C3.36444 61.2794 0.0512665 52.8655 0.519158 40.2763C1.46759 14.8767 11.7169 0.866246 15.8774 0.480926C16.4527 0.430392 17.1925 0.822029 17.9955 1.63057C20.7333 4.38466 23.8062 11.3141 25.8295 19.2795C27.5999 26.2531 29.4399 37.219 28.15 49.8398Z" fill="#021120"/>
</svg>
