<svg width="51" height="50" viewBox="0 0 51 50" fill="none" xmlns="http://www.w3.org/2000/svg">
<path d="M15.962 13.1072L15.9622 13.107C16.0566 12.9617 16.2495 12.894 16.428 12.9262C16.6054 12.9583 16.7578 13.0871 16.7668 13.2669L16.7668 13.268C16.7684 13.3091 16.7709 13.3562 16.7742 13.4083C17.2751 11.9808 18.4214 10.0732 20.964 7.9576L20.9641 7.95752C21.0848 7.85738 21.2643 7.82626 21.4201 7.87697C21.5722 7.92646 21.6908 8.04985 21.695 8.20805C22.5782 7.05647 24.3147 5.42674 27.6135 4.0656C28.2512 3.80171 29.0042 3.85635 29.5784 4.20709L29.5786 4.20722C30.1519 4.55929 30.43 5.14063 30.2799 5.72854L30.2798 5.72878C29.9637 6.9539 29.4353 8.59286 28.5987 10.1784C27.9446 11.4183 27.1 12.6293 26.018 13.5836C26.1058 13.5687 26.1984 13.5767 26.2812 13.608C26.4709 13.6798 26.5945 13.8774 26.5039 14.072C26.412 14.2771 25.3152 16.6649 23.5204 19.1029C21.7405 21.5209 19.2539 24.0164 16.3607 24.4442C15.755 26.3158 15.4403 27.6056 15.3956 27.7886C15.3935 27.797 15.3921 27.8031 15.3912 27.8068C15.3476 27.9925 15.1579 28.1 14.9714 28.1C14.9447 28.1 14.919 28.097 14.8993 28.0948L14.8973 28.0945L14.8973 28.0946L14.8941 28.0941C14.6779 28.0623 14.4986 27.8826 14.5486 27.6633L14.5479 27.6632L14.5506 27.6556C14.5506 27.6554 14.5507 27.6552 14.5507 27.655L14.5541 27.6418L14.5668 27.5906C14.578 27.5459 14.5944 27.4806 14.6161 27.396C14.6594 27.227 14.7237 26.9813 14.8093 26.6701C14.9776 26.0587 15.228 25.1944 15.5628 24.1623C15.008 23.5458 14.1386 22.3223 13.8769 20.5056C13.6088 18.6434 13.9811 16.1711 15.962 13.1072ZM23.3697 14.348L23.3702 14.3478C25.2037 13.6213 26.5494 12.0991 27.5245 10.4167C28.4992 8.73507 29.0979 6.90305 29.4414 5.57317L29.4415 5.57277C29.5176 5.28318 29.3909 4.99552 29.0766 4.79988C28.7588 4.60389 28.354 4.57426 27.9945 4.72325L27.9943 4.72331C25.3432 5.81728 23.7662 7.10085 22.8521 8.11001C22.3949 8.61475 22.103 9.05138 21.9253 9.36217C21.7512 9.66683 21.6872 9.84978 21.6847 9.85695L21.6847 9.85717L21.6844 9.85816C21.6241 10.0452 21.4146 10.1439 21.2178 10.1238C21.0205 10.1036 20.8414 9.96212 20.8414 9.76267V9.11917C16.763 12.8544 17.2645 15.6442 17.3071 15.8439C17.315 15.8708 17.3191 15.8985 17.3191 15.9266C17.3191 16.1475 17.1066 16.2906 16.8908 16.2906C16.7308 16.2906 16.5829 16.2152 16.5079 16.0932C16.3676 15.8821 16.2624 15.5852 16.1823 15.2705C16.1264 15.0509 16.0818 14.8185 16.0462 14.5933C14.8191 16.859 14.5471 18.7172 14.7011 20.1687C14.8492 21.5654 15.3926 22.5935 15.8721 23.2524C16.2251 22.2224 16.6503 21.0697 17.1475 19.861L17.1476 19.8609C18.7636 15.948 21.5147 10.6063 25.4488 7.44288C25.6138 7.31024 25.8749 7.31024 26.0398 7.44288C26.1253 7.51162 26.1734 7.60711 26.1734 7.70803C26.1734 7.80895 26.1253 7.90444 26.0398 7.97318L26.0397 7.97325C22.2368 11.024 19.5462 16.2434 17.9563 20.0956L17.9563 20.0956C17.4295 21.371 16.9861 22.5837 16.6236 23.6555C18.6557 23.1883 20.5122 21.5376 22.0159 19.7022C23.4687 17.9289 24.5792 15.9994 25.1873 14.8467C24.4511 15.0328 23.6844 15.0425 23.5503 15.0425C23.3687 15.0425 23.1836 14.9419 23.1348 14.7659C23.0806 14.5823 23.2004 14.4161 23.3697 14.348Z" fill="#F8F8F8" stroke="#F8F8F8" stroke-width="0.2"/>
<circle cx="30.1" cy="18.26" r="2" fill="#F8F8F8"/>
<path d="M31.1 18.26L38.1 18.26" stroke="#F8F8F8" stroke-linecap="round"/>
<circle cx="36.1" cy="25.26" r="2" fill="#F8F8F8"/>
<path d="M28.1 25.26L35.1 25.26" stroke="#F8F8F8" stroke-linecap="round"/>
<path d="M7.0709 45V38H7.8509V45H7.0709ZM12.759 45V44.2C12.489 44.8 11.959 45.1 11.259 45.1C10.139 45.1 9.35902 44.37 9.35902 42.94V42.19C9.35902 40.75 10.139 40.02 11.259 40.02C11.989 40.02 12.499 40.35 12.759 40.91V37.7H13.539V45H12.759ZM11.439 40.7C10.559 40.7 10.149 41.29 10.149 42.19V42.92C10.149 43.84 10.559 44.42 11.449 44.42C12.259 44.42 12.759 43.91 12.759 42.88V42.17C12.759 41.27 12.249 40.7 11.439 40.7ZM18.9945 43.54C18.8845 44.55 18.1345 45.1 17.0245 45.1C15.7845 45.1 14.9545 44.37 14.9545 42.94V42.18C14.9545 40.75 15.7745 40.02 17.0345 40.02C18.2445 40.02 19.0245 40.76 19.0245 42.2V42.65H15.7645C15.7645 42.81 15.7745 42.97 15.7845 43.12C15.8245 43.94 16.2245 44.44 17.0645 44.44C17.1445 44.44 17.2145 44.44 17.2845 44.43C17.8545 44.36 18.1745 44.05 18.2445 43.54H18.9945ZM15.7645 42.08L15.8245 42.15H18.2845C18.2445 41.13 17.8745 40.67 17.0345 40.67C16.1745 40.67 15.7745 41.22 15.7645 42.08ZM21.2086 42.22V45H20.4186V40.12H21.2086V41.04C21.5186 40.36 22.0886 40.02 22.7886 40.02C23.8486 40.02 24.4286 40.58 24.4286 41.76V45H23.6486V41.92C23.6486 41.11 23.3186 40.7 22.5286 40.7C21.7986 40.7 21.2086 41.26 21.2086 42.22ZM28.4446 44.39V45.05H27.7346C26.6546 45.05 26.2046 44.6 26.2046 43.55V40.78H25.4446V40.12H26.2046V38.68H26.9846V40.12H28.4446V40.78H26.9846V43.56C26.9846 44.11 27.2146 44.39 27.8746 44.39H28.4446ZM29.9883 39.17C29.6783 39.17 29.4383 38.95 29.4383 38.66C29.4383 38.37 29.6783 38.15 29.9883 38.15C30.3183 38.15 30.5483 38.37 30.5483 38.66C30.5483 38.95 30.3183 39.17 29.9883 39.17ZM29.5983 45V40.12H30.3883V45H29.5983ZM35.5 45V40.78H33.03V45H32.25V40.78H31.49V40.12H32.25V39.18C32.25 38.18 32.76 37.65 33.87 37.65H34.35V38.31H33.91C33.22 38.31 33.03 38.64 33.03 39.22V40.12H36.28V45H35.5ZM35.89 39.17C35.56 39.17 35.33 38.95 35.33 38.66C35.33 38.37 35.56 38.15 35.89 38.15C36.21 38.15 36.44 38.37 36.44 38.66C36.44 38.95 36.21 39.17 35.89 39.17ZM41.7386 43.54C41.6286 44.55 40.8786 45.1 39.7686 45.1C38.5286 45.1 37.6986 44.37 37.6986 42.94V42.18C37.6986 40.75 38.5186 40.02 39.7786 40.02C40.9886 40.02 41.7686 40.76 41.7686 42.2V42.65H38.5086C38.5086 42.81 38.5186 42.97 38.5286 43.12C38.5686 43.94 38.9686 44.44 39.8086 44.44C39.8886 44.44 39.9586 44.44 40.0286 44.43C40.5986 44.36 40.9186 44.05 40.9886 43.54H41.7386ZM38.5086 42.08L38.5686 42.15H41.0286C40.9886 41.13 40.6186 40.67 39.7786 40.67C38.9186 40.67 38.5186 41.22 38.5086 42.08ZM43.9528 42.27V45H43.1628V40.12H43.9528V40.98C44.2628 40.33 44.7828 40.02 45.4328 40.02H45.6728V40.78H45.4128C44.5528 40.78 43.9528 41.29 43.9528 42.27Z" fill="#F8F8F8"/>
</svg>
