<svg width="51" height="50" viewBox="0 0 51 50" fill="none" xmlns="http://www.w3.org/2000/svg">
<path d="M8.16758 44.5V37.5H12.5676V38.18H8.94758V40.54H11.9576V41.21H8.94758V43.82H12.5676V44.5H8.16758ZM15.3023 40.13C14.5923 40.13 14.3123 40.38 14.3123 40.88C14.3123 41.34 14.5523 41.5 15.1823 41.65L15.8123 41.79C16.9323 42.04 17.3423 42.34 17.3423 43.16C17.3423 44.09 16.7023 44.6 15.4523 44.6C14.1923 44.6 13.5023 44.08 13.3923 42.94H14.1323C14.2123 43.68 14.6223 44 15.4723 44C16.2523 44 16.5623 43.71 16.5623 43.21C16.5623 42.7 16.3523 42.57 15.5823 42.39L14.8923 42.25C13.9823 42.06 13.5323 41.72 13.5323 40.9C13.5323 40.08 14.0823 39.52 15.3023 39.52C16.5923 39.52 17.1823 40.08 17.2323 41.08H16.4823C16.4223 40.43 16.0823 40.13 15.3023 40.13ZM20.9245 44.6C20.1845 44.6 19.6745 44.26 19.4245 43.71V46.5H18.6345V39.62H19.4245V40.44C19.6845 39.83 20.2245 39.52 20.9245 39.52C22.0345 39.52 22.8245 40.25 22.8245 41.69V42.44C22.8245 43.87 22.0345 44.6 20.9245 44.6ZM20.7445 43.92C21.6245 43.92 22.0345 43.34 22.0345 42.43V41.7C22.0345 40.79 21.6245 40.2 20.7345 40.2C19.9245 40.2 19.4245 40.72 19.4245 41.74V42.45C19.4245 43.36 19.9345 43.92 20.7445 43.92ZM24.6604 37.5H25.5904L26.5404 38.83H25.8304L24.6604 37.5ZM28.0304 43.04C27.9204 44.05 27.1704 44.6 26.0604 44.6C24.8204 44.6 23.9904 43.87 23.9904 42.44V41.68C23.9904 40.25 24.8104 39.52 26.0704 39.52C27.2804 39.52 28.0604 40.26 28.0604 41.7V42.15H24.8004C24.8004 42.31 24.8104 42.47 24.8204 42.62C24.8604 43.44 25.2604 43.94 26.1004 43.94C26.1804 43.94 26.2504 43.94 26.3204 43.93C26.8904 43.86 27.2104 43.55 27.2804 43.04H28.0304ZM24.8004 41.58L24.8604 41.65H27.3204C27.2804 40.63 26.9104 40.17 26.0704 40.17C25.2104 40.17 24.8104 40.72 24.8004 41.58ZM31.3045 43.92C32.0145 43.92 32.3545 43.62 32.4745 42.98H33.2245C33.0745 44.05 32.3745 44.6 31.2845 44.6C30.0545 44.6 29.2445 43.87 29.2445 42.45V41.69C29.2445 40.25 30.0645 39.52 31.2945 39.52C32.4745 39.52 33.1145 40.17 33.1745 41.15H32.4145C32.3245 40.53 31.9645 40.2 31.2945 40.2C30.4245 40.2 30.0445 40.76 30.0445 41.7V42.43C30.0445 43.36 30.4445 43.92 31.3045 43.92ZM38.2162 43.04C38.1062 44.05 37.3562 44.6 36.2462 44.6C35.0062 44.6 34.1762 43.87 34.1762 42.44V41.68C34.1762 40.25 34.9962 39.52 36.2562 39.52C37.4662 39.52 38.2462 40.26 38.2462 41.7V42.15H34.9862C34.9862 42.31 34.9962 42.47 35.0062 42.62C35.0462 43.44 35.4462 43.94 36.2862 43.94C36.3662 43.94 36.4362 43.94 36.5062 43.93C37.0762 43.86 37.3962 43.55 37.4662 43.04H38.2162ZM34.9862 41.58L35.0462 41.65H37.5062C37.4662 40.63 37.0962 40.17 36.2562 40.17C35.3962 40.17 34.9962 40.72 34.9862 41.58ZM41.2203 40.13C40.5103 40.13 40.2303 40.38 40.2303 40.88C40.2303 41.34 40.4703 41.5 41.1003 41.65L41.7303 41.79C42.8503 42.04 43.2603 42.34 43.2603 43.16C43.2603 44.09 42.6203 44.6 41.3703 44.6C40.1103 44.6 39.4203 44.08 39.3103 42.94H40.0503C40.1303 43.68 40.5403 44 41.3903 44C42.1703 44 42.4803 43.71 42.4803 43.21C42.4803 42.7 42.2703 42.57 41.5003 42.39L40.8103 42.25C39.9003 42.06 39.4503 41.72 39.4503 40.9C39.4503 40.08 40.0003 39.52 41.2203 39.52C42.5103 39.52 43.1003 40.08 43.1503 41.08H42.4003C42.3403 40.43 42.0003 40.13 41.2203 40.13Z" fill="#151515"/>
<path d="M9.29943 7.22526L9.29913 7.22564L9.29887 7.22596L9.2986 7.22631L9.29844 7.2265L9.29797 7.22708L9.14363 7.4202L8.89555 7.44715L8.89552 7.44716L8.8952 7.44719L8.89367 7.44736L8.88707 7.44809L8.86037 7.45106L8.75721 7.46291C8.66793 7.47333 8.53997 7.48869 8.38627 7.50831C8.21048 7.53074 8.00203 7.55862 7.77992 7.59093C8.00143 7.62297 8.2093 7.65061 8.38466 7.67286C8.5383 7.69235 8.6662 7.70761 8.75545 7.71796L8.85856 7.72972L8.88525 7.73268L8.89183 7.7334L8.89338 7.73357L8.89371 7.7336L8.89375 7.73361L9.19519 7.76613L9.34781 8.02814L10.6421 10.25L10.7287 10.3987L10.7233 10.5705L10.7233 10.5706L10.7233 10.5709L10.7233 10.5732L10.723 10.5843L10.7219 10.6306C10.7211 10.6721 10.7202 10.7342 10.7197 10.8146C10.7187 10.9754 10.7194 11.2091 10.7265 11.4972C10.7408 12.0741 10.7806 12.8642 10.882 13.7197C10.9837 14.5773 11.1459 15.4867 11.4003 16.3071C11.6572 17.1354 11.9941 17.826 12.4173 18.2876L12.4174 18.2877C13.9148 19.9211 16.136 21.953 18.9358 22.5362L19.5235 22.6586L19.5352 22.6412L19.8854 22.6692C20.454 22.7145 21.0502 22.6928 21.6722 22.5983L22.2778 22.5062L22.2816 22.4956L22.6122 22.429C22.7834 22.3945 22.9515 22.3605 23.1165 22.3271C24.9701 21.9526 26.4438 21.6548 27.6967 21.5246C29.0778 21.3811 30.2363 21.4351 31.404 21.8239L31.4044 21.824C32.563 22.2108 35.615 23.6689 38.3239 25.0004C39.6904 25.6721 40.987 26.3205 41.9419 26.8008C42.4194 27.041 42.8116 27.2393 43.0845 27.3775L43.1044 27.3876L44.2627 26.1236L30.6048 20.1664L29.6619 19.7552L30.484 19.1369L30.6041 19.0467C30.2848 18.7924 29.8528 18.4486 29.3407 18.0411C28.2107 17.1422 26.6908 15.9341 25.1304 14.6971C21.9985 12.2144 18.7334 9.63919 18.1018 9.18838C17.7263 8.92041 17.3424 8.53324 16.9702 8.14968C16.9199 8.09785 16.8694 8.04574 16.8188 7.99344C16.481 7.6442 16.1351 7.28665 15.7597 6.94978C14.8924 6.17135 13.9701 5.6 12.901 5.6C11.7537 5.6 10.8503 6.00884 10.2271 6.42449C9.91563 6.63225 9.67775 6.83949 9.51974 6.99251C9.44093 7.06883 9.3826 7.13108 9.34549 7.17234C9.32696 7.19295 9.31379 7.20825 9.30606 7.21738L9.29943 7.22526ZM16.262 27.1772L12.5334 27.9H16.9698H17.8689L17.0831 27.477L16.5009 27.1635L16.7647 26.7703L16.6234 26.954L16.4849 27.1339L16.262 27.1772ZM18.9674 27.9H19.9295H22.3327L21.1359 27.6163L20.4805 27.461L20.7102 26.8279L20.8287 26.5012L20.5401 27.0981L20.4392 27.3068L20.2242 27.3934L18.9674 27.9Z" stroke="#151515" stroke-width="1.2"/>
<path d="M30.2193 8.792H31.6993L30.9793 6.696H30.9633L30.2193 8.792ZM30.3393 5.288H31.6273L33.7633 11H32.4593L32.0273 9.728H29.8913L29.4433 11H28.1793L30.3393 5.288Z" fill="#151515"/>
<path d="M36.3658 16.5545L39.4298 12.8905H36.6058V11.8345H41.1018V12.8265L38.0378 16.4905H41.1818V17.5465H36.3658V16.5545Z" fill="#151515"/>
</svg>
