<svg width="32" height="26" viewBox="0 0 32 26" fill="none" xmlns="http://www.w3.org/2000/svg">
<path d="M31.2343 24.6831C30.2252 24.6831 29.2161 24.6831 28.207 24.6831C26.9543 24.6831 25.7364 24.6831 24.4838 24.6831C24.4838 22.8711 24.4838 21.0591 24.4838 19.2471C24.4838 19.1077 24.4838 18.9335 24.4838 18.7941C25.3189 18.7941 26.154 18.7941 26.9891 18.7941C28.1026 18.7941 29.2161 18.7941 30.3296 18.7941C30.6775 18.7941 30.8167 18.3759 30.6079 18.132C29.738 17.0867 28.8681 16.0761 27.9982 15.0307C28.5201 15.0307 29.0421 15.0307 29.564 15.0307C29.912 15.0307 30.0512 14.6126 29.8424 14.3687C28.7985 13.1142 27.7198 11.8598 26.6759 10.6053C27.4067 10.6053 28.1374 10.6053 28.8333 10.6053C29.1813 10.6053 29.3205 10.1872 29.1117 9.94324C28.033 8.65394 26.9543 7.36464 25.8408 6.07534C26.1888 6.07534 26.502 6.07534 26.8499 6.07534C27.2327 6.07534 27.3371 5.65719 27.1283 5.41327C25.98 4.01944 24.7969 2.59075 23.6487 1.19692C23.4747 0.987843 23.3355 0.813613 23.1615 0.604538C23.0223 0.465154 22.744 0.465154 22.6048 0.604538C21.5261 1.89384 20.4822 3.18313 19.4035 4.47243C18.5336 3.42706 17.6637 2.34683 16.7938 1.30146C16.6198 1.05753 16.411 0.848459 16.2371 0.604538C16.0979 0.465154 15.8195 0.465154 15.6803 0.604538C14.6712 1.82414 13.6273 3.0786 12.6182 4.2982C11.6092 3.0786 10.5653 1.82414 9.55618 0.604538C9.41699 0.465154 9.13862 0.465154 8.99944 0.604538C7.85116 1.99837 6.66809 3.42706 5.51981 4.82089C5.34583 5.02997 5.20664 5.2042 5.03266 5.41327C4.82388 5.65719 4.96307 6.07534 5.31103 6.07534C5.65899 6.07534 5.97216 6.07534 6.32012 6.07534C5.38062 7.19041 4.47592 8.27064 3.53642 9.3857C3.36244 9.55993 3.22326 9.76901 3.04927 9.94324C2.8405 10.1872 2.97968 10.6053 3.32764 10.6053C4.05837 10.6053 4.78909 10.6053 5.48501 10.6053C4.58031 11.6855 3.67561 12.7309 2.7709 13.8111C2.59692 13.9854 2.45774 14.1944 2.28376 14.3687C2.07498 14.6126 2.21416 15.0307 2.56213 15.0307C3.08407 15.0307 3.60601 15.0307 4.12796 15.0307C3.25805 16.0761 2.38814 17.0867 1.51824 18.132C1.30946 18.3759 1.44865 18.7941 1.79661 18.7941C3.7452 18.7941 5.69379 18.7941 7.64238 18.7941C7.64238 20.6061 7.64238 22.4181 7.64238 24.2301C7.64238 24.3694 7.64238 24.5437 7.64238 24.6831C6.5637 24.6831 5.45022 24.6831 4.37153 24.6831C3.15366 24.6831 1.901 24.6482 0.683127 24.6831C0.648331 24.6831 0.648331 24.6831 0.613535 24.6831C0.0915904 24.6831 0.0915904 25.4845 0.613535 25.4845C1.62263 25.4845 2.63172 25.4845 3.64081 25.4845C5.10225 25.4845 6.5637 25.4845 8.02514 25.4845C8.82546 25.4845 9.62577 25.4845 10.3913 25.4845C10.5653 25.4845 10.774 25.4845 10.948 25.4845C12.2007 25.4845 13.4534 25.4845 14.706 25.4845C15.5063 25.4845 16.3067 25.4845 17.0722 25.4845C17.9769 25.4845 18.8816 25.4845 19.7863 25.4845C20.4126 25.4845 21.0042 25.4845 21.6305 25.4845C22.4308 25.4845 23.2311 25.4845 23.9966 25.4845C25.1449 25.4845 26.2584 25.4845 27.4067 25.4845C28.6245 25.4845 29.8772 25.5194 31.0951 25.4845C31.1299 25.4845 31.1299 25.4845 31.1647 25.4845C31.7562 25.4845 31.7562 24.6831 31.2343 24.6831ZM23.6835 24.2301C23.6835 24.3694 23.6835 24.5437 23.6835 24.6831C23.1615 24.6831 22.6048 24.6831 22.0828 24.6831C22.0828 22.8711 22.0828 21.0591 22.0828 19.2471C22.0828 19.1077 22.0828 18.9335 22.0828 18.7941C22.5004 18.7941 22.9527 18.7941 23.3703 18.7941C23.4747 18.7941 23.5791 18.7941 23.6835 18.7941C23.6835 20.6061 23.6835 22.4181 23.6835 24.2301ZM16.759 24.2301C16.759 24.3694 16.759 24.5437 16.759 24.6831C16.2371 24.6831 15.6803 24.6831 15.1584 24.6831C15.1584 22.8711 15.1584 21.0591 15.1584 19.2471C15.1584 19.1077 15.1584 18.9335 15.1584 18.7941C15.6803 18.7941 16.2371 18.7941 16.759 18.7941C16.759 20.6061 16.759 22.4181 16.759 24.2301ZM10.0781 24.2301C10.0781 24.3694 10.0781 24.5437 10.0781 24.6831C9.55618 24.6831 8.99944 24.6831 8.47749 24.6831C8.47749 22.8711 8.47749 21.0591 8.47749 19.2471C8.47749 19.1077 8.47749 18.9335 8.47749 18.7941C8.51229 18.7941 8.51229 18.7941 8.54709 18.7941C9.06903 18.7941 9.55618 18.7941 10.0781 18.7941C10.0781 20.6061 10.0781 22.4181 10.0781 24.2301ZM22.8832 1.47569C23.927 2.73014 24.9709 4.01944 26.0148 5.27389C25.6669 5.27389 25.3189 5.27389 24.9709 5.27389C24.623 5.27389 24.4838 5.69204 24.6926 5.93596C25.7712 7.22526 26.8499 8.51456 27.9634 9.80386C27.2327 9.80386 26.502 9.80386 25.806 9.80386C25.4581 9.80386 25.3189 10.222 25.5277 10.4659C26.5716 11.7204 27.6502 12.9748 28.6941 14.2293C28.1722 14.2293 27.6502 14.2293 27.1283 14.2293C26.7803 14.2293 26.6411 14.6474 26.8499 14.8914C27.7198 15.9367 28.5897 16.9473 29.4596 17.9926C27.685 17.9926 25.9104 17.9926 24.1706 17.9926C24.1358 17.9926 24.1358 17.9926 24.101 17.9926C23.927 17.9926 23.7531 17.9926 23.5791 17.9926C22.744 16.9821 21.9089 16.0064 21.0737 14.9959C21.5957 14.9959 22.1176 14.9959 22.6396 14.9959C22.9875 14.9959 23.1267 14.5777 22.9179 14.3338C21.8741 13.0794 20.7954 11.8249 19.7515 10.5705C19.8211 10.5705 19.9255 10.5705 19.9951 10.5705C20.6214 10.5705 21.2825 10.5705 21.9089 10.5705C22.2568 10.5705 22.396 10.1523 22.1872 9.90839C21.1085 8.6191 20.0299 7.3298 18.9164 6.0405C19.2643 6.0405 19.5775 6.0405 19.9255 6.0405C19.9603 6.0405 19.9603 6.0405 19.9951 6.0405C20.0299 6.0405 20.0647 6.00565 20.0994 6.00565C20.0994 6.00565 20.1342 6.00565 20.1342 5.97081L20.169 5.93596C20.169 5.93596 20.169 5.93596 20.2038 5.90112C20.2386 5.86627 20.2386 5.86627 20.2386 5.83142C20.2386 5.79658 20.2734 5.76173 20.2734 5.72689V5.69204V5.65719C20.2734 5.55266 20.2386 5.44812 20.169 5.37843C20.0647 5.27389 19.9951 5.16935 19.8907 5.02997C20.8998 3.84521 21.9089 2.66045 22.8832 1.47569ZM15.9587 1.47569C17.0026 2.73014 18.0117 3.94974 19.0556 5.2042C19.0904 5.23904 19.0904 5.23904 19.1252 5.27389C19.0556 5.27389 19.0208 5.27389 18.9512 5.27389C18.6728 5.27389 18.3944 5.27389 18.1161 5.27389C17.7681 5.27389 17.6289 5.69204 17.8377 5.93596C18.9164 7.22526 19.9951 8.51456 21.1085 9.80386C20.3778 9.80386 19.6471 9.80386 18.9512 9.80386C18.9164 9.80386 18.9164 9.80386 18.8816 9.80386C18.812 9.80386 18.7424 9.8387 18.6728 9.90839L18.638 9.94324C18.638 9.94324 18.638 9.97809 18.6032 9.97809V10.0129C18.5684 10.0826 18.5684 10.1523 18.5684 10.222C18.5684 10.222 18.5684 10.222 18.5684 10.2569C18.5684 10.3265 18.6032 10.3962 18.6728 10.4659C19.7167 11.7204 20.7954 12.9748 21.8393 14.2293C21.3521 14.2293 20.865 14.2293 20.3778 14.2293C20.3082 14.1944 20.2038 14.2293 20.1342 14.2641C19.7863 14.3687 19.7515 14.7171 19.9255 14.9262C20.7954 15.9716 21.6653 16.9821 22.5352 18.0275C22.2568 18.0275 21.9784 18.0275 21.7001 18.0275C20.5866 18.0275 19.4731 18.0275 18.3596 18.0275C17.9769 18.0275 17.5593 18.0275 17.1766 18.0275C16.3762 18.0275 15.5759 18.0275 14.8104 18.0275C13.4186 18.0275 12.0267 18.0275 10.6349 18.0275C10.6001 18.0275 10.5653 18.0275 10.5305 18.0275C10.1825 18.0275 9.79975 18.0275 9.45179 18.0275C10.3217 16.9821 11.1916 15.9716 12.0615 14.9262C12.2703 14.6823 12.1311 14.2641 11.7831 14.2641C11.2612 14.2641 10.7393 14.2641 10.2173 14.2641C11.0872 13.2188 11.9571 12.1734 12.827 11.1628C12.8618 11.0932 12.9314 11.0583 12.9662 10.9886L13.001 10.9538C13.1402 10.8144 13.2446 10.6402 13.3838 10.5008C13.4186 10.4311 13.4534 10.3614 13.4882 10.2917V10.2569C13.4882 10.222 13.4882 10.1872 13.4882 10.1523C13.4882 10.1175 13.4882 10.0826 13.4534 10.0478V10.0129C13.4186 9.90839 13.3142 9.8387 13.2098 9.8387C13.175 9.8387 13.175 9.8387 13.1402 9.8387C12.4095 9.8387 11.6788 9.8387 10.9828 9.8387C11.9223 8.72363 12.827 7.64341 13.7665 6.52834C13.9405 6.35411 14.0797 6.14504 14.2537 5.97081C14.4625 5.72689 14.3233 5.30873 13.9753 5.30873C13.7665 5.30873 13.5925 5.30873 13.3838 5.30873C13.2446 5.30873 13.1054 5.30873 12.9662 5.30873C13.9057 4.15882 14.88 3.00891 15.8195 1.85899C15.7499 1.68476 15.8543 1.58022 15.9587 1.47569ZM2.70131 18.0275C3.57122 16.9821 4.44112 15.9716 5.31103 14.9262C5.51981 14.6823 5.38062 14.2641 5.03266 14.2641C4.51072 14.2641 3.98877 14.2641 3.46683 14.2641C4.37153 13.1839 5.27624 12.1385 6.18094 11.0583C6.35492 10.8841 6.49411 10.675 6.66809 10.5008C6.87686 10.2569 6.73768 9.8387 6.38972 9.8387C5.65899 9.8387 4.92827 9.8387 4.23235 9.8387C5.17185 8.72363 6.07655 7.64341 7.01605 6.52834C7.19003 6.35411 7.32922 6.14504 7.5032 5.97081C7.71198 5.72689 7.57279 5.30873 7.22483 5.30873C6.87686 5.30873 6.5289 5.30873 6.18094 5.30873C7.15523 4.12397 8.12953 2.93921 9.10383 1.7893C9.17342 1.71961 9.24301 1.61507 9.3126 1.54538C10.2521 2.69529 11.1916 3.81036 12.1311 4.96028C11.9919 5.13451 11.8527 5.27389 11.7135 5.44812C11.644 5.51781 11.6092 5.65719 11.6092 5.76173V5.79658C11.6092 5.79658 11.6092 5.79658 11.6092 5.83142V5.86627V5.90112C11.6092 5.90112 11.6092 5.93596 11.644 5.93596C11.6787 6.00565 11.7831 6.07534 11.8875 6.07534C11.9223 6.07534 11.9223 6.07534 11.9571 6.07534C12.3051 6.07534 12.6182 6.07534 12.9662 6.07534C12.0267 7.19041 11.122 8.27064 10.1825 9.3857C10.0085 9.55993 9.86934 9.76901 9.69536 9.94324C9.48659 10.1872 9.62577 10.6053 9.97373 10.6053C10.6349 10.6053 11.296 10.6053 11.9571 10.6053C11.9919 10.6402 12.0267 10.675 12.0267 10.7098C11.1568 11.7204 10.3217 12.7309 9.45179 13.7763C9.27781 13.9854 9.10383 14.1944 8.92984 14.4035C8.72107 14.6474 8.86025 15.0656 9.20821 15.0656C9.73016 15.0656 10.2521 15.0656 10.774 15.0656C9.93894 16.0761 9.10383 17.0518 8.26872 18.0623C8.16433 18.0623 8.09473 18.0623 7.99035 18.0623C7.05085 18.0623 6.07655 18.0623 5.13705 18.0623C4.40633 18.0275 3.57122 18.0275 2.70131 18.0275ZM10.8784 24.6831C10.8784 22.8711 10.8784 21.0591 10.8784 19.2471C10.8784 19.1077 10.8784 18.9335 10.8784 18.7941C11.7831 18.7941 12.6878 18.7941 13.5925 18.7941C13.8709 18.7941 14.1145 18.7941 14.3929 18.7941C14.3929 20.6061 14.3929 22.4181 14.3929 24.2301C14.3929 24.3694 14.3929 24.5437 14.3929 24.6831C13.6273 24.6831 12.8618 24.6831 12.0963 24.6831C11.6788 24.6831 11.2612 24.6831 10.8784 24.6831ZM17.5593 24.6831C17.5593 22.8711 17.5593 21.0591 17.5593 19.2471C17.5593 19.1077 17.5593 18.9335 17.5593 18.7941C18.812 18.7941 20.0647 18.7941 21.3173 18.7941C21.3173 20.6061 21.3173 22.4181 21.3173 24.2301C21.3173 24.3694 21.3173 24.5437 21.3173 24.6831C21.1781 24.6831 21.0389 24.6831 20.8998 24.6831C19.7863 24.6831 18.6728 24.6831 17.5593 24.6831Z" fill="#021120"/>
</svg>
