<svg width="51" height="50" viewBox="0 0 51 50" fill="none" xmlns="http://www.w3.org/2000/svg">
<path d="M6.5709 44.5V37.5H7.3509V44.5H6.5709ZM12.259 44.5V43.7C11.989 44.3 11.459 44.6 10.759 44.6C9.63902 44.6 8.85902 43.87 8.85902 42.44V41.69C8.85902 40.25 9.63902 39.52 10.759 39.52C11.489 39.52 11.999 39.85 12.259 40.41V37.2H13.039V44.5H12.259ZM10.939 40.2C10.059 40.2 9.64902 40.79 9.64902 41.69V42.42C9.64902 43.34 10.059 43.92 10.949 43.92C11.759 43.92 12.259 43.41 12.259 42.38V41.67C12.259 40.77 11.749 40.2 10.939 40.2ZM18.4945 43.04C18.3845 44.05 17.6345 44.6 16.5245 44.6C15.2845 44.6 14.4545 43.87 14.4545 42.44V41.68C14.4545 40.25 15.2745 39.52 16.5345 39.52C17.7445 39.52 18.5245 40.26 18.5245 41.7V42.15H15.2645C15.2645 42.31 15.2745 42.47 15.2845 42.62C15.3245 43.44 15.7245 43.94 16.5645 43.94C16.6445 43.94 16.7145 43.94 16.7845 43.93C17.3545 43.86 17.6745 43.55 17.7445 43.04H18.4945ZM15.2645 41.58L15.3245 41.65H17.7845C17.7445 40.63 17.3745 40.17 16.5345 40.17C15.6745 40.17 15.2745 40.72 15.2645 41.58ZM20.7086 41.72V44.5H19.9186V39.62H20.7086V40.54C21.0186 39.86 21.5886 39.52 22.2886 39.52C23.3486 39.52 23.9286 40.08 23.9286 41.26V44.5H23.1486V41.42C23.1486 40.61 22.8186 40.2 22.0286 40.2C21.2986 40.2 20.7086 40.76 20.7086 41.72ZM27.9446 43.89V44.55H27.2346C26.1546 44.55 25.7046 44.1 25.7046 43.05V40.28H24.9446V39.62H25.7046V38.18H26.4846V39.62H27.9446V40.28H26.4846V43.06C26.4846 43.61 26.7146 43.89 27.3746 43.89H27.9446ZM29.4883 38.67C29.1783 38.67 28.9383 38.45 28.9383 38.16C28.9383 37.87 29.1783 37.65 29.4883 37.65C29.8183 37.65 30.0483 37.87 30.0483 38.16C30.0483 38.45 29.8183 38.67 29.4883 38.67ZM29.0983 44.5V39.62H29.8883V44.5H29.0983ZM35 44.5V40.28H32.53V44.5H31.75V40.28H30.99V39.62H31.75V38.68C31.75 37.68 32.26 37.15 33.37 37.15H33.85V37.81H33.41C32.72 37.81 32.53 38.14 32.53 38.72V39.62H35.78V44.5H35ZM35.39 38.67C35.06 38.67 34.83 38.45 34.83 38.16C34.83 37.87 35.06 37.65 35.39 37.65C35.71 37.65 35.94 37.87 35.94 38.16C35.94 38.45 35.71 38.67 35.39 38.67ZM41.2386 43.04C41.1286 44.05 40.3786 44.6 39.2686 44.6C38.0286 44.6 37.1986 43.87 37.1986 42.44V41.68C37.1986 40.25 38.0186 39.52 39.2786 39.52C40.4886 39.52 41.2686 40.26 41.2686 41.7V42.15H38.0086C38.0086 42.31 38.0186 42.47 38.0286 42.62C38.0686 43.44 38.4686 43.94 39.3086 43.94C39.3886 43.94 39.4586 43.94 39.5286 43.93C40.0986 43.86 40.4186 43.55 40.4886 43.04H41.2386ZM38.0086 41.58L38.0686 41.65H40.5286C40.4886 40.63 40.1186 40.17 39.2786 40.17C38.4186 40.17 38.0186 40.72 38.0086 41.58ZM43.4528 41.77V44.5H42.6628V39.62H43.4528V40.48C43.7628 39.83 44.2828 39.52 44.9328 39.52H45.1728V40.28H44.9128C44.0528 40.28 43.4528 40.79 43.4528 41.77Z" fill="#151515"/>
<path d="M13.4512 27.6158C13.6266 26.9785 13.8877 26.0775 14.2368 25.0014L15.4911 13.8211C16.009 12.3328 17.2015 10.3386 19.861 8.1257L19.8611 8.12562C19.9856 8.02228 20.1711 7.99006 20.3322 8.04247C20.4923 8.09458 20.6158 8.22565 20.6158 8.39259V8.39552C21.533 7.19604 23.3417 5.49356 26.7865 4.07218C27.4495 3.7978 28.2325 3.85463 28.8295 4.21928L28.8297 4.2194C29.4257 4.58537 29.7142 5.18922 29.5584 5.79953L29.5583 5.79977C29.2291 7.07574 28.6787 8.78267 27.8075 10.4339C27.1239 11.7295 26.2409 12.9946 25.1089 13.9898C25.2038 13.9708 25.3054 13.9781 25.3956 14.0122C25.5917 14.0864 25.7184 14.29 25.6253 14.4899C25.5297 14.7033 24.3872 17.1904 22.5179 19.7298C20.6634 22.2491 18.0731 24.848 15.0601 25.2923C14.4284 27.2438 14.1003 28.5886 14.0539 28.7788C14.0517 28.7877 14.0502 28.794 14.0492 28.7978C14.0044 28.9888 13.809 29.1 13.6161 29.1C13.5885 29.1 13.5619 29.0969 13.5414 29.0946L13.5393 29.0943L13.5393 29.0944L13.5362 29.0939C13.3125 29.061 13.1283 28.8755 13.1796 28.6502L13.179 28.6501L13.1817 28.6424C13.1817 28.6422 13.1818 28.6419 13.1819 28.6417L13.1853 28.6279L13.1987 28.5746C13.2103 28.528 13.2274 28.4599 13.2499 28.3719C13.2951 28.1958 13.3621 27.9399 13.4512 27.6158ZM22.3659 14.7831L22.3663 14.7829C24.2775 14.0256 25.6799 12.4391 26.6958 10.6862C27.7114 8.934 28.3351 7.02524 28.693 5.63976L28.6931 5.63936C28.7729 5.33557 28.6397 5.0342 28.3112 4.82967C27.9789 4.62478 27.5558 4.59385 27.1802 4.74954L27.18 4.7496C24.4179 5.88937 22.7746 7.22677 21.822 8.27846C21.3455 8.80447 21.0413 9.25954 20.8561 9.58352C20.6738 9.90253 20.6072 10.0937 20.6051 10.0998L20.6051 10.1L20.6047 10.101C20.5427 10.2934 20.3267 10.3956 20.1231 10.3748C19.919 10.3539 19.7348 10.2077 19.7348 10.0028V9.32301C15.4767 13.2191 16.0005 16.1301 16.045 16.3384C16.0531 16.3662 16.0574 16.3946 16.0574 16.4235C16.0574 16.6505 15.8388 16.7986 15.6154 16.7986C15.45 16.7986 15.2973 16.7205 15.2201 16.5948C15.0743 16.3756 14.9648 16.0668 14.8814 15.739C14.8223 15.5065 14.7752 15.2602 14.7378 15.0219C13.4543 17.3876 13.1696 19.3275 13.3303 20.8429C13.4852 22.3032 14.0547 23.3769 14.5556 24.0635C14.9238 22.9888 15.3675 21.7854 15.8867 20.5235L15.8868 20.5233C17.5701 16.4476 20.4355 10.8842 24.5326 7.58958C24.7029 7.45264 24.9727 7.45264 25.143 7.58958C25.2312 7.66047 25.2806 7.75878 25.2806 7.86253C25.2806 7.96628 25.2312 8.06459 25.143 8.13549L25.1429 8.13556C21.1807 11.3142 18.3777 16.7519 16.7215 20.7647L16.7215 20.7647C16.1715 22.0961 15.7089 23.362 15.3308 24.4803C17.4518 23.9954 19.389 22.2733 20.9573 20.3591C22.4743 18.5074 23.6331 16.4921 24.2657 15.2923C23.4965 15.4883 22.6926 15.4984 22.5524 15.4984C22.3644 15.4984 22.1738 15.3943 22.1236 15.2134C22.0679 15.0247 22.1908 14.8534 22.3659 14.7831Z" fill="#151515" stroke="#151515" stroke-width="0.2"/>
<circle cx="29.5" cy="19" r="2" fill="#151515"/>
<path d="M30.5 19L37.5 19" stroke="#151515" stroke-linecap="round"/>
<circle cx="35.5" cy="26" r="2" fill="#151515"/>
<path d="M27.5 26L34.5 26" stroke="#151515" stroke-linecap="round"/>
</svg>
