<svg width="54" height="42" viewBox="0 0 54 42" fill="none" xmlns="http://www.w3.org/2000/svg">
<path d="M0.884562 41.7987V41.7985L0.87498 41.7989C0.647857 41.8098 0.488349 41.7344 0.382255 41.6265C0.272762 41.515 0.208884 41.357 0.200854 41.1899C0.192824 41.0228 0.241258 40.8594 0.339556 40.738C0.434162 40.6212 0.584306 40.5313 0.808904 40.5194L0.813418 40.5194L0.841829 40.5194L0.954073 40.5194L1.39186 40.5194L3.05355 40.5193L8.98447 40.5192L26.9815 40.5188C33.5258 40.5187 40.07 40.5186 44.978 40.5187L50.9081 40.5189L52.5692 40.5191L53.0067 40.5193L53.1187 40.5193L53.1468 40.5194L53.1535 40.5194L53.1545 40.5194C53.1541 40.5194 53.0588 40.4426 53.0386 40.3193C53.067 40.3193 53.0903 40.3193 53.1086 40.3193L53.1567 40.5194C53.3838 40.5194 53.5393 40.6023 53.64 40.715C53.7439 40.8313 53.8 40.992 53.8 41.1591C53.8 41.3261 53.7439 41.4868 53.64 41.6031C53.5393 41.7159 53.3838 41.7987 53.1567 41.7987H0.884562Z" fill="#021120" stroke="#F8F8F8" stroke-width="0.4"/>
<path d="M42.7468 28.1689L41.5273 28.5755L37.4822 16.4981L37.4559 16.4195L37.3817 16.3826L32.6393 14.021L32.6385 14.0207C32.523 13.9637 32.4274 13.8732 32.3639 13.761C32.3638 13.7609 32.3637 13.7607 32.3636 13.7606L28.8354 7.43304L28.6723 7.14065L28.4921 7.42278L17.4515 24.7089C17.2737 24.9855 16.9153 25.0842 16.6208 24.9367L16.6204 24.9365L14.0318 23.6475L13.8467 23.5553L13.7607 23.7435L9.70372 32.6295L8.53188 32.1004L12.9472 22.4222C13.098 22.0922 13.4956 21.9517 13.8221 22.1146L13.8224 22.1148L16.5164 23.453L16.6772 23.5329L16.7739 23.3816L28.1705 5.5505L28.1709 5.54994C28.2838 5.37193 28.4772 5.25957 28.6877 5.25072C28.9288 5.24332 29.1528 5.37145 29.2695 5.5823L29.2699 5.58294L33.3602 12.9086L33.3904 12.9625L33.4457 12.9901L38.2754 15.3959L38.2757 15.396C38.4279 15.4715 38.5438 15.6041 38.5982 15.7643C38.5982 15.7644 38.5983 15.7646 38.5983 15.7648L42.7468 28.1689Z" fill="#021120" stroke="#F8F8F8" stroke-width="0.4"/>
<path d="M51.1627 40.7423L49.9563 41.1964L44.289 26.3086L44.1343 25.9022L43.9264 26.2841L40.2358 33.0648C40.1881 33.1523 40.1205 33.2276 40.0383 33.2846C39.9561 33.3416 39.8616 33.3787 39.7623 33.393C39.6631 33.4072 39.5619 33.3982 39.4668 33.3666C39.3716 33.335 39.2853 33.2818 39.2147 33.2112L39.2144 33.211L37.3349 31.3391L37.1815 31.1864L37.0413 31.3514L28.4882 41.4204L27.506 40.5934L36.6491 29.8315L36.6495 29.8311C36.7066 29.7634 36.7773 29.7083 36.857 29.6691C36.9368 29.63 37.0238 29.6077 37.1127 29.6036C37.2016 29.5996 37.2903 29.614 37.3733 29.6459C37.4561 29.6777 37.5314 29.7261 37.5945 29.7882C37.5946 29.7883 37.5947 29.7884 37.5948 29.7885L39.3243 31.511L39.5134 31.6994L39.6411 31.4649L43.674 24.0581L43.6741 24.0579C43.7295 23.956 43.8117 23.8708 43.9121 23.8117C44.0125 23.7525 44.1271 23.7216 44.2439 23.7224L51.1627 40.7423ZM51.1627 40.7423L44.8425 24.1389L44.8421 24.1381C44.7966 24.0169 44.7151 23.9121 44.6082 23.8378C44.5014 23.7635 44.3744 23.7232 44.2439 23.7224L51.1627 40.7423Z" fill="#021120" stroke="#F8F8F8" stroke-width="0.4"/>
<path d="M14.9817 40.8546L13.7086 41.0624L13.063 37.1936L13.0246 36.9634L12.803 37.0366L11.209 37.563L11.208 37.5633C10.8934 37.6691 10.5505 37.5192 10.4152 37.2185C10.4151 37.2184 10.4151 37.2183 10.4151 37.2183L7.90082 31.5856L7.69802 31.1313L7.52994 31.5995C6.88047 33.409 6.00321 35.8525 5.28831 37.8436L4.38651 40.3553L4.11839 41.102L4.08825 41.1859L2.88508 40.7583C2.90077 40.7193 2.91868 40.6745 2.9387 40.6245C3.02322 40.4132 3.14529 40.1065 3.29558 39.7249C3.59613 38.9618 4.00958 37.899 4.46117 36.7C5.36267 34.3065 6.41877 31.3637 7.03109 29.1797C7.11946 28.9395 7.34505 28.7738 7.60395 28.7608C7.86957 28.7495 8.11383 28.9017 8.22012 29.1434L8.22058 29.1444L11.2818 36.001L11.3554 36.166L11.527 36.1094L13.3315 35.5142C13.3316 35.5142 13.3316 35.5142 13.3316 35.5142C13.7069 35.3909 14.103 35.629 14.1686 36.0135C14.1686 36.0136 14.1687 36.0136 14.1687 36.0137L14.9817 40.8546Z" fill="#021120" stroke="#F8F8F8" stroke-width="0.4"/>
<path d="M29.2544 7.12433L26.1998 16.2565L26.1399 16.4357L26.3154 16.5057L29.7934 17.8937C29.7936 17.8938 29.7937 17.8939 29.7939 17.8939C29.8919 17.9338 29.9784 17.997 30.0459 18.078C30.1135 18.1591 30.1598 18.2555 30.1809 18.3587C30.202 18.4618 30.1972 18.5685 30.1669 18.6693C30.1366 18.7701 30.0818 18.8619 30.0073 18.9366C30.0072 18.9367 30.0071 18.9368 30.007 18.9369L24.0265 24.8929L23.8444 25.0743L24.0649 25.2063L27.3572 27.1773L27.3573 27.1773C27.4411 27.2275 27.5123 27.2959 27.5655 27.3774C27.6187 27.459 27.6524 27.5514 27.6643 27.6478C27.6762 27.7442 27.6658 27.842 27.634 27.9338C27.6023 28.0257 27.5498 28.1092 27.4807 28.1779L27.4806 28.178L21.2259 34.4072L21.1093 34.5233L21.2007 34.66L22.5015 36.6063L22.5015 36.6064C22.5839 36.7294 22.6208 36.877 22.6062 37.024C22.5915 37.1711 22.5261 37.3086 22.4209 37.4132L22.4208 37.4133L18.3485 41.4689L17.4371 40.5613L21.0226 36.9964L21.1396 36.8801L21.0476 36.7431L19.7408 34.7972C19.7408 34.7971 19.7407 34.797 19.7407 34.797C19.6584 34.6739 19.6215 34.5264 19.6362 34.3795C19.6509 34.2325 19.7162 34.0949 19.8214 33.9903L19.8215 33.9902L25.8025 28.0337L25.9844 27.8526L25.7642 27.7205L22.4788 25.7499C22.4787 25.7498 22.4786 25.7498 22.4784 25.7497C22.3956 25.6995 22.3253 25.6313 22.2727 25.5503C22.2201 25.4692 22.1867 25.3773 22.1748 25.2816C22.163 25.1858 22.173 25.0886 22.2043 24.9973C22.2355 24.9062 22.287 24.8231 22.355 24.7545C22.3551 24.7543 22.3553 24.7542 22.3554 24.754L28.1986 18.9348L28.4142 18.72L28.1315 18.6073L25.1006 17.3986L25.0998 17.3983C24.9473 17.3383 24.8239 17.2227 24.7543 17.0754C24.6848 16.9283 24.6743 16.7605 24.7247 16.6059C24.7248 16.6057 24.7248 16.6056 24.7249 16.6054L28.0343 6.71774L29.2544 7.12433Z" fill="#021120" stroke="#F8F8F8" stroke-width="0.4"/>
<path d="M7.83142 8.41109C7.83142 6.21402 9.6422 4.4149 11.8511 4.4149C14.0596 4.4149 15.8645 6.21363 15.8645 8.41109C15.8645 10.6085 14.0596 12.4073 11.8511 12.4073C9.6422 12.4073 7.83142 10.6082 7.83142 8.41109ZM14.5779 8.41109C14.5779 6.89874 13.3676 5.69462 11.8511 5.69462C10.3352 5.69462 9.11804 6.89809 9.11804 8.41109C9.11804 9.92408 10.3352 11.1276 11.8511 11.1276C13.3676 11.1276 14.5779 9.92344 14.5779 8.41109Z" fill="#021120" stroke="#F8F8F8" stroke-width="0.4"/>
<path d="M19.4545 9.04858L19.4462 9.04787H19.4378H17.7527C16.9537 9.03491 16.8935 7.8777 17.6766 7.77434L17.6843 7.77433L17.7405 7.77424L17.9412 7.77395L18.5505 7.77327C18.772 7.77309 18.9936 7.773 19.1598 7.77314C19.2227 7.77319 19.2776 7.77327 19.3214 7.7734L19.3277 7.78432L19.4545 7.77366C19.7036 7.75272 19.8711 7.83206 19.9785 7.9449C20.0903 8.0624 20.1519 8.23245 20.1519 8.41112C20.1519 8.58978 20.0903 8.75984 19.9785 8.87733C19.8711 8.99017 19.7036 9.06952 19.4545 9.04858Z" fill="#021120" stroke="#F8F8F8" stroke-width="0.4"/>
<path d="M5.96147 9.04858L5.9531 9.04787H5.94471H4.2603C3.46436 9.02928 3.4085 7.87659 4.18967 7.77434L4.19737 7.77433L4.25351 7.77424L4.45387 7.77395L5.06173 7.77327C5.25334 7.77312 5.44483 7.77303 5.60021 7.7731L5.58157 7.8056L5.96147 7.77366C6.21052 7.75272 6.37803 7.83206 6.48541 7.9449C6.59723 8.0624 6.65882 8.23245 6.65882 8.41112C6.65882 8.58978 6.59723 8.75984 6.48541 8.87733C6.37803 8.99017 6.21052 9.06952 5.96147 9.04858Z" fill="#021120" stroke="#F8F8F8" stroke-width="0.4"/>
<path d="M11.836 13.6378L11.8361 13.6378C11.9223 13.6362 12.0079 13.6518 12.0878 13.6838C12.1678 13.7157 12.2405 13.7633 12.3015 13.8237C12.3626 13.8841 12.4108 13.956 12.4434 14.0352C12.4759 14.1143 12.4922 14.1992 12.4912 14.2847L12.4912 14.2847V14.287V15.9667C12.4912 16.1361 12.4236 16.2988 12.3031 16.4189C12.1825 16.5389 12.0188 16.6066 11.8479 16.6066C11.677 16.6066 11.5133 16.5389 11.3927 16.4189C11.2722 16.2988 11.2046 16.1361 11.2046 15.9667V14.287H11.2046L11.2046 14.2847C11.2027 14.1161 11.2678 13.9534 11.386 13.8321C11.5042 13.7108 11.6659 13.6409 11.836 13.6378Z" fill="#021120" stroke="#F8F8F8" stroke-width="0.4"/>
<path d="M11.8359 0.200115L11.836 0.200113C11.9226 0.198494 12.0087 0.214288 12.0889 0.246531C12.1692 0.278773 12.2421 0.326789 12.3032 0.387663C12.3643 0.448536 12.4125 0.521015 12.4448 0.600742C12.477 0.680467 12.4928 0.765829 12.4912 0.851729L12.4912 0.851729V0.8555V2.53521C12.4912 2.70465 12.4236 2.86731 12.303 2.98737C12.1825 3.10746 12.0187 3.17507 11.8479 3.17507C11.677 3.17507 11.5133 3.10746 11.3927 2.98737C11.2721 2.86731 11.2046 2.70465 11.2046 2.53521V0.8555H11.2046L11.2045 0.851732C11.2029 0.767816 11.218 0.684394 11.2488 0.606227C11.2796 0.528057 11.3256 0.456648 11.3842 0.3961C11.4428 0.335549 11.5128 0.287047 11.5904 0.253403C11.6679 0.219758 11.7513 0.201643 11.8359 0.200115Z" fill="#021120" stroke="#F8F8F8" stroke-width="0.4"/>
<path d="M7.65631 11.7209L7.66217 11.9209C7.79157 11.9171 7.91905 11.9522 8.02798 12.0216C8.1369 12.091 8.22218 12.1913 8.27281 12.3095C8.32344 12.4277 8.33713 12.5582 8.31213 12.6842C8.28713 12.8102 8.22457 12.9258 8.13248 13.0161L8.13248 13.0161L8.13132 13.0172L6.93637 14.2073L6.93631 14.2072L6.93229 14.2115C6.8732 14.2739 6.80207 14.3238 6.7231 14.3584C6.64414 14.393 6.55898 14.4114 6.47268 14.4125C6.38638 14.4137 6.30075 14.3975 6.22088 14.3651C6.14102 14.3326 6.06857 14.2845 6.00782 14.2237C5.94707 14.1629 5.89927 14.0906 5.86719 14.0111C5.83512 13.9316 5.81943 13.8466 5.82102 13.761C5.82262 13.6754 5.84147 13.591 5.87648 13.5127C5.9115 13.4345 5.96197 13.364 6.02495 13.3054L6.02503 13.3055L6.02992 13.3006L7.21864 12.1168L7.21865 12.1168L7.22065 12.1147C7.33692 11.9956 7.49532 11.926 7.66243 11.9209L7.65631 11.7209ZM7.65631 11.7209C7.8257 11.716 7.99267 11.762 8.13543 11.8529C8.27819 11.9438 8.39013 12.0755 8.45664 12.2307C8.52316 12.386 8.54116 12.5576 8.5083 12.7231C8.47545 12.8887 8.39326 13.0406 8.27245 13.1589L7.07751 11.9751C7.23002 11.8188 7.43757 11.7276 7.65631 11.7209Z" fill="#021120" stroke="#F8F8F8" stroke-width="0.4"/>
<path d="M16.7595 2.61497L16.7594 2.61496L15.5645 3.80501L15.5604 3.80914L15.5603 3.80908C15.4976 3.86794 15.4475 3.9387 15.4129 4.01713C15.3783 4.09556 15.3599 4.18008 15.3588 4.26569C15.3576 4.35129 15.3738 4.43627 15.4062 4.51558M16.7595 2.61497L15.4062 4.51558M16.7595 2.61497L16.7615 2.61292M16.7595 2.61497L16.7615 2.61292M15.4062 4.51558C15.4387 4.59489 15.4869 4.66695 15.548 4.72745C15.6091 4.78795 15.6818 4.83565 15.7618 4.86769C15.8418 4.89972 15.9275 4.91542 16.0138 4.91382C16.1001 4.91223 16.1852 4.89338 16.264 4.85841C16.3427 4.82345 16.4136 4.7731 16.4724 4.71039M15.4062 4.51558L16.4724 4.71039M16.7615 2.61292C16.8777 2.49376 17.0361 2.42414 17.2032 2.41903M16.7615 2.61292L17.2032 2.41903M16.4771 4.70536L16.4772 4.70544L17.6659 3.52159L17.6686 3.51894L17.6686 3.51897C17.7621 3.4293 17.826 3.31366 17.8521 3.18731C17.8782 3.06096 17.8653 2.92969 17.8151 2.81073M16.4771 4.70536L17.8151 2.81073M16.4771 4.70536L16.4724 4.71039M16.4771 4.70536L16.4724 4.71039M17.8151 2.81073C17.7648 2.69176 17.6796 2.59058 17.5703 2.52061C17.4611 2.45064 17.333 2.41519 17.203 2.41903L17.1971 2.21912M17.8151 2.81073L17.1971 2.21912M17.2032 2.41903L17.1971 2.21912M17.2032 2.41903L17.1971 2.21912" fill="#021120" stroke="#F8F8F8" stroke-width="0.4"/>
<path d="M6.4738 2.21912L6.47365 2.41912C6.55963 2.41918 6.64471 2.43639 6.72386 2.46971C6.80301 2.50302 6.8746 2.55176 6.93444 2.61301L6.93442 2.61302L6.93636 2.61495L8.13131 3.80501L8.13125 3.80507L8.13551 3.80908C8.19818 3.86794 8.24828 3.9387 8.28289 4.01713C8.31749 4.09556 8.3359 4.18008 8.33704 4.26568C8.33819 4.35128 8.32205 4.43626 8.28956 4.51558C8.25707 4.59489 8.20888 4.66695 8.14782 4.72745C8.08675 4.78795 8.01405 4.83565 7.93401 4.86768C7.85398 4.89972 7.76826 4.91541 7.68197 4.91382C7.59568 4.91223 7.51062 4.89337 7.43183 4.85841C7.35305 4.82345 7.28219 4.7731 7.22343 4.71039L7.22351 4.71031L7.21862 4.70544L6.0299 3.52159L6.02993 3.52156L6.02731 3.51905C5.9351 3.43049 5.87166 3.3166 5.845 3.19206C5.81835 3.06753 5.82966 2.9379 5.87751 2.81977C5.92537 2.70163 6.00763 2.60029 6.11388 2.52885C6.22014 2.45741 6.3455 2.41916 6.47387 2.41912L6.4738 2.21912ZM6.4738 2.21912C6.58636 2.2192 6.69777 2.24173 6.80145 2.28537C6.90514 2.32902 6.99899 2.3929 7.07749 2.47324L5.88877 3.6633C5.76781 3.54712 5.68447 3.3976 5.64943 3.23393C5.6144 3.07025 5.62927 2.89988 5.69214 2.74468C5.75501 2.58948 5.86301 2.45652 6.00229 2.36288C6.14156 2.26924 6.30575 2.21917 6.4738 2.21912Z" fill="#021120" stroke="#F8F8F8" stroke-width="0.4"/>
<path d="M15.5645 13.0172L15.5645 13.0172L15.5624 13.0152C15.4746 12.9302 15.413 12.822 15.3849 12.7035C15.3568 12.585 15.3632 12.4609 15.4035 12.3459C15.4439 12.2309 15.5164 12.1297 15.6127 12.0542C15.709 11.9787 15.825 11.9321 15.9472 11.92L15.9275 11.721L15.947 11.92C16.044 11.9105 16.1418 11.923 16.2332 11.9566C16.3246 11.9902 16.407 12.044 16.4743 12.1139L16.4743 12.1139L16.4772 12.1168L17.6659 13.3007L17.6658 13.3007L17.6709 13.3054C17.7339 13.364 17.7843 13.4345 17.8194 13.5127C17.8544 13.591 17.8732 13.6754 17.8748 13.761C17.8764 13.8466 17.8607 13.9316 17.8286 14.0111C17.7966 14.0906 17.7488 14.1629 17.688 14.2237C17.6273 14.2845 17.5548 14.3326 17.475 14.3651C17.3951 14.3975 17.3095 14.4137 17.2232 14.4125C17.1369 14.4114 17.0517 14.393 16.9727 14.3584C16.8938 14.3239 16.8226 14.2739 16.7635 14.2115L16.7636 14.2114L16.7595 14.2073L15.5645 13.0172Z" fill="#021120" stroke="#F8F8F8" stroke-width="0.4"/>
</svg>
