<svg width="30" height="100" viewBox="0 0 30 100" fill="none" xmlns="http://www.w3.org/2000/svg">
<path d="M18.3306 1.29578C17.4138 0.373541 16.5729 -0.0623122 15.8331 0.0071717C10.7811 0.480926 0.942789 16.1211 0.0449436 40.2573C-0.492499 54.7226 3.89556 63.8945 7.56914 68.9858C7.52488 68.9668 7.49326 68.9352 7.449 68.9163C6.43102 68.4552 5.3182 68.6004 4.24964 68.771C3.94614 68.8152 4.07892 69.2763 4.3761 69.2258C5.30556 69.0805 6.32354 68.9289 7.21506 69.3269C7.82837 69.5985 8.30259 70.0912 8.61241 70.6786C7.80941 70.2681 6.90524 70.0659 5.99475 70.1101C5.69125 70.1228 5.69125 70.5965 5.99475 70.5839C7.24667 70.5207 8.49227 70.9566 9.42173 71.7967C9.1625 71.8662 8.89694 71.9862 8.66299 72.0746C7.96748 72.3463 7.24035 72.5547 6.5069 72.7C6.20972 72.7568 6.33618 73.218 6.63336 73.1548C7.27829 73.0285 7.91057 72.8516 8.52389 72.6305C8.83371 72.5168 9.13088 72.3715 9.43438 72.2641C9.69362 72.1757 9.95285 72.1441 10.1489 72.3778C10.1805 72.4157 10.2121 72.4347 10.25 72.441C10.1868 72.4536 10.1236 72.4536 10.0667 72.4726C9.59877 72.5863 9.14353 72.7821 8.7199 73.0221C7.85999 73.5148 7.14551 74.216 6.5069 74.9614C6.31089 75.1888 6.646 75.5299 6.84201 75.2962C7.37313 74.6771 7.95483 74.0834 8.64402 73.6285C8.98546 73.4011 9.34586 73.2116 9.72523 73.0727C9.91492 73.0032 10.1046 72.9463 10.3006 72.9084C10.4018 72.8895 10.5029 72.8705 10.6041 72.8579C10.6547 72.8516 10.7053 72.8453 10.7622 72.839C10.876 72.8263 10.8633 72.8516 10.8254 72.7947C10.8507 72.8263 10.8823 72.8516 10.9266 72.8642C11.0846 73.0158 11.2364 73.1548 11.3755 73.2811C11.1479 73.3317 10.9202 73.4517 10.7306 73.5464C10.2563 73.7738 9.80111 74.0518 9.3838 74.3676C8.54918 75.0056 7.84102 75.8078 7.32887 76.7237C7.17712 76.989 7.58811 77.2291 7.73985 76.9638C8.17613 76.1931 8.73887 75.5109 9.41541 74.9424C9.7442 74.6645 10.0983 74.4245 10.4776 74.2097C10.6673 74.1023 10.8633 74.0012 11.0657 73.9128C11.1668 73.8686 11.268 73.8244 11.3755 73.7802C11.3945 73.7738 11.4893 73.7422 11.5462 73.7233C10.7685 74.355 10.1742 75.1761 9.84536 76.13C9.7442 76.4205 10.2058 76.5406 10.3006 76.2563C10.6168 75.3404 11.2174 74.5255 11.9951 73.9507C12.0267 73.9254 12.052 73.9002 12.071 73.8686C12.1279 73.9128 12.1785 73.9507 12.2164 73.9823C12.3872 88.8897 13.0131 98.7249 13.2597 99.1671C13.5442 99.6724 14.0374 99.9819 14.5812 100.001C14.5938 100.001 14.6065 100.001 14.6191 100.001C15.1629 100.001 15.6561 99.704 15.9849 99.1797C16.1935 98.8449 16.1176 96.3245 15.8584 88.3907C15.7383 84.8028 15.5928 80.3495 15.4601 75.2014C15.4917 75.2204 15.5296 75.233 15.5675 75.233C16.0797 75.2835 16.5097 75.6689 16.7689 76.0921C17.0977 76.629 17.2115 77.2733 17.3253 77.8797C17.3822 78.1766 17.8375 78.0503 17.7805 77.7534C17.6478 77.0585 17.5087 76.3384 17.1103 75.7447C16.9206 75.4604 16.674 75.2267 16.3958 75.0498C17.3253 74.8477 18.4255 74.7466 19.14 75.492C19.3486 75.7131 19.6837 75.3783 19.4751 75.1572C19.1147 74.7782 18.6784 74.5824 18.2105 74.5003C19.0894 74.1276 20.1706 74.2918 20.8724 74.9424C21.0937 75.1509 21.4352 74.8161 21.2075 74.6076C20.727 74.1655 20.1137 73.9065 19.4751 73.8433C19.943 73.6349 20.4867 73.6665 20.9167 73.9507C21.0242 74.0202 21.1759 73.9697 21.2391 73.8686C21.3087 73.7549 21.2644 73.6159 21.1569 73.5464C20.7776 73.3001 20.3097 73.199 19.8671 73.2495C19.924 73.2053 19.9746 73.1674 20.0315 73.1232C20.4109 72.8137 20.8092 72.4536 21.2075 72.0241C21.2518 72.0431 21.3087 72.0557 21.3593 72.0367C21.8588 71.8725 22.352 71.7841 22.8704 71.7651C22.9969 71.7651 23.1107 71.6577 23.1107 71.5251C23.1107 71.3988 23.0095 71.285 22.8704 71.285C22.6238 71.2914 22.3836 71.323 22.1433 71.3608C22.5543 71.1398 22.9906 70.9818 23.4585 70.8871C23.5849 70.8618 23.6545 70.7102 23.6229 70.5965C23.5849 70.4639 23.4585 70.407 23.332 70.4323C22.9653 70.5081 22.6049 70.6281 22.2634 70.7797C24.8432 67.3876 27.4924 61.1909 28.6495 49.884C30.9827 26.8153 23.3004 6.29863 18.3306 1.29578ZM10.446 72.4031C10.446 72.4031 10.4524 72.4094 10.4587 72.4157C10.446 72.4157 10.4334 72.4157 10.4207 72.4157C10.4271 72.4157 10.4397 72.4031 10.446 72.3968V72.4031ZM15.5739 98.927C15.3273 99.3187 14.9542 99.5082 14.5875 99.5271C14.2145 99.5208 13.873 99.2997 13.677 98.946C13.1649 97.411 10.9961 53.1561 15.2008 9.0464C13.892 43.0051 14.8847 73.2875 15.3842 88.4034C15.5802 94.2906 15.7193 98.5417 15.5802 98.927H15.5739ZM28.15 49.8398C25.7537 73.2685 16.8953 74.5129 15.4284 74.5571C14.9542 56.3902 14.6128 29.7652 16.0101 1.21367L15.5359 1.17577C12.5515 27.4786 12.0015 54.4194 12.2038 73.3822C11.9572 73.1801 11.6031 72.8769 11.1732 72.4663C11.1732 72.4663 11.1732 72.4663 11.1668 72.46C9.92756 71.2787 8.04967 69.2195 6.22237 66.1243C3.36444 61.2794 0.0512665 52.8655 0.519158 40.2763C1.46759 14.8767 11.7169 0.866246 15.8774 0.480926C16.4527 0.430392 17.1925 0.822029 17.9955 1.63057C20.7333 4.38466 23.8062 11.3141 25.8295 19.2795C27.5999 26.2531 29.4399 37.219 28.15 49.8398Z" fill="#021120"/>
<path d="M3.40625 23.5416C3.45945 23.3288 3.97566 22.2777 3.97566 22.2777C4.88185 20.6145 4.49997 21.4999 3.97566 21.1527C3.97566 20.3541 4.53903 20.3034 4.80899 19.8715C5.03916 19.5032 5.21381 19.0991 5.47566 18.7499C5.66323 18.4998 5.87909 18.2458 6.10066 18.0242C6.43903 17.6859 6.48748 17.8464 6.3958 18.2881C6.02409 20.0791 5.45323 21.8372 5.06594 23.6284C4.95079 24.161 4.89025 24.6997 4.86108 25.243C4.86015 25.2603 4.83675 25.8736 4.88886 25.8194C5.01362 25.6896 5.07399 25.4422 5.15274 25.2847C5.93688 23.7164 6.67874 22.1224 7.5833 20.618C7.78595 20.281 7.95745 19.73 8.23608 19.4513C8.34354 19.3439 8.24906 20.2757 8.23608 20.3541C7.95751 22.0367 7.95521 23.7688 7.93747 25.4722C7.93533 25.677 7.93747 25.8819 7.93747 26.0867C7.93747 26.3458 8.04772 25.5795 8.12844 25.3333C8.62378 23.8225 9.29616 22.3091 10.1805 20.9826C10.422 20.6203 10.3125 21.4257 10.3125 21.5451C10.3125 22.2175 10.3125 22.89 10.3125 23.5624C10.3125 24.1244 10.3092 24.6806 10.375 25.2395C10.3895 25.3634 10.3992 25.721 10.4791 25.4374C10.6806 24.723 11.0287 24.0391 11.3125 23.3541C11.3692 23.2172 11.7425 22.2777 11.9236 22.2777C12.0329 22.2777 12.0142 24.8628 12.0486 25.1111C12.1055 25.5225 12.2821 25.0593 12.3611 24.8888C12.5677 24.4427 12.7327 23.9713 12.9722 23.5416C13.1508 23.2212 12.7011 23.9827 12.7011 24.1004C12.7011 24.3389 12.3398 24.7187 12.7011 24.7187" stroke="#021120" stroke-width="2" stroke-linecap="round"/>
<path d="M25.608 23.6991C26 23.6991 25.5 22 25.5 22C24.5938 20.3368 24.9758 21.3472 25.5001 21C25.5001 20.2014 24.4752 20.4609 24.2052 20.0289C23.9751 19.6607 23.8004 19.2565 23.5386 18.9074C23.351 18.6573 23.1351 18.4033 22.9136 18.1817C22.5752 17.8434 22.5267 18.0039 22.6184 18.4456C22.9901 20.2366 23.561 21.9947 23.9483 23.7859C24.0634 24.3184 24.124 24.8572 24.1531 25.4005C24.1541 25.4177 24.1775 26.031 24.1254 25.9769C24.0006 25.8471 23.9402 25.5996 23.8615 25.4421C23.0774 23.8739 22.3355 22.2799 21.4309 20.7755C21.2283 20.4384 21.0568 19.8874 20.7781 19.6088C20.6707 19.5013 20.7652 20.4332 20.7781 20.5116C21.0567 22.1941 21.059 23.9262 21.0768 25.6296C21.0789 25.8344 21.0768 26.0394 21.0768 26.2442C21.0768 26.5033 20.9665 25.737 20.8858 25.4907C20.3904 23.9799 19.7181 22.4666 18.8337 21.1401C18.5922 20.7778 18.7018 21.5831 18.7018 21.7026C18.7018 22.375 18.7018 23.0475 18.7018 23.7199C18.7018 24.2819 18.705 24.8381 18.6393 25.397C18.6247 25.5209 18.6151 25.8784 18.5351 25.5949C18.3336 24.8805 17.9855 24.1966 17.7018 23.5116C17.645 23.3747 17.2717 22.4352 17.0906 22.4352C16.9813 22.4352 17 25.0203 16.9656 25.2685C16.9087 25.68 16.7321 25.2168 16.6531 25.0463C16.4465 24.6002 16.2815 24.1287 16.042 23.6991C15.8635 23.3787 16.3131 24.1401 16.3131 24.2579C16.3131 24.4963 16.3613 24.5 16 24.5" stroke="#021120" stroke-width="2" stroke-linecap="round"/>
<path d="M1.34729 36.1529C1.54564 36.0867 1.75006 34.0661 1.75006 34.0661C1.75006 34.0661 1.7356 33.3808 1.98624 32.8681C2.0352 32.768 2.29148 32.0922 2.3404 32.3438C2.43734 32.8424 2.37512 33.3984 2.37512 33.9029C2.37512 35.4822 2.30746 37.1248 2.51401 38.6945C2.52092 38.747 2.54135 38.9385 2.61471 38.7848C2.87842 38.2323 2.99535 37.5783 3.14943 36.9897C3.45455 35.8239 3.74782 34.6523 4.20498 33.5348C4.2228 33.4913 4.4365 32.8354 4.48623 33.1945C4.61797 34.1459 4.49348 35.2021 4.4654 36.1529C4.4352 37.1754 4.35848 38.1988 4.37512 39.2223C4.38843 40.0407 4.63954 39.321 4.72582 38.9376C5.05379 37.4799 5.32901 36.0141 5.68762 34.5626C5.80878 34.0722 5.88129 33.5306 6.12165 33.0799C6.35125 32.6494 6.38589 33.7517 6.38901 33.7848C6.50023 34.9637 6.58102 36.1205 6.81262 37.2848C6.867 37.5582 6.9318 37.829 6.99318 38.1008C7.00884 38.1701 7.05063 38.6076 7.10082 38.2674C7.25391 37.2298 7.42802 36.2217 7.67374 35.2015C7.68735 35.1449 8.00218 33.9618 8.0904 34.0661C8.17543 34.1666 8.17616 34.4443 8.18762 34.5556C8.2487 35.1484 8.24596 35.7453 8.25012 36.3404C8.25514 37.0582 8.22295 37.8309 8.34735 38.5418C8.4349 39.0421 8.63438 38.4928 8.70151 38.2987C8.8743 37.7991 9.00016 37.2185 9.2779 36.764C9.36832 36.616 9.37512 37.7365 9.37512 37.8473C9.37512 37.9621 9.28279 39.1476 9.56262 39.132C9.84272 39.1165 10.2541 37.824 10.3473 37.6216C10.4294 37.4436 11.1432 35.8445 11.4237 35.9584C11.638 36.0455 11.6167 37.071 11.6217 37.2501C11.6319 37.6183 11.4925 38.2853 11.6876 38.6181C11.733 38.6955 11.9187 38.199 11.9376 38.1598C12.0062 38.0178 12.0286 37.6923 12.1876 37.6216C12.3465 37.551 12.1933 38.1137 12.1876 38.1251" stroke="#021120" stroke-width="2" stroke-linecap="round"/>
<path d="M27.7494 36.2299C27.5312 36.1576 27.5571 33.946 27.5571 33.946C27.5571 33.946 27.573 33.196 27.2974 32.6349C27.2436 32.5252 26.9617 31.7856 26.9079 32.061C26.8013 32.6067 26.8698 33.2152 26.8698 33.7674C26.8698 35.4959 26.9442 37.2937 26.717 39.0118C26.7094 39.0692 26.687 39.2788 26.6063 39.1106C26.3163 38.5058 26.1877 37.7901 26.0183 37.1458C25.6827 35.8699 25.3602 34.5876 24.8575 33.3645C24.8379 33.3168 24.6029 32.599 24.5482 32.9921C24.4033 34.0334 24.5402 35.1893 24.5711 36.2299C24.6043 37.3491 24.6887 38.4692 24.6704 39.5894C24.6558 40.4852 24.3796 39.6975 24.2847 39.2778C23.9241 37.6824 23.6214 36.0781 23.227 34.4894C23.0938 33.9527 23.0141 33.3599 22.7498 32.8667C22.4973 32.3955 22.4592 33.6019 22.4557 33.6381C22.3334 34.9284 22.2446 36.1945 21.9899 37.4688C21.9301 37.768 21.8588 38.0644 21.7913 38.3619C21.7741 38.4378 21.7282 38.9167 21.673 38.5443C21.5046 37.4087 21.3132 36.3053 21.0429 35.1887C21.028 35.1268 20.6818 33.8319 20.5847 33.946C20.4912 34.056 20.4904 34.36 20.4778 34.4818C20.4107 35.1306 20.4137 35.7838 20.4091 36.4352C20.4036 37.2208 20.439 38.0665 20.3022 38.8446C20.2059 39.3922 19.9865 38.791 19.9127 38.5785C19.7227 38.0317 19.5843 37.3962 19.2789 36.8988C19.1794 36.7369 19.1719 37.9632 19.1719 38.0845C19.1719 38.2102 19.2735 39.5076 18.9658 39.4906C18.6577 39.4736 18.2053 38.0589 18.1028 37.8375C18.0126 37.6426 17.2276 35.8924 16.9191 36.0171C16.6835 36.1124 16.7069 37.2348 16.7015 37.4308C16.6902 37.8339 16.8435 38.5639 16.6289 38.9282C16.579 39.0128 16.3748 38.4695 16.354 38.4265C16.2786 38.2711 16.254 37.9148 16.0791 37.8375C15.9044 37.7602 15.9938 38.4875 16.0001 38.5" stroke="#021120" stroke-width="2" stroke-linecap="round"/>
<path d="M1.26355 47.8264C1.46403 47.9267 2.41587 48.25 1.6381 48.3264M1.6381 48.3264C1.68139 48.8184 1.51862 49.2606 1.6381 49.7431C2.22832 49.632 2.3885 50 2.01355 50C2.15041 49.4728 1.48468 48.8495 1.6381 48.3264ZM1.6381 48.3264C1.73013 48.0127 1.83179 47.6397 2.01315 47.3611C2.22409 47.0372 2.41562 47.7097 2.46454 47.8334C2.57602 48.1152 3.74947 51.988 3.96454 51.9097C4.24161 51.809 4.03677 49.9571 4.03051 49.7431C4.01236 49.1223 3.92859 48.4474 4.00621 47.8264C4.04678 47.5019 4.21871 47.7104 4.29093 47.8924C4.6747 48.8595 4.87489 49.9197 5.1069 50.9306C5.16603 51.1882 5.25164 52.0701 5.55482 52.2049C5.66815 52.2553 5.77512 50.8598 5.78398 50.7639C5.81523 50.4259 5.73843 49.4622 6.00273 49.1979C6.15162 49.0491 6.40541 50.4738 6.42287 50.5695C6.51408 51.069 6.51248 51.8021 6.76315 52.257C6.80608 52.3349 6.8907 52.119 6.90551 52.0313C6.97641 51.6113 7.01144 51.185 7.07565 50.7639C7.16195 50.198 7.194 49.3639 7.5826 48.8959C7.76638 48.6745 7.92307 49.5389 7.93676 49.6042C8.07713 50.2739 8.12524 50.9583 8.28398 51.625C8.4743 52.4244 8.60204 51.3152 8.63815 51.0764C8.78081 50.1329 8.78791 49.1122 9.06176 48.1945C9.25888 47.5339 9.44294 48.1683 9.49926 48.4861C9.6161 49.1454 9.63557 49.8167 9.75274 50.4757C9.75402 50.4829 9.92388 51.3175 10.034 51.0972C10.3368 50.4917 10.426 49.7276 10.6243 49.0834C10.7847 48.5621 10.9704 47.6778 11.4576 47.3438C11.8913 47.0464 11.4873 48.7899 11.5 49C11.5078 49.128 11.4097 49.771 11.5 49.5" stroke="#021120" stroke-width="2" stroke-linecap="round"/>
<path d="M27.5676 47.5526C27.3362 47.6529 26.6698 47.9763 27.5677 48.0526M27.5677 48.0526C27.5177 48.5446 27.7056 48.9869 27.5677 49.4694C26.8863 49.3583 26.7014 49.7263 27.1343 49.7263C26.9763 49.1991 27.7448 48.5757 27.5677 48.0526ZM27.5677 48.0526C27.4614 47.7389 27.3441 47.3659 27.1347 47.0873C26.8912 46.7634 26.6701 47.4359 26.6137 47.5596C26.485 47.8414 25.1304 51.7143 24.8821 51.6361C24.5623 51.5354 24.7987 49.6834 24.806 49.4694C24.8269 48.8486 24.9236 48.1736 24.834 47.5526C24.7872 47.2281 24.5887 47.4366 24.5053 47.6186C24.0623 48.5857 23.8312 49.646 23.5634 50.6569C23.4952 50.9145 23.3963 51.7965 23.0464 51.9313C22.9155 51.9816 22.792 50.5861 22.7818 50.4902C22.7458 50.1523 22.8344 49.1885 22.5293 48.9242C22.3574 48.7753 22.0645 50.2001 22.0443 50.2958C21.939 50.7954 21.9409 51.5284 21.6515 51.9833C21.602 52.0613 21.5043 51.8454 21.4872 51.7576C21.4053 51.3377 21.3649 50.9114 21.2908 50.4902C21.1912 49.9243 21.1541 49.0902 20.7056 48.6221C20.4934 48.4007 20.3125 49.2651 20.2967 49.3305C20.1347 50.0002 20.0792 50.6846 19.8959 51.3514C19.6762 52.1508 19.5288 51.0416 19.4871 50.8027C19.3224 49.8592 19.3142 48.8385 18.9981 47.9207C18.7705 47.2601 18.5581 47.8945 18.493 48.2124C18.3582 48.8717 18.3357 49.543 18.2004 50.202C18.199 50.2092 18.0029 51.0438 17.8758 50.8236C17.5263 50.218 17.4232 49.4539 17.1944 48.8096C17.0092 48.2883 16.7948 47.404 16.2324 47.07C15.7318 46.7726 15.8272 48.5995 15.8125 48.8096C15.4416 48.8096 15.9168 49.6015 15.8125 49.3305" stroke="#021120" stroke-width="2" stroke-linecap="round"/>
<path d="M3.92358 59.4513C3.92358 59.6278 4.31248 60.4166 4.31248 60.4166C4.49229 60.8661 4.77142 60.8045 4.89769 61.2707C5.28662 61.3298 4.70306 62.3275 4.84021 61.8749C5.03527 61.2312 4.70134 60.6516 4.84021 59.993C4.883 59.79 5.04694 58.4075 5.26382 59.1666C5.55922 60.2005 5.88658 61.228 6.29854 62.2221C6.37819 62.4143 6.47199 62.7279 6.53118 62.3332C6.62625 61.6995 6.61271 61.0551 6.63882 60.4166C6.65759 59.9577 6.62296 59.3029 6.84368 58.8784C6.94379 58.6859 7.10245 59.2402 7.15271 59.4513C7.21807 59.7258 7.71251 63.0256 8.20132 62.9374C8.57423 62.8702 8.59744 61.7236 8.62493 61.493C8.72404 60.6616 8.70055 59.7655 8.90271 58.9513C9.04064 58.3958 9.22299 59.1514 9.24993 59.2951C9.37355 59.9544 9.4272 60.6231 9.61104 61.2707C9.66425 61.4582 9.78714 61.975 9.99993 61.5798C10.3058 61.0118 10.3467 60.2521 10.486 59.6319C10.5509 59.3432 10.6097 58.4554 10.9374 58.2916C11.2193 58.1507 11.2539 59.1375 11.2638 59.2221C11.3295 59.7814 11.3648 60.3521 11.4687 60.9062C11.5075 61.113 11.5761 61.159 11.6249 60.9305C11.7455 60.3657 11.1398 59.8592 11.2722 59.2951C11.2876 59.2296 11.5065 58.2982 11.6249 58.2916C11.7253 58.286 11.4687 60.0126 11.4687 60.1675" stroke="#021120" stroke-width="2" stroke-linecap="round"/>
<path d="M26 59.2587C26 59.4481 25.4966 60.2941 25.4966 60.2941C25.2638 60.7763 25.66 60.7103 25.4966 61.2104C24.9931 61.2737 24.9909 62.3439 24.8134 61.8585C24.5609 61.168 24.9931 60.5462 24.8134 59.8398C24.758 59.622 24.5457 58.1391 24.265 58.9533C23.8826 60.0623 23.4588 61.1646 22.9255 62.2309C22.8224 62.4371 22.7009 62.7734 22.6243 62.3501C22.5012 61.6702 22.5188 60.979 22.485 60.2941C22.4607 59.8019 22.5055 59.0995 22.2198 58.6442C22.0902 58.4377 21.8848 59.0323 21.8197 59.2587C21.7351 59.5532 21.095 63.0927 20.4622 62.9981C19.9795 62.926 19.9494 61.6961 19.9138 61.4487C19.7855 60.5569 19.8159 59.5958 19.5542 58.7224C19.3757 58.1265 19.1396 58.937 19.1047 59.0911C18.9447 59.7983 18.8752 60.5157 18.6372 61.2104C18.5683 61.4114 18.4093 61.9658 18.1338 61.5419C17.7379 60.9326 17.6849 60.1177 17.5045 59.4524C17.4205 59.1428 17.3444 58.1905 16.9201 58.0147C16.5552 57.8636 16.5105 58.9221 16.4976 59.0129C16.4126 59.6128 16.3669 60.225 16.2324 60.8193C16.1822 61.0412 16.0933 61.0905 16.0301 60.8454C15.874 60.2396 16.6581 59.6963 16.4867 59.0911C16.4669 59.021 16.1834 58.0218 16.0301 58.0147C15.9002 58.0088 16 59.8338 16 60" stroke="#021120" stroke-width="2" stroke-linecap="round"/>
</svg>
