<svg width="58" height="42" viewBox="0 0 58 42" fill="none" xmlns="http://www.w3.org/2000/svg">
<mask id="path-1-inside-1_67_4255" fill="white">
<path d="M48.4626 0.570732C48.3355 0.401857 48.1373 0.303711 47.9278 0.303711H26.2522C26.0462 0.303711 25.8577 0.401804 25.7312 0.559742C25.7275 0.564496 25.7212 0.565872 25.7174 0.570743L16.5903 12.6115C16.5 12.7291 16.4518 12.8741 16.4518 13.0236V26.9379H13.445V20.4489C13.445 20.074 13.1435 19.7699 12.7718 19.7699C12.4001 19.7699 12.0986 20.074 12.0986 20.4489V26.9379H9.25577V20.4489C9.25577 20.074 8.95422 19.7699 8.58255 19.7699C8.21087 19.7699 7.90932 20.074 7.90932 20.4489V26.9379H5.06651V20.4489C5.06651 20.074 4.76496 19.7699 4.39328 19.7699C4.0216 19.7699 3.72005 20.074 3.72005 20.4489V26.9379H1.40407C1.0324 26.9379 0.730846 27.2421 0.730846 27.617C0.730846 27.9919 1.0324 28.2961 1.40407 28.2961H17.125H21.7026C22.5916 29.2709 23.4075 30.2951 24.115 31.3553C24.1476 31.4038 24.1757 31.4569 24.208 31.5056H1.40407C1.0324 31.5056 0.730846 31.8098 0.730846 32.1847C0.730846 32.5596 1.0324 32.8637 1.40407 32.8637H24.6725C24.7902 32.8637 24.8953 32.8252 24.9916 32.7716C25.3604 33.4047 25.7124 34.0527 26.0321 34.7223C26.246 35.1639 26.4388 35.6182 26.6269 36.0742H1.40407C1.0324 36.0742 0.730846 36.3784 0.730846 36.7533C0.730846 37.1282 1.0324 37.4323 1.40407 37.4323H27.1354C27.21 37.6476 27.2962 37.859 27.3646 38.076C27.633 38.9186 27.8429 39.7795 28.018 40.6419H1.40232C1.03065 40.6419 0.729095 40.9461 0.729095 41.3209C0.729095 41.6958 1.03065 42 1.40232 42H57.0559C57.4275 42 57.7291 41.6958 57.7291 41.3209C57.7291 40.9461 57.4275 40.6419 57.0559 40.6419H42.6062C42.4056 39.6191 42.1756 38.6211 41.9082 37.6799C41.8844 37.5969 41.8552 37.5152 41.8309 37.4323H57.0541C57.4258 37.4323 57.7273 37.1282 57.7273 36.7533C57.7273 36.3784 57.4258 36.0742 57.0541 36.0742H41.4062C41.192 35.4333 40.9652 34.7977 40.7204 34.175C40.5475 33.7333 40.3588 33.2985 40.1708 32.8637H57.0541C57.4258 32.8637 57.7273 32.5596 57.7273 32.1847C57.7273 31.8098 57.4258 31.5056 57.0541 31.5056H39.5502C39.4162 31.225 39.2883 30.9388 39.1487 30.6639C38.7417 29.8638 38.2933 29.0751 37.8285 28.2961H57.0541H57.0559C57.4275 28.2961 57.7291 27.9919 57.7291 27.617V24.0732V19.0157V13.0236C57.7291 12.8741 57.6809 12.7291 57.5906 12.6115L48.4626 0.570732ZM56.3826 23.3941H38.1336V19.6947H56.3826V23.3941ZM47.5947 1.66182L55.7868 12.4674H35.8057L27.6144 1.66182H47.5947ZM17.7982 13.2534L26.2522 2.10037L34.707 13.2534V26.9379H30.7035H30.416V20.8751C30.416 19.7628 29.9804 18.7106 29.1888 17.9122C28.3981 17.1147 27.3549 16.6752 26.2522 16.6752C23.9564 16.6752 22.0883 18.5594 22.0883 20.8751V26.9379H22.0094H21.9297H17.7983L17.7982 13.2534ZM29.0696 26.9379H23.4348V20.8751C23.4348 19.3083 24.6988 18.0333 26.2522 18.0333C26.9955 18.0333 27.7003 18.3313 28.2368 18.8724C28.7741 19.4144 29.0696 20.1253 29.0696 20.8751V26.9379ZM25.2309 30.5949C24.7067 29.8098 24.1299 29.0405 23.5093 28.2961H29.7428H30.325C30.5072 28.5889 30.6803 28.8793 30.8511 29.1693C30.9613 29.3563 31.0793 29.5455 31.1846 29.731C31.4822 30.2558 31.7628 30.7751 32.0184 31.2837C32.5716 32.373 33.0818 33.5136 33.5367 34.6745C33.968 35.7718 34.3537 36.9098 34.6833 38.0548C34.8829 38.7606 35.0541 39.4804 35.2112 40.201C35.2318 40.2958 35.2509 40.3906 35.2707 40.4854H29.3737C29.1861 39.5358 28.9416 38.5879 28.647 37.6622C28.6001 37.5134 28.5394 37.3688 28.4899 37.2207C28.6054 37.0987 28.6786 36.9352 28.6786 36.7533C28.6786 36.4078 28.4189 36.1338 28.0878 36.091C27.83 35.425 27.5526 34.7675 27.2436 34.1299C26.6528 32.8929 25.9752 31.7028 25.2309 30.5949ZM38.1323 31.665C37.9801 31.7895 37.8767 31.9717 37.8767 32.1847C37.8767 32.5596 38.1783 32.8637 38.55 32.8637H38.7041C38.9725 33.4591 39.2291 34.0629 39.4686 34.6737C39.9008 35.7736 40.2865 36.9124 40.6144 38.0548C40.8344 38.832 41.0334 39.6463 41.2078 40.4854H36.6556C36.6046 40.2311 36.5438 39.9782 36.4871 39.7245C36.4503 39.5592 36.4166 39.3943 36.3775 39.2294C36.2539 38.7091 36.122 38.1911 35.9772 37.679C35.6353 36.4907 35.2356 35.3112 34.7885 34.175C34.3186 32.9743 33.79 31.793 33.2185 30.6666C32.9714 30.1765 32.6987 29.6755 32.4146 29.1705C32.3349 29.0291 32.2534 28.8879 32.171 28.7456C32.084 28.5954 32.0033 28.4471 31.9132 28.2961H35.3802H36.2603C36.8678 29.2687 37.4358 30.2722 37.9504 31.2837C38.0135 31.4082 38.0703 31.5392 38.1323 31.665ZM36.6293 26.9379H36.5724H36.0534V13.8255H56.3826V18.3366H37.4604C37.0887 18.3366 36.7871 18.6408 36.7871 19.0157V24.0732C36.7871 24.4481 37.0887 24.7522 37.4604 24.7522H56.3826V26.9379H36.6293Z"/>
</mask>
<path d="M48.4626 0.570732C48.3355 0.401857 48.1373 0.303711 47.9278 0.303711H26.2522C26.0462 0.303711 25.8577 0.401804 25.7312 0.559742C25.7275 0.564496 25.7212 0.565872 25.7174 0.570743L16.5903 12.6115C16.5 12.7291 16.4518 12.8741 16.4518 13.0236V26.9379H13.445V20.4489C13.445 20.074 13.1435 19.7699 12.7718 19.7699C12.4001 19.7699 12.0986 20.074 12.0986 20.4489V26.9379H9.25577V20.4489C9.25577 20.074 8.95422 19.7699 8.58255 19.7699C8.21087 19.7699 7.90932 20.074 7.90932 20.4489V26.9379H5.06651V20.4489C5.06651 20.074 4.76496 19.7699 4.39328 19.7699C4.0216 19.7699 3.72005 20.074 3.72005 20.4489V26.9379H1.40407C1.0324 26.9379 0.730846 27.2421 0.730846 27.617C0.730846 27.9919 1.0324 28.2961 1.40407 28.2961H17.125H21.7026C22.5916 29.2709 23.4075 30.2951 24.115 31.3553C24.1476 31.4038 24.1757 31.4569 24.208 31.5056H1.40407C1.0324 31.5056 0.730846 31.8098 0.730846 32.1847C0.730846 32.5596 1.0324 32.8637 1.40407 32.8637H24.6725C24.7902 32.8637 24.8953 32.8252 24.9916 32.7716C25.3604 33.4047 25.7124 34.0527 26.0321 34.7223C26.246 35.1639 26.4388 35.6182 26.6269 36.0742H1.40407C1.0324 36.0742 0.730846 36.3784 0.730846 36.7533C0.730846 37.1282 1.0324 37.4323 1.40407 37.4323H27.1354C27.21 37.6476 27.2962 37.859 27.3646 38.076C27.633 38.9186 27.8429 39.7795 28.018 40.6419H1.40232C1.03065 40.6419 0.729095 40.9461 0.729095 41.3209C0.729095 41.6958 1.03065 42 1.40232 42H57.0559C57.4275 42 57.7291 41.6958 57.7291 41.3209C57.7291 40.9461 57.4275 40.6419 57.0559 40.6419H42.6062C42.4056 39.6191 42.1756 38.6211 41.9082 37.6799C41.8844 37.5969 41.8552 37.5152 41.8309 37.4323H57.0541C57.4258 37.4323 57.7273 37.1282 57.7273 36.7533C57.7273 36.3784 57.4258 36.0742 57.0541 36.0742H41.4062C41.192 35.4333 40.9652 34.7977 40.7204 34.175C40.5475 33.7333 40.3588 33.2985 40.1708 32.8637H57.0541C57.4258 32.8637 57.7273 32.5596 57.7273 32.1847C57.7273 31.8098 57.4258 31.5056 57.0541 31.5056H39.5502C39.4162 31.225 39.2883 30.9388 39.1487 30.6639C38.7417 29.8638 38.2933 29.0751 37.8285 28.2961H57.0541H57.0559C57.4275 28.2961 57.7291 27.9919 57.7291 27.617V24.0732V19.0157V13.0236C57.7291 12.8741 57.6809 12.7291 57.5906 12.6115L48.4626 0.570732ZM56.3826 23.3941H38.1336V19.6947H56.3826V23.3941ZM47.5947 1.66182L55.7868 12.4674H35.8057L27.6144 1.66182H47.5947ZM17.7982 13.2534L26.2522 2.10037L34.707 13.2534V26.9379H30.7035H30.416V20.8751C30.416 19.7628 29.9804 18.7106 29.1888 17.9122C28.3981 17.1147 27.3549 16.6752 26.2522 16.6752C23.9564 16.6752 22.0883 18.5594 22.0883 20.8751V26.9379H22.0094H21.9297H17.7983L17.7982 13.2534ZM29.0696 26.9379H23.4348V20.8751C23.4348 19.3083 24.6988 18.0333 26.2522 18.0333C26.9955 18.0333 27.7003 18.3313 28.2368 18.8724C28.7741 19.4144 29.0696 20.1253 29.0696 20.8751V26.9379ZM25.2309 30.5949C24.7067 29.8098 24.1299 29.0405 23.5093 28.2961H29.7428H30.325C30.5072 28.5889 30.6803 28.8793 30.8511 29.1693C30.9613 29.3563 31.0793 29.5455 31.1846 29.731C31.4822 30.2558 31.7628 30.7751 32.0184 31.2837C32.5716 32.373 33.0818 33.5136 33.5367 34.6745C33.968 35.7718 34.3537 36.9098 34.6833 38.0548C34.8829 38.7606 35.0541 39.4804 35.2112 40.201C35.2318 40.2958 35.2509 40.3906 35.2707 40.4854H29.3737C29.1861 39.5358 28.9416 38.5879 28.647 37.6622C28.6001 37.5134 28.5394 37.3688 28.4899 37.2207C28.6054 37.0987 28.6786 36.9352 28.6786 36.7533C28.6786 36.4078 28.4189 36.1338 28.0878 36.091C27.83 35.425 27.5526 34.7675 27.2436 34.1299C26.6528 32.8929 25.9752 31.7028 25.2309 30.5949ZM38.1323 31.665C37.9801 31.7895 37.8767 31.9717 37.8767 32.1847C37.8767 32.5596 38.1783 32.8637 38.55 32.8637H38.7041C38.9725 33.4591 39.2291 34.0629 39.4686 34.6737C39.9008 35.7736 40.2865 36.9124 40.6144 38.0548C40.8344 38.832 41.0334 39.6463 41.2078 40.4854H36.6556C36.6046 40.2311 36.5438 39.9782 36.4871 39.7245C36.4503 39.5592 36.4166 39.3943 36.3775 39.2294C36.2539 38.7091 36.122 38.1911 35.9772 37.679C35.6353 36.4907 35.2356 35.3112 34.7885 34.175C34.3186 32.9743 33.79 31.793 33.2185 30.6666C32.9714 30.1765 32.6987 29.6755 32.4146 29.1705C32.3349 29.0291 32.2534 28.8879 32.171 28.7456C32.084 28.5954 32.0033 28.4471 31.9132 28.2961H35.3802H36.2603C36.8678 29.2687 37.4358 30.2722 37.9504 31.2837C38.0135 31.4082 38.0703 31.5392 38.1323 31.665ZM36.6293 26.9379H36.5724H36.0534V13.8255H56.3826V18.3366H37.4604C37.0887 18.3366 36.7871 18.6408 36.7871 19.0157V24.0732C36.7871 24.4481 37.0887 24.7522 37.4604 24.7522H56.3826V26.9379H36.6293Z" fill="#021120" stroke="#F8F8F8" stroke-width="0.4" mask="url(#path-1-inside-1_67_4255)"/>
<path d="M6.28989 6.34621C6.28989 4.65891 7.66228 3.28018 9.3334 3.28018C11.0043 3.28018 12.3723 4.65871 12.3723 6.34621C12.3723 8.0337 11.0043 9.41223 9.3334 9.41223C7.66228 9.41223 6.28989 8.0335 6.28989 6.34621ZM11.3158 6.34621C11.3158 5.23464 10.4375 4.34752 9.3334 4.34752C8.2296 4.34752 7.34637 5.23432 7.34637 6.34621C7.34637 7.45809 8.2296 8.34489 9.3334 8.34489C10.4375 8.34489 11.3158 7.45777 11.3158 6.34621Z" fill="#021120" stroke="#F8F8F8" stroke-width="0.2"/>
<path d="M14.9938 6.87788L14.9938 6.87752H14.9853H13.7296C13.075 6.86716 13.0202 5.89832 13.6702 5.81484L13.6789 5.81482L13.7208 5.81476L13.8703 5.81454L14.3242 5.81403C14.4893 5.81389 14.6544 5.81382 14.7782 5.81392L14.9267 5.81422L14.9299 5.81992L14.9938 5.81448C15.1925 5.79757 15.332 5.86189 15.4232 5.95887C15.5166 6.05831 15.5663 6.19999 15.5663 6.34618C15.5663 6.49237 15.5166 6.63405 15.4232 6.73349C15.332 6.83047 15.1925 6.8948 14.9938 6.87788Z" fill="#021120" stroke="#F8F8F8" stroke-width="0.2"/>
<path d="M4.94182 6.87788L4.94185 6.87752H4.93333H3.67795C3.02534 6.86266 2.97476 5.89739 3.62279 5.81484L3.63154 5.81482L3.67336 5.81476L3.82264 5.81454L4.2755 5.81403C4.44016 5.81389 4.60473 5.81382 4.72803 5.81392L4.76228 5.81399L4.75289 5.83057L4.94182 5.81448C5.14052 5.79757 5.28007 5.86189 5.3712 5.95887C5.46463 6.05831 5.51432 6.19999 5.51432 6.34618C5.51432 6.49237 5.46463 6.63405 5.3712 6.73349C5.28007 6.83047 5.14052 6.8948 4.94182 6.87788Z" fill="#021120" stroke="#F8F8F8" stroke-width="0.2"/>
<path d="M9.32129 10.2389L9.32134 10.2389C9.3919 10.2376 9.46202 10.2505 9.52756 10.2771C9.59311 10.3036 9.65276 10.3431 9.70297 10.3934C9.75318 10.4437 9.79292 10.5037 9.81979 10.5698C9.84666 10.636 9.8601 10.7069 9.85929 10.7785L9.85928 10.7785V10.7796V12.0469C9.85928 12.1888 9.80342 12.3246 9.70426 12.4246C9.60513 12.5246 9.47086 12.5806 9.33105 12.5806C9.19123 12.5806 9.05696 12.5246 8.95783 12.4246C8.85867 12.3246 8.80281 12.1888 8.80281 12.0469V10.7796H8.80281L8.8028 10.7785C8.80121 10.6373 8.85503 10.5014 8.95227 10.4004C9.04947 10.2994 9.18215 10.2414 9.32129 10.2389ZM9.95928 12.0469V10.7796H8.70281V12.0469C8.70281 12.215 8.769 12.3762 8.88681 12.495C9.00463 12.6139 9.16443 12.6806 9.33105 12.6806C9.49767 12.6806 9.65746 12.6139 9.77528 12.495C9.8931 12.3762 9.95928 12.215 9.95928 12.0469Z" fill="#021120" stroke="#F8F8F8" stroke-width="0.2"/>
<path d="M9.32125 0.100095L9.32131 0.100094C9.3922 0.098751 9.46265 0.111843 9.52846 0.138609C9.59426 0.165375 9.6541 0.205278 9.70436 0.255977C9.75463 0.306678 9.79429 0.367133 9.82092 0.433749C9.84755 0.500367 9.8606 0.571749 9.85927 0.643615L9.85925 0.643615V0.645477V1.91282C9.85925 2.05464 9.80339 2.19047 9.70423 2.29049C9.60509 2.39048 9.47083 2.4465 9.33101 2.4465C9.19119 2.4465 9.05692 2.39048 8.95779 2.29049C8.85863 2.19047 8.80277 2.05464 8.80277 1.91282V0.645477H8.80279L8.80275 0.643616C8.80145 0.573411 8.81387 0.503651 8.83929 0.438331C8.86472 0.373013 8.90263 0.313442 8.95082 0.263003C8.99902 0.212566 9.05654 0.172249 9.12009 0.144314C9.18364 0.11638 9.25199 0.101362 9.32125 0.100095Z" fill="#021120" stroke="#F8F8F8" stroke-width="0.2"/>
<path d="M5.84824 9.10562L5.84825 9.10563L5.84925 9.10459C5.94485 9.00536 6.07478 8.94767 6.21152 8.94343L6.20842 8.84348L6.21139 8.94343C6.31729 8.94029 6.42175 8.9694 6.51114 9.02706C6.60055 9.08474 6.67078 9.16834 6.71255 9.26707C6.75432 9.36582 6.76565 9.47501 6.745 9.58039C6.72435 9.68577 6.67272 9.7823 6.59699 9.85745L6.59699 9.85745L6.59641 9.85803L5.70621 10.7559L5.70618 10.7559L5.70419 10.758C5.65558 10.81 5.59716 10.8516 5.53242 10.8803C5.46769 10.909 5.39793 10.9242 5.32728 10.9252C5.25664 10.9261 5.1865 10.9127 5.12104 10.8858C5.05557 10.8589 4.99608 10.8189 4.94613 10.7682C4.89617 10.7176 4.85677 10.6573 4.83031 10.5909C4.80385 10.5245 4.79088 10.4533 4.7922 10.3817C4.79352 10.3101 4.80909 10.2395 4.83797 10.1741C4.86685 10.1088 4.90844 10.05 4.96021 10.0012L4.96025 10.0013L4.96268 9.99884L5.84824 9.10562Z" fill="#021120" stroke="#F8F8F8" stroke-width="0.2"/>
<path d="M12.9559 1.93649L12.9559 1.9365L12.9569 1.93547C13.0525 1.83624 13.1824 1.77854 13.3191 1.7743L13.316 1.67435L13.319 1.77431C13.4254 1.77112 13.5303 1.80049 13.62 1.85865C13.7097 1.91682 13.7799 2.00109 13.8214 2.1005C13.8628 2.19991 13.8735 2.30971 13.8519 2.4154C13.8304 2.52109 13.7776 2.61759 13.7007 2.69226L13.7007 2.69225L13.6994 2.69358L12.8138 3.58681L12.8138 3.58676L12.8115 3.58929C12.7631 3.64153 12.7049 3.68339 12.6403 3.71242C12.5757 3.74145 12.5061 3.75708 12.4354 3.7584C12.3648 3.75973 12.2946 3.74671 12.229 3.72012C12.1634 3.69353 12.1037 3.65389 12.0535 3.6035C12.0032 3.55311 11.9635 3.49301 11.9367 3.42674C11.9099 3.36047 11.8966 3.28941 11.8975 3.21779C11.8985 3.14617 11.9137 3.0755 11.9422 3.00998C11.9708 2.94446 12.0121 2.88545 12.0636 2.83644L12.0636 2.83647L12.0657 2.83439L12.9559 1.93649Z" fill="#021120" stroke="#F8F8F8" stroke-width="0.2"/>
<path d="M5.32749 1.67432L5.32741 1.77432C5.3978 1.77437 5.46748 1.78863 5.53236 1.8163C5.59724 1.84396 5.65604 1.88447 5.70525 1.93548L5.70524 1.93549L5.70621 1.93646L6.5964 2.83436L6.59637 2.83439L6.5985 2.83641C6.65002 2.88542 6.6913 2.94443 6.71984 3.00995C6.74838 3.07547 6.76359 3.14614 6.76454 3.21776C6.76548 3.28938 6.75215 3.36043 6.72534 3.42671C6.69854 3.49298 6.65883 3.55308 6.60861 3.60347C6.5584 3.65385 6.4987 3.6935 6.4331 3.72009C6.3675 3.74668 6.2973 3.75969 6.22666 3.75837C6.15602 3.75705 6.08634 3.74142 6.02175 3.71239C5.95716 3.68336 5.89896 3.6415 5.85062 3.58926L5.85066 3.58922L5.84824 3.58677L4.96267 2.69355L4.96269 2.69354L4.96139 2.69227C4.88556 2.61852 4.83321 2.52348 4.8112 2.41932C4.78918 2.31514 4.79853 2.20672 4.83802 2.10799C4.87751 2.00927 4.94528 1.92484 5.03251 1.86544C5.11973 1.80605 5.22246 1.77435 5.32752 1.77432L5.32749 1.67432ZM5.32749 1.67432C5.41134 1.67438 5.49434 1.69138 5.57158 1.72431C5.64882 1.75724 5.71874 1.80543 5.77722 1.86606L4.89166 2.76395C4.80155 2.6763 4.73946 2.56349 4.71336 2.43999C4.68726 2.3165 4.69834 2.18795 4.74517 2.07085C4.79201 1.95375 4.87247 1.85344 4.97622 1.78279C5.07998 1.71213 5.2023 1.67436 5.32749 1.67432Z" fill="#021120" stroke="#F8F8F8" stroke-width="0.2"/>
<path d="M12.3702 8.8435L12.3801 8.94301C12.4595 8.93513 12.5396 8.94552 12.6145 8.97341C12.6894 9.0013 12.757 9.046 12.8124 9.10419L12.8124 9.1042L12.8139 9.10565L13.6994 9.99887L13.6994 9.99891L13.7019 10.0013C13.7537 10.05 13.7952 10.1088 13.8241 10.1742C13.853 10.2395 13.8686 10.3101 13.8699 10.3817C13.8712 10.4534 13.8582 10.5245 13.8318 10.5909C13.8053 10.6573 13.7659 10.7176 13.716 10.7683C13.666 10.8189 13.6065 10.8589 13.5411 10.8858C13.4756 10.9128 13.4055 10.9261 13.3348 10.9252C13.2642 10.9242 13.1944 10.909 13.1297 10.8803C13.0649 10.8516 13.0065 10.81 12.9579 10.7581L12.9579 10.758L12.9559 10.756L12.0657 9.85806L12.0657 9.85805L12.0647 9.85703C11.9924 9.78623 11.9416 9.69598 11.9184 9.59686C11.8952 9.49774 11.9005 9.39398 11.9338 9.29784C11.9671 9.20172 12.0268 9.1173 12.1059 9.05448C12.185 8.99166 12.2802 8.95302 12.3802 8.943L12.3702 8.8435ZM12.3702 8.8435C12.4648 8.83411 12.5603 8.84649 12.6494 8.8797C12.7385 8.91291 12.8191 8.9661 12.8849 9.03524L11.9947 9.92846C11.9088 9.84433 11.8485 9.73719 11.821 9.61967C11.7935 9.50215 11.7998 9.37914 11.8393 9.26513C11.8787 9.15113 11.9497 9.05087 12.0438 8.97617C12.1378 8.90147 12.2511 8.85544 12.3702 8.8435Z" fill="#021120" stroke="#F8F8F8" stroke-width="0.2"/>
</svg>
