<svg width="77" height="128" viewBox="0 0 77 128" fill="none" xmlns="http://www.w3.org/2000/svg">
<rect x="0.25" y="0.25" width="76.5" height="127.5" rx="9.75" fill="#2D4941" stroke="#2D4941" stroke-width="0.5"/>
<path d="M42.3306 15.2958C41.4138 14.3735 40.5729 13.9377 39.8331 14.0072C34.7811 14.4809 24.9428 30.1211 24.0449 54.2573C23.5075 68.7226 27.8956 77.8945 31.5691 82.9858C31.5249 82.9668 31.4933 82.9352 31.449 82.9163C30.431 82.4552 29.3182 82.6004 28.2496 82.771C27.9461 82.8152 28.0789 83.2763 28.3761 83.2258C29.3056 83.0805 30.3235 82.9289 31.2151 83.3269C31.8284 83.5985 32.3026 84.0912 32.6124 84.6786C31.8094 84.2681 30.9052 84.0659 29.9947 84.1101C29.6913 84.1228 29.6913 84.5965 29.9947 84.5839C31.2467 84.5207 32.4923 84.9566 33.4217 85.7967C33.1625 85.8662 32.8969 85.9862 32.663 86.0746C31.9675 86.3463 31.2403 86.5547 30.5069 86.7C30.2097 86.7568 30.3362 87.218 30.6334 87.1548C31.2783 87.0285 31.9106 86.8516 32.5239 86.6305C32.8337 86.5168 33.1309 86.3715 33.4344 86.2641C33.6936 86.1757 33.9529 86.1441 34.1489 86.3778C34.1805 86.4157 34.2121 86.4347 34.25 86.441C34.1868 86.4536 34.1236 86.4536 34.0667 86.4726C33.5988 86.5863 33.1435 86.7821 32.7199 87.0221C31.86 87.5148 31.1455 88.216 30.5069 88.9614C30.3109 89.1888 30.646 89.5299 30.842 89.2962C31.3731 88.6771 31.9548 88.0834 32.644 87.6285C32.9855 87.4011 33.3459 87.2116 33.7252 87.0727C33.9149 87.0032 34.1046 86.9463 34.3006 86.9084C34.4018 86.8895 34.5029 86.8705 34.6041 86.8579C34.6547 86.8516 34.7053 86.8453 34.7622 86.839C34.876 86.8263 34.8633 86.8516 34.8254 86.7947C34.8507 86.8263 34.8823 86.8516 34.9266 86.8642C35.0846 87.0158 35.2364 87.1548 35.3755 87.2811C35.1479 87.3317 34.9202 87.4517 34.7306 87.5464C34.2563 87.7738 33.8011 88.0518 33.3838 88.3676C32.5492 89.0056 31.841 89.8078 31.3289 90.7237C31.1771 90.989 31.5881 91.2291 31.7399 90.9638C32.1761 90.1931 32.7389 89.5109 33.4154 88.9424C33.7442 88.6645 34.0983 88.4245 34.4776 88.2097C34.6673 88.1023 34.8633 88.0012 35.0657 87.9128C35.1668 87.8686 35.268 87.8244 35.3755 87.7802C35.3945 87.7738 35.4893 87.7422 35.5462 87.7233C34.7685 88.355 34.1742 89.1761 33.8454 90.13C33.7442 90.4205 34.2058 90.5406 34.3006 90.2563C34.6168 89.3404 35.2174 88.5255 35.9951 87.9507C36.0267 87.9254 36.052 87.9002 36.071 87.8686C36.1279 87.9128 36.1785 87.9507 36.2164 87.9823C36.3872 102.89 37.0131 112.725 37.2597 113.167C37.5442 113.672 38.0374 113.982 38.5812 114.001C38.5938 114.001 38.6065 114.001 38.6191 114.001C39.1629 114.001 39.6561 113.704 39.9849 113.18C40.1935 112.845 40.1176 110.325 39.8584 102.391C39.7383 98.8028 39.5928 94.3495 39.4601 89.2014C39.4917 89.2204 39.5296 89.233 39.5675 89.233C40.0797 89.2835 40.5097 89.6689 40.7689 90.0921C41.0977 90.629 41.2115 91.2733 41.3253 91.8797C41.3822 92.1766 41.8375 92.0503 41.7805 91.7534C41.6478 91.0585 41.5087 90.3384 41.1103 89.7447C40.9206 89.4604 40.674 89.2267 40.3958 89.0498C41.3253 88.8477 42.4255 88.7466 43.14 89.492C43.3486 89.7131 43.6837 89.3783 43.4751 89.1572C43.1147 88.7782 42.6784 88.5824 42.2105 88.5003C43.0894 88.1276 44.1706 88.2918 44.8724 88.9424C45.0937 89.1509 45.4352 88.8161 45.2075 88.6076C44.727 88.1655 44.1137 87.9065 43.4751 87.8433C43.943 87.6349 44.4867 87.6665 44.9167 87.9507C45.0242 88.0202 45.1759 87.9697 45.2391 87.8686C45.3087 87.7549 45.2644 87.6159 45.1569 87.5464C44.7776 87.3001 44.3097 87.199 43.8671 87.2495C43.924 87.2053 43.9746 87.1674 44.0315 87.1232C44.4109 86.8137 44.8092 86.4536 45.2075 86.0241C45.2518 86.0431 45.3087 86.0557 45.3593 86.0367C45.8588 85.8725 46.352 85.7841 46.8704 85.7651C46.9969 85.7651 47.1107 85.6577 47.1107 85.5251C47.1107 85.3988 47.0095 85.285 46.8704 85.285C46.6238 85.2914 46.3836 85.323 46.1433 85.3608C46.5543 85.1398 46.9906 84.9818 47.4585 84.8871C47.5849 84.8618 47.6545 84.7102 47.6229 84.5965C47.5849 84.4639 47.4585 84.407 47.332 84.4323C46.9653 84.5081 46.6049 84.6281 46.2634 84.7797C48.8432 81.3876 51.4924 75.1909 52.6495 63.884C54.9827 40.8153 47.3004 20.2986 42.3306 15.2958ZM34.446 86.4031C34.446 86.4031 34.4524 86.4094 34.4587 86.4157C34.446 86.4157 34.4334 86.4157 34.4207 86.4157C34.4271 86.4157 34.4397 86.4031 34.446 86.3968V86.4031ZM39.5739 112.927C39.3273 113.319 38.9542 113.508 38.5875 113.527C38.2145 113.521 37.873 113.3 37.677 112.946C37.1649 111.411 34.9961 67.1561 39.2008 23.0464C37.892 57.0051 38.8847 87.2875 39.3842 102.403C39.5802 108.291 39.7193 112.542 39.5802 112.927H39.5739ZM52.15 63.8398C49.7537 87.2685 40.8953 88.5129 39.4284 88.5571C38.9542 70.3902 38.6128 43.7652 40.0101 15.2137L39.5359 15.1758C36.5515 41.4786 36.0015 68.4194 36.2038 87.3822C35.9572 87.1801 35.6031 86.8769 35.1732 86.4663C35.1732 86.4663 35.1732 86.4663 35.1668 86.46C33.9276 85.2787 32.0497 83.2195 30.2224 80.1243C27.3644 75.2794 24.0513 66.8655 24.5192 54.2763C25.4676 28.8767 35.7169 14.8662 39.8774 14.4809C40.4527 14.4304 41.1925 14.822 41.9955 15.6306C44.7333 18.3847 47.8062 25.3141 49.8295 33.2795C51.5999 40.2531 53.4399 51.219 52.15 63.8398Z" fill="#F5EFE7"/>
<path d="M28.0007 33.501C28.0007 33.501 31.5007 37.501 38.5007 37.501C45.5007 37.501 50.5007 35.501 50.5007 35.501" stroke="#F5EFE7"/>
<path d="M28.5008 33.4385C28.5008 33.3213 28.7044 33.0332 28.6119 33.1051C28.4989 33.193 28.4965 33.3492 28.3758 33.4246C28.293 33.4763 28.2557 33.6801 28.1397 33.5496C28.1082 33.5142 28.5129 32.9871 28.5494 32.9385C29.2423 32.0146 29.7771 30.9706 30.4661 30.0357C30.6661 29.7642 30.8681 29.4948 31.0633 29.2197C31.0912 29.1804 31.3618 28.827 31.3619 28.8273C31.3775 28.9 31.2176 29.0944 31.1987 29.1225C30.9623 29.4739 30.7273 29.8247 30.5043 30.185C30.2435 30.6063 29.4819 31.8383 29.8688 31.5287C30.0898 31.352 30.2836 30.9873 30.4348 30.7683C30.915 30.0728 31.3775 29.3659 31.8272 28.6503C32.2929 27.9092 32.7479 27.1615 33.2091 26.4176C33.2179 26.4035 33.2786 26.2892 33.2369 26.4037C33.1011 26.7773 32.8396 27.128 32.6362 27.4628C31.9335 28.6194 31.0996 29.7871 30.5772 31.0426C30.4977 31.2336 30.4192 31.4438 30.3897 31.6503C30.3697 31.7899 30.5933 31.452 30.6709 31.3343C31.6919 29.7858 32.6662 28.2087 33.598 26.6051C33.6633 26.4928 34.4187 25.2138 33.9869 26.0773C33.182 27.6871 32.1564 29.171 31.2994 30.751C31.1035 31.1122 30.8976 31.4967 30.7786 31.8933C30.7589 31.9588 30.722 32.1121 30.789 32.0982C30.9741 32.0596 31.0709 31.8428 31.1848 31.6919C32.4694 29.9914 33.4972 28.1011 34.3202 26.1398C34.3927 25.9672 34.5567 25.6874 34.5668 25.4871C34.5852 25.1175 34.1194 26.0776 33.9209 26.3898C32.8662 28.0488 31.7372 29.6678 30.7508 31.369C30.5059 31.7913 30.1871 32.6051 30.7994 31.6642C31.7691 30.1738 32.5823 28.5821 33.3341 26.9732C33.3549 26.9287 33.433 26.8051 33.4175 26.8517C33.3009 27.2015 33.0767 27.5349 32.9001 27.8551C32.6076 28.3855 32.3198 28.9806 31.9383 29.4385" stroke="#F5EFE7" stroke-linecap="round"/>
<path d="M35.3132 23.5635C34.8087 24.9079 34.329 26.2653 33.7195 27.567C33.4635 28.1137 33.5423 27.9193 33.3063 28.4454C33.241 28.591 33.0309 29.0116 33.1379 28.8933C33.2386 28.782 33.2838 28.6307 33.3497 28.4958C33.5094 28.169 33.7042 27.7518 33.8549 27.4298C34.3601 26.3503 34.8478 25.2622 35.3653 24.1885C35.4858 23.9385 35.6273 23.6971 35.7438 23.4454C35.7549 23.4214 35.7597 23.394 35.7751 23.3725C35.8382 23.2842 35.7024 23.5772 35.6622 23.6781C35.2098 24.8121 34.721 25.931 34.2403 27.0531C33.8898 27.8714 33.4662 28.7203 33.3185 29.6069C33.2696 29.8998 33.3351 30.0055 33.5754 29.7545C34.2397 29.0602 34.5383 28.0292 34.8098 27.1364C35.0857 26.229 35.3071 25.3073 35.532 24.3864C35.6206 24.0236 35.9389 22.9511 35.8046 23.2996C35.5051 24.0764 35.2722 24.882 34.9973 25.6676C34.5703 26.8878 34.0608 28.0867 33.7056 29.3308C33.6361 29.5744 33.5172 30.1917 33.749 30.0895C33.8789 30.0323 33.9474 29.9082 34.0129 29.7892C34.3092 29.2514 34.4712 28.6204 34.6362 28.0357C34.9742 26.8378 35.2525 25.6236 35.5598 24.4176C35.6457 24.0802 35.9201 23.0729 35.8115 23.4038C35.6187 23.9913 35.4405 24.583 35.2386 25.1676C34.7335 26.6301 34.0862 28.0312 33.5389 29.4767C33.4105 29.8159 33.2272 30.3389 33.1292 30.7058C33.1026 30.8056 33.0799 30.907 33.0685 31.0097C33.0635 31.0541 33.0474 31.1134 33.0806 31.1433C33.2854 31.328 34.1984 29.2152 34.2073 29.192C34.7471 27.7858 35.1033 26.3132 35.4105 24.8413C35.4204 24.7937 35.5864 23.9258 35.5164 24.4975C35.2418 26.7395 34.3503 28.8624 33.8862 31.0635C33.8681 31.1491 33.7831 31.5551 33.8167 31.7058C33.8657 31.9257 34.1392 31.5913 34.1431 31.5861C34.3427 31.3186 34.442 31.0679 34.5546 30.744C34.8706 29.8347 35.0523 28.8793 35.2264 27.935C35.4191 26.8906 35.5554 25.8357 35.7924 24.7996C35.7976 24.7769 36.0744 23.6064 36.0007 24.2805C35.8566 25.6005 35.5713 26.9084 35.3132 28.2093C35.0487 29.5432 34.6791 30.9246 34.6188 32.2892C34.6033 32.6393 34.7849 32.6012 34.9296 32.3239C35.115 31.9684 35.2366 31.5525 35.341 31.1729C35.5862 30.2816 35.7447 29.3738 35.848 28.4558C35.9867 27.2227 36.1845 23.5053 36.1535 24.7458C36.0903 27.2757 35.486 29.71 35.1049 32.1989C35.0868 32.3174 35.0465 32.6329 35.0389 32.7788C35.0314 32.9239 35.0599 32.9715 35.1379 32.784C35.6373 31.5836 35.8337 30.2024 36.0355 28.9281C36.2172 27.7807 36.3239 26.6251 36.4695 25.4732C36.4972 25.2542 36.5521 24.8414 36.6049 24.6017C36.6283 24.4955 36.6861 24.3077 36.716 24.5426C36.8183 25.3462 36.6856 26.2278 36.5719 27.0183C36.323 28.7494 35.8651 30.4382 35.5737 32.1607C35.5553 32.2694 35.4942 32.686 35.4903 32.8343C35.4889 32.8876 35.5222 33.0107 35.5632 32.9767C35.6667 32.891 35.8085 32.5517 35.8341 32.4836C36.1055 31.7616 36.256 30.99 36.4001 30.2354C36.6982 28.6731 36.877 27.0921 37.1466 25.5253C37.1922 25.2599 37.3592 24.4867 37.3879 24.7545C37.481 25.6231 37.2739 26.6006 37.1518 27.4489C36.931 28.9829 36.5877 30.4942 36.3549 32.0253C36.3227 32.2374 36.2792 32.5832 36.2646 32.81C36.2579 32.9141 36.2113 33.0428 36.2785 33.1225C36.327 33.1799 36.378 33.0057 36.4035 32.935C36.5914 32.4139 36.686 31.848 36.7855 31.3065C37.0178 30.042 37.185 28.7678 37.3566 27.494C37.4663 26.6799 37.5173 25.7911 37.7507 24.9975C37.8706 24.59 37.7772 25.8481 37.7473 26.2718C37.6431 27.7459 37.383 29.1867 37.1292 30.6399C37.0402 31.1498 36.9397 31.6699 36.9139 32.1885C36.9114 32.2387 36.8889 32.3583 36.9348 32.3378C37.0502 32.2862 37.1459 31.6986 37.1501 31.6798C37.4803 30.191 37.6258 28.664 37.848 27.1572C37.9396 26.5355 38.029 25.9044 38.2004 25.2979C38.2062 25.2775 38.2312 25.2253 38.2369 25.2458C38.2698 25.3656 38.271 25.6297 38.2716 25.7041C38.2815 26.9237 38.074 28.1358 37.8514 29.3308C37.6619 30.3484 37.0563 33.3925 37.2994 32.3864C37.7326 30.5934 37.9683 28.7511 38.1813 26.9211C38.2064 26.7053 38.2339 26.4904 38.2646 26.2753C38.2694 26.2417 38.2676 26.1431 38.2803 26.1746C38.2854 26.1875 38.2824 26.2024 38.282 26.2163C38.277 26.3901 38.258 26.6853 38.2473 26.8274C38.1125 28.6115 37.7659 30.3564 37.5528 32.1295C37.5073 32.5085 37.466 32.8895 37.4695 33.2718C37.4746 33.8282 37.5726 32.1637 37.631 31.6104C37.7333 30.64 37.8351 29.6697 37.933 28.6989C37.985 28.1839 38.0152 27.6579 38.1014 27.1468C38.1162 27.0595 38.1271 26.8824 38.1813 26.8065C38.1968 26.7848 38.1888 26.8597 38.1882 26.8864C38.1802 27.2815 38.1483 27.679 38.1136 28.0722C37.9689 29.7106 37.6506 31.3272 37.4278 32.9558C37.4014 33.1493 37.3757 33.3404 37.3757 33.5357C37.3757 33.8718 37.4397 32.8666 37.473 32.5322C37.5697 31.5582 37.6631 30.5841 37.7438 29.6086C37.7685 29.3096 37.8132 28.411 37.8132 28.7111C37.8132 30.1987 37.5418 31.6714 37.2959 33.1329C37.1954 33.7301 37.1163 34.3271 37.0771 34.9315C37.0722 35.0078 37.0517 35.2348 37.0702 35.1607C37.1284 34.9279 37.1355 34.6455 37.1622 34.4124C37.2577 33.5781 37.3251 32.7402 37.4313 31.9072C37.461 31.674 37.5217 31.311 37.4782 31.8065C37.3677 33.064 37.1204 34.3113 37.0389 35.5704C37.0362 35.6134 37.0356 35.9682 37.0563 35.8951C37.2234 35.3045 37.2597 34.6594 37.3376 34.0531C37.3718 33.7859 37.3632 33.4155 37.4626 33.1572C37.4804 33.1108 37.4652 33.2568 37.4626 33.3065C37.4456 33.6237 37.4117 33.9393 37.3723 34.2545C37.2953 34.8705 37.0204 36.7119 37.1344 36.1017C37.2275 35.6039 37.2836 35.0979 37.3376 34.5947C37.3476 34.5012 37.4213 33.7019 37.4001 34.2579C37.3747 34.9188 37.2758 35.5724 37.2351 36.2319C37.2305 36.3071 37.2169 36.5328 37.2212 36.4576C37.2359 36.2 37.2493 35.9431 37.2507 35.685C37.251 35.6327 37.2507 35.3459 37.2507 35.3725C37.2507 35.6093 37.2438 35.8452 37.2195 36.0808C37.2011 36.2592 37.1738 36.4363 37.1639 36.6156C37.1596 36.6939 37.1102 36.9628 37.1587 37.0357C37.2265 37.1373 37.204 36.7955 37.2212 36.6746C37.2635 36.3789 37.3127 36.0835 37.3376 35.7857C37.3418 35.735 37.3609 35.5862 37.3688 35.6364C37.3997 35.8331 37.3653 36.0487 37.3445 36.244C37.3237 36.4394 37.3026 36.6348 37.2889 36.8308C37.2826 36.9214 37.27 37.0922 37.3011 36.8847C37.3318 36.6801 37.3629 36.4755 37.3879 36.2701C37.3948 36.2137 37.4418 35.9682 37.3862 36.1607C37.3729 36.2067 37.2188 36.7199 37.1188 36.6381C36.9452 36.4961 36.9095 36.0915 36.8792 35.9038C36.7411 35.0481 36.7139 34.1715 36.6952 33.3065C36.6839 32.7832 36.6743 32.2603 36.6587 31.7371C36.6577 31.7035 36.6677 31.6052 36.6553 31.6364C36.6132 31.7416 36.5972 32.1396 36.591 32.192C36.4406 33.4715 36.2091 34.7417 36.0823 36.0236C36.0789 36.0582 36.0618 36.403 36.0771 36.3308C36.2099 35.7068 36.249 35.0556 36.2907 34.4211C36.3246 33.9048 36.3445 33.3882 36.3445 32.8708C36.3445 32.8178 36.3457 32.7083 36.3428 32.8204C36.3327 33.2058 36.3247 33.5913 36.3132 33.9767C36.293 34.6542 36.2413 35.3305 36.223 36.0079C36.2213 36.0694 36.1615 36.618 36.2577 36.6607C36.292 36.676 36.3104 36.6032 36.3202 36.567C36.3618 36.4131 36.3875 36.1669 36.4001 36.0253C36.4573 35.3811 36.4695 34.7325 36.4695 34.0861C36.4695 33.4303 36.4706 35.3978 36.4452 36.0531C36.4397 36.1932 36.4382 36.333 36.4382 36.4732C36.4382 36.6236 36.4144 36.1733 36.4001 36.0236C36.384 35.8563 36.2166 33.8713 35.8914 33.942C35.7633 33.9698 35.7275 34.4692 35.716 34.534C35.639 34.9674 35.5766 35.4031 35.5077 35.8378C35.4803 36.0107 35.4796 35.4885 35.4764 35.3135C35.462 34.5035 35.4695 33.693 35.4695 32.8829C35.4695 32.74 35.4652 32.5969 35.4712 32.4541C35.4732 32.4088 35.4834 32.5442 35.4851 32.5895C35.517 33.4256 35.5055 34.2653 35.4938 35.1017C35.4874 35.5577 35.3736 36.9056 35.5077 36.4697C35.7141 35.7987 35.7507 33.6757 35.7507 34.3777C35.7507 35.0472 35.7437 35.717 35.7507 36.3864C35.7511 36.4221 35.7697 36.5258 35.7751 36.4906C35.8075 36.2756 35.7702 36.0343 35.723 35.8256C35.6017 35.2906 35.3695 34.7875 35.1882 34.2718C34.9644 33.635 34.8158 32.994 34.7247 32.3256C34.6579 31.8358 34.5945 30.3538 34.5945 30.8482C34.5945 32.1664 34.5709 33.4948 34.7195 34.8065C34.7551 35.1205 34.79 35.4574 34.907 35.7545C34.9824 35.9459 35.0469 35.9513 35.0754 35.7197C35.2485 34.3118 34.6667 32.9562 34.3514 31.6104C34.3167 31.4619 34.2768 31.3221 34.223 31.1798C34.1917 31.0972 34.1909 31.0324 34.1813 31.1642C34.0826 32.5137 34.3346 33.822 34.5841 35.1433C34.6433 35.4572 34.6974 35.7766 34.7976 36.0808C34.8298 36.1784 34.946 36.4427 34.9626 36.3413C34.9697 36.2977 34.9578 36.1403 34.9556 36.1225C34.8995 35.6659 34.7761 35.2166 34.6518 34.7753C34.3393 33.6657 33.9636 32.5684 33.5459 31.494C33.4642 31.284 33.0718 30.2444 32.9712 31.0392C32.7923 32.4525 32.9157 33.8146 33.4209 35.1468C33.4997 35.3546 33.5878 35.6282 33.7716 35.7753C34.0671 36.0117 34.0326 35.4567 34.0216 35.3187C33.9541 34.4728 33.6891 33.6313 33.348 32.8586C33.2824 32.7101 32.9915 32.0957 32.9174 31.942C32.8375 31.776 32.7455 31.5191 32.6101 31.376C32.5371 31.2988 32.4216 31.2757 32.3844 31.4003C32.3427 31.5401 32.3555 31.7247 32.3653 31.8586C32.4058 32.4105 32.5136 32.9637 32.657 33.4975C32.8104 34.0689 33.0386 34.6152 33.3306 35.1295C33.4526 35.3443 33.6258 35.5709 33.8844 35.6242C34.162 35.6815 34.1747 35.2381 34.1848 35.0756C34.2366 34.2387 33.9644 33.4373 33.6327 32.6815C33.5421 32.4751 33.3673 32.1174 33.2542 31.9107C33.2042 31.8193 33.0558 31.4835 32.9174 31.4489C32.8413 31.4299 32.8254 31.5659 32.8202 31.5895C32.7588 31.869 32.8231 32.1764 32.8792 32.4489C33.045 33.2545 33.277 34.054 33.5563 34.8274C33.7298 35.3077 33.9241 35.7976 34.1969 36.2319C34.2442 36.3071 34.4562 36.6303 34.4348 36.3308C34.3752 35.497 34.0236 34.6466 33.7351 33.8742C33.447 33.1028 33.153 32.3165 32.7803 31.5808C32.7189 31.4598 32.513 31.1191 32.466 31.4663C32.3498 32.3246 32.5963 33.3006 32.7959 34.1242C32.988 34.917 33.221 35.7777 33.6987 36.4558C33.8087 36.612 34.0323 36.8696 34.2612 36.7753C34.3624 36.7335 34.4492 36.5987 34.4799 36.5045C34.627 36.0538 34.5664 35.4981 34.5198 35.0426C34.4281 34.1458 34.2166 33.2747 33.8948 32.4333C33.7425 32.0351 33.5633 31.4623 33.2195 31.1711C32.5961 30.6431 32.4566 31.8165 32.4417 32.1729C32.4065 33.0154 32.5363 33.8885 32.8237 34.6815C32.9722 35.0913 33.1708 35.6322 33.532 35.9124C33.682 36.0288 33.8271 36.0439 33.8757 35.8222C34.0358 35.0922 33.7157 34.1893 33.4903 33.5114C33.2246 32.712 32.9055 31.9113 32.5285 31.1572C32.4962 31.0925 32.2287 30.5293 32.0823 30.8361C31.8872 31.2452 31.9553 31.8884 31.9712 32.3152C32.0034 33.1798 32.1522 34.0284 32.4521 34.8413C32.547 35.0984 32.7383 35.7289 33.0702 35.8065C33.3873 35.8808 33.1915 34.8556 33.1848 34.817C33.0375 33.9714 32.7597 33.1473 32.4174 32.3621C32.3486 32.2043 32.0713 31.3879 31.7889 31.402C31.5764 31.4126 31.6242 32.2219 31.624 32.2805C31.621 33.1331 31.755 33.9653 32.032 34.7718C32.1511 35.1185 32.2928 35.5175 32.5528 35.7892C32.7651 36.0111 32.8651 35.6959 32.8688 35.5131C32.8868 34.6142 32.4136 33.6583 32.0528 32.8621C31.9421 32.6176 31.7166 31.9179 31.3636 31.8551C30.7118 31.7393 31.2235 33.8004 31.3098 34.0461C31.4262 34.3778 31.6116 34.7886 31.8966 35.0166C32.0094 35.1068 31.8032 34.2578 31.7889 34.2093C31.606 33.5869 31.3374 32.9852 31.0598 32.4003C30.9583 32.1865 30.7194 31.6366 30.6136 31.8482C30.5652 31.945 30.5607 32.0897 30.5563 32.1867C30.5396 32.5572 30.5677 32.9324 30.6153 33.2996C30.6748 33.7588 30.7539 34.2481 31.0146 34.6416C31.0199 34.6495 31.2374 34.9756 31.2698 34.843C31.2968 34.733 31.2583 34.51 31.2455 34.4315C31.1762 34.0043 31.06 33.5852 30.9139 33.1781C30.8257 32.9322 30.7078 32.51 30.4764 32.3413C30.2872 32.2032 30.222 32.5754 30.2178 32.6729C30.2028 33.018 30.2778 33.3802 30.3757 33.7093C30.4193 33.8556 30.5187 34.2249 30.6848 34.2961C30.7309 34.3159 30.5341 33.5523 30.5198 33.5166C30.3828 33.174 30.1782 32.7343 29.848 32.5322C29.4424 32.284 29.3427 33.267 29.3497 33.4854C29.3511 33.5295 29.4042 33.6398 29.4191 33.5982C29.4606 33.483 29.4356 33.3158 29.4001 33.2024C29.3086 32.9105 29.2552 33.6532 29.2525 33.7249C29.2386 34.0929 29.5014 34.1306 29.7004 33.8343C29.8091 33.6724 29.8614 33.4996 29.8879 33.3083C29.8893 33.2984 29.9134 33.0103 29.9001 33.1746C29.8515 33.7708 30.0482 34.2961 30.4191 34.7579C30.4195 34.7583 30.6314 35.0098 30.6431 34.9454C30.6811 34.7365 30.4147 34.3981 30.3098 34.2475C30.171 34.0484 29.9772 33.7148 29.7421 33.6086C29.5916 33.5407 29.6386 33.8747 29.6466 33.9246C29.7638 34.6565 30.4738 35.1169 31.0632 35.4732C31.3436 35.6426 31.7176 35.8739 32.0563 35.7354C32.1824 35.6838 32.1398 35.7651 32.2126 35.8621C32.2911 35.9668 32.422 35.9343 32.3445 36.0635" stroke="#F5EFE7" stroke-linecap="round"/>
<path d="M33.0008 29.4072C32.9073 29.803 32.8545 30.2819 32.6397 30.6399C32.4585 30.9418 32.5986 30.4105 32.6275 30.3291C32.6451 30.2798 32.8277 29.7668 32.8063 30.0531C32.7827 30.3709 32.7099 30.6438 32.5945 30.9385" stroke="#F5EFE7" stroke-linecap="round"/>
<path d="M34.2195 23.4073C34.1686 23.7124 33.9906 24.0033 33.8619 24.2805C33.4961 25.0683 33.0894 25.8402 32.7542 26.6416C32.676 26.8288 32.6006 27.0219 32.5528 27.2198C32.5279 27.3232 32.5515 27.3061 32.5997 27.2232C33.0755 26.4059 33.4483 25.5223 33.8688 24.6764C34.1765 24.0575 34.4973 23.4455 34.8063 22.8274C34.819 22.8021 34.8621 22.7306 34.8549 22.758C34.7992 22.9717 34.6881 23.1861 34.5928 23.3812C34.0611 24.4696 33.408 25.4924 32.8254 26.5531C32.5534 27.0483 31.8024 28.5491 32.1605 28.1121C32.267 27.9821 32.5091 27.5352 32.5563 27.4507C32.8711 26.8865 33.1766 26.3178 33.5112 25.7649C33.8514 25.2027 34.219 24.6498 34.6119 24.1225C34.967 23.646 34.0244 25.1567 33.6987 25.6538C32.8778 26.9064 32.0022 28.1227 31.1883 29.3795C31.0884 29.5337 30.8777 29.7877 30.8237 29.9767C30.7538 30.2213 31.077 29.5353 31.1952 29.31C31.5789 28.5785 31.9898 27.825 32.2438 27.0357C32.2492 27.0191 32.3563 26.6132 32.2542 26.7371C32.1404 26.8753 32.0584 27.0535 31.973 27.2076C31.7473 27.6149 31.5169 28.019 31.282 28.4212C30.8913 29.0901 30.4349 29.7808 30.2039 30.5271C30.1162 30.8105 29.93 31.0404 29.7959 31.2996C29.6339 31.6128 29.3224 31.8402 29.124 32.1312C28.9414 32.399 28.8113 32.6945 28.6431 32.9698C28.5917 33.0539 28.5412 33.239 28.4383 33.2753C28.3854 33.294 28.494 32.8549 28.5077 32.817C28.6892 32.3142 28.818 31.7968 29.0251 31.3031C29.0778 31.1773 29.1607 31.1046 29.2369 30.9958C29.2971 30.9097 29.3371 30.815 29.3896 30.725C29.4148 30.6818 29.3375 30.8606 29.3254 30.8795C29.0473 31.3147 28.8672 31.8028 28.6414 32.2545C28.5633 32.4108 28.2904 32.8502 28.414 32.7267C28.4851 32.6555 28.5149 32.4084 28.5528 32.31C28.7071 31.9103 28.8708 31.5152 29.0251 31.1156C29.2937 30.4197 29.6371 29.7455 29.9886 29.0878C30.3585 28.3958 30.8397 27.7741 31.157 27.0514C31.1836 26.9907 31.2747 26.8139 31.2438 26.8725C31.1453 27.0597 31.0336 27.2401 30.9244 27.4212C30.5163 28.0975 30.0708 28.7519 29.6813 29.4385C29.5075 29.7448 29.3592 30.0644 29.1952 30.376C28.9458 30.8498 29.6006 29.3845 29.8254 28.8986C30.0259 28.4652 30.2396 28.0372 30.4348 27.6017C30.5982 27.2371 30.737 26.8614 30.9209 26.5062C31.2993 25.7756 31.7507 25.0735 32.164 24.3621C32.2402 24.2309 32.3216 24.1023 32.407 23.9767C32.4774 23.8731 32.2634 24.1821 32.1883 24.2823C31.7326 24.8898 31.3565 25.526 30.9765 26.1816C30.6916 26.673 30.5683 27.2443 30.2525 27.718C30.1001 27.9466 30.0231 28.206 29.8914 28.4402C29.7909 28.6188 29.836 28.5592 29.9209 28.4038C30.2422 27.8158 30.5098 27.2019 30.7994 26.5982C31.0906 25.9911 31.427 25.4039 31.7508 24.8135C31.9439 24.4613 32.125 24.0763 32.3445 23.7406C32.4938 23.5123 32.638 23.2816 32.782 23.0496C32.82 22.9884 32.9225 22.8668 32.8185 23.0132C32.6734 23.2173 32.5265 23.4177 32.3896 23.6277C32.1336 24.0207 31.8596 24.4023 31.6101 24.7996C31.4657 25.0297 31.267 25.2693 31.1587 25.5184C31.0914 25.6733 31.0145 25.8225 30.9209 25.9628C30.8299 26.0993 31.0655 25.6642 31.0876 25.6156C31.2668 25.2205 31.4583 24.8275 31.664 24.4455C31.9033 24.001 32.2159 23.6011 32.4487 23.1538C32.6214 22.8219 32.8318 22.5116 33.0285 22.1937C33.1284 22.0324 33.2318 21.8363 33.3931 21.7337C33.575 21.6179 33.7102 21.4791 33.8601 21.3291C33.8844 21.3049 33.9646 21.2147 33.8723 21.225C33.7773 21.2355 33.7028 21.3333 33.6379 21.3934C33.3251 21.683 33.0637 22.0306 32.8324 22.3882C32.7646 22.493 32.5879 22.8167 32.6761 22.7284C32.7946 22.61 32.8785 22.4384 32.9695 22.2996C33.1111 22.0837 33.2669 21.8758 33.4174 21.6659C33.4837 21.5736 33.7503 21.0706 33.5685 21.4402C32.8658 22.8682 32.0989 24.2647 31.5633 25.7684C31.5628 25.7696 31.3519 26.4395 31.5077 26.2475C32.0063 25.6335 32.341 24.8691 32.6848 24.1642C32.9739 23.5714 33.2389 22.9651 33.5494 22.383C33.7534 22.0004 33.5259 22.6264 33.5008 22.6955C33.0551 23.9196 32.4421 25.0748 31.9244 26.2684C31.7841 26.5918 31.392 27.5544 31.6119 27.2788C31.6776 27.1965 31.8235 26.9253 31.8515 26.8725C32.1299 26.3459 32.3826 25.8052 32.6292 25.2632C33.1626 24.091 33.6318 22.8714 34.3098 21.7718C34.344 21.7164 34.3799 21.6619 34.4174 21.6087C34.4438 21.5711 34.4796 21.4747 34.5112 21.508C34.5259 21.5235 34.5125 21.5513 34.5077 21.5722C34.4711 21.73 34.3777 21.9574 34.3254 22.0878C33.8005 23.3973 33.1609 24.6547 32.5824 25.9402C32.5421 26.0296 32.135 26.7571 32.2195 26.9489C32.2306 26.974 32.2779 26.9531 32.3011 26.9385C32.4454 26.848 32.6105 26.6034 32.6883 26.4923C33.6132 25.171 34.2532 23.6467 34.8237 22.1468C34.978 21.741 35.1101 21.3155 35.3028 20.9246C35.3646 20.7994 35.4384 20.7077 35.4192 20.9246C35.3788 21.3808 35.2257 21.8462 35.091 22.2788C34.8583 23.0264 34.5881 23.7606 34.2924 24.4854C34.2919 24.4867 33.7485 25.7845 33.848 25.7892C33.8873 25.7911 33.9171 25.749 33.9435 25.7198C34.1299 25.5136 34.344 25.1579 34.4695 24.9472C34.9206 24.1895 35.2972 23.3993 35.6327 22.5843C35.9353 21.8493 36.2009 21.0993 36.4799 20.3552C36.5243 20.2368 36.5683 20.1183 36.6153 20.001C36.649 19.9169 36.6505 19.7852 36.7369 19.758C36.7545 19.7524 36.7545 19.7916 36.756 19.81C36.7685 19.97 36.7252 20.248 36.7074 20.3691C36.5916 21.1553 36.4246 21.9335 36.2542 22.7093C36.1174 23.3325 35.9643 23.952 35.8462 24.5791C35.8242 24.6963 35.802 24.8135 35.7855 24.9316C35.7744 25.0108 35.7237 25.1971 35.7994 25.1712C36.0065 25.1002 36.2839 24.365 36.3271 24.2684C36.6572 23.531 36.9076 22.7676 37.1258 21.9906C37.3455 21.2079 37.8538 18.8414 37.8237 19.6538C37.7797 20.8403 37.4303 22.0185 37.1258 23.1573C37.0176 23.5617 36.9224 23.9016 36.8202 24.3031C36.7923 24.4127 36.7655 24.5227 36.7403 24.633C36.7216 24.7151 36.6525 24.8162 36.7039 24.883C36.7115 24.8928 36.73 24.876 36.7369 24.8656C36.8049 24.7624 36.8978 24.5156 36.9278 24.4281C37.1227 23.8606 37.2583 23.2724 37.4001 22.6902C37.5885 21.9168 37.7679 21.141 37.9626 20.3691C38.0028 20.2096 38.0435 20.0501 38.0876 19.8916C38.117 19.7858 38.1187 19.5262 38.2108 19.5861C38.3065 19.6482 38.2255 20.3075 38.223 20.3378C38.1646 21.0387 38.0246 21.726 37.8688 22.4107C37.6637 23.3121 37.325 24.2374 37.2594 25.1659C37.2422 25.41 37.3108 25.1765 37.3306 25.1052C37.4693 24.6052 37.5733 24.0945 37.6831 23.5878C37.8481 22.8257 38.0057 22.0615 38.2021 21.3066C38.2722 21.0372 38.3448 20.6801 38.4903 20.4281C38.565 20.2989 38.5563 20.569 38.5563 20.5705C38.5583 21.0771 38.4816 21.5904 38.4087 22.0896C38.2294 23.3185 37.5119 26.9694 37.841 25.7718C38.146 24.6625 38.2625 23.4955 38.4695 22.3656C38.5343 22.012 38.6085 21.661 38.6935 21.3118C38.7105 21.2417 38.7394 21.0354 38.7577 21.1052C38.7958 21.2507 38.7781 21.4617 38.7751 21.6017C38.7643 22.1027 38.7154 22.6012 38.6535 23.0982C38.5515 23.9183 38.378 24.7349 38.3202 25.56C38.3167 25.6103 38.3118 25.761 38.3185 25.7111C38.3611 25.3916 38.3806 25.0651 38.4001 24.7441C38.4633 23.703 38.4653 22.6584 38.5563 21.6191C38.5891 21.2447 38.6883 20.8539 38.6883 20.4784C38.6883 19.6612 38.6953 22.113 38.7212 22.9298C38.7228 22.9792 38.7283 23.0979 38.7646 22.9663C38.8406 22.6911 38.8833 22.3988 38.9226 22.1173C39.0409 21.2701 39.0945 20.4136 39.0945 19.5583C39.0945 19.4663 39.1089 19.1933 39.124 19.284C39.1299 19.3193 39.1238 19.3539 39.1726 19.343C39.2235 19.3317 39.1883 19.551 39.1883 19.6121C39.1883 19.7787 39.302 19.3427 39.3133 19.3031C39.3874 19.0415 39.3415 19.5113 39.3376 19.5705C39.2996 20.1449 39.301 20.721 39.2751 21.2962C39.2336 22.2169 39.1596 23.1353 39.1258 24.0566C39.0994 24.7743 39.0661 25.4911 38.9938 26.2059C38.9754 26.3882 38.9517 26.5698 38.9244 26.751C38.9136 26.8226 38.927 27.014 38.8758 26.9628C38.8615 26.9485 38.8641 26.9239 38.8619 26.9038C38.8447 26.7489 38.8498 26.5439 38.8532 26.4021C38.8701 25.6858 38.9236 24.9698 39.0042 24.258C39.076 23.6251 39.1716 22.9941 39.3028 22.3708C39.3301 22.2413 39.3673 21.8851 39.4556 21.7614C39.4705 21.7407 39.4627 21.8124 39.4608 21.8378C39.4374 22.1528 39.3372 22.9557 39.3133 23.1468C39.1912 24.1197 39.0498 25.0876 38.8792 26.0531C38.655 27.3219 38.3275 28.6096 38.2577 29.9003C38.2549 29.9529 38.2251 30.1996 38.289 30.2493C38.3986 30.3346 38.4061 29.9929 38.4244 29.8552C38.5764 28.7078 38.5467 27.5422 38.6987 26.3934C38.7282 26.1704 38.7545 25.9638 38.749 26.3448C38.7302 27.642 38.6311 28.9362 38.5216 30.2284C38.4666 30.8776 38.3792 31.5405 38.3792 32.1937C38.3792 32.7953 38.5505 31.0024 38.6101 30.4038C38.6849 29.6532 38.7467 28.9016 38.8133 28.1503C38.8157 28.1223 38.8288 27.3552 38.9018 27.2944C38.9227 27.277 38.9066 27.3488 38.907 27.376C38.9104 27.619 38.9094 27.8621 38.907 28.1052C38.8993 28.8857 38.8625 29.6635 38.8046 30.442C38.7092 31.7253 38.4693 33.021 38.4504 34.3083C38.4487 34.4249 38.4821 34.6291 38.539 34.3587C38.6419 33.8688 38.659 33.3492 38.6796 32.8517C38.7211 31.8494 38.7117 30.8353 38.6396 29.8343C38.6259 29.643 38.6126 30.2172 38.6067 30.409C38.5857 31.0852 38.5542 31.7603 38.5042 32.435C38.4515 33.1475 38.3761 33.858 38.3237 34.5705C38.3009 34.8806 38.2527 35.2407 38.3098 35.5531C38.3519 35.7837 38.4453 35.586 38.4695 35.4819C38.5914 34.9571 38.6054 34.3901 38.6292 33.8552C38.6531 33.3194 38.6587 32.7812 38.6223 32.2458C38.6114 32.086 38.6072 31.6378 38.5251 31.7753C38.3747 32.027 38.3644 32.5926 38.3289 32.8482C38.2491 33.4218 38.1823 33.9969 38.1327 34.5739C38.1038 34.9097 38.0655 35.2551 38.0719 35.593C38.0723 35.6126 38.085 35.8728 38.1848 35.7163C38.3846 35.403 38.4363 34.914 38.4869 34.567C38.5699 33.9969 38.6127 33.4175 38.5876 32.8413C38.5842 32.7648 38.5654 32.5413 38.532 32.442C38.4972 32.3386 38.4505 32.431 38.4365 32.4784C38.3569 32.7493 38.3447 33.0563 38.3271 33.3343C38.2943 33.8548 38.2855 34.3773 38.2855 34.8986C38.2855 35.2011 38.2225 35.7053 38.374 35.9958C38.414 36.0725 38.3975 35.8235 38.3931 35.7371C38.3731 35.3381 38.3445 34.9393 38.315 34.5409C38.2981 34.3122 38.2948 34.0647 38.2508 33.8378C38.2361 33.7623 38.1961 33.9835 38.1883 34.06C38.1278 34.6512 38.1052 35.2507 38.0962 35.8448C38.0922 36.1127 38.126 36.9145 38.0928 36.6486C38.0219 36.0819 37.9365 35.5153 37.7942 34.9611C37.7138 34.6482 37.6759 34.9954 37.664 35.1087C37.6169 35.5541 37.6374 36.0028 37.7751 36.4316C37.8706 36.7292 38.0233 36.7612 38.1431 36.4489C38.2825 36.0857 38.2945 35.6911 38.3688 35.3135C38.4535 34.8828 38.3194 36.2646 38.5876 36.6121C38.6779 36.7292 38.6697 36.3377 38.7508 36.626C38.762 36.666 38.7803 36.7874 38.8497 36.7389C38.9307 36.6821 38.9815 36.5464 39.0146 36.4628C39.1463 36.1307 39.2335 35.7783 39.3081 35.4298C39.5848 34.1369 39.5719 32.8008 39.6101 31.4854C39.6423 30.3799 39.7077 29.2773 39.7629 28.1729C39.7768 27.8942 39.774 27.0572 39.7837 27.3361C39.8263 28.5499 39.8392 29.7658 39.8254 30.9802C39.818 31.6342 39.797 32.288 39.789 32.942C39.7854 33.2295 39.7677 33.5347 39.8185 33.8205C39.8303 33.8869 39.9115 34.0456 39.9383 33.9837C40.1074 33.5928 40.1172 32.9589 40.157 32.5687C40.3391 30.7827 40.3696 28.9893 40.3758 27.1955C40.3772 26.78 40.3758 26.3644 40.3758 25.9489C40.3758 25.7463 40.3673 26.354 40.3619 26.5566C40.3087 28.555 40.1885 30.5512 40.1396 32.5496C40.1309 32.9061 40.1153 33.2724 40.1605 33.6277C40.1681 33.6874 40.1855 33.8981 40.2508 33.9489C40.3653 34.038 40.3329 33.6683 40.3428 33.5236C40.3868 32.8791 40.3931 32.23 40.3862 31.5843C40.3842 31.3985 40.3804 31.2126 40.3706 31.0271C40.3536 30.7089 40.3373 30.7476 40.3115 31.0288C40.255 31.645 40.236 32.2655 40.1952 32.883C40.1499 33.5692 40.0897 34.253 40.0008 34.935C39.9826 35.074 40.0105 35.4698 39.8063 35.4698C39.3295 35.4698 38.7578 36.288 39.039 36.7354C39.3541 37.2367 39.6216 36.661 39.7508 36.3274C39.8488 36.0741 39.9613 35.8231 39.9678 35.5479C39.9817 34.9579 39.9426 34.3665 39.8619 33.7823C39.8409 33.6301 39.8225 33.4697 39.782 33.3205C39.7567 33.2273 39.7535 33.3282 39.7525 33.3691C39.7347 34.0982 39.7453 34.8308 39.7525 35.56C39.7556 35.8696 39.7132 36.359 39.94 36.6191C40.2226 36.9432 40.2842 35.8149 40.3202 35.3864C40.4096 34.3229 40.372 33.2642 40.3167 32.2007C40.2907 31.7002 40.3145 33.203 40.3115 33.7041C40.3078 34.3309 40.298 34.9576 40.289 35.5843C40.2873 35.6974 40.2299 36.1225 40.2942 36.2649C40.3398 36.3659 40.4552 36.1002 40.4869 35.9941C40.6386 35.4862 40.6587 34.9281 40.6709 34.4038C40.6975 33.257 40.5752 32.1228 40.466 30.9837C40.4545 30.8636 40.4225 30.5038 40.4435 30.6225C40.4931 30.9041 40.5065 31.2074 40.5251 31.4906C40.6096 32.7774 40.5434 34.0694 40.6258 35.3552C40.6297 35.4161 40.6286 35.7518 40.7403 35.7805C40.7642 35.7866 40.7955 35.7696 40.8063 35.7475C40.8861 35.5851 40.9545 35.0677 40.966 34.9767C41.2707 32.5665 41.1912 30.1164 40.9765 27.7024C40.9005 26.8487 40.4844 24.3123 40.664 25.1503C40.9451 26.4623 41.0208 27.8467 41.091 29.1816C41.1364 30.0445 41.1482 30.9083 41.1726 31.7718C41.1769 31.9212 41.1814 32.0705 41.1883 32.2198C41.1918 32.2974 41.1967 32.375 41.2039 32.4524C41.2071 32.4874 41.1903 32.5371 41.2195 32.5566C41.243 32.5722 41.2328 32.5014 41.2351 32.4732C41.2432 32.3751 41.2488 32.2766 41.2508 32.1781C41.2696 31.2548 41.2316 30.3302 41.1726 29.409C41.0578 27.6163 40.8326 25.8311 40.6501 24.0444C40.6403 23.9488 40.6197 23.6687 40.5945 23.7614C40.5169 24.0473 40.542 24.4672 40.5285 24.7423C40.4418 26.516 40.2997 28.2847 40.1848 30.0566C40.1757 30.1975 40.1605 30.6203 40.1778 30.4802C40.2509 29.8897 40.2511 29.2792 40.2542 28.6868C40.2645 26.7204 40.0832 24.7646 40.0094 22.8014C39.9349 20.8198 40.2717 26.7728 40.1119 28.7493C40.1067 28.8126 40.0953 28.9977 40.0771 28.9368C40.0633 28.8903 40.0594 28.8411 40.0563 28.7927C40.0291 28.3674 40.0187 27.5882 40.0146 27.2441C39.9978 25.8263 40.0008 24.4084 40.0008 22.9906C40.0008 22.3739 40.0267 21.743 39.9869 21.126C39.905 19.8564 39.8227 23.6664 39.8098 24.9385C39.7989 26.0089 39.7955 27.0824 39.8462 28.1521C39.8596 28.4324 39.8797 28.7141 39.9313 28.9906C39.9356 29.0135 39.9344 29.0399 39.9487 29.0583C40.0173 29.1465 39.947 28.8347 39.94 28.7232C39.8767 27.7222 39.8007 26.7223 39.7612 25.7198C39.719 24.6501 39.6917 23.5751 39.7699 22.5062C39.7804 22.3617 39.792 22.2167 39.8167 22.0739C39.8213 22.0476 39.8449 21.9805 39.8567 22.0045C39.889 22.0707 39.8831 22.1498 39.8896 22.2232C40.0942 24.5164 40.1427 26.8142 40.5216 29.0913C40.6454 29.8351 40.7948 30.5963 41.0459 31.31C41.154 31.6173 41.2566 31.7568 41.3271 31.3205C41.6199 29.5095 41.4012 27.6102 41.2646 25.7979C41.1744 24.5996 41.0804 23.4027 41.0216 22.2024C41.0166 22.0994 41.0157 21.9963 41.0094 21.8934C40.9908 21.5859 41.0269 22.5091 41.0355 22.817C41.1022 25.2153 41.195 27.6115 41.6535 29.9732C41.7595 30.519 41.8675 31.1566 42.098 31.6746C42.1137 31.7099 42.1369 31.7779 42.1726 31.7632C42.217 31.7449 42.2134 31.6739 42.216 31.626C42.2257 31.4515 42.2171 31.2763 42.2091 31.1017C42.0939 28.5858 41.6809 26.0896 41.4417 23.5843C41.3985 23.1316 41.254 21.7783 41.348 22.2232C41.5026 22.955 41.571 23.7247 41.6726 24.4628C41.9821 26.7109 42.3193 28.954 42.6622 31.1972C42.7045 31.474 42.8206 32.2873 42.8688 32.0114C42.9935 31.2982 42.8888 30.4157 42.8358 29.718C42.6659 27.4792 42.2002 25.2817 41.9869 23.0496C41.975 22.9256 41.9592 22.8006 41.9678 22.6764C41.9837 22.4456 42.076 23.1267 42.1119 23.3552C42.2919 24.5022 42.4352 25.6552 42.5841 26.8066C42.7517 28.1031 42.9147 29.4003 43.0928 30.6955C43.1305 30.9699 43.1676 31.2445 43.2091 31.5184C43.2325 31.6727 43.256 31.8272 43.2872 31.9802C43.3012 32.0486 43.2851 32.145 43.3445 32.1816C43.387 32.2077 43.3745 32.0855 43.3775 32.0357C43.4025 31.6247 43.3614 31.039 43.3324 30.6677C43.2275 29.3252 43.0171 27.9978 42.8133 26.6677C42.6072 25.3231 42.3653 23.9759 42.2351 22.6208C42.2243 22.5084 42.1775 22.3856 42.223 22.2823C42.2508 22.219 42.2805 22.4085 42.2994 22.475C42.3536 22.6659 42.3979 22.8595 42.4417 23.0531C42.9918 25.4806 43.4733 27.9272 43.973 30.3656C44.0737 30.8571 44.1187 31.4506 44.2994 31.9264C44.4097 32.2169 44.3188 31.3031 44.2855 30.9941C44.015 28.4848 43.4207 26.0251 43.1188 23.5218C42.7878 20.7773 44.373 28.9067 45.0181 31.5948C45.0432 31.6993 45.0633 31.8055 45.098 31.9073C45.1061 31.931 45.1336 31.9888 45.1449 31.9663C45.1746 31.9069 45.1679 31.8348 45.1674 31.7684C45.1615 30.909 45.0113 30.0405 44.8497 29.2007C44.5179 27.476 43.9967 25.7985 43.6327 24.0826C43.3827 22.9039 44.2117 26.4222 44.5303 27.5843C44.8079 28.597 45.0885 29.6096 45.3897 30.6156C45.4514 30.8218 45.645 31.4321 45.6223 31.218C45.543 30.4702 45.3478 29.7119 45.1883 28.9802C44.9661 27.9611 44.7124 26.95 44.473 25.935C44.3427 25.3827 44.1914 24.8151 44.1119 24.251C44.0547 23.8457 44.3304 25.0399 44.4435 25.4333C44.8903 26.9876 45.3833 28.5291 45.9244 30.0531C46.0202 30.3229 46.1103 30.671 46.2508 30.9298C46.3765 31.1615 46.1594 30.4102 46.098 30.1538C45.8248 29.0128 45.5368 27.8759 45.2837 26.7302C45.1341 26.0527 44.9349 25.3196 44.8931 24.6191C44.8906 24.577 44.8818 24.5232 44.9122 24.4941C45.0082 24.4023 45.0532 24.721 45.1015 24.8448C45.4314 25.6902 45.7178 26.5571 46.0042 27.4177C46.3454 28.4426 46.6783 29.4718 46.9539 30.5166C46.9654 30.5602 47.068 31.2831 47.1744 31.3795C47.1914 31.395 47.1885 31.3348 47.1883 31.3118C47.1857 31.0972 47.1286 30.8103 47.091 30.6208C46.9093 29.7041 46.6671 28.7987 46.4244 27.8968C46.2093 27.0977 45.9773 26.3033 45.7612 25.5045C45.7418 25.4329 45.7167 25.3625 45.7056 25.2892C45.6775 25.1032 45.8205 25.6475 45.8758 25.8274C46.4606 27.7315 46.9901 29.6492 47.539 31.5635C47.5994 31.7743 47.7014 32.1289 47.7924 32.3517C47.8242 32.4294 47.9461 32.6908 47.907 32.3916C47.6801 30.6557 47.0767 28.9393 46.5268 27.2857C46.3569 26.7749 46.1854 26.265 46.0251 25.751C45.9742 25.5878 45.9273 25.4638 46.0355 25.7805C46.4357 26.9525 46.9196 28.0941 47.3376 29.2597C47.5909 29.9664 47.7818 30.708 48.0685 31.4021C48.3401 32.0596 47.738 30.0176 47.5459 29.3326C47.2544 28.2934 46.9593 27.2529 46.565 26.2475C46.5058 26.0966 46.4517 25.9436 46.414 25.7857C46.4043 25.7454 46.3722 25.6273 46.4383 25.7389C46.7322 26.2356 46.9229 26.8061 47.1188 27.3448C47.4849 28.3515 47.8243 29.3631 48.1049 30.3968C48.1623 30.608 48.2218 30.8187 48.2768 31.0305C48.2869 31.0692 48.2966 31.108 48.3063 31.1468C48.3249 31.221 48.3101 31.1673 48.2959 31.1156C48.0448 30.1985 47.828 29.2724 47.6049 28.3482C47.3963 27.484 47.1355 26.6258 46.9765 25.751C46.9595 25.6578 47.0733 25.9144 47.1119 26.001C47.3442 26.523 47.5347 27.065 47.7195 27.6052C47.9813 28.3703 48.1857 29.1417 48.3688 29.9281C48.3714 29.939 48.5163 30.5321 48.4296 30.2198C48.27 29.6454 48.1034 29.073 47.9417 28.4993C47.811 28.0352 47.6686 27.5749 47.5337 27.1121C47.5234 27.0766 47.3751 26.4446 47.4174 26.7163C47.5152 27.3437 47.7347 27.9522 47.9001 28.5635C48.0609 29.1578 48.2024 29.7592 48.3428 30.3587C48.4722 30.9112 48.5882 31.466 48.7022 32.0218C48.7492 32.2514 48.7829 32.4988 48.8706 32.718C48.9661 32.9569 48.7418 32.2198 48.6813 31.9698C48.4973 31.2087 48.3355 30.442 48.164 29.6781C48.1602 29.6612 48.0044 29.0102 48.039 29.0045C48.1425 28.9872 48.4535 30.12 48.4695 30.1746C48.6568 30.813 48.808 31.4582 48.9452 32.1087C48.9994 32.3658 49.1392 33.1384 49.1258 32.876C49.0977 32.3294 48.9364 31.7696 48.8237 31.2371C48.712 30.7093 48.5803 30.1826 48.4903 29.6503C48.4319 29.3045 48.5281 29.6822 48.5598 29.7909C48.7343 30.3907 48.8969 30.9883 49.0164 31.6017C49.1549 32.3128 49.2633 33.0307 49.4053 33.7406C49.5499 34.4637 49.057 32.3007 49.0025 31.5652C48.9837 31.3114 49.1643 32.0482 49.2351 32.2927C49.3751 32.7757 49.4934 33.2649 49.6223 33.751C49.6745 33.9478 49.8103 34.1394 49.8133 34.3448C49.8169 34.5972 49.8439 34.835 49.9001 35.0809C49.9862 35.4576 48.9294 34.9058 48.8549 34.876C48.5426 34.7511 48.2587 34.5462 48.0962 34.2441C47.83 33.7489 47.8824 33.0892 47.8028 32.5479C47.7035 31.872 47.522 31.205 47.2785 30.567C47.1863 30.3254 47.2421 30.6617 47.2473 30.7163C47.2939 31.2083 47.3545 31.6993 47.4244 32.1885C47.5244 32.8889 47.6419 33.5839 47.7022 34.2892C47.715 34.44 47.7148 34.4716 47.6501 34.2788C47.4582 33.7072 47.2886 33.128 47.1015 32.5548C46.878 31.8707 46.6463 31.1896 46.3515 30.5323C46.288 30.3908 46.219 30.2518 46.1483 30.1139C46.0858 29.9918 45.9828 29.6595 45.9122 29.7771C45.8798 29.8312 45.9004 29.9035 45.907 29.9663C45.9354 30.2375 46.0659 30.8847 46.1119 31.1052C46.2678 31.8526 46.4473 32.595 46.6084 33.3413C46.7178 33.8481 46.7766 34.4147 46.973 34.9003C47.0272 35.0344 46.9905 34.6101 46.9747 34.4663C46.893 33.7196 46.7482 32.9821 46.5945 32.2475C46.5261 31.9205 46.3162 30.9407 46.3723 31.2701C46.4468 31.7077 46.5507 32.1436 46.6431 32.5774C46.7554 33.104 46.868 33.6306 46.9799 34.1573C47.0414 34.4468 47.0895 34.7628 47.2126 35.0357C47.2778 35.1804 47.3405 35.1962 47.3445 35.008C47.3558 34.4788 47.2751 33.9331 47.2056 33.4107C47.1716 33.1546 47.1526 32.5318 47.0008 32.2788C46.9899 32.2607 46.9894 32.3202 46.9903 32.3413C46.9984 32.5285 47.052 32.9565 47.0737 33.1052C47.1466 33.606 47.2367 34.1072 47.374 34.5948C47.4331 34.8046 47.5106 35.1397 47.6744 35.3066C47.6944 35.3269 47.7301 35.3446 47.756 35.3326C47.8551 35.2867 47.8392 34.9866 47.8393 34.975C47.8421 34.4076 47.7486 33.8332 47.657 33.2753C47.6021 32.9411 47.5458 32.5859 47.4522 32.258C47.3996 32.0741 47.5076 32.6366 47.5459 32.8239C47.6654 33.409 47.8046 33.9896 47.9695 34.5635C48.0357 34.794 48.1019 35.0858 48.2195 35.3031C48.3095 35.4693 48.3355 35.1562 48.3358 35.1521C48.3717 34.7461 48.3354 34.3295 48.3063 33.9246C48.288 33.6696 48.1855 32.9103 48.2369 33.1607C48.3051 33.4935 48.3581 33.8287 48.4313 34.1607C48.4952 34.4504 48.5489 34.7747 48.6692 35.0496C48.7261 35.1797 48.8 35.1638 48.8167 35.0149C48.8648 34.5876 48.7518 34.1107 48.6831 33.6955C48.6175 33.2997 48.5507 32.899 48.4591 32.508C48.341 32.0039 48.6851 33.5187 48.8202 34.0184C48.8341 34.0699 49.0937 34.8699 49.0737 34.4559C49.0685 34.3488 49.0402 34.1479 49.0251 34.0496C49.0135 33.9742 49.0006 33.899 48.9869 33.8239C48.9731 33.7484 48.9674 33.5313 48.9331 33.6C48.88 33.706 48.9873 34.1047 49.0008 34.1989C49.0347 34.4368 49.0744 34.6741 49.1049 34.9125C49.1143 34.9855 49.1645 35.1387 49.091 35.133C48.9877 35.1249 48.7656 34.8562 48.7282 34.8187C48.1039 34.1944 47.5149 33.5253 46.8462 32.9472C46.5965 32.7312 46.338 32.5258 46.091 32.3066C45.9138 32.1492 45.7455 31.9474 45.532 31.8361C44.9498 31.5323 44.505 32.1304 44.2629 32.5843C44.129 32.8355 44.0338 33.0974 43.9417 33.3656C43.9128 33.45 43.8934 33.638 43.7994 33.4819C43.3572 32.7478 43.1859 31.8653 42.7178 31.1451C42.443 30.7224 42.3561 31.3981 42.3167 31.5809C42.1528 32.3426 41.974 33.1003 41.7195 33.8378C41.713 33.8566 41.5945 34.2215 41.5945 34.0809C41.5945 34.0401 41.6135 33.5984 41.5251 33.7093C41.4172 33.8446 41.3851 34.0798 41.3462 34.2389C41.2896 34.4705 41.2387 34.7035 41.1813 34.935C41.1379 35.11 41.12 35.3706 41.0008 35.5149C40.8537 35.6929 40.8133 35.999 40.8133 36.2198C40.8133 36.3747 40.7646 36.3961 40.7021 36.5097C40.6453 36.6131 40.4714 37.0302 40.723 36.8066C40.7645 36.7697 40.9516 36.5262 41.0146 36.5548C41.0958 36.5917 41.1765 36.8185 41.2369 36.8882C41.2886 36.9478 41.4858 37.1845 41.5893 37.0965C41.7495 36.9603 41.6075 36.46 41.5771 36.2996C41.5413 36.1102 41.3793 35.5637 41.4765 35.7302C41.5779 35.904 41.5649 36.1939 41.6327 36.3864C41.7331 36.6716 41.9469 36.7864 41.9799 36.3899C42.0049 36.0898 41.9246 35.7862 41.8376 35.5027C41.7883 35.3421 41.7124 35.0295 41.5841 34.8934C41.5226 34.8281 41.5473 35.0714 41.5546 35.1607C41.5735 35.3936 41.6159 35.6206 41.7056 35.8378C41.7668 35.9858 42.1957 36.7892 42.3827 36.31C42.522 35.9531 42.5056 35.4929 42.4973 35.1225C42.4881 34.713 42.4606 34.2819 42.341 33.8864C42.3208 33.8194 42.255 33.6437 42.2074 33.8066C42.1319 34.0647 42.1738 34.3854 42.1987 34.6434C42.2559 35.2368 42.2977 35.9892 42.6101 36.5184C42.6809 36.6382 42.7945 36.7263 42.8549 36.5253C42.9857 36.0906 42.9349 35.545 42.8949 35.1069C42.8363 34.4657 42.7095 33.8365 42.539 33.2163C42.5105 33.1129 42.4769 33.0109 42.4435 32.909C42.4242 32.8502 42.4095 32.7091 42.3584 32.7441C42.2598 32.8115 42.2439 33.3076 42.2403 33.3552C42.2002 33.8942 42.2141 34.4371 42.282 34.9732C42.3339 35.3827 42.4111 35.8241 42.5876 36.2024C42.6421 36.3192 42.7935 36.576 42.914 36.3465C43.0826 36.0251 43.0687 35.5534 43.0737 35.2059C43.0804 34.7389 43.0329 34.2818 42.9556 33.8222C42.9232 33.6293 42.8445 33.3843 42.8445 33.1816C42.8445 32.9366 42.9253 33.6649 42.9712 33.9055C43.0747 34.4472 43.1903 34.9894 43.348 35.5184C43.4285 35.7885 43.5179 36.0778 43.7004 36.2996C44.0881 36.7708 43.9807 35.6923 43.973 35.6087C43.9124 34.9535 43.788 34.3009 43.624 33.6642C43.5925 33.5417 43.5578 33.4198 43.5181 33.2996C43.496 33.2327 43.4481 33.0539 43.414 33.1156C43.3254 33.2755 43.4084 33.7872 43.4174 33.9212C43.451 34.421 43.5086 34.9185 43.5806 35.4142C43.6147 35.6487 43.6289 35.952 43.723 36.1764C43.7334 36.2011 43.7451 36.2452 43.7716 36.2406C43.8799 36.2219 43.8602 36.0344 43.8653 35.9246C43.9124 34.9285 43.4994 33.9686 43.1813 33.0462C43.1638 32.9955 43.0853 32.7151 43.1518 33.0323C43.2668 33.5806 43.4034 34.1262 43.5598 34.6642C43.6723 35.0511 43.7851 35.4982 44.0094 35.843C44.0973 35.9781 44.2363 36.0634 44.2785 35.8274C44.3631 35.3548 44.2177 34.8092 44.1171 34.3552C44.0311 33.9672 43.929 33.5753 43.8098 33.1955C43.6758 32.7687 43.9396 34.0826 44.0546 34.5149C44.0689 34.5689 44.5533 36.1212 44.7247 35.9038C44.9023 35.6785 44.7732 35.0779 44.7403 34.8621C44.6544 34.2983 44.5185 33.735 44.3497 33.1902C44.3263 33.1147 44.3048 33.038 44.2716 32.9663C44.2198 32.8545 44.204 32.999 44.2021 33.0253C44.1745 33.4252 44.2359 33.8478 44.2959 34.2406C44.3655 34.6958 44.4656 35.1449 44.591 35.5878C44.6291 35.7222 44.669 35.913 44.7456 36.0375C44.7837 36.0994 44.773 35.893 44.7681 35.8205C44.7521 35.5834 44.73 35.3445 44.6883 35.1104C44.6853 35.0938 44.6526 34.8575 44.6084 34.8378C44.5989 34.8336 44.599 34.857 44.598 34.8673C44.5896 34.9492 44.5981 35.1037 44.6032 35.1694C44.6168 35.345 44.661 36.2058 44.9851 36.1486C45.1272 36.1235 45.1987 35.9259 45.2265 35.81C45.3453 35.3149 45.2958 34.7687 45.2369 34.2718C45.1608 33.6308 45.0178 33.0071 44.8445 32.3864C44.8026 32.2363 44.7546 31.9475 44.6622 31.8031C44.5948 31.6977 44.6371 32.0533 44.6466 32.1781C44.6923 32.776 44.7769 33.3702 44.8775 33.9611C44.9504 34.3892 45.011 34.8687 45.1709 35.2788C45.2309 35.4327 45.3454 35.6126 45.5112 35.6694C46.0027 35.8378 45.6219 33.5494 45.5806 33.3604C45.4898 32.9447 45.364 32.5196 45.1987 32.126C45.0914 31.8707 45.1061 32.1364 45.1171 32.2527C45.2206 33.3511 45.4512 34.4701 45.7299 35.5375C45.7638 35.6671 45.8115 35.9347 45.9244 36.0357C46.0366 36.1362 46.0179 35.7414 46.006 35.5913C45.9484 34.8649 45.8 34.0669 45.539 33.383C45.5039 33.2912 45.4398 33.1998 45.3949 33.3465C45.3184 33.596 45.3274 33.8866 45.3202 34.1434C45.3048 34.6945 45.2774 35.2717 45.4001 35.8135C45.4367 35.9754 45.5092 36.1872 45.657 36.2857C45.7913 36.3753 45.9607 36.226 46.0285 36.1191C46.134 35.9528 46.152 35.7315 46.1605 35.5427C46.1839 35.0194 46.125 34.4951 46.0355 33.9802C45.9399 33.4306 45.823 32.8053 45.6015 32.2857C45.5424 32.1473 45.5647 32.5896 45.5945 32.7371C45.7638 33.5751 46.013 34.3949 46.2699 35.2093C46.3398 35.4313 46.4793 36.1829 46.789 36.258C46.8834 36.2808 47.0574 35.8376 47.0615 35.7354C47.0647 35.6571 47.1178 35.2028 47.0476 35.1607C46.996 35.1297 47.0349 35.2812 47.039 35.3413C47.0477 35.4729 47.0645 35.6051 47.0945 35.7337C47.1807 36.1031 47.1533 35.3868 47.1518 35.376C47.069 34.7729 46.881 34.1868 46.7091 33.6052C46.3746 32.4731 46.0281 31.3471 45.7577 30.1972C45.4939 29.0753 45.4075 27.9202 45.1362 26.8031C44.9409 25.9991 44.5969 25.2412 44.3237 24.4628C44.0441 23.6662 43.8926 22.8367 43.6327 22.0357C43.5535 21.7918 43.1646 20.8865 42.7438 21.2267C42.3974 21.5068 42.277 22.178 42.1744 22.5635C42.0494 23.0329 41.9599 23.506 41.8758 23.9837C41.8555 24.0989 41.855 24.3758 41.756 24.3135C41.5733 24.1987 41.4395 23.3821 41.414 23.2823C41.2033 22.4587 41.0203 21.6273 40.7664 20.8152C40.6706 20.509 40.5602 20.1066 40.341 19.8482C40.2922 19.7907 40.2193 19.7449 40.2178 19.8552C40.2129 20.2126 40.317 20.6069 40.3792 20.9524C40.4194 21.1755 40.5888 22.078 40.6292 22.2962C40.6889 22.6181 40.705 23.1524 40.8532 23.4628C40.9738 23.7156 40.8859 22.9016 40.8619 22.6225C40.7917 21.8094 40.6564 21.0043 40.5285 20.1989C40.4544 19.7318 40.3677 19.2612 40.3271 18.7892C40.3246 18.7592 40.2973 18.7027 40.3271 18.6989C40.3573 18.6952 40.3481 18.7561 40.3549 18.7857C40.3805 18.8969 40.4023 19.0089 40.4244 19.1208C40.677 20.3992 40.8443 21.687 41.0355 22.975C41.1693 23.8763 40.9933 21.15 40.881 20.2458C40.7927 19.5352 40.6663 18.8299 40.5806 18.1191C40.5684 18.0175 40.5565 17.9157 40.5528 17.8135C40.5518 17.7842 40.5496 17.7029 40.5667 17.7267C40.6046 17.7793 40.6091 17.8494 40.624 17.9125C40.9091 19.1155 41.0604 20.4039 41.1136 21.6382C41.1182 21.7451 41.1222 21.8523 41.1188 21.9593C41.1173 22.0054 41.1084 22.1582 41.0598 22.0149C40.8547 21.4103 40.7301 20.7544 40.5824 20.1364C40.4026 19.3845 40.1889 18.6187 40.1258 17.8448C40.0854 17.3499 40.1258 18.8378 40.1258 19.3343C40.1258 19.5611 40.149 19.8135 40.1223 20.0409C40.1013 20.2196 40.0739 19.6841 40.0633 19.5045C40.0286 18.9201 40.0127 18.3346 40.0042 17.7493C40.0007 17.5042 39.9813 17.2341 40.0077 16.9871C40.0427 16.6598 40.4633 17.4746 40.6119 17.7684C41.2737 19.0768 41.8091 20.4513 42.3827 21.7996C42.5037 22.0841 42.6117 22.4222 42.7768 22.6885C42.8915 22.8734 42.7035 22.2587 42.6431 22.0496C42.23 20.6189 41.728 19.1944 41.473 17.7232C41.4615 17.6571 41.43 17.4651 41.466 17.5218C41.7221 17.925 41.8854 18.6566 42.0233 19.067C42.5929 20.7611 43.1344 22.4634 43.5771 24.1955C43.6396 24.4396 43.6116 24.3777 43.5112 24.1607C43.2389 23.5726 42.9826 22.9765 42.7265 22.3812C42.3986 21.6193 42.0795 20.8538 41.7612 20.0878C41.6866 19.9084 41.613 19.7285 41.5372 19.5496C41.4679 19.3859 41.4501 19.1664 41.2994 19.0722C41.2802 19.0602 41.2511 19.0933 41.2473 19.1156C41.218 19.2852 41.2711 19.8053 41.282 19.9038C41.3581 20.5906 41.4807 21.2723 41.6101 21.9507C41.716 22.5056 41.8186 23.0649 41.9452 23.6156C42.0636 24.1304 42.0501 23.4975 42.0494 23.4038C42.0396 22.0637 41.7469 20.7651 41.6153 19.4385C41.612 19.4051 41.5888 19.3172 41.6153 19.3378C41.6535 19.3675 41.6489 19.4285 41.6622 19.475C41.6941 19.586 41.722 19.6982 41.7508 19.81C41.9365 20.5314 42.1188 21.253 42.3219 21.9698C42.4349 22.3684 42.5621 22.8061 42.6969 23.2024C42.7339 23.3111 42.7682 23.4213 42.8167 23.5253C42.8583 23.6143 42.925 23.6917 42.9417 23.5253C43.0036 22.9108 42.8551 22.2133 42.756 21.6173C42.6019 20.6909 42.3946 19.7754 42.2091 18.8552C42.2074 18.8469 41.9841 18.0082 42.0494 17.9021C42.0597 17.8852 42.073 17.9342 42.0806 17.9524C42.2266 18.2997 42.3544 18.6545 42.4938 19.0045C43.2018 20.7813 43.9963 22.526 44.6674 24.317C44.7089 24.4277 44.7481 24.5393 44.789 24.6503C44.8203 24.7355 44.8061 24.876 44.8931 24.9021C44.9081 24.9066 44.8994 24.8706 44.8966 24.8552C44.8637 24.6777 44.7563 24.319 44.716 24.1885C44.1795 22.4507 43.5834 20.7273 42.9903 19.008C42.9572 18.9118 42.8488 18.6268 42.881 18.7232C43.0252 19.156 43.1964 19.5834 43.3619 20.008C43.942 21.4964 44.5918 22.9564 45.2126 24.4281C45.3402 24.7307 45.4628 25.0365 45.6015 25.3343C45.6428 25.4231 45.7343 25.675 45.7612 25.5809C45.8086 25.4148 45.5455 24.8824 45.5129 24.7979C45.2559 24.1318 44.9903 23.4686 44.723 22.8066C44.4543 22.1411 44.1334 21.4911 43.8792 20.8205C43.8432 20.7254 44.0086 20.9778 44.0633 21.0635C44.3598 21.5287 44.6472 21.9998 44.9417 22.4663C45.361 23.1304 45.7756 23.7912 46.1709 24.4698C46.4218 24.9005 46.7043 25.3118 46.8931 25.7753C46.9664 25.9551 47.0773 26.1781 47.0945 26.376C47.1019 26.461 47.01 26.3912 46.9695 26.376" stroke="#F5EFE7" stroke-linecap="round"/>
<path d="M43.4696 30.4697C43.5426 31.0748 43.7279 31.7744 43.6067 32.3864C43.5471 32.688 43.4664 32.9924 43.4418 33.2996C43.4232 33.5323 43.4383 33.2872 43.4383 33.2076C43.4383 32.9114 43.4503 32.6218 43.4991 32.3291C43.51 32.2634 43.5523 32.0866 43.5807 32.1468C43.6807 32.3585 43.6258 32.7422 43.6258 32.9697C43.6258 33.4296 43.5764 33.9033 43.4869 34.3551C43.3986 34.8015 43.186 35.2117 42.8932 35.5583C42.7043 35.7818 42.5233 35.8875 42.5824 36.2093C42.6405 36.5256 42.8093 36.7084 43.1258 36.744C43.3557 36.7699 43.5438 36.7989 43.7508 36.6954C44.1546 36.4935 44.5873 36.3256 45.013 36.1746C45.2679 36.0841 45.5508 36.0397 45.8133 35.9697C46.148 35.8805 46.485 35.7394 46.796 35.5878C46.9565 35.5095 47.4391 35.1927 47.6397 35.3933C47.717 35.4707 47.7453 35.6154 47.7508 35.7197C47.7555 35.8089 47.9157 35.7822 47.7196 35.7822" stroke="#F5EFE7" stroke-linecap="round"/>
<path d="M33.907 21.0947C34.2469 20.6796 34.5755 20.2546 34.9174 19.8413C34.976 19.7703 34.9193 19.848 34.9139 19.8551C34.8285 19.969 34.7394 20.0802 34.6535 20.1937C34.284 20.6814 33.8536 21.1169 33.4764 21.5947C33.3631 21.7383 33.2348 21.867 33.0632 21.9385C32.9071 22.0035 32.9969 21.8184 33.0389 21.744C33.197 21.464 33.4311 21.2325 33.6448 20.9958C33.828 20.7929 33.9982 20.5776 34.1865 20.3794C34.2669 20.2948 34.4388 20.0067 34.4243 20.1225C34.4079 20.2539 33.8978 20.6667 34.334 20.2683C34.6994 19.9347 35.0234 19.5606 35.3861 19.2232C35.4706 19.1446 35.6963 18.8851 35.6361 18.9836C35.5307 19.1561 35.2934 19.3053 35.1552 19.4558C34.8838 19.7515 34.6113 20.0842 34.2576 20.2822C34.229 20.2983 34.4376 19.9695 34.4677 19.9211C34.6049 19.7009 34.7497 19.485 34.8861 19.2649C34.9909 19.0958 34.8657 19.1801 34.7889 19.2649C34.6087 19.4637 34.4671 19.6967 34.3167 19.9176C34.224 20.0538 34.1591 20.2038 34.0788 20.3465C33.9494 20.5765 33.9793 20.4267 34.0945 20.2683C34.3002 19.9854 34.4896 19.6928 34.709 19.4194C35.0522 18.9917 35.4805 18.6457 35.9 18.2961C36.0779 18.1479 36.2755 17.9673 36.4868 17.8656C36.6697 17.7775 36.4206 18.3871 36.4174 18.3951C35.9899 19.4491 34.2818 22.408 34.8879 21.4454C35.4637 20.5309 35.8127 19.4917 36.4486 18.6156C36.4597 18.6003 36.4943 18.5557 36.4851 18.5722C36.3377 18.8353 36.1616 19.0872 35.9972 19.3395C35.5748 19.988 35.0755 20.5986 34.6778 21.2614C34.0173 22.3622 36.2042 19.1751 36.7386 18.0079C36.7703 17.9385 36.8927 17.7857 36.8167 17.7926C36.7203 17.8014 36.5325 18.0834 36.4729 18.1468C36.1301 18.512 35.7837 18.8742 35.4295 19.2284C35.4262 19.2317 35.0635 19.656 35.0076 19.5878C34.8709 19.4206 35.2738 18.8836 35.3375 18.7197C35.4284 18.486 35.4634 18.2459 35.6136 18.0426C35.7776 17.8207 35.9086 17.5687 36.1101 17.376C36.3033 17.1912 36.53 17.0373 36.7368 16.8656C36.8114 16.8036 36.9009 16.7535 36.9695 16.685C37.0447 16.6098 37.1404 16.5329 37.0042 16.6711C36.4202 17.2637 35.8057 17.8473 35.2524 18.4697C35.1601 18.5736 35.0769 18.6901 35.0007 18.8065C34.8581 19.0246 35.1214 18.5616 35.1708 18.5079C35.4547 18.1999 35.8024 17.9341 36.1292 17.6746C36.4217 17.4423 36.7173 17.2133 37.0198 16.994C37.0762 16.9532 37.5702 16.5256 37.6326 16.7874C37.713 17.1241 37.4029 17.6339 37.2715 17.9038C36.9997 18.4622 36.6814 18.9957 36.3757 19.5357C36.3461 19.588 36.2606 19.7467 36.2889 19.6937C36.4381 19.4147 36.6045 19.1466 36.7681 18.876C37.1703 18.2107 37.5075 17.4969 37.9434 16.8534C37.9811 16.7978 38.2361 16.3711 38.3375 16.3899C38.5059 16.421 38.0525 17.7385 38.032 17.7996C37.8976 18.1989 37.7372 18.5864 37.5754 18.9749C37.4916 19.1759 37.3271 19.4586 37.3271 19.6867C37.3271 19.8086 37.4591 19.4807 37.5076 19.369C37.6993 18.9284 37.8772 18.482 38.0719 18.0426C38.2256 17.6958 38.3875 17.3529 38.5597 17.0149C38.5861 16.963 38.7051 16.6416 38.782 16.6086C38.8684 16.5716 38.8085 16.796 38.8028 16.8899C38.7728 17.3846 38.6487 17.8652 38.4538 18.3204C38.2969 18.6871 38.0932 19.0276 37.8722 19.3586C37.7383 19.5592 37.588 19.8339 37.3965 19.9906C37.3038 20.0665 37.3279 19.8823 37.3306 19.8621C37.3768 19.5077 37.5229 19.1516 37.6535 18.8239C37.8504 18.3294 38.0645 17.8309 38.334 17.3708C38.3899 17.2754 38.5926 16.9063 38.775 16.9697C38.9187 17.0197 38.9146 17.3024 38.9174 17.4072C38.9294 17.8651 38.8399 18.3277 38.6986 18.7614C38.5947 19.0804 38.4534 19.3851 38.3045 19.685C38.2673 19.76 38.1552 19.9824 38.1031 20.0739C38.0386 20.1874 38.0833 20.0762 38.1066 20.0114C38.3867 19.2316 38.6737 18.4538 38.9556 17.6746C39.0006 17.55 39.0681 17.2729 39.1882 17.1711C39.2877 17.0868 39.351 17.3918 39.3618 17.5218C39.4347 18.4018 39.2698 19.2493 39.0094 20.0843C38.9744 20.1965 38.9437 20.3077 38.9139 20.4211C38.8717 20.5816 38.9594 20.0923 38.9833 19.9281C39.1199 18.9923 39.2141 18.037 39.4313 17.1156C39.5068 16.795 39.6306 16.4773 39.7333 16.1642C39.7814 16.0178 39.8445 15.8714 39.8445 15.7197C39.8445 15.5125 39.5829 15.6937 39.4833 15.744C39.1331 15.9212 38.8328 16.1591 38.4938 16.3517C38.2359 16.4981 37.9898 16.6608 37.7351 16.8117C37.6103 16.8857 37.3757 17.0634 37.3757 16.8274C37.3757 16.3269 37.928 15.9893 38.282 15.7128C38.3775 15.6381 38.1548 15.7576 38.1361 15.7718C37.9976 15.8775 37.8771 15.9996 37.7542 16.1225C37.6232 16.2535 37.504 16.3439 37.3601 16.4558C37.2069 16.575 37.3541 16.3535 37.4 16.3065C37.6062 16.0956 37.7961 15.926 38.0389 15.7579C38.5329 15.4159 39.1778 15.126 39.7889 15.126C39.871 15.126 39.9808 15.1539 40.0476 15.2058C40.1372 15.2756 40.1154 15.3079 39.999 15.2788C39.8516 15.2419 39.7481 15.072 39.5875 15.0392C39.4273 15.0064 39.311 15.094 39.1743 15.1503C38.9591 15.2389 39.5961 14.9072 39.8288 14.9072C40.5857 14.9072 40.3494 15.9351 40.282 16.4072" stroke="#F5EFE7" stroke-linecap="round"/>
<path d="M40.5321 16.1572C40.6654 16.163 40.712 16.2056 40.7942 16.3186C40.9693 16.5593 41.111 16.8301 41.2647 17.0843C41.5802 17.6059 41.9013 18.123 42.23 18.6363C42.3114 18.7635 42.3878 18.8934 42.4643 19.0235C42.4996 19.0835 42.6174 19.2484 42.5598 19.2093C42.471 19.1488 42.3786 18.9776 42.3272 18.902C41.976 18.385 41.6293 17.8643 41.2873 17.3412C40.992 16.8896 40.7321 16.407 40.4157 15.9697C40.2178 15.6961 40.5045 16.0668 40.5564 16.1329C41.0586 16.773 41.5704 17.4087 42.1015 18.0252C42.1407 18.0708 42.443 18.4491 42.3359 18.1867C41.9842 17.3252 41.4639 16.5273 40.9869 15.7301C40.8469 15.4961 40.7003 15.2214 40.6414 14.9506C40.635 14.9209 40.5977 14.7414 40.6432 14.7284C40.6776 14.7185 40.7069 14.8705 40.7057 14.8933C40.7017 14.9644 40.4453 14.7653 40.7057 14.9089C41.0633 15.1062 41.3621 15.4639 41.6362 15.7613C42.0569 16.2179 42.24 16.7618 42.48 17.3238C42.6562 17.7366 42.8439 18.1485 42.9973 18.5704C43.0361 18.6769 42.9202 18.3563 42.8671 18.2561C42.6666 17.8779 42.4433 17.5016 42.2091 17.1433C42.0741 16.9366 41.5443 16.4337 41.7595 16.5548C42.2987 16.8581 42.6821 17.5309 42.98 18.0461C43.0393 18.1487 43.0976 18.2516 43.1553 18.3551C43.181 18.4011 43.2202 18.5287 43.2473 18.4836C43.2621 18.459 43.1544 18.2905 43.1518 18.2857C43.0328 18.058 42.9233 17.8258 42.7977 17.6016C42.684 17.3987 42.5648 17.1799 42.4088 17.0044C42.2973 16.879 42.3654 17.0895 42.3758 17.1572" stroke="#F5EFE7" stroke-linecap="round"/>
<path d="M42.3445 16.9072C42.3566 16.8013 42.3394 16.5341 42.4799 16.7058C42.7133 16.9911 42.8521 17.3347 42.9851 17.6746C43.1522 18.1017 43.2784 18.5379 43.4157 18.9749C43.439 19.0493 43.4164 19.2051 43.4938 19.1954C43.5689 19.186 43.4691 19.0456 43.4469 18.9732C43.2191 18.2304 42.9472 17.4969 42.6778 16.7683C42.6305 16.6404 42.5749 16.5114 42.5389 16.3794C42.4922 16.2081 42.7123 16.6899 42.7855 16.8517C43.1748 17.7124 43.5227 18.5844 43.8549 19.468C43.9628 19.7551 44.0857 20.0355 44.1986 20.3204C44.2924 20.5571 44.2011 20.4284 44.1205 20.284C43.742 19.6056 43.4027 18.8563 43.1396 18.1225C43.0949 17.9978 43.2598 18.3587 43.3202 18.4767C43.6027 19.029 43.8952 19.5774 44.15 20.1433C44.3081 20.4943 44.7247 21.571 44.598 21.2076C44.2522 20.2165 43.7214 19.2967 43.3289 18.3256C43.2718 18.1844 43.2112 18.0012 43.2195 17.8447C43.2219 17.7995 43.2578 17.7738 43.3028 17.7892C43.572 17.8807 43.7911 18.2603 43.9313 18.4836C44.3228 19.1072 44.5779 19.8172 44.8566 20.4958C44.8805 20.5539 44.9645 20.786 44.9643 20.784C44.9416 20.5687 44.76 20.3357 44.6674 20.1468C44.5032 19.8121 44.3243 19.4868 44.1257 19.1711C44.0229 19.0076 43.9245 18.8051 43.7889 18.6642C43.7328 18.6058 43.905 18.8525 43.9139 18.8656C44.1157 19.163 44.2864 19.4864 44.4417 19.81C44.8702 20.7031 45.3002 21.6256 45.5945 22.5739C45.7195 22.9769 45.804 23.3941 45.907 23.8031C45.9408 23.9375 45.9424 24.0913 45.9938 24.2197C46.0473 24.3534 45.8847 23.953 45.8375 23.8169C45.5969 23.1223 45.3567 22.4214 45.1605 21.7128C45.1528 21.6851 45.0788 21.3387 45.1309 21.4072C45.2951 21.6227 45.4066 21.9161 45.5146 22.1607C45.7574 22.7103 46.0238 23.2439 46.275 23.7892C46.3574 23.968 46.4359 24.1476 46.5077 24.3308C46.534 24.3979 46.5996 24.6006 46.5945 24.5287C46.5817 24.3495 46.4803 24.1692 46.4122 24.0079C46.185 23.47 45.964 22.929 45.7316 22.3933C45.6729 22.258 45.5995 22.1319 45.5198 22.0079C45.428 21.865 45.6592 22.3178 45.7351 22.4697C45.9754 22.9502 46.2224 23.4223 46.407 23.9281C46.5143 24.2222 46.704 24.5344 46.775 24.8378C46.8631 25.214 47.0015 25.5775 47.0771 25.9558C47.1423 26.2817 47.2507 26.5797 47.2507 26.9072" stroke="#F5EFE7" stroke-linecap="round"/>
</svg>
