<svg width="78" height="78" viewBox="0 0 78 78" fill="none" xmlns="http://www.w3.org/2000/svg">
<rect x="0.25" y="0.25" width="77.5" height="77.5" rx="9.75" stroke="#2D4941" stroke-width="0.5"/>
<path d="M17.2371 48.7989V48.7987L17.2276 48.7992C17.0473 48.8078 16.9237 48.7482 16.8423 48.6654C16.7575 48.5791 16.707 48.4555 16.7007 48.3233C16.6943 48.1912 16.7327 48.0633 16.8089 47.9693C16.8813 47.8798 16.9972 47.8091 17.175 47.7995L17.1778 47.7995L17.2015 47.7995L17.2951 47.7995L17.6599 47.7995L19.0446 47.7995L23.9871 47.7993L38.9846 47.799L53.9816 47.7989L58.9234 47.7991L60.3077 47.7993L60.6722 47.7994L60.7656 47.7995L60.789 47.7995L60.7945 47.7995L60.7951 47.7995C60.7947 47.7995 60.6994 47.7228 60.6792 47.5994C60.7075 47.5994 60.7309 47.5994 60.7491 47.5995L60.7972 47.7995C60.9775 47.7995 61.0979 47.8649 61.1751 47.9514C61.2556 48.0415 61.3 48.1672 61.3 48.2992C61.3 48.4313 61.2556 48.557 61.1751 48.6471C61.0979 48.7336 60.9775 48.7989 60.7972 48.7989H17.2371Z" fill="#2D4941" stroke="#2D4941" stroke-width="0.4"/>
<path d="M52.0802 37.4531L51.1272 37.7708L47.7669 27.7378L47.7406 27.6593L47.6664 27.6223L43.7144 25.6544L43.7136 25.654C43.6234 25.6096 43.5487 25.5389 43.4991 25.4512C43.499 25.4511 43.4989 25.4509 43.4988 25.4508L40.5587 20.178L40.3956 19.8856L40.2154 20.1677L31.0149 34.5728C31.0149 34.5728 31.0149 34.5728 31.0149 34.5729C30.876 34.789 30.5958 34.8661 30.3657 34.7508L30.3653 34.7506L28.2081 33.6764L28.023 33.5842L27.9371 33.7724L24.57 41.1473L23.6542 40.7338L27.3198 32.6991C27.4376 32.4413 27.7483 32.3313 28.0036 32.4587L28.004 32.4589L30.2489 33.574L30.4097 33.6539L30.5064 33.5026L40.0036 18.6434L40.004 18.6428C40.0923 18.5037 40.2434 18.4159 40.4077 18.4089C40.596 18.4032 40.771 18.5033 40.8622 18.6681L40.8626 18.6687L44.2712 24.7734L44.3013 24.8274L44.3566 24.8549L48.3814 26.8598L48.3817 26.8599C48.5006 26.9189 48.5911 27.0224 48.6336 27.1475C48.6337 27.1477 48.6337 27.1478 48.6338 27.148L52.0802 37.4531Z" fill="#2D4941" stroke="#2D4941" stroke-width="0.4"/>
<path d="M59.0926 47.9325L58.1496 48.2874L53.4387 35.9119L53.284 35.5055L53.0761 35.8875L50.0006 41.538C49.9634 41.6064 49.9105 41.6652 49.8463 41.7097C49.7821 41.7543 49.7082 41.7833 49.6306 41.7945C49.553 41.8056 49.4739 41.7986 49.3995 41.7739C49.3252 41.7492 49.2577 41.7076 49.2025 41.6524L49.2023 41.6522L47.636 40.0923L47.4826 39.9395L47.3424 40.1045L40.2363 48.4701L39.4688 47.8239L47.0664 38.8811L47.0667 38.8807C47.1114 38.8279 47.1666 38.7848 47.2289 38.7542C47.2913 38.7235 47.3593 38.7061 47.4288 38.703C47.4983 38.6999 47.5677 38.7111 47.6325 38.736C47.6973 38.7608 47.7561 38.7987 47.8053 38.8472C47.8054 38.8473 47.8055 38.8474 47.8056 38.8475L49.2468 40.2828L49.4359 40.4711L49.5635 40.2367L52.9243 34.0643L52.9244 34.0642C52.9677 33.9845 53.0319 33.918 53.1104 33.8718C53.1888 33.8255 53.2785 33.8014 53.3697 33.8019L59.0926 47.9325ZM59.0926 47.9325L53.8376 34.1276L53.8373 34.1268C53.8017 34.0321 53.738 33.9503 53.6546 33.8922C53.5711 33.8341 53.4718 33.8026 53.3698 33.8019L59.0926 47.9325Z" fill="#2D4941" stroke="#2D4941" stroke-width="0.4"/>
<path d="M28.9464 48.018L27.9513 48.1804L27.4187 44.9892L27.3803 44.759L27.1587 44.8322L25.8304 45.2708L25.8294 45.2712C25.5835 45.3539 25.3155 45.2367 25.2098 45.0018C25.2098 45.0017 25.2097 45.0016 25.2097 45.0016L23.1145 40.3077L22.9117 39.8534L22.7436 40.3217L20.8756 45.5251L20.1241 47.6181L19.9007 48.2404L19.8868 48.2791L18.9481 47.9455L18.9799 47.8661C19.0504 47.69 19.1521 47.4344 19.2774 47.1163C19.5279 46.4803 19.8725 45.5945 20.2489 44.5951C21 42.6009 21.8803 40.1481 22.391 38.3267C22.4603 38.1399 22.6362 38.0108 22.8382 38.0007C23.0458 37.9919 23.2366 38.1108 23.3196 38.2996L23.3201 38.3006L25.8711 44.0144L25.9447 44.1794L26.1163 44.1228L27.6201 43.6268C27.6201 43.6268 27.6201 43.6268 27.6201 43.6268C27.9137 43.5304 28.2231 43.7167 28.2744 44.0168C28.2744 44.0169 28.2744 44.0169 28.2744 44.017L28.9464 48.018Z" fill="#2D4941" stroke="#2D4941" stroke-width="0.4"/>
<path d="M40.8365 19.958L38.3016 27.5366L38.2417 27.7157L38.4171 27.7858L41.3153 28.9424C41.3155 28.9424 41.3157 28.9425 41.3159 28.9426C41.3924 28.9737 41.46 29.0231 41.5127 29.0863C41.5655 29.1497 41.6017 29.225 41.6181 29.3056C41.6346 29.3861 41.6308 29.4695 41.6072 29.5482C41.5835 29.6269 41.5408 29.6986 41.4826 29.757C41.4825 29.757 41.4824 29.7571 41.4823 29.7572L36.4986 34.7205L36.3165 34.9018L36.537 35.0338L39.2806 36.6764L39.2807 36.6764C39.3462 36.7156 39.4018 36.7691 39.4434 36.8328C39.4849 36.8965 39.5113 36.9687 39.5205 37.0439C39.5298 37.1192 39.5217 37.1956 39.4969 37.2673C39.4721 37.339 39.4311 37.4043 39.3771 37.458L39.377 37.4581L34.1647 42.6491L34.0482 42.7651L34.1396 42.9019L35.2235 44.5238L35.2236 44.5239C35.2879 44.62 35.3168 44.7353 35.3053 44.8501C35.2939 44.9649 35.2428 45.0723 35.1606 45.1541L35.1605 45.1542L31.7905 48.5104L31.0782 47.8011L34.0423 44.854L34.1594 44.7377L34.0674 44.6007L32.9784 42.9791L40.8365 19.958ZM40.8365 19.958L39.883 19.6403L37.1358 27.8482C37.1357 27.8484 37.1357 27.8486 37.1356 27.8488C37.0963 27.9694 37.1045 28.1005 37.1588 28.2153C37.2131 28.3304 37.3096 28.4207 37.4287 28.4676L37.4295 28.4679L39.9553 29.4751L40.238 29.5879L40.0224 29.8026L35.1532 34.6519C35.153 34.652 35.1529 34.6522 35.1527 34.6523C35.0997 34.7059 35.0595 34.7708 35.0351 34.8419C35.0107 34.9132 35.0029 34.9891 35.0121 35.0639C35.0214 35.1387 35.0475 35.2104 35.0886 35.2738C35.1297 35.337 35.1846 35.3903 35.2493 35.4296C35.2494 35.4296 35.2495 35.4297 35.2496 35.4298L37.9873 37.0719L38.2075 37.2039L38.0256 37.3851L33.0415 42.3488L33.0414 42.3489C32.9592 42.4306 32.9081 42.5381 32.8967 42.6529C32.8852 42.7676 32.914 42.8827 32.9782 42.9788L40.8365 19.958Z" fill="#2D4941" stroke="#2D4941" stroke-width="0.4"/>
<path d="M23.0594 21.0093C23.0594 19.197 24.5532 17.7125 26.3757 17.7125C28.1979 17.7125 29.6869 19.1966 29.6869 21.0093C29.6869 22.8219 28.1979 24.3061 26.3757 24.3061C24.5532 24.3061 23.0594 22.8216 23.0594 21.0093ZM28.6814 21.0093C28.6814 19.7304 27.6578 18.7122 26.3757 18.7122C25.0943 18.7122 24.0649 19.7298 24.0649 21.0093C24.0649 22.2887 25.0943 23.3063 26.3757 23.3063C27.6578 23.3063 28.6814 22.2881 28.6814 21.0093Z" fill="#2D4941" stroke="#2D4941" stroke-width="0.4"/>
<path d="M32.7148 21.5073L32.7065 21.5066H32.6981H31.2941C30.6704 21.4962 30.6235 20.5946 31.2327 20.5119L31.2369 20.5119L31.2837 20.5119L31.451 20.5116L31.9587 20.5111C32.1433 20.5109 32.3279 20.5108 32.4664 20.5109L32.5818 20.5112L32.588 20.5219L32.7148 20.5113C32.9131 20.4946 33.0425 20.5576 33.1245 20.6437C33.2109 20.7345 33.2598 20.8676 33.2598 21.0093C33.2598 21.1509 33.2109 21.284 33.1245 21.3748C33.0425 21.461 32.9131 21.5239 32.7148 21.5073Z" fill="#2D4941" stroke="#2D4941" stroke-width="0.4"/>
<path d="M21.4706 21.5073L21.4622 21.5066H21.4538H20.0505C19.4293 21.4917 19.3858 20.5937 19.9935 20.5119L19.9978 20.5119L20.0445 20.5119L20.2115 20.5116L20.718 20.5111C20.8548 20.511 20.9914 20.5109 21.1092 20.5109L21.0907 20.5432L21.4706 20.5113C21.6688 20.4946 21.7983 20.5576 21.8803 20.6437C21.9667 20.7345 22.0156 20.8676 22.0156 21.0093C22.0156 21.1509 21.9667 21.284 21.8803 21.3748C21.7983 21.461 21.6688 21.5239 21.4706 21.5073Z" fill="#2D4941" stroke="#2D4941" stroke-width="0.4"/>
<path d="M26.3639 25.3982L26.364 25.3982C26.4313 25.3969 26.4983 25.4092 26.5608 25.4341C26.6233 25.4591 26.6801 25.4963 26.7278 25.5435C26.7755 25.5906 26.8132 25.6468 26.8386 25.7087C26.864 25.7705 26.8767 25.8368 26.876 25.9036L26.876 25.9036V25.9058V27.3056C26.876 27.4379 26.8232 27.565 26.729 27.6588C26.6348 27.7526 26.5068 27.8055 26.3732 27.8055C26.2396 27.8055 26.1116 27.7526 26.0174 27.6588C25.9232 27.565 25.8705 27.4379 25.8705 27.3056V25.9058H25.8705L25.8704 25.9036C25.8689 25.7719 25.9198 25.6448 26.0121 25.55C26.1045 25.4553 26.2309 25.4006 26.3639 25.3982ZM27.076 27.3056V25.9058H25.6705V27.3056C25.6705 27.4912 25.7445 27.6692 25.8763 27.8005C26.0081 27.9317 26.1868 28.0055 26.3732 28.0055C26.5596 28.0055 26.7383 27.9317 26.8701 27.8005C27.0019 27.6692 27.076 27.4912 27.076 27.3056Z" fill="#2D4941" stroke="#2D4941" stroke-width="0.4"/>
<path d="M26.3637 14.2001L26.3638 14.2001C26.4315 14.1988 26.4988 14.2112 26.5615 14.2364C26.6243 14.2616 26.6812 14.2991 26.729 14.3467C26.7767 14.3942 26.8143 14.4509 26.8396 14.5131C26.8648 14.5754 26.8771 14.6421 26.8758 14.7091L26.8758 14.7091V14.7129V16.1127C26.8758 16.245 26.823 16.372 26.7288 16.4659C26.6346 16.5597 26.5066 16.6126 26.373 16.6126C26.2394 16.6126 26.1115 16.5597 26.0173 16.4659C25.9231 16.372 25.8703 16.245 25.8703 16.1127V14.7129H25.8703L25.8703 14.7091C25.869 14.6436 25.8808 14.5785 25.9048 14.5174C25.9289 14.4564 25.9648 14.4006 26.0106 14.3533C26.0564 14.306 26.1111 14.268 26.1717 14.2417C26.2323 14.2154 26.2976 14.2013 26.3637 14.2001Z" fill="#2D4941" stroke="#2D4941" stroke-width="0.4"/>
<path d="M22.539 24.1209L22.5391 24.121L22.5411 24.1189C22.6319 24.0258 22.7557 23.9714 22.8864 23.9674L22.8802 23.7675L22.8861 23.9674C22.9873 23.9644 23.0869 23.9919 23.1721 24.0461C23.2572 24.1003 23.3238 24.1787 23.3634 24.271C23.4029 24.3633 23.4136 24.4653 23.3941 24.5637C23.3745 24.6621 23.3257 24.7524 23.2537 24.8229L23.2537 24.8229L23.2526 24.8241L22.2568 25.8158L22.2567 25.8157L22.2527 25.82C22.2065 25.8687 22.1509 25.9078 22.0892 25.9348C22.0275 25.9618 21.9609 25.9762 21.8934 25.9771C21.826 25.978 21.759 25.9654 21.6966 25.94C21.6342 25.9146 21.5776 25.8771 21.5301 25.8295C21.4826 25.782 21.4453 25.7255 21.4202 25.6635C21.3952 25.6014 21.3829 25.5349 21.3842 25.4681C21.3854 25.4013 21.4001 25.3353 21.4275 25.2742C21.4548 25.2131 21.4943 25.158 21.5435 25.1123L21.5436 25.1124L21.5484 25.1075L22.539 24.1209Z" fill="#2D4941" stroke="#2D4941" stroke-width="0.4"/>
<path d="M30.8308 15.8492L30.8367 16.0492C30.9383 16.0462 31.0384 16.0739 31.1238 16.1286C31.2092 16.1832 31.2758 16.2623 31.315 16.3552C31.3543 16.4481 31.3643 16.5507 31.3439 16.6493C31.3235 16.748 31.2736 16.8383 31.2006 16.9084L31.2005 16.9084L31.1979 16.911L30.2073 17.8976L30.2072 17.8975L30.2025 17.9025C30.1566 17.9515 30.1012 17.9909 30.0396 18.0182C29.978 18.0455 29.9115 18.0603 29.8441 18.0615C29.7766 18.0628 29.7096 18.0505 29.647 18.0254C29.5845 18.0004 29.5277 17.9631 29.4799 17.9158L29.3403 18.0568L29.4799 17.9158C29.4322 17.8686 29.3946 17.8123 29.3692 17.7503C29.3438 17.6884 29.3312 17.622 29.3321 17.5552C29.333 17.4883 29.3474 17.4223 29.3744 17.361C29.4014 17.2998 29.4406 17.2445 29.4896 17.1985L29.4896 17.1986L29.4938 17.1944L30.4895 16.2027L30.4896 16.2027L30.4916 16.2007C30.5824 16.1076 30.7062 16.0532 30.8369 16.0492L30.8308 15.8492ZM30.8308 15.8492C30.9726 15.8451 31.1123 15.8837 31.2316 15.9601C31.351 16.0366 31.4443 16.1472 31.4993 16.2774C31.5543 16.4076 31.5684 16.5514 31.5398 16.6898C31.5112 16.8282 31.4412 16.9547 31.339 17.0527L30.3484 16.061C30.4755 15.9308 30.6485 15.8548 30.8308 15.8492Z" fill="#2D4941" stroke="#2D4941" stroke-width="0.4"/>
<path d="M21.5484 16.911L21.5484 16.911L21.5458 16.9085C21.4738 16.8393 21.4242 16.7503 21.4034 16.6531C21.3826 16.5558 21.3914 16.4546 21.4288 16.3623C21.4662 16.27 21.5304 16.1908 21.6135 16.135C21.6965 16.0792 21.7945 16.0493 21.8949 16.0492L21.8948 15.8492L21.8946 16.0492C21.9619 16.0493 22.0284 16.0627 22.0902 16.0888C22.1521 16.1148 22.2081 16.1529 22.2548 16.2008L22.2548 16.2008L22.2567 16.2027L23.2525 17.1944L23.2525 17.1945L23.2567 17.1985C23.3057 17.2445 23.3448 17.2998 23.3719 17.361C23.3989 17.4223 23.4133 17.4883 23.4142 17.5552C23.4151 17.622 23.4025 17.6884 23.3771 17.7503C23.3517 17.8123 23.3141 17.8686 23.2663 17.9158C23.2186 17.9631 23.1618 18.0004 23.0993 18.0254C23.0367 18.0505 22.9697 18.0627 22.9022 18.0615C22.8348 18.0603 22.7683 18.0455 22.7067 18.0182C22.6451 17.9909 22.5897 17.9515 22.5438 17.9025L22.5439 17.9024L22.539 17.8976L21.5484 16.911Z" fill="#2D4941" stroke="#2D4941" stroke-width="0.4"/>
<path d="M29.7728 23.7675L29.7923 23.9665C29.8682 23.9591 29.9447 23.9689 30.0161 23.9952C30.0875 24.0214 30.1519 24.0635 30.2045 24.118L30.2045 24.1181L30.2074 24.1209L31.198 25.1075L31.1979 25.1076L31.203 25.1123C31.2522 25.158 31.2916 25.2131 31.3189 25.2742C31.3463 25.3353 31.361 25.4013 31.3623 25.4681C31.3635 25.535 31.3513 25.6014 31.3262 25.6635L31.5117 25.7383L31.3262 25.6635C31.3012 25.7255 31.2638 25.782 31.2163 25.8295C31.1689 25.8771 31.1123 25.9146 31.0498 25.94C30.9874 25.9654 30.9205 25.978 30.853 25.9771C30.7855 25.9762 30.7189 25.9618 30.6572 25.9348C30.5955 25.9078 30.5399 25.8687 30.4937 25.82L30.4938 25.8199L30.4897 25.8158L29.4939 24.8241L29.4939 24.8241L29.4918 24.822C29.4231 24.7556 29.375 24.6711 29.3531 24.5786C29.3311 24.486 29.3362 24.3891 29.3677 24.2993C29.3991 24.2095 29.4558 24.1304 29.531 24.0714C29.6063 24.0124 29.697 23.9759 29.7925 23.9665L29.7728 23.7675ZM29.7728 23.7675C29.8786 23.7571 29.9854 23.7708 30.0851 23.8074C30.1848 23.8441 30.2749 23.9029 30.3485 23.9792L29.3527 24.9658C29.2567 24.8729 29.1893 24.7545 29.1585 24.6247C29.1277 24.4949 29.1348 24.3591 29.1789 24.2332C29.2231 24.1072 29.3024 23.9965 29.4076 23.914C29.5129 23.8315 29.6396 23.7807 29.7728 23.7675Z" fill="#2D4941" stroke="#2D4941" stroke-width="0.4"/>
<path d="M19.4848 56.388V64H18.4838V58.324L15.9538 64H15.2498L12.7088 58.313V64H11.7078V56.388H12.7858L15.6018 62.68L18.4178 56.388H19.4848ZM23.8114 64.099C23.2468 64.099 22.7334 63.9707 22.2714 63.714C21.8168 63.4573 21.4574 63.0943 21.1934 62.625C20.9368 62.1483 20.8084 61.5983 20.8084 60.975C20.8084 60.359 20.9404 59.8163 21.2044 59.347C21.4758 58.8703 21.8424 58.5073 22.3044 58.258C22.7664 58.0013 23.2834 57.873 23.8554 57.873C24.4274 57.873 24.9444 58.0013 25.4064 58.258C25.8684 58.5073 26.2314 58.8667 26.4954 59.336C26.7668 59.8053 26.9024 60.3517 26.9024 60.975C26.9024 61.5983 26.7631 62.1483 26.4844 62.625C26.2131 63.0943 25.8428 63.4573 25.3734 63.714C24.9041 63.9707 24.3834 64.099 23.8114 64.099ZM23.8114 63.219C24.1708 63.219 24.5081 63.1347 24.8234 62.966C25.1388 62.7973 25.3918 62.5443 25.5824 62.207C25.7804 61.8697 25.8794 61.459 25.8794 60.975C25.8794 60.491 25.7841 60.0803 25.5934 59.743C25.4028 59.4057 25.1534 59.1563 24.8454 58.995C24.5374 58.8263 24.2038 58.742 23.8444 58.742C23.4778 58.742 23.1404 58.8263 22.8324 58.995C22.5318 59.1563 22.2898 59.4057 22.1064 59.743C21.9231 60.0803 21.8314 60.491 21.8314 60.975C21.8314 61.4663 21.9194 61.8807 22.0954 62.218C22.2788 62.5553 22.5208 62.8083 22.8214 62.977C23.1221 63.1383 23.4521 63.219 23.8114 63.219ZM31.1556 57.862C31.8889 57.862 32.4829 58.0857 32.9376 58.533C33.3922 58.973 33.6196 59.611 33.6196 60.447V64H32.6296V60.59C32.6296 59.9887 32.4792 59.5303 32.1786 59.215C31.8779 58.8923 31.4672 58.731 30.9466 58.731C30.4186 58.731 29.9969 58.896 29.6816 59.226C29.3736 59.556 29.2196 60.0363 29.2196 60.667V64H28.2186V57.972H29.2196V58.83C29.4176 58.522 29.6852 58.2837 30.0226 58.115C30.3672 57.9463 30.7449 57.862 31.1556 57.862ZM36.4757 58.797V62.35C36.4757 62.6433 36.538 62.8523 36.6627 62.977C36.7874 63.0943 37.0037 63.153 37.3117 63.153H38.0487V64H37.1467C36.5894 64 36.1714 63.8717 35.8927 63.615C35.614 63.3583 35.4747 62.9367 35.4747 62.35V58.797H34.6937V57.972H35.4747V56.454H36.4757V57.972H38.0487V58.797H36.4757ZM38.8876 60.964C38.8876 60.348 39.0122 59.809 39.2616 59.347C39.5109 58.8777 39.8519 58.5147 40.2846 58.258C40.7246 58.0013 41.2122 57.873 41.7476 57.873C42.2756 57.873 42.7339 57.9867 43.1226 58.214C43.5112 58.4413 43.8009 58.7273 43.9916 59.072V57.972H45.0036V64H43.9916V62.878C43.7936 63.23 43.4966 63.5233 43.1006 63.758C42.7119 63.9853 42.2572 64.099 41.7366 64.099C41.2012 64.099 40.7172 63.967 40.2846 63.703C39.8519 63.439 39.5109 63.0687 39.2616 62.592C39.0122 62.1153 38.8876 61.5727 38.8876 60.964ZM43.9916 60.975C43.9916 60.5203 43.8999 60.1243 43.7166 59.787C43.5332 59.4497 43.2839 59.193 42.9686 59.017C42.6606 58.8337 42.3196 58.742 41.9456 58.742C41.5716 58.742 41.2306 58.83 40.9226 59.006C40.6146 59.182 40.3689 59.4387 40.1856 59.776C40.0022 60.1133 39.9106 60.5093 39.9106 60.964C39.9106 61.426 40.0022 61.8293 40.1856 62.174C40.3689 62.5113 40.6146 62.7717 40.9226 62.955C41.2306 63.131 41.5716 63.219 41.9456 63.219C42.3196 63.219 42.6606 63.131 42.9686 62.955C43.2839 62.7717 43.5332 62.5113 43.7166 62.174C43.8999 61.8293 43.9916 61.4297 43.9916 60.975ZM49.1811 57.873C49.7018 57.873 50.1565 57.9867 50.5451 58.214C50.9411 58.4413 51.2345 58.7273 51.4251 59.072V57.972H52.4371V64.132C52.4371 64.682 52.3198 65.1697 52.0851 65.595C51.8505 66.0277 51.5131 66.365 51.0731 66.607C50.6405 66.849 50.1345 66.97 49.5551 66.97C48.7631 66.97 48.1031 66.783 47.5751 66.409C47.0471 66.035 46.7355 65.5253 46.6401 64.88H47.6301C47.7401 65.2467 47.9675 65.54 48.3121 65.76C48.6568 65.9873 49.0711 66.101 49.5551 66.101C50.1051 66.101 50.5525 65.9287 50.8971 65.584C51.2491 65.2393 51.4251 64.7553 51.4251 64.132V62.867C51.2271 63.219 50.9338 63.5123 50.5451 63.747C50.1565 63.9817 49.7018 64.099 49.1811 64.099C48.6458 64.099 48.1581 63.967 47.7181 63.703C47.2855 63.439 46.9445 63.0687 46.6951 62.592C46.4458 62.1153 46.3211 61.5727 46.3211 60.964C46.3211 60.348 46.4458 59.809 46.6951 59.347C46.9445 58.8777 47.2855 58.5147 47.7181 58.258C48.1581 58.0013 48.6458 57.873 49.1811 57.873ZM51.4251 60.975C51.4251 60.5203 51.3335 60.1243 51.1501 59.787C50.9668 59.4497 50.7175 59.193 50.4021 59.017C50.0941 58.8337 49.7531 58.742 49.3791 58.742C49.0051 58.742 48.6641 58.83 48.3561 59.006C48.0481 59.182 47.8025 59.4387 47.6191 59.776C47.4358 60.1133 47.3441 60.5093 47.3441 60.964C47.3441 61.426 47.4358 61.8293 47.6191 62.174C47.8025 62.5113 48.0481 62.7717 48.3561 62.955C48.6641 63.131 49.0051 63.219 49.3791 63.219C49.7531 63.219 50.0941 63.131 50.4021 62.955C50.7175 62.7717 50.9668 62.5113 51.1501 62.174C51.3335 61.8293 51.4251 61.4297 51.4251 60.975ZM57.0657 57.862C57.7991 57.862 58.3931 58.0857 58.8477 58.533C59.3024 58.973 59.5297 59.611 59.5297 60.447V64H58.5397V60.59C58.5397 59.9887 58.3894 59.5303 58.0887 59.215C57.7881 58.8923 57.3774 58.731 56.8567 58.731C56.3287 58.731 55.9071 58.896 55.5917 59.226C55.2837 59.556 55.1297 60.0363 55.1297 60.667V64H54.1287V57.972H55.1297V58.83C55.3277 58.522 55.5954 58.2837 55.9327 58.115C56.2774 57.9463 56.6551 57.862 57.0657 57.862ZM66.6649 60.755C66.6649 60.9457 66.6539 61.1473 66.6319 61.36H61.8139C61.8505 61.954 62.0522 62.4197 62.4189 62.757C62.7929 63.087 63.2439 63.252 63.7719 63.252C64.2045 63.252 64.5639 63.153 64.8499 62.955C65.1432 62.7497 65.3485 62.4783 65.4659 62.141H66.5439C66.3825 62.7203 66.0599 63.1933 65.5759 63.56C65.0919 63.9193 64.4905 64.099 63.7719 64.099C63.1999 64.099 62.6865 63.9707 62.2319 63.714C61.7845 63.4573 61.4325 63.0943 61.1759 62.625C60.9192 62.1483 60.7909 61.5983 60.7909 60.975C60.7909 60.3517 60.9155 59.8053 61.1649 59.336C61.4142 58.8667 61.7625 58.5073 62.2099 58.258C62.6645 58.0013 63.1852 57.873 63.7719 57.873C64.3439 57.873 64.8499 57.9977 65.2899 58.247C65.7299 58.4963 66.0672 58.841 66.3019 59.281C66.5439 59.7137 66.6649 60.205 66.6649 60.755ZM65.6309 60.546C65.6309 60.1647 65.5465 59.8383 65.3779 59.567C65.2092 59.2883 64.9782 59.0793 64.6849 58.94C64.3989 58.7933 64.0799 58.72 63.7279 58.72C63.2219 58.72 62.7892 58.8813 62.4299 59.204C62.0779 59.5267 61.8762 59.974 61.8249 60.546H65.6309Z" fill="#2D4941"/>
</svg>
