<svg width="78" height="78" viewBox="0 0 78 78" fill="none" xmlns="http://www.w3.org/2000/svg">
<rect x="0.25" y="0.25" width="77.5" height="77.5" rx="9.75" stroke="#2D4941" stroke-width="0.5"/>
<mask id="path-2-inside-1_67_4423" fill="white">
<path d="M60.1377 47.8563C58.7449 47.8563 57.3521 47.8563 55.9593 47.8563C54.2303 47.8563 52.5494 47.8563 50.8204 47.8563C50.8204 45.3195 50.8204 42.7827 50.8204 40.2459C50.8204 40.0508 50.8204 39.8069 50.8204 39.6117C51.9731 39.6117 53.1257 39.6117 54.2784 39.6117C55.8152 39.6117 57.3521 39.6117 58.889 39.6117C59.3693 39.6117 59.5614 39.0263 59.2732 38.6848C58.0725 37.2213 56.8719 35.8066 55.6712 34.343C56.3916 34.343 57.112 34.343 57.8324 34.343C58.3127 34.343 58.5048 33.7576 58.2166 33.4161C56.7758 31.6599 55.2869 29.9037 53.8461 28.1474C54.8547 28.1474 55.8633 28.1474 56.8238 28.1474C57.3041 28.1474 57.4962 27.562 57.208 27.2205C55.7192 25.4155 54.2303 23.6105 52.6935 21.8055C53.1737 21.8055 53.606 21.8055 54.0863 21.8055C54.6146 21.8055 54.7586 21.2201 54.4705 20.8786C52.8856 18.9272 51.2526 16.9271 49.6677 14.9757C49.4276 14.683 49.2355 14.4391 48.9953 14.1464C48.8032 13.9512 48.419 13.9512 48.2269 14.1464C46.7381 15.9514 45.2972 17.7564 43.8084 19.5614C42.6077 18.0979 41.407 16.5856 40.2063 15.122C39.9662 14.7805 39.678 14.4878 39.4379 14.1464C39.2458 13.9512 38.8616 13.9512 38.6694 14.1464C37.2767 15.8538 35.8358 17.61 34.443 19.3175C33.0502 17.61 31.6094 15.8538 30.2166 14.1464C30.0245 13.9512 29.6403 13.9512 29.4482 14.1464C27.8633 16.0977 26.2303 18.0979 24.6454 20.0492C24.4053 20.342 24.2132 20.5859 23.973 20.8786C23.6849 21.2201 23.877 21.8055 24.3573 21.8055C24.8375 21.8055 25.2698 21.8055 25.7501 21.8055C24.4533 23.3666 23.2046 24.8789 21.9079 26.44C21.6677 26.6839 21.4756 26.9766 21.2355 27.2205C20.9473 27.562 21.1394 28.1474 21.6197 28.1474C22.6283 28.1474 23.6369 28.1474 24.5974 28.1474C23.3487 29.6597 22.1 31.1233 20.8513 32.6356C20.6111 32.8795 20.419 33.1722 20.1789 33.4161C19.8907 33.7576 20.0828 34.343 20.5631 34.343C21.2835 34.343 22.0039 34.343 22.7243 34.343C21.5236 35.8066 20.323 37.2213 19.1223 38.6848C18.8341 39.0263 19.0262 39.6117 19.5065 39.6117C22.196 39.6117 24.8856 39.6117 27.5751 39.6117C27.5751 42.1485 27.5751 44.6853 27.5751 47.2221C27.5751 47.4172 27.5751 47.6611 27.5751 47.8563C26.0863 47.8563 24.5494 47.8563 23.0605 47.8563C21.3796 47.8563 19.6506 47.8075 17.9696 47.8563C17.9216 47.8563 17.9216 47.8563 17.8736 47.8563C17.1531 47.8563 17.1531 48.9783 17.8736 48.9783C19.2664 48.9783 20.6592 48.9783 22.0519 48.9783C24.0691 48.9783 26.0863 48.9783 28.1034 48.9783C29.208 48.9783 30.3127 48.9783 31.3693 48.9783C31.6094 48.9783 31.8976 48.9783 32.1377 48.9783C33.8667 48.9783 35.5957 48.9783 37.3247 48.9783C38.4293 48.9783 39.5339 48.9783 40.5905 48.9783C41.8393 48.9783 43.088 48.9783 44.3367 48.9783C45.2012 48.9783 46.0176 48.9783 46.8821 48.9783C47.9868 48.9783 49.0914 48.9783 50.148 48.9783C51.7329 48.9783 53.2698 48.9783 54.8547 48.9783C56.5357 48.9783 58.2646 49.0271 59.9456 48.9783C59.9936 48.9783 59.9936 48.9783 60.0417 48.9783C60.8581 48.9783 60.8581 47.8563 60.1377 47.8563ZM49.7158 47.2221C49.7158 47.4172 49.7158 47.6611 49.7158 47.8563C48.9953 47.8563 48.2269 47.8563 47.5065 47.8563C47.5065 45.3195 47.5065 42.7827 47.5065 40.2459C47.5065 40.0508 47.5065 39.8069 47.5065 39.6117C48.0828 39.6117 48.7072 39.6117 49.2835 39.6117C49.4276 39.6117 49.5717 39.6117 49.7158 39.6117C49.7158 42.1485 49.7158 44.6853 49.7158 47.2221ZM40.1583 47.2221C40.1583 47.4172 40.1583 47.6611 40.1583 47.8563C39.4379 47.8563 38.6694 47.8563 37.949 47.8563C37.949 45.3195 37.949 42.7827 37.949 40.2459C37.949 40.0508 37.949 39.8069 37.949 39.6117C38.6694 39.6117 39.4379 39.6117 40.1583 39.6117C40.1583 42.1485 40.1583 44.6853 40.1583 47.2221ZM30.937 47.2221C30.937 47.4172 30.937 47.6611 30.937 47.8563C30.2166 47.8563 29.4482 47.8563 28.7278 47.8563C28.7278 45.3195 28.7278 42.7827 28.7278 40.2459C28.7278 40.0508 28.7278 39.8069 28.7278 39.6117C28.7758 39.6117 28.7758 39.6117 28.8238 39.6117C29.5442 39.6117 30.2166 39.6117 30.937 39.6117C30.937 42.1485 30.937 44.6853 30.937 47.2221ZM48.6111 15.366C50.052 17.1222 51.4928 18.9272 52.9336 20.6834C52.4533 20.6834 51.9731 20.6834 51.4928 20.6834C51.0125 20.6834 50.8204 21.2689 51.1086 21.6103C52.5974 23.4154 54.0863 25.2204 55.6231 27.0254C54.6146 27.0254 53.606 27.0254 52.6454 27.0254C52.1652 27.0254 51.9731 27.6108 52.2612 27.9523C53.702 29.7085 55.1909 31.4648 56.6317 33.221C55.9113 33.221 55.1909 33.221 54.4705 33.221C53.9902 33.221 53.7981 33.8064 54.0863 34.1479C55.2869 35.6114 56.4876 37.0262 57.6883 38.4897C55.2389 38.4897 52.7895 38.4897 50.3881 38.4897C50.3401 38.4897 50.3401 38.4897 50.2921 38.4897C50.052 38.4897 49.8118 38.4897 49.5717 38.4897C48.419 37.075 47.2664 35.709 46.1137 34.2943C46.8341 34.2943 47.5545 34.2943 48.2749 34.2943C48.7552 34.2943 48.9473 33.7088 48.6592 33.3674C47.2183 31.6111 45.7295 29.8549 44.2887 28.0987C44.3847 28.0987 44.5288 28.0987 44.6249 28.0987C45.4893 28.0987 46.4019 28.0987 47.2664 28.0987C47.7466 28.0987 47.9387 27.5132 47.6506 27.1718C46.1617 25.3667 44.6729 23.5617 43.136 21.7567C43.6163 21.7567 44.0485 21.7567 44.5288 21.7567C44.5768 21.7567 44.5768 21.7567 44.6249 21.7567C44.6729 21.7567 44.7209 21.7079 44.7689 21.7079C44.7689 21.7079 44.817 21.7079 44.817 21.6591L44.865 21.6103C44.865 21.6103 44.865 21.6103 44.913 21.5616C44.961 21.5128 44.961 21.5128 44.961 21.464C44.961 21.4152 45.0091 21.3664 45.0091 21.3176V21.2689V21.2201C45.0091 21.0737 44.961 20.9274 44.865 20.8298C44.7209 20.6834 44.6249 20.5371 44.4808 20.342C45.8736 18.6833 47.2664 17.0246 48.6111 15.366ZM39.0537 15.366C40.4945 17.1222 41.8873 18.8296 43.3281 20.5859C43.3761 20.6347 43.3761 20.6347 43.4242 20.6834C43.3281 20.6834 43.2801 20.6834 43.184 20.6834C42.7998 20.6834 42.4156 20.6834 42.0314 20.6834C41.5511 20.6834 41.359 21.2689 41.6472 21.6103C43.136 23.4154 44.6249 25.2204 46.1617 27.0254C45.1532 27.0254 44.1446 27.0254 43.184 27.0254C43.136 27.0254 43.136 27.0254 43.088 27.0254C42.9919 27.0254 42.8959 27.0742 42.7998 27.1718L42.7518 27.2205C42.7518 27.2205 42.7518 27.2693 42.7038 27.2693V27.3181C42.6557 27.4157 42.6557 27.5132 42.6557 27.6108C42.6557 27.6108 42.6557 27.6108 42.6557 27.6596C42.6557 27.7572 42.7038 27.8547 42.7998 27.9523C44.2406 29.7085 45.7295 31.4648 47.1703 33.221C46.4979 33.221 45.8255 33.221 45.1532 33.221C45.0571 33.1722 44.913 33.221 44.817 33.2698C44.3367 33.4161 44.2887 33.904 44.5288 34.1967C45.7295 35.6602 46.9302 37.075 48.1309 38.5385C47.7466 38.5385 47.3624 38.5385 46.9782 38.5385C45.4413 38.5385 43.9044 38.5385 42.3676 38.5385C41.8393 38.5385 41.2629 38.5385 40.7346 38.5385C39.63 38.5385 38.5254 38.5385 37.4688 38.5385C35.5477 38.5385 33.6266 38.5385 31.7055 38.5385C31.6574 38.5385 31.6094 38.5385 31.5614 38.5385C31.0811 38.5385 30.5528 38.5385 30.0725 38.5385C31.2732 37.075 32.4739 35.6602 33.6746 34.1967C33.9628 33.8552 33.7706 33.2698 33.2904 33.2698C32.57 33.2698 31.8495 33.2698 31.1291 33.2698C32.3298 31.8063 33.5305 30.3427 34.7312 28.928C34.7792 28.8304 34.8753 28.7816 34.9233 28.6841L34.9713 28.6353C35.1634 28.4401 35.3075 28.1962 35.4996 28.0011C35.5477 27.9035 35.5957 27.8059 35.6437 27.7084V27.6596C35.6437 27.6108 35.6437 27.562 35.6437 27.5132C35.6437 27.4645 35.6437 27.4157 35.5957 27.3669V27.3181C35.5477 27.1718 35.4036 27.0742 35.2595 27.0742C35.2115 27.0742 35.2115 27.0742 35.1634 27.0742C34.1549 27.0742 33.1463 27.0742 32.1857 27.0742C33.4825 25.5131 34.7312 24.0008 36.0279 22.4397C36.2681 22.1958 36.4602 21.9031 36.7003 21.6591C36.9885 21.3176 36.7964 20.7322 36.3161 20.7322C36.0279 20.7322 35.7878 20.7322 35.4996 20.7322C35.3075 20.7322 35.1154 20.7322 34.9233 20.7322C36.22 19.1223 37.5648 17.5125 38.8616 15.9026C38.7655 15.6587 38.9096 15.5123 39.0537 15.366ZM20.7552 38.5385C21.9559 37.075 23.1566 35.6602 24.3573 34.1967C24.6454 33.8552 24.4533 33.2698 23.973 33.2698C23.2526 33.2698 22.5322 33.2698 21.8118 33.2698C23.0605 31.7575 24.3092 30.2939 25.558 28.7816C25.7981 28.5377 25.9902 28.245 26.2303 28.0011C26.5185 27.6596 26.3264 27.0742 25.8461 27.0742C24.8375 27.0742 23.829 27.0742 22.8684 27.0742C24.1652 25.5131 25.4139 24.0008 26.7106 22.4397C26.9507 22.1958 27.1429 21.9031 27.383 21.6591C27.6712 21.3176 27.4791 20.7322 26.9988 20.7322C26.5185 20.7322 26.0382 20.7322 25.558 20.7322C26.9027 19.0736 28.2475 17.4149 29.5923 15.805C29.6883 15.7074 29.7844 15.5611 29.8804 15.4635C31.1772 17.0734 32.4739 18.6345 33.7706 20.2444C33.5785 20.4883 33.3864 20.6834 33.1943 20.9274C33.0983 21.0249 33.0502 21.2201 33.0502 21.3664V21.4152C33.0502 21.4152 33.0502 21.4152 33.0502 21.464V21.5128V21.5616C33.0502 21.5616 33.0502 21.6103 33.0983 21.6103C33.1463 21.7079 33.2904 21.8055 33.4345 21.8055C33.4825 21.8055 33.4825 21.8055 33.5305 21.8055C34.0108 21.8055 34.443 21.8055 34.9233 21.8055C33.6266 23.3666 32.3779 24.8789 31.0811 26.44C30.841 26.6839 30.6489 26.9766 30.4087 27.2205C30.1206 27.562 30.3127 28.1474 30.7929 28.1474C31.7055 28.1474 32.618 28.1474 33.5305 28.1474C33.5785 28.1962 33.6266 28.245 33.6266 28.2938C32.4259 29.7085 31.2732 31.1233 30.0725 32.5868C29.8324 32.8795 29.5923 33.1722 29.3521 33.4649C29.064 33.8064 29.2561 34.3918 29.7363 34.3918C30.4568 34.3918 31.1772 34.3918 31.8976 34.3918C30.7449 35.8066 29.5923 37.1725 28.4396 38.5873C28.2955 38.5873 28.1995 38.5873 28.0554 38.5873C26.7586 38.5873 25.4139 38.5873 24.1171 38.5873C23.1086 38.5385 21.9559 38.5385 20.7552 38.5385ZM32.0417 47.8563C32.0417 45.3195 32.0417 42.7827 32.0417 40.2459C32.0417 40.0508 32.0417 39.8069 32.0417 39.6117C33.2904 39.6117 34.5391 39.6117 35.7878 39.6117C36.172 39.6117 36.5082 39.6117 36.8924 39.6117C36.8924 42.1485 36.8924 44.6853 36.8924 47.2221C36.8924 47.4172 36.8924 47.6611 36.8924 47.8563C35.8358 47.8563 34.7792 47.8563 33.7226 47.8563C33.1463 47.8563 32.57 47.8563 32.0417 47.8563ZM41.2629 47.8563C41.2629 45.3195 41.2629 42.7827 41.2629 40.2459C41.2629 40.0508 41.2629 39.8069 41.2629 39.6117C42.9919 39.6117 44.7209 39.6117 46.4499 39.6117C46.4499 42.1485 46.4499 44.6853 46.4499 47.2221C46.4499 47.4172 46.4499 47.6611 46.4499 47.8563C46.2578 47.8563 46.0657 47.8563 45.8736 47.8563C44.3367 47.8563 42.7998 47.8563 41.2629 47.8563Z"/>
</mask>
<path d="M60.1377 47.8563C58.7449 47.8563 57.3521 47.8563 55.9593 47.8563C54.2303 47.8563 52.5494 47.8563 50.8204 47.8563C50.8204 45.3195 50.8204 42.7827 50.8204 40.2459C50.8204 40.0508 50.8204 39.8069 50.8204 39.6117C51.9731 39.6117 53.1257 39.6117 54.2784 39.6117C55.8152 39.6117 57.3521 39.6117 58.889 39.6117C59.3693 39.6117 59.5614 39.0263 59.2732 38.6848C58.0725 37.2213 56.8719 35.8066 55.6712 34.343C56.3916 34.343 57.112 34.343 57.8324 34.343C58.3127 34.343 58.5048 33.7576 58.2166 33.4161C56.7758 31.6599 55.2869 29.9037 53.8461 28.1474C54.8547 28.1474 55.8633 28.1474 56.8238 28.1474C57.3041 28.1474 57.4962 27.562 57.208 27.2205C55.7192 25.4155 54.2303 23.6105 52.6935 21.8055C53.1737 21.8055 53.606 21.8055 54.0863 21.8055C54.6146 21.8055 54.7586 21.2201 54.4705 20.8786C52.8856 18.9272 51.2526 16.9271 49.6677 14.9757C49.4276 14.683 49.2355 14.4391 48.9953 14.1464C48.8032 13.9512 48.419 13.9512 48.2269 14.1464C46.7381 15.9514 45.2972 17.7564 43.8084 19.5614C42.6077 18.0979 41.407 16.5856 40.2063 15.122C39.9662 14.7805 39.678 14.4878 39.4379 14.1464C39.2458 13.9512 38.8616 13.9512 38.6694 14.1464C37.2767 15.8538 35.8358 17.61 34.443 19.3175C33.0502 17.61 31.6094 15.8538 30.2166 14.1464C30.0245 13.9512 29.6403 13.9512 29.4482 14.1464C27.8633 16.0977 26.2303 18.0979 24.6454 20.0492C24.4053 20.342 24.2132 20.5859 23.973 20.8786C23.6849 21.2201 23.877 21.8055 24.3573 21.8055C24.8375 21.8055 25.2698 21.8055 25.7501 21.8055C24.4533 23.3666 23.2046 24.8789 21.9079 26.44C21.6677 26.6839 21.4756 26.9766 21.2355 27.2205C20.9473 27.562 21.1394 28.1474 21.6197 28.1474C22.6283 28.1474 23.6369 28.1474 24.5974 28.1474C23.3487 29.6597 22.1 31.1233 20.8513 32.6356C20.6111 32.8795 20.419 33.1722 20.1789 33.4161C19.8907 33.7576 20.0828 34.343 20.5631 34.343C21.2835 34.343 22.0039 34.343 22.7243 34.343C21.5236 35.8066 20.323 37.2213 19.1223 38.6848C18.8341 39.0263 19.0262 39.6117 19.5065 39.6117C22.196 39.6117 24.8856 39.6117 27.5751 39.6117C27.5751 42.1485 27.5751 44.6853 27.5751 47.2221C27.5751 47.4172 27.5751 47.6611 27.5751 47.8563C26.0863 47.8563 24.5494 47.8563 23.0605 47.8563C21.3796 47.8563 19.6506 47.8075 17.9696 47.8563C17.9216 47.8563 17.9216 47.8563 17.8736 47.8563C17.1531 47.8563 17.1531 48.9783 17.8736 48.9783C19.2664 48.9783 20.6592 48.9783 22.0519 48.9783C24.0691 48.9783 26.0863 48.9783 28.1034 48.9783C29.208 48.9783 30.3127 48.9783 31.3693 48.9783C31.6094 48.9783 31.8976 48.9783 32.1377 48.9783C33.8667 48.9783 35.5957 48.9783 37.3247 48.9783C38.4293 48.9783 39.5339 48.9783 40.5905 48.9783C41.8393 48.9783 43.088 48.9783 44.3367 48.9783C45.2012 48.9783 46.0176 48.9783 46.8821 48.9783C47.9868 48.9783 49.0914 48.9783 50.148 48.9783C51.7329 48.9783 53.2698 48.9783 54.8547 48.9783C56.5357 48.9783 58.2646 49.0271 59.9456 48.9783C59.9936 48.9783 59.9936 48.9783 60.0417 48.9783C60.8581 48.9783 60.8581 47.8563 60.1377 47.8563ZM49.7158 47.2221C49.7158 47.4172 49.7158 47.6611 49.7158 47.8563C48.9953 47.8563 48.2269 47.8563 47.5065 47.8563C47.5065 45.3195 47.5065 42.7827 47.5065 40.2459C47.5065 40.0508 47.5065 39.8069 47.5065 39.6117C48.0828 39.6117 48.7072 39.6117 49.2835 39.6117C49.4276 39.6117 49.5717 39.6117 49.7158 39.6117C49.7158 42.1485 49.7158 44.6853 49.7158 47.2221ZM40.1583 47.2221C40.1583 47.4172 40.1583 47.6611 40.1583 47.8563C39.4379 47.8563 38.6694 47.8563 37.949 47.8563C37.949 45.3195 37.949 42.7827 37.949 40.2459C37.949 40.0508 37.949 39.8069 37.949 39.6117C38.6694 39.6117 39.4379 39.6117 40.1583 39.6117C40.1583 42.1485 40.1583 44.6853 40.1583 47.2221ZM30.937 47.2221C30.937 47.4172 30.937 47.6611 30.937 47.8563C30.2166 47.8563 29.4482 47.8563 28.7278 47.8563C28.7278 45.3195 28.7278 42.7827 28.7278 40.2459C28.7278 40.0508 28.7278 39.8069 28.7278 39.6117C28.7758 39.6117 28.7758 39.6117 28.8238 39.6117C29.5442 39.6117 30.2166 39.6117 30.937 39.6117C30.937 42.1485 30.937 44.6853 30.937 47.2221ZM48.6111 15.366C50.052 17.1222 51.4928 18.9272 52.9336 20.6834C52.4533 20.6834 51.9731 20.6834 51.4928 20.6834C51.0125 20.6834 50.8204 21.2689 51.1086 21.6103C52.5974 23.4154 54.0863 25.2204 55.6231 27.0254C54.6146 27.0254 53.606 27.0254 52.6454 27.0254C52.1652 27.0254 51.9731 27.6108 52.2612 27.9523C53.702 29.7085 55.1909 31.4648 56.6317 33.221C55.9113 33.221 55.1909 33.221 54.4705 33.221C53.9902 33.221 53.7981 33.8064 54.0863 34.1479C55.2869 35.6114 56.4876 37.0262 57.6883 38.4897C55.2389 38.4897 52.7895 38.4897 50.3881 38.4897C50.3401 38.4897 50.3401 38.4897 50.2921 38.4897C50.052 38.4897 49.8118 38.4897 49.5717 38.4897C48.419 37.075 47.2664 35.709 46.1137 34.2943C46.8341 34.2943 47.5545 34.2943 48.2749 34.2943C48.7552 34.2943 48.9473 33.7088 48.6592 33.3674C47.2183 31.6111 45.7295 29.8549 44.2887 28.0987C44.3847 28.0987 44.5288 28.0987 44.6249 28.0987C45.4893 28.0987 46.4019 28.0987 47.2664 28.0987C47.7466 28.0987 47.9387 27.5132 47.6506 27.1718C46.1617 25.3667 44.6729 23.5617 43.136 21.7567C43.6163 21.7567 44.0485 21.7567 44.5288 21.7567C44.5768 21.7567 44.5768 21.7567 44.6249 21.7567C44.6729 21.7567 44.7209 21.7079 44.7689 21.7079C44.7689 21.7079 44.817 21.7079 44.817 21.6591L44.865 21.6103C44.865 21.6103 44.865 21.6103 44.913 21.5616C44.961 21.5128 44.961 21.5128 44.961 21.464C44.961 21.4152 45.0091 21.3664 45.0091 21.3176V21.2689V21.2201C45.0091 21.0737 44.961 20.9274 44.865 20.8298C44.7209 20.6834 44.6249 20.5371 44.4808 20.342C45.8736 18.6833 47.2664 17.0246 48.6111 15.366ZM39.0537 15.366C40.4945 17.1222 41.8873 18.8296 43.3281 20.5859C43.3761 20.6347 43.3761 20.6347 43.4242 20.6834C43.3281 20.6834 43.2801 20.6834 43.184 20.6834C42.7998 20.6834 42.4156 20.6834 42.0314 20.6834C41.5511 20.6834 41.359 21.2689 41.6472 21.6103C43.136 23.4154 44.6249 25.2204 46.1617 27.0254C45.1532 27.0254 44.1446 27.0254 43.184 27.0254C43.136 27.0254 43.136 27.0254 43.088 27.0254C42.9919 27.0254 42.8959 27.0742 42.7998 27.1718L42.7518 27.2205C42.7518 27.2205 42.7518 27.2693 42.7038 27.2693V27.3181C42.6557 27.4157 42.6557 27.5132 42.6557 27.6108C42.6557 27.6108 42.6557 27.6108 42.6557 27.6596C42.6557 27.7572 42.7038 27.8547 42.7998 27.9523C44.2406 29.7085 45.7295 31.4648 47.1703 33.221C46.4979 33.221 45.8255 33.221 45.1532 33.221C45.0571 33.1722 44.913 33.221 44.817 33.2698C44.3367 33.4161 44.2887 33.904 44.5288 34.1967C45.7295 35.6602 46.9302 37.075 48.1309 38.5385C47.7466 38.5385 47.3624 38.5385 46.9782 38.5385C45.4413 38.5385 43.9044 38.5385 42.3676 38.5385C41.8393 38.5385 41.2629 38.5385 40.7346 38.5385C39.63 38.5385 38.5254 38.5385 37.4688 38.5385C35.5477 38.5385 33.6266 38.5385 31.7055 38.5385C31.6574 38.5385 31.6094 38.5385 31.5614 38.5385C31.0811 38.5385 30.5528 38.5385 30.0725 38.5385C31.2732 37.075 32.4739 35.6602 33.6746 34.1967C33.9628 33.8552 33.7706 33.2698 33.2904 33.2698C32.57 33.2698 31.8495 33.2698 31.1291 33.2698C32.3298 31.8063 33.5305 30.3427 34.7312 28.928C34.7792 28.8304 34.8753 28.7816 34.9233 28.6841L34.9713 28.6353C35.1634 28.4401 35.3075 28.1962 35.4996 28.0011C35.5477 27.9035 35.5957 27.8059 35.6437 27.7084V27.6596C35.6437 27.6108 35.6437 27.562 35.6437 27.5132C35.6437 27.4645 35.6437 27.4157 35.5957 27.3669V27.3181C35.5477 27.1718 35.4036 27.0742 35.2595 27.0742C35.2115 27.0742 35.2115 27.0742 35.1634 27.0742C34.1549 27.0742 33.1463 27.0742 32.1857 27.0742C33.4825 25.5131 34.7312 24.0008 36.0279 22.4397C36.2681 22.1958 36.4602 21.9031 36.7003 21.6591C36.9885 21.3176 36.7964 20.7322 36.3161 20.7322C36.0279 20.7322 35.7878 20.7322 35.4996 20.7322C35.3075 20.7322 35.1154 20.7322 34.9233 20.7322C36.22 19.1223 37.5648 17.5125 38.8616 15.9026C38.7655 15.6587 38.9096 15.5123 39.0537 15.366ZM20.7552 38.5385C21.9559 37.075 23.1566 35.6602 24.3573 34.1967C24.6454 33.8552 24.4533 33.2698 23.973 33.2698C23.2526 33.2698 22.5322 33.2698 21.8118 33.2698C23.0605 31.7575 24.3092 30.2939 25.558 28.7816C25.7981 28.5377 25.9902 28.245 26.2303 28.0011C26.5185 27.6596 26.3264 27.0742 25.8461 27.0742C24.8375 27.0742 23.829 27.0742 22.8684 27.0742C24.1652 25.5131 25.4139 24.0008 26.7106 22.4397C26.9507 22.1958 27.1429 21.9031 27.383 21.6591C27.6712 21.3176 27.4791 20.7322 26.9988 20.7322C26.5185 20.7322 26.0382 20.7322 25.558 20.7322C26.9027 19.0736 28.2475 17.4149 29.5923 15.805C29.6883 15.7074 29.7844 15.5611 29.8804 15.4635C31.1772 17.0734 32.4739 18.6345 33.7706 20.2444C33.5785 20.4883 33.3864 20.6834 33.1943 20.9274C33.0983 21.0249 33.0502 21.2201 33.0502 21.3664V21.4152C33.0502 21.4152 33.0502 21.4152 33.0502 21.464V21.5128V21.5616C33.0502 21.5616 33.0502 21.6103 33.0983 21.6103C33.1463 21.7079 33.2904 21.8055 33.4345 21.8055C33.4825 21.8055 33.4825 21.8055 33.5305 21.8055C34.0108 21.8055 34.443 21.8055 34.9233 21.8055C33.6266 23.3666 32.3779 24.8789 31.0811 26.44C30.841 26.6839 30.6489 26.9766 30.4087 27.2205C30.1206 27.562 30.3127 28.1474 30.7929 28.1474C31.7055 28.1474 32.618 28.1474 33.5305 28.1474C33.5785 28.1962 33.6266 28.245 33.6266 28.2938C32.4259 29.7085 31.2732 31.1233 30.0725 32.5868C29.8324 32.8795 29.5923 33.1722 29.3521 33.4649C29.064 33.8064 29.2561 34.3918 29.7363 34.3918C30.4568 34.3918 31.1772 34.3918 31.8976 34.3918C30.7449 35.8066 29.5923 37.1725 28.4396 38.5873C28.2955 38.5873 28.1995 38.5873 28.0554 38.5873C26.7586 38.5873 25.4139 38.5873 24.1171 38.5873C23.1086 38.5385 21.9559 38.5385 20.7552 38.5385ZM32.0417 47.8563C32.0417 45.3195 32.0417 42.7827 32.0417 40.2459C32.0417 40.0508 32.0417 39.8069 32.0417 39.6117C33.2904 39.6117 34.5391 39.6117 35.7878 39.6117C36.172 39.6117 36.5082 39.6117 36.8924 39.6117C36.8924 42.1485 36.8924 44.6853 36.8924 47.2221C36.8924 47.4172 36.8924 47.6611 36.8924 47.8563C35.8358 47.8563 34.7792 47.8563 33.7226 47.8563C33.1463 47.8563 32.57 47.8563 32.0417 47.8563ZM41.2629 47.8563C41.2629 45.3195 41.2629 42.7827 41.2629 40.2459C41.2629 40.0508 41.2629 39.8069 41.2629 39.6117C42.9919 39.6117 44.7209 39.6117 46.4499 39.6117C46.4499 42.1485 46.4499 44.6853 46.4499 47.2221C46.4499 47.4172 46.4499 47.6611 46.4499 47.8563C46.2578 47.8563 46.0657 47.8563 45.8736 47.8563C44.3367 47.8563 42.7998 47.8563 41.2629 47.8563Z" fill="#2D4941" stroke="#2D4941" stroke-width="0.4" mask="url(#path-2-inside-1_67_4423)"/>
<path d="M30.4256 56.333V57.147H27.0926V59.732H29.7986V60.546H27.0926V64H26.0916V56.333H30.4256ZM34.2636 64.099C33.6989 64.099 33.1856 63.9707 32.7236 63.714C32.2689 63.4573 31.9096 63.0943 31.6456 62.625C31.3889 62.1483 31.2606 61.5983 31.2606 60.975C31.2606 60.359 31.3926 59.8163 31.6566 59.347C31.9279 58.8703 32.2946 58.5073 32.7566 58.258C33.2186 58.0013 33.7356 57.873 34.3076 57.873C34.8796 57.873 35.3966 58.0013 35.8586 58.258C36.3206 58.5073 36.6836 58.8667 36.9476 59.336C37.2189 59.8053 37.3546 60.3517 37.3546 60.975C37.3546 61.5983 37.2153 62.1483 36.9366 62.625C36.6653 63.0943 36.2949 63.4573 35.8256 63.714C35.3563 63.9707 34.8356 64.099 34.2636 64.099ZM34.2636 63.219C34.6229 63.219 34.9603 63.1347 35.2756 62.966C35.5909 62.7973 35.8439 62.5443 36.0346 62.207C36.2326 61.8697 36.3316 61.459 36.3316 60.975C36.3316 60.491 36.2363 60.0803 36.0456 59.743C35.8549 59.4057 35.6056 59.1563 35.2976 58.995C34.9896 58.8263 34.6559 58.742 34.2966 58.742C33.9299 58.742 33.5926 58.8263 33.2846 58.995C32.9839 59.1563 32.7419 59.4057 32.5586 59.743C32.3753 60.0803 32.2836 60.491 32.2836 60.975C32.2836 61.4663 32.3716 61.8807 32.5476 62.218C32.7309 62.5553 32.9729 62.8083 33.2736 62.977C33.5743 63.1383 33.9043 63.219 34.2636 63.219ZM39.6717 58.951C39.8477 58.6063 40.0971 58.3387 40.4197 58.148C40.7497 57.9573 41.1494 57.862 41.6187 57.862V58.896H41.3547C40.2327 58.896 39.6717 59.5047 39.6717 60.722V64H38.6707V57.972H39.6717V58.951ZM48.2742 60.755C48.2742 60.9457 48.2632 61.1473 48.2412 61.36H43.4232C43.4599 61.954 43.6616 62.4197 44.0282 62.757C44.4022 63.087 44.8532 63.252 45.3812 63.252C45.8139 63.252 46.1732 63.153 46.4592 62.955C46.7526 62.7497 46.9579 62.4783 47.0752 62.141H48.1532C47.9919 62.7203 47.6692 63.1933 47.1852 63.56C46.7012 63.9193 46.0999 64.099 45.3812 64.099C44.8092 64.099 44.2959 63.9707 43.8412 63.714C43.3939 63.4573 43.0419 63.0943 42.7852 62.625C42.5286 62.1483 42.4002 61.5983 42.4002 60.975C42.4002 60.3517 42.5249 59.8053 42.7742 59.336C43.0236 58.8667 43.3719 58.5073 43.8192 58.258C44.2739 58.0013 44.7946 57.873 45.3812 57.873C45.9532 57.873 46.4592 57.9977 46.8992 58.247C47.3392 58.4963 47.6766 58.841 47.9112 59.281C48.1532 59.7137 48.2742 60.205 48.2742 60.755ZM47.2402 60.546C47.2402 60.1647 47.1559 59.8383 46.9872 59.567C46.8186 59.2883 46.5876 59.0793 46.2942 58.94C46.0082 58.7933 45.6892 58.72 45.3372 58.72C44.8312 58.72 44.3986 58.8813 44.0392 59.204C43.6872 59.5267 43.4856 59.974 43.4342 60.546H47.2402ZM45.3482 56.498L43.8192 57.433V56.641L45.3482 55.728L46.8662 56.641V57.433L45.3482 56.498ZM50.8165 58.797V62.35C50.8165 62.6433 50.8789 62.8523 51.0035 62.977C51.1282 63.0943 51.3445 63.153 51.6525 63.153H52.3895V64H51.4875C50.9302 64 50.5122 63.8717 50.2335 63.615C49.9549 63.3583 49.8155 62.9367 49.8155 62.35V58.797H49.0345V57.972H49.8155V56.454H50.8165V57.972H52.3895V58.797H50.8165Z" fill="#2D4941"/>
</svg>
