<svg width="77" height="128" viewBox="0 0 77 128" fill="none" xmlns="http://www.w3.org/2000/svg">
<rect width="77" height="128" rx="10" fill="#F5EFE7"/>
<rect x="0.25" y="0.25" width="76.5" height="127.5" rx="9.75" stroke="#2D4941" stroke-width="0.5"/>
<g clip-path="url(#clip0_58_3523)">
<path d="M44.0182 36.3079L44.0659 36.3238L43.9665 36.1125C43.7642 35.6824 43.7684 35.0346 43.9071 34.193C44.0444 33.3603 44.3087 32.3616 44.6062 31.2377L44.6105 31.2212C45.0166 29.693 45.4779 27.954 45.7541 26.1098L45.7542 26.1097C46.116 23.6837 46.2147 21.0239 46.0314 18.908C45.9398 17.8505 45.7774 16.9241 45.5398 16.2292C45.421 15.8818 45.2821 15.5882 45.1209 15.3642C44.9598 15.1405 44.772 14.9801 44.554 14.9113L44.554 14.9113L44.5514 14.9106L44.5279 14.9039L44.5145 14.9H44.5004H44.4769V14.8998L44.4707 14.9002C44.0446 14.9267 43.6323 15.1668 43.2361 15.5614C42.8392 15.9568 42.4493 16.5161 42.0675 17.2018C41.3036 18.5733 40.5618 20.4683 39.8567 22.6172C38.446 26.9161 37.1753 32.252 36.1651 36.4981L44.0182 36.3079ZM44.0182 36.3079C44.1635 36.7501 44.3322 37.0237 44.5149 37.3187L44.5151 37.3189C44.7434 37.6896 44.9904 38.0915 45.2102 38.8349C45.4292 39.5753 45.6204 40.6517 45.7449 42.374L45.7458 42.3866L45.745 42.3865C45.6578 44.0296 45.5738 45.6189 45.4933 47.1578L45.4933 47.158C45.2533 51.7757 45.0383 55.9114 44.7242 59.4199C44.4103 62.9272 43.9967 65.8145 43.3574 67.9332L43.3561 67.9377L43.356 67.9377C42.1937 71.2285 40.3373 73.2029 38.8065 74.3456M44.0182 36.3079L38.8065 74.3456M31.7047 69.3858C31.7209 69.3278 31.7617 69.2807 31.8088 69.2522C31.8566 69.2234 31.9229 69.2071 31.9899 69.2318L31.9909 69.2322C32.154 69.2944 32.3094 69.3686 32.4576 69.4533C31.506 67.5946 30.6332 64.1498 30.939 57.7757C31.2127 52.0496 31.7975 48.6049 32.4503 46.4171C33.1046 44.2245 33.8271 43.2953 34.3673 42.602C34.461 42.4815 34.5475 42.3683 34.6271 42.2588C34.6516 42.2245 34.685 42.1578 34.7263 42.053C34.7668 41.9502 34.8123 41.8177 34.8626 41.6573C34.963 41.3368 35.0807 40.9102 35.2134 40.3985C35.4727 39.3985 35.7877 38.0788 36.1404 36.6015L36.1651 36.4981L31.853 69.6612C31.7541 69.6244 31.6667 69.5192 31.7047 69.3858ZM31.7047 69.3858C31.7047 69.3857 31.7047 69.3857 31.7047 69.3856L31.8009 69.413L31.7045 69.3863C31.7046 69.3861 31.7046 69.386 31.7047 69.3858ZM33.1887 70.6993C32.8614 70.2293 32.3881 69.8626 31.8536 69.6614L33.1887 70.6993ZM33.1887 70.6993C33.2337 70.7661 33.2999 70.7958 33.3639 70.7993C33.4333 70.8745 33.501 70.9429 33.5666 71.0049C33.4961 70.9513 33.4238 70.9001 33.3498 70.8516M33.1887 70.6993L31.4398 70.6417C31.2952 70.6294 31.2276 70.5074 31.2276 70.4059C31.2276 70.3544 31.2439 70.298 31.2841 70.2542C31.3267 70.2078 31.388 70.1846 31.4567 70.1904L31.4571 70.1904C32.1314 70.2489 32.7852 70.4762 33.3498 70.8516M33.3498 70.8516C33.3499 70.8517 33.35 70.8518 33.3501 70.8519L33.2948 70.9352L33.3495 70.8515C33.3496 70.8515 33.3497 70.8516 33.3498 70.8516ZM33.5579 71.5895C33.3986 71.4397 33.2238 71.3058 33.0366 71.1877L33.0361 71.1874C32.556 70.8801 32.0076 70.6907 31.4401 70.6417L33.5579 71.5895ZM33.5579 71.5895C33.2801 71.5104 32.982 71.507 32.703 71.5774L32.7027 71.5775C32.6359 71.5945 32.586 71.6359 32.5592 71.6913C32.5336 71.744 32.5324 71.8023 32.5463 71.8523C32.5602 71.9024 32.5911 71.9513 32.6392 71.9839C32.6894 72.018 32.7527 72.0302 32.8193 72.0132L32.7946 71.9163L33.5579 71.5895ZM37.6723 94.7782L37.717 94.8677C37.7171 94.8676 37.7172 94.8676 37.7172 94.8676C37.7173 94.8675 37.7174 94.8675 37.7175 94.8674L37.6723 94.7782ZM37.6723 94.7782C37.3802 94.9261 37.1251 95 36.8901 95C36.5343 95 36.2288 94.8253 35.9065 94.4691L37.3668 88.3235C37.8838 93.5048 37.9677 94.6304 37.6723 94.7782ZM39.1326 74.6648L39.2287 74.6923C39.2288 74.6922 39.2288 74.6921 39.2288 74.692C39.2289 74.6919 39.2289 74.6917 39.2289 74.6916L39.1326 74.6648ZM39.1326 74.6648C39.1158 74.7253 39.0419 74.7757 38.9782 74.7522L38.8065 74.3456M39.1326 74.6648C39.1527 74.5943 39.1091 74.5338 39.0453 74.5103M39.0453 74.5103L39.0802 74.4166C39.0801 74.4165 39.08 74.4165 39.0799 74.4164L39.0453 74.5103ZM39.0453 74.5103C38.9295 74.4671 38.809 74.4408 38.6871 74.4335C38.7267 74.4048 38.7665 74.3754 38.8065 74.3456M37.9845 74.7858C38.0214 74.8194 38.0718 74.8362 38.1288 74.806C38.1393 74.8002 38.1497 74.7947 38.1603 74.7893L38.1745 74.8949C38.1278 74.8839 38.0806 74.8752 38.033 74.8689L37.9845 74.7858ZM37.9845 74.7858C37.9442 74.8093 37.9039 74.8328 37.867 74.8564C37.8842 74.8567 37.9014 74.8573 37.9186 74.8582L37.9845 74.7858ZM44.0098 16.5415L43.9772 16.6355C43.9486 16.7182 43.9191 16.8016 43.8898 16.8847C43.8604 16.9679 43.8311 17.0508 43.8027 17.1328C40.774 25.9082 36.456 44.6539 36.0065 60.1992C35.8702 65.3079 36.0533 70.4932 36.3536 75.2298C37.3777 74.8343 41.0709 73.0751 42.935 67.7926C43.5626 65.7115 43.9722 62.8548 44.2846 59.3613C44.596 55.879 44.8104 51.771 45.0495 47.1783L45.0462 47.175L45.0485 47.1307C45.1256 45.5937 45.2094 44.0063 45.2999 42.3821C45.1776 40.7094 44.9931 39.6774 44.7868 38.9772C44.5818 38.2814 44.3546 37.9107 44.1387 37.5582L44.1365 37.5547L44.1364 37.5544L44.1221 37.5309C43.9125 37.1869 43.708 36.8513 43.5437 36.2741C43.3017 35.7544 43.3127 35.0297 43.4517 34.1655C43.5912 33.2974 43.8643 32.2657 44.1675 31.1201L44.1721 31.1028L44.1722 31.1026C44.5785 29.5801 45.0336 27.8581 45.3046 26.0432C45.6795 23.532 45.7513 20.9501 45.5774 18.9429C45.4905 17.9388 45.3424 17.0826 45.142 16.4524C45.0418 16.1372 44.9296 15.8823 44.8081 15.6947C44.6924 15.5161 44.5735 15.4066 44.4561 15.3572C44.1315 15.3927 43.7899 15.6042 43.4342 15.9875C43.0715 16.3783 42.705 16.9361 42.3382 17.6298C41.6048 19.0165 40.8797 20.9282 40.1862 23.0835C38.8009 27.3885 37.5475 32.6467 36.6076 36.5893L36.6047 36.6015L44.0098 16.5415ZM44.0098 16.5415L43.916 16.5084M44.0098 16.5415L43.916 16.5084M43.916 16.5084L43.6776 16.4244L43.5834 16.3912M43.916 16.5084L43.5834 16.3912M43.5834 16.3912L43.5501 16.4854M43.5834 16.3912L43.5501 16.4854M43.5501 16.4854C43.5195 16.5721 43.4885 16.6605 43.4571 16.7503C43.4303 16.8269 43.4031 16.9045 43.3755 16.9828L43.3754 16.9832M43.5501 16.4854L43.3754 16.9832M43.3754 16.9832C34.9382 41.2142 34.1195 59.3417 34.2865 70.9897M43.3754 16.9832L34.2865 70.9897M34.2865 70.9897C33.4161 70.3999 30.9127 67.8194 31.3905 57.7987C31.6622 52.1206 32.2374 48.7233 32.8732 46.5795C33.507 44.443 34.2011 43.5506 34.7215 42.8817L34.723 42.8797C34.723 42.8797 34.723 42.8797 34.723 42.8797C34.7333 42.8666 34.7435 42.8535 34.7537 42.8406C34.8391 42.7317 34.9207 42.6276 34.9942 42.5233M34.2865 70.9897L36.6047 36.6016C36.212 38.2543 35.8853 39.6273 35.6205 40.6371C35.4882 41.1419 35.371 41.5575 35.2684 41.8726C35.1676 42.1823 35.0769 42.4085 34.9942 42.5233M34.9942 42.5233C34.9941 42.5235 34.994 42.5236 34.9939 42.5238L34.9128 42.4652L34.9946 42.5229C34.9944 42.523 34.9943 42.5232 34.9942 42.5233ZM34.1076 71.5032C34.0332 71.4208 33.9554 71.3414 33.8744 71.2653C34.0444 71.3925 34.1875 71.4717 34.2902 71.5188C34.2915 71.5912 34.2931 71.6638 34.2947 71.7362C34.2364 71.6551 34.1732 71.5779 34.1084 71.5042L34.1076 71.5032ZM36.7901 94.6378C36.5985 94.6079 36.4162 94.4971 36.21 94.2798C35.7477 92.1105 35.5636 88.6875 35.3303 84.3516L35.3283 84.313C35.2343 82.5356 35.1335 80.6974 35.0059 78.7313C34.865 76.1252 34.7778 73.7175 34.7409 71.367L34.7409 71.367C34.5925 62.258 35.0181 49.0666 39.3303 31.984C37.429 40.6976 35.8166 51.0002 35.5514 60.1901L35.5514 60.1903C35.4103 65.5189 35.6118 70.9273 35.9341 75.8206V75.8207V75.8207V75.8208V75.8208V75.8208V75.8209V75.8209V75.821V75.821V75.8211V75.8211V75.8212V75.8212V75.8212V75.8213V75.8213V75.8214V75.8214V75.8215V75.8215V75.8216V75.8216V75.8217V75.8217V75.8217V75.8218V75.8218V75.8219V75.8219V75.822V75.822V75.8221V75.8221V75.8222V75.8222V75.8223V75.8223V75.8223V75.8224V75.8224V75.8225V75.8225V75.8226V75.8226V75.8227V75.8227V75.8228V75.8228V75.8229V75.8229V75.8229V75.823V75.823V75.8231V75.8231V75.8232V75.8232V75.8233V75.8233V75.8234V75.8234V75.8235V75.8235V75.8236V75.8236V75.8237V75.8237V75.8237V75.8238V75.8238V75.8239V75.8239V75.824V75.824V75.8241V75.8241V75.8242V75.8242V75.8243V75.8243V75.8244V75.8244V75.8245V75.8245V75.8246V75.8246V75.8247V75.8247V75.8248V75.8248V75.8248V75.8249V75.8249V75.825V75.825V75.8251V75.8251V75.8252V75.8252V75.8253V75.8253V75.8254V75.8254V75.8255V75.8255V75.8256V75.8256V75.8257V75.8257V75.8258V75.8258V75.8259V75.8259V75.826V75.826V75.8261V75.8261V75.8262V75.8262V75.8263V75.8263V75.8264V75.8264V75.8265V75.8265V75.8265V75.8266V75.8266V75.8267V75.8267V75.8268V75.8268V75.8269V75.8269V75.827V75.827V75.8271V75.8271V75.8272V75.8272V75.8273V75.8273V75.8274V75.8274V75.8275V75.8275V75.8276V75.8276V75.8277V75.8277V75.8278V75.8278V75.8279V75.8279V75.828V75.828V75.8281V75.8281V75.8282V75.8282V75.8283V75.8283V75.8284V75.8284V75.8285V75.8285V75.8286V75.8286V75.8287V75.8287V75.8288V75.8288V75.8289V75.8289V75.829V75.829V75.829V75.8291V75.8291V75.8292V75.8292V75.8293V75.8293V75.8294V75.8294V75.8295V75.8295V75.8296V75.8296V75.8297V75.8297V75.8298V75.8298V75.8299V75.8299V75.83V75.83V75.8301V75.8301V75.8302V75.8302V75.8303V75.8303V75.8304V75.8304V75.8305V75.8305V75.8306V75.8306V75.8307V75.8307V75.8308V75.8308V75.8309V75.8309V75.831V75.831V75.8311V75.8311V75.8312V75.8312V75.8313V75.8313V75.8314V75.8314V75.8315V75.8315V75.8316V75.8316V75.8317V75.8317V75.8317V75.8318V75.8318V75.8319V75.8319V75.832V75.832V75.8321V75.8321V75.8322V75.8322V75.8323V75.8323V75.8324V75.8324V75.8325V75.8325V75.8326V75.8326V75.8327V75.8327V75.8328V75.8328V75.8329V75.8329V75.833V75.833V75.8331V75.8331V75.8332V75.8332V75.8333V75.8333V75.8333V75.8334V75.8334V75.8335V75.8335V75.8336V75.8336V75.8337V75.8337V75.8338V75.8338V75.8339V75.8339V75.834V75.834V75.8341V75.8341V75.8342V75.8342V75.8343V75.8343V75.8344V75.8344V75.8344V75.8345V75.8345V75.8346V75.8346V75.8347V75.8347V75.8348V75.8348V75.8349V75.8349V75.835V75.835V75.8351V75.8351V75.8352V75.8352V75.8352V75.8353V75.8353V75.8354V75.8354V75.8355V75.8355V75.8356V75.8356V75.8357V75.8357V75.8358V75.8358V75.8359V75.8359V75.8359V75.836V75.836V75.8361V75.8361V75.8362V75.8362V75.8363V75.8363V75.8364V75.8364V75.8364V75.8365V75.8365V75.8366V75.8366V75.8367V75.8367V75.8368V75.8368V75.8369V75.8369V75.837V75.837V75.837V75.8371V75.8371V75.8372V75.8372V75.8373V75.8373V75.8374V75.8374V75.8374V75.8375V75.8375V75.8376V75.8376V75.8377V75.8377V75.8378V75.8378V75.8378V75.8379V75.8379V75.838V75.838V75.8381V75.8381V75.8382V75.8382V75.8382V75.8383V75.8383V75.8384V75.8384V75.8385V75.8385V75.8385V75.8386V75.8386V75.8387V75.8387V75.8388V75.8388V75.8388V75.8389V75.8389V75.839V75.839V75.8391V75.8391V75.8391V75.8392V75.8392V75.8393V75.8393V75.8394V75.8394V75.8394V75.8395V75.8395V75.8396V75.8396V75.8396V75.8397V75.8397V75.8398V75.8398V75.8399V75.8399V75.8399V75.84V75.84V75.8401V75.8401V75.8401V75.8402V75.8402V75.8403V75.8403V75.8403V75.8404V75.8404V75.8405V75.8405V75.8405V75.8406V75.8406V75.8407V75.8407V75.8407V75.8408V75.8408V75.8409H35.9339L35.9343 75.8474C36.2533 80.7248 36.6899 85.091 37.0189 88.3604L37.0344 88.5159C37.1944 90.12 37.3371 91.5517 37.4228 92.6207C37.467 93.1725 37.4959 93.626 37.5042 93.9559C37.5083 94.1211 37.5072 94.2532 37.5007 94.3503C37.4974 94.3989 37.4928 94.4367 37.4875 94.4645C37.4862 94.4713 37.4849 94.4769 37.4837 94.4817C37.1989 94.6202 36.9809 94.6676 36.7901 94.6378Z" fill="#2D4941" stroke="#021120" stroke-width="0.2"/>
</g>
<path d="M22.4797 105L20.6537 101.865H19.4437V105H18.4427V97.333H20.9177C21.497 97.333 21.9847 97.432 22.3807 97.63C22.784 97.828 23.0847 98.0957 23.2827 98.433C23.4807 98.7703 23.5797 99.1553 23.5797 99.588C23.5797 100.116 23.4257 100.582 23.1177 100.985C22.817 101.388 22.3624 101.656 21.7537 101.788L23.6787 105H22.4797ZM19.4437 101.062H20.9177C21.4604 101.062 21.8674 100.93 22.1387 100.666C22.41 100.395 22.5457 100.035 22.5457 99.588C22.5457 99.1333 22.41 98.7813 22.1387 98.532C21.8747 98.2827 21.4677 98.158 20.9177 98.158H19.4437V101.062ZM30.6351 101.755C30.6351 101.946 30.6241 102.147 30.6021 102.36H25.7841C25.8208 102.954 26.0224 103.42 26.3891 103.757C26.7631 104.087 27.2141 104.252 27.7421 104.252C28.1748 104.252 28.5341 104.153 28.8201 103.955C29.1134 103.75 29.3188 103.478 29.4361 103.141H30.5141C30.3528 103.72 30.0301 104.193 29.5461 104.56C29.0621 104.919 28.4608 105.099 27.7421 105.099C27.1701 105.099 26.6568 104.971 26.2021 104.714C25.7548 104.457 25.4028 104.094 25.1461 103.625C24.8894 103.148 24.7611 102.598 24.7611 101.975C24.7611 101.352 24.8858 100.805 25.1351 100.336C25.3844 99.8667 25.7328 99.5073 26.1801 99.258C26.6348 99.0013 27.1554 98.873 27.7421 98.873C28.3141 98.873 28.8201 98.9977 29.2601 99.247C29.7001 99.4963 30.0374 99.841 30.2721 100.281C30.5141 100.714 30.6351 101.205 30.6351 101.755ZM29.6011 101.546C29.6011 101.165 29.5168 100.838 29.3481 100.567C29.1794 100.288 28.9484 100.079 28.6551 99.94C28.3691 99.7933 28.0501 99.72 27.6981 99.72C27.1921 99.72 26.7594 99.8813 26.4001 100.204C26.0481 100.527 25.8464 100.974 25.7951 101.546H29.6011ZM28.7761 97.267L26.4331 98.521V97.773L28.7761 96.398V97.267ZM39.2054 98.862C39.6747 98.862 40.0927 98.961 40.4594 99.159C40.826 99.3497 41.1157 99.6393 41.3284 100.028C41.541 100.417 41.6474 100.89 41.6474 101.447V105H40.6574V101.59C40.6574 100.989 40.507 100.53 40.2064 100.215C39.913 99.8923 39.5134 99.731 39.0074 99.731C38.4867 99.731 38.0724 99.8997 37.7644 100.237C37.4564 100.567 37.3024 101.047 37.3024 101.678V105H36.3124V101.59C36.3124 100.989 36.162 100.53 35.8614 100.215C35.568 99.8923 35.1684 99.731 34.6624 99.731C34.1417 99.731 33.7274 99.8997 33.4194 100.237C33.1114 100.567 32.9574 101.047 32.9574 101.678V105H31.9564V98.972H32.9574V99.841C33.1554 99.5257 33.4194 99.2837 33.7494 99.115C34.0867 98.9463 34.457 98.862 34.8604 98.862C35.3664 98.862 35.8137 98.9757 36.2024 99.203C36.591 99.4303 36.8807 99.764 37.0714 100.204C37.24 99.7787 37.5187 99.4487 37.9074 99.214C38.296 98.9793 38.7287 98.862 39.2054 98.862ZM43.8064 97.993C43.6157 97.993 43.4544 97.927 43.3224 97.795C43.1904 97.663 43.1244 97.5017 43.1244 97.311C43.1244 97.1203 43.1904 96.959 43.3224 96.827C43.4544 96.695 43.6157 96.629 43.8064 96.629C43.9897 96.629 44.1437 96.695 44.2684 96.827C44.4004 96.959 44.4664 97.1203 44.4664 97.311C44.4664 97.5017 44.4004 97.663 44.2684 97.795C44.1437 97.927 43.9897 97.993 43.8064 97.993ZM44.2904 98.972V105H43.2894V98.972H44.2904ZM48.4824 98.873C49.0031 98.873 49.4577 98.9867 49.8464 99.214C50.2424 99.4413 50.5357 99.7273 50.7264 100.072V98.972H51.7384V105.132C51.7384 105.682 51.6211 106.17 51.3864 106.595C51.1517 107.028 50.8144 107.365 50.3744 107.607C49.9417 107.849 49.4357 107.97 48.8564 107.97C48.0644 107.97 47.4044 107.783 46.8764 107.409C46.3484 107.035 46.0367 106.525 45.9414 105.88H46.9314C47.0414 106.247 47.2687 106.54 47.6134 106.76C47.9581 106.987 48.3724 107.101 48.8564 107.101C49.4064 107.101 49.8537 106.929 50.1984 106.584C50.5504 106.239 50.7264 105.755 50.7264 105.132V103.867C50.5284 104.219 50.2351 104.512 49.8464 104.747C49.4577 104.982 49.0031 105.099 48.4824 105.099C47.9471 105.099 47.4594 104.967 47.0194 104.703C46.5867 104.439 46.2457 104.069 45.9964 103.592C45.7471 103.115 45.6224 102.573 45.6224 101.964C45.6224 101.348 45.7471 100.809 45.9964 100.347C46.2457 99.8777 46.5867 99.5147 47.0194 99.258C47.4594 99.0013 47.9471 98.873 48.4824 98.873ZM50.7264 101.975C50.7264 101.52 50.6347 101.124 50.4514 100.787C50.2681 100.45 50.0187 100.193 49.7034 100.017C49.3954 99.8337 49.0544 99.742 48.6804 99.742C48.3064 99.742 47.9654 99.83 47.6574 100.006C47.3494 100.182 47.1037 100.439 46.9204 100.776C46.7371 101.113 46.6454 101.509 46.6454 101.964C46.6454 102.426 46.7371 102.829 46.9204 103.174C47.1037 103.511 47.3494 103.772 47.6574 103.955C47.9654 104.131 48.3064 104.219 48.6804 104.219C49.0544 104.219 49.3954 104.131 49.7034 103.955C50.0187 103.772 50.2681 103.511 50.4514 103.174C50.6347 102.829 50.7264 102.43 50.7264 101.975ZM58.93 101.755C58.93 101.946 58.919 102.147 58.897 102.36H54.079C54.1157 102.954 54.3173 103.42 54.684 103.757C55.058 104.087 55.509 104.252 56.037 104.252C56.4697 104.252 56.829 104.153 57.115 103.955C57.4083 103.75 57.6137 103.478 57.731 103.141H58.809C58.6477 103.72 58.325 104.193 57.841 104.56C57.357 104.919 56.7557 105.099 56.037 105.099C55.465 105.099 54.9517 104.971 54.497 104.714C54.0497 104.457 53.6977 104.094 53.441 103.625C53.1843 103.148 53.056 102.598 53.056 101.975C53.056 101.352 53.1807 100.805 53.43 100.336C53.6793 99.8667 54.0277 99.5073 54.475 99.258C54.9297 99.0013 55.4503 98.873 56.037 98.873C56.609 98.873 57.115 98.9977 57.555 99.247C57.995 99.4963 58.3323 99.841 58.567 100.281C58.809 100.714 58.93 101.205 58.93 101.755ZM57.896 101.546C57.896 101.165 57.8117 100.838 57.643 100.567C57.4743 100.288 57.2433 100.079 56.95 99.94C56.664 99.7933 56.345 99.72 55.993 99.72C55.487 99.72 55.0543 99.8813 54.695 100.204C54.343 100.527 54.1413 100.974 54.09 101.546H57.896ZM12.7406 113.083C12.9386 112.738 13.2319 112.452 13.6206 112.225C14.0166 111.99 14.4749 111.873 14.9956 111.873C15.5309 111.873 16.0149 112.001 16.4476 112.258C16.8876 112.515 17.2322 112.878 17.4816 113.347C17.7309 113.809 17.8556 114.348 17.8556 114.964C17.8556 115.573 17.7309 116.115 17.4816 116.592C17.2322 117.069 16.8876 117.439 16.4476 117.703C16.0149 117.967 15.5309 118.099 14.9956 118.099C14.4822 118.099 14.0276 117.985 13.6316 117.758C13.2429 117.523 12.9459 117.234 12.7406 116.889V120.86H11.7396V111.972H12.7406V113.083ZM16.8326 114.964C16.8326 114.509 16.7409 114.113 16.5576 113.776C16.3742 113.439 16.1249 113.182 15.8096 113.006C15.5016 112.83 15.1606 112.742 14.7866 112.742C14.4199 112.742 14.0789 112.834 13.7636 113.017C13.4556 113.193 13.2062 113.453 13.0156 113.798C12.8322 114.135 12.7406 114.528 12.7406 114.975C12.7406 115.43 12.8322 115.829 13.0156 116.174C13.2062 116.511 13.4556 116.772 13.7636 116.955C14.0789 117.131 14.4199 117.219 14.7866 117.219C15.1606 117.219 15.5016 117.131 15.8096 116.955C16.1249 116.772 16.3742 116.511 16.5576 116.174C16.7409 115.829 16.8326 115.426 16.8326 114.964ZM20.1742 112.951C20.3502 112.606 20.5995 112.339 20.9222 112.148C21.2522 111.957 21.6518 111.862 22.1212 111.862V112.896H21.8572C20.7352 112.896 20.1742 113.505 20.1742 114.722V118H19.1732V111.972H20.1742V112.951ZM23.7937 110.993C23.603 110.993 23.4417 110.927 23.3097 110.795C23.1777 110.663 23.1117 110.502 23.1117 110.311C23.1117 110.12 23.1777 109.959 23.3097 109.827C23.4417 109.695 23.603 109.629 23.7937 109.629C23.977 109.629 24.131 109.695 24.2557 109.827C24.3877 109.959 24.4537 110.12 24.4537 110.311C24.4537 110.502 24.3877 110.663 24.2557 110.795C24.131 110.927 23.977 110.993 23.7937 110.993ZM24.2777 111.972V118H23.2767V111.972H24.2777ZM33.2327 111.862C33.7021 111.862 34.1201 111.961 34.4867 112.159C34.8534 112.35 35.1431 112.639 35.3557 113.028C35.5684 113.417 35.6747 113.89 35.6747 114.447V118H34.6847V114.59C34.6847 113.989 34.5344 113.53 34.2337 113.215C33.9404 112.892 33.5407 112.731 33.0347 112.731C32.5141 112.731 32.0997 112.9 31.7917 113.237C31.4837 113.567 31.3297 114.047 31.3297 114.678V118H30.3397V114.59C30.3397 113.989 30.1894 113.53 29.8887 113.215C29.5954 112.892 29.1957 112.731 28.6897 112.731C28.1691 112.731 27.7547 112.9 27.4467 113.237C27.1387 113.567 26.9847 114.047 26.9847 114.678V118H25.9837V111.972H26.9847V112.841C27.1827 112.526 27.4467 112.284 27.7767 112.115C28.1141 111.946 28.4844 111.862 28.8877 111.862C29.3937 111.862 29.8411 111.976 30.2297 112.203C30.6184 112.43 30.9081 112.764 31.0987 113.204C31.2674 112.779 31.5461 112.449 31.9347 112.214C32.3234 111.979 32.7561 111.862 33.2327 111.862ZM36.9427 114.964C36.9427 114.348 37.0674 113.809 37.3167 113.347C37.5661 112.878 37.9071 112.515 38.3397 112.258C38.7797 112.001 39.2674 111.873 39.8027 111.873C40.3307 111.873 40.7891 111.987 41.1777 112.214C41.5664 112.441 41.8561 112.727 42.0467 113.072V111.972H43.0587V118H42.0467V116.878C41.8487 117.23 41.5517 117.523 41.1557 117.758C40.7671 117.985 40.3124 118.099 39.7917 118.099C39.2564 118.099 38.7724 117.967 38.3397 117.703C37.9071 117.439 37.5661 117.069 37.3167 116.592C37.0674 116.115 36.9427 115.573 36.9427 114.964ZM42.0467 114.975C42.0467 114.52 41.9551 114.124 41.7717 113.787C41.5884 113.45 41.3391 113.193 41.0237 113.017C40.7157 112.834 40.3747 112.742 40.0007 112.742C39.6267 112.742 39.2857 112.83 38.9777 113.006C38.6697 113.182 38.4241 113.439 38.2407 113.776C38.0574 114.113 37.9657 114.509 37.9657 114.964C37.9657 115.426 38.0574 115.829 38.2407 116.174C38.4241 116.511 38.6697 116.772 38.9777 116.955C39.2857 117.131 39.6267 117.219 40.0007 117.219C40.3747 117.219 40.7157 117.131 41.0237 116.955C41.3391 116.772 41.5884 116.511 41.7717 116.174C41.9551 115.829 42.0467 115.43 42.0467 114.975ZM45.2673 110.993C45.0767 110.993 44.9153 110.927 44.7833 110.795C44.6513 110.663 44.5853 110.502 44.5853 110.311C44.5853 110.12 44.6513 109.959 44.7833 109.827C44.9153 109.695 45.0767 109.629 45.2673 109.629C45.4507 109.629 45.6047 109.695 45.7293 109.827C45.8613 109.959 45.9273 110.12 45.9273 110.311C45.9273 110.502 45.8613 110.663 45.7293 110.795C45.6047 110.927 45.4507 110.993 45.2673 110.993ZM45.7513 111.972V118H44.7503V111.972H45.7513ZM48.4584 112.951C48.6344 112.606 48.8837 112.339 49.2064 112.148C49.5364 111.957 49.936 111.862 50.4054 111.862V112.896H50.1414C49.0194 112.896 48.4584 113.505 48.4584 114.722V118H47.4574V111.972H48.4584V112.951ZM57.0609 114.755C57.0609 114.946 57.0499 115.147 57.0279 115.36H52.2099C52.2465 115.954 52.4482 116.42 52.8149 116.757C53.1889 117.087 53.6399 117.252 54.1679 117.252C54.6005 117.252 54.9599 117.153 55.2459 116.955C55.5392 116.75 55.7445 116.478 55.8619 116.141H56.9399C56.7785 116.72 56.4559 117.193 55.9719 117.56C55.4879 117.919 54.8865 118.099 54.1679 118.099C53.5959 118.099 53.0825 117.971 52.6279 117.714C52.1805 117.457 51.8285 117.094 51.5719 116.625C51.3152 116.148 51.1869 115.598 51.1869 114.975C51.1869 114.352 51.3115 113.805 51.5609 113.336C51.8102 112.867 52.1585 112.507 52.6059 112.258C53.0605 112.001 53.5812 111.873 54.1679 111.873C54.7399 111.873 55.2459 111.998 55.6859 112.247C56.1259 112.496 56.4632 112.841 56.6979 113.281C56.9399 113.714 57.0609 114.205 57.0609 114.755ZM56.0269 114.546C56.0269 114.165 55.9425 113.838 55.7739 113.567C55.6052 113.288 55.3742 113.079 55.0809 112.94C54.7949 112.793 54.4759 112.72 54.1239 112.72C53.6179 112.72 53.1852 112.881 52.8259 113.204C52.4739 113.527 52.2722 113.974 52.2209 114.546H56.0269ZM62.3158 111.147V113.71H65.1098V114.535H62.3158V117.175H65.4398V118H61.3148V110.322H65.4398V111.147H62.3158Z" fill="#2D4941"/>
<defs>
<clipPath id="clip0_58_3523">
<rect width="15.0427" height="80" fill="white" transform="translate(30.9785 15)"/>
</clipPath>
</defs>
</svg>
