<svg width="78" height="78" viewBox="0 0 78 78" fill="none" xmlns="http://www.w3.org/2000/svg">
<rect x="0.25" y="0.25" width="77.5" height="77.5" rx="9.75" stroke="#2D4941" stroke-width="0.5"/>
<mask id="path-2-inside-1_67_4345" fill="white">
<path d="M54.7779 14.4756C54.672 14.3349 54.5069 14.2531 54.3323 14.2531H36.2692C36.0976 14.2531 35.9405 14.3348 35.8351 14.4664C35.832 14.4704 35.8267 14.4715 35.8236 14.4756L28.2177 24.5096C28.1424 24.6076 28.1022 24.7284 28.1022 24.853V36.4483H25.5966V31.0408C25.5966 30.7284 25.3453 30.4749 25.0356 30.4749C24.7259 30.4749 24.4746 30.7284 24.4746 31.0408V36.4483H22.1056V31.0408C22.1056 30.7284 21.8543 30.4749 21.5445 30.4749C21.2348 30.4749 20.9835 30.7284 20.9835 31.0408V36.4483H18.6145V31.0408C18.6145 30.7284 18.3632 30.4749 18.0535 30.4749C17.7438 30.4749 17.4925 30.7284 17.4925 31.0408V36.4483H15.5625C15.2528 36.4483 15.0015 36.7017 15.0015 37.0142C15.0015 37.3266 15.2528 37.58 15.5625 37.58H28.6633H32.4779C33.2187 38.3924 33.8987 39.2459 34.4883 40.1294C34.5154 40.1698 34.5389 40.2141 34.5658 40.2547H15.5625C15.2528 40.2547 15.0015 40.5082 15.0015 40.8206C15.0015 41.133 15.2528 41.3864 15.5625 41.3864H34.9529C35.0509 41.3864 35.1385 41.3543 35.2188 41.3096C35.5261 41.8372 35.8194 42.3772 36.0859 42.9352C36.2641 43.3033 36.4247 43.6818 36.5815 44.0618H15.5625C15.2528 44.0618 15.0015 44.3153 15.0015 44.6277C15.0015 44.9401 15.2528 45.1936 15.5625 45.1936H37.0053C37.0674 45.373 37.1392 45.5492 37.1962 45.73C37.4199 46.4321 37.5948 47.1496 37.7407 47.8682H15.561C15.2513 47.8682 15 48.1217 15 48.4341C15 48.7465 15.2513 49 15.561 49H61.939C62.2487 49 62.5 48.7465 62.5 48.4341C62.5 48.1217 62.2487 47.8682 61.939 47.8682H49.8976C49.7304 47.0159 49.5387 46.1843 49.3159 45.3999C49.2961 45.3307 49.2718 45.2627 49.2515 45.1936H61.9375C62.2472 45.1936 62.4985 44.9401 62.4985 44.6277C62.4985 44.3153 62.2472 44.0618 61.9375 44.0618H48.8975C48.7191 43.5277 48.5301 42.9981 48.3261 42.4791C48.182 42.1111 48.0248 41.7488 47.8681 41.3864H61.9375C62.2472 41.3864 62.4985 41.133 62.4985 40.8206C62.4985 40.5081 62.2472 40.2547 61.9375 40.2547H47.3509C47.2392 40.0208 47.1327 39.7823 47.0163 39.5532C46.6772 38.8864 46.3035 38.2292 45.9162 37.58H61.9375H61.939C62.2487 37.58 62.5 37.3266 62.5 37.0142V34.061V29.8464V24.853C62.5 24.7284 62.4598 24.6076 62.3846 24.5096L54.7779 14.4756ZM61.378 33.4951H46.1704V30.4123H61.378V33.4951ZM54.0547 15.3848L60.8814 24.3895H44.2305L37.4044 15.3848H54.0547ZM29.2243 25.0445L36.2692 15.7503L43.3149 25.0445V36.4483H39.9787H39.7391V31.3959C39.7391 30.469 39.376 29.5922 38.7164 28.9268C38.0575 28.2622 37.1882 27.896 36.2692 27.896C34.3561 27.896 32.7994 29.4662 32.7994 31.3959V36.4483H32.7336H32.6671H29.2243L29.2243 25.0445ZM38.6171 36.4483H33.9214V31.3959C33.9214 30.0903 34.9748 29.0278 36.2692 29.0278C36.8887 29.0278 37.476 29.2761 37.9231 29.727C38.3709 30.1787 38.6171 30.7711 38.6171 31.3959V36.4483ZM35.4182 39.4958C34.9814 38.8415 34.5007 38.2004 33.9835 37.58H39.1781H39.6632C39.8151 37.8241 39.9593 38.0661 40.1017 38.3078C40.1935 38.4636 40.2918 38.6213 40.3796 38.7758C40.6276 39.2131 40.8614 39.6459 41.0745 40.0697C41.5354 40.9775 41.9606 41.928 42.3397 42.8954C42.6991 43.8098 43.0205 44.7581 43.2952 45.7123C43.4615 46.3005 43.6042 46.9003 43.7351 47.5008C43.7523 47.5798 43.7682 47.6588 43.7847 47.7378H38.8705C38.7142 46.9465 38.5104 46.1566 38.2649 45.3852C38.2259 45.2612 38.1753 45.1406 38.134 45.0172C38.2302 44.9156 38.2912 44.7793 38.2912 44.6277C38.2912 44.3398 38.0748 44.1115 37.7989 44.0758C37.5841 43.5208 37.3529 42.9729 37.0954 42.4416C36.6031 41.4108 36.0384 40.419 35.4182 39.4958ZM46.1693 40.3875C46.0425 40.4912 45.9564 40.6431 45.9564 40.8206C45.9564 41.133 46.2077 41.3864 46.5174 41.3864H46.6459C46.8695 41.8826 47.0834 42.3858 47.283 42.8947C47.6431 43.8113 47.9645 44.7603 48.2377 45.7123C48.4211 46.36 48.5869 47.0386 48.7323 47.7378H44.9388C44.8962 47.5259 44.8456 47.3151 44.7984 47.1037C44.7677 46.966 44.7395 46.8285 44.707 46.6912C44.604 46.2576 44.4941 45.8259 44.3734 45.3992C44.0885 44.4089 43.7554 43.426 43.3828 42.4792C42.9913 41.4786 42.5508 40.4942 42.0745 39.5555C41.8686 39.1471 41.6413 38.7296 41.4045 38.3088C41.3382 38.1909 41.2702 38.0732 41.2016 37.9546C41.1291 37.8295 41.0618 37.7059 40.9868 37.58H43.8759H44.6093C45.1156 38.3905 45.5889 39.2268 46.0177 40.0698C46.0703 40.1735 46.1176 40.2827 46.1693 40.3875ZM44.9169 36.4483H44.8694H44.4369V25.5213H61.378V29.2805H45.6094C45.2997 29.2805 45.0484 29.534 45.0484 29.8464V34.061C45.0484 34.3734 45.2997 34.6269 45.6094 34.6269H61.378V36.4483H44.9169Z"/>
</mask>
<path d="M54.7779 14.4756C54.672 14.3349 54.5069 14.2531 54.3323 14.2531H36.2692C36.0976 14.2531 35.9405 14.3348 35.8351 14.4664C35.832 14.4704 35.8267 14.4715 35.8236 14.4756L28.2177 24.5096C28.1424 24.6076 28.1022 24.7284 28.1022 24.853V36.4483H25.5966V31.0408C25.5966 30.7284 25.3453 30.4749 25.0356 30.4749C24.7259 30.4749 24.4746 30.7284 24.4746 31.0408V36.4483H22.1056V31.0408C22.1056 30.7284 21.8543 30.4749 21.5445 30.4749C21.2348 30.4749 20.9835 30.7284 20.9835 31.0408V36.4483H18.6145V31.0408C18.6145 30.7284 18.3632 30.4749 18.0535 30.4749C17.7438 30.4749 17.4925 30.7284 17.4925 31.0408V36.4483H15.5625C15.2528 36.4483 15.0015 36.7017 15.0015 37.0142C15.0015 37.3266 15.2528 37.58 15.5625 37.58H28.6633H32.4779C33.2187 38.3924 33.8987 39.2459 34.4883 40.1294C34.5154 40.1698 34.5389 40.2141 34.5658 40.2547H15.5625C15.2528 40.2547 15.0015 40.5082 15.0015 40.8206C15.0015 41.133 15.2528 41.3864 15.5625 41.3864H34.9529C35.0509 41.3864 35.1385 41.3543 35.2188 41.3096C35.5261 41.8372 35.8194 42.3772 36.0859 42.9352C36.2641 43.3033 36.4247 43.6818 36.5815 44.0618H15.5625C15.2528 44.0618 15.0015 44.3153 15.0015 44.6277C15.0015 44.9401 15.2528 45.1936 15.5625 45.1936H37.0053C37.0674 45.373 37.1392 45.5492 37.1962 45.73C37.4199 46.4321 37.5948 47.1496 37.7407 47.8682H15.561C15.2513 47.8682 15 48.1217 15 48.4341C15 48.7465 15.2513 49 15.561 49H61.939C62.2487 49 62.5 48.7465 62.5 48.4341C62.5 48.1217 62.2487 47.8682 61.939 47.8682H49.8976C49.7304 47.0159 49.5387 46.1843 49.3159 45.3999C49.2961 45.3307 49.2718 45.2627 49.2515 45.1936H61.9375C62.2472 45.1936 62.4985 44.9401 62.4985 44.6277C62.4985 44.3153 62.2472 44.0618 61.9375 44.0618H48.8975C48.7191 43.5277 48.5301 42.9981 48.3261 42.4791C48.182 42.1111 48.0248 41.7488 47.8681 41.3864H61.9375C62.2472 41.3864 62.4985 41.133 62.4985 40.8206C62.4985 40.5081 62.2472 40.2547 61.9375 40.2547H47.3509C47.2392 40.0208 47.1327 39.7823 47.0163 39.5532C46.6772 38.8864 46.3035 38.2292 45.9162 37.58H61.9375H61.939C62.2487 37.58 62.5 37.3266 62.5 37.0142V34.061V29.8464V24.853C62.5 24.7284 62.4598 24.6076 62.3846 24.5096L54.7779 14.4756ZM61.378 33.4951H46.1704V30.4123H61.378V33.4951ZM54.0547 15.3848L60.8814 24.3895H44.2305L37.4044 15.3848H54.0547ZM29.2243 25.0445L36.2692 15.7503L43.3149 25.0445V36.4483H39.9787H39.7391V31.3959C39.7391 30.469 39.376 29.5922 38.7164 28.9268C38.0575 28.2622 37.1882 27.896 36.2692 27.896C34.3561 27.896 32.7994 29.4662 32.7994 31.3959V36.4483H32.7336H32.6671H29.2243L29.2243 25.0445ZM38.6171 36.4483H33.9214V31.3959C33.9214 30.0903 34.9748 29.0278 36.2692 29.0278C36.8887 29.0278 37.476 29.2761 37.9231 29.727C38.3709 30.1787 38.6171 30.7711 38.6171 31.3959V36.4483ZM35.4182 39.4958C34.9814 38.8415 34.5007 38.2004 33.9835 37.58H39.1781H39.6632C39.8151 37.8241 39.9593 38.0661 40.1017 38.3078C40.1935 38.4636 40.2918 38.6213 40.3796 38.7758C40.6276 39.2131 40.8614 39.6459 41.0745 40.0697C41.5354 40.9775 41.9606 41.928 42.3397 42.8954C42.6991 43.8098 43.0205 44.7581 43.2952 45.7123C43.4615 46.3005 43.6042 46.9003 43.7351 47.5008C43.7523 47.5798 43.7682 47.6588 43.7847 47.7378H38.8705C38.7142 46.9465 38.5104 46.1566 38.2649 45.3852C38.2259 45.2612 38.1753 45.1406 38.134 45.0172C38.2302 44.9156 38.2912 44.7793 38.2912 44.6277C38.2912 44.3398 38.0748 44.1115 37.7989 44.0758C37.5841 43.5208 37.3529 42.9729 37.0954 42.4416C36.6031 41.4108 36.0384 40.419 35.4182 39.4958ZM46.1693 40.3875C46.0425 40.4912 45.9564 40.6431 45.9564 40.8206C45.9564 41.133 46.2077 41.3864 46.5174 41.3864H46.6459C46.8695 41.8826 47.0834 42.3858 47.283 42.8947C47.6431 43.8113 47.9645 44.7603 48.2377 45.7123C48.4211 46.36 48.5869 47.0386 48.7323 47.7378H44.9388C44.8962 47.5259 44.8456 47.3151 44.7984 47.1037C44.7677 46.966 44.7395 46.8285 44.707 46.6912C44.604 46.2576 44.4941 45.8259 44.3734 45.3992C44.0885 44.4089 43.7554 43.426 43.3828 42.4792C42.9913 41.4786 42.5508 40.4942 42.0745 39.5555C41.8686 39.1471 41.6413 38.7296 41.4045 38.3088C41.3382 38.1909 41.2702 38.0732 41.2016 37.9546C41.1291 37.8295 41.0618 37.7059 40.9868 37.58H43.8759H44.6093C45.1156 38.3905 45.5889 39.2268 46.0177 40.0698C46.0703 40.1735 46.1176 40.2827 46.1693 40.3875ZM44.9169 36.4483H44.8694H44.4369V25.5213H61.378V29.2805H45.6094C45.2997 29.2805 45.0484 29.534 45.0484 29.8464V34.061C45.0484 34.3734 45.2997 34.6269 45.6094 34.6269H61.378V36.4483H44.9169Z" fill="#2D4941" stroke="#2D4941" stroke-width="0.4" mask="url(#path-2-inside-1_67_4345)"/>
<path d="M19.6505 19.2885C19.6505 17.8915 20.7868 16.7501 22.1701 16.7501C23.5532 16.7501 24.6859 17.8913 24.6859 19.2885C24.6859 20.6857 23.5532 21.8269 22.1701 21.8269C20.7868 21.8269 19.6505 20.6855 19.6505 19.2885ZM23.8388 19.2885C23.8388 18.3531 23.0996 17.6063 22.1701 17.6063C21.241 17.6063 20.4976 18.3528 20.4976 19.2885C20.4976 20.2242 21.241 20.9707 22.1701 20.9707C23.0996 20.9707 23.8388 20.2239 23.8388 19.2885Z" fill="#2D4941" stroke="#2D4941" stroke-width="0.2"/>
<path d="M26.8886 19.715L26.8886 19.7146H26.8801H25.8338C25.3098 19.7062 25.2649 18.9303 25.7852 18.8624L25.7914 18.8624L25.8263 18.8623L25.951 18.8621L26.3292 18.8617C26.4668 18.8616 26.6043 18.8615 26.7075 18.8616L26.8215 18.8619L26.8247 18.8675L26.8886 18.862C27.0494 18.8483 27.1606 18.9003 27.2328 18.9772C27.3073 19.0565 27.3476 19.1702 27.3476 19.2885C27.3476 19.4068 27.3073 19.5206 27.2328 19.5999C27.1606 19.6767 27.0494 19.7287 26.8886 19.715Z" fill="#2D4941" stroke="#2D4941" stroke-width="0.2"/>
<path d="M18.5119 19.715L18.5119 19.7146H18.5034H17.4575C16.935 19.7025 16.8937 18.9295 17.4124 18.8624L17.4186 18.8624L17.4535 18.8623L17.5779 18.8621L17.9552 18.8617C18.0925 18.8616 18.2296 18.8615 18.3323 18.8616L18.3323 18.8616L18.323 18.8781L18.5119 18.862C18.6728 18.8483 18.7839 18.9003 18.8562 18.9772C18.9307 19.0565 18.9709 19.1702 18.9709 19.2885C18.9709 19.4068 18.9307 19.5206 18.8562 19.5999C18.7839 19.6767 18.6728 19.7287 18.5119 19.715Z" fill="#2D4941" stroke="#2D4941" stroke-width="0.2"/>
<path d="M22.1603 22.549L22.1603 22.549C22.2169 22.548 22.2731 22.5584 22.3256 22.5796C22.3781 22.6009 22.426 22.6326 22.4662 22.6729C22.5065 22.7132 22.5384 22.7614 22.5599 22.8144C22.5815 22.8675 22.5923 22.9244 22.5916 22.9818L22.5916 22.9818V22.983V24.0391C22.5916 24.1529 22.5468 24.2619 22.4673 24.3421C22.3878 24.4223 22.2801 24.4672 22.1681 24.4672C22.056 24.4672 21.9484 24.4223 21.8689 24.3421C21.7894 24.2619 21.7446 24.1529 21.7446 24.0391V22.983H21.7446L21.7446 22.9818C21.7433 22.8686 21.7865 22.7596 21.8645 22.6785C21.9424 22.5975 22.0488 22.5511 22.1603 22.549ZM22.6916 24.0391V22.983H21.6446V24.0391C21.6446 24.1791 21.6997 24.3135 21.7979 24.4125C21.8961 24.5115 22.0292 24.5672 22.1681 24.5672C22.3069 24.5672 22.4401 24.5115 22.5383 24.4125C22.6365 24.3135 22.6916 24.1791 22.6916 24.0391Z" fill="#2D4941" stroke="#2D4941" stroke-width="0.2"/>
<path d="M22.1604 14.1001L22.1603 14.1001C22.1048 14.1011 22.05 14.1131 21.9991 14.1355C21.9482 14.1579 21.902 14.1902 21.8634 14.2307C21.8247 14.2711 21.7943 14.3189 21.7739 14.3713C21.7535 14.4237 21.7436 14.4797 21.7446 14.536L21.7446 14.5379H21.7446V15.594C21.7446 15.7078 21.7895 15.8168 21.869 15.897C21.9485 15.9772 22.0561 16.0221 22.1682 16.0221C22.2802 16.0221 22.3878 15.9772 22.4673 15.897C22.5469 15.8168 22.5917 15.7078 22.5917 15.594V14.5379V14.536L22.5917 14.536C22.5928 14.4784 22.5823 14.4211 22.5609 14.3676C22.5396 14.3142 22.5078 14.2657 22.4674 14.225M22.1604 14.1001L22.4674 14.225M22.1604 14.1001C22.2172 14.099 22.2737 14.1095 22.3264 14.1309C22.3792 14.1524 22.4271 14.1844 22.4674 14.225M22.1604 14.1001L22.4674 14.225" fill="#2D4941" stroke="#2D4941" stroke-width="0.2"/>
<path d="M19.2778 21.5998L19.2778 21.5998L18.5398 22.3441L18.5374 22.3466L18.5373 22.3465C18.4958 22.3856 18.4625 22.4328 18.4393 22.4852M19.2778 21.5998L18.4393 22.4852M19.2778 21.5998L19.2788 21.5987M19.2778 21.5998L19.2788 21.5987M18.4393 22.4852C18.4161 22.5377 18.4036 22.5943 18.4026 22.6518C18.4015 22.7092 18.4119 22.7663 18.4331 22.8196C18.4544 22.8729 18.486 22.9212 18.526 22.9619C18.5661 23.0025 18.6138 23.0345 18.6663 23.0561C18.7187 23.0777 18.775 23.0884 18.8316 23.0877C18.8882 23.0869 18.9441 23.0747 18.996 23.0517C19.0479 23.0287 19.0947 22.9954 19.1337 22.9537M18.4393 22.4852L19.1337 22.9537M19.2788 21.5987C19.3554 21.5192 19.4596 21.4729 19.5692 21.4695L19.5661 21.3696M19.2788 21.5987L19.1357 22.9515M19.1357 22.9515L19.1357 22.9516L19.8776 22.2033L19.8782 22.2027L19.8782 22.2027C19.9389 22.1425 19.9803 22.065 19.9969 21.9805C20.0134 21.8959 20.0044 21.8083 19.9708 21.7291C19.9373 21.6499 19.881 21.5828 19.8093 21.5366C19.7377 21.4903 19.6539 21.467 19.5691 21.4695L19.5661 21.3696M19.1357 22.9515L19.1337 22.9537M19.1357 22.9515L19.1337 22.9537M19.5661 21.3696C19.6712 21.3665 19.7749 21.3954 19.8635 21.4525C19.9522 21.5097 20.0216 21.5925 20.0629 21.6901C20.1042 21.7877 20.1154 21.8956 20.095 21.9997C20.0746 22.1038 20.0236 22.1993 19.9486 22.2737L19.5661 21.3696Z" fill="#2D4941" stroke="#2D4941" stroke-width="0.2"/>
<path d="M25.4891 15.3953L25.4921 15.4952C25.5773 15.4927 25.6614 15.5162 25.7333 15.5628C25.8052 15.6095 25.8616 15.6771 25.8948 15.7568C25.9281 15.8366 25.9366 15.9247 25.9193 16.0095C25.902 16.0943 25.8597 16.1717 25.7981 16.2316L25.798 16.2316L25.7967 16.2329L25.0588 16.9773L25.0587 16.9772L25.0564 16.9797C25.0176 17.0216 24.9709 17.0552 24.9192 17.0785C24.8674 17.1017 24.8115 17.1143 24.7549 17.1153C24.6983 17.1164 24.642 17.106 24.5895 17.0846C24.5369 17.0633 24.489 17.0315 24.4487 16.9911C24.4085 16.9507 24.3766 16.9025 24.3551 16.8494C24.3336 16.7962 24.3229 16.7392 24.3237 16.6817C24.3244 16.6242 24.3366 16.5675 24.3595 16.515C24.3824 16.4624 24.4155 16.4151 24.4569 16.3758L24.4569 16.3758L24.459 16.3737L25.2008 15.6255L25.2008 15.6255L25.2018 15.6244C25.2785 15.5449 25.3826 15.4986 25.4922 15.4952L25.4891 15.3953ZM25.4891 15.3953C25.5947 15.3921 25.6989 15.4213 25.7877 15.479C25.8766 15.5366 25.9461 15.6201 25.9871 15.7183C26.0281 15.8166 26.0386 15.9251 26.0173 16.0295C25.996 16.1339 25.9439 16.2294 25.8677 16.3033L25.1298 15.5551C25.2244 15.4568 25.3533 15.3995 25.4891 15.3953Z" fill="#2D4941" stroke="#2D4941" stroke-width="0.2"/>
<path d="M18.8319 15.3953L18.8318 15.4953C18.8882 15.4953 18.9441 15.5067 18.9961 15.5289C19.0481 15.5511 19.0952 15.5836 19.1347 15.6245L19.1347 15.6245L19.1356 15.6255L19.8775 16.3737L19.8774 16.3737L19.8796 16.3757C19.9209 16.4151 19.954 16.4624 19.9769 16.5149C19.9998 16.5675 20.012 16.6242 20.0127 16.6817C20.0135 16.7392 20.0028 16.7962 19.9813 16.8493C19.9598 16.9025 19.9279 16.9507 19.8877 16.9911C19.8474 17.0315 19.7995 17.0633 19.747 17.0846C19.6944 17.1059 19.6381 17.1164 19.5815 17.1153C19.5249 17.1143 19.469 17.1017 19.4173 17.0785C19.3655 17.0552 19.3188 17.0216 19.28 16.9797L19.2801 16.9797L19.2777 16.9772L18.5397 16.2329L18.5397 16.2329L18.5384 16.2316C18.4776 16.1725 18.4356 16.0962 18.4179 16.0126C18.4003 15.9291 18.4078 15.8421 18.4395 15.7628C18.4711 15.6836 18.5255 15.6159 18.5954 15.5683C18.6654 15.5207 18.7477 15.4953 18.8319 15.4953L18.8319 15.3953ZM18.8319 15.3953C18.9018 15.3953 18.9709 15.4095 19.0353 15.4369C19.0996 15.4644 19.1579 15.5045 19.2066 15.555L18.4687 16.3033C18.3936 16.2303 18.3418 16.1362 18.3201 16.0333C18.2983 15.9304 18.3076 15.8233 18.3466 15.7257C18.3856 15.6281 18.4527 15.5445 18.5392 15.4857C18.6256 15.4268 18.7275 15.3953 18.8319 15.3953Z" fill="#2D4941" stroke="#2D4941" stroke-width="0.2"/>
<path d="M24.701 21.3696L24.7108 21.4691C24.7745 21.4628 24.8387 21.4711 24.8987 21.4934C24.9587 21.5158 25.013 21.5516 25.0574 21.5983L25.0574 21.5983L25.0588 21.5998L25.7968 22.3441L25.7967 22.3442L25.7992 22.3465C25.8408 22.3856 25.8741 22.4328 25.8973 22.4852C25.9205 22.5376 25.933 22.5943 25.934 22.6517C25.9351 22.7092 25.9247 22.7663 25.9034 22.8196C25.8822 22.8728 25.8506 22.9212 25.8105 22.9618C25.7705 23.0025 25.7228 23.0345 25.6703 23.0561C25.6178 23.0777 25.5616 23.0884 25.505 23.0876C25.4484 23.0869 25.3925 23.0747 25.3406 23.0517C25.2887 23.0287 25.2418 22.9953 25.2029 22.9537L25.2029 22.9536L25.2008 22.9516L24.459 22.2033L24.459 22.2033L24.458 22.2023C24.4 22.1455 24.3593 22.0731 24.3406 21.9936C24.322 21.914 24.3263 21.8308 24.353 21.7536C24.3797 21.6765 24.4276 21.6088 24.4911 21.5584C24.5545 21.5081 24.6308 21.4771 24.7109 21.4691L24.701 21.3696ZM24.701 21.3696C24.7798 21.3617 24.8593 21.3721 24.9336 21.3997C25.0079 21.4274 25.075 21.4717 25.1298 21.5294L24.388 22.2737C24.3164 22.2036 24.2662 22.1143 24.2433 22.0164C24.2203 21.9184 24.2256 21.8159 24.2585 21.7209C24.2914 21.6259 24.3505 21.5424 24.4289 21.4801C24.5073 21.4179 24.6017 21.3795 24.701 21.3696Z" fill="#2D4941" stroke="#2D4941" stroke-width="0.2"/>
<path d="M7.76206 61.161C7.76206 60.413 7.93073 59.742 8.26806 59.148C8.6054 58.5467 9.06373 58.0773 9.64306 57.74C10.2297 57.4027 10.8787 57.234 11.5901 57.234C12.4261 57.234 13.1557 57.4357 13.7791 57.839C14.4024 58.2423 14.8571 58.8143 15.1431 59.555H13.9441C13.7314 59.093 13.4234 58.7373 13.0201 58.488C12.6241 58.2387 12.1474 58.114 11.5901 58.114C11.0547 58.114 10.5744 58.2387 10.1491 58.488C9.72373 58.7373 9.39006 59.093 9.14806 59.555C8.90606 60.0097 8.78506 60.545 8.78506 61.161C8.78506 61.7697 8.90606 62.305 9.14806 62.767C9.39006 63.2217 9.72373 63.5737 10.1491 63.823C10.5744 64.0723 11.0547 64.197 11.5901 64.197C12.1474 64.197 12.6241 64.076 13.0201 63.834C13.4234 63.5847 13.7314 63.229 13.9441 62.767H15.1431C14.8571 63.5003 14.4024 64.0687 13.7791 64.472C13.1557 64.868 12.4261 65.066 11.5901 65.066C10.8787 65.066 10.2297 64.901 9.64306 64.571C9.06373 64.2337 8.6054 63.768 8.26806 63.174C7.93073 62.58 7.76206 61.909 7.76206 61.161ZM16.2591 61.964C16.2591 61.348 16.3838 60.809 16.6331 60.347C16.8825 59.8777 17.2235 59.5147 17.6561 59.258C18.0961 59.0013 18.5838 58.873 19.1191 58.873C19.6471 58.873 20.1055 58.9867 20.4941 59.214C20.8828 59.4413 21.1725 59.7273 21.3631 60.072V58.972H22.3751V65H21.3631V63.878C21.1651 64.23 20.8681 64.5233 20.4721 64.758C20.0835 64.9853 19.6288 65.099 19.1081 65.099C18.5728 65.099 18.0888 64.967 17.6561 64.703C17.2235 64.439 16.8825 64.0687 16.6331 63.592C16.3838 63.1153 16.2591 62.5727 16.2591 61.964ZM21.3631 61.975C21.3631 61.5203 21.2715 61.1243 21.0881 60.787C20.9048 60.4497 20.6555 60.193 20.3401 60.017C20.0321 59.8337 19.6911 59.742 19.3171 59.742C18.9431 59.742 18.6021 59.83 18.2941 60.006C17.9861 60.182 17.7405 60.4387 17.5571 60.776C17.3738 61.1133 17.2821 61.5093 17.2821 61.964C17.2821 62.426 17.3738 62.8293 17.5571 63.174C17.7405 63.5113 17.9861 63.7717 18.2941 63.955C18.6021 64.131 18.9431 64.219 19.3171 64.219C19.6911 64.219 20.0321 64.131 20.3401 63.955C20.6555 63.7717 20.9048 63.5113 21.0881 63.174C21.2715 62.8293 21.3631 62.4297 21.3631 61.975ZM31.3157 58.862C31.7851 58.862 32.2031 58.961 32.5697 59.159C32.9364 59.3497 33.2261 59.6393 33.4387 60.028C33.6514 60.4167 33.7577 60.8897 33.7577 61.447V65H32.7677V61.59C32.7677 60.9887 32.6174 60.5303 32.3167 60.215C32.0234 59.8923 31.6237 59.731 31.1177 59.731C30.5971 59.731 30.1827 59.8997 29.8747 60.237C29.5667 60.567 29.4127 61.0473 29.4127 61.678V65H28.4227V61.59C28.4227 60.9887 28.2724 60.5303 27.9717 60.215C27.6784 59.8923 27.2787 59.731 26.7727 59.731C26.2521 59.731 25.8377 59.8997 25.5297 60.237C25.2217 60.567 25.0677 61.0473 25.0677 61.678V65H24.0667V58.972H25.0677V59.841C25.2657 59.5257 25.5297 59.2837 25.8597 59.115C26.1971 58.9463 26.5674 58.862 26.9707 58.862C27.4767 58.862 27.9241 58.9757 28.3127 59.203C28.7014 59.4303 28.9911 59.764 29.1817 60.204C29.3504 59.7787 29.6291 59.4487 30.0177 59.214C30.4064 58.9793 30.8391 58.862 31.3157 58.862ZM36.4007 60.083C36.5987 59.7383 36.8921 59.4523 37.2807 59.225C37.6767 58.9903 38.1351 58.873 38.6557 58.873C39.1911 58.873 39.6751 59.0013 40.1077 59.258C40.5477 59.5147 40.8924 59.8777 41.1417 60.347C41.3911 60.809 41.5157 61.348 41.5157 61.964C41.5157 62.5727 41.3911 63.1153 41.1417 63.592C40.8924 64.0687 40.5477 64.439 40.1077 64.703C39.6751 64.967 39.1911 65.099 38.6557 65.099C38.1424 65.099 37.6877 64.9853 37.2917 64.758C36.9031 64.5233 36.6061 64.2337 36.4007 63.889V67.86H35.3997V58.972H36.4007V60.083ZM40.4927 61.964C40.4927 61.5093 40.4011 61.1133 40.2177 60.776C40.0344 60.4387 39.7851 60.182 39.4697 60.006C39.1617 59.83 38.8207 59.742 38.4467 59.742C38.0801 59.742 37.7391 59.8337 37.4237 60.017C37.1157 60.193 36.8664 60.4533 36.6757 60.798C36.4924 61.1353 36.4007 61.5277 36.4007 61.975C36.4007 62.4297 36.4924 62.8293 36.6757 63.174C36.8664 63.5113 37.1157 63.7717 37.4237 63.955C37.7391 64.131 38.0801 64.219 38.4467 64.219C38.8207 64.219 39.1617 64.131 39.4697 63.955C39.7851 63.7717 40.0344 63.5113 40.2177 63.174C40.4011 62.8293 40.4927 62.426 40.4927 61.964ZM42.4593 61.964C42.4593 61.348 42.584 60.809 42.8333 60.347C43.0827 59.8777 43.4237 59.5147 43.8563 59.258C44.2963 59.0013 44.784 58.873 45.3193 58.873C45.8473 58.873 46.3057 58.9867 46.6943 59.214C47.083 59.4413 47.3727 59.7273 47.5633 60.072V58.972H48.5753V65H47.5633V63.878C47.3653 64.23 47.0683 64.5233 46.6723 64.758C46.2837 64.9853 45.829 65.099 45.3083 65.099C44.773 65.099 44.289 64.967 43.8563 64.703C43.4237 64.439 43.0827 64.0687 42.8333 63.592C42.584 63.1153 42.4593 62.5727 42.4593 61.964ZM47.5633 61.975C47.5633 61.5203 47.4717 61.1243 47.2883 60.787C47.105 60.4497 46.8557 60.193 46.5403 60.017C46.2323 59.8337 45.8913 59.742 45.5173 59.742C45.1433 59.742 44.8023 59.83 44.4943 60.006C44.1863 60.182 43.9407 60.4387 43.7573 60.776C43.574 61.1133 43.4823 61.5093 43.4823 61.964C43.4823 62.426 43.574 62.8293 43.7573 63.174C43.9407 63.5113 44.1863 63.7717 44.4943 63.955C44.8023 64.131 45.1433 64.219 45.5173 64.219C45.8913 64.219 46.2323 64.131 46.5403 63.955C46.8557 63.7717 47.105 63.5113 47.2883 63.174C47.4717 62.8293 47.5633 62.4297 47.5633 61.975ZM52.7529 58.873C53.2736 58.873 53.7283 58.9867 54.1169 59.214C54.5129 59.4413 54.8063 59.7273 54.9969 60.072V58.972H56.0089V65.132C56.0089 65.682 55.8916 66.1697 55.6569 66.595C55.4223 67.0277 55.0849 67.365 54.6449 67.607C54.2123 67.849 53.7063 67.97 53.1269 67.97C52.3349 67.97 51.6749 67.783 51.1469 67.409C50.6189 67.035 50.3073 66.5253 50.2119 65.88H51.2019C51.3119 66.2467 51.5393 66.54 51.8839 66.76C52.2286 66.9873 52.6429 67.101 53.1269 67.101C53.6769 67.101 54.1243 66.9287 54.4689 66.584C54.8209 66.2393 54.9969 65.7553 54.9969 65.132V63.867C54.7989 64.219 54.5056 64.5123 54.1169 64.747C53.7283 64.9817 53.2736 65.099 52.7529 65.099C52.2176 65.099 51.7299 64.967 51.2899 64.703C50.8573 64.439 50.5163 64.0687 50.2669 63.592C50.0176 63.1153 49.8929 62.5727 49.8929 61.964C49.8929 61.348 50.0176 60.809 50.2669 60.347C50.5163 59.8777 50.8573 59.5147 51.2899 59.258C51.7299 59.0013 52.2176 58.873 52.7529 58.873ZM54.9969 61.975C54.9969 61.5203 54.9053 61.1243 54.7219 60.787C54.5386 60.4497 54.2893 60.193 53.9739 60.017C53.6659 59.8337 53.3249 59.742 52.9509 59.742C52.5769 59.742 52.2359 59.83 51.9279 60.006C51.6199 60.182 51.3743 60.4387 51.1909 60.776C51.0076 61.1133 50.9159 61.5093 50.9159 61.964C50.9159 62.426 51.0076 62.8293 51.1909 63.174C51.3743 63.5113 51.6199 63.7717 51.9279 63.955C52.2359 64.131 52.5769 64.219 52.9509 64.219C53.3249 64.219 53.6659 64.131 53.9739 63.955C54.2893 63.7717 54.5386 63.5113 54.7219 63.174C54.9053 62.8293 54.9969 62.4297 54.9969 61.975ZM60.6375 58.862C61.3708 58.862 61.9648 59.0857 62.4195 59.533C62.8742 59.973 63.1015 60.611 63.1015 61.447V65H62.1115V61.59C62.1115 60.9887 61.9612 60.5303 61.6605 60.215C61.3598 59.8923 60.9492 59.731 60.4285 59.731C59.9005 59.731 59.4788 59.896 59.1635 60.226C58.8555 60.556 58.7015 61.0363 58.7015 61.667V65H57.7005V58.972H58.7015V59.83C58.8995 59.522 59.1672 59.2837 59.5045 59.115C59.8492 58.9463 60.2268 58.862 60.6375 58.862ZM70.2366 61.755C70.2366 61.9457 70.2256 62.1473 70.2036 62.36H65.3856C65.4223 62.954 65.624 63.4197 65.9906 63.757C66.3646 64.087 66.8156 64.252 67.3436 64.252C67.7763 64.252 68.1356 64.153 68.4216 63.955C68.715 63.7497 68.9203 63.4783 69.0376 63.141H70.1156C69.9543 63.7203 69.6316 64.1933 69.1476 64.56C68.6636 64.9193 68.0623 65.099 67.3436 65.099C66.7716 65.099 66.2583 64.9707 65.8036 64.714C65.3563 64.4573 65.0043 64.0943 64.7476 63.625C64.491 63.1483 64.3626 62.5983 64.3626 61.975C64.3626 61.3517 64.4873 60.8053 64.7366 60.336C64.986 59.8667 65.3343 59.5073 65.7816 59.258C66.2363 59.0013 66.757 58.873 67.3436 58.873C67.9156 58.873 68.4216 58.9977 68.8616 59.247C69.3016 59.4963 69.639 59.841 69.8736 60.281C70.1156 60.7137 70.2366 61.205 70.2366 61.755ZM69.2026 61.546C69.2026 61.1647 69.1183 60.8383 68.9496 60.567C68.781 60.2883 68.55 60.0793 68.2566 59.94C67.9706 59.7933 67.6516 59.72 67.2996 59.72C66.7936 59.72 66.361 59.8813 66.0016 60.204C65.6496 60.5267 65.448 60.974 65.3966 61.546H69.2026Z" fill="#2D4941"/>
</svg>
