<svg width="77" height="128" viewBox="0 0 77 128" fill="none" xmlns="http://www.w3.org/2000/svg">
<rect x="0.25" y="0.25" width="76.5" height="127.5" rx="9.75" fill="#F5EFE7" stroke="#2D4941" stroke-width="0.5"/>
<path d="M43.3306 15.2958C42.4138 14.3735 41.5729 13.9377 40.8331 14.0072C35.7811 14.4809 25.9428 30.1211 25.0449 54.2573C24.5075 68.7226 28.8956 77.8945 32.5691 82.9858C32.5249 82.9668 32.4933 82.9352 32.449 82.9163C31.431 82.4552 30.3182 82.6004 29.2496 82.771C28.9461 82.8152 29.0789 83.2763 29.3761 83.2258C30.3056 83.0805 31.3235 82.9289 32.2151 83.3269C32.8284 83.5985 33.3026 84.0912 33.6124 84.6786C32.8094 84.2681 31.9052 84.0659 30.9947 84.1101C30.6913 84.1228 30.6913 84.5965 30.9947 84.5839C32.2467 84.5207 33.4923 84.9566 34.4217 85.7967C34.1625 85.8662 33.8969 85.9862 33.663 86.0746C32.9675 86.3463 32.2403 86.5547 31.5069 86.7C31.2097 86.7568 31.3362 87.218 31.6334 87.1548C32.2783 87.0285 32.9106 86.8516 33.5239 86.6305C33.8337 86.5168 34.1309 86.3715 34.4344 86.2641C34.6936 86.1757 34.9529 86.1441 35.1489 86.3778C35.1805 86.4157 35.2121 86.4347 35.25 86.441C35.1868 86.4536 35.1236 86.4536 35.0667 86.4726C34.5988 86.5863 34.1435 86.7821 33.7199 87.0221C32.86 87.5148 32.1455 88.216 31.5069 88.9614C31.3109 89.1888 31.646 89.5299 31.842 89.2962C32.3731 88.6771 32.9548 88.0834 33.644 87.6285C33.9855 87.4011 34.3459 87.2116 34.7252 87.0727C34.9149 87.0032 35.1046 86.9463 35.3006 86.9084C35.4018 86.8895 35.5029 86.8705 35.6041 86.8579C35.6547 86.8516 35.7053 86.8453 35.7622 86.839C35.876 86.8263 35.8633 86.8516 35.8254 86.7947C35.8507 86.8263 35.8823 86.8516 35.9266 86.8642C36.0846 87.0158 36.2364 87.1548 36.3755 87.2811C36.1479 87.3317 35.9202 87.4517 35.7306 87.5464C35.2563 87.7738 34.8011 88.0518 34.3838 88.3676C33.5492 89.0056 32.841 89.8078 32.3289 90.7237C32.1771 90.989 32.5881 91.2291 32.7399 90.9638C33.1761 90.1931 33.7389 89.5109 34.4154 88.9424C34.7442 88.6645 35.0983 88.4245 35.4776 88.2097C35.6673 88.1023 35.8633 88.0012 36.0657 87.9128C36.1668 87.8686 36.268 87.8244 36.3755 87.7802C36.3945 87.7738 36.4893 87.7422 36.5462 87.7233C35.7685 88.355 35.1742 89.1761 34.8454 90.13C34.7442 90.4205 35.2058 90.5406 35.3006 90.2563C35.6168 89.3404 36.2174 88.5255 36.9951 87.9507C37.0267 87.9254 37.052 87.9002 37.071 87.8686C37.1279 87.9128 37.1785 87.9507 37.2164 87.9823C37.3872 102.89 38.0131 112.725 38.2597 113.167C38.5442 113.672 39.0374 113.982 39.5812 114.001C39.5938 114.001 39.6065 114.001 39.6191 114.001C40.1629 114.001 40.6561 113.704 40.9849 113.18C41.1935 112.845 41.1176 110.325 40.8584 102.391C40.7383 98.8028 40.5928 94.3495 40.4601 89.2014C40.4917 89.2204 40.5296 89.233 40.5675 89.233C41.0797 89.2835 41.5097 89.6689 41.7689 90.0921C42.0977 90.629 42.2115 91.2733 42.3253 91.8797C42.3822 92.1766 42.8375 92.0503 42.7805 91.7534C42.6478 91.0585 42.5087 90.3384 42.1103 89.7447C41.9206 89.4604 41.674 89.2267 41.3958 89.0498C42.3253 88.8477 43.4255 88.7466 44.14 89.492C44.3486 89.7131 44.6837 89.3783 44.4751 89.1572C44.1147 88.7782 43.6784 88.5824 43.2105 88.5003C44.0894 88.1276 45.1706 88.2918 45.8724 88.9424C46.0937 89.1509 46.4352 88.8161 46.2075 88.6076C45.727 88.1655 45.1137 87.9065 44.4751 87.8433C44.943 87.6349 45.4867 87.6665 45.9167 87.9507C46.0242 88.0202 46.1759 87.9697 46.2391 87.8686C46.3087 87.7549 46.2644 87.6159 46.1569 87.5464C45.7776 87.3001 45.3097 87.199 44.8671 87.2495C44.924 87.2053 44.9746 87.1674 45.0315 87.1232C45.4109 86.8137 45.8092 86.4536 46.2075 86.0241C46.2518 86.0431 46.3087 86.0557 46.3593 86.0367C46.8588 85.8725 47.352 85.7841 47.8704 85.7651C47.9969 85.7651 48.1107 85.6577 48.1107 85.5251C48.1107 85.3988 48.0095 85.285 47.8704 85.285C47.6238 85.2914 47.3836 85.323 47.1433 85.3608C47.5543 85.1398 47.9906 84.9818 48.4585 84.8871C48.5849 84.8618 48.6545 84.7102 48.6229 84.5965C48.5849 84.4639 48.4585 84.407 48.332 84.4323C47.9653 84.5081 47.6049 84.6281 47.2634 84.7797C49.8432 81.3876 52.4924 75.1909 53.6495 63.884C55.9827 40.8153 48.3004 20.2986 43.3306 15.2958ZM35.446 86.4031C35.446 86.4031 35.4524 86.4094 35.4587 86.4157C35.446 86.4157 35.4334 86.4157 35.4207 86.4157C35.4271 86.4157 35.4397 86.4031 35.446 86.3968V86.4031ZM40.5739 112.927C40.3273 113.319 39.9542 113.508 39.5875 113.527C39.2145 113.521 38.873 113.3 38.677 112.946C38.1649 111.411 35.9961 67.1561 40.2008 23.0464C38.892 57.0051 39.8847 87.2875 40.3842 102.403C40.5802 108.291 40.7193 112.542 40.5802 112.927H40.5739ZM53.15 63.8398C50.7537 87.2685 41.8953 88.5129 40.4284 88.5571C39.9542 70.3902 39.6128 43.7652 41.0101 15.2137L40.5359 15.1758C37.5515 41.4786 37.0015 68.4194 37.2038 87.3822C36.9572 87.1801 36.6031 86.8769 36.1732 86.4663C36.1732 86.4663 36.1732 86.4663 36.1668 86.46C34.9276 85.2787 33.0497 83.2195 31.2224 80.1243C28.3644 75.2794 25.0513 66.8655 25.5192 54.2763C26.4676 28.8767 36.7169 14.8662 40.8774 14.4809C41.4527 14.4304 42.1925 14.822 42.9955 15.6306C45.7333 18.3847 48.8062 25.3141 50.8295 33.2795C52.5999 40.2531 54.4399 51.219 53.15 63.8398Z" fill="#021120"/>
<path d="M31.8132 35.0635C31.2094 36.2162 30.7948 37.5181 30.4035 38.7545C30.2826 39.1366 30.0702 39.6524 30.0702 40.0705C30.0702 40.162 30.1373 39.9 30.1674 39.8135C30.3881 39.1795 30.6253 38.5516 30.8653 37.9246C31.298 36.7947 31.6964 35.6215 32.2507 34.5427C32.2988 34.4491 32.8723 33.4562 32.6535 34.0496C31.7942 36.3799 28.6539 43.1391 29.7646 40.9177C30.1572 40.1325 30.3932 39.2076 30.6952 38.3864C31.1834 37.0591 31.6758 35.7403 32.2611 34.4524C32.2832 34.4038 32.6004 33.6488 32.5424 34.1052C32.36 35.5417 31.7159 36.9642 31.2125 38.3066C30.8737 39.2101 30.511 40.1096 30.2959 41.0531C30.2781 41.1312 30.2385 41.362 30.2785 41.2927C30.5392 40.8408 30.7072 40.2101 30.8827 39.7406C31.4982 38.0932 32.1122 36.4453 32.723 34.7962C32.7593 34.6981 32.8666 34.4105 32.8618 34.5149C32.8387 35.0246 32.5811 35.649 32.4313 36.1087C31.9886 37.4673 31.468 38.7975 30.9799 40.1399C30.8656 40.4542 30.7442 40.771 30.6709 41.0982C30.6455 41.2116 30.5357 41.4974 30.6396 41.4455C30.6721 41.4292 30.6805 41.3849 30.6952 41.3517C30.8085 41.0958 31.0032 40.5375 31.0702 40.3482C31.4237 39.3489 31.7604 38.3438 32.0841 37.3343C32.3427 36.5277 32.5864 35.7164 32.848 34.9107C32.9001 34.7502 32.992 34.3179 33.1257 34.1538C33.1847 34.0815 33.1735 34.3392 33.1605 34.4316C33.0604 35.1404 32.8 35.8436 32.5702 36.5149C31.9224 38.4068 31.1135 40.2621 30.5702 42.1885C30.4517 42.6086 30.353 43.4313 30.723 42.508C31.5609 40.4168 32.1708 38.2208 32.7855 36.0566C32.9427 35.503 33.1575 34.7219 33.3132 34.1468C33.3555 33.9908 33.3969 33.8344 33.4382 33.6781C33.4647 33.5782 33.4356 33.3222 33.5216 33.3795C33.5418 33.393 33.5259 33.4285 33.5216 33.4524C33.4481 33.8593 33.3053 34.3872 33.2021 34.751C32.788 36.2106 32.311 37.6514 31.8445 39.0948C31.3201 40.7171 30.6765 42.3875 30.4868 44.0948C30.3554 45.2774 31.0266 43.464 31.0667 43.3413C32.1136 40.1359 32.8726 36.8215 33.6327 33.5392C33.801 32.8122 33.9493 32.0756 34.1466 31.3552C34.1553 31.3234 34.2389 30.9034 34.282 31.1955C34.3897 31.9257 34.2871 32.7812 34.2091 33.4941C34.01 35.3131 33.6721 37.108 33.216 38.8795C32.6988 40.8886 31.8983 42.8569 31.6153 44.9212C31.4476 46.1444 31.9426 44.6473 32.0355 44.3691C33.1481 41.0368 33.88 37.6121 34.6466 34.1885C34.8929 33.0883 35.1212 31.9786 35.4174 30.8899C35.4806 30.6576 35.5494 30.3252 35.6743 30.1052C35.8056 29.8741 35.6569 30.6378 35.6153 30.9003C35.4112 32.1893 35.1289 33.4664 34.8341 34.7371C34.1621 37.6329 33.3022 40.4843 32.6605 43.3864C32.5193 44.025 32.2821 45.8663 32.6813 45.3482C33.1 44.8048 33.2743 43.8361 33.4452 43.2163C33.8969 41.5779 34.2689 39.9186 34.6118 38.2545C35.1058 35.8579 35.4229 33.3778 36.1396 31.0323C36.1702 30.932 36.2716 30.6604 36.2993 30.7614C36.4598 31.346 36.3248 32.2231 36.2716 32.7996C35.961 36.1619 34.986 39.4466 34.3966 42.7649C34.2711 43.4712 34.172 44.1826 34.1049 44.8968C34.0894 45.0614 34.0171 45.4121 34.1049 45.5843C34.2046 45.78 34.3358 45.2016 34.3827 44.9871C34.7229 43.432 34.981 41.8502 35.2299 40.2788C35.733 37.1022 35.9519 33.8793 36.5355 30.7163C36.6206 30.255 36.7141 29.7803 36.8653 29.3343C36.9514 29.0805 36.978 29.1907 36.973 29.4246C36.8901 33.2697 34.4007 44.5836 35.2577 40.8343C36.3541 36.0375 35.5528 30.8686 37.3341 26.2163C37.529 25.7071 37.7623 25.2225 38.0216 24.7441C38.06 24.6731 38.1783 24.3738 38.2681 24.3239C38.419 24.2401 38.2249 24.6674 38.1813 24.8343C38.0001 25.5279 37.7931 26.2159 37.5806 26.9003C37.0196 28.7071 35.1793 34.0718 35.8861 32.317C36.6315 30.4665 37.1281 28.5157 37.7021 26.6087C37.9833 25.6743 38.1958 24.4728 38.7716 23.6503C38.7955 23.6161 38.8421 23.5322 38.8653 23.567C38.9311 23.6657 38.784 24.2052 38.7785 24.2302C38.4275 25.8285 37.9373 27.4088 37.4174 28.9593C37.2761 29.3807 36.8869 30.6558 37.0146 30.2302C37.4043 28.9313 37.8694 27.6521 38.3271 26.376C38.6938 25.3539 39.004 24.1925 39.6327 23.2857C39.7319 23.1426 39.7525 23.1985 39.723 23.3587C39.6262 23.883 39.4276 24.4017 39.2577 24.9038C38.5978 26.8537 36.5623 32.6844 37.2299 30.7371C38.1681 28.0007 38.8393 25.2064 40.0459 22.567C40.2492 22.1221 40.7609 20.7663 40.6952 21.251C40.6099 21.8802 40.3356 22.5364 40.1396 23.133C39.8803 23.9222 39.6067 24.7061 39.2959 25.4767C39.0253 26.1475 38.7222 26.8035 38.466 27.4802C38.4467 27.5311 38.255 28.1448 38.341 27.7649C38.7216 26.0839 39.2802 24.4314 39.7646 22.7788C40.0464 21.8176 40.2975 20.8372 40.6257 19.8899C40.6392 19.851 40.7749 19.4008 40.7368 19.5531C40.5828 20.1692 40.3575 20.7606 40.157 21.3621C40.0268 21.7526 39.9198 22.1456 39.8132 22.5427C39.7934 22.6167 39.7487 22.9029 39.6639 22.9593C39.5175 23.0569 39.646 22.6062 39.6674 22.4316C39.7618 21.6616 39.9251 20.9003 40.091 20.1434C40.3321 19.0433 41.0506 15.7419 40.8063 16.8413C40.6959 17.3379 40.4913 17.8189 40.3202 18.2962C40.1701 18.7147 40.0792 19.2317 39.8549 19.6191C39.8172 19.6842 39.8452 19.0908 39.8549 19.0357C39.9902 18.2706 40.2608 17.5207 40.4868 16.7788C40.5909 16.4372 40.6882 16.1076 40.6882 15.751C40.6882 15.5544 40.7401 15.3805 40.7507 15.1885C40.7582 15.0549 40.9821 14.5772 40.6743 14.8621C39.7254 15.7408 38.9171 16.9264 38.3132 18.067C37.9307 18.7896 37.4996 19.4851 37.1466 20.2232C35.9199 22.7881 35.0027 25.4798 34.0702 28.1607C33.3663 30.1843 32.4367 32.1246 31.7924 34.1677C31.6048 34.7624 31.7002 34.2044 31.7577 33.9385C32.1755 32.0061 32.8641 30.098 33.6466 28.2857C33.9839 27.5045 34.3838 26.7621 34.775 26.008C34.9231 25.7226 35.0628 25.4331 35.2091 25.1468C35.216 25.1332 35.3525 24.8417 35.2785 25.0913C34.3121 28.3531 32.3885 31.2652 31.3271 34.4871C31.1374 35.0632 30.6944 36.8277 30.8167 36.2337C31.1653 34.5404 31.703 32.8732 32.223 31.2267C32.4473 30.5163 32.8165 29.7711 32.9278 29.0288C32.9351 28.9804 32.9363 28.8414 32.9105 28.883C32.6774 29.2588 32.4904 29.7091 32.3028 30.1017C31.4889 31.8057 30.8042 33.5519 30.2855 35.3691C30.0928 36.0441 29.9142 36.7339 29.8028 37.4281C29.7871 37.526 29.7701 37.6242 29.7646 37.7232C29.7631 37.7504 29.764 37.8236 29.782 37.8031C29.8274 37.7512 29.8411 37.6779 29.8618 37.6121C30.444 35.7701 30.8568 33.8517 31.2716 31.9663C31.3907 31.4249 31.801 29.8154 31.6257 30.3413C30.8172 32.7669 29.8724 35.1555 29.1396 37.6052C29.0236 37.993 28.7269 39.1698 28.8549 38.7857C29.3177 37.3972 29.6829 35.9569 30.0563 34.5427C30.2827 33.685 30.5301 32.8009 30.6188 31.9142C30.624 31.8619 30.6369 31.7227 30.598 31.758C30.4709 31.873 30.3737 32.2204 30.3236 32.3482C29.6573 34.051 28.9717 35.7677 28.4764 37.5288C28.0288 39.1205 29.4956 34.3743 29.8098 32.751C29.8695 32.4426 29.8507 32.8442 29.8306 32.9385C29.6436 33.8159 29.3166 34.6841 29.0389 35.5357C28.8476 36.1226 28.6572 36.7056 28.5146 37.3066C28.482 37.4439 28.3696 37.8789 28.4938 37.4593C28.723 36.6849 29.0125 35.9298 29.2368 35.1538C29.339 34.8003 29.6373 33.7737 29.4105 34.0635C29.2165 34.3114 29.1239 34.7741 29.025 35.06C28.8014 35.7069 28.5824 36.3568 28.3827 37.0114C28.2973 37.2911 28.2507 37.6688 28.2507 37.2093C28.2507 35.606 29.1119 34.2334 29.4521 32.7024C29.6743 31.7028 30.0313 30.5667 30.5042 29.6503C30.9698 28.7483 31.3472 27.7666 31.8827 26.9038C32.3613 26.1326 32.8369 25.3683 33.341 24.6121C34.3014 23.1715 35.217 21.701 36.223 20.2927C37.163 18.9766 37.9667 17.5975 39.1223 16.442C39.5237 16.0405 39.9286 15.4722 40.4382 15.2024C40.7233 15.0515 40.5162 14.6217 40.1882 14.7857C39.9943 14.8827 39.8209 15.1372 39.6535 15.2823C39.3747 15.5239 39.094 15.7393 38.8375 16.008C38.1134 16.7666 37.4105 17.4997 36.9243 18.4385C36.6698 18.9301 36.296 19.4041 35.966 19.8482C35.5466 20.4128 35.2285 21.0365 34.8341 21.6191C34.2964 22.4132 33.9313 23.2995 33.525 24.1642C32.9359 25.418 32.2871 26.6224 31.8098 27.9281C31.3556 29.1704 31.1032 30.4025 30.9695 31.7128C30.9595 31.8107 30.919 32.0944 30.966 32.008C31.2279 31.5264 31.3988 30.9141 31.6084 30.4177C32.3943 28.5564 33.3314 26.8028 34.3167 25.0427C34.6862 24.3827 35.0459 23.7184 35.4243 23.0635C35.4682 22.9877 35.592 22.756 35.5528 22.8343C35.3512 23.2376 35.1452 23.6388 34.9313 24.0357C34.041 25.6878 33.0732 27.2961 32.1535 28.9316C31.8611 29.4516 31.5663 29.9745 31.3271 30.5218C31.2603 30.6748 31.0592 31.1149 31.1813 31.001C31.3311 30.8612 31.4042 30.657 31.5077 30.4802C32.2342 29.239 32.9343 27.9819 33.6361 26.7267C34.7562 24.7237 35.8713 22.7178 36.9625 20.6989C37.0058 20.619 37.1421 20.3833 37.1049 20.4663C36.9256 20.8664 36.6939 21.2568 36.4799 21.6364C35.4198 23.5172 34.3149 25.3859 33.0736 27.1538C32.8427 27.4828 32.1858 28.4933 32.3896 28.1468C33.1581 26.8404 33.7858 25.4485 34.5424 24.133C34.8633 23.575 35.2015 23.0286 35.5598 22.4941C35.6674 22.3335 35.7032 22.0218 35.8966 22.0218C36.0741 22.0218 35.7409 22.3415 35.65 22.4941C35.3461 23.0043 35.0259 23.5057 34.7091 24.008C34.3086 24.643 33.904 25.2749 33.4834 25.8968C33.4473 25.9502 33.1119 26.5531 32.9799 26.6191C32.9544 26.6318 33.0045 26.5677 33.0181 26.5427C33.0944 26.4023 33.4082 25.8484 33.4278 25.8135C33.8653 25.0364 34.2998 24.2576 34.7368 23.4802C35.0927 22.8472 35.9895 20.8889 35.8341 21.5982C35.7512 21.9764 35.549 22.3641 35.3931 22.7093C34.9602 23.6678 34.4981 24.6129 34.0632 25.5705C33.705 26.3593 33.2787 27.3182 32.9521 28.126C32.9037 28.2458 32.2916 29.4917 32.4417 29.7753C32.4619 29.8135 32.5368 29.8201 32.5702 29.7927C32.9298 29.4967 33.4698 28.561 33.6118 28.3135C34.4329 26.8827 35.1303 25.3852 35.8306 23.8934C36.03 23.4686 36.2445 22.9834 36.0077 23.7371C35.6813 24.7756 35.3246 25.8067 34.966 26.8343C34.2971 28.751 33.4584 30.6194 32.8827 32.567C32.8375 32.7199 32.7929 32.8733 32.7577 33.0288C32.7326 33.1394 32.6474 33.3956 32.7577 33.3691C33.0795 33.2916 33.5821 32.0191 33.6257 31.9246C34.7405 29.5107 35.3359 26.9279 35.8966 24.3413C35.9435 24.1248 36.077 23.474 36.0216 23.6885C35.8461 24.367 35.6874 25.0471 35.5007 25.7232C34.7536 28.4299 33.7647 31.0818 33.0806 33.8031C32.9608 34.2795 32.9433 35.2486 33.473 34.3066C34.1173 33.1606 34.5082 31.8133 34.8792 30.567C35.4407 28.6805 35.8834 26.767 36.2855 24.8413C36.4379 24.1112 36.5643 23.3746 36.7438 22.6503C36.7717 22.5375 36.7973 22.4238 36.8341 22.3135C36.8428 22.2873 36.8733 22.2171 36.8792 22.2441C36.8954 22.3188 36.8793 22.3975 36.8688 22.4732C36.4709 25.3319 35.58 28.137 34.8341 30.9177C34.629 31.6822 34.4004 32.4585 34.2855 33.2441C34.2696 33.3521 34.2494 33.4616 34.2577 33.5705C34.2718 33.756 34.42 33.5829 34.4452 33.5427C35.02 32.6239 35.3679 31.4046 35.716 30.4073C36.393 28.4677 36.9696 26.5019 37.5146 24.5218C37.8871 23.1688 38.2359 21.8091 38.6327 20.4628C38.6769 20.3129 38.7182 20.1618 38.7716 20.0149C38.8127 19.9016 38.8587 19.8642 38.8618 20.0288C38.8763 20.7936 38.6975 21.6031 38.5424 22.3413C38.2327 23.8156 37.8269 25.2685 37.3896 26.7093C36.9022 28.3152 36.3023 29.8935 35.8792 31.5184C35.8597 31.5931 35.8408 31.6681 35.8271 31.7441C35.8201 31.7828 35.8708 31.6774 35.8827 31.6399C36.1259 30.8714 36.3164 30.0825 36.5181 29.3031C37.1571 26.834 37.7487 24.3457 38.5111 21.9107C38.5614 21.7503 38.5918 21.3008 38.6882 21.4385C38.7921 21.5869 38.5669 22.3198 38.5528 22.376C38.1428 24.0068 37.5192 25.5928 36.8757 27.1434C36.7598 27.4229 36.6382 27.6999 36.5424 27.9871C36.432 28.3184 36.7526 27.321 36.8549 26.9871C37.5977 24.5622 38.2107 22.1118 38.775 19.6399C38.8766 19.1949 39.1421 17.8579 39.1153 18.3135C39.058 19.2885 38.675 20.2861 38.341 21.1885C38.0304 22.0278 37.6832 22.8557 37.2993 23.6642C37.2776 23.71 37.0638 24.26 36.9521 24.3205C36.9331 24.3308 36.9335 24.2795 36.9348 24.258C36.9496 24.0009 37.0661 23.484 37.1049 23.31C37.3391 22.2609 37.6347 21.2291 37.9521 20.2024C38.1977 19.408 38.4592 18.6182 38.716 17.8274C38.7801 17.63 38.8358 17.4139 38.9382 17.2302C39.1653 16.8228 38.9534 18.1073 38.9521 18.1121C38.6327 19.3495 38.0245 20.5817 37.4035 21.6955C37.3686 21.758 37.2626 21.9447 37.2924 21.8795C37.5048 21.4149 37.7103 20.9472 37.9174 20.4802C38.2874 19.6457 38.6544 18.8097 39.0355 17.9802C39.2343 17.5472 39.4268 17.0534 39.7091 16.6607C39.745 16.6107 39.8216 16.5099 39.8618 16.5566C39.98 16.6936 39.7992 17.325 39.782 17.4003C39.5751 18.307 39.2182 19.1842 38.8028 20.0149C38.2433 21.1339 39.4929 17.6088 39.8966 16.4246C40.7128 14.0302 38.6007 21.3153 37.9556 23.7614C37.8492 24.1647 37.7378 24.5712 37.6535 24.9802C37.6471 25.0111 37.6396 25.0423 37.6396 25.0739C37.6396 25.1384 37.69 24.955 37.7091 24.8934C38.1211 23.5637 38.4558 22.2118 38.8341 20.8725C38.9592 20.4294 39.0526 20.1055 39.1986 19.6816C39.2582 19.5087 39.309 19.0397 39.4243 19.1816C39.4946 19.268 39.4114 19.8331 39.4105 19.8413C39.3225 20.6497 39.1565 21.4506 38.9521 22.2371C38.7437 23.0392 38.3242 23.7985 38.1396 24.5982C37.9116 25.5862 38.768 22.6693 39.1327 21.7232C39.3069 21.2712 39.4737 20.7582 39.7473 20.3517C39.9086 20.112 39.8771 20.548 39.8757 20.5913C39.8329 21.9057 39.3849 23.2007 38.9591 24.4316C38.7703 24.9771 38.8162 24.9053 38.9035 24.3899C38.96 24.0563 39.0408 23.703 39.0077 23.3621C38.9806 23.084 38.8926 23.1587 38.7507 23.001" stroke="#021120" stroke-linecap="round"/>
<path d="M30.8759 31.8135C30.8825 31.7684 31.0603 29.7788 31.362 29.7788C31.553 29.7788 31.2156 30.1334 31.1155 30.2961C30.8997 30.6468 30.6982 31.001 30.5009 31.3621C30.4161 31.5172 30.3201 31.6666 30.2544 31.8308C30.1863 32.0011 30.3116 31.4669 30.369 31.2927C30.4839 30.9431 30.5964 30.481 30.803 30.1711C30.9262 29.9863 30.7201 30.6124 30.6259 30.8135C30.4874 31.109 30.3553 31.3996 30.2613 31.7128C30.1941 31.9368 30.3494 31.2525 30.4176 31.0288C30.5957 30.4439 30.8182 29.8745 31.0252 29.2996C31.1137 29.0538 31.2362 28.7937 31.2509 28.5288C31.2514 28.5197 30.8667 29.2123 30.7787 29.3968C30.7755 29.4035 30.5602 29.8827 30.5738 29.7197C30.5995 29.4117 30.7082 29.0814 30.8134 28.7927C30.9585 28.3947 31.156 28.0172 31.303 27.619C31.3061 27.6105 31.5269 27.0305 31.4384 27.3274C31.3117 27.7522 31.1288 28.2252 30.9384 28.626C30.7644 28.9923 30.7962 28.893 30.9523 28.5496C31.2808 27.8268 31.6484 27.1155 32.0009 26.4038C32.1478 26.1072 32.2966 25.818 32.3898 25.501C32.4096 25.4335 32.4573 25.3232 32.5287 25.2927C32.5893 25.2667 32.3684 25.7052 32.362 25.7163C31.9966 26.3452 31.5911 26.9387 31.2787 27.5982C31.1896 27.7862 31.2379 27.6422 31.2544 27.494C31.3302 26.8112 31.8124 26.1263 32.1606 25.5565C32.4553 25.0744 32.6636 24.5504 32.9419 24.0635C33.2073 23.599 33.6169 23.2006 33.8446 22.7197C34.0116 22.3672 34.2251 21.9458 34.4523 21.626C34.7761 21.1703 34.9734 20.6408 35.3412 20.2093C35.7727 19.7031 36.0519 19.0956 36.5148 18.6121C37.2253 17.87 37.7909 16.9109 38.5946 16.2857C39.0362 15.9423 38.3699 16.5695 38.2509 16.6885C37.8732 17.0662 37.4641 17.4311 37.1606 17.8725C36.8899 18.2663 36.5984 18.657 36.3099 19.0357C35.8338 19.6606 35.4706 20.3493 35.0321 20.9975C34.4773 21.8178 33.9885 22.7634 33.2821 23.4697C33.2298 23.5221 32.9872 23.8135 33.0981 23.56C33.2118 23.3002 33.3719 23.0763 33.5321 22.8447C33.7641 22.5097 33.9423 22.1065 34.1398 21.751C34.754 20.6453 35.5823 19.5794 36.3481 18.5947C36.6905 18.1546 37.0058 17.7224 37.3481 17.2822C37.4717 17.1234 37.6076 16.8527 37.7856 16.751C37.8801 16.697 38.4868 16.2748 38.1259 16.5635" stroke="#021120" stroke-linecap="round"/>
<path d="M35.9382 37.626C35.9665 36.9829 36.1528 35.0726 35.9903 35.6955C35.6587 36.9667 35.1787 38.2202 34.7646 39.4663C34.592 39.9858 34.3897 40.4986 34.2507 41.0288C34.2397 41.0709 34.0616 41.8152 34.1882 41.4628C34.9429 39.3629 35.5065 37.1987 36.1952 35.0774C36.3108 34.7213 36.4007 34.3505 36.5355 34.001C36.5591 33.9397 36.5981 33.8586 36.5841 33.9941C36.5295 34.5194 36.3917 35.0538 36.282 35.567C35.7233 38.181 35.0064 40.7877 34.7785 43.4594C34.5025 46.6946 36.0156 37.0812 36.466 33.8656C36.5174 33.4986 36.479 32.87 36.6257 32.4941C36.8431 31.9371 36.6133 33.6921 36.5424 34.2857C36.1997 37.1561 35.4237 39.9886 35.2021 42.8691C35.1606 43.4085 35.2426 43.0515 35.341 42.6191C35.8319 40.4632 36.2557 38.292 36.6813 36.1225C36.9506 34.7498 37.2115 33.3756 37.4521 31.9975C37.5668 31.3405 37.631 30.6655 37.7785 30.0149C37.8167 29.8464 37.9382 29.3491 37.9382 29.5219C37.9382 30.251 37.6788 31.0468 37.5389 31.751C37.2235 33.3394 36.9132 34.9289 36.5528 36.508C36.3648 37.3318 36.0888 38.1632 35.966 39.001C35.6319 41.2811 36.9416 34.496 37.3618 32.2302C37.7165 30.3179 38.107 28.4491 38.598 26.5705C38.66 26.3329 39.0088 25.1526 38.8341 26.0635C38.2957 28.8706 36.6624 37.2883 37.1952 34.4802C37.625 32.2145 38.2369 29.9906 38.8341 27.7649C39.0529 26.9492 39.3352 26.1302 39.3757 25.2788C39.3935 24.9064 39.1329 25.9861 39.0598 26.3517C38.6116 28.5928 38.0608 30.8063 37.5285 33.0288C37.4192 33.4853 37.3233 33.9426 37.2368 34.4038C37.2254 34.465 37.1681 35.1061 37.098 35.1295C37.035 35.1505 37.1064 34.9967 37.1188 34.9316C37.2379 34.3043 37.3826 33.6811 37.5146 33.0566C37.8534 31.4544 38.1691 29.8477 38.4834 28.2406C38.5959 27.6651 38.6915 27.0851 38.8132 26.5114C38.8393 26.3887 38.8696 25.9431 38.9868 25.8552C39.1327 25.7458 38.9451 26.2178 38.9105 26.3969C38.6919 27.5262 38.5071 28.6588 38.3341 29.7962C37.9808 32.119 37.5403 34.4333 37.2507 36.7649C37.2291 36.9388 37.1679 37.4518 37.1396 37.2788C37.1252 37.1906 37.1373 36.8722 37.1396 36.8344C37.1946 35.9437 37.3289 35.0568 37.4556 34.1746C37.7999 31.7774 38.239 29.3936 38.5632 26.9941C38.6292 26.5057 38.7438 26.1242 38.7438 26.9038C38.7438 29.1384 38.2626 31.3928 37.841 33.5774C37.7412 34.0946 37.6652 34.6156 37.5667 35.133C37.5393 35.277 37.4761 35.653 37.5146 35.2649C37.7928 32.4617 38.4072 29.7159 38.7993 26.9316C39.1314 24.5742 38.227 31.6589 38.0007 34.0288C37.9656 34.397 37.9243 34.7647 37.8896 35.133C37.8864 35.1675 37.8809 35.2707 37.8896 35.2371C37.9379 35.0501 37.9552 34.8429 37.9834 34.6538C38.2602 32.7974 38.5436 30.9256 38.723 29.0566C38.7821 28.4397 38.8132 27.8218 38.8132 27.2024C38.8132 27.1165 38.8131 26.8937 38.8757 26.9524C38.9543 27.0261 38.9213 27.1642 38.9243 27.2719C38.9414 27.8692 38.9009 28.4679 38.8236 29.06C38.6032 30.7504 38.2638 32.4448 37.9382 34.1191C37.8719 34.4601 37.8094 34.8023 37.7646 35.1469C37.739 35.3442 37.7941 34.7494 37.8271 34.5531C38.1161 32.8353 38.4613 31.1327 38.6882 29.4038C38.7363 29.0377 38.8132 27.9338 38.8132 28.3031C38.8132 30.673 38.4005 33.0648 38.0007 35.3969C37.8736 36.1387 37.7111 36.9059 37.6882 37.6607C37.668 38.3274 37.7006 36.3258 37.7507 35.6607C37.8613 34.1923 38.0662 32.7389 38.2125 31.2753C38.2139 31.2618 38.2507 30.6536 38.2507 30.7719C38.2507 31.2024 38.2541 31.633 38.2507 32.0635C38.2381 33.6853 38.0004 35.2566 37.7855 36.8587C37.7174 37.3657 37.6876 37.8994 37.5632 38.3969C37.5189 38.5743 37.562 38.0311 37.5632 37.8482C37.568 37.1261 37.6522 36.41 37.723 35.692C37.8396 34.5094 37.999 33.3574 38.2368 32.1955C38.2851 31.9597 38.3757 31.2465 38.3757 31.4871C38.3757 32.6591 38.3743 33.8307 38.2473 34.9975C38.1353 36.0265 37.8603 37.05 37.8132 38.0844C37.8115 38.1214 37.8223 37.7484 37.8271 37.6955C37.9117 36.7723 38.0885 35.8502 38.2125 34.9316C38.3577 33.8564 38.551 32.8024 38.5632 31.7163C38.5635 31.6934 38.6114 31.3503 38.6223 31.4316C38.667 31.7673 38.6275 32.1446 38.6118 32.4802C38.5353 34.126 38.2833 35.7516 38.098 37.3864C37.975 38.4708 37.9346 39.5621 37.8132 40.6469C37.7913 40.8429 37.7182 41.9968 37.6917 41.1885C37.6438 39.7262 37.9026 38.266 38.1292 36.8274C38.221 36.2448 38.3258 35.6631 38.3966 35.0774C38.4216 34.8701 38.4421 34.2436 38.4382 34.4524C38.4077 36.0992 38.1327 37.7813 37.907 39.4107C37.7441 40.5863 37.594 41.7758 37.5007 42.9594C37.4626 43.4428 37.4226 43.9269 37.3896 44.4107C37.3872 44.4465 37.3757 45.1101 37.3757 44.751C37.3757 42.6086 37.5781 40.4844 37.7091 38.3482C37.7688 37.3743 37.7507 34.4454 37.7507 35.4212C37.7507 38.4054 36.9321 41.3861 36.3966 44.2996C36.2662 45.0091 36.1294 45.7282 36.0667 46.4489C36.0654 46.4635 36.1781 45.3375 36.1952 45.2094C36.5978 42.1866 37.2507 39.1346 37.2507 36.0739C37.2507 35.9583 37.2625 35.7238 37.2438 36.0566C37.1612 37.5233 36.9611 38.9869 36.7438 40.4385C36.3706 42.931 35.715 45.4307 35.5667 47.9524C35.5515 48.2116 35.6413 47.4386 35.6778 47.1816C35.9537 45.2403 36.2015 43.3019 36.3757 41.3482C36.4775 40.2065 36.5956 39.0576 36.6257 37.9107C36.6375 37.4652 36.5933 37.7521 36.5493 38.06C36.106 41.1635 35.8615 44.3099 35.5771 47.4316C35.5195 48.0646 35.4382 48.711 35.4382 49.3482C35.4382 49.8544 35.7607 48.3859 35.8618 47.8899C36.2762 45.8575 36.5811 43.8052 36.9105 41.758C36.9887 41.2718 37.0659 40.7854 37.1466 40.2996C37.1811 40.0916 37.1973 39.7672 37.3098 39.5705C37.4485 39.3277 37.3754 40.1277 37.3688 40.4073C37.3346 41.8592 37.1891 43.2979 37.0007 44.7371C36.8844 45.6263 36.6003 48.3017 36.7021 47.4107C36.9931 44.8644 37.516 42.3144 37.973 39.7927C38.0182 39.5431 38.1846 38.0725 38.1118 39.1816C37.9682 41.3722 37.5826 43.538 37.3896 45.7232C37.3432 46.2489 37.3139 46.7756 37.2507 47.2996C37.2326 47.4496 37.1696 48.1776 37.1952 47.5253C37.2745 45.5017 37.6441 43.5219 37.9243 41.5219C37.9837 41.0985 38.0416 40.6716 38.0598 40.2441C38.0777 39.8221 38.0651 40.2457 38.0632 40.3969C38.0366 42.5947 37.6534 44.807 37.3549 46.9802C37.2823 47.5087 37.2125 48.0364 37.157 48.567C37.1319 48.8068 37.1185 48.931 37.098 49.1712C37.0842 49.3319 37.1354 49.7981 37.0632 49.6538C36.9914 49.5101 37.0617 49.0355 37.0632 48.9038C37.0789 47.5548 37.2179 46.2222 37.4 44.8864C37.4887 44.2363 37.5873 43.588 37.6535 42.935C37.6635 42.8366 37.6148 42.7099 37.6848 42.6399C37.7011 42.6235 37.6882 42.6862 37.6882 42.7094C37.6882 42.8956 37.6767 43.5441 37.6743 43.633C37.6156 45.8617 37.3546 48.0734 37.1605 50.2927C37.1349 50.5847 37.1257 50.8747 37.1257 51.1677C37.1257 51.6509 37.125 50.9944 37.1257 50.9107C37.1448 48.8597 37.4245 46.8352 37.5563 44.7927C37.5694 44.5894 37.5224 44.3091 37.6118 44.1191C37.7326 43.8625 37.6268 44.6862 37.6223 44.9698C37.5894 47.024 37.3035 49.0566 37.2021 51.1052C37.1855 51.4406 37.1882 51.7764 37.1882 52.1121C37.1882 52.2753 37.1882 52.7404 37.1882 52.2337C37.1882 50.157 37.8111 43.9531 37.7473 46.0288C37.6627 48.777 37.0632 51.4876 37.0632 54.2371C37.0632 55.6719 37.1559 51.3674 37.2855 49.9385C37.3365 49.3761 37.4919 47.6933 37.5007 48.258C37.5212 49.5682 37.397 50.8846 37.282 52.1885C37.2017 53.0985 37.0823 55.8371 37.1257 54.9246C37.2015 53.3342 37.3701 51.7484 37.5285 50.1642C37.537 50.0794 37.5632 49.8255 37.5632 49.9107C37.5632 50.4645 37.5364 51.0179 37.5007 51.5705C37.4234 52.7697 37.2859 53.9615 37.2542 55.1642C37.2495 55.3447 37.2507 55.5253 37.2507 55.7059C37.2507 55.9061 37.2507 55.3054 37.2507 55.1052C37.2507 54.1552 37.3181 51.3096 37.3723 52.258C37.4483 53.588 37.2562 54.9347 37.1605 56.258C37.1524 56.3688 37.1852 57.1464 37.0632 57.2684C36.972 57.3596 37.0338 57.0118 37.0285 56.883C36.9757 55.5856 36.9686 54.2853 36.9799 52.9871C37 50.6787 37.2593 48.3367 37.091 46.0288C37.0764 45.828 37.0869 45.5039 37.0007 45.31C36.9872 45.2796 36.9711 45.3709 36.966 45.4038C36.8904 45.8901 36.8743 46.3943 36.8341 46.883C36.6144 49.5487 36.3044 52.2073 35.9799 54.8621C35.9563 55.0553 35.9547 55.0603 35.9417 55.2163C35.9355 55.2906 35.9382 55.3103 35.9382 55.1503C35.9382 53.339 35.9382 51.5276 35.9382 49.7163C35.9382 47.3077 35.9382 44.8992 35.9382 42.4906C35.9382 42.0262 35.914 43.4191 35.8931 43.883C35.7905 46.1551 35.5181 48.4096 35.2577 50.6677C35.0983 52.0495 34.9466 53.4335 34.8861 54.8239C34.8735 55.1143 34.8566 55.6758 34.8896 55.0427C35.1098 50.8191 35.1882 46.598 35.1882 42.3691C35.1882 41.7919 35.2663 41.1021 35.1535 40.5219C35.0762 40.1243 34.9469 41.3075 34.8966 41.7094C34.635 43.7976 34.3561 45.8832 34.0563 47.9663C33.8343 49.5085 33.5302 51.0621 33.4243 52.6191C33.4198 52.6865 33.4352 52.8867 33.4486 52.8205C33.6153 52.0012 33.5891 51.0643 33.6118 50.2441C33.692 47.3555 33.7026 44.4632 33.657 41.5739C33.6492 41.082 33.6128 39.6065 33.6292 40.0982C33.6786 41.5801 33.6867 43.0545 33.591 44.5357C33.415 47.2595 32.8757 49.9866 32.8757 52.7198C32.8757 53.1712 32.9728 51.8221 33.0146 51.3725C33.2157 49.2111 33.3574 47.0477 33.5146 44.883C33.5238 44.7562 33.6127 43.5922 33.6466 43.3413C33.6535 43.2898 33.6629 43.1487 33.6917 43.192C33.9092 43.5183 33.7888 43.9707 33.8132 44.3621C33.966 46.8059 33.9413 49.2561 33.8757 51.7024C33.8513 52.6136 33.8042 53.5267 33.8132 54.4385C33.8144 54.5528 33.781 54.8659 33.8549 54.7788C34.0688 54.5267 34.1009 53.4924 34.1257 53.2788C34.3281 51.5399 34.3963 49.7918 34.4313 48.0427C34.4505 47.0837 34.45 46.5071 34.473 45.5705C34.485 45.079 34.4498 44.4573 34.5493 43.9594C34.6679 43.3666 34.6052 45.1674 34.6118 45.7719C34.6326 47.6643 34.5591 49.5525 34.4035 51.4385C34.3195 52.4566 34.1809 53.4763 34.1396 54.4975C34.1365 54.5759 34.15 54.8047 34.1743 54.7302C34.3883 54.0742 34.4156 53.2391 34.4868 52.5705C34.7192 50.3903 34.8547 48.2007 35.0216 46.0149C35.0289 45.9189 35.1322 44.5338 35.1743 44.2232C35.2478 43.6819 35.1907 45.3166 35.1605 45.8621C35.045 47.9461 34.8349 50.023 34.4834 52.0809C34.392 52.6158 34.3066 53.0666 34.1813 53.5809C33.9997 54.326 34.0634 53.2182 34.0632 53.1885C34.0368 49.0778 34.1545 44.9317 33.6605 40.8413C33.6577 40.8183 33.446 39.5369 33.4382 39.7371C33.3695 41.5114 33.2757 43.284 33.1188 45.0531C32.9802 46.6162 32.7577 48.1681 32.5806 49.7267C32.5092 50.3552 32.4382 52.2516 32.4382 51.6191C32.4382 47.9851 32.5442 44.3505 32.5667 40.7163C32.5716 39.9181 32.5876 39.1213 32.6223 38.3239C32.6617 37.4173 32.491 40.1348 32.3827 41.0357C32.1758 42.7554 31.8717 44.4626 31.6118 46.1746C31.395 47.6032 31.2232 49.0425 30.9764 50.4663C30.8981 50.9183 30.8827 50.6107 30.8827 50.2545C30.8827 47.7763 30.9695 45.297 31.0493 42.8205C31.0935 41.4508 31.1528 37.3439 31.216 38.7128C31.3461 41.5312 30.6707 44.366 30.2785 47.1399C30.2689 47.2079 30.1223 48.4235 30.1361 47.6538C30.1727 45.6264 30.3655 43.5882 30.5493 41.5705C30.6398 40.5774 30.7599 39.5884 30.8757 38.5982C30.9092 38.3123 30.9637 38.0088 30.9348 37.7198C30.9304 37.6758 30.6223 38.6607 30.6223 38.6607C30.357 39.6295 30.1631 40.6144 29.9313 41.5913C29.8223 42.0507 29.6926 42.5007 29.5563 42.9524C29.537 43.0162 29.5137 43.2009 29.4868 43.1399C29.3982 42.9384 29.4745 42.3964 29.4834 42.2302C29.5744 40.5306 29.9803 38.8392 30.0007 37.1399C30.0056 36.7375 29.9206 36.7902 29.8375 37.1607C29.6403 38.0407 29.4447 38.9246 29.1743 39.7857C29.1535 39.8521 29.0632 40.1149 29.0632 39.8691C29.0632 39.258 29.1616 38.6469 29.1813 38.0357C29.1933 37.6633 29.1882 37.2903 29.1882 36.9177C29.1882 36.8694 29.2005 36.717 29.1223 36.8344C28.9911 37.0311 28.9644 37.3182 28.9 37.5392C28.774 37.9722 28.6159 38.3951 28.4868 38.8274C28.4313 39.0133 28.3308 39.5762 28.3132 39.383C28.269 38.896 28.3946 38.346 28.4695 37.8691C28.4994 37.6789 28.6267 36.761 28.6257 36.7788C28.6006 37.2567 28.4159 37.7337 28.348 38.2094C28.2492 38.9005 28.3346 38.2694 28.3757 37.9594C28.3921 37.8359 28.6098 36.7766 28.4348 37.3309C28.2853 37.8041 28.2429 38.2844 28.1743 38.7719C28.1007 39.2957 28.1787 38.2932 28.1882 38.2163C28.2227 37.9388 28.2529 37.6564 28.3132 37.383C28.361 37.1666 28.382 37.281 28.3375 37.4142C28.2683 37.6219 28.1949 38.2434 28.1257 38.0357C28.0578 37.832 28.1872 37.4545 28.2785 37.2719C28.2842 37.2605 28.2302 37.6908 28.2021 37.8135C28.0069 38.6674 27.8704 39.5247 27.8098 40.4038C27.7541 41.2113 27.4565 41.9991 27.3757 42.8066C27.3081 43.4825 27.1296 44.1432 27.0632 44.8205C26.9416 46.0627 26.8636 47.3115 26.7785 48.5566C26.65 50.4371 26.5632 52.3104 26.5632 54.1955C26.5632 54.6422 26.5632 55.089 26.5632 55.5357C26.5632 56.7346 26.69 53.1399 26.8271 51.9489C27.2283 48.463 28.1428 45.0827 28.973 41.6816C29.145 40.9768 29.313 40.2642 29.5598 39.5809C29.6266 39.3957 29.7507 38.8249 29.7507 39.0219C29.7507 39.3068 29.6838 39.5943 29.6188 39.8691C29.3199 41.1322 28.9903 42.3861 28.7091 43.6538C28.3918 45.0841 28.0796 46.518 27.8757 47.9698C27.8059 48.4674 27.6982 49.9714 27.7646 49.4732C28.1791 46.3646 28.392 43.2294 28.7993 40.1191C28.8561 39.6858 28.8962 39.239 29.0007 38.8135C29.0514 38.6074 29.1545 38.4077 29.0841 38.7649C28.5672 41.3851 28.1816 44.0305 27.7403 46.6642C27.6709 47.0783 27.5702 47.515 27.5702 47.9385C27.5702 48.844 27.8439 46.1482 27.966 45.251C28.2706 43.0132 28.4914 40.7384 28.9348 38.5219C29.502 35.6856 27.8793 44.2112 27.466 47.0739C27.2634 48.4774 27.1612 49.886 27.1327 51.3031C27.1202 51.9243 27.0344 52.8071 27.348 53.383C27.4694 53.6059 27.5688 53.1999 27.5702 53.1955C27.6878 52.8212 27.8695 51.8836 27.9243 51.5705C28.3186 49.3198 28.4862 47.0389 28.6813 44.7649C28.7341 44.149 28.7939 43.4243 28.8653 42.7962C28.8867 42.6082 28.7779 42.2782 28.9625 42.2371C28.9973 42.2294 28.9861 42.3056 28.9868 42.3413C28.9907 42.5184 28.9843 42.6956 28.9764 42.8725C28.9114 44.3302 28.7692 45.7856 28.6257 47.2371C28.3903 49.6199 28.0735 51.995 27.9868 54.3899C27.9641 55.019 27.9986 56.8285 28.2646 56.258C28.4053 55.9562 28.505 55.2741 28.5355 55.0149C28.6416 54.1114 28.7004 52.85 28.7368 51.9802C28.8532 49.205 28.8766 46.4262 29.0563 43.6538C29.0692 43.4552 29.0981 43.037 29.1188 42.7892C29.1254 42.7105 29.1599 42.4578 29.1014 42.9628C28.8397 45.2247 28.4728 47.475 28.1605 49.7302C27.7914 52.3942 26.8181 60.4014 27.2542 57.7475C27.9459 53.5379 28.2431 49.2266 28.3723 44.9628C28.376 44.8384 28.3888 44.7444 28.3514 44.9073C28.2933 45.1606 28.1399 45.9141 28.1188 46.0184C27.6864 48.1574 27.2354 50.3172 27.0424 52.4941C26.9445 53.5981 26.9022 54.7569 27.0146 55.8621C27.0249 55.9635 27.0085 56.0887 27.0806 56.1607C27.1197 56.1999 27.1681 56.0825 27.1813 56.0288C27.7273 53.8009 27.882 51.363 28.1743 49.1052C28.2839 48.2595 28.6942 44.9996 28.8653 43.7927C28.9002 43.5465 28.9231 43.297 28.9868 43.0566C29.0007 43.0041 29.0156 43.1621 29.0181 43.2163C29.0426 43.7449 28.9903 44.6565 28.966 45.0774C28.842 47.2278 28.6308 49.3706 28.4313 51.5149C28.2322 53.6554 28.0017 55.8069 27.9938 57.9594C27.9936 58.0174 27.9986 58.885 28.0771 59.0774C28.2321 59.4573 28.5597 58.395 28.6743 58.001C29.3376 55.7215 29.5088 53.3282 29.6396 50.9698C29.8207 47.7051 29.8928 44.4342 30.0355 41.1677C30.0465 40.9154 30.0742 40.663 30.0632 40.4107C30.0515 40.1398 30.0369 40.9525 30.0216 41.2232C29.842 44.4036 29.4872 47.5689 29.2403 50.7441C29.0742 52.8808 28.9452 55.0204 28.9452 57.1642C28.9452 57.8928 28.8949 60.0275 29.1396 59.3413C29.2436 59.0498 29.4048 57.8354 29.4105 57.7927C29.7338 55.3449 29.9568 52.8841 30.1674 50.4246C30.3823 47.9148 30.5258 45.3958 30.7855 42.8899C30.858 42.1896 30.7624 44.2985 30.716 45.001C30.4496 49.0378 29.9837 53.0557 29.6257 57.0844C29.5007 58.4921 29.2661 60.0427 29.4 61.4628C29.4328 61.8099 29.5089 61.6699 29.5945 61.3864C30.0106 60.0081 30.1076 58.4705 30.2299 57.0496C30.5236 53.6376 30.588 50.2093 30.8132 46.7927C30.8688 45.9502 30.9637 44.6931 31.0702 43.7927C31.1827 42.8412 31.176 43.7229 31.1674 44.0288C31.0886 46.8279 30.9045 49.6253 30.7542 52.4212C30.5902 55.4731 30.3332 58.5469 30.341 61.6052C30.3414 61.7383 30.3908 62.1208 30.4313 61.9941C30.5523 61.6156 30.7126 60.306 30.7299 60.1538C31.1561 56.3981 31.215 52.6224 31.3132 48.8482C31.3371 47.9293 31.4162 45.1769 31.466 46.0948C31.6174 48.8844 31.3625 51.7218 31.1605 54.501C30.9861 56.8994 30.6984 59.305 30.6188 61.7094C30.6123 61.906 30.6082 62.104 30.6292 62.2996C30.6385 62.3866 30.6255 62.5755 30.7091 62.5496C30.8258 62.5135 30.8394 62.3399 30.8757 62.2232C31.115 61.455 31.265 60.3587 31.3618 59.6225C31.8516 55.9001 31.8886 52.1398 32.1118 48.3969C32.1327 48.0467 32.2141 46.7576 32.2855 46.2441C32.2922 46.1955 32.315 46.06 32.3341 46.1052C32.4973 46.4911 32.3658 46.9431 32.3584 47.3621C32.3099 50.0928 32.0885 52.8179 31.8723 55.5392C31.7387 57.2208 31.6324 58.4652 31.4938 60.1191C31.4521 60.6168 31.4083 61.1143 31.3688 61.6121C31.3367 62.0165 31.1963 62.437 31.3063 62.8274C31.3804 63.0906 31.4741 62.3051 31.5216 62.0357C31.6804 61.1337 31.8551 59.8072 31.9452 58.9385C32.3824 54.7215 32.4278 50.4766 32.7959 46.2545C32.8366 45.7879 32.8617 45.4581 32.9556 45.0392C33.0095 44.7986 32.995 45.0423 32.9973 45.2059C33.0369 48.0823 32.928 50.9645 32.7438 53.8344C32.5619 56.6676 32.2861 59.4943 32.1049 62.3274C32.0884 62.5852 32.0685 62.8434 32.0702 63.1017C32.0708 63.1988 32.0191 63.4187 32.1118 63.3899C32.2345 63.3518 32.2321 63.1615 32.2716 63.0392C32.5378 62.2144 32.7222 61.2398 32.8653 60.4107C33.3712 57.4801 33.5107 54.5348 33.5841 51.567C33.5948 51.1323 33.6349 49.0339 33.657 48.3725C33.6937 47.2725 33.735 47.8147 33.7368 48.3413C33.7479 51.4969 33.5193 54.6529 33.3132 57.7996C33.1497 60.2964 32.6089 67.7556 33.1049 65.3031C33.3349 64.1659 33.54 61.829 33.6188 60.935C33.8442 58.3769 33.943 56.722 34.091 54.1746C34.0923 54.1524 34.2461 51.1564 34.2993 50.5288C34.3071 50.4374 34.3326 50.1675 34.348 50.258C34.4519 50.8696 34.3512 51.4989 34.3341 52.1191C34.2435 55.3909 34.0981 58.6626 33.8757 61.9281C33.7834 63.2844 33.336 67.3194 33.6674 66.001C34.1683 64.0084 34.2242 61.8026 34.3827 59.7719C34.5271 57.9211 34.6127 56.3515 34.723 54.508C34.7966 53.2763 34.8201 52.0112 34.9938 50.7857C35.0369 50.4814 35.0635 50.4295 35.0875 50.7719C35.1327 51.4145 35.1081 52.2273 35.0875 52.8239C34.9509 56.7942 34.6362 60.7715 34.1674 64.7163C34.1502 64.8614 34.0047 65.9569 33.9799 66.2163C33.9726 66.2924 33.935 66.3791 33.973 66.4455C33.9971 66.4877 34.0231 66.3606 34.0355 66.3135C34.7355 63.6557 34.7787 60.77 34.9868 58.0496C35.0195 57.6221 35.2294 54.7584 35.2889 54.0184C35.3108 53.7462 35.3313 53.4738 35.3618 53.2024C35.3684 53.1446 35.3492 53.004 35.4 53.0323C35.4602 53.0657 35.4225 53.1684 35.4243 53.2371C35.4317 53.5102 35.4295 53.7834 35.4278 54.0566C35.4163 55.9153 35.3703 57.7762 35.2855 59.633C35.1795 61.9503 34.9266 64.2475 34.723 66.5566C34.7195 66.596 34.6189 67.748 34.6396 67.9871C34.7013 68.6994 34.9179 66.5839 35.0181 65.876C35.3536 63.5062 35.6042 61.1347 35.775 58.7475C35.941 56.429 35.834 57.7834 35.9903 55.6607C36.0318 55.0976 36.0308 53.4191 36.1396 53.9732C36.2195 54.3799 36.1639 54.8019 36.1605 55.2163C36.1512 56.325 36.1185 57.6281 36.0563 58.7232C35.9182 61.154 35.4997 63.5493 35.3132 65.9732C35.298 66.1718 35.176 66.696 35.3306 66.5705C35.5704 66.3756 35.6936 64.3893 35.6952 64.376C36.0924 61.0776 36.3158 57.7647 36.6396 54.4594C36.6756 54.0924 36.7106 53.7398 36.7716 53.3795C36.8062 53.1749 36.8063 53.2298 36.8063 53.435C36.8063 55.6398 36.5295 57.8398 36.2438 60.0219C36.0042 61.8516 35.3941 67.3499 35.7125 65.5323C36.2728 62.3341 36.596 59.0444 36.848 55.8066C36.8754 55.4537 36.8704 55.0946 36.9243 54.7441C36.9742 54.4203 36.9386 55.3992 36.9348 55.7267C36.9025 58.467 36.5191 61.1662 36.3896 63.8969C36.371 64.29 36.3757 64.684 36.3757 65.0774C36.3757 65.1445 36.3697 65.3456 36.3757 65.2788C36.3994 65.0182 36.4049 64.7505 36.4243 64.4906C36.619 61.8953 36.9382 59.3003 36.9382 56.6955C36.9382 56.3563 36.9382 56.0172 36.9382 55.6781C36.9382 55.4824 36.9434 56.0694 36.9521 56.2649C37.0559 58.5867 36.6995 60.8979 36.5146 63.2094C36.4708 63.7565 36.4472 64.3044 36.407 64.8517C36.4008 64.9353 36.3865 65.1852 36.3792 65.1017C36.3321 64.5604 36.4083 63.9334 36.4452 63.4038C36.6087 61.0543 36.8289 58.6984 37.157 56.3656C37.1993 56.0649 37.2328 55.7631 37.2785 55.4628C37.295 55.3546 37.3132 55.0628 37.3132 55.3552C37.3132 57.6861 37.036 60.0116 36.8618 62.3344C36.7891 63.3042 36.681 64.293 36.473 65.2441C36.277 66.1401 36.1795 67.0801 36.1257 67.9941C36.1092 68.2759 36.0738 68.5514 36.0355 68.8309C36.0172 68.9635 36.0007 69.3126 36.0007 68.9524C36.0007 67.0694 36.1501 65.1926 36.3098 63.317C36.4 62.2563 36.4651 61.1133 36.7021 60.0705C36.7504 59.858 36.7423 60.5054 36.7368 60.7232C36.7014 62.1438 36.6376 63.563 36.532 64.9802C36.4396 66.2207 36.3132 67.4706 36.3132 68.7163C36.3132 69.5358 36.3831 67.0785 36.4452 66.2614C36.5341 65.0905 36.6568 63.9234 36.7993 62.758C36.8932 61.9902 36.908 61.2114 37.0598 60.4524C37.0649 60.4269 37.0632 60.8337 37.0632 60.8448C37.0632 61.6214 37.0664 62.3981 37.0493 63.1746C37.0166 64.6619 36.8707 66.1407 36.8167 67.626C36.8154 67.6611 36.8132 68.109 36.8132 67.8205C36.8132 67.4132 36.8262 67.0085 36.848 66.6017C36.9255 65.1513 37.0449 63.7015 37.1118 62.251C37.1218 62.0357 37.1257 61.8206 37.1257 61.6052C37.1257 61.2369 37.1127 62.3421 37.0841 62.7094C36.9694 64.1793 36.7566 65.6484 36.5771 67.1121C36.4943 67.7872 36.4955 68.5115 36.1882 69.126" stroke="#021120" stroke-linecap="round"/>
<path d="M26.3134 58.9384C26.242 58.7512 26.2467 58.5532 26.2544 58.3551C26.2827 57.6188 26.417 56.8828 26.5356 56.1572C26.7103 55.0881 26.9859 54.0574 27.2474 53.0114C27.4699 52.1215 26.9294 54.819 26.7231 55.7127C26.6481 56.0377 26.6141 56.9837 26.4731 56.6815C26.3899 56.5033 26.4577 56.0451 26.4662 55.8968C26.5051 55.213 26.5702 54.5313 26.6537 53.8516C26.7133 53.3658 26.8052 52.8805 26.8134 52.3898C26.8171 52.1671 26.6933 52.9768 26.6745 53.0565C26.295 54.6673 26.1255 56.2534 25.9523 57.8898C25.857 58.7894 26.0384 56.0819 26.1259 55.1815C26.1508 54.9249 26.1884 54.1529 26.1884 54.4107C26.1884 54.8032 26.1594 55.1923 26.1398 55.5843C26.0937 56.5061 26.0254 57.429 25.9419 58.3482C25.9032 58.7735 25.9384 57.494 25.9384 57.0669C25.9384 56.3987 25.8785 55.7013 25.9731 55.0391C26.075 54.3256 26.2485 53.6389 26.3064 52.9141C26.5085 50.3883 27.0695 47.8198 27.6884 45.3621C28.187 43.3819 28.2839 41.3449 28.6884 39.3516C28.7969 38.8168 28.9441 38.2929 29.0044 37.7509C29.0096 37.7038 29.0988 37.5208 29.0252 37.5044C28.8633 37.4684 28.7589 37.6335 28.6919 37.7509C28.4896 38.1048 28.3511 38.4601 28.1745 38.8134C28.0986 38.9653 28.0496 39.4109 27.9523 39.2718C27.8503 39.1261 28.2238 38.3493 28.2648 38.1398C28.2755 38.0849 28.3488 37.4472 28.2196 37.6051C28.0936 37.7592 28.0323 38.0866 27.9974 38.2787C27.9313 38.6423 27.6259 38.9771 27.6259 39.3759C27.6259 39.9152 27.43 40.4244 27.3794 40.9558C27.3467 41.2985 27.3759 41.6566 27.3759 42.0009C27.3759 42.4611 27.1743 42.9619 27.0773 43.4107C26.9091 44.1883 26.762 45.0421 26.7509 45.8412C26.7262 47.6152 26.3614 49.3345 26.2474 51.1016C26.1844 52.0784 26.1476 53.0736 26.1259 54.0496C26.1226 54.1957 25.9504 55.2906 25.9384 55.2718C25.8021 55.0589 25.8759 54.6438 25.8759 54.4072C25.8759 53.8968 25.8759 53.3864 25.8759 52.8759C25.8759 52.314 26.0009 51.7655 26.0009 51.2127C26.0009 50.6972 26.0352 50.1962 26.0634 49.6884C26.0772 49.4395 26.136 49.1301 26.2023 48.8898C26.2773 48.6179 26.2523 48.3214 26.3273 48.0496C26.4384 47.6467 26.4327 47.1474 26.4974 46.7266C26.5682 46.2663 26.6884 45.7449 26.6884 45.2822C26.6884 44.4486 26.9384 43.6598 26.9384 42.8134C26.9384 41.7675 27.5245 40.8298 27.8759 39.8759" stroke="#021120" stroke-linecap="round"/>
<path d="M27.3133 58.501C27.1098 57.9624 27.0889 58.5991 27.0494 58.8552C26.9096 59.7612 26.8239 60.6709 26.7508 61.5844C26.7212 61.9541 26.6883 63.0664 26.6883 62.6955C26.6883 61.9663 26.6883 61.2371 26.6883 60.508C26.6883 59.6157 26.7654 58.6771 26.5668 57.7996C26.5349 57.6589 26.4944 57.1428 26.4383 57.5983C26.3304 58.4743 26.3162 59.3628 26.3133 60.2441C26.311 60.93 26.2408 61.6645 26.3168 62.3483C26.4712 63.7379 26.4334 59.5479 26.3272 58.1538C26.3242 58.1151 26.2647 57.7719 26.2647 57.7719C26.0902 58.2955 26.1384 59.0665 26.1293 59.6121C26.1198 60.1778 26.0822 60.7694 26.1293 61.3344C26.1803 61.9467 26.2212 60.1084 26.2369 59.4941C26.2533 58.8515 26.276 58.1996 26.2508 57.5566C26.2478 57.4789 26.0706 58.233 26.0668 58.3934C26.0489 59.1428 26.0633 59.8938 26.0633 60.6434C26.0633 60.7835 26.0633 61.5439 26.0633 60.9385C26.0633 60.1978 26.0633 59.457 26.0633 58.7163C26.0633 58.5349 26.1987 57.4848 25.9696 57.383C25.8179 57.3156 25.8186 57.914 25.8168 57.9663C25.7838 58.907 25.9217 59.8638 26.0008 60.7996C26.04 61.2635 26.0499 61.7356 26.1258 62.1955C26.2226 62.7825 26.1883 61.5295 26.1883 61.4489C26.1883 60.5901 26.1883 59.7314 26.1883 58.8726C26.1883 58.6838 26.2519 58.1345 26.1744 58.3066C25.9846 58.7283 26.0648 59.3379 26.0633 59.7788C26.0585 61.1411 25.9915 62.5419 26.1918 63.8934C26.2631 64.3745 26.3815 64.9009 26.5876 65.3448C26.6345 65.4458 26.6629 65.4162 26.6744 65.3135C26.7152 64.951 26.6883 64.5732 26.6883 64.2094C26.6883 63.4204 26.685 62.6354 26.6258 61.8483C26.5924 61.404 26.6117 60.8877 26.3827 60.4871C26.3678 60.4609 26.3758 60.5472 26.3758 60.5774C26.3758 60.882 26.3751 61.186 26.3862 61.4906C26.4462 63.1401 26.6508 64.7963 26.8689 66.4316C26.9418 66.9787 27.0548 67.5149 27.2161 68.0427C27.22 68.0556 27.28 68.2804 27.2994 68.1121C27.365 67.5439 27.3146 66.9383 27.3133 66.3691C27.3091 64.5251 27.2356 62.6845 27.2022 60.8413C27.1918 60.269 27.1838 59.6941 27.223 59.1226C27.2301 59.0201 27.2257 58.4678 27.348 58.3899C27.4969 58.2952 27.4769 58.722 27.5008 58.8969C27.6039 59.6522 27.6288 60.4209 27.6501 61.1816C27.7233 63.8006 27.6258 66.417 27.6258 69.0358C27.6258 69.4248 27.6168 69.8217 27.6605 70.2094C27.6693 70.2867 27.7475 70.4821 27.7786 70.4108C27.9521 70.0128 27.9401 69.4298 27.9626 69.0219C28.0578 67.2937 28.0222 65.5594 27.9591 63.8309C27.8918 61.9847 27.7185 60.147 27.6327 58.3031C27.625 58.1366 27.6162 57.9601 27.6258 57.7927C27.645 57.456 27.7378 58.458 27.7786 58.7927C28.0748 61.2266 28.1475 63.6569 28.2161 66.1052C28.2515 67.37 28.295 68.6356 28.4418 69.8934C28.51 70.4776 28.5696 71.2008 28.8446 71.7406C28.9153 71.8794 29.0426 72.0027 29.1119 71.7649C29.2913 71.1493 29.2569 70.389 29.2751 69.7649C29.3701 66.5156 29.287 63.2545 29.1397 60.008C29.1129 59.4178 29.0008 58.8071 29.0008 58.2163C29.0008 56.3672 29.1209 61.9127 29.1536 63.7614C29.1976 66.2532 29.1234 68.787 29.4696 71.2614C29.5077 71.5343 29.5547 72.0156 29.7508 72.258C29.9573 72.5133 30.1215 71.6882 30.1605 71.3621C30.3185 70.0427 30.3049 68.6867 30.2855 67.3621C30.2556 65.3142 30.1356 63.2731 29.9105 61.2371C29.7962 60.2028 29.6566 59.1569 29.4626 58.133C29.4304 57.9632 29.4146 57.8769 29.4175 58.1017C29.4223 58.4733 29.4608 58.9823 29.4834 59.317C29.6673 62.0358 29.8263 64.748 29.8723 67.4733C29.8853 68.2387 29.8563 69.0309 29.9661 69.7927C29.9899 69.9582 30.0511 70.5923 30.2369 70.6955C30.4002 70.7862 30.3071 70.3267 30.3098 70.1399C30.3235 69.1994 30.2843 68.2574 30.2022 67.3205C29.9687 64.6559 29.5128 61.9957 28.8932 59.3934C28.6983 58.5751 28.9627 60.0423 28.9696 60.0983C29.3361 63.0693 29.2828 66.0881 29.7369 69.0496C29.7941 69.4225 29.9935 70.3617 30.0355 69.3413C30.1484 66.6001 29.6753 63.8887 29.0112 61.2406C28.7864 60.3442 28.1426 57.6544 28.2647 58.5705C28.3199 58.9848 28.4249 59.3982 28.5077 59.8066C28.8874 61.6777 29.2026 63.5587 29.4939 65.4455C29.7491 67.0989 29.9649 68.76 30.2369 70.4108C30.2516 70.4998 30.3275 70.75 30.3411 70.6608C30.4167 70.1639 30.3815 69.6006 30.3758 69.1052C30.3433 66.303 29.7756 63.6349 29.0147 60.9455C28.8245 60.2731 28.6242 59.5969 28.3689 58.9455C28.3462 58.8876 28.2742 58.7159 28.2925 58.7753C28.6267 59.8615 27.9059 57.427 28.5668 59.6434C29.2377 61.8934 29.7437 64.1919 30.0841 66.5149C30.2527 67.6654 30.3764 68.8215 30.5355 69.9733C30.6044 70.4721 30.6288 71.165 30.8758 71.633C30.9784 71.8273 31.0662 71.5971 31.0911 71.501C31.2479 70.896 31.2285 70.2069 31.2369 69.5913C31.2793 66.5105 30.9597 63.4565 30.6432 60.3969C30.5969 59.9492 30.3915 58.6309 30.5564 59.0496C30.8537 59.8051 30.9206 60.8514 31.0321 61.6226C31.5263 65.0416 31.6182 68.4765 31.848 71.9177C31.8842 72.4587 31.9088 73.0098 32.0668 73.5323C32.1149 73.6915 32.2035 74.0913 32.3133 73.9663C32.4973 73.7568 32.4267 72.8369 32.4279 72.692C32.4449 70.5427 32.3196 68.3911 32.1779 66.2476C32.0393 64.1507 31.8367 62.0638 31.6327 59.9733C31.4832 58.4403 32.0035 63.0331 32.098 64.5705C32.269 67.3504 32.2766 70.1352 32.3758 72.9177C32.3907 73.3347 32.3847 73.7945 32.4696 74.2094C32.4771 74.2462 32.5198 74.3386 32.5321 74.3031C32.61 74.078 32.5853 73.8293 32.5946 73.5913C32.7208 70.3507 32.6466 67.104 32.6293 63.8621C32.625 63.0556 32.6007 62.2384 32.6397 61.4316C32.6445 61.3323 32.6543 61.0528 32.7022 61.1399C32.8443 61.3988 32.8127 61.721 32.8411 62.0149C33.102 64.7195 33.078 67.4416 32.9869 70.1538C32.9555 71.0891 32.9086 72.0239 32.8827 72.9594C32.8791 73.0913 32.8731 73.487 32.8793 73.3552C32.8909 73.1059 32.9061 72.2653 32.9071 72.2128C32.9486 69.8717 32.926 67.5322 32.848 65.192C32.836 64.8312 32.8133 64.4668 32.8133 64.1052C32.8133 63.9073 32.8654 64.4979 32.8758 64.6955C33.0074 67.1886 33.0002 69.694 32.9244 72.1885C32.8825 73.5678 32.7508 74.9472 32.7508 76.3274C32.7508 77.509 32.8725 73.967 32.9001 72.7858C32.9323 71.4087 32.9363 70.0312 32.9383 68.6538C32.9394 67.8852 32.7719 65.6083 32.98 66.3483C33.1761 67.0457 33.1683 67.9234 33.2091 68.626C33.2855 69.9395 33.3159 71.2551 33.2716 72.5705C33.2383 73.561 33.1483 74.5479 33.0737 75.5358C33.0671 75.6235 32.873 76.8764 33.039 76.9871C33.0577 76.9996 33.0715 76.9533 33.0772 76.9316C33.1274 76.74 33.1887 76.211 33.2022 76.0844C33.3154 75.0265 33.3824 73.963 33.4279 72.9003C33.4858 71.5478 33.4929 70.1941 33.5425 68.8413C33.5766 67.9092 33.5344 66.8512 33.7508 65.9316C33.7676 65.86 33.8409 66.0563 33.848 66.1295C33.9386 67.0602 33.9522 68.0049 33.973 68.9385C34.0294 71.4657 33.9452 73.9886 33.9452 76.5149C33.9452 77.0716 34.0452 77.3183 34.1293 76.5358C34.4601 73.4548 34.4094 70.2782 34.2508 67.1885C34.2192 66.5735 34.1669 65.9597 34.1327 65.3448C34.1299 65.2927 34.1235 65.2406 34.1258 65.1885C34.1312 65.0652 34.1558 65.4337 34.1675 65.5566C34.4496 68.5241 34.538 71.518 34.4661 74.4976C34.4483 75.2351 34.4179 75.9721 34.3897 76.7094C34.3837 76.8667 34.2385 77.1112 34.3793 77.1816C34.3901 77.187 34.3881 77.1588 34.3897 77.1469C34.4111 76.9841 34.4457 76.5575 34.4522 76.4594C34.5723 74.6571 34.5928 72.8482 34.6119 71.0427C34.6303 69.3018 34.4752 67.4875 34.6397 65.751C34.7779 64.2927 34.9095 68.6716 34.9244 70.1364C34.9457 72.2266 34.8484 74.3111 34.7265 76.3969C34.7134 76.621 34.5843 77.2413 34.73 77.0705C34.8639 76.9134 34.8739 76.682 34.9175 76.4802C35.0335 75.9436 35.144 75.2172 35.2091 74.6885C35.4578 72.6702 35.4607 70.6399 35.5633 68.6121C35.578 68.3218 35.5844 68.0162 35.6258 67.7267C35.6521 67.5429 35.7092 68.0901 35.723 68.2753C35.8865 70.4605 35.8713 72.6649 35.7508 74.8517C35.7225 75.3653 35.6732 75.8768 35.6397 76.3899C35.6383 76.4115 35.6243 76.6548 35.6258 76.7094C35.6269 76.7498 35.6482 76.6314 35.6536 76.5913C35.9124 74.6569 35.9577 72.6994 36.0008 70.751C36.031 69.3876 36.0518 68.024 36.0911 66.6608C36.102 66.2805 36.0496 65.735 36.1571 65.3483C36.2062 65.1715 36.1974 65.7134 36.2022 65.8969C36.2281 66.8885 36.2489 67.8806 36.2334 68.8726C36.2015 70.9146 35.8302 77.0308 35.98 74.9941C36.1814 72.2547 36.1732 69.5047 36.3619 66.7649C36.381 66.4876 36.3812 66.1267 36.4696 65.8517C36.5214 65.6903 36.5827 66.1756 36.5946 66.3448C36.7968 69.2218 36.4544 72.0904 36.5008 74.9663C36.5172 75.9811 36.5991 72.9388 36.6397 71.9246C36.6948 70.5502 36.8133 69.1687 36.8133 67.7927C36.8133 67.7237 36.8133 67.4317 36.8133 67.4594C36.8133 67.7857 36.8107 68.1122 36.8133 68.4385C36.826 70.039 36.8758 71.6387 36.8758 73.2406C36.8758 73.6906 36.8445 74.1277 36.7855 74.5739C36.7439 74.8891 36.7508 75.3252 36.7508 74.6816C36.7508 72.8483 36.7508 71.0149 36.7508 69.1816C36.7508 66.5713 36.6317 74.4017 36.4869 77.008C36.3929 78.6999 36.2351 80.3789 36.0772 82.0635C36.0156 82.7203 36.0633 83.4003 36.0633 84.0601C36.0633 84.4525 36.0965 84.6156 35.973 84.0496C35.4426 81.6184 35.1635 79.1234 34.7577 76.6677C34.5953 75.6846 34.4181 74.7083 34.23 73.7302C34.1958 73.5525 34.1724 73.3733 34.1397 73.1955C34.0516 72.7175 34.2248 74.1638 34.2786 74.6469C34.5137 76.7588 34.7474 78.8748 35.0355 80.9802C35.0606 81.1633 35.0897 81.6953 35.1536 81.5219C35.2197 81.3425 35.1801 81.1401 35.1779 80.9489C35.1717 80.4064 35.1411 79.546 35.1258 79.0427C35.066 77.0797 35.0111 75.1066 35.098 73.1434C35.1017 73.0615 35.0874 72.5464 35.2022 72.4316C35.2513 72.3825 35.3086 72.5313 35.3272 72.5983C35.4003 72.8619 35.4632 73.3456 35.4869 73.5844C35.7353 76.0861 35.4683 83.6381 35.5668 81.126C35.6558 78.8569 35.8564 72.0497 35.8758 74.3205C35.8966 76.748 35.7508 79.1708 35.7508 81.5948C35.7508 81.6673 35.7574 81.8326 35.723 81.6191C35.6421 81.1167 35.5853 80.6098 35.5216 80.1052C35.2408 77.8781 34.9834 75.6332 34.5772 73.4246C34.1419 71.058 34.7844 78.2329 34.9001 80.6364C34.9185 81.0177 34.9172 81.4051 34.9522 81.7858C34.9558 81.8251 34.9877 82.092 34.9973 81.8274C35.0735 79.7324 34.6693 77.5854 34.2647 75.5427C34.0763 74.5918 33.8554 73.6461 33.5807 72.7163C33.4811 72.3792 33.3827 71.9916 33.2022 71.6816C33.1163 71.5341 33.0761 71.5918 33.0807 71.7406C33.0995 72.3535 33.2353 72.9916 33.3341 73.5913C33.6865 75.7298 34.111 77.8508 34.3897 80.001C34.505 80.8906 34.5867 81.7981 34.7473 82.6816C34.9428 83.7565 34.4815 80.5118 34.2959 79.4351C33.8672 76.9471 33.2669 74.4851 32.605 72.0496C32.5885 71.989 32.4086 71.2646 32.4522 71.7163C32.6634 73.9037 33.1414 76.0792 33.5911 78.2267C33.8628 79.5243 34.0501 80.8868 34.4383 82.1573C34.4783 82.2881 34.5417 82.535 34.6466 82.6399C34.6893 82.6826 34.6681 82.5193 34.6605 82.4594C34.6324 82.2362 34.5417 81.7201 34.5077 81.5427C34.0616 79.214 33.4004 76.9266 32.7091 74.6608C32.3151 73.3692 31.9299 72.0467 31.3237 70.8344C31.0866 70.3602 31.2368 70.9888 31.2682 71.1816C31.6811 73.721 32.1093 76.267 32.6675 78.7788C32.8089 79.4151 32.9463 80.0788 33.2057 80.6816C33.4451 81.2382 33.3283 80.5705 33.2994 80.4177C32.7394 77.4547 31.9337 74.5019 31.1084 71.6017C30.9922 71.1933 30.8741 70.7401 30.6883 70.3552C30.6601 70.2968 30.5977 70.1339 30.5772 70.1955C30.4594 70.5489 30.6802 71.2971 30.73 71.626C31.03 73.6099 31.4546 75.5793 32.0077 77.508C32.184 78.1226 32.3757 78.7374 32.6154 79.3309C32.7064 79.5563 32.8285 79.9683 33.0182 80.1434C33.1902 80.3022 32.9867 79.6746 32.9383 79.4455C32.7603 78.6023 32.5483 77.765 32.3168 76.9351C31.649 74.5416 30.9435 72.1139 29.9105 69.8483C29.7622 69.523 29.3196 68.5602 29.3897 68.9108C29.7641 70.7828 30.2936 72.6435 30.7265 74.5045C31.032 75.8177 31.2646 77.2469 31.7786 78.501C31.8259 78.6164 31.8932 78.9162 31.973 78.8205C32.1516 78.6061 31.7183 77.2392 31.6814 77.0774C31.0004 74.0941 30.0156 71.1893 29.3202 68.2094C28.8266 66.0937 30.0376 72.4965 30.5008 74.6191C30.7251 75.6469 30.9149 76.7611 31.3619 77.7233C31.7483 78.5549 31.2614 76.7182 31.2543 76.692C30.753 74.8417 30.273 72.9829 29.7091 71.1503C29.5114 70.5078 29.2548 69.8831 29.0702 69.2371C29.0269 69.0855 28.9352 68.7258 28.9487 69.1503C29.004 70.8911 29.5845 72.7005 30.0564 74.3621C30.2358 74.9942 30.4169 75.6635 30.7369 76.2441C30.7674 76.2993 30.8541 76.445 30.8654 76.383C30.9032 76.1749 30.6903 75.743 30.6327 75.5878C30.0223 73.9419 29.3839 72.3062 28.7716 70.6608C28.6581 70.3557 28.5379 70.0544 28.4036 69.758C28.4012 69.7526 28.2113 69.2754 28.2161 69.508C28.2403 70.6814 28.5898 71.9225 28.855 73.0566C29.0935 74.0768 29.3025 75.1814 29.9314 76.0462C30.1861 76.3964 30.1998 76.2616 30.098 75.8899C29.6706 74.3281 29.0225 72.8348 28.5702 71.2788C28.3955 70.6776 28.23 70.0825 28.1536 69.4594C28.1266 69.2391 28.0633 68.5777 28.0633 68.7996C28.0633 69.2532 28.1651 69.7079 28.2161 70.1573C28.2531 70.4839 28.2804 70.8118 28.2994 71.1399C28.2994 71.1399 28.2974 71.6095 28.2855 71.5913C28.0085 71.1684 27.957 70.4835 27.8758 70.001C27.7519 69.2646 27.7034 68.5203 27.5946 67.7823C27.517 67.2566 27.453 66.752 27.4383 66.2233C27.4298 65.9168 27.3106 65.6158 27.2508 65.317C27.0949 64.5373 27.0256 65.7834 27.0147 65.9871C26.9899 66.4516 27.0008 66.918 27.0008 67.383C27.0008 67.6767 26.9768 67.0042 26.9696 66.9351C26.9206 66.4651 26.9003 65.9672 26.8758 65.501C26.8674 65.3406 26.7197 64.9754 26.6918 65.3517C26.6606 65.7728 26.6067 66.3666 26.7508 66.7719C26.88 67.1353 26.8133 67.1501 26.8133 66.6885C26.8133 66.486 26.8133 66.2834 26.8133 66.0809C26.8133 65.8945 26.8105 66.4536 26.8133 66.6399C26.8283 67.6296 27.1018 68.6716 27.2994 69.6399C27.4463 70.3598 27.6604 70.9955 27.9348 71.6816C28.1387 72.1912 28.2378 72.7411 28.4244 73.258C28.744 74.1431 29.1352 74.9701 29.5147 75.8274C29.9644 76.8434 30.3679 77.8788 30.8133 78.8969C31.1248 79.6089 31.7925 79.9268 31.973 80.8331C32.473 80.7324 32.6587 81.7858 32.7508 81.7858C32.7932 81.7858 32.0774 81.1497 32.0633 81.1087C31.8657 80.5338 31.721 79.9409 31.6258 79.3413C31.5678 78.9758 31.4759 78.6208 31.3758 78.2649C31.3712 78.2487 31.2671 77.9261 31.2543 77.9837C31.2061 78.2005 31.3746 78.4349 31.4383 78.626" stroke="#021120" stroke-linecap="round"/>
<path d="M30.1258 63.001C29.5847 62.5843 29.255 62.2028 29.0702 63.0739C28.978 63.5086 29.0205 63.9512 28.9695 64.3899C28.9285 64.7423 28.9383 64.6235 28.9383 64.3274C28.9383 63.9518 29.0008 62.8268 29.0008 63.2024C29.0008 64.0753 28.9881 64.9419 28.9383 65.8135" stroke="#021120" stroke-linecap="round"/>
<path d="M30.3757 76.126C30.4883 76.6239 30.6381 77.0811 30.8132 77.5565C30.8404 77.6303 30.9432 77.9884 30.9382 77.7232C30.93 77.2869 30.7626 76.8927 30.6986 76.4663C30.6257 75.9801 30.9297 77.3406 30.9382 77.376" stroke="#021120" stroke-linecap="round"/>
<path d="M36.3132 65.6885C36.1584 66.391 35.9095 67.0697 35.7542 67.7683C35.6582 68.2002 35.8105 66.8849 35.8618 66.4454C35.9027 66.0958 35.5986 66.8021 35.5007 66.9419C35.1591 67.4299 35.1707 68.2401 35.0632 68.8135" stroke="#021120" stroke-linecap="round"/>
<path d="M32.0007 79.3135C32.04 80.099 32.504 80.943 32.8757 81.6121C32.9753 81.7913 33.7895 82.8195 33.3375 82.1121C33.1137 81.7618 32.9875 81.3662 32.7785 81.0079C32.5987 80.6998 32.3806 80.4157 32.1986 80.1086C32.0803 79.9089 32.0747 79.9962 32.1466 80.192C32.3451 80.7325 32.6001 81.2806 32.8827 81.7822C33.061 82.0988 33.5314 83.0521 33.4834 82.692C33.453 82.4638 33.2322 82.1849 33.1188 81.9906C32.9356 81.6765 32.759 81.3589 32.5736 81.0461C32.5575 81.0188 32.4452 80.7758 32.4452 80.9558C32.4452 81.6617 33.1666 82.5941 33.65 83.0565C33.9792 83.3714 33.9755 83.0759 33.8688 82.7406C33.7729 82.4391 33.6579 82.1397 33.5355 81.8482C33.4459 81.635 33.3207 80.9849 33.2646 81.2093C33.1795 81.55 33.6515 82.1791 33.7855 82.4593C34.0171 82.9439 34.2411 83.4123 34.5355 83.8621C34.5512 83.8862 34.7507 84.275 34.7507 84.0982C34.7507 83.6679 34.5369 83.2341 34.3896 82.8413C34.1661 82.2451 33.9399 81.6414 33.6882 81.0565C33.5012 80.6217 33.726 81.7294 33.7438 81.7857C33.9725 82.5088 34.6538 84.6408 34.6257 83.8829C34.6069 83.3752 34.3166 82.8496 34.1327 82.3899C33.9634 81.9666 33.789 81.5454 33.6188 81.1225C33.5751 81.0139 33.474 80.6985 33.4521 80.8135C33.3562 81.317 33.7123 82.0372 33.8896 82.4871C34.1182 83.0672 34.4157 83.5997 34.7577 84.119C34.8007 84.1843 34.9614 84.4934 34.9243 84.2301C34.8564 83.748 34.6527 83.308 34.4382 82.876C34.3176 82.6329 33.6996 81.4095 33.9209 82.3968C33.9774 82.6492 34.9378 85.1703 35.1535 85.1086C35.4791 85.0156 34.2089 82.7539 34.0841 82.5426C33.8983 82.2283 33.9304 82.6102 33.9486 82.7683C34.0143 83.3373 34.3531 83.8363 34.6153 84.3308C34.6321 84.3625 35.0633 85.2295 35.0459 84.942C35.0131 84.4006 34.4934 83.8221 34.2368 83.369C34.2067 83.3158 33.7823 82.4157 33.7611 82.8378C33.7369 83.3237 34.0015 83.8292 34.2473 84.2301C34.3718 84.4333 34.6069 84.86 34.8653 84.9246C35.0216 84.9636 34.9874 84.3556 34.9834 84.3031C34.9236 83.5157 34.669 82.7371 34.5077 81.9663C34.4578 81.7278 34.3757 81.0039 34.3757 81.2475C34.3757 81.719 34.5352 82.1837 34.6605 82.6329C34.861 83.3519 35.0745 84.0676 35.2785 84.7857C35.2791 84.7877 35.5397 85.6227 35.5598 85.2822C35.5932 84.7143 35.5713 84.126 35.525 83.56C35.489 83.12 35.3757 81.8026 35.3757 82.244C35.3757 82.7313 35.5555 83.2414 35.6188 83.7232C35.6934 84.2911 35.6478 84.9776 35.8757 85.5149C35.9673 85.7307 36.0544 85.7607 36.091 85.494C36.1917 84.7608 36.0534 82.5368 36.0042 83.2753C35.9559 84.0001 35.9883 84.7624 36.2195 85.4558C36.3086 85.7232 36.4998 86.2399 36.7195 86.4107C36.856 86.5169 37.0533 86.7702 37.0632 86.9385C37.1091 87.718 36.843 85.3914 36.6882 84.626C36.5915 84.1476 36.58 83.6554 36.4382 83.1885C36.3205 82.8005 36.1977 82.3722 36.1882 81.9663C36.17 81.1831 36.1257 80.401 36.1257 79.6121C36.1257 78.6933 36.0632 77.782 36.0632 76.8656C36.0632 76.7643 36.1221 75.3834 36.4105 75.4246C36.8071 75.4813 36.4752 78.1303 36.4382 78.3864C36.4326 78.4252 36.3132 79.3156 36.3132 79.067C36.3132 78.6393 36.3191 78.2211 36.3757 77.7961C36.4985 76.8751 36.5537 75.9345 36.7542 75.0322C36.8361 74.6636 36.8996 74.869 36.9243 75.1538C37.0004 76.028 36.9905 76.9875 36.9243 77.8621C36.8241 79.1875 36.6882 80.4962 36.6882 81.8274C36.6882 82.6176 36.6693 83.4712 36.5493 84.251C36.5084 84.5168 36.5007 85.4837 36.5007 84.6954C36.5007 83.7768 36.5048 82.814 36.6396 81.9038C36.6713 81.6898 36.6851 81.7419 36.6882 81.9246C36.6931 82.2128 36.748 82.4961 36.7507 82.7857C36.7553 83.2722 36.8132 84.7306 36.8132 84.244C36.8132 83.7556 36.8132 83.2672 36.8132 82.7788C36.8132 82.3436 36.8132 83.6491 36.8132 84.0843C36.8132 84.7877 36.8487 85.5877 37.0493 86.2649C37.0884 86.3968 37.1231 87.0023 37.0007 87.0635" stroke="#021120" stroke-linecap="round"/>
<path d="M36.0007 85.5635V86.3135" stroke="#021120" stroke-linecap="round"/>
<path d="M43.9385 34.8135C43.8663 36.8546 43.2777 38.6644 42.619 40.5774C42.4072 41.1926 42.1841 41.8158 42.0426 42.4524C42.038 42.4732 42.05 42.5352 42.0565 42.5149C42.2869 41.7951 42.4395 41.035 42.6017 40.2996C42.9284 38.8186 43.1978 37.3301 43.4246 35.8309C43.523 35.1802 43.5889 34.512 43.751 33.8725C43.7744 33.7801 43.9179 33.2382 43.9593 33.6815C44.0585 34.7446 43.8402 35.8833 43.6607 36.9246C43.4694 38.0343 43.2075 39.1303 43.001 40.2371C42.8919 40.8219 42.5078 42.5527 42.7301 42.001C43.1152 41.0454 43.1984 39.8483 43.3482 38.8482C43.5771 37.3193 43.8239 35.7642 43.9281 34.2197C43.9405 34.0356 43.9385 33.852 43.9385 33.6677C43.9385 33.6159 43.73 34.4368 43.7093 34.5149C43.1892 36.4782 42.489 38.4611 42.2614 40.4871C42.2349 40.723 42.3062 41.4015 42.1885 41.1954C42.1033 41.0464 42.1628 40.8531 42.1572 40.6815C42.1381 40.0935 42.1321 39.7056 42.1364 39.0947C42.1486 37.3739 42.3474 35.6618 42.376 33.9454C42.3764 33.92 42.3793 33.8438 42.376 33.869C42.3589 34.0001 42.3689 33.9645 42.3343 34.1399C42.2275 34.6817 42.0622 35.2087 41.9732 35.7545C41.815 36.7246 41.7069 37.7023 41.5635 38.6746C41.4948 39.1403 41.4675 39.6094 41.376 40.067C41.2829 40.5323 41.0635 41.9304 41.0635 41.4559C41.0635 40.2765 41.1885 39.1162 41.1885 37.9385C41.1885 36.8746 41.2951 35.7858 41.4524 34.7371C41.5177 34.3015 41.6885 33.8444 41.6885 33.4072C41.6885 32.685 41.777 31.922 41.9072 31.2128C42.0844 30.2484 42.0864 29.298 42.1746 28.3274C42.2879 27.0804 42.4907 25.8293 42.501 24.5774C42.5181 22.4856 42.6183 20.4232 42.4246 18.3413C42.3609 17.6567 42.376 16.9706 42.376 16.2822C42.376 15.8869 41.8512 15.8653 41.8135 15.5635C41.8082 15.521 41.7587 15.4164 41.7371 15.376C41.7082 15.3218 41.6885 15.8283 41.6885 15.9072C41.6885 16.724 41.7238 17.5498 41.685 18.3656C41.6479 19.145 41.376 19.8747 41.376 20.6677C41.376 21.5676 41.2369 22.4635 41.1919 23.3621C41.1213 24.7755 40.8135 26.1987 40.8135 27.6121C40.8135 31.8855 40.8844 36.1674 40.751 40.4385" stroke="#021120" stroke-width="2" stroke-linecap="round"/>
<path d="M41.5009 23.6884C41.4903 23.603 41.1735 24.2104 41.1259 24.3412C41.0605 24.5212 41.1791 23.7141 41.1537 23.7648C41.1042 23.8638 40.8601 24.7925 40.9732 24.3724C41.0582 24.0567 41.0722 23.7881 41.1294 23.4731C41.1886 23.1477 41.1713 23.9267 41.1259 24.0495C41.0222 24.3301 40.9499 24.5916 40.9384 24.8898C40.927 25.1864 40.5257 25.53 41.0009 25.6884" stroke="#021120" stroke-width="2" stroke-linecap="round"/>
<path d="M42.751 29.2509C42.7943 30.578 42.8135 31.9023 42.8135 33.2301C42.8135 34.2536 42.7382 35.3131 42.8482 36.3343C42.8584 36.4288 42.9833 37.2545 42.9975 36.7301C43.0514 34.7346 43.0095 32.7295 42.9975 30.7336C42.9902 29.5251 42.9203 28.3135 42.9385 27.1051C42.9542 26.063 43.3191 27.8273 43.3343 28.0218C43.4987 30.1177 43.3774 32.271 43.3343 34.369C43.2969 36.1905 43.2261 38.0156 43.2649 39.8377C43.2696 40.0594 43.2539 40.5774 43.3899 40.8343C43.4113 40.8748 43.4796 40.7823 43.4871 40.7371C43.6055 40.0268 43.5751 39.2557 43.5982 38.5426C43.6837 35.9087 43.8828 33.2825 43.9871 30.6502C44.0171 29.8934 44.0087 29.1322 43.9697 28.3759C43.908 27.1794 44.0535 28.8847 44.0669 29.0773C44.2704 32.0022 44.2712 34.9355 44.3169 37.8655C44.3396 39.3134 44.2982 40.867 44.7163 42.2718C44.7277 42.3102 44.8423 42.765 44.9385 42.7787C44.9696 42.7832 44.9861 42.7328 44.994 42.7023C45.0533 42.4737 45.059 41.8793 45.0635 41.7475C45.1645 38.7812 45.2074 35.8126 45.1815 32.8447C45.171 31.6419 45.1869 30.4224 45.001 29.2301C44.8578 28.312 45.263 30.0233 45.2649 30.0357C45.6882 32.7958 45.6308 35.5962 45.8065 38.3759C45.9296 40.3228 46.2088 42.2213 46.5357 44.1398C46.5502 44.2249 46.6815 45.3002 46.6815 44.6016C46.6815 42.1264 46.5047 39.6389 46.3343 37.1711C46.1829 34.9779 46.1169 32.6615 45.5426 30.5252C45.5022 30.3749 45.3766 29.8863 45.5149 30.5357C45.7645 31.7081 45.9918 32.8818 46.1746 34.0669C46.5434 36.4588 46.728 38.8743 47.1051 41.2648C47.3012 42.5078 47.4683 43.8358 47.876 45.0357C47.9024 45.1134 48.0021 45.3961 47.9767 45.0739C47.9217 44.3769 47.7778 43.6794 47.6885 42.9871C47.3089 40.0444 47.1246 37.0798 46.7232 34.1398C46.6053 33.2767 46.4636 32.4162 46.3031 31.56C46.2442 31.2462 46.2216 31.1564 46.3551 31.5634C47.0816 33.7773 47.4253 36.0417 47.7301 38.3482C47.9951 40.3532 48.116 42.384 48.4732 44.3759C48.5278 44.6804 48.6999 45.5879 48.6885 45.2787C48.6323 43.7623 48.4393 42.2457 48.3204 40.7336C48.142 38.4639 48.1031 36.1737 47.6572 33.935C47.5094 33.1925 47.2526 32.4398 47.1919 31.6815C47.1812 31.5474 47.3 31.9284 47.3413 32.0565C47.6433 32.9938 47.9169 33.9371 48.1399 34.8968C48.9337 38.3131 49.1654 41.8519 49.7232 45.3134C49.7387 45.4094 49.7534 45.5056 49.7683 45.6016C49.7807 45.6815 49.8068 45.8603 49.7649 45.5704C49.6727 44.9338 49.576 44.2978 49.4871 43.6607C49.1873 41.5125 48.991 39.35 48.6399 37.2093C48.5242 36.504 48.3978 35.8073 48.3794 35.0912C48.3756 34.9417 48.2877 34.2531 48.4975 34.7336C49.7523 37.6075 50.0742 40.7769 50.376 43.8621C50.4596 44.7165 50.5376 45.5741 50.6572 46.4246C50.6784 46.5753 50.7977 47.1633 50.7093 46.6329C50.2059 43.6125 49.8343 40.5712 49.2614 37.5634C49.163 37.0471 49.1097 36.5253 49.0774 36.0009C49.0682 35.8516 49.0511 35.4361 49.1399 35.5565C49.5445 36.1057 49.7438 36.9085 49.9454 37.5426C50.2565 38.5212 50.4831 39.5319 50.6607 40.5426C50.8933 41.8668 51.0571 43.2238 51.1746 44.5634C51.2132 45.0035 51.1469 46.2974 51.2996 45.8829C51.3843 45.6528 51.2203 45.194 51.185 44.9732C51.0323 44.0185 50.9406 43.0567 50.8169 42.0982C50.6665 40.9325 50.6341 39.76 50.501 38.5947C50.4436 38.0923 50.376 37.5727 50.376 37.0669C50.376 36.395 50.634 38.3866 50.7197 39.053C50.8671 40.1996 51.0474 41.3511 51.2649 42.4871C51.3274 42.8136 51.2703 43.2276 51.4072 43.5287C51.4758 43.6795 51.4385 43.3968 51.4385 43.3621C51.4385 42.8835 51.4029 42.4057 51.376 41.928C51.3181 40.901 51.126 39.8367 51.126 38.8134C51.126 38.0093 51.4359 40.3924 51.5496 41.1884C51.633 41.7726 51.6339 42.3822 51.685 42.9697C51.7481 43.695 51.751 44.4248 51.751 45.1537C51.751 45.5983 51.751 45.438 51.751 45.0843C51.751 44.3273 51.751 43.5704 51.751 42.8134C51.751 42.6764 51.7223 41.5126 51.7544 42.1711C51.7984 43.0726 51.9596 43.972 52.0322 44.8725C52.0386 44.9513 52.0708 45.921 52.0635 45.5773C52.0499 44.9395 52.0089 43.0336 51.9385 43.6676C51.8597 44.3763 52.011 45.1671 52.0635 45.8759C52.1051 46.4381 52.126 46.9894 52.126 47.553C52.126 48.1514 52.126 48.7498 52.126 49.3482C52.126 49.9611 52.126 48.7933 52.126 48.6746C52.126 47.8181 52.126 46.9616 52.126 46.1051C52.126 45.8237 52.108 45.562 52.185 45.2926C52.2073 45.2147 52.1855 45.4549 52.1919 45.5357C52.2127 45.7948 52.259 46.0536 52.2822 46.3134C52.3487 47.0584 52.4385 47.786 52.4385 48.5322C52.4385 49.6049 52.4731 50.6827 52.376 51.7509" stroke="#021120" stroke-width="2" stroke-linecap="round"/>
<path d="M43.6258 23.751C43.5533 24.9122 43.5708 26.0699 43.6015 27.2336C43.628 28.2356 43.6681 29.237 43.7369 30.2371C43.7717 30.741 43.7796 31.2859 43.9383 31.7718C43.9567 31.8279 44.05 31.9624 44.0564 31.9038C44.1269 31.2518 44.0497 30.5309 44.0147 29.8829C43.8853 27.4841 43.6191 25.0849 43.2856 22.7058C43.237 22.3597 43.0239 21.3299 43.3203 22.3413C44.073 24.9101 44.5263 27.5608 45.2022 30.1503C45.5484 31.4767 45.842 32.8886 46.3481 34.1676C46.4912 34.5295 46.4117 33.9022 46.4106 33.8899C46.3006 32.7149 46.0757 31.5491 45.8619 30.3899C45.3946 27.8556 44.8012 25.3598 44.2022 22.8551C44.1726 22.7311 44.0554 22.4079 44.0911 22.2649C44.116 22.1652 44.1754 22.4525 44.2092 22.5496C44.3094 22.8382 44.5449 23.5494 44.6189 23.7857C45.4619 26.4782 46.0334 29.2463 46.9106 31.9281C47.1743 32.7346 47.4515 33.5346 47.7717 34.3204C47.8421 34.4932 47.8946 34.6206 47.9592 34.7926C47.9884 34.8705 47.9829 35.0752 48.0494 35.0253C48.0707 35.0093 48.0524 34.9719 48.0494 34.9454C48.0241 34.7176 47.9581 34.3521 47.9175 34.1538C47.6343 32.7686 47.2713 31.397 46.9175 30.0288C46.4825 28.3466 45.9846 26.6658 45.664 24.9558C45.6471 24.8656 45.567 24.6256 45.6397 24.6815C45.8715 24.8598 46.0604 25.7763 46.1328 25.9871C47.0013 28.5165 47.6536 31.1159 48.5356 33.6399C48.6765 34.0432 49.1029 35.2399 49.0425 34.817C48.9939 34.4771 48.8521 34.1173 48.7578 33.7926C48.3959 32.5466 48.038 31.2992 47.6883 30.0496C47.4673 29.2596 47.2496 28.4693 47.0599 27.6711C47.007 27.4485 46.7944 26.7998 46.8967 27.0045C47.1414 27.4939 47.26 28.1312 47.421 28.6468C47.7912 29.8325 48.1337 31.0268 48.5251 32.2058C48.8691 33.2417 49.2276 34.2777 49.6119 35.2996C49.6669 35.4457 49.7188 35.5925 49.7682 35.7406C49.8569 36.0067 49.571 35.2153 49.4731 34.9524C48.7521 33.0166 48.1307 31.0252 47.6258 29.0218C47.5548 28.7398 47.323 27.8996 47.4175 28.1746C47.5941 28.6883 47.8049 29.1904 47.9869 29.7024C48.7118 31.7416 49.3916 33.7885 50.1744 35.8065C50.4072 36.4066 50.6055 37.0477 50.8793 37.6295C51.2538 38.4253 51.4098 39.0082 51.3133 39.876" stroke="#021120" stroke-width="2" stroke-linecap="round"/>
<path d="M46.126 24.001C46.7616 25.3096 47.1729 26.7243 47.7024 28.0774C47.7553 28.2127 48.0668 28.8983 48.06 28.8274C47.9811 27.999 47.6203 27.1966 47.3968 26.4038C47.223 25.7873 47.137 25.0299 46.8482 24.4524C46.6357 24.0274 47.124 25.3624 47.2926 25.8065C47.6431 26.7294 48.5324 29.54 48.3656 28.5669C48.2388 27.8277 48.0021 27.1008 47.8135 26.376C47.7127 25.9889 47.6445 25.3124 47.4072 24.9801C47.109 24.5626 47.6307 25.9829 47.7822 26.4732C48.2526 27.9948 48.9651 29.4573 49.3621 31.001C49.5861 31.8722 49.7916 32.7601 49.9871 33.6399C50.198 34.5888 50.4205 35.5666 50.5044 36.5322C50.5337 36.8685 50.6079 37.1822 50.6885 37.5044C50.7845 37.8887 50.9063 38.2328 50.8725 37.5565C50.8398 36.9022 50.626 36.2479 50.626 35.5947C50.626 35.5283 50.626 36.1345 50.626 36.3135" stroke="#021120" stroke-width="2" stroke-linecap="round"/>
<path d="M43.2508 19.876C43.2633 19.7021 43.3749 19.9756 43.3932 20.0114C43.6969 20.6062 43.936 21.2351 44.1536 21.8655C44.2426 22.1234 44.4612 22.8916 44.4731 22.619C44.4905 22.2177 44.1912 21.6663 44.0772 21.2926C43.929 20.8065 43.7834 20.3197 43.6328 19.8343C43.6037 19.7407 43.3849 19.1646 43.5147 19.5912C43.9334 20.9669 44.5905 22.3142 45.1779 23.626C45.6264 24.6276 44.9617 23.2848 44.855 23.0565C44.203 21.6616 43.7184 20.1691 42.9731 18.8204C42.9305 18.7434 42.7201 18.4815 42.8967 18.6954C43.3208 19.2093 43.6542 19.7609 43.9939 20.3343C44.4293 21.0695 44.8121 21.8285 45.2092 22.5843C45.2361 22.6355 45.4751 23.0667 45.4592 23.0079C45.3719 22.6849 45.1692 22.3725 45.0251 22.0739C44.6537 21.3039 44.3408 20.4987 44.0494 19.6954C43.8427 19.1252 43.6029 18.5766 43.3758 18.0148C43.2284 17.6502 43.0943 17.3409 42.8446 17.0357C42.8229 17.0092 42.6752 16.7118 42.6883 16.7162C43.028 16.8295 43.3249 17.4825 43.5008 17.751C44.0261 18.5526 44.4715 19.4389 44.9349 20.2787C45.6542 21.5826 47.6166 25.5969 46.9106 24.2857C46.2335 23.0283 45.6005 21.7449 44.9244 20.4871C44.5914 19.8675 44.4896 19.1028 44.0946 18.5322C43.9761 18.3611 43.8661 18.1877 43.7508 18.0148C43.4791 17.6072 43.7477 17.965 43.8828 18.1676C44.4553 19.0265 44.9394 19.9695 45.4522 20.8621C45.8283 21.5167 46.1513 22.1307 46.4071 22.8412C46.5555 23.2535 46.7235 23.4988 46.6258 23.9385" stroke="#021120" stroke-width="2" stroke-linecap="round"/>
<path d="M41.2508 41.501C41.1623 42.8834 41.0481 44.3153 40.7021 45.6607C40.4582 46.6095 40.9054 43.7094 41.091 42.7475C41.1347 42.5211 41.1883 42.3084 41.1883 42.0774C41.1883 41.9798 41.0849 42.4573 41.0771 42.5288C41.0098 43.1485 40.9618 43.7809 40.9417 44.4038C40.9216 45.0291 40.9325 44.556 40.973 44.244C41.0538 43.6206 41.3597 42.7655 41.1744 42.1399C41.1604 42.0926 41.1215 41.8604 41.1292 41.9419C41.2205 42.9004 41.256 43.8422 41.2473 44.8065C41.2337 46.3104 41.1297 47.7896 41.0146 49.2857C41.0024 49.445 40.9403 49.9062 41.0146 49.7649C41.132 49.542 41.1486 49.1719 41.1883 48.9315C41.4433 47.3865 41.4752 45.8126 41.6848 44.2614C41.7937 43.4551 41.9521 42.6482 41.9973 41.8343C42.0001 41.7834 42.0039 41.6307 42.0008 41.6815C41.9483 42.5389 41.871 43.3951 41.7994 44.251C41.6322 46.2483 41.4048 48.2587 41.3758 50.2649C41.3621 51.2067 41.4301 50.1255 41.4348 49.8031C41.4514 48.6686 41.3986 47.5444 41.3133 46.4142C41.2876 46.0748 41.3126 45.2749 41.0771 44.9871C41.0071 44.9015 40.9437 44.9523 40.907 45.0461C40.6994 45.5766 40.7651 46.3133 40.7542 46.869C40.7463 47.274 40.7508 47.6793 40.7508 48.0843C40.7508 48.4755 40.7346 47.3008 40.7646 46.9107C40.7896 46.5859 40.8758 46.2733 40.8758 45.9454C40.8758 45.6313 40.8727 46.4699 40.8723 46.4871C40.842 47.7156 40.765 48.9462 40.7508 50.1746C40.7482 50.3944 40.7508 50.6144 40.7508 50.8343C40.7508 51.2302 40.6827 50.0454 40.657 49.6503C40.6204 49.0868 40.6258 48.5237 40.6258 47.9593C40.6258 47.5585 40.7228 48.0393 40.7369 48.1746C40.8796 49.545 40.8022 50.9368 40.973 52.3031C41.0052 52.561 41.0869 53.3014 41.1744 53.0565C41.2553 52.83 41.2379 52.4985 41.2646 52.2649C41.3837 51.2247 41.454 50.1796 41.5771 49.1399C41.6943 48.1506 41.8883 47.1801 42.1883 46.2301C42.1894 46.2264 42.3488 45.7334 42.4035 45.8378C42.6567 46.3211 42.4933 47.4695 42.4869 47.9454C42.4564 50.2122 42.1883 52.4694 42.1883 54.7371C42.1883 54.9473 42.253 55.5166 42.3688 55.3413C42.5314 55.0952 42.6749 54.447 42.716 54.2579C42.8709 53.5468 43.0572 52.3831 43.1605 51.6885C43.5513 49.0591 43.725 46.4314 43.841 43.7788C43.862 43.2995 43.8428 41.8659 43.907 42.3413C43.9574 42.714 43.9409 43.1143 43.9383 43.4871C43.926 45.2189 43.8258 46.9497 43.6744 48.6746C43.4562 51.16 42.9182 53.6679 42.9035 56.1676C42.9028 56.2961 42.9111 56.6567 42.9765 56.5461C43.0794 56.3719 43.0791 56.1543 43.1188 55.9558C43.2193 55.4536 43.3706 54.6552 43.4556 54.1919C44.1588 50.3583 44.3939 46.5343 44.2195 42.6399C44.2116 42.4638 44.2026 42.2877 44.1883 42.1121C44.1775 41.9804 44.2086 41.6332 44.1119 41.7232C43.9374 41.8856 44.0064 42.1886 43.973 42.4246C43.9065 42.8937 43.799 43.7921 43.7508 44.2301C43.3683 47.7001 42.9738 51.2214 43.0146 54.7163C43.0197 55.1499 43.0096 55.6407 43.1292 56.0669C43.2239 56.4044 43.3357 56.3531 43.4105 55.994C43.6683 54.7567 43.6942 53.4352 43.7334 52.1781C43.792 50.2971 43.7055 48.4247 43.5598 46.5496C43.4763 45.4751 43.3662 44.4026 43.2924 43.3274C43.2663 42.9461 43.2508 41.7993 43.2508 42.1815C43.2508 44.8166 43.1144 47.45 43.0633 50.0843C43.0123 52.7099 42.8671 55.4297 43.2785 58.0357C43.3075 58.2193 43.423 58.6988 43.5181 58.5392C43.6479 58.3214 43.7713 57.7256 43.8028 57.5878C43.9965 56.7426 44.1176 56.0858 44.2473 55.2058C44.7686 51.6673 44.932 48.1073 44.9383 44.5357C44.9392 43.9922 44.9293 43.4474 44.9383 42.9038C44.9441 42.547 44.9818 43.6164 44.9869 43.9732C45.0363 47.4489 44.8123 50.9056 44.6049 54.3725C44.5174 55.8362 44.4291 57.3083 44.4799 58.7753C44.4803 58.7848 44.4767 59.9802 44.657 60.0079C44.8869 60.0433 45.7912 51.8909 45.848 51.2996C46.0666 49.023 46.2098 46.741 46.3619 44.4593C46.3835 44.1355 46.4453 43.1874 46.4869 42.7857C46.501 42.6488 46.4426 42.3541 46.5771 42.3829C46.6192 42.3919 46.6183 42.4594 46.6292 42.501C46.7186 42.8418 46.7242 43.2166 46.7334 43.56C46.8019 46.1049 46.6178 48.6621 46.3966 51.1954C46.1956 53.497 45.9108 55.7904 45.7403 58.0947C45.6694 59.0532 45.5478 60.0852 45.6396 61.0496C45.6696 61.3636 45.7886 61.3234 45.8758 61.0288C46.3178 59.5346 46.407 57.8485 46.5771 56.3135C47.007 52.4347 47.1256 48.5836 47.1952 44.6885C47.2003 44.4034 47.2691 43.5596 47.3133 43.8413C47.5532 45.3712 47.44 47.0256 47.4105 48.5635C47.3318 52.668 46.8092 56.7371 46.6396 60.8343C46.6347 60.9534 46.6327 61.0727 46.6327 61.1919C46.6327 61.2968 46.572 61.5478 46.6674 61.5044C46.8417 61.4252 46.7692 61.1345 46.7994 60.9454C46.9011 60.3067 47.0011 59.4955 47.0771 58.8794C47.618 54.4987 47.9222 50.116 48.1466 45.7093C48.1558 45.5288 48.1647 45.3482 48.1744 45.1676C48.1808 45.0471 48.1203 44.8952 48.2021 44.8065C48.301 44.6994 48.2646 45.092 48.2785 45.2371C48.3359 45.8339 48.3824 46.6793 48.3966 47.244C48.4968 51.2374 47.9372 55.1677 47.6674 59.1399C47.6431 59.4981 47.5839 59.9407 47.6327 60.3065C47.6869 60.7127 47.8076 59.5048 47.8584 59.0982C48.3815 54.9138 48.7502 50.7156 49.1813 46.5218C49.2095 46.2481 49.3145 45.4585 49.3896 45.7232C49.471 46.0098 49.515 46.8665 49.5216 47.0426C49.5535 47.896 49.545 49.0724 49.5216 49.9038C49.4575 52.1819 49.2598 54.446 49.0008 56.7093C48.8611 57.9297 48.6605 59.1595 48.6258 60.3899C48.6226 60.5015 48.6075 60.8216 48.6605 60.7232C48.7444 60.5674 48.7215 60.3744 48.7438 60.1989C49.1886 56.6983 48.3576 63.1782 49.0181 58.0288C49.4445 54.7046 49.841 51.382 50.0876 48.0392C50.0988 47.887 50.1062 47.4354 50.1396 47.5843C50.304 48.3166 50.2762 49.1805 50.2855 49.9176C50.3153 52.2782 50.1072 54.6286 49.8549 56.9732C49.7064 58.353 49.4881 59.7328 49.4035 61.119C49.3892 61.3548 49.2548 61.9056 49.4765 61.8239C49.7611 61.719 49.8379 59.9244 49.8549 59.7926C50.3179 56.2191 50.7304 52.6359 51.1466 49.0565C51.1758 48.8051 51.187 48.5264 51.2508 48.2788C51.3681 47.823 51.3209 49.2179 51.3271 49.6885C51.3676 52.7144 51.1729 55.6764 50.8549 58.6815C50.7815 59.375 50.7157 60.0694 50.6292 60.7614C50.5885 61.0873 50.5831 61.4954 50.473 61.81C50.2201 62.5326 50.5844 60.2825 50.6709 59.5218C50.8673 57.7949 51.0503 56.0682 51.2126 54.3378C51.3017 53.3869 51.3427 52.4117 51.4869 51.4663C51.5247 51.2183 51.5453 51.9654 51.5494 52.2163C51.5715 53.59 51.5175 54.9659 51.3966 56.3343C51.225 58.2762 50.8644 60.2027 50.7577 62.1503C50.729 62.6744 50.8152 62.0317 50.8271 61.9454C50.9904 60.7665 51.1205 59.5832 51.2508 58.4003C51.4589 56.51 51.7827 54.593 51.8133 52.6885C51.818 52.3945 51.8208 51.5126 51.8271 51.8065C51.8562 53.1421 51.7176 54.4909 51.5494 55.8135C51.2661 58.0404 50.8325 60.2533 50.2126 62.4107C49.8379 63.7145 49.4373 65.0128 48.7473 66.1885C48.2726 66.9972 47.6655 67.7847 47.4521 68.7093C47.2641 69.5242 47.7167 67.0578 47.8584 66.2336C48.3439 63.4095 48.8164 60.5594 48.8688 57.6885C48.8801 57.0682 48.8758 56.4477 48.8758 55.8274C48.8758 55.6399 48.8786 55.4523 48.8758 55.2649C48.875 55.216 48.8655 55.362 48.8619 55.4107C48.6049 58.8898 47.9118 62.3263 47.2091 65.7371C46.7946 67.7486 46.3011 69.7429 45.8896 71.7544C45.7532 72.4215 45.8978 71.6915 45.9278 71.501C46.1926 69.8244 46.4039 68.1383 46.598 66.4524C46.9305 63.5636 47.3501 60.6295 47.3758 57.7163C47.3792 57.3211 47.4024 57.0866 47.2785 57.7024C46.9497 59.3365 46.6348 60.9739 46.3271 62.6121C45.8379 65.2174 45.2966 67.8385 45.1049 70.4871C45.0863 70.7442 44.9902 71.2192 45.0667 71.4871C45.0965 71.5914 45.0989 71.2723 45.1084 71.1642C45.1689 70.4752 45.2127 69.8201 45.2577 69.1225C45.4797 65.6822 45.7842 62.1622 45.5008 58.7163C45.4749 58.4018 45.3871 57.4759 45.3271 57.7857C45.1615 58.6415 45.2192 59.6105 45.1466 60.4732C44.807 64.5092 44.1708 68.5079 43.4278 72.4871C43.3202 73.0637 43.1958 73.6427 43.1327 74.2267C43.0868 74.6514 43.246 73.3797 43.2994 72.9558C43.7578 69.3148 43.8939 65.6549 43.8619 61.9871C43.8572 61.4531 43.9506 60.6265 43.8133 60.0774C43.7807 59.947 43.8048 60.3459 43.7994 60.4801C43.7707 61.1918 43.7474 61.6467 43.7091 62.4038C43.5313 65.9213 43.2757 69.4558 43.3271 72.9801C43.3378 73.7068 43.318 74.5465 43.5598 75.2475C43.5835 75.3163 43.6292 75.484 43.6952 75.31C43.7967 75.0425 43.8582 74.4211 43.8792 74.2371C44.3369 70.2251 44.1339 66.1839 43.9799 62.1607C43.9166 60.5065 43.9314 60.9429 43.8896 59.5635C43.8833 59.355 43.9196 58.7381 43.8619 58.9385C43.7336 59.3836 43.7582 59.8591 43.716 60.3204C43.5991 61.5991 43.4334 63.5681 43.341 64.7857C43.0754 68.2862 42.7289 71.8752 43.0633 75.3864C43.0876 75.6419 43.1115 75.8363 43.1535 76.0808C43.1665 76.1562 43.1664 76.351 43.223 76.2996C43.3552 76.1794 43.2998 75.9497 43.3167 75.7718C43.3792 75.1162 43.4072 74.5071 43.4313 73.8413C43.5884 69.5109 43.4143 65.1782 43.341 60.8482C43.3218 59.7128 43.5693 56.3176 43.6119 57.4524C43.6411 58.232 43.5646 59.0307 43.5216 59.8065C43.396 62.0737 43.2719 64.3408 43.157 66.6086C43.0495 68.7302 42.9322 70.8526 42.8862 72.9767C42.8751 73.4858 42.767 74.224 42.8862 74.7406C42.9434 74.9887 43.0408 74.253 43.0771 74.001C43.3476 72.126 43.417 70.2185 43.4591 68.3274C43.5347 64.9324 43.3105 61.5218 43.5355 58.1329C43.8335 53.6436 42.5914 67.1073 42.7056 71.6051C42.723 72.2912 42.7795 72.9744 42.8758 73.6538C42.913 73.9165 42.9378 74.2566 43.0633 74.501C43.1118 74.5955 43.1675 74.3083 43.1744 74.2024C43.2057 73.7195 43.2246 73.2342 43.2508 72.751" stroke="#021120" stroke-width="2" stroke-linecap="round"/>
<path d="M41.6883 52.5634C41.5985 52.2153 41.5607 52.5233 41.5147 52.7301C41.3591 53.4303 41.2791 54.1584 41.1883 54.869C41.1372 55.2693 41.0905 55.6701 41.039 56.0704C41.0369 56.0871 41.0272 56.3565 40.987 56.3968C40.9329 56.4509 40.9453 56.2476 40.9453 56.1711C40.9453 55.8365 40.9781 55.501 41.0008 55.1676C41.0664 54.2043 41.0633 51.3063 41.0633 52.2718C41.0633 52.6302 41.1241 53.0505 41.0599 53.4037C41.0505 53.4553 41.0008 52.7511 41.0008 52.5634C41.0008 52.303 40.8133 52.326 40.8133 52.5877C40.8133 53.8824 41.0533 55.1101 41.0633 56.4037C41.074 57.7849 41.0081 59.1677 41.0008 60.5495C40.9992 60.8708 40.9889 61.1907 40.9696 61.5113C40.9595 61.6792 40.9791 62.1779 40.9383 62.0148C40.896 61.8455 40.9405 61.4962 40.9453 61.3481C40.9642 60.7581 41.0135 60.171 41.0772 59.5843C41.2002 58.4508 41.7154 55.0714 41.487 56.1884C41.3972 56.6273 41.3578 57.0837 41.3133 57.5287C41.2604 58.0586 41.3623 58.9312 41.0946 59.4072C41.0513 59.4842 40.9434 58.6735 40.9418 58.6086C40.9273 57.9986 40.9596 57.3874 40.9071 56.7787C40.8245 55.821 40.6597 57.2354 40.6397 57.487C40.6138 57.8145 40.6258 58.145 40.6258 58.4731C40.6258 58.6114 40.663 58.425 40.6883 58.3759C40.765 58.2271 40.8366 58.2382 40.8758 58.4106C41.0047 58.976 41.0411 59.58 41.0633 60.1572C41.094 60.9546 41.1258 61.7514 41.1258 62.5495C41.1258 62.8704 40.9905 63.7812 41.164 63.5113C41.281 63.3295 41.3082 62.9087 41.3411 62.7231C41.4692 62.0016 41.57 61.2771 41.6571 60.5495C41.8039 59.3231 41.9135 58.0906 42.1224 56.8725C42.1285 56.8366 42.1752 56.7517 42.1883 56.7856C42.2604 56.9721 42.2684 57.2164 42.2786 57.4072C42.385 59.3977 42.2319 61.3992 42.1293 63.3863C42.0521 64.883 41.9589 66.3971 42.0043 67.8968C42.0079 68.0141 41.9735 68.3196 42.0633 68.244C42.179 68.1466 42.1355 67.9496 42.1536 67.7995C42.2054 67.3703 42.2712 66.6122 42.2995 66.2162C42.4414 64.2294 42.4861 62.2303 42.3133 60.244C42.2803 59.8641 42.2355 59.484 42.1918 59.1051C42.1835 59.0327 42.1569 58.8309 42.1258 58.8968C42.0112 59.1395 42.0436 59.6597 42.0321 59.8863C41.9955 60.6093 41.9704 61.3329 41.9522 62.0565C41.9251 63.138 41.8946 64.2188 41.8446 65.2995C41.837 65.4628 41.8763 65.8611 41.7995 66.0287C41.7145 66.214 41.7098 65.6303 41.6849 65.428C41.556 64.381 41.4348 63.3188 41.3828 62.2648C41.3794 62.1955 41.3096 60.894 41.1883 61.5218C41.0301 62.3408 41.2299 63.2238 41.0495 64.0356C40.9113 64.6574 41.0233 62.7618 40.987 62.1259C40.9765 61.9434 41.0112 61.5772 40.9245 61.4037C40.8739 61.3027 40.7743 61.456 40.7647 61.5009C40.6853 61.8715 40.7508 62.3114 40.7508 62.6884C40.7508 63.0977 40.7486 63.4989 40.8133 63.9037C40.9899 65.0074 40.8758 66.194 40.8758 67.3134C40.8758 68.017 40.8713 68.7519 40.7995 69.4523C40.7792 69.6503 40.7325 69.9303 40.7647 69.5287C40.8239 68.7927 40.9204 68.0633 40.9349 67.3238C40.9439 66.8634 40.9383 66.4024 40.9383 65.9419C40.9383 65.5646 40.9383 66.6965 40.9383 67.0738C40.9383 68.8123 40.9383 70.5507 40.9383 72.2891C40.9383 72.3574 40.9383 72.4257 40.9383 72.494C40.9383 72.4986 40.9383 72.4847 40.9383 72.4801C40.9383 72.0495 40.9383 71.619 40.9383 71.1884C40.9383 70.25 40.9176 69.3166 40.8793 68.3794C40.8186 66.8911 40.8758 71.3586 40.8758 72.8482C40.8758 73.7298 40.8639 74.6124 40.8758 75.494C40.887 76.3167 41.0468 75.3405 41.0633 75.0912C41.1272 74.1263 41.1815 73.1556 41.1883 72.1884C41.1885 72.1726 41.1786 71.7465 41.1918 72.1502C41.2058 72.5775 41.2326 73.0044 41.2508 73.4315C41.3081 74.7766 41.3613 76.1214 41.4245 77.4662C41.4369 77.7314 41.435 78.0018 41.4765 78.2648C41.4904 78.3525 41.5848 78.5785 41.612 78.494C41.7357 78.1086 41.7022 77.5851 41.7161 77.1954C41.7435 76.4294 41.7483 75.663 41.7647 74.8968C41.7794 74.2158 41.6933 72.1918 41.8481 72.8551C42.1267 74.0491 42.0358 75.4087 42.0911 76.6259C42.1292 77.4629 42.0089 78.5608 42.3133 79.3655C42.4075 79.6143 42.4492 79.188 42.4522 79.1676C42.5387 78.5808 42.5764 77.9838 42.6258 77.3933C42.7048 76.4502 42.6541 75.3287 42.9661 74.4211C43.036 74.2177 43.1493 75.2078 43.1536 75.2718C43.2148 76.1812 43.1883 77.0969 43.1883 78.0079C43.1883 78.0375 43.1779 78.7339 43.23 78.6155C43.6595 77.6395 43.8439 76.4535 44.0981 75.4245C44.3307 74.4827 44.5384 73.5341 44.7647 72.5912C44.954 71.8025 44.6531 74.2104 44.5495 75.0148C44.4057 76.1307 44.1969 77.2544 44.1883 78.3829C44.1807 79.3869 44.4216 77.7023 44.4314 77.6329C44.7357 75.4754 44.9778 73.2858 45.487 71.1641C45.5387 70.9486 45.6461 70.3348 45.7231 70.5426C45.8323 70.8375 45.7495 71.414 45.7404 71.6954C45.6827 73.4845 44.8587 78.7772 45.3272 77.0495C45.8806 75.009 46.6759 68.7276 46.6258 70.8412C46.5867 72.4938 46.2826 74.1345 46.0356 75.7648C46.0171 75.8865 45.7098 78.3611 45.8064 78.3412C45.9718 78.3072 46.0653 77.8473 46.0807 77.7857C46.3232 76.8157 46.4717 75.8125 46.6328 74.8273C46.9713 72.7574 47.2182 70.6703 47.6258 68.612C47.6838 68.3194 47.8133 67.4388 47.8133 67.737C47.8133 69.8546 47.6265 71.9666 47.3724 74.0669C47.1937 75.5433 47.0032 77.0185 46.8168 78.494C46.7358 79.1353 46.8221 78.5593 46.862 78.3482C47.0456 77.3742 47.2418 76.4028 47.4557 75.435C47.8384 73.7032 48.2605 71.9788 48.4835 70.2162C48.7021 68.4874 48.761 66.7331 48.862 64.994C48.8759 64.7536 48.8871 64.0312 48.8758 64.2718C48.8019 65.8495 48.6145 67.4237 48.4522 68.994C48.2724 70.7339 48.0958 72.4739 47.8758 74.2093C47.7258 75.393 47.5191 76.5771 47.4383 77.7683C47.4335 77.8398 47.3139 78.5266 47.4592 78.1502C47.9106 76.9805 48.2239 75.7349 48.5321 74.5218C49.2911 71.5337 49.5008 68.4994 49.5008 65.428C49.5008 64.7625 49.5008 64.097 49.5008 63.4315C49.5008 63.1404 49.5008 62.7713 49.5008 63.3481C49.5008 67.0097 48.768 70.6491 48.112 74.237C47.9373 75.1924 47.5832 76.2558 47.6258 77.237C47.6396 77.5524 47.8925 77.1621 47.9314 77.0843C48.4927 75.9616 48.8169 74.7005 49.1224 73.4905C50.1346 69.4807 50.8856 65.3944 50.6883 61.2509" stroke="#021120" stroke-width="2" stroke-linecap="round"/>
<path d="M47.376 78.501C47.9029 78.6631 48.0985 77.8192 48.2579 77.4593C48.8273 76.174 49.2429 74.8258 49.6538 73.4836C49.7718 73.0982 49.9108 72.7122 49.994 72.3169C50.0081 72.25 49.9956 72.651 49.994 72.6746C49.9311 73.634 49.6203 74.5962 49.3482 75.5114C49.1265 76.257 48.8601 76.9893 48.6954 77.751C48.6193 78.1029 48.6928 77.6944 48.7406 77.5669C49.1519 76.47 49.4315 75.3569 49.685 74.2163C49.7129 74.0908 49.8002 73.7236 49.81 73.8517C49.8308 74.1227 49.7911 74.4018 49.744 74.6676C49.574 75.6269 49.3704 76.5791 49.2232 77.5426C49.185 77.7927 49.0529 78.5361 49.1329 78.2961C49.2795 77.8563 49.5212 77.4529 49.6572 77.0044C49.8837 76.2581 50.0098 75.4569 50.06 74.6781C50.0834 74.3161 49.9299 75.0164 49.9107 75.0913C49.8053 75.5033 49.7284 75.9223 49.6572 76.3413C49.6092 76.6242 49.5197 76.8748 49.4419 77.1468C49.3788 77.368 49.5821 76.7067 49.685 76.501C50.0491 75.7729 50.2447 74.9504 50.501 74.1815C50.7253 73.5086 50.876 72.7556 50.876 72.0461C50.876 71.826 50.7816 72.4763 50.7232 72.6885C50.6001 73.136 50.4948 73.5897 50.4107 74.0461C50.3892 74.1629 50.2957 74.5067 50.3169 74.3899C50.3895 73.9907 50.5096 73.6015 50.5982 73.2058C50.7771 72.4067 50.9988 71.6054 51.0843 70.7892C51.1805 69.8708 51.126 68.9263 51.126 68.0044C51.126 66.662 51.1885 65.3209 51.1885 63.9801C51.1885 63.6192 51.1547 64.6584 51.1503 64.7093C51.0315 66.0689 50.8893 67.4287 50.6885 68.7788C50.5167 69.9338 50.3135 71.1669 50.3135 72.3413C50.3135 72.5453 50.2047 72.9681 50.501 72.9385C50.898 72.8988 51.2085 71.7191 51.2996 71.4107C51.4542 70.8875 51.4824 70.2765 51.501 69.7371C51.5075 69.547 51.5255 69.3727 51.5774 69.1885C51.6278 69.0091 51.4739 69.6577 51.4524 69.7371C51.3582 70.0848 51.2748 70.4466 51.2024 70.7996C51.1479 71.0652 51.3322 70.2729 51.3899 70.0079C51.7036 68.567 51.8274 67.1517 51.9246 65.6815C51.9704 64.9881 51.9385 64.2861 51.9385 63.5913C51.9385 63.481 51.9385 63.0042 51.9385 63.4107C51.9385 64.6726 51.6293 65.8756 51.5635 67.126C51.5452 67.4729 51.6232 66.4325 51.6885 66.0913C51.9309 64.8237 52.083 63.5756 52.1399 62.2857C52.1659 61.6941 52.1885 61.107 52.1885 60.5149C52.1885 60.2752 52.1889 60.5712 52.1885 60.619C52.1843 61.0557 52.1522 61.4898 52.1121 61.9246C52.0601 62.4882 52.0003 63.0512 51.9246 63.6121C51.9129 63.6987 51.867 64.5328 51.7649 64.5635C51.7093 64.5802 51.7516 64.4479 51.751 64.3899C51.7492 64.2325 51.7502 64.075 51.751 63.9176C51.7544 63.2065 51.772 62.4958 51.8135 61.7857C51.8929 60.4256 52.1646 59.0472 52.1885 57.6885C52.201 56.9737 52.2448 56.2261 52.1746 55.5149C52.1087 54.8472 51.9471 54.1562 51.9385 53.4871C51.9316 52.9503 51.9385 52.4129 51.9385 51.876C51.9385 51.2962 51.9577 51.0294 51.5635 50.5635" stroke="#021120" stroke-width="2" stroke-linecap="round"/>
<path d="M52.9385 49.9385C52.8686 50.8905 52.6974 51.8606 52.6885 52.8135C52.6843 53.2579 52.6885 54.5913 52.6885 54.1468C52.6885 53.0512 52.6236 51.9346 52.7024 50.8413C52.7159 50.6535 52.751 50.0906 52.751 50.2788C52.751 50.6919 52.7559 51.1053 52.7475 51.5183C52.7171 53.0058 52.565 54.4886 52.5044 55.9732C52.476 56.67 52.4512 57.3373 52.3482 58.0288C52.307 58.3051 52.2709 58.5935 52.2544 58.8725C52.2406 59.108 52.2404 59.1929 52.2544 58.8899C52.2827 58.2814 52.4067 57.6765 52.4663 57.0704C52.5475 56.243 52.5457 55.4112 52.626 54.5843C52.6582 54.2521 52.733 53.9244 52.751 53.5913C52.7602 53.4198 52.8124 53.5926 52.8135 53.6676C52.8304 54.8004 52.7583 55.9134 52.7024 57.0426C52.6603 57.8916 52.6767 58.7839 52.5496 59.626C52.5379 59.7031 52.483 59.9849 52.5149 59.7301C52.6039 59.0178 52.7057 58.3049 52.7475 57.5878C52.785 56.9433 52.8135 56.2959 52.8135 55.6503C52.8135 55.4376 52.821 55.4405 52.81 55.6503C52.7425 56.933 52.6473 58.239 52.501 59.5149C52.4092 60.3151 52.3804 61.1195 52.2996 61.9176C52.2539 62.3684 52.126 62.8172 52.126 63.2683C52.126 64.1418 52.2657 61.5271 52.3447 60.6572C52.3876 60.1858 52.3892 59.6969 52.4697 59.2301C52.5306 58.8769 52.501 59.3679 52.501 59.4524C52.501 60.4945 52.442 61.5233 52.3413 62.56C52.3053 62.93 52.2167 63.2933 52.1919 63.6642C52.1853 63.7641 52.1853 63.7763 52.1885 63.6538C52.198 63.2886 52.2627 62.9362 52.3274 62.5774C52.4725 61.7719 52.5909 60.9614 52.7232 60.1538C52.7557 59.9551 52.7234 59.3765 52.8135 59.5565C52.9261 59.7818 52.7698 60.3722 52.7371 60.5982C52.6513 61.1918 52.5388 61.7801 52.4663 62.376C52.3723 63.1473 52.2653 63.9219 52.1399 64.6885C52.079 65.0605 51.9311 65.4105 51.876 65.7822C51.8343 66.0637 51.6885 66.3669 51.6885 66.6503C51.6885 67.2392 51.8838 65.4886 51.9975 64.9107C52.0691 64.5466 52.1369 64.1679 52.1815 63.7996C52.2195 63.4861 52.1885 63.7724 52.1885 63.9176C52.1885 64.7248 52.0996 65.562 51.9871 66.3621C51.9673 66.5028 51.9385 66.9278 51.9385 66.7857C51.9385 66.3863 52.0312 65.983 52.0982 65.5913C52.1526 65.2731 52.1936 64.9462 52.2996 64.6399C52.3825 64.4002 52.312 65.1489 52.2788 65.4003C52.2377 65.7114 52.1527 66.0174 52.1294 66.3308C52.1063 66.6433 52.1773 66.2055 52.1919 66.1433C52.2712 65.8067 52.3135 65.4855 52.3135 65.1399C52.3135 65.1094 52.3071 65.0201 52.2996 65.0496C52.1866 65.4939 51.9849 65.8906 51.8135 66.3135" stroke="#021120" stroke-width="2" stroke-linecap="round"/>
<path d="M41.3134 76.5635C41.2377 76.4166 41.1657 76.2646 41.0322 76.1607C40.8871 76.0479 40.9384 76.7326 40.9384 76.7857C40.9384 77.1549 40.9384 77.5242 40.9384 77.8934C40.9384 78.1994 40.9371 77.779 40.9384 77.7024C40.9436 77.3906 41.0415 77.0849 41.0599 76.7718C41.0857 76.3333 41.0699 76.9512 41.0773 77.0704C41.1521 78.2768 41.1983 79.5235 41.0322 80.7232C40.9601 81.2438 40.8289 81.7739 40.8134 82.2996C40.8028 82.6595 40.7978 82.5195 40.8204 82.2371C40.9082 81.139 41.4384 80.1472 41.4384 79.0288C41.4384 77.7973 41.4384 81.4917 41.4384 82.7232C41.4384 82.8291 41.4255 84.2467 41.5079 84.2232C41.6964 84.1694 41.9113 83.4529 41.9558 83.3448C42.3031 82.5003 42.5657 81.6296 42.8343 80.7579C42.9796 80.2864 43.1165 79.8073 43.2995 79.3482C43.3005 79.3457 43.5707 78.7854 43.5981 78.8274C43.6888 78.9661 43.5486 79.5574 43.5356 79.6364C43.3748 80.6199 43.1433 81.5907 42.9002 82.5566C42.8214 82.8697 42.7328 83.1785 42.7023 83.501C42.7013 83.5112 42.6666 84.0249 42.744 83.9663C43.055 83.7309 43.2196 83.0649 43.3343 82.7441C43.6946 81.7356 43.9797 80.7032 44.3204 79.6885C44.3744 79.5275 44.5656 79.0707 44.5634 79.2406C44.5511 80.2048 44.3349 81.2054 44.1433 82.1468C44.0817 82.4495 43.7926 83.1052 43.8759 83.4385C43.9013 83.54 43.9824 83.2581 44.0287 83.1642C44.3313 82.5507 44.6302 81.9373 44.9037 81.31C45.157 80.729 45.3915 80.1396 45.6711 79.5704C45.691 79.5298 45.8311 79.1607 45.9002 79.1607C46.0549 79.1607 45.4204 81.144 45.362 81.2857C45.1055 81.9083 44.756 82.4997 44.5426 83.1399C44.0676 84.5647 46.1875 80.6229 46.9106 79.3066C46.9463 79.2417 47.4777 78.4132 47.4905 78.56C47.5482 79.2237 47.0255 80.0804 46.737 80.6399C46.3266 81.436 45.8036 82.1528 45.3551 82.9246C45.3065 83.0083 44.8381 83.779 44.9905 83.6399C45.9939 82.7238 46.8369 81.8035 47.4384 80.567C47.7207 79.9867 47.9434 79.2363 48.4349 78.7857C48.5233 78.7048 48.5802 78.6607 48.5495 78.8413C48.4774 79.2662 48.2213 79.6635 47.987 80.0149C47.6039 80.5895 47.1585 81.1178 46.7509 81.6746C46.5849 81.9014 46.2452 82.3892 46.6606 81.876C47.3298 81.0493 47.9802 80.2425 48.4245 79.2649C48.4846 79.1327 48.9151 77.8759 48.8065 78.6364C48.6966 79.4059 48.159 80.1846 47.7856 80.8413C47.7407 80.9202 47.3135 81.6509 47.5565 81.3204C47.8456 80.9273 48.1508 80.5103 48.3898 80.0843C48.6296 79.6569 48.7102 78.9736 49.0773 78.6399C49.1992 78.5291 49.1608 78.7625 49.1468 78.7996C49.0014 79.1828 48.7538 79.5443 48.5252 79.8829C47.8925 80.8203 47.3035 81.7922 46.612 82.6885C46.3762 82.9942 46.1274 83.2927 45.8898 83.5982C45.6485 83.9085 45.2738 84.0821 45.0322 84.3795C44.6554 84.8432 44.1618 85.3335 43.6884 85.6885" stroke="#021120" stroke-width="2" stroke-linecap="round"/>
<path d="M42.251 86.6885C43.1181 86.6735 44.0437 85.9996 44.685 85.4385C44.9925 85.1694 45.3143 84.8752 45.6017 84.5878C45.845 84.3445 46.0212 84.0467 46.31 83.8482C46.5907 83.6552 46.8458 83.2559 47.0635 82.9871C47.2508 82.7557 47.4227 82.5002 47.626 82.2857C48.0983 81.7871 48.3908 80.961 48.5635 80.3135" stroke="#021120" stroke-width="2" stroke-linecap="round"/>
<path d="M41.6259 85.3135C41.6259 84.6681 41.6139 84.0366 41.685 83.3968C41.7352 82.9445 41.528 84.2939 41.4246 84.7371C41.3566 85.0285 41.1954 85.9044 41.1954 85.6051C41.1954 84.9301 41.493 84.2617 41.5009 83.5704C41.5027 83.4217 41.5009 82.674 41.5009 83.2058C41.5009 83.4258 41.497 83.6435 41.4697 83.8621C41.4522 84.0024 41.4782 84.3892 41.3898 84.2787C41.2823 84.1443 41.4419 82.2214 41.2509 83.3551C41.2153 83.5668 41.0577 84.251 41.1919 84.4523C41.3195 84.6437 41.2509 83.9949 41.2509 83.7648C41.2509 83.7221 41.2395 83.4444 41.2544 83.6155C41.2972 84.1075 41.3249 84.5987 41.3621 85.0912C41.3824 85.3601 41.4626 85.8318 41.3447 86.0912C41.2969 86.1964 41.3538 85.5225 41.3621 85.4246C41.3684 85.3488 41.4384 84.7064 41.4384 84.8621C41.4384 85.2492 41.4373 85.6192 41.5009 86.001" stroke="#021120" stroke-width="2" stroke-linecap="round"/>
<path d="M41.126 87.6885C41.156 87.317 41.251 86.2047 41.251 86.5774C41.251 86.8704 41.2088 87.2746 41.0322 87.5218C40.9987 87.5687 41.0874 87.3629 41.0982 87.3413C41.2101 87.1174 41.1076 87.4222 41.0774 87.494C41.0019 87.6732 40.9385 87.7676 40.9385 87.9628C40.9385 87.9731 40.9872 87.8819 41.001 87.8621C41.0837 87.7425 41.2081 87.6746 41.2996 87.5635C41.4443 87.3877 41.5375 87.376 41.751 87.376C41.897 87.376 41.938 87.4931 42.0635 87.5496C42.3667 87.6861 42.6806 87.3866 42.9142 87.251C43.4145 86.9604 44.0826 86.8956 44.4385 86.3899C44.5832 86.1842 44.8541 85.8993 44.8725 85.6503C44.8996 85.2846 44.9675 84.5958 44.5496 84.4176C44.1039 84.2277 43.411 85.1662 43.1399 85.3899C43.1043 85.4192 42.7994 85.7049 42.7649 85.5565C42.697 85.2646 42.852 84.9158 42.9246 84.6399C43.1323 83.8507 42.797 84.7193 42.7197 84.994C42.6763 85.1484 42.6081 85.2519 42.7163 85.0357C43.0482 84.3719 43.4054 83.7202 43.751 83.0635" stroke="#021120" stroke-width="2" stroke-linecap="round"/>
<path d="M41.0633 15.5635C41.0633 15.3378 41.1471 15.1406 41.237 14.9385C41.4185 14.5299 40.8677 14.6844 41.1258 14.8135" stroke="#021120" stroke-linecap="round"/>
<path d="M41.126 15.126C41.0362 15.2662 41.001 15.5383 41.001 15.2649C41.001 14.9887 41.001 15.4578 41.001 15.2787C41.001 15.1411 41.0286 15.076 41.06 14.9662C41.1092 14.7941 41.0486 14.8886 41.1885 15.0635" stroke="#021120" stroke-linecap="round"/>
<path d="M32.5 82L30 77.5C30 77.5 33.5 76 34.5 78.5C35.5 81 32.5 82 32.5 82Z" fill="#F5EFE7"/>
<path d="M28.4548 74.3301L26.8518 69.4382C26.8518 69.4382 30.5725 68.6278 31.0812 71.2719C31.5899 73.916 28.4548 74.3301 28.4548 74.3301Z" fill="#F5EFE7"/>
<path d="M26.3259 66.5185L25.6505 61.4152C25.6505 61.4152 29.4568 61.3034 29.4702 63.9959C29.4836 66.6885 26.3259 66.5185 26.3259 66.5185Z" fill="#F5EFE7"/>
<path d="M48.6683 81.1631L50.7254 76.4442C50.7254 76.4442 47.0977 75.2866 46.342 77.871C45.5862 80.4553 48.6683 81.1631 48.6683 81.1631Z" fill="#F5EFE7"/>
<path d="M51.4509 74.286L52.5622 69.2596C52.5622 69.2596 48.7797 68.8212 48.535 71.5027C48.2903 74.1841 51.4509 74.286 51.4509 74.286Z" fill="#F5EFE7"/>
<path d="M52.9268 66.4973L53.4668 61.3779C53.4668 61.3779 49.659 61.3669 49.7169 64.0588C49.7747 66.7508 52.9268 66.4973 52.9268 66.4973Z" fill="#F5EFE7"/>
</svg>
