<svg width="30" height="100" viewBox="0 0 30 100" fill="none" xmlns="http://www.w3.org/2000/svg">
<path d="M18.3306 1.29578C17.4138 0.373541 16.5729 -0.0623122 15.8331 0.0071717C10.7811 0.480926 0.942789 16.1211 0.0449436 40.2573C-0.492499 54.7226 3.89556 63.8945 7.56914 68.9858C7.52488 68.9668 7.49326 68.9352 7.449 68.9163C6.43102 68.4552 5.3182 68.6004 4.24964 68.771C3.94614 68.8152 4.07892 69.2763 4.3761 69.2258C5.30556 69.0805 6.32354 68.9289 7.21506 69.3269C7.82837 69.5985 8.30259 70.0912 8.61241 70.6786C7.80941 70.2681 6.90524 70.0659 5.99475 70.1101C5.69125 70.1228 5.69125 70.5965 5.99475 70.5839C7.24667 70.5207 8.49227 70.9566 9.42173 71.7967C9.1625 71.8662 8.89694 71.9862 8.66299 72.0746C7.96748 72.3463 7.24035 72.5547 6.5069 72.7C6.20972 72.7568 6.33618 73.218 6.63336 73.1548C7.27829 73.0285 7.91057 72.8516 8.52389 72.6305C8.83371 72.5168 9.13088 72.3715 9.43438 72.2641C9.69362 72.1757 9.95285 72.1441 10.1489 72.3778C10.1805 72.4157 10.2121 72.4347 10.25 72.441C10.1868 72.4536 10.1236 72.4536 10.0667 72.4726C9.59877 72.5863 9.14353 72.7821 8.7199 73.0221C7.85999 73.5148 7.14551 74.216 6.5069 74.9614C6.31089 75.1888 6.646 75.5299 6.84201 75.2962C7.37313 74.6771 7.95483 74.0834 8.64402 73.6285C8.98546 73.4011 9.34586 73.2116 9.72523 73.0727C9.91492 73.0032 10.1046 72.9463 10.3006 72.9084C10.4018 72.8895 10.5029 72.8705 10.6041 72.8579C10.6547 72.8516 10.7053 72.8453 10.7622 72.839C10.876 72.8263 10.8633 72.8516 10.8254 72.7947C10.8507 72.8263 10.8823 72.8516 10.9266 72.8642C11.0846 73.0158 11.2364 73.1548 11.3755 73.2811C11.1479 73.3317 10.9202 73.4517 10.7306 73.5464C10.2563 73.7738 9.80111 74.0518 9.3838 74.3676C8.54918 75.0056 7.84102 75.8078 7.32887 76.7237C7.17712 76.989 7.58811 77.2291 7.73985 76.9638C8.17613 76.1931 8.73887 75.5109 9.41541 74.9424C9.7442 74.6645 10.0983 74.4245 10.4776 74.2097C10.6673 74.1023 10.8633 74.0012 11.0657 73.9128C11.1668 73.8686 11.268 73.8244 11.3755 73.7802C11.3945 73.7738 11.4893 73.7422 11.5462 73.7233C10.7685 74.355 10.1742 75.1761 9.84536 76.13C9.7442 76.4205 10.2058 76.5406 10.3006 76.2563C10.6168 75.3404 11.2174 74.5255 11.9951 73.9507C12.0267 73.9254 12.052 73.9002 12.071 73.8686C12.1279 73.9128 12.1785 73.9507 12.2164 73.9823C12.3872 88.8897 13.0131 98.7249 13.2597 99.1671C13.5442 99.6724 14.0374 99.9819 14.5812 100.001C14.5938 100.001 14.6065 100.001 14.6191 100.001C15.1629 100.001 15.6561 99.704 15.9849 99.1797C16.1935 98.8449 16.1176 96.3245 15.8584 88.3907C15.7383 84.8028 15.5928 80.3495 15.4601 75.2014C15.4917 75.2204 15.5296 75.233 15.5675 75.233C16.0797 75.2835 16.5097 75.6689 16.7689 76.0921C17.0977 76.629 17.2115 77.2733 17.3253 77.8797C17.3822 78.1766 17.8375 78.0503 17.7805 77.7534C17.6478 77.0585 17.5087 76.3384 17.1103 75.7447C16.9206 75.4604 16.674 75.2267 16.3958 75.0498C17.3253 74.8477 18.4255 74.7466 19.14 75.492C19.3486 75.7131 19.6837 75.3783 19.4751 75.1572C19.1147 74.7782 18.6784 74.5824 18.2105 74.5003C19.0894 74.1276 20.1706 74.2918 20.8724 74.9424C21.0937 75.1509 21.4352 74.8161 21.2075 74.6076C20.727 74.1655 20.1137 73.9065 19.4751 73.8433C19.943 73.6349 20.4867 73.6665 20.9167 73.9507C21.0242 74.0202 21.1759 73.9697 21.2391 73.8686C21.3087 73.7549 21.2644 73.6159 21.1569 73.5464C20.7776 73.3001 20.3097 73.199 19.8671 73.2495C19.924 73.2053 19.9746 73.1674 20.0315 73.1232C20.4109 72.8137 20.8092 72.4536 21.2075 72.0241C21.2518 72.0431 21.3087 72.0557 21.3593 72.0367C21.8588 71.8725 22.352 71.7841 22.8704 71.7651C22.9969 71.7651 23.1107 71.6577 23.1107 71.5251C23.1107 71.3988 23.0095 71.285 22.8704 71.285C22.6238 71.2914 22.3836 71.323 22.1433 71.3608C22.5543 71.1398 22.9906 70.9818 23.4585 70.8871C23.5849 70.8618 23.6545 70.7102 23.6229 70.5965C23.5849 70.4639 23.4585 70.407 23.332 70.4323C22.9653 70.5081 22.6049 70.6281 22.2634 70.7797C24.8432 67.3876 27.4924 61.1909 28.6495 49.884C30.9827 26.8153 23.3004 6.29863 18.3306 1.29578ZM10.446 72.4031C10.446 72.4031 10.4524 72.4094 10.4587 72.4157C10.446 72.4157 10.4334 72.4157 10.4207 72.4157C10.4271 72.4157 10.4397 72.4031 10.446 72.3968V72.4031ZM15.5739 98.927C15.3273 99.3187 14.9542 99.5082 14.5875 99.5271C14.2145 99.5208 13.873 99.2997 13.677 98.946C13.1649 97.411 10.9961 53.1561 15.2008 9.0464C13.892 43.0051 14.8847 73.2875 15.3842 88.4034C15.5802 94.2906 15.7193 98.5417 15.5802 98.927H15.5739ZM28.15 49.8398C25.7537 73.2685 16.8953 74.5129 15.4284 74.5571C14.9542 56.3902 14.6128 29.7652 16.0101 1.21367L15.5359 1.17577C12.5515 27.4786 12.0015 54.4194 12.2038 73.3822C11.9572 73.1801 11.6031 72.8769 11.1732 72.4663C11.1732 72.4663 11.1732 72.4663 11.1668 72.46C9.92756 71.2787 8.04967 69.2195 6.22237 66.1243C3.36444 61.2794 0.0512665 52.8655 0.519158 40.2763C1.46759 14.8767 11.7169 0.866246 15.8774 0.480926C16.4527 0.430392 17.1925 0.822029 17.9955 1.63057C20.7333 4.38466 23.8062 11.3141 25.8295 19.2795C27.5999 26.2531 29.4399 37.219 28.15 49.8398Z" fill="#021120"/>
<path d="M4.00079 19.501C4.00079 19.501 7.50079 23.501 14.5008 23.501C21.5008 23.501 26.5008 21.501 26.5008 21.501" stroke="#021120"/>
<path d="M4.50079 19.4385C4.50079 19.3213 4.70435 19.0332 4.6119 19.1051C4.49886 19.193 4.49646 19.3492 4.37579 19.4246C4.29295 19.4763 4.25566 19.6801 4.13968 19.5496C4.10825 19.5142 4.51294 18.9871 4.5494 18.9385C5.24232 18.0146 5.77715 16.9706 6.46607 16.0357C6.6661 15.7642 6.86808 15.4948 7.06329 15.2197C7.09115 15.1804 7.36183 14.827 7.3619 14.8273C7.37747 14.9 7.21758 15.0944 7.19871 15.1225C6.96228 15.4739 6.72728 15.8247 6.50426 16.185C6.24347 16.6063 5.48195 17.8383 5.86884 17.5287C6.08982 17.352 6.2836 16.9873 6.43482 16.7683C6.91505 16.0728 7.37751 15.3659 7.82718 14.6503C8.29286 13.9092 8.74794 13.1615 9.20912 12.4176C9.21786 12.4035 9.27855 12.2892 9.2369 12.4037C9.10107 12.7773 8.83963 13.128 8.63621 13.4628C7.93345 14.6194 7.09961 15.7871 6.57718 17.0426C6.49771 17.2336 6.41917 17.4438 6.38968 17.6503C6.36974 17.7899 6.59331 17.452 6.67093 17.3343C7.69191 15.7858 8.66622 14.2087 9.59801 12.6051C9.66326 12.4928 10.4187 11.2138 9.9869 12.0773C9.18203 13.6871 8.15641 15.171 7.2994 16.751C7.10345 17.1122 6.89756 17.4967 6.77857 17.8933C6.75892 17.9588 6.72205 18.1121 6.78898 18.0982C6.97408 18.0596 7.07086 17.8428 7.18482 17.6919C8.46942 15.9914 9.49721 14.1011 10.3202 12.1398C10.3927 11.9672 10.5567 11.6874 10.5668 11.4871C10.5852 11.1175 10.1194 12.0776 9.92093 12.3898C8.86616 14.0488 7.73723 15.6678 6.75079 17.369C6.50593 17.7913 6.18712 18.6051 6.7994 17.6642C7.76912 16.1738 8.5823 14.5821 9.33412 12.9732C9.35492 12.9287 9.43299 12.8051 9.41746 12.8517C9.30086 13.2015 9.07665 13.5349 8.90009 13.8551C8.60764 14.3855 8.31983 14.9806 7.93829 15.4385" stroke="#021120" stroke-linecap="round"/>
<path d="M11.3133 9.56354C10.8088 10.908 10.3291 12.2654 9.71956 13.567C9.46352 14.1138 9.54239 13.9194 9.30636 14.4455C9.24107 14.591 9.03094 15.0117 9.13796 14.8934C9.2387 14.7821 9.28384 14.6307 9.34976 14.4958C9.50945 14.1691 9.7043 13.7518 9.85497 13.4299C10.3601 12.3504 10.8479 11.2622 11.3654 10.1885C11.4859 9.93855 11.6274 9.69719 11.7439 9.44549C11.755 9.42149 11.7597 9.39409 11.7751 9.37257C11.8382 9.28422 11.7025 9.57728 11.6623 9.67813C11.2099 10.8121 10.7211 11.931 10.2404 13.0531C9.88981 13.8715 9.46628 14.7204 9.31851 15.6069C9.26969 15.8999 9.3352 16.0056 9.57546 15.7545C10.2398 15.0602 10.5384 14.0293 10.8098 13.1365C11.0857 12.229 11.3072 11.3073 11.5321 10.3865C11.6207 10.0236 11.939 8.95117 11.8046 9.29965C11.5052 10.0764 11.2722 10.882 10.9973 11.6677C10.5704 12.8879 10.0608 14.0867 9.70567 15.3309C9.63614 15.5745 9.51727 16.1917 9.74907 16.0896C9.87897 16.0323 9.94742 15.9082 10.013 15.7892C10.3092 15.2514 10.4713 14.6204 10.6362 14.0358C10.9742 12.8378 11.2526 11.6237 11.5598 10.4177C11.6458 10.0803 11.9201 9.07295 11.8116 9.40382C11.6188 9.99134 11.4406 10.5831 11.2387 11.1677C10.7336 12.6302 10.0862 14.0313 9.539 15.4767C9.41057 15.816 9.22728 16.339 9.12928 16.7059C9.10263 16.8057 9.07992 16.9071 9.06851 17.0097C9.06357 17.0542 9.04744 17.1134 9.08067 17.1434C9.2855 17.3281 10.1985 15.2152 10.2074 15.192C10.7472 13.7859 11.1034 12.3133 11.4105 10.8413C11.4205 10.7938 11.5864 9.9259 11.5164 10.4976C11.2419 12.7396 10.3504 14.8624 9.88622 17.0635C9.86817 17.1491 9.78319 17.5552 9.81678 17.7059C9.86579 17.9258 10.1392 17.5914 10.1432 17.5861C10.3427 17.3187 10.4421 17.0679 10.5546 16.7441C10.8706 15.8347 11.0523 14.8793 11.2265 13.9351C11.4192 12.8906 11.5555 11.8357 11.7925 10.7997C11.7977 10.7769 12.0744 9.60645 12.0008 10.2806C11.8567 11.6006 11.5713 12.9085 11.3133 14.2094C11.0487 15.5432 10.6792 16.9246 10.6189 18.2892C10.6034 18.6394 10.785 18.6012 10.9296 18.324C11.1151 17.9685 11.2366 17.5525 11.3411 17.1729C11.5863 16.2817 11.7448 15.3739 11.848 14.4559C11.9868 13.2228 12.1846 9.50535 12.1536 10.7458C12.0903 13.2758 11.4861 15.71 11.105 18.199C11.0868 18.3174 11.0466 18.6329 11.039 18.7788C11.0315 18.924 11.06 18.9715 11.138 18.784C11.6374 17.5837 11.8337 16.2024 12.0355 14.9281C12.2172 13.7808 12.324 12.6251 12.4696 11.4733C12.4972 11.2543 12.5522 10.8415 12.605 10.6017C12.6284 10.4956 12.6862 10.3078 12.7161 10.5427C12.8184 11.3463 12.6857 12.2278 12.572 13.0184C12.3231 14.7495 11.8651 16.4383 11.5737 18.1608C11.5553 18.2695 11.4943 18.686 11.4904 18.8344C11.489 18.8877 11.5222 19.0107 11.5633 18.9767C11.6668 18.891 11.8085 18.5518 11.8341 18.4837C12.1056 17.7617 12.2561 16.9901 12.4001 16.2354C12.6982 14.6732 12.8771 13.0922 13.1466 11.5253C13.1923 11.26 13.3593 10.4868 13.388 10.7545C13.481 11.6232 13.2739 12.6006 13.1518 13.449C12.9311 14.983 12.5878 16.4942 12.355 18.0253C12.3227 18.2374 12.2793 18.5833 12.2647 18.8101C12.258 18.9141 12.2113 19.0429 12.2786 19.1226C12.327 19.18 12.3781 19.0057 12.4036 18.9351C12.5915 18.414 12.686 17.8481 12.7855 17.3066C13.0179 16.042 13.1851 14.7679 13.3567 13.4941C13.4664 12.68 13.5174 11.7911 13.7508 10.9976C13.8707 10.5901 13.7773 11.8482 13.7473 12.2719C13.6432 13.746 13.3831 15.1868 13.1293 16.6399C13.0402 17.1498 12.9398 17.6699 12.914 18.1885C12.9115 18.2387 12.889 18.3584 12.9348 18.3378C13.0502 18.2862 13.1459 17.6987 13.1501 17.6799C13.4803 16.1911 13.6259 14.6641 13.848 13.1573C13.9397 12.5355 14.029 11.9045 14.2005 11.2979C14.2062 11.2775 14.2313 11.2254 14.2369 11.2458C14.2699 11.3656 14.271 11.6298 14.2716 11.7042C14.2816 12.9238 14.074 14.1359 13.8515 15.3309C13.662 16.3484 13.0563 19.3925 13.2994 18.3865C13.7327 16.5935 13.9683 14.7512 14.1814 12.9212C14.2065 12.7053 14.234 12.4904 14.2647 12.2753C14.2695 12.2417 14.2677 12.1431 14.2803 12.1747C14.2855 12.1876 14.2825 12.2024 14.2821 12.2163C14.2771 12.3901 14.2581 12.6853 14.2473 12.8274C14.1126 14.6116 13.766 16.3565 13.5529 18.1295C13.5073 18.5085 13.466 18.8895 13.4696 19.2719C13.4747 19.8283 13.5726 18.1638 13.631 17.6104C13.7334 16.6401 13.8352 15.6698 13.9331 14.699C13.9851 14.184 14.0152 13.658 14.1015 13.1469C14.1162 13.0596 14.1272 12.8825 14.1814 12.8066C14.1969 12.7849 14.1888 12.8597 14.1883 12.8865C14.1803 13.2816 14.1484 13.6791 14.1137 14.0722C13.969 15.7107 13.6507 17.3272 13.4279 18.9559C13.4014 19.1494 13.3758 19.3405 13.3758 19.5358C13.3758 19.8718 13.4398 18.8667 13.473 18.5323C13.5698 17.5583 13.6631 16.5842 13.7439 15.6087C13.7686 15.3096 13.8133 14.411 13.8133 14.7111C13.8133 16.1987 13.5419 17.6715 13.2959 19.133C13.1955 19.7301 13.1163 20.3271 13.0772 20.9316C13.0723 21.0079 13.0517 21.2349 13.0703 21.1608C13.1284 20.928 13.1356 20.6456 13.1623 20.4125C13.2578 19.5782 13.3251 18.7403 13.4314 17.9073C13.4611 17.6741 13.5218 17.311 13.4782 17.8066C13.3678 19.064 13.1204 20.3114 13.039 21.5705C13.0362 21.6134 13.0357 21.9682 13.0564 21.8951C13.2235 21.3046 13.2598 20.6595 13.3376 20.0531C13.3719 19.7859 13.3633 19.4155 13.4626 19.1573C13.4805 19.1108 13.4653 19.2569 13.4626 19.3066C13.4457 19.6238 13.4117 19.9394 13.3723 20.2545C13.2953 20.8705 13.0204 22.712 13.1345 22.1017C13.2275 21.604 13.2836 21.098 13.3376 20.5948C13.3476 20.5013 13.4214 19.702 13.4001 20.258C13.3748 20.9188 13.2759 21.5725 13.2352 22.2319C13.2305 22.3072 13.217 22.5329 13.2213 22.4576C13.236 22.2001 13.2493 21.9431 13.2508 21.6851C13.2511 21.6327 13.2508 21.346 13.2508 21.3726C13.2508 21.6093 13.2438 21.8453 13.2196 22.0809C13.2012 22.2593 13.1739 22.4364 13.164 22.6156C13.1597 22.694 13.1102 22.9629 13.1588 23.0358C13.2266 23.1374 13.204 22.7956 13.2213 22.6747C13.2635 22.379 13.3128 22.0835 13.3376 21.7858C13.3418 21.7351 13.361 21.5862 13.3689 21.6365C13.3997 21.8331 13.3653 22.0487 13.3446 22.2441C13.3238 22.4395 13.3026 22.6348 13.289 22.8309C13.2827 22.9215 13.27 23.0923 13.3012 22.8847C13.3318 22.6801 13.363 22.4755 13.388 22.2701C13.3948 22.2138 13.4418 21.9683 13.3862 22.1608C13.3729 22.2068 13.2188 22.72 13.1189 22.6382C12.9453 22.4962 12.9096 22.0916 12.8793 21.9038C12.7412 21.0482 12.714 20.1716 12.6953 19.3066C12.6839 18.7833 12.6744 18.2603 12.6588 17.7372C12.6578 17.7036 12.6678 17.6053 12.6553 17.6365C12.6133 17.7416 12.5972 18.1396 12.5911 18.192C12.4407 19.4715 12.2092 20.7417 12.0824 22.0236C12.079 22.0583 12.0618 22.403 12.0772 22.3309C12.21 21.7069 12.249 21.0556 12.2907 20.4212C12.3247 19.9049 12.3446 19.3882 12.3446 18.8708C12.3446 18.8179 12.3457 18.7083 12.3428 18.8205C12.3328 19.2059 12.3248 19.5914 12.3133 19.9767C12.2931 20.6543 12.2413 21.3306 12.223 22.008C12.2214 22.0695 12.1616 22.618 12.2578 22.6608C12.2921 22.676 12.3104 22.6033 12.3203 22.567C12.3619 22.4131 12.3875 22.167 12.4001 22.0253C12.4573 21.3811 12.4696 20.7326 12.4696 20.0861C12.4696 19.4304 12.4707 21.3979 12.4453 22.0531C12.4398 22.1933 12.4383 22.333 12.4383 22.4733C12.4383 22.6237 12.4144 22.1734 12.4001 22.0236C12.3841 21.8563 12.2167 19.8713 11.8914 19.942C11.7633 19.9699 11.7276 20.4693 11.7161 20.534C11.639 20.9675 11.5767 21.4031 11.5078 21.8378C11.4803 22.0108 11.4796 21.4886 11.4765 21.3135C11.4621 20.5036 11.4696 19.6931 11.4696 18.883C11.4696 18.74 11.4652 18.597 11.4713 18.4542C11.4732 18.4088 11.4835 18.5442 11.4852 18.5896C11.5171 19.4256 11.5055 20.2654 11.4939 21.1017C11.4875 21.5577 11.3736 22.9057 11.5078 22.4698C11.7142 21.7988 11.7508 19.6758 11.7508 20.3778C11.7508 21.0472 11.7438 21.717 11.7508 22.3865C11.7512 22.4221 11.7698 22.5259 11.7751 22.4906C11.8076 22.2756 11.7703 22.0343 11.723 21.8257C11.6018 21.2907 11.3696 20.7875 11.1883 20.2719C10.9645 19.635 10.8159 18.9941 10.7248 18.3257C10.658 17.8358 10.5946 16.3539 10.5946 16.8483C10.5946 18.1665 10.5709 19.4948 10.7196 20.8066C10.7551 21.1205 10.7901 21.4575 10.9071 21.7545C10.9825 21.9459 11.047 21.9514 11.0755 21.7198C11.2486 20.3119 10.6667 18.9563 10.3515 17.6104C10.3167 17.4619 10.2769 17.3221 10.223 17.1799C10.1918 17.0972 10.191 17.0325 10.1814 17.1642C10.0826 18.5138 10.3346 19.8221 10.5841 21.1434C10.6434 21.4572 10.6975 21.7767 10.7977 22.0809C10.8298 22.1785 10.946 22.4427 10.9626 22.3413C10.9697 22.2978 10.9579 22.1403 10.9557 22.1226C10.8995 21.666 10.7761 21.2167 10.6518 20.7753C10.3394 19.6657 9.96365 18.5685 9.54595 17.4941C9.46428 17.284 9.07189 16.2445 8.97129 17.0392C8.7924 18.4525 8.91576 19.8147 9.42095 21.1469C9.49973 21.3546 9.58782 21.6283 9.77164 21.7753C10.0672 22.0118 10.0327 21.4568 10.0216 21.3188C9.95413 20.4729 9.68919 19.6314 9.34803 18.8587C9.28247 18.7102 8.99155 18.0958 8.91747 17.942C8.83755 17.7761 8.74558 17.5192 8.61018 17.376C8.53718 17.2989 8.42167 17.2758 8.38449 17.4003C8.34276 17.5401 8.35556 17.7248 8.36539 17.8587C8.4059 18.4106 8.51371 18.9637 8.65706 19.4976C8.8105 20.069 9.0387 20.6153 9.33067 21.1295C9.45267 21.3444 9.62587 21.5709 9.88449 21.6243C10.1621 21.6816 10.1748 21.2382 10.1848 21.0757C10.2366 20.2388 9.96449 19.4374 9.63275 18.6816C9.54212 18.4751 9.36735 18.1175 9.25428 17.9108C9.20425 17.8193 9.05584 17.4836 8.91747 17.449C8.84138 17.4299 8.82544 17.5659 8.82025 17.5896C8.75891 17.869 8.8232 18.1765 8.87928 18.449C9.04505 19.2545 9.27701 20.0541 9.55636 20.8274C9.72986 21.3078 9.92417 21.7977 10.197 22.2319C10.2442 22.3072 10.4562 22.6303 10.4348 22.3309C10.3753 21.497 10.0236 20.6467 9.73518 19.8743C9.44709 19.1029 9.15308 18.3166 8.78032 17.5809C8.71898 17.4598 8.51308 17.1192 8.46608 17.4663C8.34989 18.3246 8.5964 19.3007 8.79595 20.1243C8.98802 20.9171 9.22102 21.7778 9.69872 22.4559C9.80872 22.6121 10.0324 22.8697 10.2612 22.7753C10.3625 22.7336 10.4492 22.5987 10.48 22.5045C10.627 22.0539 10.5665 21.4981 10.5199 21.0427C10.4282 20.1459 10.2167 19.2747 9.8949 18.4333C9.74261 18.0351 9.56339 17.4624 9.21956 17.1712C8.59617 16.6432 8.45668 17.8165 8.44178 18.1729C8.40654 19.0155 8.53632 19.8885 8.82372 20.6816C8.97223 21.0914 9.1709 21.6323 9.53206 21.9125C9.68206 22.0289 9.82717 22.044 9.87581 21.8222C10.0359 21.0923 9.71575 20.1894 9.49039 19.5115C9.22464 18.712 8.9056 17.9113 8.52858 17.1573C8.49622 17.0926 8.22872 16.5293 8.0824 16.8361C7.88729 17.2452 7.95539 17.8885 7.97129 18.3153C8.0035 19.1799 8.15231 20.0284 8.4522 20.8413C8.54707 21.0985 8.73832 21.7289 9.07025 21.8066C9.3874 21.8808 9.19156 20.8556 9.18483 20.817C9.03761 19.9715 8.7598 19.1474 8.41747 18.3622C8.34867 18.2043 8.07138 17.388 7.789 17.4021C7.57648 17.4127 7.62428 18.2219 7.62407 18.2806C7.62101 19.1332 7.75503 19.9654 8.03206 20.7719C8.15114 21.1186 8.29291 21.5175 8.55289 21.7892C8.7652 22.0111 8.86521 21.6959 8.86886 21.5132C8.88684 20.6143 8.41367 19.6584 8.05289 18.8622C7.94213 18.6177 7.7167 17.918 7.36365 17.8552C6.71189 17.7393 7.2236 19.8004 7.30983 20.0462C7.42622 20.3778 7.61162 20.7886 7.89664 21.0167C8.00942 21.1069 7.80327 20.2579 7.789 20.2094C7.60603 19.587 7.3375 18.9853 7.05983 18.4003C6.95837 18.1866 6.71947 17.6366 6.61365 17.8483C6.56524 17.9451 6.56074 18.0898 6.55636 18.1868C6.53963 18.5573 6.5678 18.9324 6.61539 19.2997C6.6749 19.7588 6.75396 20.2481 7.0147 20.6417C7.01993 20.6496 7.23744 20.9756 7.2699 20.8431C7.29685 20.733 7.25833 20.51 7.2456 20.4316C7.17626 20.0044 7.06005 19.5852 6.914 19.1781C6.82579 18.9323 6.7079 18.5101 6.4765 18.3413C6.28726 18.2033 6.22206 18.5754 6.21782 18.6729C6.20282 19.018 6.27789 19.3803 6.37581 19.7094C6.41934 19.8557 6.51873 20.225 6.68483 20.2962C6.73101 20.316 6.53419 19.5524 6.5199 19.5167C6.38286 19.1741 6.17822 18.7344 5.84803 18.5323C5.44243 18.2841 5.34272 19.2671 5.34976 19.4854C5.35119 19.5296 5.40425 19.6398 5.41921 19.5983C5.4607 19.483 5.43563 19.3158 5.40011 19.2024C5.30869 18.9106 5.25525 19.6533 5.25254 19.725C5.23866 20.093 5.5015 20.1307 5.70046 19.8344C5.8092 19.6724 5.86146 19.4997 5.88796 19.3083C5.88933 19.2984 5.91349 19.0103 5.90011 19.1747C5.85158 19.7709 6.04825 20.2962 6.41921 20.758C6.41954 20.7584 6.63146 21.0099 6.64317 20.9455C6.68115 20.7366 6.41479 20.3982 6.30983 20.2476C6.17104 20.0484 5.97727 19.7149 5.74213 19.6087C5.59163 19.5407 5.63864 19.8747 5.64664 19.9247C5.76391 20.6566 6.47381 21.117 7.06331 21.4733C7.34362 21.6427 7.71771 21.874 8.05636 21.7354C8.18246 21.6838 8.1399 21.7652 8.21261 21.8622C8.29113 21.9668 8.42207 21.9344 8.34456 22.0635" stroke="#021120" stroke-linecap="round"/>
<path d="M9.00079 15.4072C8.90734 15.803 8.85446 16.2819 8.63968 16.6399C8.45853 16.9418 8.59855 16.4105 8.62753 16.3291C8.64508 16.2798 8.82767 15.7668 8.80635 16.0531C8.78268 16.3709 8.70987 16.6438 8.59454 16.9385" stroke="#021120" stroke-linecap="round"/>
<path d="M10.2195 9.40726C10.1687 9.71244 9.9906 10.0033 9.8619 10.2805C9.49617 11.0683 9.08941 11.8402 8.75426 12.6416C8.67598 12.8288 8.60064 13.0219 8.55287 13.2198C8.5279 13.3232 8.55153 13.3061 8.59975 13.2232C9.07549 12.4059 9.44828 11.5223 9.86885 10.6764C10.1765 10.0575 10.4973 9.44548 10.8063 8.8274C10.819 8.80213 10.8621 8.73062 10.855 8.75796C10.7992 8.97174 10.6881 9.18607 10.5928 9.38122C10.0611 10.4696 9.40805 11.4924 8.82544 12.5531C8.55346 13.0483 7.80242 14.5491 8.16051 14.1121C8.26705 13.9821 8.50918 13.5352 8.55635 13.4507C8.87111 12.8865 9.17662 12.3178 9.51121 11.7649C9.85142 11.2027 10.219 10.6498 10.6119 10.1225C10.967 9.64599 10.0245 11.1567 9.69871 11.6538C8.87784 12.9064 8.00227 14.1227 7.18829 15.3795C7.08841 15.5337 6.8777 15.7877 6.82371 15.9767C6.75382 16.2213 7.07707 15.5353 7.19524 15.31C7.57895 14.5785 7.98984 13.825 8.24385 13.0357C8.24919 13.0191 8.35635 12.6132 8.25426 12.7371C8.14044 12.8753 8.05844 13.0535 7.97301 13.2076C7.74729 13.6149 7.51689 14.019 7.28204 14.4212C6.89134 15.0901 6.43488 15.7808 6.20392 16.5271C6.11619 16.8105 5.93 17.0404 5.79593 17.2996C5.63395 17.6128 5.32245 17.8402 5.12406 18.1312C4.94146 18.399 4.81135 18.6945 4.64315 18.9698C4.59172 19.0539 4.54125 19.239 4.43829 19.2753C4.3854 19.294 4.49403 18.8549 4.50774 18.817C4.68928 18.3142 4.81805 17.7968 5.0251 17.3031C5.07787 17.1773 5.16072 17.1046 5.2369 16.9958C5.29717 16.9097 5.33714 16.815 5.38968 16.725C5.41485 16.6818 5.33748 16.8606 5.32544 16.8795C5.04738 17.3147 4.86726 17.8028 4.64142 18.2545C4.56328 18.4108 4.29045 18.8502 4.41399 18.7267C4.48516 18.6555 4.5149 18.4084 4.55287 18.31C4.70715 17.9103 4.87086 17.5152 5.0251 17.1156C5.2937 16.4197 5.63711 15.7455 5.98864 15.0878C6.3585 14.3958 6.83972 13.7741 7.15704 13.0514C7.18368 12.9907 7.27471 12.8139 7.24385 12.8725C7.14536 13.0597 7.03363 13.2401 6.9244 13.4212C6.51636 14.0975 6.07084 14.7519 5.68135 15.4385C5.50756 15.7448 5.35923 16.0644 5.19524 16.376C4.94587 16.8498 5.60062 15.3845 5.82544 14.8986C6.02598 14.4652 6.23961 14.0372 6.43482 13.6017C6.59826 13.2371 6.73702 12.8614 6.92093 12.5062C7.29929 11.7756 7.75072 11.0735 8.16399 10.3621C8.24025 10.2309 8.32167 10.1023 8.40704 9.97671C8.47748 9.87312 8.26345 10.1821 8.18829 10.2823C7.73265 10.8898 7.35651 11.526 6.97649 12.1816C6.6916 12.673 6.56836 13.2443 6.25253 13.718C6.10013 13.9466 6.02317 14.206 5.89142 14.4402C5.79096 14.6188 5.836 14.5592 5.92093 14.4038C6.24218 13.8158 6.50986 13.2019 6.7994 12.5982C7.09061 11.9911 7.42704 11.4039 7.75079 10.8135C7.94394 10.4613 8.12507 10.0763 8.34454 9.7406C8.49382 9.51229 8.63807 9.28157 8.78204 9.04962C8.82006 8.98837 8.92251 8.86678 8.8185 9.01316C8.67344 9.21732 8.5265 9.41775 8.38968 9.62775C8.13364 10.0207 7.85964 10.4023 7.61017 10.7996C7.46572 11.0297 7.26707 11.2693 7.15878 11.5184C7.09143 11.6733 7.01449 11.8225 6.92093 11.9628C6.82997 12.0993 7.06556 11.6642 7.0876 11.6156C7.2668 11.2205 7.45829 10.8275 7.66399 10.4455C7.90332 10.001 8.21594 9.60114 8.44871 9.15379C8.62141 8.82188 8.83181 8.51156 9.02857 8.19372C9.12844 8.0324 9.23185 7.8363 9.39315 7.73365C9.57507 7.61788 9.71024 7.47907 9.86017 7.32914C9.88441 7.30489 9.96465 7.21471 9.87232 7.22497C9.77735 7.23552 9.70278 7.33334 9.63794 7.39337C9.32511 7.68303 9.06373 8.03064 8.83239 8.38816C8.76458 8.49295 8.58788 8.8167 8.67614 8.72844C8.79462 8.60996 8.87853 8.43841 8.96954 8.29962C9.11113 8.0837 9.26693 7.87576 9.41746 7.66594C9.48372 7.57358 9.75037 7.07065 9.5685 7.44025C8.86585 8.86822 8.09892 10.2647 7.56329 11.7684C7.56287 11.7696 7.35188 12.4395 7.50774 12.2475C8.00634 11.6335 8.34101 10.8691 8.68482 10.1642C8.97396 9.57136 9.23894 8.96507 9.5494 8.38296C9.75344 8.00039 9.52592 8.62644 9.50079 8.69546C9.05509 9.91961 8.44217 11.0748 7.9244 12.2684C7.7841 12.5918 7.39205 13.5544 7.6119 13.2788C7.67758 13.1965 7.82357 12.9253 7.85149 12.8725C8.1299 12.3459 8.38263 11.8052 8.62926 11.2632C9.16261 10.091 9.63187 8.87145 10.3098 7.77185C10.344 7.71638 10.38 7.66194 10.4175 7.60865C10.4439 7.57115 10.4796 7.47471 10.5112 7.50796C10.526 7.5235 10.5126 7.5513 10.5077 7.57219C10.4711 7.72999 10.3777 7.95743 10.3254 8.08782C9.80054 9.39732 9.16089 10.6547 8.58239 11.9402C8.54216 12.0296 8.13504 12.7571 8.21954 12.9489C8.23059 12.974 8.27791 12.9531 8.30114 12.9385C8.44547 12.848 8.61055 12.6034 8.68829 12.4923C9.61322 11.171 10.2533 9.64671 10.8237 8.14685C10.9781 7.741 11.1101 7.31546 11.3029 6.92462C11.3647 6.79937 11.4384 6.70771 11.4192 6.92462C11.3788 7.38082 11.2257 7.84625 11.0911 8.27879C10.8583 9.02638 10.5881 9.76061 10.2925 10.4854C10.2919 10.4867 9.7485 11.7845 9.84801 11.7892C9.88732 11.7911 9.9171 11.749 9.9435 11.7198C10.1299 11.5136 10.3441 11.1579 10.4695 10.9472C10.9206 10.1895 11.2972 9.39934 11.6327 8.58435C11.9354 7.8493 12.2009 7.09929 12.48 6.35518C12.5243 6.23684 12.5684 6.11834 12.6154 6.00101C12.6491 5.91693 12.6505 5.78523 12.7369 5.75796C12.7545 5.75239 12.7546 5.7916 12.756 5.81004C12.7685 5.96996 12.7252 6.24795 12.7074 6.36907C12.5916 7.15532 12.4247 7.93351 12.2543 8.70935C12.1174 9.33246 11.9644 9.952 11.8463 10.5791C11.8242 10.6963 11.802 10.8135 11.7855 10.9316C11.7744 11.0108 11.7237 11.1971 11.7994 11.1712C12.0065 11.1002 12.2839 10.365 12.3272 10.2684C12.6573 9.53101 12.9076 8.76764 13.1258 7.9906C13.3456 7.20793 13.8538 4.84141 13.8237 5.65379C13.7798 6.84032 13.4304 8.01846 13.1258 9.15726C13.0176 9.56165 12.9225 9.90155 12.8202 10.3031C12.7923 10.4127 12.7655 10.5227 12.7404 10.633C12.7216 10.7151 12.6526 10.8162 12.7039 10.883C12.7115 10.8928 12.7301 10.876 12.7369 10.8656C12.805 10.7624 12.8978 10.5156 12.9279 10.4281C13.1228 9.86062 13.2583 9.27236 13.4001 8.69025C13.5885 7.91677 13.7679 7.14102 13.9626 6.36907C14.0028 6.20955 14.0435 6.05012 14.0876 5.89164C14.117 5.78583 14.1188 5.52623 14.2109 5.58608C14.3065 5.64824 14.2255 6.30748 14.223 6.33782C14.1646 7.03871 14.0247 7.72599 13.8688 8.41073C13.6637 9.31212 13.325 10.2374 13.2595 11.1659C13.2422 11.41 13.3109 11.1765 13.3307 11.1052C13.4693 10.6052 13.5734 10.0945 13.6831 9.58782C13.8481 8.8257 14.0058 8.06148 14.2022 7.30657C14.2723 7.03717 14.3448 6.68007 14.4904 6.4281C14.565 6.29892 14.5563 6.569 14.5563 6.57046C14.5583 7.07709 14.4816 7.59037 14.4088 8.08955C14.2294 9.31847 13.5119 12.9694 13.8411 11.7718C14.146 10.6625 14.2626 9.49549 14.4695 8.3656C14.5343 8.01195 14.6085 7.66104 14.6935 7.31178C14.7105 7.2417 14.7395 7.03541 14.7577 7.10518C14.7959 7.25071 14.7781 7.46171 14.7751 7.60171C14.7644 8.10272 14.7154 8.60118 14.6536 9.09823C14.5515 9.91827 14.378 10.7349 14.3202 11.56C14.3167 11.6103 14.3118 11.761 14.3185 11.7111C14.3611 11.3916 14.3806 11.0651 14.4001 10.7441C14.4633 9.70298 14.4654 8.65841 14.5563 7.61907C14.5891 7.24465 14.6883 6.85391 14.6883 6.47844C14.6883 5.66124 14.6953 8.11304 14.7213 8.92983C14.7228 8.97916 14.7284 9.09786 14.7647 8.96629C14.8407 8.69106 14.8834 8.39881 14.9227 8.11733C15.041 7.27007 15.0945 6.41356 15.0945 5.5583C15.0945 5.46634 15.1089 5.19329 15.1241 5.284C15.1299 5.31934 15.1238 5.35388 15.1727 5.34303C15.2236 5.33172 15.1883 5.55101 15.1883 5.61212C15.1883 5.77866 15.3021 5.34268 15.3133 5.3031C15.3874 5.04148 15.3415 5.51126 15.3376 5.57046C15.2996 6.14488 15.301 6.72102 15.2751 7.29615C15.2336 8.21693 15.1597 9.13531 15.1258 10.0566C15.0994 10.7743 15.0661 11.4911 14.9938 12.2059C14.9754 12.3882 14.9517 12.5698 14.9244 12.751C14.9136 12.8226 14.927 13.014 14.8758 12.9628C14.8615 12.9485 14.8641 12.9239 14.8619 12.9038C14.8447 12.7489 14.8499 12.5439 14.8532 12.4021C14.8701 11.6858 14.9236 10.9698 15.0043 10.258C15.076 9.62509 15.1716 8.99415 15.3029 8.3708C15.3301 8.24132 15.3673 7.88514 15.4557 7.76143C15.4705 7.74066 15.4628 7.81237 15.4609 7.83782C15.4375 8.15277 15.3373 8.95573 15.3133 9.14685C15.1912 10.1197 15.0499 11.0876 14.8793 12.0531C14.6551 13.3219 14.3275 14.6096 14.2577 15.9003C14.2549 15.9529 14.2251 16.1996 14.289 16.2493C14.3986 16.3346 14.4062 15.9929 14.4244 15.8552C14.5764 14.7078 14.5467 13.5422 14.6987 12.3934C14.7282 12.1704 14.7546 11.9638 14.7491 12.3448C14.7303 13.642 14.6311 14.9362 14.5216 16.2284C14.4666 16.8776 14.3793 17.5405 14.3793 18.1937C14.3793 18.7953 14.5506 17.0024 14.6102 16.4038C14.6849 15.6532 14.7467 14.9016 14.8133 14.1503C14.8158 14.1223 14.8289 13.3552 14.9018 13.2944C14.9228 13.277 14.9067 13.3488 14.907 13.376C14.9104 13.619 14.9094 13.8621 14.907 14.1052C14.8994 14.8857 14.8625 15.6635 14.8046 16.442C14.7092 17.7253 14.4694 19.021 14.4504 20.3083C14.4487 20.4249 14.4822 20.6291 14.539 20.3587C14.6419 19.8688 14.659 19.3492 14.6796 18.8517C14.7212 17.8494 14.7118 16.8353 14.6397 15.8343C14.6259 15.643 14.6126 16.2172 14.6067 16.409C14.5857 17.0852 14.5542 17.7603 14.5043 18.435C14.4515 19.1475 14.3761 19.858 14.3237 20.5705C14.3009 20.8806 14.2527 21.2407 14.3098 21.5531C14.352 21.7837 14.4454 21.586 14.4695 21.4819C14.5914 20.9571 14.6054 20.3901 14.6293 19.8552C14.6531 19.3194 14.6587 18.7812 14.6223 18.2458C14.6115 18.086 14.6072 17.6378 14.5251 17.7753C14.3747 18.027 14.3645 18.5926 14.3289 18.8482C14.2492 19.4218 14.1823 19.9969 14.1327 20.5739C14.1039 20.9097 14.0655 21.2551 14.072 21.593C14.0723 21.6126 14.085 21.8728 14.1848 21.7163C14.3846 21.403 14.4364 20.914 14.4869 20.567C14.5699 19.9969 14.6127 19.4175 14.5876 18.8413C14.5843 18.7648 14.5655 18.5413 14.532 18.442C14.4973 18.3386 14.4505 18.431 14.4366 18.4784C14.3569 18.7493 14.3447 19.0563 14.3272 19.3343C14.2944 19.8548 14.2855 20.3773 14.2855 20.8986C14.2855 21.2011 14.2225 21.7053 14.3741 21.9958C14.414 22.0725 14.3975 21.8235 14.3932 21.7371C14.3731 21.3381 14.3445 20.9393 14.315 20.5409C14.2981 20.3122 14.2949 20.0647 14.2508 19.8378C14.2361 19.7623 14.1961 19.9835 14.1883 20.06C14.1279 20.6512 14.1052 21.2507 14.0963 21.8448C14.0922 22.1127 14.126 22.9145 14.0928 22.6486C14.022 22.0819 13.9366 21.5153 13.7942 20.9611C13.7138 20.6482 13.676 20.9954 13.664 21.1087C13.6169 21.5541 13.6374 22.0028 13.7751 22.4316C13.8707 22.7292 14.0233 22.7612 14.1432 22.4489C14.2826 22.0857 14.2946 21.6911 14.3688 21.3135C14.4536 20.8828 14.3195 22.2646 14.5876 22.6121C14.6779 22.7292 14.6697 22.3377 14.7508 22.626C14.7621 22.666 14.7804 22.7874 14.8497 22.7389C14.9308 22.6821 14.9816 22.5464 15.0147 22.4628C15.1464 22.1307 15.2335 21.7783 15.3081 21.4298C15.5848 20.1369 15.5719 18.8008 15.6102 17.4854C15.6423 16.3799 15.7077 15.2773 15.7629 14.1729C15.7769 13.8942 15.774 13.0572 15.7838 13.3361C15.8264 14.5499 15.8393 15.7658 15.8254 16.9802C15.818 17.6342 15.797 18.288 15.789 18.942C15.7855 19.2295 15.7677 19.5347 15.8185 19.8205C15.8303 19.8869 15.9115 20.0456 15.9383 19.9837C16.1075 19.5928 16.1173 18.9589 16.157 18.5687C16.3391 16.7827 16.3697 14.9893 16.3758 13.1955C16.3772 12.78 16.3758 12.3644 16.3758 11.9489C16.3758 11.7463 16.3673 12.354 16.3619 12.5566C16.3088 14.555 16.1886 16.5512 16.1397 18.5496C16.131 18.9061 16.1153 19.2724 16.1605 19.6277C16.1681 19.6874 16.1855 19.8981 16.2508 19.9489C16.3653 20.038 16.3329 19.6683 16.3428 19.5236C16.3869 18.8791 16.3931 18.23 16.3862 17.5843C16.3842 17.3985 16.3805 17.2126 16.3706 17.0271C16.3536 16.7089 16.3373 16.7476 16.3116 17.0288C16.255 17.645 16.236 18.2655 16.1952 18.883C16.1499 19.5692 16.0898 20.253 16.0008 20.935C15.9827 21.074 16.0105 21.4698 15.8063 21.4698C15.3295 21.4698 14.7578 22.288 15.039 22.7354C15.3541 23.2367 15.6217 22.661 15.7508 22.3274C15.8489 22.0741 15.9613 21.8231 15.9678 21.5479C15.9817 20.9579 15.9426 20.3665 15.8619 19.7823C15.8409 19.6301 15.8226 19.4697 15.782 19.3205C15.7568 19.2273 15.7535 19.3282 15.7525 19.3691C15.7347 20.0982 15.7453 20.8308 15.7525 21.56C15.7556 21.8696 15.7133 22.359 15.94 22.6191C16.2226 22.9432 16.2842 21.8149 16.3202 21.3864C16.4096 20.3229 16.372 19.2642 16.3168 18.2007C16.2908 17.7002 16.3145 19.203 16.3116 19.7041C16.3078 20.3309 16.2981 20.9576 16.289 21.5843C16.2874 21.6974 16.2299 22.1225 16.2942 22.2649C16.3398 22.3659 16.4552 22.1002 16.4869 21.9941C16.6386 21.4862 16.6588 20.9281 16.6709 20.4038C16.6975 19.257 16.5753 18.1228 16.4661 16.9837C16.4546 16.8636 16.4225 16.5038 16.4435 16.6225C16.4932 16.9041 16.5065 17.2074 16.5251 17.4906C16.6096 18.7774 16.5435 20.0694 16.6258 21.3552C16.6297 21.4161 16.6287 21.7518 16.7404 21.7805C16.7642 21.7866 16.7955 21.7696 16.8063 21.7475C16.8861 21.5851 16.9546 21.0677 16.9661 20.9767C17.2707 18.5665 17.1912 16.1164 16.9765 13.7024C16.9005 12.8487 16.4844 10.3123 16.664 11.1503C16.9451 12.4623 17.0209 13.8467 17.0911 15.1816C17.1364 16.0445 17.1482 16.9083 17.1727 17.7718C17.1769 17.9212 17.1814 18.0705 17.1883 18.2198C17.1919 18.2974 17.1967 18.375 17.2039 18.4524C17.2072 18.4874 17.1903 18.5371 17.2195 18.5566C17.2431 18.5722 17.2328 18.5014 17.2352 18.4732C17.2433 18.3751 17.2488 18.2766 17.2508 18.1781C17.2696 17.2548 17.2317 16.3302 17.1727 15.409C17.0578 13.6163 16.8326 11.8311 16.6501 10.0444C16.6403 9.94878 16.6197 9.66866 16.5945 9.76143C16.517 10.0473 16.542 10.4672 16.5286 10.7423C16.4418 12.516 16.2997 14.2847 16.1848 16.0566C16.1757 16.1975 16.1605 16.6203 16.1779 16.4802C16.2509 15.8897 16.2512 15.2792 16.2543 14.6868C16.2646 12.7204 16.0833 10.7646 16.0095 8.80136C15.935 6.81983 16.2718 12.7728 16.1119 14.7493C16.1068 14.8126 16.0953 14.9977 16.0772 14.9368C16.0633 14.8903 16.0595 14.8411 16.0563 14.7927C16.0291 14.3674 16.0188 13.5882 16.0147 13.2441C15.9978 11.8263 16.0008 10.4084 16.0008 8.9906C16.0008 8.3739 16.0267 7.74299 15.9869 7.12601C15.905 5.85645 15.8227 9.66637 15.8098 10.9385C15.799 12.0089 15.7955 13.0824 15.8463 14.1521C15.8596 14.4324 15.8798 14.7141 15.9313 14.9906C15.9356 15.0135 15.9344 15.0399 15.9487 15.0583C16.0173 15.1465 15.9471 14.8347 15.94 14.7232C15.8768 13.7222 15.8007 12.7223 15.7612 11.7198C15.7191 10.6501 15.6918 9.57509 15.7699 8.50622C15.7805 8.36166 15.7921 8.21675 15.8168 8.07393C15.8213 8.04762 15.845 7.98049 15.8567 8.00448C15.8891 8.07075 15.8831 8.14978 15.8897 8.22323C16.0943 10.5164 16.1427 12.8142 16.5216 15.0913C16.6454 15.8351 16.7948 16.5963 17.0459 17.31C17.1541 17.6173 17.2566 17.7568 17.3272 17.3205C17.6199 15.5095 17.4012 13.6102 17.2647 11.7979C17.1744 10.5996 17.0804 9.40269 17.0216 8.2024C17.0166 8.09944 17.0157 7.99627 17.0095 7.89337C16.9908 7.58594 17.0269 8.50911 17.0355 8.81698C17.1023 11.2153 17.1951 13.6115 17.6536 15.9732C17.7595 16.519 17.8675 17.1566 18.098 17.6746C18.1137 17.7099 18.137 17.7779 18.1727 17.7632C18.217 17.7449 18.2134 17.6739 18.2161 17.626C18.2257 17.4515 18.2171 17.2763 18.2091 17.1017C18.0939 14.5858 17.681 12.0896 17.4418 9.58435C17.3985 9.13163 17.254 7.77828 17.348 8.22323C17.5026 8.95501 17.5711 9.72472 17.6727 10.4628C17.9821 12.7109 18.3194 14.954 18.6622 17.1972C18.7046 17.474 18.8206 18.2873 18.8688 18.0114C18.9935 17.2982 18.8888 16.4157 18.8359 15.718C18.6659 13.4792 18.2002 11.2817 17.9869 9.04962C17.975 8.9256 17.9592 8.80065 17.9678 8.67636C17.9837 8.44559 18.076 9.12666 18.1119 9.35518C18.2919 10.5022 18.4353 11.6552 18.5841 12.8066C18.7518 14.1031 18.9147 15.4003 19.0928 16.6955C19.1305 16.9699 19.1677 17.2445 19.2091 17.5184C19.2325 17.6727 19.256 17.8272 19.2872 17.9802C19.3012 18.0486 19.2851 18.145 19.3445 18.1816C19.387 18.2077 19.3745 18.0855 19.3775 18.0357C19.4025 17.6247 19.3614 17.039 19.3324 16.6677C19.2275 15.3252 19.0171 13.9978 18.8133 12.6677C18.6073 11.3231 18.3653 9.97593 18.2352 8.6208C18.2244 8.5084 18.1775 8.3856 18.223 8.28226C18.2509 8.21903 18.2805 8.4085 18.2994 8.47497C18.3536 8.6659 18.3979 8.85954 18.4418 9.0531C18.9918 11.4806 19.4733 13.9272 19.973 16.3656C20.0737 16.8571 20.1188 17.4506 20.2994 17.9264C20.4097 18.2169 20.3188 17.3031 20.2855 16.9941C20.0151 14.4848 19.4208 12.0251 19.1188 9.52185C18.7878 6.77729 20.373 14.9067 21.0182 17.5948C21.0432 17.6993 21.0633 17.8055 21.098 17.9073C21.1061 17.931 21.1337 17.9888 21.1449 17.9663C21.1746 17.9069 21.1679 17.8348 21.1675 17.7684C21.1615 16.909 21.0113 16.0405 20.8498 15.2007C20.5179 13.476 19.9967 11.7985 19.6327 10.0826C19.3827 8.90386 20.2117 12.4222 20.5303 13.5843C20.8079 14.597 21.0886 15.6096 21.3897 16.6156C21.4514 16.8218 21.645 17.4321 21.6223 17.218C21.543 16.4702 21.3478 15.7119 21.1883 14.9802C20.9661 13.9611 20.7124 12.95 20.473 11.935C20.3427 11.3827 20.1914 10.8151 20.1119 10.251C20.0548 9.84571 20.3304 11.0399 20.4435 11.4333C20.8903 12.9876 21.3833 14.5291 21.9244 16.0531C22.0202 16.3229 22.1103 16.671 22.2508 16.9298C22.3766 17.1615 22.1594 16.4102 22.098 16.1538C21.8249 15.0128 21.5368 13.8759 21.2838 12.7302C21.1342 12.0527 20.9349 11.3196 20.8932 10.6191C20.8906 10.577 20.8818 10.5232 20.9123 10.4941C21.0082 10.4023 21.0532 10.721 21.1015 10.8448C21.4314 11.6902 21.7178 12.5571 22.0043 13.4177C22.3454 14.4426 22.6784 15.4718 22.9539 16.5166C22.9654 16.5602 23.0681 17.2831 23.1744 17.3795C23.1915 17.395 23.1886 17.3348 23.1883 17.3118C23.1858 17.0972 23.1286 16.8103 23.0911 16.6208C22.9094 15.7041 22.6672 14.7987 22.4244 13.8968C22.2093 13.0977 21.9773 12.3033 21.7612 11.5045C21.7419 11.4329 21.7167 11.3625 21.7057 11.2892C21.6776 11.1032 21.8206 11.6475 21.8758 11.8274C22.4606 13.7315 22.9901 15.6492 23.539 17.5635C23.5994 17.7743 23.7014 18.1289 23.7925 18.3517C23.8242 18.4294 23.9461 18.6908 23.907 18.3916C23.6801 16.6557 23.0768 14.9393 22.5268 13.2857C22.3569 12.7749 22.1854 12.265 22.0251 11.751C21.9742 11.5878 21.9274 11.4638 22.0355 11.7805C22.4357 12.9525 22.9197 14.0941 23.3376 15.2597C23.591 15.9664 23.7818 16.708 24.0685 17.4021C24.3401 18.0596 23.7381 16.0176 23.5459 15.3326C23.2544 14.2934 22.9593 13.2529 22.565 12.2475C22.5058 12.0966 22.4517 11.9436 22.414 11.7857C22.4043 11.7454 22.3723 11.6273 22.4383 11.7389C22.7323 12.2356 22.923 12.8061 23.1188 13.3448C23.4849 14.3515 23.8243 15.3631 24.105 16.3968C24.1623 16.608 24.2218 16.8187 24.2768 17.0305C24.2869 17.0692 24.2966 17.108 24.3063 17.1468C24.3249 17.221 24.3101 17.1673 24.2959 17.1156C24.0448 16.1985 23.828 15.2724 23.605 14.3482C23.3963 13.484 23.1355 12.6258 22.9765 11.751C22.9595 11.6578 23.0734 11.9144 23.1119 12.001C23.3443 12.523 23.5347 13.065 23.7195 13.6052C23.9814 14.3703 24.1857 15.1417 24.3688 15.9281C24.3714 15.939 24.5164 16.5321 24.4296 16.2198C24.2701 15.6454 24.1034 15.073 23.9418 14.4993C23.811 14.0352 23.6686 13.5749 23.5338 13.1121C23.5234 13.0766 23.3751 12.4446 23.4175 12.7163C23.5152 13.3437 23.7347 13.9522 23.9001 14.5635C24.0609 15.1578 24.2024 15.7592 24.3428 16.3587C24.4722 16.9112 24.5883 17.466 24.7022 18.0218C24.7492 18.2514 24.7829 18.4988 24.8706 18.718C24.9661 18.9569 24.7418 18.2198 24.6813 17.9698C24.4973 17.2087 24.3355 16.442 24.164 15.6781C24.1602 15.6612 24.0044 15.0102 24.039 15.0045C24.1426 14.9872 24.4535 16.12 24.4695 16.1746C24.6568 16.813 24.8081 17.4582 24.9452 18.1087C24.9995 18.3658 25.1392 19.1384 25.1258 18.876C25.0978 18.3294 24.9364 17.7696 24.8237 17.2371C24.712 16.7093 24.5803 16.1826 24.4904 15.6503C24.432 15.3045 24.5282 15.6822 24.5598 15.7909C24.7344 16.3907 24.897 16.9883 25.0164 17.6017C25.1549 18.3128 25.2633 19.0307 25.4053 19.7406C25.5499 20.4637 25.057 18.3007 25.0025 17.5652C24.9837 17.3114 25.1643 18.0482 25.2352 18.2927C25.3751 18.7757 25.4935 19.2649 25.6223 19.751C25.6745 19.9478 25.8104 20.1394 25.8133 20.3448C25.8169 20.5972 25.8439 20.835 25.9001 21.0809C25.9862 21.4576 24.9294 20.9058 24.855 20.876C24.5427 20.7511 24.2587 20.5462 24.0963 20.2441C23.83 19.7489 23.8825 19.0892 23.8029 18.5479C23.7035 17.872 23.522 17.205 23.2786 16.567C23.1864 16.3254 23.2422 16.6617 23.2473 16.7163C23.2939 17.2083 23.3545 17.6993 23.4244 18.1885C23.5245 18.8889 23.642 19.5839 23.7022 20.2892C23.7151 20.44 23.7148 20.4716 23.6501 20.2788C23.4582 19.7072 23.2887 19.128 23.1015 18.5548C22.8781 17.8707 22.6464 17.1896 22.3515 16.5323C22.288 16.3908 22.2191 16.2518 22.1484 16.1139C22.0858 15.9918 21.9828 15.6595 21.9123 15.7771C21.8798 15.8312 21.9005 15.9035 21.907 15.9663C21.9354 16.2375 22.0659 16.8847 22.1119 17.1052C22.2678 17.8526 22.4473 18.595 22.6084 19.3413C22.7179 19.8481 22.7766 20.4147 22.973 20.9003C23.0273 21.0344 22.9905 20.6101 22.9748 20.4663C22.893 19.7196 22.7482 18.9821 22.5945 18.2475C22.5261 17.9205 22.3163 16.9407 22.3723 17.2701C22.4468 17.7077 22.5507 18.1436 22.6432 18.5774C22.7554 19.104 22.868 19.6306 22.98 20.1573C23.0415 20.4468 23.0895 20.7628 23.2126 21.0357C23.2778 21.1804 23.3405 21.1962 23.3445 21.008C23.3558 20.4788 23.2751 19.9331 23.2057 19.4107C23.1716 19.1546 23.1526 18.5318 23.0008 18.2788C22.9899 18.2607 22.9895 18.3202 22.9904 18.3413C22.9984 18.5285 23.0521 18.9565 23.0737 19.1052C23.1466 19.606 23.2367 20.1072 23.3741 20.5948C23.4332 20.8046 23.5107 21.1397 23.6744 21.3066C23.6944 21.3269 23.7301 21.3446 23.756 21.3326C23.8551 21.2867 23.8393 20.9866 23.8393 20.975C23.8421 20.4076 23.7486 19.8332 23.657 19.2753C23.6022 18.9411 23.5459 18.5859 23.4522 18.258C23.3996 18.0741 23.5076 18.6366 23.5459 18.8239C23.6655 19.409 23.8046 19.9896 23.9695 20.5635C24.0358 20.794 24.1019 21.0858 24.2195 21.3031C24.3095 21.4693 24.3355 21.1562 24.3359 21.1521C24.3717 20.7461 24.3354 20.3295 24.3063 19.9246C24.288 19.6696 24.1855 18.9103 24.2369 19.1607C24.3052 19.4935 24.3581 19.8287 24.4313 20.1607C24.4953 20.4504 24.5489 20.7747 24.6692 21.0496C24.7261 21.1797 24.8 21.1638 24.8168 21.0149C24.8649 20.5876 24.7519 20.1107 24.6831 19.6955C24.6175 19.2997 24.5507 18.899 24.4591 18.508C24.3411 18.0039 24.6851 19.5187 24.8202 20.0184C24.8342 20.0699 25.0938 20.8699 25.0737 20.4559C25.0685 20.3488 25.0402 20.1479 25.0251 20.0496C25.0135 19.9742 25.0006 19.899 24.9869 19.8239C24.9731 19.7484 24.9674 19.5313 24.9331 19.6C24.8801 19.706 24.9873 20.1047 25.0008 20.1989C25.0348 20.4368 25.0745 20.6741 25.105 20.9125C25.1143 20.9855 25.1645 21.1387 25.0911 21.133C24.9878 21.1249 24.7657 20.8562 24.7282 20.8187C24.1039 20.1944 23.5149 19.5253 22.8463 18.9472C22.5965 18.7312 22.3381 18.5258 22.0911 18.3066C21.9138 18.1492 21.7455 17.9474 21.532 17.8361C20.9499 17.5323 20.5051 18.1304 20.2629 18.5843C20.129 18.8355 20.0338 19.0974 19.9418 19.3656C19.9128 19.45 19.8934 19.638 19.7994 19.4819C19.3573 18.7478 19.186 17.8653 18.7178 17.1451C18.443 16.7224 18.3561 17.3981 18.3168 17.5809C18.1528 18.3426 17.974 19.1003 17.7195 19.8378C17.7131 19.8566 17.5945 20.2215 17.5945 20.0809C17.5945 20.0401 17.6135 19.5984 17.5251 19.7093C17.4172 19.8446 17.3852 20.0798 17.3463 20.2389C17.2896 20.4705 17.2388 20.7035 17.1813 20.935C17.138 21.11 17.12 21.3706 17.0008 21.5149C16.8538 21.6929 16.8133 21.999 16.8133 22.2198C16.8133 22.3747 16.7646 22.3961 16.7022 22.5097C16.6453 22.6131 16.4714 23.0302 16.723 22.8066C16.7645 22.7697 16.9517 22.5262 17.0147 22.5548C17.0959 22.5917 17.1765 22.8185 17.2369 22.8882C17.2886 22.9478 17.4858 23.1845 17.5893 23.0965C17.7496 22.9603 17.6075 22.46 17.5772 22.2996C17.5413 22.1102 17.3794 21.5637 17.4765 21.7302C17.5779 21.904 17.5649 22.1939 17.6327 22.3864C17.7332 22.6716 17.9469 22.7864 17.98 22.3899C18.005 22.0898 17.9246 21.7862 17.8376 21.5027C17.7883 21.3421 17.7124 21.0295 17.5841 20.8934C17.5226 20.8281 17.5474 21.0714 17.5546 21.1607C17.5735 21.3936 17.616 21.6206 17.7057 21.8378C17.7668 21.9858 18.1958 22.7892 18.3827 22.31C18.522 21.9531 18.5056 21.4929 18.4973 21.1225C18.4881 20.713 18.4606 20.2819 18.3411 19.8864C18.3208 19.8194 18.255 19.6437 18.2074 19.8066C18.1319 20.0647 18.1738 20.3854 18.1987 20.6434C18.2559 21.2368 18.2978 21.9892 18.6102 22.5184C18.6809 22.6382 18.7945 22.7263 18.855 22.5253C18.9857 22.0906 18.9349 21.545 18.8949 21.1069C18.8363 20.4657 18.7095 19.8365 18.539 19.2163C18.5105 19.1129 18.477 19.0109 18.4435 18.909C18.4242 18.8502 18.4095 18.7091 18.3584 18.7441C18.2599 18.8115 18.2439 19.3076 18.2404 19.3552C18.2002 19.8942 18.2142 20.4371 18.282 20.9732C18.3339 21.3827 18.4111 21.8241 18.5876 22.2024C18.6421 22.3192 18.7935 22.576 18.914 22.3465C19.0827 22.0251 19.0687 21.5534 19.0737 21.2059C19.0804 20.7389 19.0329 20.2818 18.9557 19.8222C18.9232 19.6293 18.8445 19.3843 18.8445 19.1816C18.8445 18.9366 18.9253 19.6649 18.9713 19.9055C19.0747 20.4472 19.1903 20.9894 19.348 21.5184C19.4285 21.7885 19.5179 22.0778 19.7004 22.2996C20.0881 22.7708 19.9807 21.6923 19.973 21.6087C19.9125 20.9535 19.788 20.3009 19.6241 19.6642C19.5925 19.5417 19.5578 19.4198 19.5182 19.2996C19.4961 19.2327 19.4481 19.0539 19.414 19.1156C19.3255 19.2755 19.4085 19.7872 19.4175 19.9212C19.451 20.421 19.5086 20.9185 19.5807 21.4142C19.6147 21.6487 19.6289 21.952 19.723 22.1764C19.7334 22.2011 19.7452 22.2452 19.7716 22.2406C19.8799 22.2219 19.8602 22.0344 19.8654 21.9246C19.9124 20.9285 19.4994 19.9686 19.1813 19.0462C19.1639 18.9955 19.0853 18.7151 19.1518 19.0323C19.2669 19.5806 19.4034 20.1262 19.5598 20.6642C19.6723 21.0511 19.7852 21.4982 20.0095 21.843C20.0974 21.9781 20.2364 22.0634 20.2786 21.8274C20.3631 21.3548 20.2177 20.8092 20.1171 20.3552C20.0311 19.9672 19.929 19.5753 19.8098 19.1955C19.6759 18.7687 19.9396 20.0826 20.0546 20.5149C20.069 20.5689 20.5533 22.1212 20.7248 21.9038C20.9024 21.6785 20.7733 21.0779 20.7404 20.8621C20.6544 20.2983 20.5185 19.735 20.3497 19.1902C20.3264 19.1147 20.3049 19.038 20.2716 18.9663C20.2198 18.8545 20.204 18.999 20.2022 19.0253C20.1745 19.4252 20.2359 19.8478 20.2959 20.2406C20.3655 20.6958 20.4656 21.1449 20.5911 21.5878C20.6291 21.7222 20.669 21.913 20.7456 22.0375C20.7837 22.0994 20.7731 21.893 20.7682 21.8205C20.7521 21.5834 20.73 21.3445 20.6883 21.1104C20.6853 21.0938 20.6527 20.8575 20.6084 20.8378C20.5989 20.8336 20.5991 20.857 20.598 20.8673C20.5896 20.9492 20.5981 21.1037 20.6032 21.1694C20.6168 21.345 20.661 22.2058 20.9852 22.1486C21.1272 22.1235 21.1987 21.9259 21.2265 21.81C21.3453 21.3149 21.2959 20.7687 21.2369 20.2718C21.1608 19.6308 21.0178 19.0071 20.8445 18.3864C20.8026 18.2363 20.7547 17.9475 20.6623 17.8031C20.5948 17.6977 20.6371 18.0533 20.6466 18.1781C20.6923 18.776 20.777 19.3702 20.8775 19.9611C20.9504 20.3892 21.011 20.8687 21.1709 21.2788C21.2309 21.4327 21.3454 21.6126 21.5112 21.6694C22.0028 21.8378 21.6219 19.5494 21.5807 19.3604C21.4899 18.9447 21.3641 18.5196 21.1987 18.126C21.0915 17.8707 21.1061 18.1364 21.1171 18.2527C21.2206 19.3511 21.4512 20.4701 21.73 21.5375C21.7638 21.6671 21.8115 21.9347 21.9244 22.0357C22.0366 22.1362 22.0179 21.7414 22.006 21.5913C21.9484 20.8649 21.8001 20.0669 21.539 19.383C21.5039 19.2912 21.4399 19.1998 21.3949 19.3465C21.3184 19.596 21.3274 19.8866 21.3202 20.1434C21.3048 20.6945 21.2775 21.2717 21.4001 21.8135C21.4367 21.9754 21.5092 22.1872 21.657 22.2857C21.7914 22.3753 21.9607 22.226 22.0286 22.1191C22.134 21.9528 22.1521 21.7315 22.1605 21.5427C22.1839 21.0194 22.125 20.4951 22.0355 19.9802C21.94 19.4306 21.8231 18.8053 21.6015 18.2857C21.5425 18.1473 21.5648 18.5896 21.5945 18.7371C21.7638 19.5751 22.0131 20.3949 22.2699 21.2093C22.3399 21.4313 22.4793 22.1829 22.789 22.258C22.8834 22.2808 23.0575 21.8376 23.0616 21.7354C23.0647 21.6571 23.1179 21.2028 23.0477 21.1607C22.996 21.1297 23.035 21.2812 23.039 21.3413C23.0478 21.4729 23.0645 21.6051 23.0945 21.7337C23.1808 22.1031 23.1533 21.3868 23.1518 21.376C23.069 20.7729 22.881 20.1868 22.7091 19.6052C22.3746 18.4731 22.0281 17.3471 21.7577 16.1972C21.494 15.0753 21.4076 13.9202 21.1362 12.8031C20.9409 11.9991 20.5969 11.2412 20.3237 10.4628C20.0441 9.66619 19.8926 8.83672 19.6327 8.03573C19.5536 7.79176 19.1646 6.88647 18.7438 7.22671C18.3975 7.5068 18.2771 8.17805 18.1744 8.56351C18.0494 9.03294 17.96 9.50603 17.8758 9.98365C17.8555 10.0989 17.855 10.3758 17.756 10.3135C17.5734 10.1987 17.4395 9.38209 17.414 9.28226C17.2033 8.45866 17.0203 7.62729 16.7664 6.81525C16.6707 6.50904 16.5602 6.10659 16.3411 5.84823C16.2923 5.79068 16.2193 5.7449 16.2178 5.85518C16.2129 6.21258 16.317 6.60694 16.3793 6.9524C16.4195 7.17552 16.5888 8.078 16.6293 8.29615C16.6889 8.61809 16.7051 9.15239 16.8532 9.46282C16.9739 9.71561 16.886 8.90161 16.8619 8.62254C16.7918 7.80945 16.6564 7.00427 16.5286 6.19893C16.4544 5.73182 16.3678 5.26122 16.3272 4.78921C16.3246 4.75922 16.2973 4.70266 16.3272 4.69893C16.3573 4.69516 16.3481 4.75613 16.355 4.78573C16.3806 4.89688 16.4023 5.0089 16.4244 5.1208C16.6771 6.39923 16.8443 7.687 17.0355 8.97497C17.1693 9.87627 16.9933 7.15003 16.881 6.2458C16.7927 5.53523 16.6663 4.82992 16.5807 4.11907C16.5684 4.01753 16.5565 3.91572 16.5529 3.81351C16.5518 3.78423 16.5497 3.70292 16.5668 3.72671C16.6046 3.77931 16.6091 3.84942 16.6241 3.91247C16.9092 5.11546 17.0604 6.40389 17.1136 7.63816C17.1182 7.74514 17.1223 7.85233 17.1188 7.95935C17.1174 8.00541 17.1084 8.15824 17.0598 8.0149C16.8547 7.41034 16.7301 6.75444 16.5824 6.13643C16.4027 5.38448 16.189 4.61873 16.1258 3.84476C16.0854 3.34988 16.1258 4.83782 16.1258 5.33435C16.1258 5.56107 16.1491 5.81353 16.1223 6.04094C16.1013 6.21961 16.074 5.68407 16.0633 5.50448C16.0286 4.92005 16.0128 4.3346 16.0043 3.74928C16.0007 3.50423 15.9814 3.23409 16.0077 2.98712C16.0427 2.65978 16.4633 3.47461 16.6119 3.76837C17.2737 5.07679 17.8092 6.45128 18.3827 7.79962C18.5037 8.08406 18.6117 8.42219 18.7768 8.68851C18.8915 8.87343 18.7035 8.25866 18.6432 8.04962C18.2301 6.61889 17.728 5.19436 17.473 3.72323C17.4615 3.65705 17.4301 3.46515 17.4661 3.52185C17.7222 3.92498 17.8854 4.65658 18.0234 5.06698C18.5929 6.76115 19.1344 8.46342 19.5772 10.1955C19.6396 10.4396 19.6117 10.3777 19.5112 10.1607C19.2389 9.57261 18.9826 8.97649 18.7265 8.38122C18.3987 7.61926 18.0796 6.85376 17.7612 6.08782C17.6866 5.90839 17.613 5.72855 17.5372 5.54962C17.4679 5.3859 17.4502 5.16643 17.2994 5.07219C17.2802 5.06021 17.2512 5.09333 17.2473 5.1156C17.218 5.28519 17.2711 5.80531 17.282 5.90379C17.3581 6.59063 17.4807 7.27228 17.6102 7.95066C17.7161 8.50558 17.8186 9.0649 17.9452 9.6156C18.0636 10.1304 18.0501 9.49747 18.0494 9.40379C18.0396 8.0637 17.7469 6.76509 17.6154 5.43851C17.6121 5.40511 17.5889 5.31721 17.6154 5.33782C17.6535 5.36748 17.6489 5.42853 17.6622 5.47497C17.6941 5.58602 17.722 5.69817 17.7508 5.81004C17.9366 6.53138 18.1188 7.25299 18.322 7.96976C18.435 8.36836 18.5621 8.80605 18.697 9.2024C18.734 9.31109 18.7682 9.42129 18.8168 9.52532C18.8583 9.61435 18.925 9.69165 18.9418 9.52532C19.0037 8.91077 18.8551 8.21331 18.756 7.61733C18.6019 6.69094 18.3946 5.77541 18.2091 4.85518C18.2075 4.8469 17.9841 4.00816 18.0494 3.90205C18.0598 3.88523 18.073 3.93419 18.0807 3.9524C18.2267 4.29973 18.3544 4.65448 18.4938 5.00448C19.2018 6.78129 19.9963 8.52599 20.6675 10.317C20.709 10.4277 20.7481 10.5393 20.789 10.6503C20.8204 10.7355 20.8062 10.876 20.8932 10.9021C20.9082 10.9066 20.8995 10.8706 20.8966 10.8552C20.8638 10.6777 20.7564 10.319 20.7161 10.1885C20.1796 8.45065 19.5834 6.7273 18.9904 5.00796C18.9572 4.91184 18.8488 4.62678 18.881 4.72323C19.0252 5.15596 19.1964 5.58336 19.3619 6.00796C19.942 7.49637 20.5919 8.95644 21.2126 10.4281C21.3402 10.7307 21.4629 11.0365 21.6015 11.3343C21.6428 11.4231 21.7343 11.675 21.7612 11.5809C21.8087 11.4148 21.5455 10.8824 21.5129 10.7979C21.2559 10.1318 20.9903 9.46856 20.723 8.80657C20.4544 8.14114 20.1334 7.49111 19.8793 6.82046C19.8433 6.72543 20.0087 6.97782 20.0633 7.06351C20.3598 7.52875 20.6472 7.99977 20.9418 8.46629C21.361 9.13043 21.7756 9.79117 22.1709 10.4698C22.4219 10.9005 22.7043 11.3118 22.8932 11.7753C22.9664 11.9551 23.0773 12.1781 23.0945 12.376C23.1019 12.461 23.01 12.3912 22.9695 12.376" stroke="#021120" stroke-linecap="round"/>
<path d="M19.4695 16.4697C19.5425 17.0748 19.7278 17.7744 19.6067 18.3864C19.547 18.688 19.4663 18.9924 19.4417 19.2996C19.4231 19.5323 19.4383 19.2872 19.4383 19.2076C19.4383 18.9114 19.4503 18.6218 19.499 18.3291C19.51 18.2634 19.5522 18.0866 19.5806 18.1468C19.6806 18.3585 19.6258 18.7422 19.6258 18.9697C19.6258 19.4296 19.5763 19.9033 19.4869 20.3551C19.3985 20.8015 19.1859 21.2117 18.8931 21.5583C18.7043 21.7818 18.5233 21.8875 18.5824 22.2093C18.6405 22.5256 18.8092 22.7084 19.1258 22.744C19.3556 22.7699 19.5438 22.7989 19.7508 22.6954C20.1546 22.4935 20.5873 22.3256 21.0129 22.1746C21.2678 22.0841 21.5507 22.0397 21.8133 21.9697C22.148 21.8805 22.4849 21.7394 22.7959 21.5878C22.9564 21.5095 23.439 21.1927 23.6397 21.3933C23.717 21.4707 23.7453 21.6154 23.7508 21.7197C23.7555 21.8089 23.9157 21.7822 23.7195 21.7822" stroke="#021120" stroke-linecap="round"/>
<path d="M9.90704 7.09473C10.247 6.67963 10.5756 6.25463 10.9175 5.84125C10.9761 5.77031 10.9193 5.848 10.914 5.85514C10.8286 5.96903 10.7395 6.08021 10.6536 6.19369C10.2841 6.68137 9.85373 7.11689 9.47649 7.59473C9.36315 7.73829 9.23487 7.86699 9.06329 7.93848C8.90715 8.00354 8.99698 7.81842 9.03899 7.74403C9.1971 7.46405 9.43118 7.23249 9.64489 6.99577C9.82807 6.79287 9.99829 6.57763 10.1866 6.37945C10.2669 6.29483 10.4389 6.0067 10.4244 6.1225C10.408 6.25395 9.89785 6.66668 10.3341 6.26834C10.6995 5.93475 11.0235 5.56062 11.3862 5.2232C11.4707 5.14458 11.6964 4.88513 11.6362 4.98362C11.5308 5.15607 11.2935 5.30528 11.1553 5.45584C10.8839 5.7515 10.6114 6.08418 10.2577 6.28223C10.2291 6.29828 10.4377 5.96946 10.4678 5.92112C10.605 5.70094 10.7498 5.485 10.8862 5.26487C10.991 5.09579 10.8658 5.18011 10.789 5.26487C10.6088 5.46373 10.4672 5.69667 10.3168 5.91764C10.2241 6.05381 10.1591 6.20383 10.0789 6.34646C9.94953 6.57649 9.97935 6.42673 10.0945 6.26834C10.3003 5.98537 10.4897 5.69278 10.7091 5.41938C11.0523 4.99175 11.4806 4.64572 11.9001 4.29612C12.078 4.14787 12.2756 3.9673 12.4869 3.86556C12.6697 3.77753 12.4207 4.38708 12.4175 4.39507C11.9899 5.44912 10.2819 8.40796 10.8879 7.44542C11.4638 6.5309 11.8128 5.49169 12.4487 4.61556C12.4598 4.60027 12.4944 4.55567 12.4852 4.57216C12.3378 4.83531 12.1617 5.08724 11.9973 5.33952C11.5749 5.98795 11.0756 6.59856 10.6779 7.26139C10.0174 8.36219 12.2043 5.17514 12.7386 4.00792C12.7704 3.93851 12.8928 3.78573 12.8168 3.79264C12.7204 3.80141 12.5326 4.08338 12.473 4.14681C12.1302 4.51202 11.7838 4.87419 11.4296 5.22841C11.4263 5.23174 11.0635 5.65599 11.0077 5.58778C10.8709 5.42059 11.2739 4.88361 11.3376 4.71973C11.4285 4.48595 11.4634 4.24585 11.6136 4.04264C11.7777 3.82071 11.9087 3.56871 12.1102 3.37598C12.3033 3.1912 12.5301 3.03728 12.7369 2.86556C12.8115 2.80364 12.901 2.75351 12.9695 2.685C13.0448 2.60978 13.1405 2.53289 13.0043 2.67112C12.4203 3.26368 11.8058 3.84725 11.2525 4.46973C11.1602 4.57365 11.0769 4.69007 11.0008 4.80653C10.8582 5.02463 11.1214 4.56162 11.1709 4.50792C11.4548 4.19992 11.8025 3.93405 12.1293 3.67459C12.4218 3.44228 12.7174 3.2133 13.0199 2.99403C13.0763 2.95318 13.5703 2.52564 13.6327 2.78743C13.7131 3.12411 13.403 3.63391 13.2716 3.90375C12.9998 4.46225 12.6815 4.99572 12.3758 5.5357C12.3462 5.58799 12.2606 5.74667 12.289 5.69369C12.4382 5.41475 12.6045 5.14656 12.7682 4.87598C13.1704 4.21074 13.5076 3.49692 13.9435 2.85341C13.9811 2.79784 14.2362 2.37109 14.3376 2.38987C14.506 2.42105 14.0526 3.73847 14.032 3.79959C13.8977 4.19891 13.7373 4.58641 13.5754 4.97494C13.4917 5.17588 13.3272 5.45859 13.3272 5.68674C13.3272 5.80855 13.4592 5.48074 13.5077 5.36903C13.6994 4.92839 13.8773 4.48202 14.072 4.04264C14.2257 3.69581 14.3876 3.35288 14.5598 3.01487C14.5862 2.96305 14.7052 2.64157 14.782 2.60862C14.8685 2.57158 14.8086 2.79603 14.8029 2.88987C14.7729 3.38464 14.6487 3.86516 14.4539 4.32042C14.297 4.68714 14.0933 5.02762 13.8723 5.35862C13.7384 5.55915 13.5881 5.83392 13.3966 5.99056C13.3039 6.06646 13.328 5.88235 13.3307 5.86209C13.3769 5.50774 13.523 5.15159 13.6536 4.82389C13.8505 4.32943 14.0646 3.83092 14.3341 3.37077C14.39 3.27538 14.5927 2.90628 14.7751 2.96973C14.9188 3.01971 14.9147 3.30238 14.9175 3.40723C14.9295 3.86507 14.84 4.32771 14.6987 4.76139C14.5948 5.0804 14.4535 5.38511 14.3046 5.685C14.2674 5.75997 14.1553 5.98237 14.1032 6.07389C14.0387 6.18736 14.0834 6.07622 14.1067 6.01139C14.3868 5.23159 14.6738 4.45383 14.9557 3.67459C15.0007 3.55003 15.0681 3.27294 15.1883 3.17112C15.2878 3.08678 15.3511 3.39182 15.3619 3.52181C15.4348 4.40182 15.2699 5.24935 15.0095 6.08431C14.9745 6.1965 14.9438 6.30774 14.914 6.42112C14.8717 6.58162 14.9595 6.0923 14.9834 5.92806C15.1199 4.99234 15.2142 4.03697 15.4313 3.11556C15.5069 2.79498 15.6307 2.47735 15.7334 2.16417C15.7815 2.01776 15.8445 1.87142 15.8445 1.71973C15.8445 1.51251 15.583 1.69366 15.4834 1.74403C15.1332 1.92119 14.8329 2.1591 14.4938 2.35167C14.236 2.49809 13.9899 2.66079 13.7352 2.81174C13.6104 2.8857 13.3758 3.0634 13.3758 2.82737C13.3758 2.32693 13.9281 1.9893 14.282 1.71278C14.3776 1.63812 14.1548 1.75759 14.1362 1.77181C13.9977 1.87752 13.8772 1.99962 13.7543 2.1225C13.6233 2.25349 13.5041 2.34386 13.3602 2.45584C13.207 2.57499 13.3542 2.35347 13.4001 2.30653C13.6063 2.09558 13.7962 1.92602 14.039 1.75792C14.533 1.4159 15.1778 1.12598 15.789 1.12598C15.8711 1.12598 15.9809 1.15389 16.0477 1.20584C16.1373 1.27556 16.1155 1.30786 15.9991 1.27875C15.8517 1.24191 15.7482 1.07202 15.5876 1.03917C15.4273 1.00639 15.3111 1.09399 15.1744 1.15028C14.9592 1.23889 15.5962 0.907227 15.8289 0.907227C16.5858 0.907227 16.3495 1.93509 16.282 2.40723" stroke="#021120" stroke-linecap="round"/>
<path d="M16.5321 2.15718C16.6654 2.16298 16.712 2.20565 16.7942 2.31864C16.9693 2.55934 17.111 2.83012 17.2647 3.08427C17.5802 3.60594 17.9013 4.12297 18.23 4.63635C18.3114 4.76346 18.3878 4.89344 18.4643 5.0235C18.4996 5.08351 18.6174 5.24842 18.5598 5.20927C18.471 5.14885 18.3786 4.97759 18.3272 4.90197C17.976 4.38498 17.6293 3.86432 17.2873 3.34121C16.992 2.88959 16.7321 2.40695 16.4157 1.96968C16.2178 1.69609 16.5045 2.06682 16.5564 2.13288C17.0586 2.77301 17.5704 3.40873 18.1015 4.02524C18.1407 4.07076 18.443 4.44906 18.3359 4.1867C17.9842 3.32516 17.4639 2.5273 16.9869 1.7301C16.8469 1.4961 16.7003 1.22144 16.6414 0.950586C16.635 0.920943 16.5977 0.741363 16.6432 0.728364C16.6776 0.718512 16.7069 0.870455 16.7057 0.893294C16.7017 0.964362 16.4453 0.765255 16.7057 0.908919C17.0633 1.10625 17.3621 1.46392 17.6362 1.76135C18.0569 2.21787 18.24 2.76178 18.48 3.32385C18.6562 3.7366 18.8439 4.14849 18.9973 4.57038C19.0361 4.67693 18.9202 4.35632 18.8671 4.25614C18.6666 3.87793 18.4433 3.50164 18.2091 3.14329C18.0741 2.93661 17.5443 2.43371 17.7595 2.55475C18.2987 2.85808 18.6821 3.53093 18.98 4.04607C19.0393 4.14869 19.0976 4.25161 19.1553 4.3551C19.181 4.4011 19.2202 4.52874 19.2473 4.48357C19.2621 4.45904 19.1544 4.2905 19.1518 4.28566C19.0328 4.05804 18.9233 3.82585 18.7977 3.60163C18.684 3.39866 18.5648 3.17989 18.4088 3.00441C18.2973 2.87902 18.3654 3.08955 18.3758 3.15718" stroke="#021120" stroke-linecap="round"/>
<path d="M18.3445 2.90722C18.3566 2.80127 18.3395 2.53411 18.48 2.70583C18.7134 2.99114 18.8522 3.33471 18.9852 3.67458C19.1523 4.10171 19.2785 4.53787 19.4157 4.97493C19.4391 5.04932 19.4165 5.20509 19.4938 5.19541C19.569 5.18602 19.4692 5.04557 19.447 4.97319C19.2192 4.23043 18.9472 3.49689 18.6779 2.76833C18.6306 2.64035 18.575 2.51144 18.539 2.37944C18.4923 2.20813 18.7123 2.68988 18.7855 2.85166C19.1749 3.71236 19.5227 4.5844 19.855 5.46798C19.9629 5.75506 20.0858 6.03546 20.1987 6.32041C20.2925 6.55709 20.2012 6.42839 20.1206 6.28396C19.7421 5.60556 19.4027 4.85632 19.1397 4.1225C19.095 3.99776 19.2599 4.3587 19.3202 4.47666C19.6028 5.02896 19.8953 5.5774 20.1501 6.14333C20.3081 6.49428 20.7248 7.57098 20.598 7.20757C20.2523 6.21655 19.7215 5.29673 19.3289 4.32562C19.2718 4.1844 19.2113 4.00118 19.2195 3.84472C19.2219 3.79946 19.2578 3.77384 19.3029 3.78916C19.5721 3.8807 19.7912 4.26035 19.9313 4.48361C20.3229 5.10717 20.578 5.81719 20.8567 6.49576C20.8806 6.55387 20.9645 6.78599 20.9643 6.78396C20.9417 6.56866 20.7601 6.33566 20.6675 6.1468C20.5033 5.81206 20.3243 5.48682 20.1258 5.17111C20.0229 5.00755 19.9245 4.80513 19.789 4.66416C19.7329 4.60584 19.9051 4.85245 19.914 4.86555C20.1157 5.16302 20.2865 5.48637 20.4418 5.81C20.8703 6.70307 21.3002 7.6256 21.5945 8.57389C21.7196 8.97688 21.804 9.39413 21.907 9.80305C21.9409 9.93745 21.9425 10.0913 21.9938 10.2197C22.0473 10.3534 21.8847 9.95302 21.8376 9.81694C21.597 9.12228 21.3568 8.42142 21.1605 7.71278C21.1529 7.68514 21.0788 7.33872 21.131 7.40722C21.2951 7.62266 21.4067 7.91614 21.5147 8.16069C21.7574 8.71032 22.0238 9.24389 22.2751 9.78916C22.3575 9.96801 22.4359 10.1476 22.5077 10.3308C22.534 10.3979 22.5997 10.6006 22.5945 10.5287C22.5817 10.3495 22.4804 10.1692 22.4123 10.0079C22.185 9.47001 21.964 8.92901 21.7317 8.39333C21.673 8.25796 21.5996 8.13185 21.5199 8.00791C21.428 7.86505 21.6592 8.31781 21.7352 8.46972C21.9754 8.95022 22.2225 9.4223 22.407 9.92805C22.5144 10.2222 22.7041 10.5344 22.7751 10.8378C22.8631 11.214 23.0015 11.5775 23.0772 11.9558C23.1424 12.2817 23.2508 12.5797 23.2508 12.9072" stroke="#021120" stroke-linecap="round"/>
</svg>
