<svg width="32" height="50" viewBox="0 0 32 50" fill="none" xmlns="http://www.w3.org/2000/svg">
<mask id="path-1-inside-1_67_4271" fill="white">
<path d="M31.981 13.4686C31.983 13.4603 31.983 13.4521 31.9847 13.4438C32.0117 13.3257 32.0028 13.2023 31.9593 13.0892C31.9158 12.976 31.8396 12.8783 31.7402 12.8083C31.6408 12.7382 31.5228 12.6991 31.4011 12.6958C31.2794 12.6925 31.1594 12.7252 31.0564 12.7897C31.0464 12.7959 31.0365 12.8012 31.0269 12.8078C30.5708 13.0937 25.7903 16.3138 22.3996 27.2511V18.4186H22.7313C23.232 18.4178 23.7119 18.2196 24.066 17.8675C24.4201 17.5153 24.6194 17.0379 24.6203 16.5398V4.82995C24.6196 4.33158 24.4203 3.85382 24.066 3.50145C23.7117 3.14909 23.2314 2.9509 22.7304 2.95035H22.3958V0.618696C22.3958 0.454608 22.3303 0.29724 22.2137 0.181212C22.097 0.0651838 21.9389 0 21.7739 0C21.609 0 21.4508 0.0651838 21.3341 0.181212C21.2175 0.29724 21.152 0.454608 21.152 0.618696V2.95035H20.8174C20.3164 2.9509 19.8361 3.14909 19.4818 3.50145C19.1276 3.85382 18.9282 4.33158 18.9276 4.82995V16.5398C18.9282 17.0382 19.1276 17.5159 19.4818 17.8683C19.8361 18.2207 20.3164 18.4189 20.8174 18.4194H21.1541V30.2984L17.6713 26.1688C17.5687 26.047 17.423 25.9691 17.2643 25.9513C17.1056 25.9335 16.9461 25.977 16.8189 26.073C16.6916 26.169 16.6063 26.31 16.5807 26.4668C16.555 26.6236 16.591 26.7842 16.6812 26.9153C17.7766 28.5103 18.1398 32.9732 18.2522 35.0586H14.1537V23.1046H14.4854C14.9864 23.1039 15.4667 22.9056 15.8209 22.5532C16.1752 22.2008 16.3745 21.723 16.3752 21.2246V9.51595C16.3745 9.01754 16.1752 8.53974 15.8209 8.18731C15.4667 7.83488 14.9864 7.6366 14.4854 7.63594H14.1508V5.3047C14.1508 5.14061 14.0853 4.98324 13.9686 4.86721C13.852 4.75119 13.6938 4.686 13.5288 4.686C13.3639 4.686 13.2057 4.75119 13.0891 4.86721C12.9725 4.98324 12.9069 5.14061 12.9069 5.3047V7.63594H12.5723C12.0713 7.6366 11.591 7.83488 11.2368 8.18731C10.8825 8.53974 10.6832 9.01754 10.6825 9.51595V21.2246C10.6832 21.723 10.8825 22.2008 11.2368 22.5532C11.591 22.9056 12.0713 23.1039 12.5723 23.1046H12.9078V35.0565H12.382L8.52608 21.0938C8.42802 20.7792 8.26149 20.49 8.03834 20.2467C7.81519 20.0034 7.5409 19.812 7.23497 19.6861C5.76142 18.928 3.40806 18.7787 3.30855 18.7712C3.21786 18.7653 3.12696 18.7793 3.04238 18.8124C2.95779 18.8455 2.88161 18.8968 2.8193 18.9626C1.1003 20.7638 0.111853 28.2179 0.00488185 29.0622C-0.0127786 29.2016 0.0177863 29.3428 0.0915473 29.4627C0.165308 29.5825 0.277872 29.6738 0.410719 29.7215C0.543566 29.7692 0.688784 29.7705 0.82248 29.7252C0.956176 29.6799 1.07039 29.5907 1.14632 29.4722C1.18405 29.4128 4.78458 23.8012 7.07285 21.0489C7.19061 21.1391 7.27749 21.2632 7.32162 21.4044L11.0946 35.057H8.64881L5.71279 23.3027C5.67817 23.1448 5.58276 23.0065 5.44698 22.9177C5.31121 22.8288 5.14586 22.7963 4.98633 22.8272C4.82679 22.8581 4.68575 22.9499 4.59339 23.083C4.50104 23.216 4.4647 23.3797 4.49216 23.5391L7.38174 35.0565H4.63366C4.46872 35.0565 4.31053 35.1217 4.1939 35.2378C4.07726 35.3538 4.01174 35.5111 4.01174 35.6752C4.01174 35.8393 4.07726 35.9967 4.1939 36.1127C4.31053 36.2288 4.46872 36.2939 4.63366 36.2939H8.12018C8.12557 36.2939 8.13054 36.2968 8.13634 36.2968C8.14215 36.2968 8.15542 36.2968 8.16495 36.2939H11.8911C11.8973 36.2939 11.9027 36.2968 11.9085 36.2968C11.9143 36.2968 11.9222 36.2943 11.9293 36.2939H13.5048C13.5135 36.2939 13.5218 36.2968 13.5309 36.2968C13.54 36.2968 13.5483 36.2943 13.557 36.2939H18.8849C18.8996 36.2954 18.9144 36.2961 18.9292 36.296C18.9342 36.296 18.9388 36.296 18.9433 36.2939H24.8562C24.8645 36.2939 24.8728 36.2968 24.8811 36.2968C24.8893 36.2968 24.891 36.2943 24.896 36.2939H29.1446C29.3095 36.2939 29.4677 36.2288 29.5843 36.1127C29.701 35.9967 29.7665 35.8393 29.7665 35.6752C29.7665 35.5111 29.701 35.3538 29.5843 35.2378C29.4677 35.1217 29.3095 35.0565 29.1446 35.0565H25.1684L22.4526 31.8364C24.4217 23.3042 27.3223 18.5551 29.349 16.1104C26.6253 22.8212 25.3048 34.2962 25.2414 34.7581C25.2191 34.9206 25.2625 35.0853 25.3622 35.2159C25.4618 35.3466 25.6096 35.4325 25.7729 35.4548C25.8012 35.4588 25.8297 35.4607 25.8583 35.4606C26.0087 35.4603 26.1539 35.4059 26.267 35.3073C26.3802 35.2087 26.4535 35.0727 26.4736 34.9244C26.4914 34.7949 28.2979 19.8577 31.8968 13.66C31.9034 13.6501 31.9067 13.6377 31.913 13.627C31.9291 13.5997 31.943 13.5711 31.9544 13.5416C31.9649 13.5179 31.9737 13.4935 31.981 13.4686ZM20.1714 16.5398V4.82995C20.1718 4.65966 20.2399 4.49644 20.361 4.37606C20.4821 4.25568 20.6462 4.18796 20.8174 4.18775H22.7304C22.9016 4.18796 23.0657 4.25568 23.1868 4.37606C23.3079 4.49644 23.3761 4.65966 23.3764 4.82995V16.5398C23.3761 16.7101 23.3079 16.8733 23.1868 16.9937C23.0657 17.1141 22.9016 17.1818 22.7304 17.182H20.8174C20.6462 17.1818 20.4821 17.1141 20.361 16.9937C20.2399 16.8733 20.1718 16.7101 20.1714 16.5398ZM11.9284 21.2246V9.51595C11.9286 9.34559 11.9968 9.18226 12.1179 9.06179C12.239 8.94133 12.4031 8.87355 12.5744 8.87333H14.4874C14.6587 8.87355 14.8229 8.94133 14.944 9.06179C15.0651 9.18226 15.1332 9.34559 15.1334 9.51595V21.2246C15.1332 21.3949 15.0651 21.5583 14.944 21.6787C14.8229 21.7992 14.6587 21.867 14.4874 21.8672H12.5744C12.4031 21.867 12.239 21.7992 12.1179 21.6787C11.9968 21.5583 11.9286 21.3949 11.9284 21.2246ZM1.67537 26.4018C2.13726 23.859 2.81847 21.0872 3.54488 20.033C4.35106 20.1064 5.14804 20.2583 5.92436 20.4867C4.57603 22.1468 2.88813 24.5903 1.67537 26.4018ZM19.4985 35.0565C19.4201 33.198 19.2114 31.3472 18.8741 29.5176L21.2552 32.3413C21.2814 32.3808 21.312 32.4172 21.3464 32.4498L23.5439 35.0565H19.4985Z"/>
</mask>
<path d="M31.981 13.4686C31.983 13.4603 31.983 13.4521 31.9847 13.4438C32.0117 13.3257 32.0028 13.2023 31.9593 13.0892C31.9158 12.976 31.8396 12.8783 31.7402 12.8083C31.6408 12.7382 31.5228 12.6991 31.4011 12.6958C31.2794 12.6925 31.1594 12.7252 31.0564 12.7897C31.0464 12.7959 31.0365 12.8012 31.0269 12.8078C30.5708 13.0937 25.7903 16.3138 22.3996 27.2511V18.4186H22.7313C23.232 18.4178 23.7119 18.2196 24.066 17.8675C24.4201 17.5153 24.6194 17.0379 24.6203 16.5398V4.82995C24.6196 4.33158 24.4203 3.85382 24.066 3.50145C23.7117 3.14909 23.2314 2.9509 22.7304 2.95035H22.3958V0.618696C22.3958 0.454608 22.3303 0.29724 22.2137 0.181212C22.097 0.0651838 21.9389 0 21.7739 0C21.609 0 21.4508 0.0651838 21.3341 0.181212C21.2175 0.29724 21.152 0.454608 21.152 0.618696V2.95035H20.8174C20.3164 2.9509 19.8361 3.14909 19.4818 3.50145C19.1276 3.85382 18.9282 4.33158 18.9276 4.82995V16.5398C18.9282 17.0382 19.1276 17.5159 19.4818 17.8683C19.8361 18.2207 20.3164 18.4189 20.8174 18.4194H21.1541V30.2984L17.6713 26.1688C17.5687 26.047 17.423 25.9691 17.2643 25.9513C17.1056 25.9335 16.9461 25.977 16.8189 26.073C16.6916 26.169 16.6063 26.31 16.5807 26.4668C16.555 26.6236 16.591 26.7842 16.6812 26.9153C17.7766 28.5103 18.1398 32.9732 18.2522 35.0586H14.1537V23.1046H14.4854C14.9864 23.1039 15.4667 22.9056 15.8209 22.5532C16.1752 22.2008 16.3745 21.723 16.3752 21.2246V9.51595C16.3745 9.01754 16.1752 8.53974 15.8209 8.18731C15.4667 7.83488 14.9864 7.6366 14.4854 7.63594H14.1508V5.3047C14.1508 5.14061 14.0853 4.98324 13.9686 4.86721C13.852 4.75119 13.6938 4.686 13.5288 4.686C13.3639 4.686 13.2057 4.75119 13.0891 4.86721C12.9725 4.98324 12.9069 5.14061 12.9069 5.3047V7.63594H12.5723C12.0713 7.6366 11.591 7.83488 11.2368 8.18731C10.8825 8.53974 10.6832 9.01754 10.6825 9.51595V21.2246C10.6832 21.723 10.8825 22.2008 11.2368 22.5532C11.591 22.9056 12.0713 23.1039 12.5723 23.1046H12.9078V35.0565H12.382L8.52608 21.0938C8.42802 20.7792 8.26149 20.49 8.03834 20.2467C7.81519 20.0034 7.5409 19.812 7.23497 19.6861C5.76142 18.928 3.40806 18.7787 3.30855 18.7712C3.21786 18.7653 3.12696 18.7793 3.04238 18.8124C2.95779 18.8455 2.88161 18.8968 2.8193 18.9626C1.1003 20.7638 0.111853 28.2179 0.00488185 29.0622C-0.0127786 29.2016 0.0177863 29.3428 0.0915473 29.4627C0.165308 29.5825 0.277872 29.6738 0.410719 29.7215C0.543566 29.7692 0.688784 29.7705 0.82248 29.7252C0.956176 29.6799 1.07039 29.5907 1.14632 29.4722C1.18405 29.4128 4.78458 23.8012 7.07285 21.0489C7.19061 21.1391 7.27749 21.2632 7.32162 21.4044L11.0946 35.057H8.64881L5.71279 23.3027C5.67817 23.1448 5.58276 23.0065 5.44698 22.9177C5.31121 22.8288 5.14586 22.7963 4.98633 22.8272C4.82679 22.8581 4.68575 22.9499 4.59339 23.083C4.50104 23.216 4.4647 23.3797 4.49216 23.5391L7.38174 35.0565H4.63366C4.46872 35.0565 4.31053 35.1217 4.1939 35.2378C4.07726 35.3538 4.01174 35.5111 4.01174 35.6752C4.01174 35.8393 4.07726 35.9967 4.1939 36.1127C4.31053 36.2288 4.46872 36.2939 4.63366 36.2939H8.12018C8.12557 36.2939 8.13054 36.2968 8.13634 36.2968C8.14215 36.2968 8.15542 36.2968 8.16495 36.2939H11.8911C11.8973 36.2939 11.9027 36.2968 11.9085 36.2968C11.9143 36.2968 11.9222 36.2943 11.9293 36.2939H13.5048C13.5135 36.2939 13.5218 36.2968 13.5309 36.2968C13.54 36.2968 13.5483 36.2943 13.557 36.2939H18.8849C18.8996 36.2954 18.9144 36.2961 18.9292 36.296C18.9342 36.296 18.9388 36.296 18.9433 36.2939H24.8562C24.8645 36.2939 24.8728 36.2968 24.8811 36.2968C24.8893 36.2968 24.891 36.2943 24.896 36.2939H29.1446C29.3095 36.2939 29.4677 36.2288 29.5843 36.1127C29.701 35.9967 29.7665 35.8393 29.7665 35.6752C29.7665 35.5111 29.701 35.3538 29.5843 35.2378C29.4677 35.1217 29.3095 35.0565 29.1446 35.0565H25.1684L22.4526 31.8364C24.4217 23.3042 27.3223 18.5551 29.349 16.1104C26.6253 22.8212 25.3048 34.2962 25.2414 34.7581C25.2191 34.9206 25.2625 35.0853 25.3622 35.2159C25.4618 35.3466 25.6096 35.4325 25.7729 35.4548C25.8012 35.4588 25.8297 35.4607 25.8583 35.4606C26.0087 35.4603 26.1539 35.4059 26.267 35.3073C26.3802 35.2087 26.4535 35.0727 26.4736 34.9244C26.4914 34.7949 28.2979 19.8577 31.8968 13.66C31.9034 13.6501 31.9067 13.6377 31.913 13.627C31.9291 13.5997 31.943 13.5711 31.9544 13.5416C31.9649 13.5179 31.9737 13.4935 31.981 13.4686ZM20.1714 16.5398V4.82995C20.1718 4.65966 20.2399 4.49644 20.361 4.37606C20.4821 4.25568 20.6462 4.18796 20.8174 4.18775H22.7304C22.9016 4.18796 23.0657 4.25568 23.1868 4.37606C23.3079 4.49644 23.3761 4.65966 23.3764 4.82995V16.5398C23.3761 16.7101 23.3079 16.8733 23.1868 16.9937C23.0657 17.1141 22.9016 17.1818 22.7304 17.182H20.8174C20.6462 17.1818 20.4821 17.1141 20.361 16.9937C20.2399 16.8733 20.1718 16.7101 20.1714 16.5398ZM11.9284 21.2246V9.51595C11.9286 9.34559 11.9968 9.18226 12.1179 9.06179C12.239 8.94133 12.4031 8.87355 12.5744 8.87333H14.4874C14.6587 8.87355 14.8229 8.94133 14.944 9.06179C15.0651 9.18226 15.1332 9.34559 15.1334 9.51595V21.2246C15.1332 21.3949 15.0651 21.5583 14.944 21.6787C14.8229 21.7992 14.6587 21.867 14.4874 21.8672H12.5744C12.4031 21.867 12.239 21.7992 12.1179 21.6787C11.9968 21.5583 11.9286 21.3949 11.9284 21.2246ZM1.67537 26.4018C2.13726 23.859 2.81847 21.0872 3.54488 20.033C4.35106 20.1064 5.14804 20.2583 5.92436 20.4867C4.57603 22.1468 2.88813 24.5903 1.67537 26.4018ZM19.4985 35.0565C19.4201 33.198 19.2114 31.3472 18.8741 29.5176L21.2552 32.3413C21.2814 32.3808 21.312 32.4172 21.3464 32.4498L23.5439 35.0565H19.4985Z" fill="#021120" stroke="#F8F8F8" stroke-width="0.4" mask="url(#path-1-inside-1_67_4271)"/>
<path d="M12.7343 48.3511L12.8018 48.4128C13.7987 49.3241 15.1758 49.9003 16.7333 49.9H16.7333C18.2906 49.9003 19.6679 49.324 20.6648 48.4127L20.7323 48.3511L20.7997 48.4128C21.7966 49.3241 23.1738 49.9003 24.7312 49.9H24.7313C26.5207 49.9004 28.1854 49.2634 29.155 48.0889L28.1808 47.3322C27.5194 48.1061 26.1883 48.6719 24.7313 48.6716L12.7343 48.3511ZM12.7343 48.3511L12.6668 48.4127C11.6699 49.324 10.2926 49.9003 8.73534 49.9H8.7353M12.7343 48.3511L8.7353 49.9M8.7353 49.9C6.94588 49.9004 5.28124 49.2634 4.31157 48.0889M8.7353 49.9L4.31157 48.0889M12.2465 47.2552C12.2465 47.2552 12.2465 47.2552 12.2465 47.2552C11.6095 48.0682 10.2404 48.672 8.73534 48.6716L12.2465 47.2552ZM12.2465 47.2552L12.7343 46.633L13.2221 47.2552C13.2221 47.2552 13.2221 47.2552 13.2221 47.2552C13.8591 48.0682 15.2282 48.672 16.7333 48.6716L12.2465 47.2552ZM4.31157 48.0889L5.28716 47.3322C5.94846 48.106 7.27818 48.6719 8.7353 48.6716L4.31157 48.0889ZM20.7323 46.633L21.22 47.2552C21.22 47.2552 21.22 47.2552 21.22 47.2552C21.8571 48.0682 23.2262 48.672 24.7312 48.6716L20.7323 46.633ZM20.7323 46.633L20.2445 47.2552C20.2445 47.2552 20.2445 47.2552 20.2445 47.2552C19.6075 48.0682 18.2383 48.672 16.7333 48.6716L20.7323 46.633ZM20.7323 48.4866C21.7475 49.4147 23.1488 50.0003 24.7312 50L20.7323 48.4866Z" fill="#021120" stroke="#F8F8F8" stroke-width="0.2"/>
<path d="M12.7343 42.3252L12.8018 42.3868C13.7986 43.2979 15.176 43.873 16.7333 43.8727H16.7333C18.2904 43.873 19.668 43.2977 20.6648 42.3868L20.7323 42.3252L20.7997 42.3868C21.7966 43.2979 23.174 43.873 24.7312 43.8727H24.7313C26.5207 43.873 28.1853 43.2361 29.155 42.0616L28.1808 41.3062C27.5194 42.0801 26.1883 42.6446 24.7313 42.6443L12.7343 42.3252ZM12.7343 42.3252L12.6668 42.3868C11.67 43.2977 10.2925 43.873 8.73534 43.8727H8.7353M12.7343 42.3252L8.7353 43.8727M8.7353 43.8727C6.94592 43.873 5.2813 43.2361 4.31162 42.0616M8.7353 43.8727L4.31162 42.0616M12.2465 41.2292C11.6095 42.0423 10.2403 42.6446 8.73534 42.6443L12.2465 41.2292ZM12.2465 41.2292L12.7343 40.6071L13.2221 41.2292C13.8591 42.0423 15.2283 42.6446 16.7333 42.6443L12.2465 41.2292ZM4.31162 42.0616L5.28712 41.3062C5.94843 42.08 7.27822 42.6446 8.7353 42.6443L4.31162 42.0616ZM20.7323 40.6071L21.22 41.2292C21.22 41.2292 21.22 41.2292 21.22 41.2293C21.8571 42.0423 23.2263 42.6446 24.7312 42.6443L20.7323 40.6071ZM20.7323 40.6071L20.2445 41.2292C20.2445 41.2292 20.2445 41.2292 20.2445 41.2293C19.6074 42.0423 18.2383 42.6446 16.7333 42.6443L20.7323 40.6071ZM20.7323 42.4606C21.7475 43.3885 23.149 43.973 24.7312 43.9727L20.7323 42.4606Z" fill="#021120" stroke="#F8F8F8" stroke-width="0.2"/>
</svg>
