<svg width="33" height="26" viewBox="0 0 33 26" fill="none" xmlns="http://www.w3.org/2000/svg">
<path d="M1.19428 24.4997C0.527866 24.5317 0.575698 25.5313 1.24211 25.4992H32.2292C32.8957 25.4992 32.8957 24.4997 32.2292 24.4997C32.2311 24.4987 1.19428 24.4997 1.19428 24.4997Z" fill="#021120"/>
<path d="M17.7196 3.50648C17.5555 3.51319 17.4051 3.60095 17.3174 3.73979L10.5614 14.3535L8.96445 13.557C8.7111 13.43 8.40244 13.5392 8.28505 13.7971L5.61819 19.6667L6.52895 20.0796L8.983 14.6825L10.5175 15.4497C10.7463 15.5648 11.0247 15.4878 11.1628 15.2721L17.7079 4.98243L19.7998 8.74941C19.8491 8.83703 19.9234 8.90787 20.0136 8.95245L22.8249 10.3581L25.2604 17.6598L26.2082 17.3425L23.7112 9.84564C23.669 9.72029 23.5788 9.61662 23.4604 9.55767L20.5973 8.12565L18.1725 3.76517C18.0818 3.60063 17.9074 3.50044 17.7196 3.50648Z" fill="#021120"/>
<path d="M26.9464 14.5014C26.8558 14.5008 26.7668 14.5249 26.6888 14.5711C26.6108 14.6172 26.5468 14.6837 26.5037 14.7634L24.113 19.1722L23.0873 18.1465C23.0382 18.0979 22.9797 18.06 22.9152 18.0352C22.8508 18.0104 22.7819 17.9992 22.7129 18.0023C22.6439 18.0054 22.5764 18.0228 22.5144 18.0533C22.4525 18.0839 22.3976 18.1269 22.3531 18.1798L16.8559 24.6768L17.6196 25.3224L22.7663 19.2386L23.8805 20.3528C23.9355 20.4079 24.0025 20.4495 24.0764 20.4741C24.1502 20.4987 24.2288 20.5057 24.3058 20.4946C24.3829 20.4835 24.4562 20.4546 24.5201 20.4101C24.584 20.3656 24.6366 20.3068 24.6737 20.2384L26.8616 16.2022L30.2632 25.1749L31.2003 24.8207L27.4113 14.8261C27.3758 14.7312 27.3124 14.6494 27.2293 14.5915C27.1463 14.5335 27.0477 14.5021 26.9464 14.5014Z" fill="#021120"/>
<path d="M5.2199 17.5006C5.01755 17.5106 4.84058 17.6416 4.77282 17.8325C4.05023 20.4225 2.27191 24.8315 2.27191 24.8315L3.21292 25.1673C3.21292 25.1673 4.52309 21.5036 5.29311 19.3494L6.7837 22.7025C6.88897 22.9377 7.15556 23.0544 7.39965 22.9719L8.34457 22.6586L8.74675 25.0785L9.73559 24.9165L9.23385 21.9167C9.18267 21.6151 8.87424 21.4305 8.58373 21.5263L7.51386 21.8806L5.69919 17.7993C5.61637 17.6102 5.42615 17.4916 5.2199 17.5006Z" fill="#021120"/>
<path d="M17.2617 4.34814L15.2621 10.3471C15.2226 10.4681 15.2308 10.5996 15.2849 10.7148C15.3391 10.83 15.4352 10.9201 15.5535 10.9669L17.3503 11.6864L13.8859 15.1507C13.8329 15.2044 13.7927 15.2694 13.7683 15.3408C13.744 15.4123 13.7361 15.4883 13.7454 15.5632C13.7546 15.6381 13.7807 15.7099 13.8216 15.7733C13.8626 15.8367 13.9173 15.89 13.9818 15.9292L15.9298 17.1024L12.3843 20.6479C12.3025 20.7296 12.2516 20.8371 12.2401 20.9522C12.2287 21.0672 12.2575 21.1826 12.3216 21.2788L13.0964 22.4373L10.8864 24.6436L11.5948 25.3519L14.0925 22.8542C14.1743 22.7725 14.2253 22.665 14.2367 22.55C14.2481 22.4349 14.2194 22.3195 14.1552 22.2233L13.3842 21.0648L17.092 17.357C17.1458 17.3033 17.1866 17.2381 17.2113 17.1662C17.2361 17.0944 17.2441 17.0179 17.2349 16.9425C17.2256 16.8671 17.1993 16.7948 17.1579 16.7311C17.1166 16.6674 17.0612 16.6139 16.9961 16.5748L15.0444 15.4016L18.5899 11.8561C18.648 11.7977 18.6907 11.7259 18.7143 11.647C18.7379 11.5681 18.7416 11.4846 18.7252 11.4039C18.7088 11.3233 18.6727 11.2479 18.6201 11.1845C18.5675 11.1212 18.5001 11.0718 18.4239 11.0407L16.3615 10.2143L18.2099 4.66543L17.2617 4.34814Z" fill="#021120"/>
<path d="M7.74308 3.00891C6.36887 3.00891 5.24167 4.13242 5.24167 5.50664C5.24167 6.88085 6.36887 8.00437 7.74308 8.00437C9.1173 8.00437 10.2408 6.88085 10.2408 5.50664C10.2408 4.13242 9.1173 3.00891 7.74308 3.00891ZM7.74308 4.00874C8.57709 4.00874 9.24098 4.67264 9.24098 5.50664C9.24098 6.34064 8.57709 7.00454 7.74308 7.00454C6.90908 7.00454 6.2415 6.34064 6.2415 5.50664C6.2415 4.67264 6.90908 4.00874 7.74308 4.00874Z" fill="#021120"/>
<path d="M11.189 5.00851C10.5698 5.08207 10.6172 5.99553 11.2407 6.00465H12.2405C12.963 6.06565 12.963 4.94752 12.2405 5.00851C12.2395 5.00679 11.189 5.00851 11.189 5.00851Z" fill="#021120"/>
<path d="M3.19398 5.00851C2.57636 5.08127 2.62019 5.99157 3.24195 6.00465H4.24178C4.96429 6.06565 4.96429 4.94752 4.24178 5.00851C4.24276 5.00679 3.19398 5.00851 3.19398 5.00851Z" fill="#021120"/>
<path d="M7.73198 8.49874C7.60003 8.50115 7.47439 8.55565 7.38246 8.65034C7.29053 8.74503 7.23979 8.87223 7.24129 9.00419V10.004C7.24129 10.1366 7.29396 10.2638 7.38771 10.3575C7.48146 10.4513 7.60862 10.5039 7.7412 10.5039C7.87379 10.5039 8.00094 10.4513 8.0947 10.3575C8.18845 10.2638 8.24112 10.1366 8.24112 10.004V9.00419C8.24188 8.93729 8.2292 8.87092 8.20384 8.80901C8.17848 8.7471 8.14094 8.69091 8.09346 8.64377C8.04598 8.59664 7.98952 8.55951 7.92743 8.5346C7.86534 8.50969 7.79887 8.4975 7.73198 8.49874Z" fill="#021120"/>
<path d="M7.73196 0.500088C7.6663 0.501279 7.60153 0.515395 7.54133 0.54163C7.48113 0.567865 7.42669 0.605704 7.38112 0.652986C7.33555 0.700268 7.29975 0.756066 7.27575 0.817191C7.25175 0.878316 7.24004 0.943571 7.24127 1.00923V2.00905C7.24127 2.14164 7.29394 2.2688 7.38769 2.36255C7.48144 2.4563 7.6086 2.50897 7.74118 2.50897C7.87377 2.50897 8.00092 2.4563 8.09468 2.36255C8.18843 2.2688 8.2411 2.14164 8.2411 2.00905V1.00923C8.24236 0.942018 8.23005 0.875246 8.20491 0.812904C8.17977 0.750562 8.14232 0.693932 8.09478 0.6464C8.04725 0.598869 7.99062 0.561413 7.92828 0.536273C7.86594 0.511133 7.79917 0.498826 7.73196 0.500088Z" fill="#021120"/>
<path d="M5.25641 7.47678C5.12674 7.48076 5.0037 7.53501 4.91329 7.62804L4.20862 8.33272C4.15965 8.37842 4.12037 8.4335 4.0931 8.49468C4.06584 8.55586 4.05115 8.6219 4.04991 8.68887C4.04866 8.75584 4.06089 8.82237 4.08587 8.88452C4.11085 8.94667 4.14806 9.00317 4.1953 9.05066C4.24254 9.09814 4.29884 9.13565 4.36086 9.16095C4.42288 9.18625 4.48935 9.19883 4.55632 9.19794C4.6233 9.19704 4.68941 9.1827 4.75073 9.15575C4.81206 9.12881 4.86734 9.08982 4.91329 9.04109L5.62166 8.33272C5.69327 8.26227 5.742 8.17187 5.76147 8.07332C5.78095 7.97476 5.77028 7.87262 5.73085 7.78022C5.69142 7.68782 5.62507 7.60945 5.54043 7.55532C5.4558 7.50119 5.35683 7.47382 5.25641 7.47678Z" fill="#021120"/>
<path d="M10.9122 1.8209C10.7826 1.82488 10.6595 1.87913 10.5691 1.97216L9.86075 2.68053C9.81202 2.72649 9.77303 2.78177 9.74608 2.84309C9.71914 2.90441 9.70479 2.97052 9.7039 3.0375C9.70301 3.10447 9.71559 3.17095 9.74089 3.23296C9.76619 3.29498 9.8037 3.35128 9.85118 3.39852C9.89867 3.44576 9.95516 3.48297 10.0173 3.50795C10.0795 3.53293 10.146 3.54516 10.213 3.54392C10.2799 3.54267 10.346 3.52798 10.4072 3.50072C10.4683 3.47346 10.5234 3.43417 10.5691 3.38521L11.2738 2.68053C11.3465 2.61052 11.3963 2.52015 11.4166 2.4213C11.437 2.32245 11.4269 2.21976 11.3878 2.12673C11.3487 2.0337 11.2823 1.9547 11.1974 1.90011C11.1125 1.84552 11.0131 1.81791 10.9122 1.8209Z" fill="#021120"/>
<path d="M4.55542 1.82092C4.45581 1.82096 4.35847 1.85076 4.27591 1.9065C4.19335 1.96224 4.12933 2.04137 4.09206 2.13376C4.05479 2.22614 4.04597 2.32755 4.06674 2.42498C4.08751 2.5224 4.13692 2.6114 4.20862 2.68055L4.9133 3.38523C4.959 3.4342 5.01408 3.47348 5.07526 3.50074C5.13644 3.52801 5.20247 3.5427 5.26944 3.54394C5.33641 3.54518 5.40295 3.53295 5.4651 3.50798C5.52725 3.483 5.58374 3.44579 5.63123 3.39855C5.67872 3.35131 5.71622 3.29501 5.74152 3.23299C5.76683 3.17097 5.7794 3.1045 5.77851 3.03752C5.77762 2.97055 5.76327 2.90444 5.73633 2.84311C5.70939 2.78179 5.67039 2.72651 5.62166 2.68055L4.9133 1.97219C4.86676 1.92436 4.81112 1.88634 4.74966 1.86036C4.6882 1.83438 4.62215 1.82097 4.55542 1.82092Z" fill="#021120"/>
<path d="M10.1596 7.47677C10.0648 7.48619 9.97467 7.5225 9.89982 7.58143C9.82497 7.64036 9.76852 7.71946 9.73712 7.8094C9.70572 7.89934 9.70067 7.99639 9.72258 8.0891C9.74448 8.18181 9.79243 8.26634 9.86077 8.33271L10.5691 9.04108C10.6151 9.0898 10.6704 9.1288 10.7317 9.15574C10.793 9.18269 10.8591 9.19703 10.9261 9.19792C10.9931 9.19882 11.0595 9.18624 11.1216 9.16094C11.1836 9.13564 11.2399 9.09813 11.2871 9.05064C11.3344 9.00316 11.3716 8.94666 11.3966 8.88451C11.4215 8.82236 11.4338 8.75583 11.4325 8.68886C11.4313 8.62189 11.4166 8.55585 11.3893 8.49467C11.3621 8.43349 11.3228 8.37841 11.2738 8.33271L10.5691 7.62803C10.5168 7.57349 10.4527 7.53153 10.3818 7.50533C10.3108 7.47913 10.2349 7.46936 10.1596 7.47677Z" fill="#021120"/>
</svg>
