<svg width="26" height="26" viewBox="0 0 26 26" fill="none" xmlns="http://www.w3.org/2000/svg">
<path d="M24.2221 24.8333V15.9444C24.2221 15.9167 24.2221 15.8889 24.1943 15.8611C24.1943 15.8333 24.1943 15.8333 24.1943 15.8333L24.1387 15.75L19.8887 12.1389C19.6387 11.9167 19.3054 11.75 18.9443 11.7222V1.5C18.9443 0.972222 18.4999 0.5 17.9443 0.5H8.11097C7.58319 0.5 7.11097 0.944445 7.11097 1.5V6.44444H2.1943C1.66652 6.44444 1.1943 6.88889 1.1943 7.44444V24.8889H0.222076V25.5H25.2221V24.8333H24.2221ZM5.16652 19.25C5.16652 19.0556 5.30541 18.9167 5.49985 18.9167H8.77763C8.97208 18.9167 9.11097 19.0556 9.11097 19.25V24.8333H5.16652V19.25ZM9.74985 19.25C9.74985 18.7222 9.30541 18.25 8.74986 18.25H5.47208C4.9443 18.25 4.47208 18.6944 4.47208 19.25V24.8333H1.83319V7.41667C1.83319 7.22222 1.97208 7.08333 2.16652 7.08333H12.0276C12.2221 7.08333 12.361 7.22222 12.361 7.41667V24.8611H9.72208V19.25H9.74985ZM13.0554 20.25H16.3332V24.8611H13.0554V20.25ZM16.6665 19.5833H13.0554V13.8611L14.4999 12.6389C14.611 12.5278 14.8054 12.5278 14.9165 12.6389L15.5832 13.2222L18.9721 16.1111V24.8333H16.9999V19.9167C16.9999 19.7222 16.861 19.5833 16.6665 19.5833ZM19.6387 16.2778H23.5832V24.8333H19.6387V16.2778ZM5.47208 13H4.16652C3.63874 13 3.16652 13.4444 3.16652 14V15.3056C3.16652 15.8333 3.61097 16.3056 4.16652 16.3056H5.47208C5.99985 16.3056 6.47208 15.8611 6.47208 15.3056V14C6.47208 13.4444 6.02763 13 5.47208 13ZM10.0832 16.2778C10.611 16.2778 11.0832 15.8333 11.0832 15.2778V13.9722C11.0832 13.4444 10.6387 12.9722 10.0832 12.9722H8.77763C8.24985 12.9722 7.77763 13.4167 7.77763 13.9722V15.2778C7.77763 15.8056 8.22208 16.2778 8.77763 16.2778H10.0832ZM5.80541 15.3056C5.80541 15.5 5.66652 15.6389 5.47208 15.6389H4.16652C3.97208 15.6389 3.83319 15.5 3.83319 15.3056V14C3.83319 13.8056 3.97208 13.6667 4.16652 13.6667H5.47208C5.66652 13.6667 5.80541 13.8056 5.80541 14V15.3056ZM8.4443 15.3056V14C8.4443 13.8056 8.58319 13.6667 8.77763 13.6667H10.0832C10.2776 13.6667 10.4165 13.8056 10.4165 14V15.3056C10.4165 15.5 10.2776 15.6389 10.0832 15.6389H8.77763C8.58319 15.6389 8.4443 15.4722 8.4443 15.3056ZM19.4165 15.6389L15.5832 12.3333H18.8054C19.0554 12.3333 19.2776 12.4167 19.4721 12.5833L23.0276 15.6389H19.4165ZM8.11097 1.16667H17.9721C18.1665 1.16667 18.3054 1.30556 18.3054 1.5V11.6944H14.6943C14.5554 11.6944 14.4443 11.7778 14.3887 11.9167V11.9722C14.2776 12 14.1665 12.0833 14.0554 12.1667L13.0554 13V7.41667C13.0554 6.88889 12.611 6.41667 12.0554 6.41667H7.77763V1.5C7.77763 1.30556 7.9443 1.16667 8.11097 1.16667ZM5.47208 8.38889H4.16652C3.63874 8.38889 3.16652 8.83333 3.16652 9.38889V10.6944C3.16652 11.2222 3.61097 11.6944 4.16652 11.6944H5.47208C5.99985 11.6944 6.47208 11.25 6.47208 10.6944V9.38889C6.47208 8.83333 6.02763 8.38889 5.47208 8.38889ZM8.77763 11.6944H10.0832C10.611 11.6944 11.0832 11.25 11.0832 10.6944V9.38889C11.0832 8.86111 10.6387 8.38889 10.0832 8.38889H8.77763C8.24985 8.38889 7.77763 8.83333 7.77763 9.38889V10.6944C7.77763 11.25 8.22208 11.6944 8.77763 11.6944ZM5.80541 10.6944C5.80541 10.8889 5.66652 11.0278 5.47208 11.0278H4.16652C3.97208 11.0278 3.83319 10.8889 3.83319 10.6944V9.38889C3.83319 9.19444 3.97208 9.05556 4.16652 9.05556H5.47208C5.66652 9.05556 5.80541 9.19444 5.80541 9.38889V10.6944ZM8.4443 9.38889C8.4443 9.19444 8.58319 9.05556 8.77763 9.05556H10.0832C10.2776 9.05556 10.4165 9.19444 10.4165 9.38889V10.6944C10.4165 10.8889 10.2776 11.0278 10.0832 11.0278H8.77763C8.58319 11.0278 8.4443 10.8889 8.4443 10.6944V9.38889ZM14.6943 10.3611H15.9999C16.5276 10.3611 16.9999 9.91667 16.9999 9.36111V8.05556C16.9999 7.52778 16.5554 7.05556 15.9999 7.05556H14.6943C14.1665 7.05556 13.6943 7.5 13.6943 8.05556V9.38889C13.7221 9.91667 14.1665 10.3611 14.6943 10.3611ZM14.361 8.05556C14.361 7.86111 14.4999 7.72222 14.6943 7.72222H15.9999C16.1943 7.72222 16.3332 7.86111 16.3332 8.05556V9.38889C16.3332 9.58333 16.1943 9.72222 15.9999 9.72222H14.6943C14.4999 9.72222 14.361 9.58333 14.361 9.38889V8.05556ZM10.0832 5.75H11.3887C11.9165 5.75 12.3887 5.30556 12.3887 4.75V3.44444C12.3887 2.91667 11.9443 2.44444 11.3887 2.44444H10.0832C9.55541 2.44444 9.08319 2.88889 9.08319 3.44444V4.75C9.11097 5.30556 9.55541 5.75 10.0832 5.75ZM14.6943 5.75H15.9999C16.5276 5.75 16.9999 5.30556 16.9999 4.75V3.44444C16.9999 2.91667 16.5554 2.44444 15.9999 2.44444H14.6943C14.1665 2.44444 13.6943 2.88889 13.6943 3.44444V4.75C13.7221 5.30556 14.1665 5.75 14.6943 5.75ZM9.74985 3.47222C9.74985 3.27778 9.88874 3.13889 10.0832 3.13889H11.3887C11.5832 3.13889 11.7221 3.27778 11.7221 3.47222V4.77778C11.7221 4.97222 11.5832 5.11111 11.3887 5.11111H10.0832C9.88874 5.11111 9.74985 4.97222 9.74985 4.77778V3.47222ZM14.361 3.47222C14.361 3.27778 14.4999 3.13889 14.6943 3.13889H15.9999C16.1943 3.13889 16.3332 3.27778 16.3332 3.47222V4.77778C16.3332 4.97222 16.1943 5.11111 15.9999 5.11111H14.6943C14.4999 5.11111 14.361 4.97222 14.361 4.77778V3.47222Z" fill="#021120"/>
</svg>
