<svg width="20" height="30" viewBox="0 0 20 30" fill="none" xmlns="http://www.w3.org/2000/svg">
<path d="M19.7064 8.08116C19.7076 8.07621 19.7076 8.07126 19.7086 8.06631C19.7247 7.99544 19.7194 7.92138 19.6935 7.8535C19.6675 7.78562 19.622 7.72697 19.5627 7.68496C19.5034 7.64295 19.4329 7.61946 19.3603 7.61748C19.2876 7.6155 19.216 7.6351 19.1545 7.67381C19.1486 7.67752 19.1426 7.68074 19.1369 7.6847C18.8647 7.8562 16.0113 9.78826 13.9874 16.3506V11.0511H14.1854C14.4842 11.0507 14.7707 10.9318 14.9821 10.7205C15.1934 10.5092 15.3124 10.2227 15.3129 9.92388V2.89797C15.3125 2.59895 15.1935 2.31229 14.9821 2.10087C14.7706 1.88945 14.4839 1.77054 14.1849 1.77021H13.9852V0.371218C13.9852 0.272765 13.9461 0.178344 13.8764 0.108727C13.8068 0.0391103 13.7124 0 13.6139 0C13.5155 0 13.4211 0.0391103 13.3515 0.108727C13.2818 0.178344 13.2427 0.272765 13.2427 0.371218V1.77021H13.043C12.744 1.77054 12.4573 1.88945 12.2458 2.10087C12.0344 2.31229 11.9154 2.59895 11.915 2.89797V9.92388C11.9154 10.2229 12.0344 10.5096 12.2458 10.721C12.4573 10.9324 12.744 11.0513 13.043 11.0516H13.244V18.179L11.1651 15.7013C11.1039 15.6282 11.017 15.5815 10.9222 15.5708C10.8275 15.5601 10.7323 15.5862 10.6564 15.6438C10.5804 15.7014 10.5295 15.786 10.5142 15.8801C10.4989 15.9742 10.5204 16.0705 10.5742 16.1492C11.228 17.1062 11.4448 19.7839 11.5119 21.0352H9.06554V13.8627H9.26353C9.56257 13.8624 9.84926 13.7434 10.0607 13.5319C10.2722 13.3205 10.3911 13.0338 10.3915 12.7347V5.70957C10.3911 5.41053 10.2722 5.12384 10.0607 4.91239C9.84926 4.70093 9.56257 4.58196 9.26353 4.58157H9.06381V3.18282C9.06381 3.08437 9.0247 2.98995 8.95508 2.92033C8.88547 2.85071 8.79105 2.8116 8.69259 2.8116C8.59414 2.8116 8.49972 2.85071 8.4301 2.92033C8.36049 2.98995 8.32138 3.08437 8.32138 3.18282V4.58157H8.12166C7.82262 4.58196 7.53593 4.70093 7.32448 4.91239C7.11302 5.12384 6.99405 5.41053 6.99366 5.70957V12.7347C6.99405 13.0338 7.11302 13.3205 7.32448 13.5319C7.53593 13.7434 7.82262 13.8624 8.12166 13.8627H8.32187V21.0339H8.00807L5.70652 12.6563C5.64799 12.4675 5.54859 12.294 5.4154 12.148C5.2822 12.002 5.11848 11.8872 4.93587 11.8116C4.05634 11.3568 2.65165 11.2672 2.59225 11.2627C2.53812 11.2592 2.48387 11.2676 2.43338 11.2874C2.38289 11.3073 2.33742 11.3381 2.30023 11.3776C1.27418 12.4583 0.684195 16.9307 0.620346 17.4373C0.609804 17.521 0.628048 17.6057 0.672075 17.6776C0.716102 17.7495 0.783289 17.8043 0.862583 17.8329C0.941878 17.8615 1.02856 17.8623 1.10836 17.8351C1.18816 17.8079 1.25633 17.7544 1.30165 17.6833C1.32417 17.6477 3.47328 14.2807 4.83911 12.6293C4.9094 12.6834 4.96125 12.7579 4.9876 12.8426L7.23965 21.0342H5.77977L4.02731 13.9816C4.00664 13.8869 3.94969 13.8039 3.86865 13.7506C3.78761 13.6973 3.68892 13.6778 3.59369 13.6963C3.49847 13.7149 3.41428 13.77 3.35916 13.8498C3.30403 13.9296 3.28234 14.0278 3.29873 14.1234L5.02348 21.0339H3.38319C3.28474 21.0339 3.19032 21.073 3.1207 21.1427C3.05109 21.2123 3.01198 21.3067 3.01198 21.4051C3.01198 21.5036 3.05109 21.598 3.1207 21.6676C3.19032 21.7373 3.28474 21.7764 3.38319 21.7764H5.46424C5.46746 21.7764 5.47043 21.7781 5.47389 21.7781C5.47736 21.7781 5.48528 21.7781 5.49097 21.7764H7.71505C7.71877 21.7764 7.72198 21.7781 7.72545 21.7781C7.72891 21.7781 7.73362 21.7766 7.73782 21.7764H8.67824C8.68344 21.7764 8.68839 21.7781 8.69383 21.7781C8.69928 21.7781 8.70423 21.7766 8.70942 21.7764H11.8895C11.8983 21.7773 11.9072 21.7777 11.916 21.7776C11.919 21.7776 11.9217 21.7776 11.9244 21.7764H15.4537C15.4587 21.7764 15.4636 21.7781 15.4685 21.7781C15.4735 21.7781 15.4745 21.7766 15.4775 21.7764H18.0134C18.1118 21.7764 18.2062 21.7373 18.2759 21.6676C18.3455 21.598 18.3846 21.5036 18.3846 21.4051C18.3846 21.3067 18.3455 21.2123 18.2759 21.1427C18.2062 21.073 18.1118 21.0339 18.0134 21.0339H15.6401L14.0191 19.1019C15.1943 13.9825 16.9257 11.1331 18.1354 9.66626C16.5097 13.6927 15.7215 20.5777 15.6836 20.8549C15.6703 20.9524 15.6962 21.0512 15.7557 21.1296C15.8152 21.2079 15.9034 21.2595 16.0009 21.2729C16.0178 21.2753 16.0348 21.2764 16.0519 21.2764C16.1416 21.2762 16.2283 21.2435 16.2958 21.1844C16.3633 21.1252 16.4071 21.0436 16.4191 20.9546C16.4298 20.8769 17.508 11.9146 19.6561 8.19599C19.6601 8.19005 19.6621 8.18262 19.6658 8.17619C19.6754 8.15982 19.6837 8.14268 19.6905 8.12496C19.6968 8.11072 19.7021 8.09609 19.7064 8.08116ZM12.6574 9.92388V2.89797C12.6576 2.79579 12.6983 2.69786 12.7706 2.62564C12.8429 2.55341 12.9408 2.51278 13.043 2.51265H14.1849C14.2871 2.51278 14.385 2.55341 14.4573 2.62564C14.5296 2.69786 14.5703 2.79579 14.5705 2.89797V9.92388C14.5703 10.0261 14.5296 10.124 14.4573 10.1962C14.385 10.2684 14.2871 10.3091 14.1849 10.3092H13.043C12.9408 10.3091 12.8429 10.2684 12.7706 10.1962C12.6983 10.124 12.6576 10.0261 12.6574 9.92388ZM7.73733 12.7347V5.70957C7.73746 5.60735 7.77812 5.50936 7.8504 5.43708C7.92268 5.3648 8.02068 5.32413 8.1229 5.324H9.26476C9.36698 5.32413 9.46498 5.3648 9.53726 5.43708C9.60954 5.50936 9.6502 5.60735 9.65034 5.70957V12.7347C9.6502 12.837 9.60954 12.935 9.53726 13.0072C9.46498 13.0795 9.36698 13.1202 9.26476 13.1203H8.1229C8.02068 13.1202 7.92268 13.0795 7.8504 13.0072C7.77812 12.935 7.73746 12.837 7.73733 12.7347ZM1.61744 15.8411C1.89313 14.3154 2.29973 12.6523 2.73332 12.0198C3.21451 12.0638 3.69022 12.155 4.15359 12.292C3.34879 13.2881 2.34131 14.7542 1.61744 15.8411ZM12.2558 21.0339C12.209 19.9188 12.0844 18.8083 11.8831 17.7105L13.3044 19.4048C13.32 19.4285 13.3382 19.4503 13.3588 19.4699L14.6704 21.0339H12.2558Z" fill="#021120"/>
<path d="M8.21834 27.8826L7.88021 28.3161C7.51438 28.7854 6.71709 29.1432 5.8314 29.143C4.94573 29.1432 4.14842 28.7854 3.78259 28.3161L3.10635 28.8434C3.6935 29.5966 4.72725 30.0002 5.8314 30C6.77589 30.0002 7.61234 29.6487 8.21834 29.0919C8.82433 29.6488 9.66071 30.0002 10.6053 30C11.5497 30.0002 12.3862 29.6487 12.9922 29.0919C13.5982 29.6488 14.4346 30.0002 15.3791 30C16.4833 30.0002 17.517 29.5966 18.1042 28.8434L17.4288 28.3161C17.0629 28.7854 16.2648 29.1432 15.3791 29.143C14.4934 29.1432 13.6961 28.7854 13.3303 28.3161L12.9922 27.8826L12.6541 28.3161C12.2883 28.7854 11.4909 29.1432 10.6053 29.143C9.71958 29.1432 8.92228 28.7854 8.55646 28.3161L8.21834 27.8826Z" fill="#021120"/>
<path d="M8.21834 24.267L7.88021 24.7006C7.51438 25.1699 6.71709 25.5268 5.8314 25.5266C4.94573 25.5268 4.14842 25.1699 3.78259 24.7006L3.10635 25.227C3.6935 25.9802 4.72725 26.3839 5.8314 26.3836C6.77575 26.3838 7.61234 26.033 8.21834 25.4764C8.82432 26.0331 9.66084 26.3838 10.6053 26.3836C11.5496 26.3838 12.3862 26.033 12.9922 25.4764C13.5982 26.0331 14.4347 26.3838 15.3791 26.3836C16.4833 26.3839 17.517 25.9802 18.1042 25.227L17.4288 24.7006C17.0629 25.1699 16.2648 25.5268 15.3791 25.5266C14.4934 25.5268 13.6961 25.1699 13.3303 24.7006L12.9922 24.267L12.6541 24.7006C12.2883 25.1699 11.4909 25.5268 10.6053 25.5266C9.71958 25.5268 8.92228 25.1699 8.55646 24.7006L8.21834 24.267Z" fill="#021120"/>
</svg>
