<svg width="51" height="50" viewBox="0 0 51 50" fill="none" xmlns="http://www.w3.org/2000/svg">
<path d="M9.37363 44.5V37.5H10.1536V43.82H13.4936V44.5H9.37363ZM18.2406 43.04C18.1306 44.05 17.3806 44.6 16.2706 44.6C15.0306 44.6 14.2006 43.87 14.2006 42.44V41.68C14.2006 40.25 15.0206 39.52 16.2806 39.52C17.4906 39.52 18.2706 40.26 18.2706 41.7V42.15H15.0106C15.0106 42.31 15.0206 42.47 15.0306 42.62C15.0706 43.44 15.4706 43.94 16.3106 43.94C16.3906 43.94 16.4606 43.94 16.5306 43.93C17.1006 43.86 17.4206 43.55 17.4906 43.04H18.2406ZM15.0106 41.58L15.0706 41.65H17.5306C17.4906 40.63 17.1206 40.17 16.2806 40.17C15.4206 40.17 15.0206 40.72 15.0106 41.58ZM22.6164 44.5L21.1964 42.52L19.8464 44.5H18.9864L20.7864 41.92L19.1664 39.62H20.0664L21.2864 41.34L22.4564 39.62H23.3164L21.7164 41.95L23.5164 44.5H22.6164ZM24.9278 38.67C24.6178 38.67 24.3778 38.45 24.3778 38.16C24.3778 37.87 24.6178 37.65 24.9278 37.65C25.2578 37.65 25.4878 37.87 25.4878 38.16C25.4878 38.45 25.2578 38.67 24.9278 38.67ZM24.5378 44.5V39.62H25.3278V44.5H24.5378ZM30.9394 46.5H30.1594V43.7C29.8894 44.3 29.3594 44.6 28.6594 44.6C27.5394 44.6 26.7594 43.87 26.7594 42.44V41.69C26.7594 40.25 27.5394 39.52 28.6594 39.52C29.3894 39.52 29.8994 39.85 30.1594 40.41V39.62H30.9394V46.5ZM28.8394 40.2C27.9594 40.2 27.5494 40.79 27.5494 41.69V42.42C27.5494 43.34 27.9594 43.92 28.8494 43.92C29.6594 43.92 30.1594 43.41 30.1594 42.38V41.67C30.1594 40.77 29.6494 40.2 28.8394 40.2ZM35.6749 44.5V43.52C35.3949 44.26 34.8449 44.6 34.1249 44.6C33.0749 44.6 32.5149 44.05 32.5149 42.89V39.62H33.2949V42.73C33.2949 43.54 33.6249 43.95 34.3849 43.95C35.0949 43.95 35.6749 43.39 35.6749 42.43V39.62H36.4649V44.5H35.6749ZM41.9222 43.04C41.8122 44.05 41.0622 44.6 39.9522 44.6C38.7122 44.6 37.8822 43.87 37.8822 42.44V41.68C37.8822 40.25 38.7022 39.52 39.9622 39.52C41.1722 39.52 41.9522 40.26 41.9522 41.7V42.15H38.6922C38.6922 42.31 38.7022 42.47 38.7122 42.62C38.7522 43.44 39.1522 43.94 39.9922 43.94C40.0722 43.94 40.1422 43.94 40.2122 43.93C40.7822 43.86 41.1022 43.55 41.1722 43.04H41.9222ZM38.6922 41.58L38.7522 41.65H41.2122C41.1722 40.63 40.8022 40.17 39.9622 40.17C39.1022 40.17 38.7022 40.72 38.6922 41.58Z" fill="#151515"/>
<path d="M41.9951 6.14448H39.2865C34.8993 4.61851 30.1307 4.61851 25.7435 6.14448H25.5528C21.1656 4.61851 16.3969 4.61851 12.0097 6.14448H9.33929C8.88149 6.14448 8.5 6.52597 8.5 6.98377V27.1266C8.5 27.5844 8.88149 27.8896 9.33929 27.8896H24.0268C24.4083 28.2711 24.9805 28.5 25.6672 28.5C26.3539 28.5 26.9261 28.2711 27.3076 27.8896H41.9951C42.4529 27.8896 42.8344 27.5844 42.8344 27.1266V6.98377C42.8344 6.52597 42.4529 6.14448 41.9951 6.14448ZM39.0195 25.8677C34.4416 24.418 30.2451 24.418 26.0487 25.8677V7.02192C30.2451 5.45779 34.4416 5.45779 39.0195 7.02192V25.8677ZM25.2857 25.8677C22.9968 25.1429 20.9367 24.7614 18.8003 24.7614C16.664 24.7614 14.6039 25.1429 12.3149 25.8677V7.02192C16.8929 5.45779 21.0893 5.45779 25.2857 7.02192V25.8677ZM25.0187 26.7451H12.582C16.6258 25.2192 20.9748 25.2192 25.0187 26.7451ZM38.7524 26.7451H26.3157C30.3214 25.2192 34.7086 25.2192 38.7524 26.7451ZM9.64448 7.28896H11.5519V26.7451H9.64448V7.28896ZM41.6899 26.7451H39.7825V7.28896H41.6899V26.7451Z" fill="#151515"/>
<path d="M23.2256 9.65426C20.3644 8.50978 17.198 8.50978 14.3368 9.65426C14.1461 9.73056 14.0698 9.9213 14.1461 10.1121C14.2224 10.3028 14.4131 10.3791 14.6039 10.3028C17.3125 9.23462 20.2881 9.23462 22.9586 10.3028C22.9967 10.3028 23.0349 10.3409 23.073 10.3409C23.2256 10.3409 23.3401 10.2646 23.3782 10.1121C23.4927 9.95945 23.4164 9.73056 23.2256 9.65426Z" fill="#151515"/>
<path d="M23.2256 12.5536C20.3644 11.4091 17.198 11.4091 14.3368 12.5536C14.1461 12.6298 14.0698 12.8206 14.1461 13.0113C14.2224 13.2021 14.4131 13.2784 14.6039 13.2021C17.3125 12.1339 20.2881 12.1339 22.9586 13.2021C22.9967 13.2021 23.0349 13.2402 23.073 13.2402C23.2256 13.2402 23.3401 13.1639 23.3782 13.0113C23.4927 12.8587 23.4164 12.6298 23.2256 12.5536Z" fill="#151515"/>
<path d="M23.2256 15.453C20.3644 14.3085 17.198 14.3085 14.3368 15.453C14.1461 15.5293 14.0698 15.72 14.1461 15.9108C14.2224 16.1015 14.4131 16.1778 14.6039 16.1015C17.3125 15.0333 20.2881 15.0333 22.9586 16.1015C22.9967 16.1015 23.0349 16.1397 23.073 16.1397C23.2256 16.1397 23.3401 16.0634 23.3782 15.9108C23.4927 15.7582 23.4164 15.5293 23.2256 15.453Z" fill="#151515"/>
<path d="M23.2256 21.2517C20.3644 20.1072 17.198 20.1072 14.3368 21.2517C14.1461 21.328 14.0698 21.5187 14.1461 21.7095C14.2224 21.9002 14.4131 21.9765 14.6039 21.9002C17.3125 20.832 20.2881 20.832 22.9586 21.9002C22.9967 21.9002 23.0349 21.9384 23.073 21.9384C23.2256 21.9384 23.3401 21.8621 23.3782 21.7095C23.4927 21.5187 23.4164 21.328 23.2256 21.2517Z" fill="#151515"/>
<path d="M23.2256 18.3523C20.3644 17.2078 17.198 17.2078 14.3368 18.3523C14.1461 18.4286 14.0698 18.6193 14.1461 18.81C14.2224 19.0008 14.4131 19.0771 14.6039 19.0008C17.3125 17.9326 20.2881 17.9326 22.9586 19.0008C22.9967 19.0008 23.0349 19.0389 23.073 19.0389C23.2256 19.0389 23.3401 18.9626 23.3782 18.81C23.4927 18.6575 23.4164 18.4286 23.2256 18.3523Z" fill="#151515"/>
<path d="M36.9594 9.65426C34.0982 8.50978 30.9318 8.50978 28.0706 9.65426C27.8799 9.73056 27.8036 9.9213 27.8799 10.1121C27.9562 10.3028 28.1469 10.3791 28.3377 10.3028C31.0463 9.23462 34.0219 9.23462 36.6924 10.3028C36.7305 10.3028 36.7687 10.3409 36.8068 10.3409C36.9594 10.3409 37.0739 10.2646 37.112 10.1121C37.2265 9.95945 37.1502 9.73056 36.9594 9.65426Z" fill="#151515"/>
<path d="M36.9594 12.5536C34.0982 11.4091 30.9318 11.4091 28.0706 12.5536C27.8799 12.6298 27.8036 12.8206 27.8799 13.0113C27.9562 13.2021 28.1469 13.2784 28.3377 13.2021C31.0463 12.1339 34.0219 12.1339 36.6924 13.2021C36.7305 13.2021 36.7687 13.2402 36.8068 13.2402C36.9594 13.2402 37.0739 13.1639 37.112 13.0113C37.2265 12.8587 37.1502 12.6298 36.9594 12.5536Z" fill="#151515"/>
<path d="M36.9594 15.453C34.0982 14.3085 30.9318 14.3085 28.0706 15.453C27.8799 15.5293 27.8036 15.72 27.8799 15.9108C27.9562 16.1015 28.1469 16.1778 28.3377 16.1015C31.0463 15.0333 34.0219 15.0333 36.6924 16.1015C36.7305 16.1015 36.7687 16.1397 36.8068 16.1397C36.9594 16.1397 37.0739 16.0634 37.112 15.9108C37.2265 15.7582 37.1502 15.5293 36.9594 15.453Z" fill="#151515"/>
<path d="M36.9594 21.2517C34.0982 20.1072 30.9318 20.1072 28.0706 21.2517C27.8799 21.328 27.8036 21.5187 27.8799 21.7095C27.9562 21.9002 28.1469 21.9765 28.3377 21.9002C31.0463 20.832 34.0219 20.832 36.6924 21.9002C36.7305 21.9002 36.7687 21.9384 36.8068 21.9384C36.9594 21.9384 37.0739 21.8621 37.112 21.7095C37.2265 21.5187 37.1502 21.328 36.9594 21.2517Z" fill="#151515"/>
<path d="M36.9594 18.3523C34.0982 17.2078 30.9318 17.2078 28.0706 18.3523C27.8799 18.4286 27.8036 18.6193 27.8799 18.81C27.9562 19.0008 28.1469 19.0771 28.3377 19.0008C31.0463 17.9326 34.0219 17.9326 36.6924 19.0008C36.7305 19.0008 36.7687 19.0389 36.8068 19.0389C36.9594 19.0389 37.0739 18.9626 37.112 18.81C37.2265 18.6575 37.1502 18.4286 36.9594 18.3523Z" fill="#151515"/>
</svg>
