<svg width="56" height="50" viewBox="0 0 56 50" fill="none" xmlns="http://www.w3.org/2000/svg">
<path d="M3.7182 43.17L1.3182 38.81V44.5H0.558203V37.5H1.5282L4.0582 42.25L6.6182 37.5H7.5082V44.5H6.7382V38.81L4.3482 43.17H3.7182ZM11.0982 44.6C9.8282 44.6 9.0082 43.87 9.0082 42.44V41.68C9.0082 40.25 9.8282 39.52 11.0982 39.52C12.3682 39.52 13.1982 40.25 13.1982 41.68V42.44C13.1982 43.87 12.3682 44.6 11.0982 44.6ZM11.0982 40.2C10.2082 40.2 9.8082 40.79 9.8082 41.68V42.43C9.8082 43.34 10.2082 43.92 11.0982 43.92C11.9882 43.92 12.3982 43.34 12.3982 42.43V41.68C12.3982 40.79 11.9882 40.2 11.0982 40.2ZM15.3991 41.72V44.5H14.6091V39.62H15.3991V40.54C15.7091 39.86 16.2791 39.52 16.9791 39.52C18.0391 39.52 18.6191 40.08 18.6191 41.26V44.5H17.8391V41.42C17.8391 40.61 17.5091 40.2 16.7191 40.2C15.9891 40.2 15.3991 40.76 15.3991 41.72ZM25.0827 44.6C24.3427 44.6 23.8327 44.26 23.5827 43.71V46.5H22.7927V39.62H23.5827V40.44C23.8427 39.83 24.3827 39.52 25.0827 39.52C26.1927 39.52 26.9827 40.25 26.9827 41.69V42.44C26.9827 43.87 26.1927 44.6 25.0827 44.6ZM24.9027 43.92C25.7827 43.92 26.1927 43.34 26.1927 42.43V41.7C26.1927 40.79 25.7827 40.2 24.8927 40.2C24.0827 40.2 23.5827 40.72 23.5827 41.74V42.45C23.5827 43.36 24.0927 43.92 24.9027 43.92ZM29.1579 43.28C29.1579 43.74 29.2979 43.87 29.6979 43.87H29.8479V44.55H29.6679C28.7479 44.55 28.3679 44.28 28.3679 43.29V37.2H29.1579V43.28ZM33.9591 44.5V43.52C33.6791 44.26 33.1291 44.6 32.4091 44.6C31.3591 44.6 30.7991 44.05 30.7991 42.89V39.62H31.5791V42.73C31.5791 43.54 31.9091 43.95 32.6691 43.95C33.3791 43.95 33.9591 43.39 33.9591 42.43V39.62H34.7491V44.5H33.9591ZM37.1764 41.72V44.5H36.3864V39.62H37.1764V40.55C37.4764 39.86 38.0464 39.52 38.7364 39.52C39.5164 39.52 40.0164 39.86 40.1964 40.56C40.5164 39.87 41.1164 39.52 41.8564 39.52C42.8664 39.52 43.4164 40.08 43.4164 41.26V44.5H42.6264V41.42C42.6264 40.61 42.3264 40.2 41.5964 40.2C40.8764 40.2 40.2964 40.76 40.2964 41.72V44.5H39.5064V41.42C39.5064 40.61 39.2064 40.2 38.4764 40.2C37.7564 40.2 37.1764 40.76 37.1764 41.72ZM45.3897 38.67C45.0797 38.67 44.8397 38.45 44.8397 38.16C44.8397 37.87 45.0797 37.65 45.3897 37.65C45.7197 37.65 45.9497 37.87 45.9497 38.16C45.9497 38.45 45.7197 38.67 45.3897 38.67ZM44.9997 44.5V39.62H45.7897V44.5H44.9997ZM51.2513 43.04C51.1413 44.05 50.3913 44.6 49.2813 44.6C48.0413 44.6 47.2113 43.87 47.2113 42.44V41.68C47.2113 40.25 48.0313 39.52 49.2913 39.52C50.5013 39.52 51.2813 40.26 51.2813 41.7V42.15H48.0213C48.0213 42.31 48.0313 42.47 48.0413 42.62C48.0813 43.44 48.4813 43.94 49.3213 43.94C49.4013 43.94 49.4713 43.94 49.5413 43.93C50.1113 43.86 50.4313 43.55 50.5013 43.04H51.2513ZM48.0213 41.58L48.0813 41.65H50.5413C50.5013 40.63 50.1313 40.17 49.2913 40.17C48.4313 40.17 48.0313 40.72 48.0213 41.58ZM53.4655 41.77V44.5H52.6755V39.62H53.4655V40.48C53.7755 39.83 54.2955 39.52 54.9455 39.52H55.1855V40.28H54.9255C54.0655 40.28 53.4655 40.79 53.4655 41.77Z" fill="#151515"/>
<path d="M17.3091 27.0198L17.3091 27.02C17.3099 27.4388 17.4767 27.8402 17.7728 28.1363C18.0689 28.4324 18.4703 28.5991 18.8891 28.6H18.8893H35.3393C35.4467 28.6 35.5498 28.5573 35.6258 28.4813C35.7018 28.4053 35.7445 28.3023 35.7445 28.1948V26.3904H35.7635C35.871 26.3904 35.974 26.3477 36.05 26.2717C36.126 26.1957 36.1687 26.0927 36.1687 25.9852V5.30519C36.1687 5.19773 36.126 5.09467 36.05 5.01868V5.01868C35.974 4.94269 35.871 4.9 35.7635 4.9H18.6116C18.2661 4.9 17.9348 5.03722 17.6906 5.28148C17.4463 5.52574 17.3091 5.85703 17.3091 6.20247L17.3091 27.0198ZM18.7487 25.58C18.5297 25.5804 18.3145 25.6311 18.1195 25.7273V6.20247C18.1195 6.07196 18.1713 5.9468 18.2636 5.85452C18.3559 5.76223 18.481 5.71039 18.6116 5.71039H19.009V25.58H18.7489H18.7487ZM34.0429 27.7896H18.8893C18.6851 27.7896 18.4893 27.7085 18.3449 27.5641C18.2006 27.4198 18.1195 27.224 18.1195 27.0198C18.1195 26.8529 18.1858 26.6928 18.3038 26.5747C18.4219 26.4567 18.582 26.3904 18.7489 26.3904H34.0429V26.6848H28.3747C28.2673 26.6848 28.1642 26.7275 28.0882 26.8035C28.0122 26.8795 27.9695 26.9825 27.9695 27.09C27.9695 27.1975 28.0122 27.3005 28.0882 27.3765C28.1642 27.4525 28.2673 27.4952 28.3747 27.4952H34.0429V27.7896ZM35.3583 25.58H19.8194V5.71039H35.3583V25.58ZM34.9341 27.7896H34.8503V26.3904H34.9341V27.7896Z" fill="#151515" stroke="#151515" stroke-width="0.2"/>
<path d="M24.5633 15.4483C24.6442 15.4349 24.718 15.4693 24.7445 15.5327L29.9376 14.1038C29.9233 14.3484 29.5359 20.0483 26.7129 21.556C26.7652 22.7017 26.857 23.4728 26.869 23.5737C26.8698 23.5803 26.8703 23.584 26.8703 23.5848C26.8797 23.6587 26.826 23.7323 26.7457 23.7615C26.7349 23.7654 26.7236 23.7681 26.7123 23.7707L26.7123 23.7707C26.6144 23.7903 26.527 23.7375 26.5158 23.654C26.5158 23.653 26.5148 23.6446 26.5131 23.6291C26.4964 23.4823 26.407 22.6969 26.3554 21.5548C25.5617 21.124 23.5532 19.6055 24.4015 15.5903C24.4164 15.5207 24.4824 15.4616 24.5633 15.4483ZM30.0374 14.1104C30.0297 14.2414 29.9282 15.7325 29.475 17.3827C29.2479 18.2096 28.9316 19.0798 28.4923 19.84C28.0645 20.5802 27.5168 21.2218 26.8157 21.6138C26.8679 22.7138 26.9553 23.4517 26.9683 23.5618C26.9688 23.5663 26.9692 23.5698 26.9695 23.5721L26.9695 23.5721C26.9863 23.704 26.8922 23.8146 26.7799 23.8555C26.7634 23.8615 26.7471 23.8653 26.7367 23.8677L26.7351 23.8681L26.7352 23.8682L26.7319 23.8688C26.5936 23.8964 26.4375 23.8232 26.4167 23.6672L26.416 23.6673L26.4159 23.6598L26.4152 23.6538L26.4118 23.6239C26.4089 23.5977 26.4046 23.5594 26.3993 23.5099C26.3886 23.4107 26.3739 23.2664 26.3573 23.0829C26.3253 22.7268 26.2865 22.223 26.2581 21.6152C25.8431 21.3809 25.1615 20.8835 24.6743 19.9635C24.1664 19.0043 23.8755 17.5964 24.3037 15.5697L24.3038 15.5694C24.3285 15.4537 24.4319 15.3686 24.547 15.3496C24.6303 15.3358 24.7199 15.3569 24.7814 15.4143C24.7939 14.5555 25.0436 13.3659 25.8909 11.8496L25.891 11.8495C25.942 11.7584 26.0443 11.6994 26.1506 11.6969C26.2209 11.6952 26.2912 11.7185 26.342 11.7656C26.5933 10.9732 27.1869 9.80347 28.5807 8.49583C28.8701 8.22369 29.2862 8.10658 29.6671 8.19005L29.6671 8.19005L29.6674 8.19011C30.049 8.27474 30.3216 8.54757 30.3609 8.91121L30.361 8.91144C30.437 9.63076 30.484 10.6139 30.3604 11.6271C30.268 12.3849 30.0796 13.1637 29.7335 13.8626C29.752 13.8596 29.7707 13.8583 29.7893 13.8588C29.9219 13.8621 30.0481 13.961 30.0374 14.1104ZM29.8076 8.9968C29.7925 8.84705 29.686 8.72925 29.5007 8.68694C29.3133 8.64503 29.1137 8.70063 28.9677 8.83811L28.9676 8.83822C26.6946 10.9709 26.7185 12.7108 26.719 12.7492C26.719 12.7497 26.719 12.7499 26.719 12.7498L26.719 12.7508C26.7256 12.8872 26.6175 12.9959 26.4948 13.0264C26.3711 13.0571 26.2251 13.0086 26.1772 12.877L26.087 12.629C24.7839 15.3144 25.557 16.6719 25.6165 16.7693C25.6275 16.7849 25.6366 16.8018 25.6432 16.8201C25.6963 16.9658 25.5946 17.1048 25.4651 17.1519C25.3686 17.187 25.2604 17.1731 25.1847 17.1114C25.0654 17.0201 24.9501 16.8761 24.8466 16.7214C24.7989 16.6501 24.7527 16.575 24.7088 16.4993C24.5487 17.87 24.7675 18.8687 25.1156 19.5877C25.4391 20.2556 25.8769 20.6877 26.2366 20.9537C26.2202 20.3563 26.2164 19.6883 26.2366 18.9808L26.2366 18.9807C26.3083 16.574 26.6882 13.1777 28.1121 10.7276C28.1827 10.6062 28.3415 10.5484 28.4735 10.5961C28.5428 10.621 28.5959 10.6722 28.62 10.7383C28.6441 10.8045 28.6362 10.8778 28.5993 10.9415L28.5992 10.9416C27.2329 13.2863 26.8604 16.5867 26.7904 18.9542L26.7904 18.9542C26.768 19.7059 26.774 20.4123 26.7938 21.0366C27.7039 20.3993 28.3185 19.2038 28.7277 17.9662C29.1152 16.7941 29.3125 15.6034 29.4068 14.862C29.0786 15.0727 28.733 15.2034 28.6683 15.227C28.5594 15.2666 28.4207 15.246 28.3474 15.1415C28.2689 15.0327 28.3069 14.8974 28.3941 14.817L28.3945 14.8167C29.1908 14.0909 29.5873 13.0312 29.7625 11.9484C29.9375 10.8668 29.8896 9.77423 29.8077 8.99719L29.8077 8.9972L29.8076 8.9968Z" fill="#151515" stroke="#151515" stroke-width="0.2"/>
</svg>
