<svg width="51" height="50" viewBox="0 0 51 50" fill="none" xmlns="http://www.w3.org/2000/svg">
<path d="M39.9383 7.04708H37.4602C33.4464 5.65097 29.0836 5.65097 25.0698 7.04708H24.8953C20.8815 5.65097 16.5187 5.65097 12.5049 7.04708H10.0617C9.64286 7.04708 9.29384 7.3961 9.29384 7.81494V26.2435C9.29384 26.6623 9.64286 26.9416 10.0617 26.9416H23.4992C23.8482 27.2906 24.3718 27.5 25 27.5C25.6283 27.5 26.1518 27.2906 26.5008 26.9416H39.9383C40.3572 26.9416 40.7062 26.6623 40.7062 26.2435V7.81494C40.7062 7.3961 40.3572 7.04708 39.9383 7.04708ZM37.2159 25.0917C33.0276 23.7654 29.1883 23.7654 25.349 25.0917V7.84984C29.1883 6.41883 33.0276 6.41883 37.2159 7.84984V25.0917ZM24.651 25.0917C22.5568 24.4286 20.6721 24.0795 18.7175 24.0795C16.763 24.0795 14.8783 24.4286 12.7841 25.0917V7.84984C16.9724 6.41883 20.8117 6.41883 24.651 7.84984V25.0917ZM24.4067 25.8945H13.0284C16.7281 24.4984 20.707 24.4984 24.4067 25.8945ZM36.9716 25.8945H25.5934C29.2581 24.4984 33.2719 24.4984 36.9716 25.8945ZM10.3409 8.09416H12.086V25.8945H10.3409V8.09416ZM39.6591 25.8945H37.914V8.09416H39.6591V25.8945Z" fill="#F8F8F8"/>
<path d="M22.7662 10.2582C20.1486 9.21113 17.2516 9.21113 14.6339 10.2582C14.4594 10.328 14.3896 10.5025 14.4594 10.677C14.5292 10.8516 14.7037 10.9214 14.8783 10.8516C17.3563 9.87428 20.0787 9.87428 22.5219 10.8516C22.5568 10.8516 22.5917 10.8865 22.6266 10.8865C22.7662 10.8865 22.871 10.8167 22.9059 10.677C23.0106 10.5374 22.9408 10.328 22.7662 10.2582Z" fill="#F8F8F8"/>
<path d="M22.7662 12.9107C20.1486 11.8636 17.2516 11.8636 14.6339 12.9107C14.4594 12.9805 14.3896 13.155 14.4594 13.3295C14.5292 13.504 14.7037 13.5738 14.8783 13.504C17.3563 12.5267 20.0787 12.5267 22.5219 13.504C22.5568 13.504 22.5917 13.5389 22.6266 13.5389C22.7662 13.5389 22.871 13.4691 22.9059 13.3295C23.0106 13.1899 22.9408 12.9805 22.7662 12.9107Z" fill="#F8F8F8"/>
<path d="M22.7662 15.5633C20.1486 14.5162 17.2516 14.5162 14.6339 15.5633C14.4594 15.6331 14.3896 15.8076 14.4594 15.9821C14.5292 16.1566 14.7037 16.2264 14.8783 16.1566C17.3563 15.1793 20.0787 15.1793 22.5219 16.1566C22.5568 16.1566 22.5917 16.1915 22.6266 16.1915C22.7662 16.1915 22.871 16.1217 22.9059 15.9821C23.0106 15.8425 22.9408 15.6331 22.7662 15.5633Z" fill="#F8F8F8"/>
<path d="M22.7662 20.8686C20.1486 19.8215 17.2516 19.8215 14.6339 20.8686C14.4594 20.9384 14.3896 21.1129 14.4594 21.2874C14.5292 21.4619 14.7037 21.5317 14.8783 21.4619C17.3563 20.4846 20.0787 20.4846 22.5219 21.4619C22.5568 21.4619 22.5917 21.4968 22.6266 21.4968C22.7662 21.4968 22.871 21.427 22.9059 21.2874C23.0106 21.1129 22.9408 20.9384 22.7662 20.8686Z" fill="#F8F8F8"/>
<path d="M22.7662 18.216C20.1486 17.1689 17.2516 17.1689 14.6339 18.216C14.4594 18.2858 14.3896 18.4603 14.4594 18.6348C14.5292 18.8093 14.7037 18.8791 14.8783 18.8093C17.3563 17.832 20.0787 17.832 22.5219 18.8093C22.5568 18.8093 22.5917 18.8442 22.6266 18.8442C22.7662 18.8442 22.871 18.7744 22.9059 18.6348C23.0106 18.4952 22.9408 18.2858 22.7662 18.216Z" fill="#F8F8F8"/>
<path d="M35.3312 10.2582C32.7135 9.21113 29.8166 9.21113 27.1989 10.2582C27.0244 10.328 26.9545 10.5025 27.0244 10.677C27.0942 10.8516 27.2687 10.9214 27.4432 10.8516C29.9213 9.87428 32.6437 9.87428 35.0869 10.8516C35.1218 10.8516 35.1567 10.8865 35.1916 10.8865C35.3312 10.8865 35.4359 10.8167 35.4708 10.677C35.5755 10.5374 35.5057 10.328 35.3312 10.2582Z" fill="#F8F8F8"/>
<path d="M35.3312 12.9107C32.7135 11.8636 29.8166 11.8636 27.1989 12.9107C27.0244 12.9805 26.9545 13.155 27.0244 13.3295C27.0942 13.504 27.2687 13.5738 27.4432 13.504C29.9213 12.5267 32.6437 12.5267 35.0869 13.504C35.1218 13.504 35.1567 13.5389 35.1916 13.5389C35.3312 13.5389 35.4359 13.4691 35.4708 13.3295C35.5755 13.1899 35.5057 12.9805 35.3312 12.9107Z" fill="#F8F8F8"/>
<path d="M35.3312 15.5633C32.7135 14.5162 29.8166 14.5162 27.1989 15.5633C27.0244 15.6331 26.9545 15.8076 27.0244 15.9821C27.0942 16.1566 27.2687 16.2264 27.4432 16.1566C29.9213 15.1793 32.6437 15.1793 35.0869 16.1566C35.1218 16.1566 35.1567 16.1915 35.1916 16.1915C35.3312 16.1915 35.4359 16.1217 35.4708 15.9821C35.5755 15.8425 35.5057 15.6331 35.3312 15.5633Z" fill="#F8F8F8"/>
<path d="M35.3312 20.8686C32.7135 19.8215 29.8166 19.8215 27.1989 20.8686C27.0244 20.9384 26.9545 21.1129 27.0244 21.2874C27.0942 21.4619 27.2687 21.5317 27.4432 21.4619C29.9213 20.4846 32.6437 20.4846 35.0869 21.4619C35.1218 21.4619 35.1567 21.4968 35.1916 21.4968C35.3312 21.4968 35.4359 21.427 35.4708 21.2874C35.5755 21.1129 35.5057 20.9384 35.3312 20.8686Z" fill="#F8F8F8"/>
<path d="M35.3312 18.216C32.7135 17.1689 29.8166 17.1689 27.1989 18.216C27.0244 18.2858 26.9545 18.4603 27.0244 18.6348C27.0942 18.8093 27.2687 18.8791 27.4432 18.8093C29.9213 17.832 32.6437 17.832 35.0869 18.8093C35.1218 18.8093 35.1567 18.8442 35.1916 18.8442C35.3312 18.8442 35.4359 18.7744 35.4708 18.6348C35.5755 18.4952 35.5057 18.2858 35.3312 18.216Z" fill="#F8F8F8"/>
<path d="M8.87363 44.5V37.5H9.65363V43.82H12.9936V44.5H8.87363ZM17.7406 43.04C17.6306 44.05 16.8806 44.6 15.7706 44.6C14.5306 44.6 13.7006 43.87 13.7006 42.44V41.68C13.7006 40.25 14.5206 39.52 15.7806 39.52C16.9906 39.52 17.7706 40.26 17.7706 41.7V42.15H14.5106C14.5106 42.31 14.5206 42.47 14.5306 42.62C14.5706 43.44 14.9706 43.94 15.8106 43.94C15.8906 43.94 15.9606 43.94 16.0306 43.93C16.6006 43.86 16.9206 43.55 16.9906 43.04H17.7406ZM14.5106 41.58L14.5706 41.65H17.0306C16.9906 40.63 16.6206 40.17 15.7806 40.17C14.9206 40.17 14.5206 40.72 14.5106 41.58ZM22.1164 44.5L20.6964 42.52L19.3464 44.5H18.4864L20.2864 41.92L18.6664 39.62H19.5664L20.7864 41.34L21.9564 39.62H22.8164L21.2164 41.95L23.0164 44.5H22.1164ZM24.4278 38.67C24.1178 38.67 23.8778 38.45 23.8778 38.16C23.8778 37.87 24.1178 37.65 24.4278 37.65C24.7578 37.65 24.9878 37.87 24.9878 38.16C24.9878 38.45 24.7578 38.67 24.4278 38.67ZM24.0378 44.5V39.62H24.8278V44.5H24.0378ZM30.4394 46.5H29.6594V43.7C29.3894 44.3 28.8594 44.6 28.1594 44.6C27.0394 44.6 26.2594 43.87 26.2594 42.44V41.69C26.2594 40.25 27.0394 39.52 28.1594 39.52C28.8894 39.52 29.3994 39.85 29.6594 40.41V39.62H30.4394V46.5ZM28.3394 40.2C27.4594 40.2 27.0494 40.79 27.0494 41.69V42.42C27.0494 43.34 27.4594 43.92 28.3494 43.92C29.1594 43.92 29.6594 43.41 29.6594 42.38V41.67C29.6594 40.77 29.1494 40.2 28.3394 40.2ZM35.1749 44.5V43.52C34.8949 44.26 34.3449 44.6 33.6249 44.6C32.5749 44.6 32.0149 44.05 32.0149 42.89V39.62H32.7949V42.73C32.7949 43.54 33.1249 43.95 33.8849 43.95C34.5949 43.95 35.1749 43.39 35.1749 42.43V39.62H35.9649V44.5H35.1749ZM41.4222 43.04C41.3122 44.05 40.5622 44.6 39.4522 44.6C38.2122 44.6 37.3822 43.87 37.3822 42.44V41.68C37.3822 40.25 38.2022 39.52 39.4622 39.52C40.6722 39.52 41.4522 40.26 41.4522 41.7V42.15H38.1922C38.1922 42.31 38.2022 42.47 38.2122 42.62C38.2522 43.44 38.6522 43.94 39.4922 43.94C39.5722 43.94 39.6422 43.94 39.7122 43.93C40.2822 43.86 40.6022 43.55 40.6722 43.04H41.4222ZM38.1922 41.58L38.2522 41.65H40.7122C40.6722 40.63 40.3022 40.17 39.4622 40.17C38.6022 40.17 38.2022 40.72 38.1922 41.58Z" fill="#F8F8F8"/>
</svg>
