<svg width="57" height="44" viewBox="0 0 57 44" fill="none" xmlns="http://www.w3.org/2000/svg">
<g id="dataviz-observation">
<path id="Vector" d="M34.7865 31.0406C34.7865 26.2135 38.7134 22.2867 43.5404 22.2867C48.3675 22.2867 52.2943 26.2135 52.2943 31.0406C52.2943 35.8676 48.3675 39.7945 43.5404 39.7945C38.7134 39.7945 34.7865 35.8676 34.7865 31.0406ZM36.0892 31.0406C36.0892 35.1491 39.4319 38.4918 43.5404 38.4918C47.649 38.4918 50.9917 35.1491 50.9917 31.0406C50.9917 26.932 47.649 23.5893 43.5404 23.5893C39.4319 23.5893 36.0892 26.932 36.0892 31.0406Z" fill="#B6DCFA" stroke="#2D4941" stroke-width="0.4"/>
<path id="Vector_2" d="M4.51958 31.0406C4.51958 26.2135 8.4464 22.2867 13.2735 22.2867C18.1006 22.2867 22.0274 26.2135 22.0274 31.0406C22.0274 35.8676 18.1006 39.7945 13.2735 39.7945C8.4464 39.7945 4.51958 35.8676 4.51958 31.0406ZM5.82223 31.0406C5.82223 35.1491 9.16494 38.4918 13.2735 38.4918C17.382 38.4918 20.7247 35.1491 20.7247 31.0406C20.7247 26.932 17.382 23.5893 13.2735 23.5893C9.16494 23.5893 5.82223 26.932 5.82223 31.0406Z" fill="#B6DCFA" stroke="#2D4941" stroke-width="0.4"/>
<path id="Vector_3" d="M45.8015 8.96589L45.7626 8.86839L43.1768 2.37666L43.1768 2.37642C42.993 1.91381 42.6496 1.52606 42.2103 1.2844L42.2101 1.28428C41.5801 0.936882 40.1997 0.288557 38.6695 0.251646C37.1602 0.215237 35.492 0.77108 34.2311 2.86139L34.0171 2.73226L34.2311 2.8614C34.0425 3.17406 33.9403 3.54956 33.9403 3.9469V10.6346V10.7484L33.8544 10.8232C32.8296 11.7149 32.0344 12.7747 31.4817 13.9977L31.3779 14.2274L31.149 14.1216C30.0423 13.61 28.0804 13.1009 25.6816 14.1718L25.4532 14.2738L25.3514 14.0453C24.7977 12.8024 23.997 11.726 22.9595 10.8232L22.8736 10.7484V10.6346V3.9469C22.8736 3.54971 22.7715 3.17417 22.5828 2.86057C21.3223 0.771133 19.6542 0.215656 18.1448 0.252165C16.6146 0.289177 15.2342 0.937314 14.6046 1.28431L14.6043 1.28449C14.1642 1.52617 13.8209 1.91386 13.6381 2.37539L13.6379 2.37585L11.0513 8.86841L11.0124 8.96589L10.9157 9.00645C8.48071 10.027 7.47326 11.5815 7.43366 11.6444C7.41442 11.6751 7.3978 11.7072 7.38431 11.74C7.38425 11.7401 7.3842 11.7403 7.38414 11.7404L1.50112 26.2517C1.49905 26.265 1.49527 26.2839 1.48773 26.3054L1.48397 26.3161L1.48373 26.316C0.895292 27.779 0.563171 29.3708 0.563171 31.0405C0.563171 38.0481 6.26503 43.75 13.2735 43.75C20.281 43.75 25.9829 38.0481 25.9829 31.0405C25.9829 30.9945 25.98 30.9474 25.9762 30.8929C25.9726 30.8408 25.9679 30.7795 25.9663 30.7172L25.9661 30.7096L25.9664 30.702C25.9672 30.6784 25.9707 30.6589 25.9736 30.6456C25.9738 30.6448 25.974 30.6441 25.9741 30.6434L25.8593 24.6901L25.8562 24.5288L26.0019 24.4595C28.2125 23.4086 29.9728 23.9808 30.8192 24.412L30.9586 24.4831L30.9556 24.6396L30.8398 30.6433C30.8399 30.644 30.8401 30.6447 30.8403 30.6455C30.8432 30.6588 30.8467 30.6783 30.8475 30.702L30.8478 30.7096L30.8476 30.7172C30.8462 30.7724 30.8423 30.8269 30.839 30.8748L30.8377 30.8929C30.8339 30.9473 30.831 30.9944 30.831 31.0405C30.831 38.0481 36.5329 43.75 43.5405 43.75C50.5489 43.75 56.2507 38.0481 56.2507 31.0405C56.2507 29.3707 55.9187 27.7788 55.3301 26.3158L55.3258 26.3051L55.3261 26.305C55.3186 26.2836 55.3148 26.2649 55.3128 26.2517L49.4298 11.7404C49.4297 11.7401 49.4296 11.7398 49.4294 11.7396C49.416 11.707 49.3995 11.6751 49.3804 11.6446L45.8015 8.96589ZM45.8015 8.96589L45.8982 9.00645M45.8015 8.96589L45.8982 9.00645M45.8982 9.00645C48.3332 10.027 49.3406 11.5815 49.3803 11.6444L45.8982 9.00645ZM41.6309 2.33789L41.6308 2.33783C40.859 1.91298 39.7364 1.43809 38.5693 1.44908C37.3807 1.46027 36.1696 1.97639 35.2612 3.48187C35.1792 3.61774 35.143 3.78398 35.143 3.9469V9.42836V9.86123L35.5179 9.6449C37.7273 8.37017 40.4272 7.87419 43.1586 8.26233C43.3999 8.29675 43.6308 8.33983 43.86 8.3863L44.313 8.47814L44.1419 8.04876L42.0594 2.82131C41.9767 2.61297 41.8267 2.44579 41.6309 2.33789ZM42.988 9.45334L42.9527 9.70084L42.988 9.45334C40.4756 9.09517 37.9859 9.55736 35.9761 10.7626L36.1047 10.977L35.9761 10.7626C34.2464 11.7999 33.0257 13.2333 32.3587 15.0233L32.3438 15.0632L32.343 15.1058L32.1754 23.7863L32.1738 23.869L32.2218 23.9363C32.2849 24.0248 32.3219 24.1089 32.3339 24.1908L32.4321 24.8599L32.7928 24.2879C35.046 20.7145 39.0162 18.3303 43.5405 18.3303C46.5141 18.3303 49.2464 19.3641 51.4147 21.0823L52.1579 21.6713L51.8017 20.7925L48.3489 12.2756L48.3376 12.2479L48.3202 12.2237C48.0503 11.848 46.5299 9.95848 42.988 9.45334ZM21.5532 3.48186L21.5526 3.48098C20.6442 1.97634 19.4331 1.46048 18.2447 1.44929C17.0778 1.4383 15.9555 1.91287 15.1841 2.33773C14.9877 2.44546 14.8373 2.61261 14.7553 2.82064C14.7552 2.8208 14.7552 2.82097 14.7551 2.82114L12.6721 8.04874L12.501 8.47814L12.954 8.3863C13.1832 8.33983 13.414 8.29676 13.6553 8.26233C16.3852 7.87656 19.086 8.37111 21.2961 9.64505L21.6709 9.86113V9.42846V3.9469C21.6709 3.78366 21.6346 3.61795 21.5532 3.48186ZM8.49333 12.2239L8.4756 12.2484L8.46423 12.2765L5.01195 20.7927L4.65568 21.6716L5.39891 21.0826C7.56722 19.3642 10.2997 18.3303 13.2735 18.3303C17.8022 18.3303 21.7756 20.7193 24.0277 24.2986L24.3948 24.8821L24.487 24.1989C24.5026 24.0834 24.5351 23.9908 24.5887 23.9187L24.6398 23.8501L24.6381 23.7646L24.4709 15.1058L24.4701 15.0632L24.4553 15.0233C23.7882 13.2333 22.5676 11.7999 20.8378 10.7626L20.8378 10.7626C18.827 9.55731 16.3332 9.09686 13.8261 9.45333L13.826 9.45334C10.295 9.95679 8.77307 11.837 8.49333 12.2239ZM2.67411 26.56L2.67407 26.5599L2.67247 26.5639L2.66717 26.577C2.0871 27.9505 1.76583 29.4589 1.76583 31.0405C1.76583 37.3857 6.92753 42.5473 13.2735 42.5473C19.6186 42.5473 24.7803 37.3857 24.7803 31.0405C24.7803 24.6946 19.6186 19.5329 13.2735 19.5329C8.51541 19.5329 4.42427 22.4346 2.67411 26.56ZM25.824 22.8616L25.8308 23.2132L26.1607 23.0913C28.0281 22.4009 29.5943 22.6511 30.6554 23.0379L30.9842 23.1577L30.9909 22.8078L31.1297 15.6166L31.1325 15.4681L31.0035 15.3945C30.2316 14.9546 28.2949 14.1766 25.8215 15.4383L25.6822 15.5094L25.6852 15.6658L25.824 22.8616ZM54.1413 26.5636L54.1413 26.5636L54.1398 26.5599C52.3896 22.4346 48.2985 19.5329 43.5405 19.5329C37.1953 19.5329 32.0337 24.6946 32.0337 31.0405C32.0337 37.3857 37.1954 42.5473 43.5405 42.5473C49.8864 42.5473 55.0481 37.3857 55.0481 31.0405C55.0481 29.4589 54.7268 27.9506 54.1468 26.5772C54.1465 26.5766 54.1463 26.576 54.146 26.5754L54.1413 26.5636Z" fill="#B6DCFA" stroke="#2D4941" stroke-width="0.5"/>
</g>
</svg>
