<svg width="58" height="46" viewBox="0 0 58 46" fill="none" xmlns="http://www.w3.org/2000/svg">
<g id="dataviz-aile">
<g id="Vector">
<mask id="path-1-inside-1_27_318" fill="white">
<path d="M52.1537 28.5115C51.9557 27.8519 51.552 27.3832 51.0249 27.15C54.0844 25.8336 56.3033 24.0888 56.8601 22.3509C57.1223 21.5344 57.0135 20.741 56.554 20.1179C55.5881 18.8093 53.7246 18.7387 52.1346 18.9808C52.383 18.3838 52.4599 17.7194 52.2208 17.0228C51.9846 16.336 51.3878 15.4457 49.8822 15.107C49.1763 14.948 48.4199 14.9664 47.6358 15.1609C44.3899 15.9632 32.8256 18.4062 20.2926 16.1376C5.38007 13.4398 2.10892 23.3195 1.90274 23.9997C0.0919531 29.3837 1.01634 34.4562 4.57665 38.6687C5.31584 39.5439 6.14216 40.345 7.01745 41.0697C11.71 44.955 17.8267 46.6481 19.6812 45.7756C20.8052 45.2471 21.5049 44.4477 21.7605 43.4021C21.8829 42.901 21.8842 42.4123 21.8248 41.9698C25.5003 43.1168 28.1771 43.0187 29.7957 41.676C30.4733 41.1142 30.8272 40.4497 31.0124 39.9114C34.1386 40.6665 38.4228 41.3451 40.7074 39.1532C41.6298 38.2678 42.0248 37.3273 41.88 36.3565C41.8146 35.9178 41.6411 35.5344 41.4131 35.2053C44.9855 34.8414 48.2063 33.9144 50.3028 32.6122C52.0899 31.507 52.5152 29.7114 52.1537 28.5115ZM55.4336 21.2751C55.5001 21.3653 55.5532 21.4677 55.4698 21.7276C54.928 23.4151 50.6769 26.2887 44.1019 27.2967C44.0193 27.3088 39.4673 27.9259 34.1727 27.2206C34.2733 26.6811 34.3069 26.1943 34.3094 25.8205C35.3958 25.3326 36.1979 24.5961 36.7904 23.8147C43.7517 24.3824 49.3338 21.656 49.905 21.3658C51.3484 20.8138 54.5535 20.0741 55.4336 21.2751ZM19.1323 44.1427C17.7786 44.7792 10.2535 42.8982 5.6299 37.4267C2.47477 33.6929 1.68836 29.3896 3.29081 24.6373C3.29471 24.6244 3.29861 24.6116 3.30251 24.5987C3.32957 24.5071 6.16892 15.365 20.0673 17.8794C32.8487 20.19 44.6339 17.7018 47.9414 16.8832C48.5326 16.7367 49.0923 16.7206 49.6048 16.8365C49.9081 16.9048 50.2643 17.0257 50.5256 17.2421C50.6675 17.3596 50.7807 17.5045 50.8433 17.685C51.0705 18.3453 49.9699 19.3478 49.3218 19.747C48.9342 19.9421 43.9748 22.3624 37.7778 22.1117C38.2316 21.0678 38.3696 20.223 38.381 20.1432C38.4537 19.6654 38.1838 19.2066 37.7792 19.1215C37.3745 19.0365 36.9885 19.3543 36.9152 19.8331C36.9095 19.8678 36.3542 23.3278 33.3322 24.3492C32.975 24.4701 32.7474 24.8899 32.8008 25.3259C32.8035 25.3442 33.0146 27.2032 31.971 28.6858C31.0985 29.9254 29.5894 30.6029 27.4864 30.7009C27.1672 30.7158 26.8911 30.9712 26.8012 31.3339C26.7893 31.3811 25.5804 36.0118 20.0954 35.1957C19.8374 35.1575 19.5804 35.2824 19.4184 35.5226C19.3232 35.6645 17.0405 38.9808 13.3323 37.9369C12.933 37.8241 12.5315 38.116 12.4363 38.5898C12.3636 38.9507 12.4912 39.3136 12.7334 39.5142C12.8081 39.576 12.8937 39.6235 12.9885 39.6494C14.49 40.0724 15.7989 39.9207 16.891 39.5193C18.1371 40.4341 19.5169 41.0941 20.0734 41.3444C20.2246 41.6654 20.4746 42.3227 20.3308 42.9142C20.2102 43.4123 19.8063 43.825 19.1323 44.1427ZM28.942 40.2382C28.1382 40.9046 26.0137 41.7319 20.8051 39.7893C20.6925 39.7414 19.6729 39.3022 18.5744 38.6266C19.3949 38.0427 19.984 37.3945 20.3054 36.9938C21.1588 37.0894 21.9186 37.0591 22.6057 36.9511C22.6346 36.9837 22.6572 37.0229 22.6903 37.0504C22.7368 37.0888 22.7876 37.1221 22.843 37.1475C24.974 38.1487 28.0772 39.1011 29.5179 39.5205C29.4008 39.7496 29.221 40.0072 28.942 40.2382ZM39.7711 37.7903C37.7046 39.7724 32.7153 38.5391 31.0752 38.133C30.8887 38.0867 30.743 38.0509 30.6347 38.027C30.5559 38.0056 27.4879 37.1585 24.9131 36.1552C26.1406 35.4479 26.9464 34.444 27.4574 33.579C32.7789 34.8549 38.1367 35.2865 38.9889 35.3487C39.5682 35.6106 40.3442 36.1814 40.4158 36.6661C40.4564 36.9483 40.2214 37.3576 39.7711 37.7903ZM49.6122 31.0579C47.2799 32.5056 43.3731 33.4552 39.157 33.599C38.7367 33.5697 34.2292 33.2368 29.3495 32.2128C30.9993 31.8301 32.2731 31.0237 33.1332 29.7884C33.3314 29.5037 33.4894 29.2119 33.6274 28.9183C39.0243 29.6951 43.6292 29.1306 44.2166 29.0511C44.7284 29.0845 47.9021 29.2604 49.9066 28.7797C50.1172 28.7289 50.6212 28.6608 50.7529 29.1002C50.874 29.5075 50.6724 30.3991 49.6122 31.0579Z"/>
<path d="M17.6907 32.3245C18.1859 31.7345 18.3331 30.9514 18.3174 30.2263C19.705 30.5536 21.8999 30.7348 22.94 29.02C23.5191 28.0652 23.4557 27.2597 23.3 26.7522C23.2244 26.5039 23.1119 26.2806 22.9758 26.0802C24.408 25.8435 26.0636 25.3633 26.7822 24.3837C27.1054 23.9422 27.247 23.4191 27.1919 22.8691C26.9206 20.1868 21.2836 19.9407 17.9463 20.0329C17.535 20.0447 17.2097 20.4479 17.2195 20.9325C17.2295 21.4189 17.5704 21.8036 17.9803 21.792C21.7441 21.6875 25.4298 22.3078 25.7133 23.0776C25.7164 23.1079 25.7196 23.1442 25.6567 23.2296C25.0495 24.0587 22.3318 24.4973 20.595 24.5447C20.4921 24.5472 20.3959 24.5801 20.3071 24.6279C19.671 24.6685 18.8025 24.6673 17.8585 24.5012C17.4516 24.4304 17.0735 24.7621 17.0128 25.2425C16.9705 25.5833 17.0988 25.9074 17.3228 26.0928C17.4141 26.1684 17.5224 26.2215 17.6403 26.2416C18.8433 26.4526 19.9317 26.4269 20.6655 26.3633C21.1731 26.573 21.7841 26.9693 21.9007 27.3509C21.9183 27.4109 21.9744 27.5918 21.7309 27.9925C21.0013 29.1955 18.4375 28.5201 17.5967 28.1881C17.5279 28.1603 17.4568 28.1468 17.3866 28.1442C16.5714 27.8421 15.7971 27.4437 15.7863 27.4391C15.4096 27.2442 14.9707 27.4466 14.8067 27.8927C14.662 28.2832 14.7759 28.7298 15.0605 28.9654C15.1003 28.9984 15.143 29.0265 15.1895 29.0503C15.2351 29.0735 15.9465 29.4402 16.772 29.7583C16.8534 30.1867 16.8931 30.7795 16.634 31.0855C16.412 31.3476 15.3714 32.0504 11.2782 30.1161C10.8964 29.936 10.4637 30.1552 10.3114 30.6066C10.1808 30.9941 10.2981 31.4245 10.5752 31.654C10.6217 31.6924 10.6716 31.725 10.727 31.7504C14.3121 33.4468 16.5909 33.6347 17.6907 32.3245Z"/>
</mask>
<path d="M52.1537 28.5115C51.9557 27.8519 51.552 27.3832 51.0249 27.15C54.0844 25.8336 56.3033 24.0888 56.8601 22.3509C57.1223 21.5344 57.0135 20.741 56.554 20.1179C55.5881 18.8093 53.7246 18.7387 52.1346 18.9808C52.383 18.3838 52.4599 17.7194 52.2208 17.0228C51.9846 16.336 51.3878 15.4457 49.8822 15.107C49.1763 14.948 48.4199 14.9664 47.6358 15.1609C44.3899 15.9632 32.8256 18.4062 20.2926 16.1376C5.38007 13.4398 2.10892 23.3195 1.90274 23.9997C0.0919531 29.3837 1.01634 34.4562 4.57665 38.6687C5.31584 39.5439 6.14216 40.345 7.01745 41.0697C11.71 44.955 17.8267 46.6481 19.6812 45.7756C20.8052 45.2471 21.5049 44.4477 21.7605 43.4021C21.8829 42.901 21.8842 42.4123 21.8248 41.9698C25.5003 43.1168 28.1771 43.0187 29.7957 41.676C30.4733 41.1142 30.8272 40.4497 31.0124 39.9114C34.1386 40.6665 38.4228 41.3451 40.7074 39.1532C41.6298 38.2678 42.0248 37.3273 41.88 36.3565C41.8146 35.9178 41.6411 35.5344 41.4131 35.2053C44.9855 34.8414 48.2063 33.9144 50.3028 32.6122C52.0899 31.507 52.5152 29.7114 52.1537 28.5115ZM55.4336 21.2751C55.5001 21.3653 55.5532 21.4677 55.4698 21.7276C54.928 23.4151 50.6769 26.2887 44.1019 27.2967C44.0193 27.3088 39.4673 27.9259 34.1727 27.2206C34.2733 26.6811 34.3069 26.1943 34.3094 25.8205C35.3958 25.3326 36.1979 24.5961 36.7904 23.8147C43.7517 24.3824 49.3338 21.656 49.905 21.3658C51.3484 20.8138 54.5535 20.0741 55.4336 21.2751ZM19.1323 44.1427C17.7786 44.7792 10.2535 42.8982 5.6299 37.4267C2.47477 33.6929 1.68836 29.3896 3.29081 24.6373C3.29471 24.6244 3.29861 24.6116 3.30251 24.5987C3.32957 24.5071 6.16892 15.365 20.0673 17.8794C32.8487 20.19 44.6339 17.7018 47.9414 16.8832C48.5326 16.7367 49.0923 16.7206 49.6048 16.8365C49.9081 16.9048 50.2643 17.0257 50.5256 17.2421C50.6675 17.3596 50.7807 17.5045 50.8433 17.685C51.0705 18.3453 49.9699 19.3478 49.3218 19.747C48.9342 19.9421 43.9748 22.3624 37.7778 22.1117C38.2316 21.0678 38.3696 20.223 38.381 20.1432C38.4537 19.6654 38.1838 19.2066 37.7792 19.1215C37.3745 19.0365 36.9885 19.3543 36.9152 19.8331C36.9095 19.8678 36.3542 23.3278 33.3322 24.3492C32.975 24.4701 32.7474 24.8899 32.8008 25.3259C32.8035 25.3442 33.0146 27.2032 31.971 28.6858C31.0985 29.9254 29.5894 30.6029 27.4864 30.7009C27.1672 30.7158 26.8911 30.9712 26.8012 31.3339C26.7893 31.3811 25.5804 36.0118 20.0954 35.1957C19.8374 35.1575 19.5804 35.2824 19.4184 35.5226C19.3232 35.6645 17.0405 38.9808 13.3323 37.9369C12.933 37.8241 12.5315 38.116 12.4363 38.5898C12.3636 38.9507 12.4912 39.3136 12.7334 39.5142C12.8081 39.576 12.8937 39.6235 12.9885 39.6494C14.49 40.0724 15.7989 39.9207 16.891 39.5193C18.1371 40.4341 19.5169 41.0941 20.0734 41.3444C20.2246 41.6654 20.4746 42.3227 20.3308 42.9142C20.2102 43.4123 19.8063 43.825 19.1323 44.1427ZM28.942 40.2382C28.1382 40.9046 26.0137 41.7319 20.8051 39.7893C20.6925 39.7414 19.6729 39.3022 18.5744 38.6266C19.3949 38.0427 19.984 37.3945 20.3054 36.9938C21.1588 37.0894 21.9186 37.0591 22.6057 36.9511C22.6346 36.9837 22.6572 37.0229 22.6903 37.0504C22.7368 37.0888 22.7876 37.1221 22.843 37.1475C24.974 38.1487 28.0772 39.1011 29.5179 39.5205C29.4008 39.7496 29.221 40.0072 28.942 40.2382ZM39.7711 37.7903C37.7046 39.7724 32.7153 38.5391 31.0752 38.133C30.8887 38.0867 30.743 38.0509 30.6347 38.027C30.5559 38.0056 27.4879 37.1585 24.9131 36.1552C26.1406 35.4479 26.9464 34.444 27.4574 33.579C32.7789 34.8549 38.1367 35.2865 38.9889 35.3487C39.5682 35.6106 40.3442 36.1814 40.4158 36.6661C40.4564 36.9483 40.2214 37.3576 39.7711 37.7903ZM49.6122 31.0579C47.2799 32.5056 43.3731 33.4552 39.157 33.599C38.7367 33.5697 34.2292 33.2368 29.3495 32.2128C30.9993 31.8301 32.2731 31.0237 33.1332 29.7884C33.3314 29.5037 33.4894 29.2119 33.6274 28.9183C39.0243 29.6951 43.6292 29.1306 44.2166 29.0511C44.7284 29.0845 47.9021 29.2604 49.9066 28.7797C50.1172 28.7289 50.6212 28.6608 50.7529 29.1002C50.874 29.5075 50.6724 30.3991 49.6122 31.0579Z" fill="#B6DCFA"/>
<path d="M17.6907 32.3245C18.1859 31.7345 18.3331 30.9514 18.3174 30.2263C19.705 30.5536 21.8999 30.7348 22.94 29.02C23.5191 28.0652 23.4557 27.2597 23.3 26.7522C23.2244 26.5039 23.1119 26.2806 22.9758 26.0802C24.408 25.8435 26.0636 25.3633 26.7822 24.3837C27.1054 23.9422 27.247 23.4191 27.1919 22.8691C26.9206 20.1868 21.2836 19.9407 17.9463 20.0329C17.535 20.0447 17.2097 20.4479 17.2195 20.9325C17.2295 21.4189 17.5704 21.8036 17.9803 21.792C21.7441 21.6875 25.4298 22.3078 25.7133 23.0776C25.7164 23.1079 25.7196 23.1442 25.6567 23.2296C25.0495 24.0587 22.3318 24.4973 20.595 24.5447C20.4921 24.5472 20.3959 24.5801 20.3071 24.6279C19.671 24.6685 18.8025 24.6673 17.8585 24.5012C17.4516 24.4304 17.0735 24.7621 17.0128 25.2425C16.9705 25.5833 17.0988 25.9074 17.3228 26.0928C17.4141 26.1684 17.5224 26.2215 17.6403 26.2416C18.8433 26.4526 19.9317 26.4269 20.6655 26.3633C21.1731 26.573 21.7841 26.9693 21.9007 27.3509C21.9183 27.4109 21.9744 27.5918 21.7309 27.9925C21.0013 29.1955 18.4375 28.5201 17.5967 28.1881C17.5279 28.1603 17.4568 28.1468 17.3866 28.1442C16.5714 27.8421 15.7971 27.4437 15.7863 27.4391C15.4096 27.2442 14.9707 27.4466 14.8067 27.8927C14.662 28.2832 14.7759 28.7298 15.0605 28.9654C15.1003 28.9984 15.143 29.0265 15.1895 29.0503C15.2351 29.0735 15.9465 29.4402 16.772 29.7583C16.8534 30.1867 16.8931 30.7795 16.634 31.0855C16.412 31.3476 15.3714 32.0504 11.2782 30.1161C10.8964 29.936 10.4637 30.1552 10.3114 30.6066C10.1808 30.9941 10.2981 31.4245 10.5752 31.654C10.6217 31.6924 10.6716 31.725 10.727 31.7504C14.3121 33.4468 16.5909 33.6347 17.6907 32.3245Z" fill="#B6DCFA"/>
<path d="M52.1537 28.5115C51.9557 27.8519 51.552 27.3832 51.0249 27.15C54.0844 25.8336 56.3033 24.0888 56.8601 22.3509C57.1223 21.5344 57.0135 20.741 56.554 20.1179C55.5881 18.8093 53.7246 18.7387 52.1346 18.9808C52.383 18.3838 52.4599 17.7194 52.2208 17.0228C51.9846 16.336 51.3878 15.4457 49.8822 15.107C49.1763 14.948 48.4199 14.9664 47.6358 15.1609C44.3899 15.9632 32.8256 18.4062 20.2926 16.1376C5.38007 13.4398 2.10892 23.3195 1.90274 23.9997C0.0919531 29.3837 1.01634 34.4562 4.57665 38.6687C5.31584 39.5439 6.14216 40.345 7.01745 41.0697C11.71 44.955 17.8267 46.6481 19.6812 45.7756C20.8052 45.2471 21.5049 44.4477 21.7605 43.4021C21.8829 42.901 21.8842 42.4123 21.8248 41.9698C25.5003 43.1168 28.1771 43.0187 29.7957 41.676C30.4733 41.1142 30.8272 40.4497 31.0124 39.9114C34.1386 40.6665 38.4228 41.3451 40.7074 39.1532C41.6298 38.2678 42.0248 37.3273 41.88 36.3565C41.8146 35.9178 41.6411 35.5344 41.4131 35.2053C44.9855 34.8414 48.2063 33.9144 50.3028 32.6122C52.0899 31.507 52.5152 29.7114 52.1537 28.5115ZM55.4336 21.2751C55.5001 21.3653 55.5532 21.4677 55.4698 21.7276C54.928 23.4151 50.6769 26.2887 44.1019 27.2967C44.0193 27.3088 39.4673 27.9259 34.1727 27.2206C34.2733 26.6811 34.3069 26.1943 34.3094 25.8205C35.3958 25.3326 36.1979 24.5961 36.7904 23.8147C43.7517 24.3824 49.3338 21.656 49.905 21.3658C51.3484 20.8138 54.5535 20.0741 55.4336 21.2751ZM19.1323 44.1427C17.7786 44.7792 10.2535 42.8982 5.6299 37.4267C2.47477 33.6929 1.68836 29.3896 3.29081 24.6373C3.29471 24.6244 3.29861 24.6116 3.30251 24.5987C3.32957 24.5071 6.16892 15.365 20.0673 17.8794C32.8487 20.19 44.6339 17.7018 47.9414 16.8832C48.5326 16.7367 49.0923 16.7206 49.6048 16.8365C49.9081 16.9048 50.2643 17.0257 50.5256 17.2421C50.6675 17.3596 50.7807 17.5045 50.8433 17.685C51.0705 18.3453 49.9699 19.3478 49.3218 19.747C48.9342 19.9421 43.9748 22.3624 37.7778 22.1117C38.2316 21.0678 38.3696 20.223 38.381 20.1432C38.4537 19.6654 38.1838 19.2066 37.7792 19.1215C37.3745 19.0365 36.9885 19.3543 36.9152 19.8331C36.9095 19.8678 36.3542 23.3278 33.3322 24.3492C32.975 24.4701 32.7474 24.8899 32.8008 25.3259C32.8035 25.3442 33.0146 27.2032 31.971 28.6858C31.0985 29.9254 29.5894 30.6029 27.4864 30.7009C27.1672 30.7158 26.8911 30.9712 26.8012 31.3339C26.7893 31.3811 25.5804 36.0118 20.0954 35.1957C19.8374 35.1575 19.5804 35.2824 19.4184 35.5226C19.3232 35.6645 17.0405 38.9808 13.3323 37.9369C12.933 37.8241 12.5315 38.116 12.4363 38.5898C12.3636 38.9507 12.4912 39.3136 12.7334 39.5142C12.8081 39.576 12.8937 39.6235 12.9885 39.6494C14.49 40.0724 15.7989 39.9207 16.891 39.5193C18.1371 40.4341 19.5169 41.0941 20.0734 41.3444C20.2246 41.6654 20.4746 42.3227 20.3308 42.9142C20.2102 43.4123 19.8063 43.825 19.1323 44.1427ZM28.942 40.2382C28.1382 40.9046 26.0137 41.7319 20.8051 39.7893C20.6925 39.7414 19.6729 39.3022 18.5744 38.6266C19.3949 38.0427 19.984 37.3945 20.3054 36.9938C21.1588 37.0894 21.9186 37.0591 22.6057 36.9511C22.6346 36.9837 22.6572 37.0229 22.6903 37.0504C22.7368 37.0888 22.7876 37.1221 22.843 37.1475C24.974 38.1487 28.0772 39.1011 29.5179 39.5205C29.4008 39.7496 29.221 40.0072 28.942 40.2382ZM39.7711 37.7903C37.7046 39.7724 32.7153 38.5391 31.0752 38.133C30.8887 38.0867 30.743 38.0509 30.6347 38.027C30.5559 38.0056 27.4879 37.1585 24.9131 36.1552C26.1406 35.4479 26.9464 34.444 27.4574 33.579C32.7789 34.8549 38.1367 35.2865 38.9889 35.3487C39.5682 35.6106 40.3442 36.1814 40.4158 36.6661C40.4564 36.9483 40.2214 37.3576 39.7711 37.7903ZM49.6122 31.0579C47.2799 32.5056 43.3731 33.4552 39.157 33.599C38.7367 33.5697 34.2292 33.2368 29.3495 32.2128C30.9993 31.8301 32.2731 31.0237 33.1332 29.7884C33.3314 29.5037 33.4894 29.2119 33.6274 28.9183C39.0243 29.6951 43.6292 29.1306 44.2166 29.0511C44.7284 29.0845 47.9021 29.2604 49.9066 28.7797C50.1172 28.7289 50.6212 28.6608 50.7529 29.1002C50.874 29.5075 50.6724 30.3991 49.6122 31.0579Z" stroke="#2D4941" stroke-width="0.8" mask="url(#path-1-inside-1_27_318)"/>
<path d="M17.6907 32.3245C18.1859 31.7345 18.3331 30.9514 18.3174 30.2263C19.705 30.5536 21.8999 30.7348 22.94 29.02C23.5191 28.0652 23.4557 27.2597 23.3 26.7522C23.2244 26.5039 23.1119 26.2806 22.9758 26.0802C24.408 25.8435 26.0636 25.3633 26.7822 24.3837C27.1054 23.9422 27.247 23.4191 27.1919 22.8691C26.9206 20.1868 21.2836 19.9407 17.9463 20.0329C17.535 20.0447 17.2097 20.4479 17.2195 20.9325C17.2295 21.4189 17.5704 21.8036 17.9803 21.792C21.7441 21.6875 25.4298 22.3078 25.7133 23.0776C25.7164 23.1079 25.7196 23.1442 25.6567 23.2296C25.0495 24.0587 22.3318 24.4973 20.595 24.5447C20.4921 24.5472 20.3959 24.5801 20.3071 24.6279C19.671 24.6685 18.8025 24.6673 17.8585 24.5012C17.4516 24.4304 17.0735 24.7621 17.0128 25.2425C16.9705 25.5833 17.0988 25.9074 17.3228 26.0928C17.4141 26.1684 17.5224 26.2215 17.6403 26.2416C18.8433 26.4526 19.9317 26.4269 20.6655 26.3633C21.1731 26.573 21.7841 26.9693 21.9007 27.3509C21.9183 27.4109 21.9744 27.5918 21.7309 27.9925C21.0013 29.1955 18.4375 28.5201 17.5967 28.1881C17.5279 28.1603 17.4568 28.1468 17.3866 28.1442C16.5714 27.8421 15.7971 27.4437 15.7863 27.4391C15.4096 27.2442 14.9707 27.4466 14.8067 27.8927C14.662 28.2832 14.7759 28.7298 15.0605 28.9654C15.1003 28.9984 15.143 29.0265 15.1895 29.0503C15.2351 29.0735 15.9465 29.4402 16.772 29.7583C16.8534 30.1867 16.8931 30.7795 16.634 31.0855C16.412 31.3476 15.3714 32.0504 11.2782 30.1161C10.8964 29.936 10.4637 30.1552 10.3114 30.6066C10.1808 30.9941 10.2981 31.4245 10.5752 31.654C10.6217 31.6924 10.6716 31.725 10.727 31.7504C14.3121 33.4468 16.5909 33.6347 17.6907 32.3245Z" stroke="#2D4941" stroke-width="0.8" mask="url(#path-1-inside-1_27_318)"/>
</g>
<path id="Arrow 3" d="M0.646447 3.64645C0.451184 3.84171 0.451184 4.15829 0.646447 4.35355L3.82843 7.53553C4.02369 7.7308 4.34027 7.7308 4.53553 7.53553C4.7308 7.34027 4.7308 7.02369 4.53553 6.82843L1.70711 4L4.53553 1.17157C4.7308 0.976311 4.7308 0.659728 4.53553 0.464466C4.34027 0.269204 4.02369 0.269204 3.82843 0.464466L0.646447 3.64645ZM57.1675 4.35355C57.3628 4.15829 57.3628 3.84171 57.1675 3.64645L53.9855 0.464466C53.7903 0.269204 53.4737 0.269204 53.2784 0.464466C53.0832 0.659728 53.0832 0.976311 53.2784 1.17157L56.1068 4L53.2784 6.82843C53.0832 7.02369 53.0832 7.34027 53.2784 7.53553C53.4737 7.7308 53.7903 7.7308 53.9855 7.53553L57.1675 4.35355ZM1 4.5H56.814V3.5H1V4.5Z" fill="#B6DCFA"/>
</g>
</svg>
