<svg width="228" height="111" viewBox="0 0 228 111" fill="none" xmlns="http://www.w3.org/2000/svg">
<g id="Group 76">
<g id="Group 3">
<path id="Vector" d="M181.584 64.2683C178.116 60.4918 170.19 48.6873 182.765 29.2379C182.984 28.9009 183.461 28.717 183.927 28.8013C184.394 28.8856 184.728 29.2073 184.747 29.5903C184.766 30.0806 184.823 30.8236 184.909 31.6739C186.166 27.0701 189.624 20.398 198.665 12.8756C198.96 12.6305 199.417 12.5462 199.817 12.6764C200.217 12.8067 200.475 13.1131 200.475 13.4578V14.4C203.047 10.7614 208.553 5.14641 219.804 0.504294C221.747 -0.300033 224.043 -0.131507 225.786 0.933269C227.52 1.99804 228.32 3.7216 227.882 5.4375C225.872 13.228 221.166 26.2581 211.354 32.6544C212.487 32.3633 213.488 31.9267 213.964 31.2909C214.24 30.9155 214.831 30.7776 215.317 30.9615C215.803 31.1453 216.041 31.6049 215.85 32.0109C215.288 33.2672 201.885 62.4375 183.527 64.9577C181.412 71.4689 180.384 75.8353 180.364 75.9042C180.269 76.3102 179.831 76.5937 179.336 76.5937C179.269 76.5937 179.202 76.586 179.136 76.5783C178.564 76.4941 178.192 76.0498 178.297 75.5901C178.316 75.5365 179.393 71.0017 181.584 64.2683ZM212.564 34.1098C210.068 34.8835 207.181 34.9218 206.714 34.9218C206.229 34.9218 205.8 34.6537 205.695 34.2707C205.581 33.8877 205.819 33.497 206.257 33.3208C218.146 28.6098 223.624 13.6187 225.824 5.10045C226.11 4.01269 225.615 2.96324 224.519 2.28147C223.414 1.59971 222.014 1.50013 220.775 2.01337C203.771 9.03016 200.484 18.5059 200.456 18.5978C200.322 19.0115 199.827 19.2796 199.303 19.226C198.779 19.1723 198.388 18.8123 198.388 18.391V15.618C184.623 27.9357 186.338 37.2276 186.48 37.8787C186.499 37.94 186.509 38.0013 186.509 38.0625C186.509 38.5298 186.042 38.9052 185.461 38.9052C185.042 38.9052 184.68 38.706 184.508 38.4226C183.67 37.1663 183.203 34.7916 182.946 32.8229C174.277 48.1358 179.05 57.9103 182.317 62.1158C183.48 58.6916 184.899 54.8155 186.576 50.7403C191.729 38.2617 200.484 21.2789 212.973 11.2363C213.383 10.9069 214.05 10.9069 214.459 11.2363C214.869 11.5657 214.869 12.1019 214.459 12.4313C202.256 22.2211 193.644 38.9435 188.567 51.2458C186.795 55.5356 185.318 59.6032 184.127 63.1576C197.75 60.4841 208.858 41.2645 212.564 34.1098Z" fill="#B6DCFA"/>
</g>
<g id="Plumes">
<path d="M40.8477 109.99V77.0227H56.0917C58.0961 77.0227 59.8543 77.4798 61.3664 78.3941C62.9137 79.2732 64.1093 80.4864 64.9533 82.0337C65.7972 83.5809 66.2192 85.304 66.2192 87.2029C66.2192 89.1018 65.7972 90.8425 64.9533 92.4249C64.1093 93.9722 62.9137 95.203 61.3664 96.1172C59.8543 96.9964 58.0961 97.4359 56.0917 97.4359H45.4894V109.99H40.8477ZM55.7752 93.3744C57.4983 93.3744 58.8873 92.7941 59.9422 91.6337C61.0324 90.4733 61.5774 89.0139 61.5774 87.2557C61.5774 85.4623 61.0324 83.9853 59.9422 82.8249C58.8873 81.6293 57.4983 81.0315 55.7752 81.0315H45.4894V93.3744H55.7752Z" fill="#B6DCFA"/>
<path d="M77.0963 109.99H72.56V72.3809H77.0963V109.99Z" fill="#B6DCFA"/>
<path d="M93.8519 110.517C90.898 110.517 88.5068 109.568 86.6782 107.669C84.8496 105.735 83.9353 103.027 83.9353 99.5458V84.2491H88.4716V98.8601C88.4716 101.286 89.0518 103.15 90.2123 104.451C91.4079 105.752 92.9552 106.403 94.8541 106.403C96.7178 106.403 98.2827 105.805 99.5486 104.61C100.85 103.379 101.5 101.796 101.5 99.8623V84.2491H105.984V101.972L110.626 107.88L107.197 110.676L102.872 105.084C102.063 106.737 100.867 108.056 99.2849 109.04C97.7024 110.025 95.8914 110.517 93.8519 110.517Z" fill="#B6DCFA"/>
<path d="M116.383 109.99V92.2667L111.741 86.359L115.17 83.5633L119.389 89.0491C120.198 87.3963 121.359 86.0952 122.871 85.1458C124.383 84.1963 126.124 83.7216 128.093 83.7216C130.027 83.7216 131.785 84.1787 133.368 85.093C134.985 85.9721 136.216 87.2029 137.06 88.7853C137.834 87.2029 138.959 85.9721 140.436 85.093C141.948 84.1787 143.688 83.7216 145.658 83.7216C147.592 83.7216 149.332 84.1436 150.88 84.9875C152.427 85.8315 153.64 87.0447 154.519 88.6271C155.434 90.1744 155.891 92.0029 155.891 94.1128V109.99H151.354V94.3238C151.354 92.3898 150.739 90.8249 149.508 89.6293C148.278 88.4337 146.73 87.8359 144.867 87.8359C143.003 87.8359 141.456 88.4337 140.225 89.6293C138.994 90.8249 138.379 92.3898 138.379 94.3238V109.99H133.842V94.3238C133.842 92.3898 133.227 90.8249 131.996 89.6293C130.801 88.4337 129.271 87.8359 127.407 87.8359C125.543 87.8359 123.996 88.4337 122.765 89.6293C121.535 90.7897 120.919 92.337 120.919 94.2711V109.99H116.383Z" fill="#B6DCFA"/>
<path d="M165.97 97.6469C166.005 99.3348 166.392 100.882 167.13 102.289C167.904 103.66 168.959 104.75 170.295 105.559C171.632 106.333 173.161 106.719 174.884 106.719C176.748 106.719 178.383 106.245 179.79 105.295C181.196 104.346 182.287 103.062 183.06 101.445L186.278 103.502C185.223 105.682 183.693 107.405 181.689 108.671C179.72 109.902 177.399 110.517 174.726 110.517C172.159 110.517 169.856 109.92 167.816 108.724C165.812 107.528 164.247 105.911 163.122 103.871C162.032 101.832 161.486 99.581 161.486 97.1194C161.486 94.6579 162.032 92.4073 163.122 90.3678C164.247 88.3282 165.812 86.7106 167.816 85.515C169.821 84.3194 172.089 83.7216 174.621 83.7216C177.258 83.7216 179.526 84.3018 181.425 85.4623C183.324 86.6227 184.748 88.2579 185.698 90.3678C186.647 92.4777 187.069 94.9041 186.964 97.6469H165.97ZM174.621 87.4139C172.581 87.4139 170.823 88.0117 169.346 89.2073C167.904 90.4029 166.919 92.0205 166.392 94.0601H182.269C181.882 91.9502 181.038 90.315 179.737 89.1546C178.436 87.9941 176.731 87.4139 174.621 87.4139Z" fill="#B6DCFA"/>
<path d="M201.911 110.517C199.239 110.517 196.918 109.99 194.949 108.935C193.015 107.845 191.555 106.262 190.571 104.188L193.577 102.025C194.421 103.748 195.564 105.014 197.006 105.823C198.483 106.632 200.118 107.036 201.911 107.036C203.705 107.036 205.094 106.667 206.078 105.928C207.063 105.155 207.555 104.135 207.555 102.869C207.555 100.759 206.026 99.4052 202.966 98.8074L198.272 97.9107C196.232 97.4887 194.685 96.6975 193.63 95.537C192.61 94.3414 192.1 92.8469 192.1 91.0535C192.1 88.8381 192.874 87.0623 194.421 85.726C196.004 84.3897 198.237 83.7216 201.12 83.7216C203.335 83.7216 205.287 84.1611 206.975 85.0403C208.663 85.9194 210.052 87.1853 211.142 88.8381L208.241 90.948C206.659 88.4864 204.302 87.2557 201.173 87.2557C199.52 87.2557 198.272 87.5897 197.428 88.2579C196.619 88.926 196.215 89.7875 196.215 90.8425C196.215 91.7216 196.513 92.4601 197.111 93.0579C197.744 93.6557 198.782 94.1128 200.223 94.4293L204.654 95.326C209.366 96.2403 211.722 98.6667 211.722 102.605C211.722 105.102 210.861 107.054 209.138 108.46C207.415 109.832 205.006 110.517 201.911 110.517Z" fill="#B6DCFA"/>
</g>
<g id="de">
<path d="M18.7184 87.6775C17.7344 87.6775 16.8487 87.4371 16.0614 86.9562C15.2742 86.4753 14.6556 85.8317 14.2057 85.0255C13.7699 84.2052 13.552 83.3 13.552 82.3099C13.552 81.334 13.7699 80.4358 14.2057 79.6155C14.6556 78.7951 15.2671 78.1445 16.0403 77.6636C16.8135 77.1827 17.6852 76.9423 18.6552 76.9423C19.5549 76.9423 20.3492 77.1544 21.0381 77.5788C21.7269 78.0031 22.2541 78.583 22.6196 79.3185V72.3809H23.9482V84.3891L25.846 86.8713L24.8338 87.6987L22.9149 85.1741C22.5072 85.952 21.9378 86.5672 21.2068 87.0198C20.4757 87.4583 19.6463 87.6775 18.7184 87.6775ZM18.8028 86.447C19.5479 86.447 20.2086 86.2631 20.785 85.8954C21.3614 85.5277 21.8113 85.0326 22.1346 84.4103C22.458 83.7738 22.6196 83.0737 22.6196 82.3099C22.6196 81.5461 22.458 80.846 22.1346 80.2095C21.8113 79.5731 21.3614 79.071 20.785 78.7032C20.2086 78.3355 19.5479 78.1516 18.8028 78.1516C18.0577 78.1516 17.3829 78.3355 16.7784 78.7032C16.1879 79.071 15.724 79.5731 15.3866 80.2095C15.0492 80.846 14.8805 81.5461 14.8805 82.3099C14.8805 83.0737 15.0492 83.7738 15.3866 84.4103C15.724 85.0326 16.1879 85.5277 16.7784 85.8954C17.3829 86.2631 18.0577 86.447 18.8028 86.447Z" fill="white"/>
<path d="M28.3485 82.3736C28.3485 83.1373 28.5102 83.8375 28.8335 84.4739C29.1709 85.0963 29.6349 85.5913 30.2253 85.959C30.8158 86.3268 31.4976 86.5107 32.2708 86.5107C33.0721 86.5107 33.7821 86.2985 34.4006 85.8742C35.0333 85.4357 35.5113 84.8487 35.8346 84.1133L36.8257 84.7073C36.418 85.6125 35.8135 86.3339 35.0122 86.8713C34.2109 87.4088 33.283 87.6775 32.2286 87.6775C31.2164 87.6775 30.3167 87.4442 29.5294 86.9774C28.7422 86.4965 28.1236 85.8459 27.6737 85.0255C27.2379 84.2052 27.02 83.3 27.02 82.3099C27.02 81.3198 27.2379 80.4146 27.6737 79.5943C28.1095 78.7739 28.7211 78.1304 29.5083 77.6636C30.3097 77.1827 31.2094 76.9423 32.2075 76.9423C33.2057 76.9423 34.0703 77.1686 34.8013 77.6212C35.5464 78.0738 36.1087 78.7103 36.4883 79.5306C36.8819 80.3368 37.0647 81.2633 37.0366 82.3099H28.3485V82.3736ZM32.2075 78.0667C31.2656 78.0667 30.4573 78.3567 29.7825 78.9366C29.1217 79.5023 28.6859 80.259 28.4751 81.2067H35.6448C35.5042 80.2308 35.1317 79.467 34.5272 78.9154C33.9367 78.3496 33.1635 78.0667 32.2075 78.0667Z" fill="white"/>
</g>
<g id="Galerie">
<path d="M17.8239 49.5009H31.5225V61.3855C29.8652 63.3926 27.7849 64.9772 25.2814 66.1393C22.778 67.3013 19.9219 67.8824 16.7133 67.8824C13.4693 67.8824 10.578 67.1253 8.03929 65.6111C5.50057 64.0969 3.526 62.0545 2.1156 59.4839C0.705201 56.8781 0 54.0082 0 50.8742C0 47.7402 0.687571 44.8879 2.06271 42.3174C3.47311 39.7116 5.44767 37.6516 7.9864 36.1374C10.5251 34.6232 13.4341 33.8661 16.7133 33.8661C19.7104 33.8661 22.3725 34.4824 24.6997 35.7148C27.0621 36.9121 28.9485 38.5671 30.3589 40.6799L26.7095 43.0568C25.6164 41.5074 24.206 40.2926 22.4783 39.4122C20.7858 38.5319 18.8641 38.0917 16.7133 38.0917C14.3156 38.0917 12.2 38.6552 10.3664 39.782C8.56819 40.9088 7.17542 42.4406 6.18814 44.3773C5.23611 46.3141 4.7601 48.4797 4.7601 50.8742C4.7601 53.2688 5.23611 55.452 6.18814 57.4239C7.17542 59.3607 8.58582 60.8925 10.4193 62.0193C12.2529 63.1461 14.4037 63.7096 16.8719 63.7096C20.8563 63.7096 24.3118 62.4771 27.2384 60.0121V53.304H17.8239V49.5009Z" fill="white"/>
<path d="M50.1377 67.9352C47.6342 67.9352 45.3952 67.3365 43.4207 66.1393C41.4461 64.942 39.8947 63.3222 38.7663 61.2798C37.6733 59.2374 37.1267 56.9838 37.1267 54.5188C37.1267 52.0539 37.6733 49.8002 38.7663 47.7578C39.8594 45.7155 41.3932 44.0956 43.3678 42.8984C45.3423 41.7011 47.5637 41.1025 50.0319 41.1025C52.218 41.1025 54.1045 41.5955 55.6912 42.5815C57.2779 43.5674 58.5296 44.9055 59.4464 46.5958V41.6307H63.6776V59.3255L68.3848 65.2413L64.894 68.0408L60.3455 62.1249C59.2877 63.9208 57.8773 65.347 56.1143 66.4034C54.3513 67.4246 52.3591 67.9352 50.1377 67.9352ZM50.455 63.868C52.1475 63.868 53.6461 63.4631 54.9507 62.6531C56.2906 61.808 57.3131 60.6812 58.0183 59.2727C58.7588 57.8289 59.129 56.2443 59.129 54.5188C59.129 52.7934 58.7588 51.2264 58.0183 49.8178C57.3131 48.3741 56.2906 47.2472 54.9507 46.4373C53.6461 45.5922 52.1475 45.1697 50.455 45.1697C48.7626 45.1697 47.2464 45.5922 45.9065 46.4373C44.5666 47.2472 43.5088 48.3741 42.7331 49.8178C41.9926 51.2264 41.6224 52.7934 41.6224 54.5188C41.6224 56.2443 41.9926 57.8289 42.7331 59.2727C43.5088 60.6812 44.5666 61.808 45.9065 62.6531C47.2464 63.4631 48.7626 63.868 50.455 63.868Z" fill="white"/>
<path d="M77.0377 67.407H72.4891V29.7461H77.0377V67.407Z" fill="white"/>
<path d="M87.333 55.047C87.3683 56.7373 87.7562 58.2867 88.4966 59.6952C89.2723 61.0685 90.3301 62.1602 91.67 62.9701C93.0099 63.7448 94.5437 64.1321 96.2715 64.1321C98.1402 64.1321 99.7798 63.6567 101.19 62.706C102.601 61.7552 103.694 60.4699 104.469 58.8501L107.696 60.9101C106.638 63.0933 105.104 64.8188 103.094 66.0865C101.12 67.3189 98.7925 67.9352 96.1128 67.9352C93.5388 67.9352 91.2293 67.3365 89.1842 66.1393C87.1744 64.942 85.6053 63.3222 84.477 61.2798C83.3839 59.2374 82.8374 56.9838 82.8374 54.5188C82.8374 52.0539 83.3839 49.8002 84.477 47.7578C85.6053 45.7155 87.1744 44.0956 89.1842 42.8984C91.194 41.7011 93.4683 41.1025 96.007 41.1025C98.6515 41.1025 100.926 41.6835 102.83 42.8456C104.734 44.0076 106.162 45.645 107.114 47.7578C108.066 49.8707 108.489 52.3004 108.383 55.047H87.333ZM96.007 44.7999C93.9619 44.7999 92.1989 45.3985 90.718 46.5958C89.2723 47.7931 88.2851 49.4129 87.7562 51.4553H103.676C103.288 49.3424 102.442 47.705 101.137 46.543C99.8327 45.3809 98.1226 44.7999 96.007 44.7999Z" fill="white"/>
<path d="M115.861 67.407V49.6066L111.26 43.6907L114.697 40.8912L118.982 46.4373C119.969 44.7823 121.362 43.4794 123.16 42.5286C124.993 41.5779 127.109 41.1025 129.507 41.1025V45.3281C126.721 45.3281 124.5 45.962 122.843 47.2296C121.221 48.4621 120.41 50.258 120.41 52.6173V67.407H115.861Z" fill="white"/>
<path d="M138.552 35.8205H133.898V30.38H138.552V35.8205ZM138.499 67.407H133.951V41.6307H138.499V67.407Z" fill="white"/>
<path d="M148.694 55.047C148.729 56.7373 149.117 58.2867 149.857 59.6952C150.633 61.0685 151.691 62.1602 153.031 62.9701C154.371 63.7448 155.904 64.1321 157.632 64.1321C159.501 64.1321 161.141 63.6567 162.551 62.706C163.961 61.7552 165.054 60.4699 165.83 58.8501L169.056 60.9101C167.999 63.0933 166.465 64.8188 164.455 66.0865C162.48 67.3189 160.153 67.9352 157.474 67.9352C154.9 67.9352 152.59 67.3365 150.545 66.1393C148.535 64.942 146.966 63.3222 145.838 61.2798C144.745 59.2374 144.198 56.9838 144.198 54.5188C144.198 52.0539 144.745 49.8002 145.838 47.7578C146.966 45.7155 148.535 44.0956 150.545 42.8984C152.555 41.7011 154.829 41.1025 157.368 41.1025C160.012 41.1025 162.286 41.6835 164.191 42.8456C166.095 44.0076 167.523 45.645 168.475 47.7578C169.427 49.8707 169.85 52.3004 169.744 55.047H148.694ZM157.368 44.7999C155.323 44.7999 153.56 45.3985 152.079 46.5958C150.633 47.7931 149.646 49.4129 149.117 51.4553H165.037C164.649 49.3424 163.803 47.705 162.498 46.543C161.193 45.3809 159.483 44.7999 157.368 44.7999Z" fill="white"/>
</g>
</g>
</svg>
