<svg width="35" height="21" viewBox="0 0 35 21" fill="none" xmlns="http://www.w3.org/2000/svg">
<path id="Union" fill-rule="evenodd" clip-rule="evenodd" d="M3.0255 2.41842C2.70769 2.45666 2.09468 2.53563 1.54184 2.63695C0.939625 2.74732 0.408813 2.88421 0.408813 3.02385C0.408813 3.16356 0.939842 3.30008 1.54212 3.40999C2.09544 3.51096 2.70889 3.58948 3.02598 3.62737C3.16101 3.64351 3.2423 3.65228 3.2423 3.65228L4.3438 5.54324C4.3438 5.54324 4.18754 10.5832 5.91956 12.4718C6.99141 13.6411 8.54604 15.1095 10.5083 15.8746C10.7703 15.9768 11.0396 16.0664 11.316 16.1411C11.4553 16.1788 11.5965 16.2127 11.7394 16.2424L10.9394 17.2822L9.66852 18.934L9.4708 19.191L9.2396 19.2358L7.26756 19.6181L5.6977 19.9225L5.13168 20.8181H5.87134H6.55122H7.38281H10.1704H10.4298H10.9049H11.7129H12.4475H12.6892H13.8999H14.8208H15.5308H16.3106L15.7208 20.0164L15.0091 19.8478L14.0402 19.6181L13.9843 19.6049L13.8337 19.5692L14.2456 18.4336L14.9045 16.617L15.0732 16.1519L15.4939 16.0669L15.7165 16.022C18.8876 15.3818 20.599 15.0566 22.2934 15.6208C24.1828 16.2515 32.5271 20.5022 32.5271 20.5022L33.4008 19.5488L34.2579 18.6135L33.0951 18.1063L23.2424 13.8088L22.1658 13.3393L21.9787 13.2577L22.6081 12.7844L22.2942 12.5343L21.6384 12.0121C19.0872 9.98137 12.3224 4.60373 11.4304 3.96706C11.1189 3.74476 10.7823 3.39679 10.4101 3.01188L10.41 3.01186C9.46436 2.03415 8.28817 0.818115 6.70751 0.818115C4.5023 0.818115 3.24347 2.39315 3.24347 2.39315C3.24347 2.39315 3.16152 2.40205 3.0255 2.41842ZM20.6476 12.7572L20.2696 12.4564C19.3081 11.6915 18.0148 10.6636 16.6873 9.61119C14.01 7.48886 11.2523 5.31423 10.7333 4.9438C10.3545 4.67346 9.98539 4.2976 9.67598 3.97883L9.54498 3.84359C9.25625 3.54523 8.98003 3.25978 8.68004 2.99053C7.98157 2.36364 7.3588 2.01812 6.70751 2.01812C5.90145 2.01812 5.26376 2.30423 4.8144 2.60395C4.58991 2.75368 4.41961 2.90237 4.30944 3.00907C4.29742 3.02071 4.28617 3.0318 4.27571 3.04227L4.2792 3.04827L5.3807 4.93923L5.55388 5.23653L5.54325 5.57967L5.54324 5.57982L5.54323 5.58006L5.54322 5.58042L5.54321 5.58071L5.54302 5.58811L5.54224 5.62346C5.54162 5.65592 5.54085 5.70577 5.54044 5.77103C5.53962 5.90165 5.54021 6.09341 5.54608 6.33057C5.55785 6.80669 5.59067 7.45685 5.67382 8.15795C5.75748 8.86337 5.88895 9.59265 6.08879 10.237C6.29353 10.8971 6.54196 11.3751 6.80398 11.6608L6.80412 11.661C8.06117 13.0322 9.82621 14.6182 11.9841 15.0677L12.3206 15.1378L12.7065 15.1685C13.1347 15.2027 13.5888 15.1868 14.0688 15.1138L14.3992 15.0636L14.8361 14.9755L15.2757 14.8868C16.8395 14.5707 18.1272 14.3104 19.2284 14.196C19.8601 14.1303 20.4541 14.1095 21.033 14.1544L19.6132 13.5351L20.6476 12.7572ZM13.6348 17.571L14.2491 16.3002C14.071 16.3273 13.8948 16.3479 13.7205 16.362C13.5256 16.3779 13.3331 16.3858 13.1432 16.3857C13.054 16.3857 12.9654 16.384 12.8774 16.3806C12.788 16.377 12.6992 16.3718 12.6111 16.3647L12.3684 16.7264L11.1806 18.4966L10.9558 18.8317L10.9286 18.8723L10.5089 19.4978L10.6785 19.5892L10.7323 19.6181L11.367 19.9598L11.7467 19.8068L12.2148 19.6181L12.595 19.4649L12.7492 19.4027L12.8425 19.2097L13.6348 17.571ZM21.7432 4.61012H23.2232L22.5032 2.51411H22.4872L21.7432 4.61012ZM21.8632 1.10611H23.1512L25.2872 6.81812H23.9832L23.5512 5.54611H21.4152L20.9672 6.81812H19.7032L21.8632 1.10611ZM29.769 8.03148L26.705 11.6955V12.6875H31.521V11.6315H28.377L31.441 7.96748V6.97548H26.945V8.03148H29.769Z" fill="#F5EFE7"/>
</svg>
