<svg width="26" height="26" viewBox="0 0 26 26" fill="none" xmlns="http://www.w3.org/2000/svg">
<path d="M2.96204 10.1072L2.96218 10.107C3.05664 9.96165 3.24955 9.89404 3.42795 9.92624C3.60538 9.95827 3.75783 10.0871 3.76678 10.2669L3.76683 10.268C3.76842 10.3091 3.7709 10.3562 3.77421 10.4083C4.27512 8.9808 5.42144 7.07322 7.96404 4.9576L7.96413 4.95752C8.08477 4.85738 8.26431 4.82626 8.42013 4.87697C8.5722 4.92646 8.69076 5.04985 8.69503 5.20805C9.57825 4.05647 11.3147 2.42674 14.6135 1.0656C15.2512 0.801712 16.0042 0.856352 16.5784 1.20709L16.5786 1.20722C17.1519 1.55929 17.43 2.14063 17.2799 2.72854L17.2798 2.72878C16.9637 3.9539 16.4353 5.59286 15.5987 7.17838C14.9446 8.41827 14.1 9.6293 13.018 10.5836C13.1058 10.5687 13.1984 10.5767 13.2812 10.608C13.4709 10.6798 13.5945 10.8774 13.5039 11.072C13.412 11.2771 12.3152 13.6649 10.5204 16.1029C8.74049 18.5209 6.25394 21.0164 3.3607 21.4442C2.75495 23.3158 2.44027 24.6056 2.39562 24.7886C2.39355 24.797 2.39207 24.8031 2.39115 24.8068C2.34759 24.9925 2.15792 25.1 1.97142 25.1C1.94474 25.1 1.91898 25.097 1.89932 25.0948L1.89732 25.0945L1.89732 25.0946L1.89415 25.0941C1.67792 25.0623 1.49856 24.8826 1.54855 24.6633L1.54788 24.6632L1.55059 24.6556C1.55063 24.6554 1.55068 24.6552 1.55073 24.655L1.55405 24.6418L1.56684 24.5906C1.578 24.5459 1.5944 24.4806 1.61606 24.396C1.65938 24.227 1.72371 23.9813 1.80933 23.6701C1.97757 23.0587 2.22803 22.1944 2.56284 21.1623C2.00797 20.5458 1.13856 19.3223 0.876938 17.5056C0.608763 15.6434 0.98111 13.1711 2.96204 10.1072ZM10.3697 11.348L10.3702 11.3478C12.2037 10.6213 13.5494 9.09912 14.5245 7.41671C15.4992 5.73507 16.0979 3.90305 16.4414 2.57317L16.4415 2.57277C16.5176 2.28318 16.3909 1.99552 16.0766 1.79988C15.7588 1.60389 15.354 1.57426 14.9945 1.72325L14.9943 1.72331C12.3432 2.81728 10.7662 4.10085 9.85207 5.11001C9.39485 5.61475 9.10298 6.05138 8.92534 6.36217C8.75119 6.66683 8.68725 6.84978 8.68474 6.85695L8.68467 6.85717L8.68435 6.85816C8.62406 7.04516 8.41456 7.14392 8.21781 7.12378C8.02046 7.10358 7.84143 6.96212 7.84143 6.76267V6.11917C3.76295 9.8544 4.26447 12.6442 4.30706 12.8439C4.31497 12.8708 4.31913 12.8985 4.31913 12.9266C4.31913 13.1475 4.10663 13.2906 3.89078 13.2906C3.73083 13.2906 3.58287 13.2152 3.50794 13.0932C3.36762 12.8821 3.26241 12.5852 3.18231 12.2705C3.12644 12.0509 3.0818 11.8185 3.04615 11.5933C1.81912 13.859 1.54712 15.7172 1.70109 17.1687C1.84924 18.5654 2.3926 19.5935 2.87208 20.2524C3.22513 19.2224 3.65027 18.0697 4.14754 16.861L4.14759 16.8609C5.76364 12.948 8.5147 7.60635 12.4488 4.44288C12.6138 4.31024 12.8749 4.31024 13.0398 4.44288C13.1253 4.51162 13.1734 4.60711 13.1734 4.70803C13.1734 4.80895 13.1253 4.90444 13.0398 4.97318L13.0397 4.97325C9.23684 8.02403 6.54625 13.2434 4.95633 17.0956L4.95632 17.0956C4.42952 18.371 3.98613 19.5837 3.62362 20.6555C5.65568 20.1883 7.51223 18.5376 9.01592 16.7022C10.4687 14.9289 11.5792 12.9994 12.1873 11.8467C11.4511 12.0328 10.6844 12.0425 10.5503 12.0425C10.3687 12.0425 10.1836 11.9419 10.1348 11.7659C10.0806 11.5823 10.2004 11.4161 10.3697 11.348Z" fill="#F8F8F8" stroke="#F8F8F8" stroke-width="0.2"/>
<circle cx="17.1" cy="15.26" r="2" fill="#F8F8F8"/>
<path d="M18.1 15.26L25.1 15.26" stroke="#F8F8F8" stroke-linecap="round"/>
<circle cx="23.1" cy="22.26" r="2" fill="#F8F8F8"/>
<path d="M15.1 22.26L22.1 22.26" stroke="#F8F8F8" stroke-linecap="round"/>
</svg>
