<svg width="51" height="50" viewBox="0 0 51 50" fill="none" xmlns="http://www.w3.org/2000/svg">
<path d="M11.3778 9.95092L11.3774 9.95135L11.3773 9.95147L11.3772 9.95164L11.377 9.95183L11.223 10.1446L10.975 10.1715L10.9749 10.1715L10.9747 10.1716L10.9734 10.1717L10.9679 10.1723L10.9453 10.1748L10.8579 10.1848C10.8132 10.1901 10.757 10.1968 10.6916 10.2048C10.7563 10.2127 10.812 10.2192 10.8563 10.2244L10.9437 10.2344L10.9662 10.2369L10.9718 10.2375L10.973 10.2376L10.9733 10.2376L10.9733 10.2376L11.2748 10.2702L11.4274 10.5322L12.5289 12.4231L12.6155 12.5718L12.6101 12.7435L12.6101 12.7436L12.6101 12.7437L12.6101 12.7438L12.6101 12.7457L12.6098 12.7548L12.609 12.7938C12.6083 12.8287 12.6075 12.8811 12.6071 12.9491C12.6062 13.0852 12.6069 13.2832 12.6129 13.5273C12.625 14.0163 12.6587 14.6859 12.7446 15.4105C12.8308 16.1372 12.968 16.9054 13.1824 17.5966C13.3992 18.2957 13.6809 18.8693 14.0284 19.2482L14.0285 19.2483C15.3006 20.6359 17.1747 22.3467 19.5284 22.8369L19.9696 22.9289L19.9752 22.9206L20.3254 22.9485C20.8021 22.9865 21.3026 22.9684 21.8256 22.8889L22.2885 22.8185L22.2908 22.8122L22.6213 22.7456C22.7675 22.7161 22.911 22.6871 23.052 22.6586C24.6277 22.3402 25.8862 22.0859 26.957 21.9746C28.1403 21.8517 29.14 21.8972 30.1496 22.2334L30.1501 22.2336C31.1433 22.5651 33.7476 23.8096 36.0501 24.9414C37.2134 25.5133 38.3172 26.0652 39.13 26.474C39.5117 26.6661 39.8294 26.8266 40.0591 26.9429L40.9146 26.0094L29.4055 20.9895L28.4626 20.5783L29.2847 19.96L29.2946 19.9526C29.0339 19.745 28.699 19.4785 28.3097 19.1688C27.3481 18.4037 26.0546 17.3756 24.7266 16.3229C22.0597 14.2087 19.2836 12.0193 18.7485 11.6373C18.4212 11.4038 18.089 11.0683 17.7732 10.7428C17.7302 10.6985 17.6872 10.6541 17.6441 10.6096C17.3564 10.3122 17.0644 10.0103 16.7474 9.72589C16.0144 9.06801 15.2505 8.6 14.3741 8.6C13.4198 8.6 12.668 8.93994 12.1481 9.28667C11.8883 9.45998 11.69 9.63277 11.5587 9.75995C11.4932 9.82335 11.445 9.87483 11.4146 9.90855C11.3995 9.92539 11.3889 9.93774 11.3829 9.94485L11.3778 9.95092ZM17.8911 27.208L17.3857 26.9359L17.2516 26.9619L14.9918 27.4H17.837H18.2476L17.8911 27.208ZM20.3558 27.4H21.6367L21.3619 27.3349L20.7066 27.1796L20.7344 27.1031L20.6401 27.1411L19.9978 27.4H20.3558Z" stroke="#F8F8F8" stroke-width="1.2"/>
<path d="M29.4098 11.792H30.8898L30.1698 9.696H30.1538L29.4098 11.792ZM29.5298 8.288H30.8178L32.9538 14H31.6498L31.2178 12.728H29.0818L28.6338 14H27.3698L29.5298 8.288Z" fill="#F8F8F8"/>
<path d="M34.3716 18.8774L37.4356 15.2134H34.6116V14.1574H39.1076V15.1494L36.0436 18.8134H39.1876V19.8694H34.3716V18.8774Z" fill="#F8F8F8"/>
<path d="M7.66758 45V38H12.0676V38.68H8.44758V41.04H11.4576V41.71H8.44758V44.32H12.0676V45H7.66758ZM14.8023 40.63C14.0923 40.63 13.8123 40.88 13.8123 41.38C13.8123 41.84 14.0523 42 14.6823 42.15L15.3123 42.29C16.4323 42.54 16.8423 42.84 16.8423 43.66C16.8423 44.59 16.2023 45.1 14.9523 45.1C13.6923 45.1 13.0023 44.58 12.8923 43.44H13.6323C13.7123 44.18 14.1223 44.5 14.9723 44.5C15.7523 44.5 16.0623 44.21 16.0623 43.71C16.0623 43.2 15.8523 43.07 15.0823 42.89L14.3923 42.75C13.4823 42.56 13.0323 42.22 13.0323 41.4C13.0323 40.58 13.5823 40.02 14.8023 40.02C16.0923 40.02 16.6823 40.58 16.7323 41.58H15.9823C15.9223 40.93 15.5823 40.63 14.8023 40.63ZM20.4245 45.1C19.6845 45.1 19.1745 44.76 18.9245 44.21V47H18.1345V40.12H18.9245V40.94C19.1845 40.33 19.7245 40.02 20.4245 40.02C21.5345 40.02 22.3245 40.75 22.3245 42.19V42.94C22.3245 44.37 21.5345 45.1 20.4245 45.1ZM20.2445 44.42C21.1245 44.42 21.5345 43.84 21.5345 42.93V42.2C21.5345 41.29 21.1245 40.7 20.2345 40.7C19.4245 40.7 18.9245 41.22 18.9245 42.24V42.95C18.9245 43.86 19.4345 44.42 20.2445 44.42ZM24.1604 38H25.0904L26.0404 39.33H25.3304L24.1604 38ZM27.5304 43.54C27.4204 44.55 26.6704 45.1 25.5604 45.1C24.3204 45.1 23.4904 44.37 23.4904 42.94V42.18C23.4904 40.75 24.3104 40.02 25.5704 40.02C26.7804 40.02 27.5604 40.76 27.5604 42.2V42.65H24.3004C24.3004 42.81 24.3104 42.97 24.3204 43.12C24.3604 43.94 24.7604 44.44 25.6004 44.44C25.6804 44.44 25.7504 44.44 25.8204 44.43C26.3904 44.36 26.7104 44.05 26.7804 43.54H27.5304ZM24.3004 42.08L24.3604 42.15H26.8204C26.7804 41.13 26.4104 40.67 25.5704 40.67C24.7104 40.67 24.3104 41.22 24.3004 42.08ZM30.8045 44.42C31.5145 44.42 31.8545 44.12 31.9745 43.48H32.7245C32.5745 44.55 31.8745 45.1 30.7845 45.1C29.5545 45.1 28.7445 44.37 28.7445 42.95V42.19C28.7445 40.75 29.5645 40.02 30.7945 40.02C31.9745 40.02 32.6145 40.67 32.6745 41.65H31.9145C31.8245 41.03 31.4645 40.7 30.7945 40.7C29.9245 40.7 29.5445 41.26 29.5445 42.2V42.93C29.5445 43.86 29.9445 44.42 30.8045 44.42ZM37.7162 43.54C37.6062 44.55 36.8562 45.1 35.7462 45.1C34.5062 45.1 33.6762 44.37 33.6762 42.94V42.18C33.6762 40.75 34.4962 40.02 35.7562 40.02C36.9662 40.02 37.7462 40.76 37.7462 42.2V42.65H34.4862C34.4862 42.81 34.4962 42.97 34.5062 43.12C34.5462 43.94 34.9462 44.44 35.7862 44.44C35.8662 44.44 35.9362 44.44 36.0062 44.43C36.5762 44.36 36.8962 44.05 36.9662 43.54H37.7162ZM34.4862 42.08L34.5462 42.15H37.0062C36.9662 41.13 36.5962 40.67 35.7562 40.67C34.8962 40.67 34.4962 41.22 34.4862 42.08ZM40.7203 40.63C40.0103 40.63 39.7303 40.88 39.7303 41.38C39.7303 41.84 39.9703 42 40.6003 42.15L41.2303 42.29C42.3503 42.54 42.7603 42.84 42.7603 43.66C42.7603 44.59 42.1203 45.1 40.8703 45.1C39.6103 45.1 38.9203 44.58 38.8103 43.44H39.5503C39.6303 44.18 40.0403 44.5 40.8903 44.5C41.6703 44.5 41.9803 44.21 41.9803 43.71C41.9803 43.2 41.7703 43.07 41.0003 42.89L40.3103 42.75C39.4003 42.56 38.9503 42.22 38.9503 41.4C38.9503 40.58 39.5003 40.02 40.7203 40.02C42.0103 40.02 42.6003 40.58 42.6503 41.58H41.9003C41.8403 40.93 41.5003 40.63 40.7203 40.63Z" fill="#F8F8F8"/>
</svg>
