<svg width="51" height="42" viewBox="0 0 51 42" fill="none" xmlns="http://www.w3.org/2000/svg">
<path d="M15.6288 9.92529L15.6289 9.92508C15.7234 9.77977 15.9163 9.71215 16.0947 9.74436C16.2721 9.77638 16.4245 9.9052 16.4335 10.085L16.4335 10.0861C16.4351 10.1272 16.4376 10.1743 16.4409 10.2264C16.9418 8.79892 18.0882 6.89134 20.6308 4.77571L20.6308 4.77564C20.7515 4.67549 20.931 4.64437 21.0869 4.69509C21.2389 4.74458 21.3575 4.86796 21.3617 5.02617C22.245 3.87459 23.9814 2.24485 27.2803 0.883712C27.9179 0.619828 28.6709 0.674467 29.2452 1.02521L29.2454 1.02533C29.8186 1.3774 30.0968 1.95875 29.9466 2.54666L29.9466 2.5469C29.6305 3.77201 29.102 5.41098 28.2655 6.99649C27.6113 8.23639 26.7667 9.44742 25.6847 10.4018C25.7725 10.3868 25.8651 10.3948 25.9479 10.4261C26.1376 10.4979 26.2613 10.6955 26.1706 10.8901C26.0788 11.0952 24.9819 13.483 23.1871 15.9211C21.4072 18.339 18.9207 20.8345 16.0274 21.2623C15.4217 23.134 15.107 24.4237 15.0623 24.6067C15.0603 24.6152 15.0588 24.6213 15.0579 24.6249C15.0143 24.8106 14.8246 24.9181 14.6381 24.9181C14.6115 24.9181 14.5857 24.9152 14.566 24.9129L14.564 24.9127L14.564 24.9127L14.5609 24.9122C14.3446 24.8804 14.1653 24.7007 14.2153 24.4814L14.2146 24.4813L14.2173 24.4737C14.2174 24.4735 14.2174 24.4733 14.2174 24.4731L14.2208 24.46L14.2336 24.4087C14.2447 24.364 14.2611 24.2987 14.2828 24.2141C14.3261 24.0451 14.3904 23.7994 14.476 23.4882C14.6443 22.8768 14.8947 22.0126 15.2296 20.9804C14.6747 20.364 13.8053 19.1404 13.5437 17.3237C13.2755 15.4615 13.6478 12.9892 15.6288 9.92529ZM23.0365 11.1661L23.0369 11.166C24.8704 10.4394 26.2162 8.91723 27.1913 7.23482C28.1659 5.55318 28.7646 3.72116 29.1081 2.39129L29.1083 2.39089C29.1843 2.10129 29.0576 1.81363 28.7434 1.618C28.4255 1.422 28.0207 1.39238 27.6612 1.54137L27.6611 1.54143C25.0099 2.63539 23.4329 3.91897 22.5188 4.92812C22.0616 5.43287 21.7697 5.8695 21.5921 6.18028C21.4179 6.48495 21.354 6.6679 21.3515 6.67507L21.3514 6.67528L21.3511 6.67628C21.2908 6.86327 21.0813 6.96203 20.8845 6.9419C20.6872 6.9217 20.5081 6.78023 20.5081 6.58079V5.93729C16.4297 9.67251 16.9312 12.4623 16.9738 12.662C16.9817 12.6889 16.9858 12.7166 16.9858 12.7447C16.9858 12.9656 16.7734 13.1087 16.5575 13.1087C16.3975 13.1087 16.2496 13.0333 16.1747 12.9113C16.0343 12.7003 15.9291 12.4034 15.849 12.0886C15.7932 11.869 15.7485 11.6366 15.7129 11.4115C14.4858 13.6772 14.2138 15.5353 14.3678 16.9869C14.516 18.3835 15.0593 19.4116 15.5388 20.0705C15.8918 19.0405 16.317 17.8878 16.8143 16.6791L16.8143 16.679C18.4304 12.7661 21.1814 7.42446 25.1155 4.26099C25.2805 4.12836 25.5416 4.12836 25.7065 4.26099C25.792 4.32974 25.8401 4.42522 25.8401 4.52615C25.8401 4.62707 25.792 4.72255 25.7065 4.7913L25.7064 4.79137C21.9036 7.84215 19.213 13.0615 17.623 16.9137L17.623 16.9138C17.0962 18.1891 16.6528 19.4018 16.2903 20.4737C18.3224 20.0064 20.1789 18.3557 21.6826 16.5203C23.1354 14.7471 24.2459 12.8175 24.854 11.6648C24.1178 11.8509 23.3511 11.8606 23.217 11.8606C23.0354 11.8606 22.8503 11.76 22.8015 11.5841C22.7474 11.4004 22.8672 11.2342 23.0365 11.1661Z" fill="#F5EFE7" stroke="#F5EFE7" stroke-width="0.2"/>
<circle cx="29.7667" cy="15.0781" r="2" fill="#F5EFE7"/>
<path d="M30.7667 15.0781L37.7667 15.0781" stroke="#F5EFE7" stroke-linecap="round"/>
<circle cx="35.7667" cy="22.0781" r="2" fill="#F5EFE7"/>
<path d="M27.7667 22.0781L34.7667 22.0781" stroke="#F5EFE7" stroke-linecap="round"/>
<path d="M9.56928 35.2421V40.8181H8.84128V35.2421H9.56928ZM10.538 38.6101C10.538 38.1621 10.6287 37.7701 10.81 37.4341C10.9914 37.0928 11.2394 36.8288 11.554 36.6421C11.874 36.4554 12.2314 36.3621 12.626 36.3621C12.9674 36.3621 13.2847 36.4421 13.578 36.6021C13.8714 36.7568 14.0954 36.9621 14.25 37.2181V34.8981H14.986V40.8181H14.25V39.9941C14.106 40.2554 13.8927 40.4714 13.61 40.6421C13.3274 40.8074 12.9967 40.8901 12.618 40.8901C12.2287 40.8901 11.874 40.7941 11.554 40.6021C11.2394 40.4101 10.9914 40.1408 10.81 39.7941C10.6287 39.4474 10.538 39.0528 10.538 38.6101ZM14.25 38.6181C14.25 38.2874 14.1834 37.9994 14.05 37.7541C13.9167 37.5088 13.7354 37.3221 13.506 37.1941C13.282 37.0608 13.034 36.9941 12.762 36.9941C12.49 36.9941 12.242 37.0581 12.018 37.1861C11.794 37.3141 11.6154 37.5008 11.482 37.7461C11.3487 37.9914 11.282 38.2794 11.282 38.6101C11.282 38.9461 11.3487 39.2394 11.482 39.4901C11.6154 39.7354 11.794 39.9248 12.018 40.0581C12.242 40.1861 12.49 40.2501 12.762 40.2501C13.034 40.2501 13.282 40.1861 13.506 40.0581C13.7354 39.9248 13.9167 39.7354 14.05 39.4901C14.1834 39.2394 14.25 38.9488 14.25 38.6181ZM20.2163 38.4581C20.2163 38.5968 20.2083 38.7434 20.1923 38.8981H16.6883C16.7149 39.3301 16.8616 39.6688 17.1283 39.9141C17.4003 40.1541 17.7283 40.2741 18.1123 40.2741C18.4269 40.2741 18.6883 40.2021 18.8963 40.0581C19.1096 39.9088 19.2589 39.7114 19.3443 39.4661H20.1283C20.0109 39.8874 19.7763 40.2314 19.4243 40.4981C19.0723 40.7594 18.6349 40.8901 18.1123 40.8901C17.6963 40.8901 17.3229 40.7968 16.9923 40.6101C16.6669 40.4234 16.4109 40.1594 16.2243 39.8181C16.0376 39.4714 15.9443 39.0714 15.9443 38.6181C15.9443 38.1648 16.0349 37.7674 16.2163 37.4261C16.3976 37.0848 16.6509 36.8234 16.9763 36.6421C17.3069 36.4554 17.6856 36.3621 18.1123 36.3621C18.5283 36.3621 18.8963 36.4528 19.2163 36.6341C19.5363 36.8154 19.7816 37.0661 19.9523 37.3861C20.1283 37.7008 20.2163 38.0581 20.2163 38.4581ZM19.4643 38.3061C19.4643 38.0288 19.4029 37.7914 19.2803 37.5941C19.1576 37.3914 18.9896 37.2394 18.7763 37.1381C18.5683 37.0314 18.3363 36.9781 18.0803 36.9781C17.7123 36.9781 17.3976 37.0954 17.1363 37.3301C16.8803 37.5648 16.7336 37.8901 16.6963 38.3061H19.4643ZM23.3132 36.3541C23.8466 36.3541 24.2786 36.5168 24.6092 36.8421C24.9399 37.1621 25.1052 37.6261 25.1052 38.2341V40.8181H24.3852V38.3381C24.3852 37.9008 24.2759 37.5674 24.0572 37.3381C23.8386 37.1034 23.5399 36.9861 23.1612 36.9861C22.7772 36.9861 22.4706 37.1061 22.2412 37.3461C22.0172 37.5861 21.9052 37.9354 21.9052 38.3941V40.8181H21.1772V36.4341H21.9052V37.0581C22.0492 36.8341 22.2439 36.6608 22.4892 36.5381C22.7399 36.4154 23.0146 36.3541 23.3132 36.3541ZM27.1824 37.0341V39.6181C27.1824 39.8314 27.2277 39.9834 27.3184 40.0741C27.4091 40.1594 27.5664 40.2021 27.7904 40.2021H28.3264V40.8181H27.6704C27.2651 40.8181 26.9611 40.7248 26.7584 40.5381C26.5557 40.3514 26.4544 40.0448 26.4544 39.6181V37.0341H25.8864V36.4341H26.4544V35.3301H27.1824V36.4341H28.3264V37.0341H27.1824ZM29.5845 35.7221C29.4458 35.7221 29.3285 35.6741 29.2325 35.5781C29.1365 35.4821 29.0885 35.3648 29.0885 35.2261C29.0885 35.0874 29.1365 34.9701 29.2325 34.8741C29.3285 34.7781 29.4458 34.7301 29.5845 34.7301C29.7178 34.7301 29.8298 34.7781 29.9205 34.8741C30.0165 34.9701 30.0645 35.0874 30.0645 35.2261C30.0645 35.3648 30.0165 35.4821 29.9205 35.5781C29.8298 35.6741 29.7178 35.7221 29.5845 35.7221ZM29.9365 36.4341V40.8181H29.2085V36.4341H29.9365ZM32.9612 37.0341H32.0412V40.8181H31.3132V37.0341H30.7452V36.4341H31.3132V36.1221C31.3132 35.6314 31.4386 35.2741 31.6892 35.0501C31.9452 34.8208 32.3532 34.7061 32.9132 34.7061V35.3141C32.5932 35.3141 32.3666 35.3781 32.2332 35.5061C32.1052 35.6288 32.0412 35.8341 32.0412 36.1221V36.4341H32.9612V37.0341ZM34.186 35.7221C34.0474 35.7221 33.93 35.6741 33.834 35.5781C33.738 35.4821 33.69 35.3648 33.69 35.2261C33.69 35.0874 33.738 34.9701 33.834 34.8741C33.93 34.7781 34.0474 34.7301 34.186 34.7301C34.3194 34.7301 34.4314 34.7781 34.522 34.8741C34.618 34.9701 34.666 35.0874 34.666 35.2261C34.666 35.3648 34.618 35.4821 34.522 35.5781C34.4314 35.6741 34.3194 35.7221 34.186 35.7221ZM34.538 36.4341V40.8181H33.81V36.4341H34.538ZM39.7788 38.4581C39.7788 38.5968 39.7708 38.7434 39.7548 38.8981H36.2508C36.2774 39.3301 36.4241 39.6688 36.6908 39.9141C36.9628 40.1541 37.2908 40.2741 37.6748 40.2741C37.9894 40.2741 38.2508 40.2021 38.4588 40.0581C38.6721 39.9088 38.8214 39.7114 38.9068 39.4661H39.6908C39.5734 39.8874 39.3388 40.2314 38.9868 40.4981C38.6348 40.7594 38.1974 40.8901 37.6748 40.8901C37.2588 40.8901 36.8854 40.7968 36.5548 40.6101C36.2294 40.4234 35.9734 40.1594 35.7868 39.8181C35.6001 39.4714 35.5068 39.0714 35.5068 38.6181C35.5068 38.1648 35.5974 37.7674 35.7788 37.4261C35.9601 37.0848 36.2134 36.8234 36.5388 36.6421C36.8694 36.4554 37.2481 36.3621 37.6748 36.3621C38.0908 36.3621 38.4588 36.4528 38.7788 36.6341C39.0988 36.8154 39.3441 37.0661 39.5148 37.3861C39.6908 37.7008 39.7788 38.0581 39.7788 38.4581ZM39.0268 38.3061C39.0268 38.0288 38.9654 37.7914 38.8428 37.5941C38.7201 37.3914 38.5521 37.2394 38.3388 37.1381C38.1308 37.0314 37.8988 36.9781 37.6428 36.9781C37.2748 36.9781 36.9601 37.0954 36.6988 37.3301C36.4428 37.5648 36.2961 37.8901 36.2588 38.3061H39.0268ZM41.4677 37.1461C41.5957 36.8954 41.7771 36.7008 42.0117 36.5621C42.2517 36.4234 42.5424 36.3541 42.8837 36.3541V37.1061H42.6917C41.8757 37.1061 41.4677 37.5488 41.4677 38.4341V40.8181H40.7397V36.4341H41.4677V37.1461Z" fill="#F5EFE7"/>
</svg>
