<svg width="30" height="21" viewBox="0 0 30 21" fill="none" xmlns="http://www.w3.org/2000/svg">
<g id="Group">
<g id="Group_2">
<path id="Vector" d="M28.8961 1.79226H26.5909C22.8572 0.493562 18.7987 0.493562 15.065 1.79226H14.9026C11.1689 0.493562 7.11043 0.493562 3.37666 1.79226H1.10393C0.714324 1.79226 0.389648 2.11694 0.389648 2.50655V19.6494C0.389648 20.039 0.714324 20.2988 1.10393 20.2988H13.6039C13.9286 20.6234 14.4156 20.8182 15 20.8182C15.5845 20.8182 16.0715 20.6234 16.3961 20.2988H28.8961C29.2858 20.2988 29.6104 20.039 29.6104 19.6494V2.50655C29.6104 2.11694 29.2858 1.79226 28.8961 1.79226ZM26.3637 18.578C22.4676 17.3442 18.8961 17.3442 15.3247 18.578V2.53902C18.8961 1.20785 22.4676 1.20785 26.3637 2.53902V18.578ZM14.6754 18.578C12.7273 17.9611 10.9741 17.6364 9.15588 17.6364C7.3377 17.6364 5.58445 17.9611 3.6364 18.578V2.53902C7.53251 1.20785 11.1039 1.20785 14.6754 2.53902V18.578ZM14.4481 19.3247H3.86367C7.30523 18.026 11.0065 18.026 14.4481 19.3247ZM26.1364 19.3247H15.552C18.9611 18.026 22.6948 18.026 26.1364 19.3247ZM1.36367 2.76629H2.98705V19.3247H1.36367V2.76629ZM28.6364 19.3247H27.013V2.76629H28.6364V19.3247Z" fill="#F5EFE7"/>
<path id="Vector_2" d="M12.9222 4.77923C10.4871 3.8052 7.79233 3.8052 5.35726 4.77923C5.19493 4.84416 5.12999 5.0065 5.19493 5.16884C5.25986 5.33117 5.4222 5.39611 5.58454 5.33117C7.88973 4.42208 10.4222 4.42208 12.6949 5.33117C12.7274 5.33117 12.7599 5.36364 12.7923 5.36364C12.9222 5.36364 13.0196 5.29871 13.0521 5.16884C13.1495 5.03897 13.0845 4.84416 12.9222 4.77923Z" fill="#F5EFE7"/>
<path id="Vector_3" d="M12.9222 7.24675C10.4871 6.27273 7.79233 6.27273 5.35726 7.24675C5.19493 7.31169 5.12999 7.47403 5.19493 7.63637C5.25986 7.7987 5.4222 7.86364 5.58454 7.7987C7.88973 6.88961 10.4222 6.88961 12.6949 7.7987C12.7274 7.7987 12.7599 7.83117 12.7923 7.83117C12.9222 7.83117 13.0196 7.76624 13.0521 7.63637C13.1495 7.5065 13.0845 7.31169 12.9222 7.24675Z" fill="#F5EFE7"/>
<path id="Vector_4" d="M12.9222 9.71428C10.4871 8.74026 7.79233 8.74026 5.35726 9.71428C5.19493 9.77922 5.12999 9.94156 5.19493 10.1039C5.25986 10.2662 5.4222 10.3312 5.58454 10.2662C7.88973 9.35714 10.4222 9.35714 12.6949 10.2662C12.7274 10.2662 12.7599 10.2987 12.7923 10.2987C12.9222 10.2987 13.0196 10.2338 13.0521 10.1039C13.1495 9.97402 13.0845 9.77922 12.9222 9.71428Z" fill="#F5EFE7"/>
<path id="Vector_5" d="M12.9222 14.6495C10.4871 13.6754 7.79233 13.6754 5.35726 14.6495C5.19493 14.7144 5.12999 14.8767 5.19493 15.0391C5.25986 15.2014 5.4222 15.2663 5.58454 15.2014C7.88973 14.2923 10.4222 14.2923 12.6949 15.2014C12.7274 15.2014 12.7599 15.2339 12.7923 15.2339C12.9222 15.2339 13.0196 15.1689 13.0521 15.0391C13.1495 14.8767 13.0845 14.7144 12.9222 14.6495Z" fill="#F5EFE7"/>
<path id="Vector_6" d="M12.9222 12.1819C10.4871 11.2079 7.79233 11.2079 5.35726 12.1819C5.19493 12.2469 5.12999 12.4092 5.19493 12.5715C5.25986 12.7339 5.4222 12.7988 5.58454 12.7339C7.88973 11.8248 10.4222 11.8248 12.6949 12.7339C12.7274 12.7339 12.7599 12.7664 12.7923 12.7664C12.9222 12.7664 13.0196 12.7014 13.0521 12.5715C13.1495 12.4417 13.0845 12.2469 12.9222 12.1819Z" fill="#F5EFE7"/>
<path id="Vector_7" d="M24.6104 4.77923C22.1754 3.8052 19.4806 3.8052 17.0455 4.77923C16.8832 4.84416 16.8182 5.0065 16.8832 5.16884C16.9481 5.33117 17.1104 5.39611 17.2728 5.33117C19.578 4.42208 22.1104 4.42208 24.3832 5.33117C24.4156 5.33117 24.4481 5.36364 24.4806 5.36364C24.6104 5.36364 24.7078 5.29871 24.7403 5.16884C24.8377 5.03897 24.7728 4.84416 24.6104 4.77923Z" fill="#F5EFE7"/>
<path id="Vector_8" d="M24.6104 7.24675C22.1754 6.27273 19.4806 6.27273 17.0455 7.24675C16.8832 7.31169 16.8182 7.47403 16.8832 7.63637C16.9481 7.7987 17.1104 7.86364 17.2728 7.7987C19.578 6.88961 22.1104 6.88961 24.3832 7.7987C24.4156 7.7987 24.4481 7.83117 24.4806 7.83117C24.6104 7.83117 24.7078 7.76624 24.7403 7.63637C24.8377 7.5065 24.7728 7.31169 24.6104 7.24675Z" fill="#F5EFE7"/>
<path id="Vector_9" d="M24.6104 9.71428C22.1754 8.74026 19.4806 8.74026 17.0455 9.71428C16.8832 9.77922 16.8182 9.94156 16.8832 10.1039C16.9481 10.2662 17.1104 10.3312 17.2728 10.2662C19.578 9.35714 22.1104 9.35714 24.3832 10.2662C24.4156 10.2662 24.4481 10.2987 24.4806 10.2987C24.6104 10.2987 24.7078 10.2338 24.7403 10.1039C24.8377 9.97402 24.7728 9.77922 24.6104 9.71428Z" fill="#F5EFE7"/>
<path id="Vector_10" d="M24.6104 14.6495C22.1754 13.6754 19.4806 13.6754 17.0455 14.6495C16.8832 14.7144 16.8182 14.8767 16.8832 15.0391C16.9481 15.2014 17.1104 15.2663 17.2728 15.2014C19.578 14.2923 22.1104 14.2923 24.3832 15.2014C24.4156 15.2014 24.4481 15.2339 24.4806 15.2339C24.6104 15.2339 24.7078 15.1689 24.7403 15.0391C24.8377 14.8767 24.7728 14.7144 24.6104 14.6495Z" fill="#F5EFE7"/>
<path id="Vector_11" d="M24.6104 12.1819C22.1754 11.2079 19.4806 11.2079 17.0455 12.1819C16.8832 12.2469 16.8182 12.4092 16.8832 12.5715C16.9481 12.7339 17.1104 12.7988 17.2728 12.7339C19.578 11.8248 22.1104 11.8248 24.3832 12.7339C24.4156 12.7339 24.4481 12.7664 24.4806 12.7664C24.6104 12.7664 24.7078 12.7014 24.7403 12.5715C24.8377 12.4417 24.7728 12.2469 24.6104 12.1819Z" fill="#F5EFE7"/>
</g>
</g>
</svg>
