<svg width="63" height="50" viewBox="0 0 63 50" fill="none" xmlns="http://www.w3.org/2000/svg">
<rect x="0.666687" width="62" height="50" rx="25" fill="#F5EFE7"/>
<path d="M21.6288 22.1072L21.6289 22.107C21.7234 21.9617 21.9163 21.894 22.0947 21.9262C22.2721 21.9583 22.4245 22.0871 22.4335 22.2669L22.4335 22.268C22.4351 22.3091 22.4376 22.3562 22.4409 22.4083C22.9418 20.9808 24.0882 19.0732 26.6308 16.9576L26.6308 16.9575C26.7515 16.8574 26.931 16.8263 27.0869 16.877C27.2389 16.9265 27.3575 17.0498 27.3617 17.2081C28.245 16.0565 29.9814 14.4267 33.2803 13.0656C33.9179 12.8017 34.6709 12.8564 35.2452 13.2071L35.2454 13.2072C35.8186 13.5593 36.0968 14.1406 35.9466 14.7285L35.9466 14.7288C35.6305 15.9539 35.102 17.5929 34.2655 19.1784C33.6113 20.4183 32.7667 21.6293 31.6847 22.5836C31.7725 22.5687 31.8651 22.5767 31.9479 22.608C32.1376 22.6798 32.2613 22.8774 32.1706 23.072C32.0788 23.2771 30.9819 25.6649 29.1871 28.1029C27.4072 30.5209 24.9207 33.0164 22.0274 33.4442C21.4217 35.3158 21.107 36.6056 21.0623 36.7886C21.0603 36.797 21.0588 36.8031 21.0579 36.8068C21.0143 36.9925 20.8246 37.1 20.6381 37.1C20.6115 37.1 20.5857 37.097 20.566 37.0948L20.564 37.0945L20.564 37.0946L20.5609 37.0941C20.3446 37.0623 20.1653 36.8826 20.2153 36.6633L20.2146 36.6632L20.2173 36.6556C20.2174 36.6554 20.2174 36.6552 20.2174 36.655L20.2208 36.6418L20.2336 36.5906C20.2447 36.5459 20.2611 36.4806 20.2828 36.396C20.3261 36.227 20.3904 35.9813 20.476 35.6701C20.6443 35.0587 20.8947 34.1944 21.2296 33.1623C20.6747 32.5458 19.8053 31.3223 19.5437 29.5056C19.2755 27.6434 19.6478 25.1711 21.6288 22.1072ZM29.0365 23.348L29.0369 23.3478C30.8704 22.6213 32.2162 21.0991 33.1913 19.4167C34.1659 17.7351 34.7646 15.903 35.1081 14.5732L35.1083 14.5728C35.1843 14.2832 35.0576 13.9955 34.7434 13.7999C34.4255 13.6039 34.0207 13.5743 33.6612 13.7233L33.6611 13.7233C31.0099 14.8173 29.4329 16.1009 28.5188 17.11C28.0616 17.6148 27.7697 18.0514 27.5921 18.3622C27.4179 18.6668 27.354 18.8498 27.3515 18.857L27.3514 18.8572L27.3511 18.8582C27.2908 19.0452 27.0813 19.1439 26.8845 19.1238C26.6872 19.1036 26.5081 18.9621 26.5081 18.7627V18.1192C22.4297 21.8544 22.9312 24.6442 22.9738 24.8439C22.9817 24.8708 22.9858 24.8985 22.9858 24.9266C22.9858 25.1475 22.7734 25.2906 22.5575 25.2906C22.3975 25.2906 22.2496 25.2152 22.1747 25.0932C22.0343 24.8821 21.9291 24.5852 21.849 24.2705C21.7932 24.0509 21.7485 23.8185 21.7129 23.5933C20.4858 25.859 20.2138 27.7172 20.3678 29.1687C20.516 30.5654 21.0593 31.5935 21.5388 32.2524C21.8918 31.2224 22.317 30.0697 22.8143 28.861L22.8143 28.8609C24.4304 24.948 27.1814 19.6063 31.1155 16.4429C31.2805 16.3102 31.5416 16.3102 31.7065 16.4429C31.792 16.5116 31.8401 16.6071 31.8401 16.708C31.8401 16.809 31.792 16.9044 31.7065 16.9732L31.7064 16.9733C27.9036 20.024 25.213 25.2434 23.623 29.0956L23.623 29.0956C23.0962 30.371 22.6528 31.5837 22.2903 32.6555C24.3224 32.1883 26.1789 30.5376 27.6826 28.7022C29.1354 26.9289 30.2459 24.9994 30.854 23.8467C30.1178 24.0328 29.3511 24.0425 29.217 24.0425C29.0354 24.0425 28.8503 23.9419 28.8015 23.7659C28.7474 23.5823 28.8672 23.4161 29.0365 23.348Z" fill="#021120" stroke="#021120" stroke-width="0.2"/>
<circle cx="35.7667" cy="27.26" r="2" fill="#021120"/>
<path d="M36.7667 27.26L43.7667 27.26" stroke="#021120" stroke-linecap="round"/>
<circle cx="41.7667" cy="34.26" r="2" fill="#021120"/>
<path d="M33.7667 34.26L40.7667 34.26" stroke="#021120" stroke-linecap="round"/>
</svg>
