<svg width="733" height="356" viewBox="0 0 733 356" fill="none" xmlns="http://www.w3.org/2000/svg">
<path d="M583.203 206.414C572.066 194.285 546.61 156.372 586.997 93.905C587.7 92.8225 589.23 92.232 590.729 92.5027C592.229 92.7733 593.3 93.8066 593.361 95.0368C593.422 96.6113 593.605 98.9978 593.881 101.729C597.92 86.9424 609.026 65.5133 638.062 41.3533C639.01 40.566 640.479 40.2954 641.764 40.7136C643.049 41.1319 643.875 42.116 643.875 43.2231V46.2493C652.136 34.5629 669.821 16.529 705.955 1.61967C712.197 -0.963632 719.571 -0.422369 725.17 2.99743C730.738 6.41723 733.308 11.9529 731.901 17.4639C725.445 42.485 710.331 84.3345 678.816 104.878C682.457 103.943 685.67 102.541 687.2 100.499C688.087 99.2931 689.984 98.8502 691.544 99.4407C693.105 100.031 693.87 101.507 693.258 102.811C691.453 106.846 648.404 200.534 589.444 208.628C582.652 229.541 579.348 243.564 579.286 243.786C578.98 245.09 577.573 246 575.982 246C575.768 246 575.554 245.975 575.339 245.951C573.504 245.68 572.31 244.253 572.647 242.777C572.708 242.605 576.166 228.04 583.203 206.414ZM682.702 109.552C674.686 112.037 665.415 112.16 663.916 112.16C662.355 112.16 660.979 111.299 660.642 110.069C660.275 108.839 661.04 107.584 662.447 107.018C700.631 91.8876 718.224 43.7398 725.292 16.3814C726.21 12.8878 724.619 9.51719 721.1 7.32753C717.551 5.13788 713.054 4.81804 709.076 6.46643C654.462 29.0027 643.906 59.4364 643.814 59.7317C643.386 61.0602 641.795 61.9213 640.112 61.7491C638.429 61.5769 637.175 60.4205 637.175 59.0674V50.1611C592.963 89.7225 598.47 119.566 598.929 121.657C598.99 121.854 599.021 122.051 599.021 122.248C599.021 123.748 597.522 124.954 595.655 124.954C594.309 124.954 593.147 124.314 592.596 123.404C589.903 119.369 588.404 111.742 587.578 105.419C559.735 154.6 575.064 185.994 585.559 199.501C589.291 188.503 593.85 176.054 599.235 162.965C615.788 122.887 643.906 68.3427 684.018 36.0883C685.333 35.0304 687.475 35.0304 688.791 36.0883C690.106 37.1462 690.106 38.8684 688.791 39.9263C649.597 71.3688 621.938 125.077 605.63 164.589C599.939 178.367 595.197 191.431 591.372 202.847C635.125 194.26 670.8 132.532 682.702 109.552Z" fill="#2D4941"/>
<path d="M131.193 353.26V247.378H180.153C186.59 247.378 192.237 248.846 197.094 251.783C202.063 254.606 205.903 258.503 208.614 263.472C211.324 268.441 212.68 273.976 212.68 280.074C212.68 286.173 211.324 291.764 208.614 296.846C205.903 301.816 202.063 305.769 197.094 308.705C192.237 311.529 186.59 312.94 180.153 312.94H146.101V353.26H131.193ZM179.136 299.896C184.67 299.896 189.132 298.032 192.52 294.305C196.021 290.578 197.772 285.891 197.772 280.244C197.772 274.484 196.021 269.74 192.52 266.013C189.132 262.173 184.67 260.253 179.136 260.253H146.101V299.896H179.136Z" fill="#2D4941"/>
<path d="M247.614 353.26H233.045V232.47H247.614V353.26Z" fill="#2D4941"/>
<path d="M301.429 354.954C291.942 354.954 284.262 351.905 278.389 345.806C272.516 339.594 269.58 330.898 269.58 319.717V270.587H284.149V317.514C284.149 325.307 286.013 331.293 289.74 335.472C293.58 339.651 298.549 341.74 304.648 341.74C310.634 341.74 315.66 339.82 319.726 335.98C323.904 332.027 325.994 326.945 325.994 320.733V270.587H340.394V327.51L355.302 346.484L344.29 355.463L330.399 337.505C327.801 342.813 323.961 347.049 318.879 350.211C313.796 353.373 307.98 354.954 301.429 354.954Z" fill="#2D4941"/>
<path d="M373.793 353.26V296.338L358.885 277.364L369.897 268.385L383.45 286.004C386.047 280.696 389.774 276.517 394.631 273.467C399.487 270.418 405.078 268.893 411.403 268.893C417.614 268.893 423.261 270.361 428.344 273.298C433.539 276.121 437.492 280.074 440.203 285.157C442.687 280.074 446.302 276.121 451.045 273.298C455.902 270.361 461.492 268.893 467.817 268.893C474.029 268.893 479.619 270.248 484.589 272.959C489.558 275.67 493.454 279.566 496.278 284.648C499.214 289.618 500.683 295.491 500.683 302.267V353.26H486.113V302.945C486.113 296.733 484.137 291.707 480.184 287.867C476.231 284.027 471.262 282.107 465.276 282.107C459.29 282.107 454.32 284.027 450.367 287.867C446.414 291.707 444.438 296.733 444.438 302.945V353.26H429.869V302.945C429.869 296.733 427.892 291.707 423.939 287.867C420.099 284.027 415.186 282.107 409.2 282.107C403.214 282.107 398.245 284.027 394.292 287.867C390.339 291.594 388.363 296.564 388.363 302.776V353.26H373.793Z" fill="#2D4941"/>
<path d="M533.055 313.618C533.168 319.039 534.41 324.009 536.782 328.526C539.267 332.931 542.655 336.432 546.947 339.03C551.239 341.514 556.151 342.757 561.686 342.757C567.671 342.757 572.923 341.232 577.441 338.183C581.959 335.133 585.46 331.011 587.944 325.816L598.279 332.423C594.89 339.425 589.977 344.959 583.54 349.025C577.215 352.978 569.761 354.954 561.177 354.954C552.933 354.954 545.535 353.034 538.984 349.194C532.547 345.354 527.521 340.159 523.907 333.609C520.406 327.058 518.655 319.83 518.655 311.924C518.655 304.018 520.406 296.79 523.907 290.239C527.521 283.688 532.547 278.493 538.984 274.653C545.422 270.813 552.707 268.893 560.839 268.893C569.309 268.893 576.594 270.757 582.693 274.484C588.792 278.211 593.366 283.463 596.415 290.239C599.464 297.016 600.82 304.809 600.481 313.618H533.055ZM560.839 280.752C554.288 280.752 548.641 282.672 543.897 286.512C539.267 290.352 536.104 295.547 534.41 302.098H585.403C584.161 295.321 581.45 290.07 577.272 286.343C573.093 282.616 567.615 280.752 560.839 280.752Z" fill="#2D4941"/>
<path d="M648.489 354.954C639.906 354.954 632.452 353.26 626.127 349.872C619.915 346.371 615.228 341.289 612.066 334.625L621.722 327.679C624.433 333.213 628.103 337.279 632.734 339.877C637.478 342.474 642.729 343.773 648.489 343.773C654.249 343.773 658.711 342.587 661.873 340.216C665.035 337.731 666.616 334.456 666.616 330.39C666.616 323.613 661.703 319.265 651.878 317.345L636.8 314.465C630.249 313.11 625.28 310.569 621.892 306.841C618.616 303.001 616.979 298.201 616.979 292.441C616.979 285.326 619.463 279.623 624.433 275.331C629.515 271.039 636.687 268.893 645.948 268.893C653.063 268.893 659.332 270.305 664.753 273.128C670.174 275.952 674.635 280.018 678.136 285.326L668.819 292.103C663.736 284.197 656.169 280.244 646.118 280.244C640.809 280.244 636.8 281.317 634.089 283.463C631.492 285.608 630.193 288.376 630.193 291.764C630.193 294.587 631.153 296.959 633.073 298.879C635.106 300.799 638.438 302.267 643.068 303.284L657.299 306.164C672.433 309.1 680 316.893 680 329.543C680 337.561 677.233 343.83 671.699 348.347C666.165 352.752 658.428 354.954 648.489 354.954Z" fill="#2D4941"/>
<path d="M62.3307 281.599C59.17 281.599 56.3254 280.826 53.7969 279.282C51.2684 277.737 49.2817 275.671 47.8369 273.081C46.4372 270.446 45.7373 267.539 45.7373 264.359C45.7373 261.225 46.4372 258.34 47.8369 255.705C49.2817 253.071 51.2458 250.981 53.7292 249.437C56.2126 247.892 59.012 247.12 62.1275 247.12C65.0172 247.12 67.5683 247.801 69.7807 249.164C71.9932 250.527 73.6864 252.389 74.8603 254.751V232.47H79.1272V271.037L85.2227 279.009L81.9718 281.667L75.8085 273.558C74.4991 276.057 72.6705 278.033 70.3226 279.486C67.9747 280.895 65.3107 281.599 62.3307 281.599ZM62.6016 277.647C64.9946 277.647 67.1168 277.056 68.968 275.875C70.8192 274.694 72.2641 273.104 73.3026 271.105C74.3411 269.061 74.8603 266.812 74.8603 264.359C74.8603 261.906 74.3411 259.658 73.3026 257.613C72.2641 255.569 70.8192 253.956 68.968 252.775C67.1168 251.594 64.9946 251.004 62.6016 251.004C60.2085 251.004 58.0412 251.594 56.0997 252.775C54.2033 253.956 52.7133 255.569 51.6296 257.613C50.546 259.658 50.0042 261.906 50.0042 264.359C50.0042 266.812 50.546 269.061 51.6296 271.105C52.7133 273.104 54.2033 274.694 56.0997 275.875C58.0412 277.056 60.2085 277.647 62.6016 277.647Z" fill="#2D4941"/>
<path d="M93.2601 264.564C93.2601 267.017 93.7794 269.265 94.8179 271.31C95.9015 273.308 97.3915 274.898 99.2879 276.079C101.184 277.26 103.374 277.851 105.858 277.851C108.431 277.851 110.711 277.17 112.698 275.807C114.73 274.399 116.265 272.513 117.304 270.151L120.487 272.059C119.177 274.966 117.236 277.283 114.662 279.009C112.088 280.736 109.108 281.599 105.722 281.599C102.471 281.599 99.5814 280.849 97.0529 279.35C94.5244 277.806 92.5377 275.716 91.0928 273.081C89.6931 270.446 88.9932 267.539 88.9932 264.359C88.9932 261.179 89.6931 258.272 91.0928 255.637C92.4925 253.003 94.4566 250.936 96.9851 249.437C99.5588 247.892 102.449 247.12 105.654 247.12C108.86 247.12 111.637 247.847 113.985 249.3C116.378 250.754 118.184 252.798 119.403 255.433C120.667 258.022 121.254 260.998 121.164 264.359H93.2601V264.564ZM105.654 250.731C102.629 250.731 100.033 251.662 97.8656 253.525C95.7435 255.342 94.3438 257.772 93.6665 260.816H116.694C116.242 257.681 115.046 255.228 113.104 253.457C111.208 251.64 108.725 250.731 105.654 250.731Z" fill="#2D4941"/>
<path d="M57.2461 158.985H101.242V197.155C95.9198 203.602 89.2383 208.691 81.1978 212.423C73.1573 216.155 63.9843 218.021 53.6789 218.021C43.2602 218.021 33.974 215.59 25.8202 210.727C17.6665 205.864 11.3247 199.304 6.79479 191.048C2.26493 182.679 0 173.461 0 163.396C0 153.33 2.20831 144.169 6.62492 135.913C11.1548 127.544 17.4966 120.928 25.6503 116.064C33.8041 111.201 43.1469 108.77 53.6789 108.77C63.3048 108.77 71.8549 110.749 79.3292 114.707C86.9167 118.553 92.9754 123.868 97.5053 130.654L85.7843 138.288C82.2736 133.312 77.7438 129.41 72.1947 126.582C66.7588 123.755 60.5869 122.341 53.6789 122.341C45.9781 122.341 39.1833 124.151 33.2945 127.77C27.5189 131.389 23.0457 136.309 19.8748 142.529C16.8171 148.749 15.2883 155.705 15.2883 163.396C15.2883 171.086 16.8171 178.098 19.8748 184.432C23.0457 190.652 27.5755 195.572 33.4644 199.191C39.3532 202.81 46.2612 204.619 54.1885 204.619C66.9853 204.619 78.0835 200.661 87.483 192.744V171.199H57.2461V158.985Z" fill="#2D4941"/>
<path d="M161.03 218.191C152.989 218.191 145.798 216.268 139.456 212.423C133.115 208.578 128.132 203.375 124.508 196.816C120.997 190.256 119.242 183.018 119.242 175.101C119.242 167.184 120.997 159.946 124.508 153.386C128.019 146.827 132.945 141.624 139.287 137.779C145.628 133.934 152.763 132.011 160.69 132.011C167.712 132.011 173.77 133.594 178.866 136.761C183.962 139.928 187.983 144.226 190.927 149.654V133.708H204.517V190.539L219.635 209.539L208.424 218.53L193.815 199.53C190.417 205.298 185.888 209.878 180.225 213.271C174.563 216.551 168.165 218.191 161.03 218.191ZM162.049 205.128C167.485 205.128 172.298 203.828 176.488 201.227C180.792 198.512 184.076 194.893 186.341 190.369C188.719 185.732 189.908 180.643 189.908 175.101C189.908 169.559 188.719 164.527 186.341 160.003C184.076 155.366 180.792 151.747 176.488 149.145C172.298 146.431 167.485 145.074 162.049 145.074C156.613 145.074 151.744 146.431 147.44 149.145C143.137 151.747 139.74 155.366 137.248 160.003C134.87 164.527 133.681 169.559 133.681 175.101C133.681 180.643 134.87 185.732 137.248 190.369C139.74 194.893 143.137 198.512 147.44 201.227C151.744 203.828 156.613 205.128 162.049 205.128Z" fill="#2D4941"/>
<path d="M247.426 216.495H232.817V95.5373H247.426V216.495Z" fill="#2D4941"/>
<path d="M280.492 176.798C280.606 182.226 281.851 187.203 284.229 191.726C286.721 196.137 290.118 199.643 294.422 202.244C298.725 204.733 303.651 205.977 309.2 205.977C315.202 205.977 320.468 204.45 324.998 201.396C329.528 198.343 333.039 194.215 335.53 189.012L345.892 195.628C342.495 202.64 337.569 208.182 331.113 212.254C324.772 216.212 317.297 218.191 308.691 218.191C300.424 218.191 293.006 216.268 286.438 212.423C279.983 208.578 274.943 203.375 271.319 196.816C267.809 190.256 266.053 183.018 266.053 175.101C266.053 167.184 267.809 159.946 271.319 153.386C274.943 146.827 279.983 141.624 286.438 137.779C292.893 133.934 300.197 132.011 308.351 132.011C316.844 132.011 324.149 133.877 330.264 137.609C336.379 141.342 340.966 146.601 344.024 153.386C347.081 160.172 348.44 167.976 348.1 176.798H280.492ZM308.351 143.886C301.783 143.886 296.12 145.809 291.364 149.654C286.721 153.5 283.55 158.702 281.851 165.262H332.982C331.736 158.476 329.018 153.217 324.828 149.485C320.638 145.752 315.146 143.886 308.351 143.886Z" fill="#2D4941"/>
<path d="M372.117 216.495V159.324L357.338 140.324L368.38 131.333L382.139 149.145C385.31 143.83 389.784 139.645 395.559 136.592C401.448 133.538 408.243 132.011 415.944 132.011V145.583C406.997 145.583 399.863 147.619 394.54 151.69C389.331 155.648 386.726 161.416 386.726 168.994V216.495H372.117Z" fill="#2D4941"/>
<path d="M444.995 115.047H430.047V97.5731H444.995V115.047ZM444.825 216.495H430.217V133.708H444.825V216.495Z" fill="#2D4941"/>
<path d="M477.568 176.798C477.681 182.226 478.927 187.203 481.305 191.726C483.796 196.137 487.194 199.643 491.497 202.244C495.801 204.733 500.727 205.977 506.276 205.977C512.278 205.977 517.544 204.45 522.074 201.396C526.604 198.343 530.114 194.215 532.606 189.012L542.968 195.628C539.57 202.64 534.644 208.182 528.189 212.254C521.847 216.212 514.373 218.191 505.766 218.191C497.499 218.191 490.082 216.268 483.513 212.423C477.058 208.578 472.019 203.375 468.395 196.816C464.884 190.256 463.129 183.018 463.129 175.101C463.129 167.184 464.884 159.946 468.395 153.386C472.019 146.827 477.058 141.624 483.513 137.779C489.968 133.934 497.273 132.011 505.426 132.011C513.92 132.011 521.224 133.877 527.34 137.609C533.455 141.342 538.041 146.601 541.099 153.386C544.157 160.172 545.516 167.976 545.176 176.798H477.568ZM505.426 143.886C498.858 143.886 493.196 145.809 488.439 149.654C483.796 153.5 480.625 158.702 478.927 165.262H530.058C528.812 158.476 526.094 153.217 521.904 149.485C517.714 145.752 512.221 143.886 505.426 143.886Z" fill="#2D4941"/>
</svg>
