<svg width="35" height="26" viewBox="0 0 35 26" fill="none" xmlns="http://www.w3.org/2000/svg">
<path d="M28.6586 0.839727C28.5823 0.739206 28.4633 0.680786 28.3375 0.680786H15.3237C15.2 0.680786 15.0869 0.739175 15.011 0.833186C15.0087 0.836015 15.0049 0.836834 15.0027 0.839734L9.52286 8.00687C9.46865 8.07687 9.4397 8.16318 9.4397 8.25213V16.5345H7.63449V12.672C7.63449 12.4488 7.45344 12.2678 7.2303 12.2678C7.00715 12.2678 6.8261 12.4488 6.8261 12.672V16.5345H5.11931V12.672C5.11931 12.4488 4.93826 12.2678 4.71511 12.2678C4.49196 12.2678 4.31091 12.4488 4.31091 12.672V16.5345H2.60413V12.672C2.60413 12.4488 2.42308 12.2678 2.19993 12.2678C1.97678 12.2678 1.79573 12.4488 1.79573 12.672V16.5345H0.405249C0.182099 16.5345 0.00105093 16.7155 0.00105093 16.9387C0.00105093 17.1618 0.182099 17.3429 0.405249 17.3429H9.8439H12.5922C13.126 17.9231 13.6158 18.5328 14.0406 19.1639C14.0601 19.1927 14.0771 19.2243 14.0965 19.2534H0.405249C0.182099 19.2534 0.00105093 19.4344 0.00105093 19.6576C0.00105093 19.8807 0.182099 20.0618 0.405249 20.0618H14.3753C14.446 20.0618 14.5091 20.0388 14.5669 20.0069C14.7884 20.3838 14.9997 20.7695 15.1916 21.168C15.32 21.4309 15.4358 21.7013 15.5487 21.9727H0.405249C0.182099 21.9727 0.00105093 22.1538 0.00105093 22.3769C0.00105093 22.6001 0.182099 22.7811 0.405249 22.7811H15.854C15.8988 22.9093 15.9506 23.0351 15.9916 23.1643C16.1528 23.6658 16.2788 24.1783 16.3839 24.6916H0.404198C0.181048 24.6916 0 24.8727 0 25.0958C0 25.319 0.181048 25.5 0.404198 25.5H33.8179C34.041 25.5 34.2221 25.319 34.2221 25.0958C34.2221 24.8727 34.041 24.6916 33.8179 24.6916H25.1425C25.022 24.0828 24.884 23.4888 24.7234 22.9285C24.7092 22.8791 24.6916 22.8305 24.677 22.7811H33.8168C34.04 22.7811 34.221 22.6001 34.221 22.3769C34.221 22.1538 34.04 21.9727 33.8168 21.9727H24.422C24.2934 21.5912 24.1573 21.2129 24.0103 20.8423C23.9065 20.5794 23.7932 20.3206 23.6803 20.0618H33.8168C34.04 20.0618 34.221 19.8807 34.221 19.6576C34.221 19.4344 34.04 19.2534 33.8168 19.2534H23.3077C23.2272 19.0863 23.1504 18.9159 23.0666 18.7523C22.8223 18.2761 22.5531 17.8066 22.274 17.3429H33.8168H33.8179C34.041 17.3429 34.2221 17.1618 34.2221 16.9387V14.8293V11.8189V8.25213C34.2221 8.16318 34.1931 8.07687 34.1389 8.00687L28.6586 0.839727ZM33.4137 14.4251H22.4572V12.2231H33.4137V14.4251ZM28.1375 1.48918L33.0559 7.92108H21.0595L16.1416 1.48918H28.1375ZM10.2481 8.38896L15.3237 1.75022L20.3999 8.38896V16.5345H17.9963H17.8237V12.9257C17.8237 12.2636 17.5621 11.6373 17.0868 11.162C16.6121 10.6873 15.9858 10.4257 15.3237 10.4257C13.9454 10.4257 12.8238 11.5473 12.8238 12.9257V16.5345H12.7764H12.7286H10.2481L10.2481 8.38896ZM17.0153 16.5345H13.6322V12.9257C13.6322 11.9931 14.3911 11.2341 15.3237 11.2341C15.77 11.2341 16.1932 11.4115 16.5153 11.7336C16.8379 12.0562 17.0153 12.4794 17.0153 12.9257V16.5345ZM14.7106 18.7113C14.3959 18.2439 14.0496 17.786 13.6769 17.3429H17.4195H17.769C17.8784 17.5172 17.9823 17.6901 18.0849 17.8627C18.151 17.974 18.2219 18.0866 18.2851 18.197C18.4638 18.5094 18.6322 18.8185 18.7857 19.1213C19.1178 19.7697 19.4241 20.4486 19.6973 21.1396C19.9562 21.7927 20.1878 22.4701 20.3857 23.1517C20.5055 23.5718 20.6083 24.0002 20.7026 24.4292C20.715 24.4856 20.7265 24.542 20.7384 24.5985H17.1979C17.0853 24.0332 16.9384 23.469 16.7616 22.918C16.7334 22.8294 16.697 22.7433 16.6672 22.6552C16.7366 22.5826 16.7805 22.4852 16.7805 22.3769C16.7805 22.1713 16.6246 22.0082 16.4258 21.9827C16.2711 21.5863 16.1045 21.195 15.919 20.8154C15.5642 20.0791 15.1574 19.3707 14.7106 18.7113ZM22.4564 19.3482C22.365 19.4223 22.303 19.5308 22.303 19.6576C22.303 19.8807 22.484 20.0618 22.7072 20.0618H22.7997C22.9609 20.4161 23.1149 20.7756 23.2587 21.1391C23.5182 21.7938 23.7498 22.4717 23.9466 23.1517C24.0787 23.6143 24.1982 24.099 24.3029 24.5985H21.5698C21.5392 24.4471 21.5027 24.2965 21.4687 24.1455C21.4466 24.0472 21.4263 23.949 21.4029 23.8509C21.3287 23.5412 21.2495 23.2328 21.1625 22.928C20.9572 22.2206 20.7172 21.5186 20.4488 20.8423C20.1667 20.1276 19.8494 19.4244 19.5062 18.7539C19.3579 18.4622 19.1941 18.164 19.0235 17.8634C18.9757 17.7792 18.9268 17.6952 18.8773 17.6105C18.8251 17.5211 18.7766 17.4328 18.7226 17.3429H20.8041H21.3325C21.6972 17.9218 22.0383 18.5192 22.3472 19.1213C22.3851 19.1953 22.4192 19.2734 22.4564 19.3482ZM21.5541 16.5345H21.5198H21.2083V8.72948H33.4137V11.4147H22.053C21.8298 11.4147 21.6488 11.5957 21.6488 11.8189V14.8293C21.6488 15.0524 21.8298 15.2335 22.053 15.2335H33.4137V16.5345H21.5541Z" fill="#021120"/>
<path d="M5.16592 2.34294C4.10155 2.34294 3.22859 3.21293 3.22859 4.27749C3.22859 5.34205 4.10155 6.21203 5.16592 6.21203C6.23038 6.21203 7.10046 5.34195 7.10046 4.27749C7.10046 3.21302 6.23038 2.34294 5.16592 2.34294ZM5.16592 3.19732C5.76756 3.19732 6.24609 3.67584 6.24609 4.27749C6.24609 4.87913 5.76756 5.35765 5.16592 5.35765C4.56412 5.35765 4.08297 4.87897 4.08297 4.27749C4.08297 3.676 4.56412 3.19732 5.16592 3.19732Z" fill="#021120" stroke="#021120" stroke-width="0.1"/>
<path d="M7.76589 3.90172L7.76581 3.85138L7.75999 3.85207C7.23084 3.91493 7.27131 4.69551 7.80413 4.7033L7.80413 4.70331H7.80486H8.55718C8.70642 4.71535 8.82318 4.66656 8.90217 4.58321C8.98041 4.50065 9.01809 4.38799 9.01809 4.27751C9.01809 4.16704 8.98041 4.05438 8.90217 3.97182C8.82338 3.88869 8.70702 3.83993 8.55833 3.85163L8.55807 3.85162L8.55073 3.85151L8.52514 3.85135L8.435 3.85117L8.16225 3.85123L7.88968 3.85154L7.79987 3.85167L7.77471 3.85171L7.76809 3.85172L7.76639 3.85172L7.76595 3.85172L7.76585 3.85172L7.76582 3.85172L7.76589 3.90172Z" fill="#021120" stroke="#021120" stroke-width="0.1"/>
<path d="M1.7336 3.90172L1.73351 3.85138L1.72775 3.85206C1.19997 3.91424 1.23742 4.69212 1.76873 4.7033L1.76873 4.70331H1.76978H2.5221C2.67134 4.71535 2.7881 4.66656 2.86709 4.58321C2.94533 4.50065 2.98301 4.38799 2.98301 4.27751C2.98301 4.16704 2.94533 4.05438 2.86709 3.97182C2.78831 3.8887 2.67197 3.83994 2.52329 3.85162L2.52316 3.85162L2.51594 3.85151L2.49061 3.85135L2.40099 3.85117L2.12911 3.85123L1.85716 3.85154L1.76752 3.85167L1.7424 3.85171L1.73578 3.85172L1.73409 3.85172L1.73366 3.85172L1.73355 3.85172L1.73352 3.85172L1.7336 3.90172Z" fill="#021120" stroke="#021120" stroke-width="0.1"/>
<path d="M4.85796 6.61459C4.9365 6.53368 5.04386 6.48711 5.15661 6.48505L4.85796 6.61459ZM4.85796 6.61459C4.77947 6.69543 4.73611 6.80401 4.73732 6.91668M4.85796 6.61459L4.73732 6.91668M4.73732 6.91668V7.67077C4.73732 7.78407 4.78232 7.89273 4.86244 7.97284C4.94255 8.05295 5.05121 8.09796 5.1645 8.09796C5.2778 8.09796 5.38646 8.05295 5.46657 7.97284C5.54668 7.89273 5.59169 7.78407 5.59169 7.67077V6.91667V6.9164H5.54169C5.54227 6.86592 5.5327 6.81585 5.51356 6.76914C5.49443 6.72242 5.46611 6.68003 5.43028 6.64446C5.39446 6.6089 5.35186 6.58089 5.30501 6.56209L4.73732 6.91668ZM4.73732 6.91668V6.9164H4.78732L4.73732 6.91697L4.73732 6.91668Z" fill="#021120" stroke="#021120" stroke-width="0.1"/>
<path d="M4.99372 0.485573C5.04515 0.463159 5.10049 0.451097 5.15659 0.450075L4.99372 0.485573ZM4.99372 0.485573C4.94228 0.507992 4.89576 0.540327 4.85682 0.580731C4.81788 0.621135 4.78728 0.668817 4.76677 0.72105C4.74633 0.773133 4.73631 0.828725 4.7373 0.884667M4.99372 0.485573L4.7873 0.884212M5.59167 0.884667C5.59268 0.827399 5.58216 0.770511 5.56074 0.717387C5.53926 0.664114 5.50725 0.615721 5.46663 0.575104C5.42602 0.534487 5.37762 0.502479 5.32435 0.480996C5.27109 0.459518 5.21404 0.449001 5.15662 0.450075L5.54167 1.63859C5.54167 1.73862 5.50193 1.83456 5.4312 1.9053C5.36046 1.97603 5.26452 2.01577 5.16448 2.01577C5.06445 2.01577 4.96851 1.97603 4.89777 1.9053C4.82704 1.83456 4.7873 1.73862 4.7873 1.63859V0.884212M5.59167 0.884667C5.59167 0.884828 5.59167 0.88499 5.59166 0.885151L5.54167 0.884212H5.59167V0.884667ZM5.59167 0.884667V1.63859C5.59167 1.75188 5.54666 1.86054 5.46655 1.94065C5.38644 2.02077 5.27778 2.06577 5.16448 2.06577C5.05119 2.06577 4.94253 2.02077 4.86242 1.94065C4.7823 1.86054 4.7373 1.75188 4.7373 1.63859V0.884667M4.7373 0.884667C4.7373 0.884828 4.7373 0.884989 4.73731 0.88515L4.7873 0.884212M4.7373 0.884667V0.884212H4.7873" fill="#021120" stroke="#021120" stroke-width="0.1"/>
<path d="M3.28824 5.71398L3.28817 5.71398C3.17749 5.71738 3.07246 5.76364 2.99522 5.84298L2.46438 6.37382C2.42284 6.41276 2.3895 6.4596 2.36632 6.51161C2.34302 6.5639 2.33047 6.62033 2.32941 6.67755C2.32835 6.73478 2.3388 6.79164 2.36014 6.84475C2.38148 6.89786 2.41328 6.94614 2.45365 6.98671C2.49402 7.02729 2.54213 7.05934 2.59513 7.08097C2.64812 7.10259 2.70493 7.11333 2.76216 7.11257C2.81939 7.11181 2.87589 7.09955 2.92829 7.07652C2.98046 7.0536 3.02751 7.02047 3.06668 6.97909L3.60036 6.44541C3.60041 6.44536 3.60046 6.44531 3.60051 6.44526C3.66162 6.38508 3.7032 6.30789 3.71983 6.22374C3.73648 6.13952 3.72736 6.05224 3.69366 5.97328C3.65997 5.89432 3.60327 5.82735 3.53095 5.7811C3.45863 5.73484 3.37405 5.71145 3.28824 5.71398Z" fill="#021120" stroke="#021120" stroke-width="0.1"/>
<path d="M7.55556 1.44665L7.55551 1.44665C7.44483 1.45005 7.3398 1.4963 7.26256 1.57565L6.72885 2.10936C6.68746 2.14853 6.65433 2.19559 6.63141 2.24776C6.60838 2.30016 6.59613 2.35666 6.59536 2.41389C6.5946 2.47112 6.60535 2.52792 6.62697 2.58092C6.64859 2.63392 6.68064 2.68203 6.72122 2.72239C6.7618 2.76276 6.81007 2.79456 6.86318 2.8159C6.91629 2.83725 6.97315 2.8477 7.03038 2.84664C7.08761 2.84558 7.14404 2.83302 7.19632 2.80973C7.24833 2.78655 7.29518 2.75321 7.33411 2.71166L7.86488 2.1809C7.9268 2.12112 7.96923 2.04402 7.98658 1.95971C8.00397 1.87524 7.99538 1.78749 7.96194 1.70799C7.92851 1.6285 7.87179 1.56098 7.79926 1.51434C7.72672 1.46769 7.64176 1.44409 7.55556 1.44665Z" fill="#021120" stroke="#021120" stroke-width="0.1"/>
<path d="M2.76086 1.44664L2.7608 1.44664C2.67568 1.44667 2.5925 1.47214 2.52195 1.51977C2.4514 1.5674 2.39669 1.63503 2.36484 1.71397C2.33299 1.79291 2.32546 1.87957 2.34321 1.96283C2.36092 2.04593 2.40302 2.12186 2.46411 2.1809L2.99489 2.71168C3.03383 2.75322 3.08067 2.78657 3.13268 2.80974C3.18496 2.83304 3.2414 2.84559 3.29862 2.84666C3.35585 2.84772 3.41271 2.83727 3.46582 2.81592C3.51893 2.79458 3.5672 2.76278 3.60778 2.72241C3.64836 2.68205 3.68041 2.63393 3.70203 2.58094C3.72365 2.52794 3.7344 2.47114 3.73364 2.41391C3.73288 2.35667 3.72062 2.30018 3.69759 2.24778C3.67467 2.1956 3.64154 2.14855 3.60015 2.10938L3.06643 1.57565C3.02671 1.5349 2.97925 1.5025 2.92684 1.48034C2.87432 1.45814 2.81788 1.44669 2.76086 1.44664Z" fill="#021120" stroke="#021120" stroke-width="0.1"/>
<path d="M6.98427 5.7142L6.98423 5.7142C6.90322 5.72225 6.82619 5.75328 6.76223 5.80364C6.69827 5.854 6.65003 5.92159 6.62319 5.99845C6.59636 6.07531 6.59205 6.15824 6.61077 6.23746C6.62946 6.31657 6.67033 6.3887 6.72859 6.44538L7.2623 6.97909C7.30147 7.02047 7.34852 7.0536 7.4007 7.07653C7.4531 7.09955 7.50959 7.11181 7.56683 7.11257C7.62406 7.11333 7.68086 7.10259 7.73386 7.08097C7.78685 7.05935 7.83496 7.02729 7.87533 6.98672C7.9157 6.94614 7.9475 6.89786 7.96884 6.84475C7.99019 6.79164 8.00064 6.73478 7.99958 6.67756C7.99851 6.62033 7.98596 6.5639 7.96266 6.51162C7.93948 6.45961 7.90614 6.41276 7.8646 6.37382L7.33386 5.84308C7.28917 5.79665 7.23456 5.76093 7.17411 5.73861C7.11349 5.71621 7.04858 5.70787 6.98427 5.7142Z" fill="#021120" stroke="#021120" stroke-width="0.1"/>
</svg>
