<svg width="61" height="66" viewBox="0 0 61 66" fill="none" xmlns="http://www.w3.org/2000/svg">
<path d="M0 0H61V62C61 64.2091 59.2091 66 57 66H4C1.79086 66 0 64.2091 0 62V0Z" fill="#B6DCFA"/>
<path d="M42.5475 15.3397C42.4712 15.2392 42.3522 15.1808 42.2264 15.1808H29.2126C29.089 15.1808 28.9758 15.2392 28.8999 15.3332C28.8977 15.336 28.8938 15.3368 28.8916 15.3397L23.4118 22.5069C23.3576 22.5769 23.3286 22.6632 23.3286 22.7521V31.0345H21.5234V27.172C21.5234 26.9488 21.3424 26.7678 21.1192 26.7678C20.8961 26.7678 20.715 26.9488 20.715 27.172V31.0345H19.0082V27.172C19.0082 26.9488 18.8272 26.7678 18.604 26.7678C18.3809 26.7678 18.1998 26.9488 18.1998 27.172V31.0345H16.493V27.172C16.493 26.9488 16.312 26.7678 16.0888 26.7678C15.8657 26.7678 15.6846 26.9488 15.6846 27.172V31.0345H14.2942C14.071 31.0345 13.89 31.2155 13.89 31.4387C13.89 31.6618 14.071 31.8429 14.2942 31.8429H23.7328H26.4811C27.0149 32.4231 27.5047 33.0328 27.9295 33.6639C27.9491 33.6927 27.966 33.7243 27.9854 33.7534H14.2942C14.071 33.7534 13.89 33.9344 13.89 34.1576C13.89 34.3807 14.071 34.5618 14.2942 34.5618H28.2643C28.3349 34.5618 28.398 34.5388 28.4558 34.5069C28.6773 34.8838 28.8886 35.2695 29.0805 35.668C29.209 35.9309 29.3247 36.2013 29.4376 36.4727H14.2942C14.071 36.4727 13.89 36.6538 13.89 36.8769C13.89 37.1001 14.071 37.2811 14.2942 37.2811H29.743C29.7877 37.4093 29.8395 37.5351 29.8805 37.6643C30.0417 38.1658 30.1677 38.6783 30.2728 39.1916H14.2931C14.07 39.1916 13.8889 39.3727 13.8889 39.5958C13.8889 39.819 14.07 40 14.2931 40H47.7068C47.9299 40 48.111 39.819 48.111 39.5958C48.111 39.3727 47.9299 39.1916 47.7068 39.1916H39.0314C38.911 38.5828 38.7729 37.9888 38.6123 37.4285C38.5981 37.3791 38.5805 37.3305 38.5659 37.2811H47.7057C47.9289 37.2811 48.1099 37.1001 48.1099 36.8769C48.1099 36.6538 47.9289 36.4727 47.7057 36.4727H38.3109C38.1824 36.0912 38.0462 35.7129 37.8992 35.3423C37.7954 35.0794 37.6821 34.8206 37.5692 34.5618H47.7057C47.9289 34.5618 48.1099 34.3807 48.1099 34.1576C48.1099 33.9344 47.9289 33.7534 47.7057 33.7534H37.1966C37.1161 33.5863 37.0394 33.4159 36.9555 33.2523C36.7112 32.7761 36.442 32.3066 36.1629 31.8429H47.7057H47.7068C47.9299 31.8429 48.111 31.6618 48.111 31.4387V29.3293V26.3189V22.7521C48.111 22.6632 48.0821 22.5769 48.0278 22.5069L42.5475 15.3397ZM47.3026 28.9251H36.3461V26.7231H47.3026V28.9251ZM42.0264 15.9892L46.9448 22.4211H34.9485L30.0305 15.9892H42.0264ZM24.137 22.889L29.2126 16.2502L34.2888 22.889V31.0345H31.8852H31.7126V27.4257C31.7126 26.7636 31.451 26.1373 30.9758 25.662C30.501 25.1873 29.8747 24.9257 29.2127 24.9257C27.8343 24.9257 26.7127 26.0473 26.7127 27.4257V31.0345H26.6654H26.6175H24.137L24.137 22.889ZM30.9042 31.0345H27.5211V27.4257C27.5211 26.4931 28.28 25.7341 29.2126 25.7341C29.6589 25.7341 30.0821 25.9115 30.4042 26.2336C30.7268 26.5562 30.9042 26.9794 30.9042 27.4257V31.0345ZM28.5995 33.2113C28.2848 32.7439 27.9385 32.286 27.5659 31.8429H31.3084H31.6579C31.7673 32.0172 31.8712 32.1901 31.9738 32.3627C32.0399 32.474 32.1108 32.5866 32.174 32.697C32.3527 33.0094 32.5212 33.3185 32.6746 33.6213C33.0067 34.2697 33.313 34.9486 33.5862 35.6396C33.8451 36.2927 34.0767 36.9701 34.2746 37.6517C34.3945 38.0718 34.4972 38.5002 34.5916 38.9292C34.6039 38.9856 34.6154 39.042 34.6273 39.0985H31.0868C30.9742 38.5332 30.8273 37.969 30.6505 37.418C30.6223 37.3294 30.5859 37.2433 30.5562 37.1552C30.6255 37.0826 30.6694 36.9852 30.6694 36.8769C30.6694 36.6713 30.5135 36.5082 30.3147 36.4827C30.16 36.0863 29.9934 35.695 29.8079 35.3154C29.4532 34.5791 29.0463 33.8707 28.5995 33.2113ZM36.3453 33.8482C36.2539 33.9223 36.1919 34.0308 36.1919 34.1576C36.1919 34.3807 36.3729 34.5618 36.5961 34.5618H36.6887C36.8498 34.9161 37.0038 35.2756 37.1477 35.6391C37.4071 36.2938 37.6387 36.9717 37.8355 37.6517C37.9676 38.1143 38.0871 38.599 38.1918 39.0985H35.4588C35.4281 38.9471 35.3916 38.7965 35.3576 38.6455C35.3355 38.5472 35.3152 38.449 35.2918 38.3509C35.2176 38.0412 35.1384 37.7328 35.0514 37.428C34.8461 36.7206 34.6062 36.0186 34.3377 35.3423C34.0556 34.6276 33.7383 33.9244 33.3951 33.2539C33.2468 32.9622 33.083 32.664 32.9125 32.3634C32.8646 32.2792 32.8157 32.1952 32.7662 32.1105C32.714 32.0211 32.6656 31.9328 32.6115 31.8429H34.693H35.2214C35.5861 32.4218 35.9272 33.0192 36.2361 33.6213C36.274 33.6953 36.3081 33.7734 36.3453 33.8482ZM35.443 31.0345H35.4088H35.0972V23.2295H47.3026V25.9147H35.9419C35.7188 25.9147 35.5377 26.0957 35.5377 26.3189V29.3293C35.5377 29.5524 35.7188 29.7335 35.9419 29.7335H47.3026V31.0345H35.443Z" fill="#021120"/>
<path d="M19.0548 16.8429C17.9904 16.8429 17.1175 17.7129 17.1175 18.7775C17.1175 19.842 17.9904 20.712 19.0548 20.712C20.1193 20.712 20.9893 19.8419 20.9893 18.7775C20.9893 17.713 20.1193 16.8429 19.0548 16.8429ZM19.0548 17.6973C19.6564 17.6973 20.135 18.1758 20.135 18.7775C20.135 19.3791 19.6564 19.8577 19.0548 19.8577C18.453 19.8577 17.9719 19.379 17.9719 18.7775C17.9719 18.176 18.453 17.6973 19.0548 17.6973Z" fill="#021120" stroke="#021120" stroke-width="0.1"/>
<path d="M21.655 18.4017L21.6549 18.3514L21.6491 18.3521C21.1199 18.4149 21.1604 19.1955 21.6932 19.2033L21.6932 19.2033H21.6939H22.4462C22.5955 19.2154 22.7122 19.1666 22.7912 19.0832C22.8695 19.0007 22.9072 18.888 22.9072 18.7775C22.9072 18.667 22.8695 18.5544 22.7912 18.4718C22.7125 18.3887 22.5961 18.3399 22.4474 18.3516L22.4471 18.3516L22.4398 18.3515L22.4142 18.3513L22.3241 18.3512L22.0513 18.3512L21.7787 18.3515L21.6889 18.3517L21.6638 18.3517L21.6572 18.3517L21.6555 18.3517L21.655 18.3517L21.6549 18.3517L21.6549 18.3517L21.655 18.4017Z" fill="#021120" stroke="#021120" stroke-width="0.1"/>
<path d="M15.6226 18.4017L15.6225 18.3514L15.6168 18.3521C15.089 18.4142 15.1264 19.1921 15.6577 19.2033L15.6577 19.2033H15.6588H16.4111C16.5604 19.2154 16.6771 19.1666 16.7561 19.0832C16.8343 19.0007 16.872 18.888 16.872 18.7775C16.872 18.667 16.8343 18.5544 16.7561 18.4718C16.6773 18.3887 16.561 18.3399 16.4123 18.3516L16.4122 18.3516L16.4049 18.3515L16.3796 18.3513L16.29 18.3512L16.0181 18.3512L15.7462 18.3515L15.6565 18.3517L15.6314 18.3517L15.6248 18.3517L15.6231 18.3517L15.6227 18.3517L15.6226 18.3517L15.6225 18.3517L15.6226 18.4017Z" fill="#021120" stroke="#021120" stroke-width="0.1"/>
<path d="M18.7469 21.1146C18.8255 21.0337 18.9328 20.9871 19.0456 20.985L18.7469 21.1146ZM18.7469 21.1146C18.6684 21.1954 18.6251 21.304 18.6263 21.4167M18.7469 21.1146L18.6263 21.4167M18.6263 21.4167V22.1708C18.6263 22.2841 18.6713 22.3927 18.7514 22.4728C18.8315 22.553 18.9402 22.598 19.0535 22.598C19.1668 22.598 19.2754 22.553 19.3555 22.4728C19.4357 22.3927 19.4807 22.2841 19.4807 22.1708V21.4167V21.4164H19.4307C19.4312 21.3659 19.4217 21.3158 19.4025 21.2691C19.3834 21.2224 19.3551 21.18 19.3193 21.1445C19.2834 21.1089 19.2408 21.0809 19.194 21.0621L18.6263 21.4167ZM18.6263 21.4167V21.4164H18.6763L18.6263 21.417L18.6263 21.4167Z" fill="#021120" stroke="#021120" stroke-width="0.1"/>
<path d="M18.8828 14.9856C18.9342 14.9632 18.9895 14.9511 19.0456 14.9501L18.8828 14.9856ZM18.8828 14.9856C18.8313 15.008 18.7848 15.0403 18.7459 15.0807C18.7069 15.1211 18.6763 15.1688 18.6558 15.2211C18.6354 15.2731 18.6253 15.3287 18.6263 15.3847M18.8828 14.9856L18.6763 15.3842M19.4807 15.3847C19.4817 15.3274 19.4712 15.2705 19.4498 15.2174C19.4283 15.1641 19.3963 15.1157 19.3557 15.0751C19.3151 15.0345 19.2667 15.0025 19.2134 14.981C19.1601 14.9595 19.1031 14.949 19.0457 14.9501L19.4307 16.1386C19.4307 16.2386 19.391 16.3346 19.3202 16.4053C19.2495 16.476 19.1536 16.5158 19.0535 16.5158C18.9535 16.5158 18.8575 16.476 18.7868 16.4053C18.7161 16.3346 18.6763 16.2386 18.6763 16.1386V15.3842M19.4807 15.3847C19.4807 15.3848 19.4807 15.385 19.4807 15.3852L19.4307 15.3842H19.4807V15.3847ZM19.4807 15.3847V16.1386C19.4807 16.2519 19.4357 16.3605 19.3556 16.4407C19.2755 16.5208 19.1668 16.5658 19.0535 16.5658C18.9402 16.5658 18.8316 16.5208 18.7515 16.4407C18.6713 16.3605 18.6263 16.2519 18.6263 16.1386V15.3847M18.6263 15.3847C18.6263 15.3848 18.6263 15.385 18.6263 15.3852L18.6763 15.3842M18.6263 15.3847V15.3842H18.6763" fill="#021120" stroke="#021120" stroke-width="0.1"/>
<path d="M17.1772 20.214L17.1771 20.214C17.0665 20.2174 16.9614 20.2636 16.8842 20.343L16.3534 20.8738C16.3118 20.9128 16.2785 20.9596 16.2553 21.0116C16.232 21.0639 16.2194 21.1203 16.2184 21.1776C16.2173 21.2348 16.2278 21.2916 16.2491 21.3447C16.2705 21.3979 16.3023 21.4461 16.3426 21.4867C16.383 21.5273 16.4311 21.5593 16.4841 21.581C16.5371 21.6026 16.5939 21.6133 16.6511 21.6126C16.7084 21.6118 16.7649 21.5995 16.8173 21.5765C16.8694 21.5536 16.9165 21.5205 16.9557 21.4791L17.4893 20.9454C17.4894 20.9454 17.4894 20.9453 17.4895 20.9453C17.5506 20.8851 17.5922 20.8079 17.6088 20.7237C17.6255 20.6395 17.6163 20.5522 17.5826 20.4733C17.5489 20.3943 17.4922 20.3274 17.4199 20.2811C17.3476 20.2348 17.263 20.2115 17.1772 20.214Z" fill="#021120" stroke="#021120" stroke-width="0.1"/>
<path d="M21.4447 15.9466L21.4446 15.9466C21.3339 15.9501 21.2289 15.9963 21.1517 16.0756L20.6179 16.6094C20.5766 16.6485 20.5434 16.6956 20.5205 16.7478C20.4975 16.8002 20.4852 16.8567 20.4845 16.9139C20.4837 16.9711 20.4944 17.0279 20.5161 17.0809C20.5377 17.1339 20.5697 17.182 20.6103 17.2224C20.6509 17.2628 20.6992 17.2946 20.7523 17.3159C20.8054 17.3372 20.8622 17.3477 20.9195 17.3466C20.9767 17.3456 21.0331 17.333 21.0854 17.3097C21.1374 17.2865 21.1843 17.2532 21.2232 17.2117L21.754 16.6809C21.8159 16.6211 21.8583 16.544 21.8757 16.4597C21.8931 16.3752 21.8845 16.2875 21.851 16.208C21.8176 16.1285 21.7609 16.061 21.6884 16.0143C21.6158 15.9677 21.5309 15.9441 21.4447 15.9466Z" fill="#021120" stroke="#021120" stroke-width="0.1"/>
<path d="M16.6497 15.9466L16.6497 15.9466C16.5646 15.9467 16.4814 15.9721 16.4108 16.0198C16.3403 16.0674 16.2856 16.135 16.2537 16.214C16.2219 16.2929 16.2143 16.3796 16.2321 16.4628C16.2498 16.5459 16.2919 16.6219 16.353 16.6809L16.8838 17.2117C16.9227 17.2532 16.9696 17.2866 17.0216 17.3097C17.0739 17.333 17.1303 17.3456 17.1875 17.3467C17.2447 17.3477 17.3016 17.3373 17.3547 17.3159C17.4078 17.2946 17.4561 17.2628 17.4967 17.2224C17.5372 17.182 17.5693 17.1339 17.5909 17.0809C17.6125 17.0279 17.6233 16.9711 17.6225 16.9139C17.6218 16.8567 17.6095 16.8002 17.5865 16.7478C17.5636 16.6956 17.5304 16.6485 17.489 16.6094L16.9553 16.0757C16.9156 16.0349 16.8681 16.0025 16.8157 15.9803C16.7632 15.9581 16.7068 15.9467 16.6497 15.9466Z" fill="#021120" stroke="#021120" stroke-width="0.1"/>
<path d="M20.8733 20.2142L20.8732 20.2142C20.7922 20.2223 20.7152 20.2533 20.6512 20.3036C20.5873 20.354 20.539 20.4216 20.5122 20.4985C20.4854 20.5753 20.4811 20.6582 20.4998 20.7375C20.5185 20.8166 20.5593 20.8887 20.6176 20.9454L21.1513 21.4791C21.1905 21.5205 21.2375 21.5536 21.2897 21.5765C21.3421 21.5996 21.3986 21.6118 21.4558 21.6126C21.5131 21.6133 21.5699 21.6026 21.6229 21.581C21.6759 21.5593 21.724 21.5273 21.7643 21.4867C21.8047 21.4461 21.8365 21.3979 21.8578 21.3448C21.8792 21.2916 21.8896 21.2348 21.8886 21.1776C21.8875 21.1203 21.875 21.0639 21.8517 21.0116C21.8285 20.9596 21.7952 20.9128 21.7536 20.8738L21.2229 20.3431C21.1782 20.2967 21.1236 20.2609 21.0631 20.2386C21.0025 20.2162 20.9376 20.2079 20.8733 20.2142Z" fill="#021120" stroke="#021120" stroke-width="0.1"/>
<path d="M8.2815 48.208C8.2815 47.664 8.40417 47.176 8.6495 46.744C8.89483 46.3067 9.22817 45.9653 9.6495 45.72C10.0762 45.4747 10.5482 45.352 11.0655 45.352C11.6735 45.352 12.2042 45.4987 12.6575 45.792C13.1108 46.0853 13.4415 46.5013 13.6495 47.04H12.7775C12.6228 46.704 12.3988 46.4453 12.1055 46.264C11.8175 46.0827 11.4708 45.992 11.0655 45.992C10.6762 45.992 10.3268 46.0827 10.0175 46.264C9.70817 46.4453 9.4655 46.704 9.2895 47.04C9.1135 47.3707 9.0255 47.76 9.0255 48.208C9.0255 48.6507 9.1135 49.04 9.2895 49.376C9.4655 49.7067 9.70817 49.9627 10.0175 50.144C10.3268 50.3253 10.6762 50.416 11.0655 50.416C11.4708 50.416 11.8175 50.328 12.1055 50.152C12.3988 49.9707 12.6228 49.712 12.7775 49.376H13.6495C13.4415 49.9093 13.1108 50.3227 12.6575 50.616C12.2042 50.904 11.6735 51.048 11.0655 51.048C10.5482 51.048 10.0762 50.928 9.6495 50.688C9.22817 50.4427 8.89483 50.104 8.6495 49.672C8.40417 49.24 8.2815 48.752 8.2815 48.208ZM14.4612 48.792C14.4612 48.344 14.5519 47.952 14.7332 47.616C14.9145 47.2747 15.1625 47.0107 15.4772 46.824C15.7972 46.6373 16.1519 46.544 16.5412 46.544C16.9252 46.544 17.2585 46.6267 17.5412 46.792C17.8239 46.9573 18.0345 47.1653 18.1732 47.416V46.616H18.9092V51H18.1732V50.184C18.0292 50.44 17.8132 50.6533 17.5252 50.824C17.2425 50.9893 16.9119 51.072 16.5332 51.072C16.1439 51.072 15.7919 50.976 15.4772 50.784C15.1625 50.592 14.9145 50.3227 14.7332 49.976C14.5519 49.6293 14.4612 49.2347 14.4612 48.792ZM18.1732 48.8C18.1732 48.4693 18.1065 48.1813 17.9732 47.936C17.8399 47.6907 17.6585 47.504 17.4292 47.376C17.2052 47.2427 16.9572 47.176 16.6852 47.176C16.4132 47.176 16.1652 47.24 15.9412 47.368C15.7172 47.496 15.5385 47.6827 15.4052 47.928C15.2719 48.1733 15.2052 48.4613 15.2052 48.792C15.2052 49.128 15.2719 49.4213 15.4052 49.672C15.5385 49.9173 15.7172 50.1067 15.9412 50.24C16.1652 50.368 16.4132 50.432 16.6852 50.432C16.9572 50.432 17.2052 50.368 17.4292 50.24C17.6585 50.1067 17.8399 49.9173 17.9732 49.672C18.1065 49.4213 18.1732 49.1307 18.1732 48.8ZM25.4114 46.536C25.7528 46.536 26.0568 46.608 26.3234 46.752C26.5901 46.8907 26.8008 47.1013 26.9554 47.384C27.1101 47.6667 27.1874 48.0107 27.1874 48.416V51H26.4674V48.52C26.4674 48.0827 26.3581 47.7493 26.1394 47.52C25.9261 47.2853 25.6354 47.168 25.2674 47.168C24.8888 47.168 24.5874 47.2907 24.3634 47.536C24.1394 47.776 24.0274 48.1253 24.0274 48.584V51H23.3074V48.52C23.3074 48.0827 23.1981 47.7493 22.9794 47.52C22.7661 47.2853 22.4754 47.168 22.1074 47.168C21.7288 47.168 21.4274 47.2907 21.2034 47.536C20.9794 47.776 20.8674 48.1253 20.8674 48.584V51H20.1394V46.616H20.8674V47.248C21.0114 47.0187 21.2034 46.8427 21.4434 46.72C21.6888 46.5973 21.9581 46.536 22.2514 46.536C22.6194 46.536 22.9448 46.6187 23.2274 46.784C23.5101 46.9493 23.7208 47.192 23.8594 47.512C23.9821 47.2027 24.1848 46.9627 24.4674 46.792C24.7501 46.6213 25.0648 46.536 25.4114 46.536ZM29.1096 47.424C29.2536 47.1733 29.467 46.9653 29.7496 46.8C30.0376 46.6293 30.371 46.544 30.7496 46.544C31.139 46.544 31.491 46.6373 31.8056 46.824C32.1256 47.0107 32.3763 47.2747 32.5576 47.616C32.739 47.952 32.8296 48.344 32.8296 48.792C32.8296 49.2347 32.739 49.6293 32.5576 49.976C32.3763 50.3227 32.1256 50.592 31.8056 50.784C31.491 50.976 31.139 51.072 30.7496 51.072C30.3763 51.072 30.0456 50.9893 29.7576 50.824C29.475 50.6533 29.259 50.4427 29.1096 50.192V53.08H28.3816V46.616H29.1096V47.424ZM32.0856 48.792C32.0856 48.4613 32.019 48.1733 31.8856 47.928C31.7523 47.6827 31.571 47.496 31.3416 47.368C31.1176 47.24 30.8696 47.176 30.5976 47.176C30.331 47.176 30.083 47.2427 29.8536 47.376C29.6296 47.504 29.4483 47.6933 29.3096 47.944C29.1763 48.1893 29.1096 48.4747 29.1096 48.8C29.1096 49.1307 29.1763 49.4213 29.3096 49.672C29.4483 49.9173 29.6296 50.1067 29.8536 50.24C30.083 50.368 30.331 50.432 30.5976 50.432C30.8696 50.432 31.1176 50.368 31.3416 50.24C31.571 50.1067 31.7523 49.9173 31.8856 49.672C32.019 49.4213 32.0856 49.128 32.0856 48.792ZM33.5159 48.792C33.5159 48.344 33.6065 47.952 33.7879 47.616C33.9692 47.2747 34.2172 47.0107 34.5319 46.824C34.8519 46.6373 35.2065 46.544 35.5959 46.544C35.9799 46.544 36.3132 46.6267 36.5959 46.792C36.8785 46.9573 37.0892 47.1653 37.2279 47.416V46.616H37.9639V51H37.2279V50.184C37.0839 50.44 36.8679 50.6533 36.5799 50.824C36.2972 50.9893 35.9665 51.072 35.5879 51.072C35.1985 51.072 34.8465 50.976 34.5319 50.784C34.2172 50.592 33.9692 50.3227 33.7879 49.976C33.6065 49.6293 33.5159 49.2347 33.5159 48.792ZM37.2279 48.8C37.2279 48.4693 37.1612 48.1813 37.0279 47.936C36.8945 47.6907 36.7132 47.504 36.4839 47.376C36.2599 47.2427 36.0119 47.176 35.7399 47.176C35.4679 47.176 35.2199 47.24 34.9959 47.368C34.7719 47.496 34.5932 47.6827 34.4599 47.928C34.3265 48.1733 34.2599 48.4613 34.2599 48.792C34.2599 49.128 34.3265 49.4213 34.4599 49.672C34.5932 49.9173 34.7719 50.1067 34.9959 50.24C35.2199 50.368 35.4679 50.432 35.7399 50.432C36.0119 50.432 36.2599 50.368 36.4839 50.24C36.7132 50.1067 36.8945 49.9173 37.0279 49.672C37.1612 49.4213 37.2279 49.1307 37.2279 48.8ZM41.0021 46.544C41.3808 46.544 41.7115 46.6267 41.9941 46.792C42.2821 46.9573 42.4955 47.1653 42.6341 47.416V46.616H43.3701V51.096C43.3701 51.496 43.2848 51.8507 43.1141 52.16C42.9435 52.4747 42.6981 52.72 42.3781 52.896C42.0635 53.072 41.6955 53.16 41.2741 53.16C40.6981 53.16 40.2181 53.024 39.8341 52.752C39.4501 52.48 39.2235 52.1093 39.1541 51.64H39.8741C39.9541 51.9067 40.1195 52.12 40.3701 52.28C40.6208 52.4453 40.9221 52.528 41.2741 52.528C41.6741 52.528 41.9995 52.4027 42.2501 52.152C42.5061 51.9013 42.6341 51.5493 42.6341 51.096V50.176C42.4901 50.432 42.2768 50.6453 41.9941 50.816C41.7115 50.9867 41.3808 51.072 41.0021 51.072C40.6128 51.072 40.2581 50.976 39.9381 50.784C39.6235 50.592 39.3755 50.3227 39.1941 49.976C39.0128 49.6293 38.9221 49.2347 38.9221 48.792C38.9221 48.344 39.0128 47.952 39.1941 47.616C39.3755 47.2747 39.6235 47.0107 39.9381 46.824C40.2581 46.6373 40.6128 46.544 41.0021 46.544ZM42.6341 48.8C42.6341 48.4693 42.5675 48.1813 42.4341 47.936C42.3008 47.6907 42.1195 47.504 41.8901 47.376C41.6661 47.2427 41.4181 47.176 41.1461 47.176C40.8741 47.176 40.6261 47.24 40.4021 47.368C40.1781 47.496 39.9995 47.6827 39.8661 47.928C39.7328 48.1733 39.6661 48.4613 39.6661 48.792C39.6661 49.128 39.7328 49.4213 39.8661 49.672C39.9995 49.9173 40.1781 50.1067 40.4021 50.24C40.6261 50.368 40.8741 50.432 41.1461 50.432C41.4181 50.432 41.6661 50.368 41.8901 50.24C42.1195 50.1067 42.3008 49.9173 42.4341 49.672C42.5675 49.4213 42.6341 49.1307 42.6341 48.8ZM46.7364 46.536C47.2697 46.536 47.7017 46.6987 48.0324 47.024C48.363 47.344 48.5284 47.808 48.5284 48.416V51H47.8084V48.52C47.8084 48.0827 47.699 47.7493 47.4804 47.52C47.2617 47.2853 46.963 47.168 46.5844 47.168C46.2004 47.168 45.8937 47.288 45.6644 47.528C45.4404 47.768 45.3284 48.1173 45.3284 48.576V51H44.6004V46.616H45.3284V47.24C45.4724 47.016 45.667 46.8427 45.9124 46.72C46.163 46.5973 46.4377 46.536 46.7364 46.536ZM53.7176 48.64C53.7176 48.7787 53.7096 48.9253 53.6936 49.08H50.1896C50.2162 49.512 50.3629 49.8507 50.6296 50.096C50.9016 50.336 51.2296 50.456 51.6136 50.456C51.9282 50.456 52.1896 50.384 52.3976 50.24C52.6109 50.0907 52.7602 49.8933 52.8456 49.648H53.6296C53.5122 50.0693 53.2776 50.4133 52.9256 50.68C52.5736 50.9413 52.1362 51.072 51.6136 51.072C51.1976 51.072 50.8242 50.9787 50.4936 50.792C50.1682 50.6053 49.9122 50.3413 49.7256 50C49.5389 49.6533 49.4456 49.2533 49.4456 48.8C49.4456 48.3467 49.5362 47.9493 49.7176 47.608C49.8989 47.2667 50.1522 47.0053 50.4776 46.824C50.8082 46.6373 51.1869 46.544 51.6136 46.544C52.0296 46.544 52.3976 46.6347 52.7176 46.816C53.0376 46.9973 53.2829 47.248 53.4536 47.568C53.6296 47.8827 53.7176 48.24 53.7176 48.64ZM52.9656 48.488C52.9656 48.2107 52.9042 47.9733 52.7816 47.776C52.6589 47.5733 52.4909 47.4213 52.2776 47.32C52.0696 47.2133 51.8376 47.16 51.5816 47.16C51.2136 47.16 50.8989 47.2773 50.6376 47.512C50.3816 47.7467 50.2349 48.072 50.1976 48.488H52.9656Z" fill="#021120"/>
</svg>
