<svg width="77" height="128" viewBox="0 0 77 128" fill="none" xmlns="http://www.w3.org/2000/svg">
<rect width="77" height="128" rx="10" fill="#F5EFE7"/>
<rect x="0.25" y="0.25" width="76.5" height="127.5" rx="9.75" stroke="#2D4941" stroke-width="0.5"/>
<g clip-path="url(#clip0_58_3518)">
<path d="M48.8727 25.6081L48.8626 25.6214L48.8571 25.6288C48.7049 31.6766 48.2066 38.8447 46.956 45.79C45.7044 52.7407 43.6986 59.4719 40.5294 64.634L40.5293 64.6341C39.4801 66.3376 38.4439 67.6473 37.4884 68.6558C37.6955 68.5706 37.9087 68.5008 38.1358 68.4526L38.1462 68.5015L38.1358 68.4525C38.2866 68.4206 38.3926 68.5221 38.4231 68.6318C38.4385 68.6869 38.4366 68.7485 38.4099 68.8019C38.3824 68.8567 38.331 68.8979 38.2577 68.9135L38.2573 68.9136C37.5199 69.0635 36.8886 69.467 36.2959 69.9277C36.6401 69.8671 36.9938 69.8599 37.3589 69.9456C37.3589 69.9456 37.3589 69.9457 37.3589 69.9457L37.3475 69.9943C37.5851 70.0498 37.484 70.4129 37.2464 70.3575L48.8727 25.6081ZM48.8727 25.6081V25.5914M48.8727 25.6081V25.5914M48.8727 25.5914C48.8727 24.952 48.6683 24.109 48.3109 23.1796C47.9531 22.2493 47.4404 21.2286 46.8203 20.2327C45.5812 18.2425 43.9083 16.3434 42.1776 15.4648C40.7713 14.7481 39.4938 14.7799 38.39 15.5711C37.6108 15.8799 36.2557 17.0257 34.6108 20.9725C32.9607 24.9317 31.0149 31.7194 29.0684 43.3362L29.0683 43.3373M48.8727 25.5914L29.0683 43.3373M29.0683 43.3373C26.9934 57.7012 28.8042 64.1944 30.2089 66.9079C29.733 66.5073 29.2107 66.1557 28.6905 65.8171C28.6282 65.7752 28.5626 65.767 28.5039 65.7856C28.4468 65.8037 28.4011 65.8455 28.372 65.8952C28.3141 65.9939 28.3145 66.1415 28.4428 66.228L28.4433 66.2283L29.0683 43.3373ZM30.8446 68.19C30.7897 68.1425 30.7336 68.0963 30.6762 68.0517L30.8446 68.19ZM30.8446 68.19C30.8873 68.249 30.9284 68.309 30.9679 68.3703L30.8446 68.19ZM31.3287 94.8797L31.3286 94.8797C31.0988 94.7197 30.9382 94.4621 30.8408 94.1099C30.7434 93.7581 30.7081 93.3085 30.7309 92.7586L30.7809 92.7607L31.3287 94.8797ZM31.3287 94.8797C31.5206 95.0127 31.7282 95.0601 31.9284 95.0601C32.2689 95.0601 32.5976 94.9272 32.8093 94.8416L32.8267 94.8345L32.8271 94.8354M31.3287 94.8797L32.8271 94.8354M32.8271 94.8354L32.835 94.8303M32.8271 94.8354L32.835 94.8303M32.835 94.8303L32.9058 94.7849L32.9068 94.7864M32.835 94.8303L32.9068 94.7864M32.9068 94.7864L32.9158 94.7764M32.9068 94.7864L32.9158 94.7764M32.9158 94.7764C32.953 94.7353 32.9815 94.6742 33.0046 94.595C33.028 94.5149 33.0472 94.4118 33.0631 94.2826C33.0948 94.0242 33.1136 93.6556 33.1228 93.1468C33.1411 92.1289 33.1209 90.543 33.0855 88.1401C33.0249 84.0923 32.9442 78.4619 33.0646 71.8105C33.2147 71.7584 33.4582 71.6697 33.7749 71.517H33.7749H33.775H33.7751H33.7752H33.7752H33.7753H33.7754H33.7755H33.7755H33.7756H33.7757H33.7757H33.7758H33.7759H33.776H33.776H33.7761H33.7762H33.7763H33.7763H33.7764H33.7765H33.7766H33.7766H33.7767H33.7768H33.7768H33.7769H33.777H33.7771H33.7771H33.7772H33.7773H33.7774H33.7774H33.7775H33.7776H33.7777H33.7777H33.7778H33.7779H33.7779H33.778H33.7781H33.7782H33.7782H33.7783H33.7784H33.7785H33.7785H33.7786H33.7787H33.7788H33.7788H33.7789H33.779H33.7791H33.7791H33.7792H33.7793H33.7793H33.7794H33.7795H33.7796H33.7796H33.7797H33.7798H33.7799H33.7799H33.78H33.7801H33.7802H33.7802H33.7803H33.7804H33.7805H33.7805H33.7806H33.7807H33.7808H33.7808H33.7809H33.781H33.7811H33.7811H33.7812H33.7813H33.7813H33.7814H33.7815H33.7816H33.7816H33.7817H33.7818H33.7819H33.7819H33.782H33.7821H33.7822H33.7822H33.7823H33.7824H33.7825H33.7825H33.7826H33.7827H33.7828H33.7828H33.7829H33.783H33.783H33.7831H33.7832H33.7833H33.7833H33.7834H33.7835H33.7836H33.7836H33.7837H33.7838H33.7839H33.7839H33.784H33.7841H33.7842H33.7842H33.7843H33.7844H33.7844H33.7845H33.7846H33.7847H33.7847H33.7848H33.7849H33.785H33.785H33.7851H33.7852H33.7853H33.7853H33.7854H33.7855H33.7856H33.7856H33.7857H33.7858H33.7858H33.7859H33.786H33.7861H33.7861H33.7862H33.7863H33.7864H33.7864H33.7865H33.7866H33.7866H33.7867H33.7868H33.7869H33.7869H33.787H33.7871H33.7872H33.7872H33.7873H33.7874H33.7874H33.7875H33.7876H33.7877H33.7877H33.7878H33.7879H33.788H33.788H33.7881H33.7882H33.7882H33.7883H33.7884H33.7885H33.7885H33.7886H33.7887H33.7887H33.7888H33.7889H33.789H33.789H33.7891H33.7892H33.7892H33.7893H33.7894H33.7895H33.7895H33.7896H33.7897H33.7897H33.7898H33.7899H33.79H33.79H33.7901H33.7902H33.7902H33.7903H33.7904H33.7904H33.7905H33.7906H33.7907H33.7907H33.7908H33.7909H33.7909H33.791H33.7911H33.7911H33.7912H33.7913H33.7914H33.7914H33.7915H33.7916H33.7916H33.7917H33.7918H33.7918H33.7919H33.792H33.792H33.7921H33.7922H33.7923H33.7923H33.7924H33.7925H33.7925H33.7926H33.7927H33.7927H33.7928H33.7929H33.7929H33.793H33.7931H33.7931H33.7932H33.7933H33.7933H33.7934H33.7935H33.7935H33.7936H33.7937H33.7937H33.7938H33.7939H33.7939H33.794H33.7941H33.7941H33.7942H33.7943H33.7943H33.7944H33.7945H33.7945H33.7946H33.7947H33.7947H33.7948H33.7949H33.7949H33.795H33.7951H33.7951H33.7952H33.7953H33.7953H33.7954H33.7955H33.7955H33.7956H33.7957H33.7957H33.7958H33.7958H33.7959H33.796H33.796H33.7961H33.7962H33.7962H33.7963H33.7964H33.7964H33.7965H33.7965H33.7966H33.7967H33.7967H33.7968H33.7969H33.7969H33.797H33.7971H33.7971H33.7972H33.7972H33.7973H33.7974H33.7974H33.7975H33.7975H33.7976H33.7977H33.7977H33.7978H33.7979H33.7979H33.798H33.798H33.7981H33.7982H33.7982H33.7983H33.7983H33.7984H33.7985H33.7985H33.7986H33.7986H33.7987H33.7988H33.7988H33.8082M32.9158 94.7764L33.8082 71.517M33.8082 71.517L33.817 71.5136M33.8082 71.517L33.817 71.5136M33.817 71.5136C34.5644 71.2223 35.445 71.3412 36.0673 71.8487L36.0674 71.8488M33.817 71.5136L36.0674 71.8488M36.0674 71.8488C36.1625 71.9259 36.3035 71.9438 36.4021 71.8454M36.0674 71.8488L36.4021 71.8454M31.4051 67.8693C32.8097 41.0909 36.2262 25.9203 39.1606 17.5456L39.1772 17.4984L39.2244 17.5149L39.5833 17.641L39.6303 17.6575L39.614 17.7046C35.4515 29.68 34.695 41.2989 33.9628 52.5429L33.9599 52.5874L31.4051 67.8693ZM31.4051 67.8693C30.2844 66.4424 27.0479 60.6583 29.5362 43.4026C31.5327 31.5045 33.5223 24.7546 35.1516 20.9281C36.7819 17.0991 38.0475 16.2069 38.5883 16.0051L38.5885 16.0056L38.5951 16.002L38.6406 15.9768L38.6408 15.9771L38.6457 15.9735C39.5929 15.2858 40.7045 15.2529 41.9604 15.8919L41.9605 15.8919C43.5837 16.7154 45.1929 18.5496 46.3974 20.4785C46.9991 21.4421 47.4986 22.4272 47.8475 23.3183C48.1967 24.2101 48.3934 25.0036 48.3935 25.5857C47.8477 47.3626 43.6177 58.6656 40.1661 64.3145C37.0671 69.3841 34.0335 70.9138 33.0869 71.2877C33.1785 66.5923 33.3705 61.4088 33.7425 55.9062C33.8184 54.8066 33.8892 53.6969 33.9599 52.5874L31.4051 67.8693ZM36.4021 71.8454C36.4451 71.8025 36.4695 71.7395 36.4718 71.6782M36.4021 71.8454L36.4718 71.6782M36.4718 71.6782C36.4741 71.6165 36.4541 71.5491 36.3984 71.5039L36.4718 71.6782ZM36.3983 71.5038C36.0141 71.1906 35.5493 70.9926 35.066 70.9168L36.3983 71.5038ZM32.5861 94.4154C32.4497 94.4695 32.2779 94.5328 32.1052 94.5597C31.925 94.5879 31.7524 94.5751 31.6187 94.4801L31.6182 94.4798C31.4763 94.3816 31.3667 94.1904 31.2984 93.901C31.2304 93.6128 31.205 93.2345 31.2252 92.773L31.2252 92.7729C31.2353 92.5296 31.2404 91.8878 31.2454 90.9201C31.3783 69.3706 32.6386 53.2907 34.3357 41.3399C33.9786 45.037 33.7413 48.6964 33.5067 52.315L33.4911 52.5557L33.4911 52.5558C33.4523 53.1667 33.412 53.7743 33.3719 54.3798C33.3388 54.8792 33.3057 55.3771 33.2737 55.8743C32.3557 69.4114 32.5247 81.0908 32.6259 88.0869L32.6266 88.1365L32.6766 88.1358L32.6266 88.1366C32.6519 89.791 32.6733 91.2745 32.6714 92.3924C32.6705 92.9514 32.6637 93.4184 32.6487 93.7693C32.6411 93.9448 32.6316 94.0907 32.6197 94.2042C32.6097 94.3005 32.5982 94.3706 32.5861 94.4154Z" fill="#2D4941" stroke="#021120" stroke-width="0.1"/>
</g>
<path d="M22.4797 105L20.6537 101.865H19.4437V105H18.4427V97.333H20.9177C21.497 97.333 21.9847 97.432 22.3807 97.63C22.784 97.828 23.0847 98.0957 23.2827 98.433C23.4807 98.7703 23.5797 99.1553 23.5797 99.588C23.5797 100.116 23.4257 100.582 23.1177 100.985C22.817 101.388 22.3624 101.656 21.7537 101.788L23.6787 105H22.4797ZM19.4437 101.062H20.9177C21.4604 101.062 21.8674 100.93 22.1387 100.666C22.41 100.395 22.5457 100.035 22.5457 99.588C22.5457 99.1333 22.41 98.7813 22.1387 98.532C21.8747 98.2827 21.4677 98.158 20.9177 98.158H19.4437V101.062ZM30.6351 101.755C30.6351 101.946 30.6241 102.147 30.6021 102.36H25.7841C25.8208 102.954 26.0224 103.42 26.3891 103.757C26.7631 104.087 27.2141 104.252 27.7421 104.252C28.1748 104.252 28.5341 104.153 28.8201 103.955C29.1134 103.75 29.3188 103.478 29.4361 103.141H30.5141C30.3528 103.72 30.0301 104.193 29.5461 104.56C29.0621 104.919 28.4608 105.099 27.7421 105.099C27.1701 105.099 26.6568 104.971 26.2021 104.714C25.7548 104.457 25.4028 104.094 25.1461 103.625C24.8894 103.148 24.7611 102.598 24.7611 101.975C24.7611 101.352 24.8858 100.805 25.1351 100.336C25.3844 99.8667 25.7328 99.5073 26.1801 99.258C26.6348 99.0013 27.1554 98.873 27.7421 98.873C28.3141 98.873 28.8201 98.9977 29.2601 99.247C29.7001 99.4963 30.0374 99.841 30.2721 100.281C30.5141 100.714 30.6351 101.205 30.6351 101.755ZM29.6011 101.546C29.6011 101.165 29.5168 100.838 29.3481 100.567C29.1794 100.288 28.9484 100.079 28.6551 99.94C28.3691 99.7933 28.0501 99.72 27.6981 99.72C27.1921 99.72 26.7594 99.8813 26.4001 100.204C26.0481 100.527 25.8464 100.974 25.7951 101.546H29.6011ZM28.7761 97.267L26.4331 98.521V97.773L28.7761 96.398V97.267ZM39.2054 98.862C39.6747 98.862 40.0927 98.961 40.4594 99.159C40.826 99.3497 41.1157 99.6393 41.3284 100.028C41.541 100.417 41.6474 100.89 41.6474 101.447V105H40.6574V101.59C40.6574 100.989 40.507 100.53 40.2064 100.215C39.913 99.8923 39.5134 99.731 39.0074 99.731C38.4867 99.731 38.0724 99.8997 37.7644 100.237C37.4564 100.567 37.3024 101.047 37.3024 101.678V105H36.3124V101.59C36.3124 100.989 36.162 100.53 35.8614 100.215C35.568 99.8923 35.1684 99.731 34.6624 99.731C34.1417 99.731 33.7274 99.8997 33.4194 100.237C33.1114 100.567 32.9574 101.047 32.9574 101.678V105H31.9564V98.972H32.9574V99.841C33.1554 99.5257 33.4194 99.2837 33.7494 99.115C34.0867 98.9463 34.457 98.862 34.8604 98.862C35.3664 98.862 35.8137 98.9757 36.2024 99.203C36.591 99.4303 36.8807 99.764 37.0714 100.204C37.24 99.7787 37.5187 99.4487 37.9074 99.214C38.296 98.9793 38.7287 98.862 39.2054 98.862ZM43.8064 97.993C43.6157 97.993 43.4544 97.927 43.3224 97.795C43.1904 97.663 43.1244 97.5017 43.1244 97.311C43.1244 97.1203 43.1904 96.959 43.3224 96.827C43.4544 96.695 43.6157 96.629 43.8064 96.629C43.9897 96.629 44.1437 96.695 44.2684 96.827C44.4004 96.959 44.4664 97.1203 44.4664 97.311C44.4664 97.5017 44.4004 97.663 44.2684 97.795C44.1437 97.927 43.9897 97.993 43.8064 97.993ZM44.2904 98.972V105H43.2894V98.972H44.2904ZM48.4824 98.873C49.0031 98.873 49.4577 98.9867 49.8464 99.214C50.2424 99.4413 50.5357 99.7273 50.7264 100.072V98.972H51.7384V105.132C51.7384 105.682 51.6211 106.17 51.3864 106.595C51.1517 107.028 50.8144 107.365 50.3744 107.607C49.9417 107.849 49.4357 107.97 48.8564 107.97C48.0644 107.97 47.4044 107.783 46.8764 107.409C46.3484 107.035 46.0367 106.525 45.9414 105.88H46.9314C47.0414 106.247 47.2687 106.54 47.6134 106.76C47.9581 106.987 48.3724 107.101 48.8564 107.101C49.4064 107.101 49.8537 106.929 50.1984 106.584C50.5504 106.239 50.7264 105.755 50.7264 105.132V103.867C50.5284 104.219 50.2351 104.512 49.8464 104.747C49.4577 104.982 49.0031 105.099 48.4824 105.099C47.9471 105.099 47.4594 104.967 47.0194 104.703C46.5867 104.439 46.2457 104.069 45.9964 103.592C45.7471 103.115 45.6224 102.573 45.6224 101.964C45.6224 101.348 45.7471 100.809 45.9964 100.347C46.2457 99.8777 46.5867 99.5147 47.0194 99.258C47.4594 99.0013 47.9471 98.873 48.4824 98.873ZM50.7264 101.975C50.7264 101.52 50.6347 101.124 50.4514 100.787C50.2681 100.45 50.0187 100.193 49.7034 100.017C49.3954 99.8337 49.0544 99.742 48.6804 99.742C48.3064 99.742 47.9654 99.83 47.6574 100.006C47.3494 100.182 47.1037 100.439 46.9204 100.776C46.7371 101.113 46.6454 101.509 46.6454 101.964C46.6454 102.426 46.7371 102.829 46.9204 103.174C47.1037 103.511 47.3494 103.772 47.6574 103.955C47.9654 104.131 48.3064 104.219 48.6804 104.219C49.0544 104.219 49.3954 104.131 49.7034 103.955C50.0187 103.772 50.2681 103.511 50.4514 103.174C50.6347 102.829 50.7264 102.43 50.7264 101.975ZM58.93 101.755C58.93 101.946 58.919 102.147 58.897 102.36H54.079C54.1157 102.954 54.3173 103.42 54.684 103.757C55.058 104.087 55.509 104.252 56.037 104.252C56.4697 104.252 56.829 104.153 57.115 103.955C57.4083 103.75 57.6137 103.478 57.731 103.141H58.809C58.6477 103.72 58.325 104.193 57.841 104.56C57.357 104.919 56.7557 105.099 56.037 105.099C55.465 105.099 54.9517 104.971 54.497 104.714C54.0497 104.457 53.6977 104.094 53.441 103.625C53.1843 103.148 53.056 102.598 53.056 101.975C53.056 101.352 53.1807 100.805 53.43 100.336C53.6793 99.8667 54.0277 99.5073 54.475 99.258C54.9297 99.0013 55.4503 98.873 56.037 98.873C56.609 98.873 57.115 98.9977 57.555 99.247C57.995 99.4963 58.3323 99.841 58.567 100.281C58.809 100.714 58.93 101.205 58.93 101.755ZM57.896 101.546C57.896 101.165 57.8117 100.838 57.643 100.567C57.4743 100.288 57.2433 100.079 56.95 99.94C56.664 99.7933 56.345 99.72 55.993 99.72C55.487 99.72 55.0543 99.8813 54.695 100.204C54.343 100.527 54.1413 100.974 54.09 101.546H57.896ZM14.2069 113.083C14.4049 112.738 14.6982 112.452 15.0869 112.225C15.4829 111.99 15.9412 111.873 16.4619 111.873C16.9972 111.873 17.4812 112.001 17.9139 112.258C18.3539 112.515 18.6986 112.878 18.9479 113.347C19.1972 113.809 19.3219 114.348 19.3219 114.964C19.3219 115.573 19.1972 116.115 18.9479 116.592C18.6986 117.069 18.3539 117.439 17.9139 117.703C17.4812 117.967 16.9972 118.099 16.4619 118.099C15.9486 118.099 15.4939 117.985 15.0979 117.758C14.7092 117.523 14.4122 117.234 14.2069 116.889V120.86H13.2059V111.972H14.2069V113.083ZM18.2989 114.964C18.2989 114.509 18.2072 114.113 18.0239 113.776C17.8406 113.439 17.5912 113.182 17.2759 113.006C16.9679 112.83 16.6269 112.742 16.2529 112.742C15.8862 112.742 15.5452 112.834 15.2299 113.017C14.9219 113.193 14.6726 113.453 14.4819 113.798C14.2986 114.135 14.2069 114.528 14.2069 114.975C14.2069 115.43 14.2986 115.829 14.4819 116.174C14.6726 116.511 14.9219 116.772 15.2299 116.955C15.5452 117.131 15.8862 117.219 16.2529 117.219C16.6269 117.219 16.9679 117.131 17.2759 116.955C17.5912 116.772 17.8406 116.511 18.0239 116.174C18.2072 115.829 18.2989 115.426 18.2989 114.964ZM21.6405 112.951C21.8165 112.606 22.0658 112.339 22.3885 112.148C22.7185 111.957 23.1181 111.862 23.5875 111.862V112.896H23.3235C22.2015 112.896 21.6405 113.505 21.6405 114.722V118H20.6395V111.972H21.6405V112.951ZM25.26 110.993C25.0693 110.993 24.908 110.927 24.776 110.795C24.644 110.663 24.578 110.502 24.578 110.311C24.578 110.12 24.644 109.959 24.776 109.827C24.908 109.695 25.0693 109.629 25.26 109.629C25.4433 109.629 25.5973 109.695 25.722 109.827C25.854 109.959 25.92 110.12 25.92 110.311C25.92 110.502 25.854 110.663 25.722 110.795C25.5973 110.927 25.4433 110.993 25.26 110.993ZM25.744 111.972V118H24.743V111.972H25.744ZM34.699 111.862C35.1684 111.862 35.5864 111.961 35.953 112.159C36.3197 112.35 36.6094 112.639 36.822 113.028C37.0347 113.417 37.141 113.89 37.141 114.447V118H36.151V114.59C36.151 113.989 36.0007 113.53 35.7 113.215C35.4067 112.892 35.007 112.731 34.501 112.731C33.9804 112.731 33.566 112.9 33.258 113.237C32.95 113.567 32.796 114.047 32.796 114.678V118H31.806V114.59C31.806 113.989 31.6557 113.53 31.355 113.215C31.0617 112.892 30.662 112.731 30.156 112.731C29.6354 112.731 29.221 112.9 28.913 113.237C28.605 113.567 28.451 114.047 28.451 114.678V118H27.45V111.972H28.451V112.841C28.649 112.526 28.913 112.284 29.243 112.115C29.5804 111.946 29.9507 111.862 30.354 111.862C30.86 111.862 31.3074 111.976 31.696 112.203C32.0847 112.43 32.3744 112.764 32.565 113.204C32.7337 112.779 33.0124 112.449 33.401 112.214C33.7897 111.979 34.2224 111.862 34.699 111.862ZM38.409 114.964C38.409 114.348 38.5337 113.809 38.783 113.347C39.0324 112.878 39.3734 112.515 39.806 112.258C40.246 112.001 40.7337 111.873 41.269 111.873C41.797 111.873 42.2554 111.987 42.644 112.214C43.0327 112.441 43.3224 112.727 43.513 113.072V111.972H44.525V118H43.513V116.878C43.315 117.23 43.018 117.523 42.622 117.758C42.2334 117.985 41.7787 118.099 41.258 118.099C40.7227 118.099 40.2387 117.967 39.806 117.703C39.3734 117.439 39.0324 117.069 38.783 116.592C38.5337 116.115 38.409 115.573 38.409 114.964ZM43.513 114.975C43.513 114.52 43.4214 114.124 43.238 113.787C43.0547 113.45 42.8054 113.193 42.49 113.017C42.182 112.834 41.841 112.742 41.467 112.742C41.093 112.742 40.752 112.83 40.444 113.006C40.136 113.182 39.8904 113.439 39.707 113.776C39.5237 114.113 39.432 114.509 39.432 114.964C39.432 115.426 39.5237 115.829 39.707 116.174C39.8904 116.511 40.136 116.772 40.444 116.955C40.752 117.131 41.093 117.219 41.467 117.219C41.841 117.219 42.182 117.131 42.49 116.955C42.8054 116.772 43.0547 116.511 43.238 116.174C43.4214 115.829 43.513 115.43 43.513 114.975ZM46.7336 110.993C46.543 110.993 46.3816 110.927 46.2496 110.795C46.1176 110.663 46.0516 110.502 46.0516 110.311C46.0516 110.12 46.1176 109.959 46.2496 109.827C46.3816 109.695 46.543 109.629 46.7336 109.629C46.917 109.629 47.071 109.695 47.1956 109.827C47.3276 109.959 47.3936 110.12 47.3936 110.311C47.3936 110.502 47.3276 110.663 47.1956 110.795C47.071 110.927 46.917 110.993 46.7336 110.993ZM47.2176 111.972V118H46.2166V111.972H47.2176ZM49.9247 112.951C50.1007 112.606 50.35 112.339 50.6727 112.148C51.0027 111.957 51.4023 111.862 51.8717 111.862V112.896H51.6077C50.4857 112.896 49.9247 113.505 49.9247 114.722V118H48.9237V111.972H49.9247V112.951ZM58.5272 114.755C58.5272 114.946 58.5162 115.147 58.4942 115.36H53.6762C53.7128 115.954 53.9145 116.42 54.2812 116.757C54.6552 117.087 55.1062 117.252 55.6342 117.252C56.0668 117.252 56.4262 117.153 56.7122 116.955C57.0055 116.75 57.2108 116.478 57.3282 116.141H58.4062C58.2448 116.72 57.9222 117.193 57.4382 117.56C56.9542 117.919 56.3528 118.099 55.6342 118.099C55.0622 118.099 54.5488 117.971 54.0942 117.714C53.6468 117.457 53.2948 117.094 53.0382 116.625C52.7815 116.148 52.6532 115.598 52.6532 114.975C52.6532 114.352 52.7778 113.805 53.0272 113.336C53.2765 112.867 53.6248 112.507 54.0722 112.258C54.5268 112.001 55.0475 111.873 55.6342 111.873C56.2062 111.873 56.7122 111.998 57.1522 112.247C57.5922 112.496 57.9295 112.841 58.1642 113.281C58.4062 113.714 58.5272 114.205 58.5272 114.755ZM57.4932 114.546C57.4932 114.165 57.4088 113.838 57.2402 113.567C57.0715 113.288 56.8405 113.079 56.5472 112.94C56.2612 112.793 55.9422 112.72 55.5902 112.72C55.0842 112.72 54.6515 112.881 54.2922 113.204C53.9402 113.527 53.7385 113.974 53.6872 114.546H57.4932ZM63.7821 110.333V118H62.7811V110.333H63.7821Z" fill="#2D4941"/>
<defs>
<clipPath id="clip0_58_3518">
<rect width="20.6452" height="80" fill="white" transform="translate(28.1775 15)"/>
</clipPath>
</defs>
</svg>
