<svg width="78" height="78" viewBox="0 0 78 78" fill="none" xmlns="http://www.w3.org/2000/svg">
<rect x="0.25" y="0.25" width="77.5" height="77.5" rx="9.75" stroke="#2D4941" stroke-width="0.5"/>
<mask id="path-2-inside-1_67_4426" fill="white">
<path d="M52.7436 21.583C52.7454 21.5759 52.7454 21.5688 52.7468 21.5617C52.77 21.4601 52.7624 21.354 52.725 21.2567C52.6876 21.1594 52.622 21.0753 52.5366 21.0151C52.4511 20.9549 52.3496 20.9212 52.2449 20.9184C52.1403 20.9155 52.0371 20.9436 51.9485 20.9991C51.9399 21.0044 51.9313 21.0091 51.9231 21.0147C51.5309 21.2606 47.4197 24.0298 44.5036 33.4359V25.84H44.7889C45.2195 25.8393 45.6322 25.6689 45.9367 25.366C46.2413 25.0632 46.4127 24.6526 46.4134 24.2242V14.1538C46.4128 13.7252 46.2414 13.3143 45.9367 13.0112C45.6321 12.7082 45.219 12.5378 44.7882 12.5373H44.5004V10.5321C44.5004 10.391 44.4441 10.2556 44.3438 10.1558C44.2435 10.0561 44.1074 10 43.9656 10C43.8237 10 43.6877 10.0561 43.5874 10.1558C43.4871 10.2556 43.4307 10.391 43.4307 10.5321V12.5373H43.143C42.7121 12.5378 42.2991 12.7082 41.9944 13.0112C41.6897 13.3143 41.5183 13.7252 41.5177 14.1538V24.2242C41.5183 24.6528 41.6897 25.0637 41.9944 25.3667C42.2991 25.6698 42.7121 25.8402 43.143 25.8407H43.4325V36.0566L40.4373 32.5051C40.3491 32.4004 40.2238 32.3334 40.0873 32.3181C39.9508 32.3028 39.8137 32.3403 39.7042 32.4228C39.5948 32.5053 39.5214 32.6266 39.4994 32.7614C39.4773 32.8963 39.5083 33.0344 39.5858 33.1472C40.5279 34.5189 40.8402 38.3569 40.9369 40.1504H37.4122V29.8699H37.6974C38.1283 29.8694 38.5413 29.6988 38.846 29.3958C39.1507 29.0927 39.3221 28.6818 39.3227 28.2531V18.1837C39.3221 17.7551 39.1507 17.3442 38.846 17.0411C38.5413 16.738 38.1283 16.5675 37.6974 16.5669H37.4097V14.562C37.4097 14.4209 37.3533 14.2856 37.253 14.1858C37.1527 14.086 37.0167 14.03 36.8748 14.03C36.7329 14.03 36.5969 14.086 36.4966 14.1858C36.3963 14.2856 36.3399 14.4209 36.3399 14.562V16.5669H36.0522C35.6213 16.5675 35.2083 16.738 34.9036 17.0411C34.5989 17.3442 34.4275 17.7551 34.4269 18.1837V28.2531C34.4275 28.6818 34.5989 29.0927 34.9036 29.3958C35.2083 29.6988 35.6213 29.8694 36.0522 29.8699H36.3407V40.1486H35.8885L32.5724 28.1407C32.4881 27.8701 32.3449 27.6214 32.153 27.4122C31.9611 27.2029 31.7252 27.0383 31.4621 26.93C30.1948 26.2781 28.1709 26.1496 28.0853 26.1433C28.0073 26.1381 27.9292 26.1502 27.8564 26.1787C27.7837 26.2071 27.7182 26.2512 27.6646 26.3078C26.1862 27.8569 25.3362 34.2674 25.2442 34.9935C25.229 35.1134 25.2553 35.2348 25.3187 35.3379C25.3822 35.4409 25.479 35.5194 25.5932 35.5605C25.7075 35.6015 25.8323 35.6026 25.9473 35.5637C26.0623 35.5247 26.1605 35.448 26.2258 35.3461C26.2583 35.295 29.3547 30.4691 31.3226 28.102C31.4239 28.1796 31.4986 28.2864 31.5366 28.4078L34.7814 40.149H32.678L30.153 30.0404C30.1232 29.9045 30.0412 29.7856 29.9244 29.7092C29.8076 29.6328 29.6654 29.6049 29.5282 29.6314C29.391 29.658 29.2697 29.7369 29.1903 29.8513C29.1109 29.9658 29.0796 30.1066 29.1032 30.2436L31.5883 40.1486H29.2249C29.0831 40.1486 28.947 40.2047 28.8467 40.3045C28.7464 40.4043 28.6901 40.5396 28.6901 40.6807C28.6901 40.8218 28.7464 40.9572 28.8467 41.0569C28.947 41.1567 29.0831 41.2128 29.2249 41.2128H32.2233C32.228 41.2128 32.2323 41.2153 32.2372 41.2153C32.2422 41.2153 32.2536 41.2153 32.2619 41.2128H35.4663C35.4717 41.2128 35.4763 41.2153 35.4813 41.2153C35.4863 41.2153 35.4931 41.2131 35.4992 41.2128H36.8541C36.8616 41.2128 36.8687 41.2153 36.8766 41.2153C36.8844 41.2153 36.8916 41.2131 36.899 41.2128H41.481C41.4937 41.2141 41.5064 41.2147 41.5191 41.2146C41.5234 41.2146 41.5273 41.2146 41.5313 41.2128H46.6163C46.6234 41.2128 46.6306 41.2153 46.6377 41.2153C46.6448 41.2153 46.6463 41.2131 46.6505 41.2128H50.3043C50.4462 41.2128 50.5822 41.1567 50.6825 41.0569C50.7828 40.9572 50.8392 40.8218 50.8392 40.6807C50.8392 40.5396 50.7828 40.4043 50.6825 40.3045C50.5822 40.2047 50.4462 40.1486 50.3043 40.1486H46.8848L44.5493 37.3793C46.2426 30.0416 48.7372 25.9574 50.4801 23.855C48.1378 29.6262 47.0021 39.4947 46.9476 39.892C46.9284 40.0317 46.9657 40.1734 47.0515 40.2857C47.1372 40.398 47.2642 40.4719 47.4047 40.4911C47.429 40.4945 47.4536 40.4962 47.4781 40.4961C47.6075 40.4959 47.7324 40.449 47.8296 40.3643C47.9269 40.2795 47.99 40.1625 48.0073 40.035C48.0226 39.9236 49.5762 27.0776 52.6712 21.7476C52.6769 21.7391 52.6798 21.7284 52.6851 21.7192C52.699 21.6957 52.7109 21.6712 52.7208 21.6458C52.7298 21.6254 52.7374 21.6044 52.7436 21.583ZM42.5874 24.2242V14.1538C42.5877 14.0073 42.6463 13.8669 42.7505 13.7634C42.8546 13.6599 42.9957 13.6016 43.143 13.6015H44.7882C44.9354 13.6016 45.0765 13.6599 45.1807 13.7634C45.2848 13.8669 45.3434 14.0073 45.3437 14.1538V24.2242C45.3434 24.3707 45.2848 24.5111 45.1807 24.6146C45.0765 24.7181 44.9354 24.7763 44.7882 24.7765H43.143C42.9957 24.7763 42.8546 24.7181 42.7505 24.6146C42.6463 24.5111 42.5877 24.3707 42.5874 24.2242ZM35.4984 28.2531V18.1837C35.4986 18.0372 35.5572 17.8967 35.6614 17.7931C35.7655 17.6895 35.9067 17.6313 36.054 17.6311H37.6992C37.8465 17.6313 37.9877 17.6895 38.0918 17.7931C38.196 17.8967 38.2545 18.0372 38.2547 18.1837V28.2531C38.2545 28.3996 38.196 28.5401 38.0918 28.6437C37.9877 28.7473 37.8465 28.8056 37.6992 28.8058H36.054C35.9067 28.8056 35.7655 28.7473 35.6614 28.6437C35.5572 28.5401 35.4986 28.3996 35.4984 28.2531ZM26.6808 32.7056C27.078 30.5187 27.6639 28.135 28.2886 27.2283C28.9819 27.2915 29.6673 27.4222 30.3349 27.6185C29.1754 29.0463 27.7238 31.1476 26.6808 32.7056ZM42.0087 40.1486C41.9413 38.5503 41.7618 36.9586 41.4717 35.3851L43.5195 37.8135C43.542 37.8475 43.5683 37.8788 43.5979 37.9068L45.4878 40.1486H42.0087Z"/>
</mask>
<path d="M52.7436 21.583C52.7454 21.5759 52.7454 21.5688 52.7468 21.5617C52.77 21.4601 52.7624 21.354 52.725 21.2567C52.6876 21.1594 52.622 21.0753 52.5366 21.0151C52.4511 20.9549 52.3496 20.9212 52.2449 20.9184C52.1403 20.9155 52.0371 20.9436 51.9485 20.9991C51.9399 21.0044 51.9313 21.0091 51.9231 21.0147C51.5309 21.2606 47.4197 24.0298 44.5036 33.4359V25.84H44.7889C45.2195 25.8393 45.6322 25.6689 45.9367 25.366C46.2413 25.0632 46.4127 24.6526 46.4134 24.2242V14.1538C46.4128 13.7252 46.2414 13.3143 45.9367 13.0112C45.6321 12.7082 45.219 12.5378 44.7882 12.5373H44.5004V10.5321C44.5004 10.391 44.4441 10.2556 44.3438 10.1558C44.2435 10.0561 44.1074 10 43.9656 10C43.8237 10 43.6877 10.0561 43.5874 10.1558C43.4871 10.2556 43.4307 10.391 43.4307 10.5321V12.5373H43.143C42.7121 12.5378 42.2991 12.7082 41.9944 13.0112C41.6897 13.3143 41.5183 13.7252 41.5177 14.1538V24.2242C41.5183 24.6528 41.6897 25.0637 41.9944 25.3667C42.2991 25.6698 42.7121 25.8402 43.143 25.8407H43.4325V36.0566L40.4373 32.5051C40.3491 32.4004 40.2238 32.3334 40.0873 32.3181C39.9508 32.3028 39.8137 32.3403 39.7042 32.4228C39.5948 32.5053 39.5214 32.6266 39.4994 32.7614C39.4773 32.8963 39.5083 33.0344 39.5858 33.1472C40.5279 34.5189 40.8402 38.3569 40.9369 40.1504H37.4122V29.8699H37.6974C38.1283 29.8694 38.5413 29.6988 38.846 29.3958C39.1507 29.0927 39.3221 28.6818 39.3227 28.2531V18.1837C39.3221 17.7551 39.1507 17.3442 38.846 17.0411C38.5413 16.738 38.1283 16.5675 37.6974 16.5669H37.4097V14.562C37.4097 14.4209 37.3533 14.2856 37.253 14.1858C37.1527 14.086 37.0167 14.03 36.8748 14.03C36.7329 14.03 36.5969 14.086 36.4966 14.1858C36.3963 14.2856 36.3399 14.4209 36.3399 14.562V16.5669H36.0522C35.6213 16.5675 35.2083 16.738 34.9036 17.0411C34.5989 17.3442 34.4275 17.7551 34.4269 18.1837V28.2531C34.4275 28.6818 34.5989 29.0927 34.9036 29.3958C35.2083 29.6988 35.6213 29.8694 36.0522 29.8699H36.3407V40.1486H35.8885L32.5724 28.1407C32.4881 27.8701 32.3449 27.6214 32.153 27.4122C31.9611 27.2029 31.7252 27.0383 31.4621 26.93C30.1948 26.2781 28.1709 26.1496 28.0853 26.1433C28.0073 26.1381 27.9292 26.1502 27.8564 26.1787C27.7837 26.2071 27.7182 26.2512 27.6646 26.3078C26.1862 27.8569 25.3362 34.2674 25.2442 34.9935C25.229 35.1134 25.2553 35.2348 25.3187 35.3379C25.3822 35.4409 25.479 35.5194 25.5932 35.5605C25.7075 35.6015 25.8323 35.6026 25.9473 35.5637C26.0623 35.5247 26.1605 35.448 26.2258 35.3461C26.2583 35.295 29.3547 30.4691 31.3226 28.102C31.4239 28.1796 31.4986 28.2864 31.5366 28.4078L34.7814 40.149H32.678L30.153 30.0404C30.1232 29.9045 30.0412 29.7856 29.9244 29.7092C29.8076 29.6328 29.6654 29.6049 29.5282 29.6314C29.391 29.658 29.2697 29.7369 29.1903 29.8513C29.1109 29.9658 29.0796 30.1066 29.1032 30.2436L31.5883 40.1486H29.2249C29.0831 40.1486 28.947 40.2047 28.8467 40.3045C28.7464 40.4043 28.6901 40.5396 28.6901 40.6807C28.6901 40.8218 28.7464 40.9572 28.8467 41.0569C28.947 41.1567 29.0831 41.2128 29.2249 41.2128H32.2233C32.228 41.2128 32.2323 41.2153 32.2372 41.2153C32.2422 41.2153 32.2536 41.2153 32.2619 41.2128H35.4663C35.4717 41.2128 35.4763 41.2153 35.4813 41.2153C35.4863 41.2153 35.4931 41.2131 35.4992 41.2128H36.8541C36.8616 41.2128 36.8687 41.2153 36.8766 41.2153C36.8844 41.2153 36.8916 41.2131 36.899 41.2128H41.481C41.4937 41.2141 41.5064 41.2147 41.5191 41.2146C41.5234 41.2146 41.5273 41.2146 41.5313 41.2128H46.6163C46.6234 41.2128 46.6306 41.2153 46.6377 41.2153C46.6448 41.2153 46.6463 41.2131 46.6505 41.2128H50.3043C50.4462 41.2128 50.5822 41.1567 50.6825 41.0569C50.7828 40.9572 50.8392 40.8218 50.8392 40.6807C50.8392 40.5396 50.7828 40.4043 50.6825 40.3045C50.5822 40.2047 50.4462 40.1486 50.3043 40.1486H46.8848L44.5493 37.3793C46.2426 30.0416 48.7372 25.9574 50.4801 23.855C48.1378 29.6262 47.0021 39.4947 46.9476 39.892C46.9284 40.0317 46.9657 40.1734 47.0515 40.2857C47.1372 40.398 47.2642 40.4719 47.4047 40.4911C47.429 40.4945 47.4536 40.4962 47.4781 40.4961C47.6075 40.4959 47.7324 40.449 47.8296 40.3643C47.9269 40.2795 47.99 40.1625 48.0073 40.035C48.0226 39.9236 49.5762 27.0776 52.6712 21.7476C52.6769 21.7391 52.6798 21.7284 52.6851 21.7192C52.699 21.6957 52.7109 21.6712 52.7208 21.6458C52.7298 21.6254 52.7374 21.6044 52.7436 21.583ZM42.5874 24.2242V14.1538C42.5877 14.0073 42.6463 13.8669 42.7505 13.7634C42.8546 13.6599 42.9957 13.6016 43.143 13.6015H44.7882C44.9354 13.6016 45.0765 13.6599 45.1807 13.7634C45.2848 13.8669 45.3434 14.0073 45.3437 14.1538V24.2242C45.3434 24.3707 45.2848 24.5111 45.1807 24.6146C45.0765 24.7181 44.9354 24.7763 44.7882 24.7765H43.143C42.9957 24.7763 42.8546 24.7181 42.7505 24.6146C42.6463 24.5111 42.5877 24.3707 42.5874 24.2242ZM35.4984 28.2531V18.1837C35.4986 18.0372 35.5572 17.8967 35.6614 17.7931C35.7655 17.6895 35.9067 17.6313 36.054 17.6311H37.6992C37.8465 17.6313 37.9877 17.6895 38.0918 17.7931C38.196 17.8967 38.2545 18.0372 38.2547 18.1837V28.2531C38.2545 28.3996 38.196 28.5401 38.0918 28.6437C37.9877 28.7473 37.8465 28.8056 37.6992 28.8058H36.054C35.9067 28.8056 35.7655 28.7473 35.6614 28.6437C35.5572 28.5401 35.4986 28.3996 35.4984 28.2531ZM26.6808 32.7056C27.078 30.5187 27.6639 28.135 28.2886 27.2283C28.9819 27.2915 29.6673 27.4222 30.3349 27.6185C29.1754 29.0463 27.7238 31.1476 26.6808 32.7056ZM42.0087 40.1486C41.9413 38.5503 41.7618 36.9586 41.4717 35.3851L43.5195 37.8135C43.542 37.8475 43.5683 37.8788 43.5979 37.9068L45.4878 40.1486H42.0087Z" fill="#2D4941" stroke="#2D4941" stroke-width="0.4" mask="url(#path-2-inside-1_67_4426)"/>
<path d="M36.1916 51.5629L36.2591 51.6246C37.1138 52.406 38.2948 52.9003 39.6307 52.9H39.6307C40.9665 52.9003 42.1476 52.4059 43.0024 51.6246L43.0698 51.5629L43.1373 51.6246C43.9921 52.406 45.1731 52.9003 46.5089 52.9H46.509C48.0394 52.9003 49.4616 52.3575 50.2934 51.3586L49.4775 50.7249C48.9024 51.3891 47.7585 51.8718 46.509 51.8716L36.1916 51.5629ZM36.1916 51.5629L36.1241 51.6246C35.2694 52.4059 34.0883 52.9003 32.7525 52.9H32.7524M36.1916 51.5629L32.7524 52.9M32.7524 52.9C31.2221 52.9003 29.7999 52.3576 28.9681 51.3586M32.7524 52.9L28.9681 51.3586M35.7831 50.6481C35.7831 50.6481 35.7831 50.6481 35.7831 50.6481C35.2319 51.3516 34.0498 51.8719 32.7525 51.8716L35.7831 50.6481ZM35.7831 50.6481L36.1916 50.1271L36.6 50.6481C36.6 50.6481 36.6001 50.6481 36.6001 50.6481C37.1513 51.3516 38.3334 51.8719 39.6307 51.8716L35.7831 50.6481ZM28.9681 51.3586L29.7851 50.7249C30.3601 51.3891 31.5028 51.8718 32.7524 51.8716L28.9681 51.3586ZM43.0698 50.1271L43.4783 50.6481C43.4783 50.6481 43.4783 50.6481 43.4783 50.6481C44.0295 51.3516 45.2116 51.8719 46.5089 51.8716L43.0698 50.1271ZM43.0698 50.1271L42.6614 50.6481C42.6614 50.6481 42.6614 50.6481 42.6614 50.6481C42.1101 51.3516 40.928 51.8719 39.6307 51.8716L43.0698 50.1271Z" fill="#2D4941" stroke="#2D4941" stroke-width="0.2"/>
<path d="M36.1916 46.3807L36.2591 46.4423C37.1138 47.2235 38.295 47.7168 39.6307 47.7165H39.6307C40.9664 47.7168 42.1477 47.2234 43.0024 46.4423L43.0698 46.3807L43.1373 46.4423C43.992 47.2235 45.1732 47.7168 46.5089 47.7165H46.509C48.0393 47.7168 49.4615 47.1741 50.2934 46.1752L49.4775 45.5426C48.9024 46.2068 47.7585 46.6884 46.509 46.6881L36.1916 46.3807ZM36.1916 46.3807L36.1241 46.4423C35.2694 47.2234 34.0881 47.7168 32.7525 47.7165H32.7524M36.1916 46.3807L32.7524 47.7165M32.7524 47.7165C31.2221 47.7168 29.8 47.1741 28.9681 46.1752M32.7524 47.7165L28.9681 46.1752M35.7831 45.4658C35.7831 45.4658 35.7831 45.4658 35.7831 45.4658C35.2318 46.1693 34.0497 46.6884 32.7525 46.6881L35.7831 45.4658ZM35.7831 45.4658L36.1916 44.9448L36.6 45.4658C36.6 45.4658 36.6001 45.4658 36.6001 45.4658C37.1513 46.1693 38.3335 46.6884 39.6307 46.6881L35.7831 45.4658ZM28.9681 46.1752L29.7851 45.5425C30.3601 46.2068 31.5029 46.6884 32.7524 46.6881L28.9681 46.1752ZM43.0698 44.9448L43.4783 45.4658C44.0295 46.1693 45.2117 46.6884 46.5089 46.6881L43.0698 44.9448ZM43.0698 44.9448L42.6614 45.4658C42.1101 46.1693 40.928 46.6884 39.6307 46.6881L43.0698 44.9448Z" fill="#2D4941" stroke="#2D4941" stroke-width="0.2"/>
<path d="M30.7933 61.147V63.71H33.5873V64.535H30.7933V67.175H33.9173V68H29.7923V60.322H33.9173V61.147H30.7933ZM35.058 64.964C35.058 64.348 35.1826 63.809 35.432 63.347C35.6813 62.8777 36.0223 62.5147 36.455 62.258C36.895 62.0013 37.3826 61.873 37.918 61.873C38.446 61.873 38.9043 61.9867 39.293 62.214C39.6816 62.4413 39.9713 62.7273 40.162 63.072V61.972H41.174V68H40.162V66.878C39.964 67.23 39.667 67.5233 39.271 67.758C38.8823 67.9853 38.4276 68.099 37.907 68.099C37.3716 68.099 36.8876 67.967 36.455 67.703C36.0223 67.439 35.6813 67.0687 35.432 66.592C35.1826 66.1153 35.058 65.5727 35.058 64.964ZM40.162 64.975C40.162 64.5203 40.0703 64.1243 39.887 63.787C39.7036 63.4497 39.4543 63.193 39.139 63.017C38.831 62.8337 38.49 62.742 38.116 62.742C37.742 62.742 37.401 62.83 37.093 63.006C36.785 63.182 36.5393 63.4387 36.356 63.776C36.1726 64.1133 36.081 64.5093 36.081 64.964C36.081 65.426 36.1726 65.8293 36.356 66.174C36.5393 66.5113 36.785 66.7717 37.093 66.955C37.401 67.131 37.742 67.219 38.116 67.219C38.49 67.219 38.831 67.131 39.139 66.955C39.4543 66.7717 39.7036 66.5113 39.887 66.174C40.0703 65.8293 40.162 65.4297 40.162 64.975ZM48.2116 61.972V68H47.2106V67.109C47.0199 67.417 46.7522 67.659 46.4076 67.835C46.0702 68.0037 45.6962 68.088 45.2856 68.088C44.8162 68.088 44.3946 67.9927 44.0206 67.802C43.6466 67.604 43.3496 67.3107 43.1296 66.922C42.9169 66.5333 42.8106 66.0603 42.8106 65.503V61.972H43.8006V65.371C43.8006 65.965 43.9509 66.4233 44.2516 66.746C44.5522 67.0613 44.9629 67.219 45.4836 67.219C46.0189 67.219 46.4406 67.054 46.7486 66.724C47.0566 66.394 47.2106 65.9137 47.2106 65.283V61.972H48.2116Z" fill="#2D4941"/>
</svg>
