<svg width="61" height="66" viewBox="0 0 61 66" fill="none" xmlns="http://www.w3.org/2000/svg">
<path d="M0 0H61V62C61 64.2091 59.2091 66 57 66H4C1.79086 66 0 64.2091 0 62V0Z" fill="#B6DCFA"/>
<path d="M15.4709 38.9997C14.8045 39.0317 14.8523 40.0313 15.5188 39.9992H46.5058C47.1724 39.9992 47.1724 38.9997 46.5058 38.9997C46.5078 38.9987 15.4709 38.9997 15.4709 38.9997Z" fill="#021120"/>
<path d="M31.9962 18.0065C31.8321 18.0132 31.6817 18.1009 31.594 18.2398L24.838 28.8535L23.241 28.057C22.9877 27.93 22.679 28.0392 22.5616 28.2971L19.8948 34.1667L20.8055 34.5796L23.2596 29.1825L24.7941 29.9497C25.0229 30.0648 25.3013 29.9878 25.4393 29.7721L31.9845 19.4824L34.0764 23.2494C34.1257 23.337 34.2 23.4079 34.2901 23.4525L37.1015 24.8581L39.537 32.1598L40.4848 31.8425L37.9878 24.3456C37.9456 24.2203 37.8553 24.1166 37.7369 24.0577L34.8739 22.6256L32.4491 18.2652C32.3584 18.1006 32.184 18.0004 31.9962 18.0065Z" fill="#021120"/>
<path d="M41.2231 29.0014C41.1325 29.0008 41.0434 29.0249 40.9654 29.0711C40.8875 29.1172 40.8235 29.1837 40.7804 29.2634L38.3896 33.6722L37.364 32.6465C37.3149 32.5979 37.2563 32.56 37.1919 32.5352C37.1275 32.5104 37.0586 32.4992 36.9896 32.5023C36.9206 32.5054 36.853 32.5228 36.7911 32.5533C36.7292 32.5839 36.6742 32.6269 36.6298 32.6798L31.1326 39.1768L31.8963 39.8224L37.043 33.7386L38.1572 34.8528C38.2121 34.9079 38.2792 34.9495 38.3531 34.9741C38.4269 34.9987 38.5055 35.0057 38.5825 34.9946C38.6595 34.9835 38.7329 34.9546 38.7968 34.9101C38.8607 34.8656 38.9133 34.8068 38.9504 34.7384L41.1382 30.7022L44.5399 39.6749L45.477 39.3207L41.688 29.3261C41.6525 29.2312 41.589 29.1494 41.506 29.0915C41.423 29.0335 41.3243 29.0021 41.2231 29.0014Z" fill="#021120"/>
<path d="M19.4966 32.0006C19.2942 32.0106 19.1173 32.1416 19.0495 32.3325C18.3269 34.9225 16.5486 39.3315 16.5486 39.3315L17.4896 39.6673C17.4896 39.6673 18.7998 36.0036 19.5698 33.8494L21.0604 37.2025C21.1656 37.4377 21.4322 37.5544 21.6763 37.4719L22.6212 37.1586L23.0234 39.5785L24.0123 39.4165L23.5105 36.4167C23.4593 36.1151 23.1509 35.9305 22.8604 36.0263L21.7905 36.3806L19.9759 32.2993C19.893 32.1102 19.7028 31.9916 19.4966 32.0006Z" fill="#021120"/>
<path d="M31.5384 18.8481L29.5387 24.8471C29.4993 24.9681 29.5074 25.0996 29.5616 25.2148C29.6158 25.33 29.7118 25.4201 29.8302 25.4669L31.6269 26.1864L28.1626 29.6507C28.1095 29.7044 28.0693 29.7694 28.045 29.8408C28.0206 29.9123 28.0128 29.9883 28.022 30.0632C28.0312 30.1381 28.0573 30.2099 28.0983 30.2733C28.1392 30.3367 28.194 30.39 28.2585 30.4292L30.2065 31.6024L26.661 35.1479C26.5792 35.2296 26.5282 35.3371 26.5168 35.4522C26.5054 35.5672 26.5342 35.6826 26.5983 35.7788L27.373 36.9373L25.1631 39.1436L25.8715 39.8519L28.3692 37.3542C28.451 37.2725 28.5019 37.165 28.5134 37.05C28.5248 36.9349 28.496 36.8195 28.4319 36.7233L27.6608 35.5648L31.3687 31.857C31.4224 31.8033 31.4632 31.7381 31.488 31.6662C31.5127 31.5944 31.5208 31.5179 31.5115 31.4425C31.5023 31.3671 31.476 31.2948 31.4346 31.2311C31.3932 31.1674 31.3379 31.1139 31.2727 31.0748L29.321 29.9016L32.8666 26.3561C32.9246 26.2977 32.9673 26.2259 32.9909 26.147C33.0145 26.0681 33.0183 25.9846 33.0019 25.9039C32.9855 25.8233 32.9493 25.7479 32.8968 25.6845C32.8442 25.6212 32.7768 25.5718 32.7005 25.5407L30.6382 24.7143L32.4866 19.1654L31.5384 18.8481Z" fill="#021120"/>
<path d="M22.0197 17.5089C20.6455 17.5089 19.5183 18.6324 19.5183 20.0066C19.5183 21.3809 20.6455 22.5044 22.0197 22.5044C23.3939 22.5044 24.5175 21.3809 24.5175 20.0066C24.5175 18.6324 23.3939 17.5089 22.0197 17.5089ZM22.0197 18.5087C22.8537 18.5087 23.5176 19.1726 23.5176 20.0066C23.5176 20.8406 22.8537 21.5045 22.0197 21.5045C21.1857 21.5045 20.5181 20.8406 20.5181 20.0066C20.5181 19.1726 21.1857 18.5087 22.0197 18.5087Z" fill="#021120"/>
<path d="M25.4658 19.5085C24.8466 19.5821 24.894 20.4955 25.5175 20.5047H26.5173C27.2398 20.5656 27.2398 19.4475 26.5173 19.5085C26.5163 19.5068 25.4658 19.5085 25.4658 19.5085Z" fill="#021120"/>
<path d="M17.4707 19.5085C16.8531 19.5813 16.8969 20.4916 17.5187 20.5047H18.5185C19.241 20.5656 19.241 19.4475 18.5185 19.5085C18.5195 19.5068 17.4707 19.5085 17.4707 19.5085Z" fill="#021120"/>
<path d="M22.0088 22.9987C21.8768 23.0012 21.7512 23.0556 21.6593 23.1503C21.5673 23.245 21.5166 23.3722 21.5181 23.5042V24.504C21.5181 24.6366 21.5708 24.7638 21.6645 24.8575C21.7583 24.9513 21.8854 25.0039 22.018 25.0039C22.1506 25.0039 22.2778 24.9513 22.3715 24.8575C22.4653 24.7638 22.5179 24.6366 22.5179 24.504V23.5042C22.5187 23.4373 22.506 23.3709 22.4807 23.309C22.4553 23.2471 22.4178 23.1909 22.3703 23.1438C22.3228 23.0966 22.2663 23.0595 22.2042 23.0346C22.1421 23.0097 22.0757 22.9975 22.0088 22.9987Z" fill="#021120"/>
<path d="M22.0086 15.0001C21.9429 15.0013 21.8782 15.0154 21.818 15.0416C21.7578 15.0679 21.7033 15.1057 21.6578 15.153C21.6122 15.2003 21.5764 15.2561 21.5524 15.3172C21.5284 15.3783 21.5167 15.4436 21.5179 15.5092V16.5091C21.5179 16.6416 21.5706 16.7688 21.6643 16.8625C21.7581 16.9563 21.8852 17.009 22.0178 17.009C22.1504 17.009 22.2776 16.9563 22.3713 16.8625C22.4651 16.7688 22.5177 16.6416 22.5177 16.5091V15.5092C22.519 15.442 22.5067 15.3752 22.4816 15.3129C22.4564 15.2506 22.419 15.1939 22.3714 15.1464C22.3239 15.0989 22.2673 15.0614 22.2049 15.0363C22.1426 15.0111 22.0758 14.9988 22.0086 15.0001Z" fill="#021120"/>
<path d="M19.5332 21.9768C19.4036 21.9808 19.2805 22.035 19.1901 22.128L18.4855 22.8327C18.4365 22.8784 18.3972 22.9335 18.3699 22.9947C18.3427 23.0559 18.328 23.1219 18.3267 23.1889C18.3255 23.2558 18.3377 23.3224 18.3627 23.3845C18.3877 23.4467 18.4249 23.5032 18.4721 23.5507C18.5194 23.5981 18.5757 23.6357 18.6377 23.661C18.6997 23.6863 18.7662 23.6988 18.8332 23.6979C18.9001 23.697 18.9663 23.6827 19.0276 23.6558C19.0889 23.6288 19.1442 23.5898 19.1901 23.5411L19.8985 22.8327C19.9701 22.7623 20.0188 22.6719 20.0383 22.5733C20.0578 22.4748 20.0471 22.3726 20.0077 22.2802C19.9683 22.1878 19.9019 22.1095 19.8173 22.0553C19.7326 22.0012 19.6337 21.9738 19.5332 21.9768Z" fill="#021120"/>
<path d="M25.1888 16.3209C25.0592 16.3249 24.9361 16.3791 24.8457 16.4722L24.1374 17.1805C24.0886 17.2265 24.0496 17.2818 24.0227 17.3431C23.9957 17.4044 23.9814 17.4705 23.9805 17.5375C23.9796 17.6045 23.9922 17.6709 24.0175 17.733C24.0428 17.795 24.0803 17.8513 24.1278 17.8985C24.1753 17.9458 24.2318 17.983 24.2939 18.008C24.3561 18.0329 24.4226 18.0452 24.4896 18.0439C24.5565 18.0427 24.6226 18.028 24.6838 18.0007C24.7449 17.9735 24.8 17.9342 24.8457 17.8852L25.5504 17.1805C25.6231 17.1105 25.6729 17.0201 25.6932 16.9213C25.7136 16.8224 25.7035 16.7198 25.6644 16.6267C25.6253 16.5337 25.5589 16.4547 25.474 16.4001C25.3891 16.3455 25.2897 16.3179 25.1888 16.3209Z" fill="#021120"/>
<path d="M18.8322 16.3209C18.7326 16.321 18.6352 16.3508 18.5527 16.4065C18.4701 16.4622 18.4061 16.5414 18.3688 16.6338C18.3316 16.7261 18.3227 16.8275 18.3435 16.925C18.3643 17.0224 18.4137 17.1114 18.4854 17.1806L19.1901 17.8852C19.2358 17.9342 19.2908 17.9735 19.352 18.0007C19.4132 18.028 19.4792 18.0427 19.5462 18.0439C19.6132 18.0452 19.6797 18.033 19.7419 18.008C19.804 17.983 19.8605 17.9458 19.908 17.8985C19.9555 17.8513 19.993 17.795 20.0183 17.733C20.0436 17.671 20.0562 17.6045 20.0553 17.5375C20.0544 17.4705 20.04 17.4044 20.0131 17.3431C19.9861 17.2818 19.9472 17.2265 19.8984 17.1806L19.1901 16.4722C19.1435 16.4244 19.0879 16.3863 19.0264 16.3604C18.965 16.3344 18.8989 16.321 18.8322 16.3209Z" fill="#021120"/>
<path d="M24.4363 21.9768C24.3415 21.9862 24.2513 22.0225 24.1765 22.0814C24.1016 22.1404 24.0452 22.2195 24.0138 22.3094C23.9824 22.3993 23.9773 22.4964 23.9992 22.5891C24.0211 22.6818 24.0691 22.7663 24.1374 22.8327L24.8458 23.5411C24.8917 23.5898 24.947 23.6288 25.0083 23.6557C25.0697 23.6827 25.1358 23.697 25.2028 23.6979C25.2697 23.6988 25.3362 23.6862 25.3982 23.6609C25.4602 23.6356 25.5165 23.5981 25.5638 23.5506C25.611 23.5032 25.6482 23.4467 25.6732 23.3845C25.6982 23.3224 25.7104 23.2558 25.7092 23.1889C25.7079 23.1219 25.6932 23.0559 25.666 22.9947C25.6387 22.9335 25.5994 22.8784 25.5505 22.8327L24.8458 22.128C24.7934 22.0735 24.7294 22.0315 24.6584 22.0053C24.5875 21.9791 24.5115 21.9694 24.4363 21.9768Z" fill="#021120"/>
<path d="M16.8072 45.464V51H16.0792V46.872L14.2392 51H13.7272L11.8792 46.864V51H11.1512V45.464H11.9352L13.9832 50.04L16.0312 45.464H16.8072ZM19.9538 51.072C19.5431 51.072 19.1698 50.9787 18.8338 50.792C18.5031 50.6053 18.2418 50.3413 18.0498 50C17.8631 49.6533 17.7698 49.2533 17.7698 48.8C17.7698 48.352 17.8658 47.9573 18.0578 47.616C18.2551 47.2693 18.5218 47.0053 18.8578 46.824C19.1938 46.6373 19.5698 46.544 19.9858 46.544C20.4018 46.544 20.7778 46.6373 21.1138 46.824C21.4498 47.0053 21.7138 47.2667 21.9058 47.608C22.1031 47.9493 22.2018 48.3467 22.2018 48.8C22.2018 49.2533 22.1004 49.6533 21.8978 50C21.7004 50.3413 21.4311 50.6053 21.0898 50.792C20.7484 50.9787 20.3698 51.072 19.9538 51.072ZM19.9538 50.432C20.2151 50.432 20.4604 50.3707 20.6898 50.248C20.9191 50.1253 21.1031 49.9413 21.2418 49.696C21.3858 49.4507 21.4578 49.152 21.4578 48.8C21.4578 48.448 21.3884 48.1493 21.2498 47.904C21.1111 47.6587 20.9298 47.4773 20.7058 47.36C20.4818 47.2373 20.2391 47.176 19.9778 47.176C19.7111 47.176 19.4658 47.2373 19.2418 47.36C19.0231 47.4773 18.8471 47.6587 18.7138 47.904C18.5804 48.1493 18.5138 48.448 18.5138 48.8C18.5138 49.1573 18.5778 49.4587 18.7058 49.704C18.8391 49.9493 19.0151 50.1333 19.2338 50.256C19.4524 50.3733 19.6924 50.432 19.9538 50.432ZM25.295 46.536C25.8283 46.536 26.2603 46.6987 26.591 47.024C26.9216 47.344 27.087 47.808 27.087 48.416V51H26.367V48.52C26.367 48.0827 26.2576 47.7493 26.039 47.52C25.8203 47.2853 25.5216 47.168 25.143 47.168C24.759 47.168 24.4523 47.288 24.223 47.528C23.999 47.768 23.887 48.1173 23.887 48.576V51H23.159V46.616H23.887V47.24C24.031 47.016 24.2256 46.8427 24.471 46.72C24.7216 46.5973 24.9963 46.536 25.295 46.536ZM29.1642 47.216V49.8C29.1642 50.0133 29.2095 50.1653 29.3002 50.256C29.3908 50.3413 29.5482 50.384 29.7722 50.384H30.3082V51H29.6522C29.2468 51 28.9428 50.9067 28.7402 50.72C28.5375 50.5333 28.4362 50.2267 28.4362 49.8V47.216H27.8682V46.616H28.4362V45.512H29.1642V46.616H30.3082V47.216H29.1642ZM30.9182 48.792C30.9182 48.344 31.0089 47.952 31.1902 47.616C31.3716 47.2747 31.6196 47.0107 31.9342 46.824C32.2542 46.6373 32.6089 46.544 32.9982 46.544C33.3822 46.544 33.7156 46.6267 33.9982 46.792C34.2809 46.9573 34.4916 47.1653 34.6302 47.416V46.616H35.3662V51H34.6302V50.184C34.4862 50.44 34.2702 50.6533 33.9822 50.824C33.6996 50.9893 33.3689 51.072 32.9902 51.072C32.6009 51.072 32.2489 50.976 31.9342 50.784C31.6196 50.592 31.3716 50.3227 31.1902 49.976C31.0089 49.6293 30.9182 49.2347 30.9182 48.792ZM34.6302 48.8C34.6302 48.4693 34.5636 48.1813 34.4302 47.936C34.2969 47.6907 34.1156 47.504 33.8862 47.376C33.6622 47.2427 33.4142 47.176 33.1422 47.176C32.8702 47.176 32.6222 47.24 32.3982 47.368C32.1742 47.496 31.9956 47.6827 31.8622 47.928C31.7289 48.1733 31.6622 48.4613 31.6622 48.792C31.6622 49.128 31.7289 49.4213 31.8622 49.672C31.9956 49.9173 32.1742 50.1067 32.3982 50.24C32.6222 50.368 32.8702 50.432 33.1422 50.432C33.4142 50.432 33.6622 50.368 33.8862 50.24C34.1156 50.1067 34.2969 49.9173 34.4302 49.672C34.5636 49.4213 34.6302 49.1307 34.6302 48.8ZM38.4045 46.544C38.7831 46.544 39.1138 46.6267 39.3965 46.792C39.6845 46.9573 39.8978 47.1653 40.0365 47.416V46.616H40.7725V51.096C40.7725 51.496 40.6871 51.8507 40.5165 52.16C40.3458 52.4747 40.1005 52.72 39.7805 52.896C39.4658 53.072 39.0978 53.16 38.6765 53.16C38.1005 53.16 37.6205 53.024 37.2365 52.752C36.8525 52.48 36.6258 52.1093 36.5565 51.64H37.2765C37.3565 51.9067 37.5218 52.12 37.7725 52.28C38.0231 52.4453 38.3245 52.528 38.6765 52.528C39.0765 52.528 39.4018 52.4027 39.6525 52.152C39.9085 51.9013 40.0365 51.5493 40.0365 51.096V50.176C39.8925 50.432 39.6791 50.6453 39.3965 50.816C39.1138 50.9867 38.7831 51.072 38.4045 51.072C38.0151 51.072 37.6605 50.976 37.3405 50.784C37.0258 50.592 36.7778 50.3227 36.5965 49.976C36.4151 49.6293 36.3245 49.2347 36.3245 48.792C36.3245 48.344 36.4151 47.952 36.5965 47.616C36.7778 47.2747 37.0258 47.0107 37.3405 46.824C37.6605 46.6373 38.0151 46.544 38.4045 46.544ZM40.0365 48.8C40.0365 48.4693 39.9698 48.1813 39.8365 47.936C39.7031 47.6907 39.5218 47.504 39.2925 47.376C39.0685 47.2427 38.8205 47.176 38.5485 47.176C38.2765 47.176 38.0285 47.24 37.8045 47.368C37.5805 47.496 37.4018 47.6827 37.2685 47.928C37.1351 48.1733 37.0685 48.4613 37.0685 48.792C37.0685 49.128 37.1351 49.4213 37.2685 49.672C37.4018 49.9173 37.5805 50.1067 37.8045 50.24C38.0285 50.368 38.2765 50.432 38.5485 50.432C38.8205 50.432 39.0685 50.368 39.2925 50.24C39.5218 50.1067 39.7031 49.9173 39.8365 49.672C39.9698 49.4213 40.0365 49.1307 40.0365 48.8ZM44.1387 46.536C44.6721 46.536 45.1041 46.6987 45.4347 47.024C45.7654 47.344 45.9307 47.808 45.9307 48.416V51H45.2107V48.52C45.2107 48.0827 45.1014 47.7493 44.8827 47.52C44.6641 47.2853 44.3654 47.168 43.9867 47.168C43.6027 47.168 43.2961 47.288 43.0667 47.528C42.8427 47.768 42.7307 48.1173 42.7307 48.576V51H42.0027V46.616H42.7307V47.24C42.8747 47.016 43.0694 46.8427 43.3147 46.72C43.5654 46.5973 43.8401 46.536 44.1387 46.536ZM51.1199 48.64C51.1199 48.7787 51.1119 48.9253 51.0959 49.08H47.5919C47.6186 49.512 47.7652 49.8507 48.0319 50.096C48.3039 50.336 48.6319 50.456 49.0159 50.456C49.3306 50.456 49.5919 50.384 49.7999 50.24C50.0132 50.0907 50.1626 49.8933 50.2479 49.648H51.0319C50.9146 50.0693 50.6799 50.4133 50.3279 50.68C49.9759 50.9413 49.5386 51.072 49.0159 51.072C48.5999 51.072 48.2266 50.9787 47.8959 50.792C47.5706 50.6053 47.3146 50.3413 47.1279 50C46.9412 49.6533 46.8479 49.2533 46.8479 48.8C46.8479 48.3467 46.9386 47.9493 47.1199 47.608C47.3012 47.2667 47.5546 47.0053 47.8799 46.824C48.2106 46.6373 48.5892 46.544 49.0159 46.544C49.4319 46.544 49.7999 46.6347 50.1199 46.816C50.4399 46.9973 50.6852 47.248 50.8559 47.568C51.0319 47.8827 51.1199 48.24 51.1199 48.64ZM50.3679 48.488C50.3679 48.2107 50.3066 47.9733 50.1839 47.776C50.0612 47.5733 49.8932 47.4213 49.6799 47.32C49.4719 47.2133 49.2399 47.16 48.9839 47.16C48.6159 47.16 48.3012 47.2773 48.0399 47.512C47.7839 47.7467 47.6372 48.072 47.5999 48.488H50.3679Z" fill="#021120"/>
</svg>
