<svg width="77" height="128" viewBox="0 0 77 128" fill="none" xmlns="http://www.w3.org/2000/svg">
<rect x="0.25" y="0.25" width="76.5" height="127.5" rx="9.75" fill="#2D4941" stroke="#2D4941" stroke-width="0.5"/>
<path d="M42.3306 15.2958C41.4138 14.3735 40.5729 13.9377 39.8331 14.0072C34.7811 14.4809 24.9428 30.1211 24.0449 54.2573C23.5075 68.7226 27.8956 77.8945 31.5691 82.9858C31.5249 82.9668 31.4933 82.9352 31.449 82.9163C30.431 82.4552 29.3182 82.6004 28.2496 82.771C27.9461 82.8152 28.0789 83.2763 28.3761 83.2258C29.3056 83.0805 30.3235 82.9289 31.2151 83.3269C31.8284 83.5985 32.3026 84.0912 32.6124 84.6786C31.8094 84.2681 30.9052 84.0659 29.9947 84.1101C29.6913 84.1228 29.6913 84.5965 29.9947 84.5839C31.2467 84.5207 32.4923 84.9566 33.4217 85.7967C33.1625 85.8662 32.8969 85.9862 32.663 86.0746C31.9675 86.3463 31.2403 86.5547 30.5069 86.7C30.2097 86.7568 30.3362 87.218 30.6334 87.1548C31.2783 87.0285 31.9106 86.8516 32.5239 86.6305C32.8337 86.5168 33.1309 86.3715 33.4344 86.2641C33.6936 86.1757 33.9529 86.1441 34.1489 86.3778C34.1805 86.4157 34.2121 86.4347 34.25 86.441C34.1868 86.4536 34.1236 86.4536 34.0667 86.4726C33.5988 86.5863 33.1435 86.7821 32.7199 87.0221C31.86 87.5148 31.1455 88.216 30.5069 88.9614C30.3109 89.1888 30.646 89.5299 30.842 89.2962C31.3731 88.6771 31.9548 88.0834 32.644 87.6285C32.9855 87.4011 33.3459 87.2116 33.7252 87.0727C33.9149 87.0032 34.1046 86.9463 34.3006 86.9084C34.4018 86.8895 34.5029 86.8705 34.6041 86.8579C34.6547 86.8516 34.7053 86.8453 34.7622 86.839C34.876 86.8263 34.8633 86.8516 34.8254 86.7947C34.8507 86.8263 34.8823 86.8516 34.9266 86.8642C35.0846 87.0158 35.2364 87.1548 35.3755 87.2811C35.1479 87.3317 34.9202 87.4517 34.7306 87.5464C34.2563 87.7738 33.8011 88.0518 33.3838 88.3676C32.5492 89.0056 31.841 89.8078 31.3289 90.7237C31.1771 90.989 31.5881 91.2291 31.7399 90.9638C32.1761 90.1931 32.7389 89.5109 33.4154 88.9424C33.7442 88.6645 34.0983 88.4245 34.4776 88.2097C34.6673 88.1023 34.8633 88.0012 35.0657 87.9128C35.1668 87.8686 35.268 87.8244 35.3755 87.7802C35.3945 87.7738 35.4893 87.7422 35.5462 87.7233C34.7685 88.355 34.1742 89.1761 33.8454 90.13C33.7442 90.4205 34.2058 90.5406 34.3006 90.2563C34.6168 89.3404 35.2174 88.5255 35.9951 87.9507C36.0267 87.9254 36.052 87.9002 36.071 87.8686C36.1279 87.9128 36.1785 87.9507 36.2164 87.9823C36.3872 102.89 37.0131 112.725 37.2597 113.167C37.5442 113.672 38.0374 113.982 38.5812 114.001C38.5938 114.001 38.6065 114.001 38.6191 114.001C39.1629 114.001 39.6561 113.704 39.9849 113.18C40.1935 112.845 40.1176 110.325 39.8584 102.391C39.7383 98.8028 39.5928 94.3495 39.4601 89.2014C39.4917 89.2204 39.5296 89.233 39.5675 89.233C40.0797 89.2835 40.5097 89.6689 40.7689 90.0921C41.0977 90.629 41.2115 91.2733 41.3253 91.8797C41.3822 92.1766 41.8375 92.0503 41.7805 91.7534C41.6478 91.0585 41.5087 90.3384 41.1103 89.7447C40.9206 89.4604 40.674 89.2267 40.3958 89.0498C41.3253 88.8477 42.4255 88.7466 43.14 89.492C43.3486 89.7131 43.6837 89.3783 43.4751 89.1572C43.1147 88.7782 42.6784 88.5824 42.2105 88.5003C43.0894 88.1276 44.1706 88.2918 44.8724 88.9424C45.0937 89.1509 45.4352 88.8161 45.2075 88.6076C44.727 88.1655 44.1137 87.9065 43.4751 87.8433C43.943 87.6349 44.4867 87.6665 44.9167 87.9507C45.0242 88.0202 45.1759 87.9697 45.2391 87.8686C45.3087 87.7549 45.2644 87.6159 45.1569 87.5464C44.7776 87.3001 44.3097 87.199 43.8671 87.2495C43.924 87.2053 43.9746 87.1674 44.0315 87.1232C44.4109 86.8137 44.8092 86.4536 45.2075 86.0241C45.2518 86.0431 45.3087 86.0557 45.3593 86.0367C45.8588 85.8725 46.352 85.7841 46.8704 85.7651C46.9969 85.7651 47.1107 85.6577 47.1107 85.5251C47.1107 85.3988 47.0095 85.285 46.8704 85.285C46.6238 85.2914 46.3836 85.323 46.1433 85.3608C46.5543 85.1398 46.9906 84.9818 47.4585 84.8871C47.5849 84.8618 47.6545 84.7102 47.6229 84.5965C47.5849 84.4639 47.4585 84.407 47.332 84.4323C46.9653 84.5081 46.6049 84.6281 46.2634 84.7797C48.8432 81.3876 51.4924 75.1909 52.6495 63.884C54.9827 40.8153 47.3004 20.2986 42.3306 15.2958ZM34.446 86.4031C34.446 86.4031 34.4524 86.4094 34.4587 86.4157C34.446 86.4157 34.4334 86.4157 34.4207 86.4157C34.4271 86.4157 34.4397 86.4031 34.446 86.3968V86.4031ZM39.5739 112.927C39.3273 113.319 38.9542 113.508 38.5875 113.527C38.2145 113.521 37.873 113.3 37.677 112.946C37.1649 111.411 34.9961 67.1561 39.2008 23.0464C37.892 57.0051 38.8847 87.2875 39.3842 102.403C39.5802 108.291 39.7193 112.542 39.5802 112.927H39.5739ZM52.15 63.8398C49.7537 87.2685 40.8953 88.5129 39.4284 88.5571C38.9542 70.3902 38.6128 43.7652 40.0101 15.2137L39.5359 15.1758C36.5515 41.4786 36.0015 68.4194 36.2038 87.3822C35.9572 87.1801 35.6031 86.8769 35.1732 86.4663C35.1732 86.4663 35.1732 86.4663 35.1668 86.46C33.9276 85.2787 32.0497 83.2195 30.2224 80.1243C27.3644 75.2794 24.0513 66.8655 24.5192 54.2763C25.4676 28.8767 35.7169 14.8662 39.8774 14.4809C40.4527 14.4304 41.1925 14.822 41.9955 15.6306C44.7333 18.3847 47.8062 25.3141 49.8295 33.2795C51.5999 40.2531 53.4399 51.219 52.15 63.8398Z" fill="#F5EFE7"/>
<path d="M27.4062 37.5417C27.4595 37.3289 27.9757 36.2778 27.9757 36.2778C28.8819 34.6146 28.5 35.5 27.9757 35.1528C27.9757 34.3542 28.539 34.3035 28.809 33.8715C29.0392 33.5033 29.2138 33.0991 29.4757 32.75C29.6632 32.4999 29.8791 32.2459 30.1007 32.0243C30.439 31.6859 30.4875 31.8465 30.3958 32.2882C30.0241 34.0792 29.4532 35.8373 29.0659 37.6285C28.9508 38.161 28.8902 38.6998 28.8611 39.2431C28.8602 39.2603 28.8368 39.8736 28.8889 39.8194C29.0136 39.6897 29.074 39.4422 29.1527 39.2847C29.9369 37.7165 30.6787 36.1225 31.5833 34.6181C31.7859 34.281 31.9574 33.73 32.2361 33.4514C32.3435 33.3439 32.2491 34.2758 32.2361 34.3542C31.9575 36.0367 31.9552 37.7688 31.9375 39.4722C31.9353 39.677 31.9375 39.882 31.9375 40.0868C31.9375 40.3459 32.0477 39.5795 32.1284 39.3333C32.6238 37.8225 33.2962 36.3092 34.1805 34.9826C34.422 34.6204 34.3125 35.4257 34.3125 35.5451C34.3125 36.2176 34.3125 36.8901 34.3125 37.5625C34.3125 38.1245 34.3092 38.6807 34.375 39.2396C34.3895 39.3635 34.3992 39.721 34.4791 39.4375C34.6806 38.723 35.0287 38.0392 35.3125 37.3542C35.3692 37.2173 35.7425 36.2778 35.9236 36.2778C36.0329 36.2778 36.0142 38.8629 36.0486 39.1111C36.1055 39.5226 36.2821 39.0593 36.3611 38.8889C36.5677 38.4428 36.7327 37.9713 36.9722 37.5417C37.1508 37.2213 36.7011 37.9827 36.7011 38.1005C36.7011 38.3389 36.3398 38.7188 36.7011 38.7188" stroke="#F5EFE7" stroke-width="2" stroke-linecap="round"/>
<path d="M49.608 37.6991C50 37.6991 49.5 36 49.5 36C48.5938 34.3368 48.9758 35.3472 49.5001 35C49.5001 34.2014 48.4752 34.4609 48.2052 34.0289C47.9751 33.6607 47.8004 33.2565 47.5386 32.9074C47.351 32.6573 47.1351 32.4033 46.9136 32.1817C46.5752 31.8434 46.5267 32.0039 46.6184 32.4456C46.9901 34.2366 47.561 35.9947 47.9483 37.7859C48.0634 38.3184 48.124 38.8572 48.1531 39.4005C48.1541 39.4177 48.1775 40.031 48.1254 39.9769C48.0006 39.8471 47.9402 39.5996 47.8615 39.4421C47.0774 37.8739 46.3355 36.2799 45.4309 34.7755C45.2283 34.4384 45.0568 33.8874 44.7781 33.6088C44.6707 33.5013 44.7652 34.4332 44.7781 34.5116C45.0567 36.1941 45.059 37.9262 45.0768 39.6296C45.0789 39.8344 45.0768 40.0394 45.0768 40.2442C45.0768 40.5033 44.9665 39.737 44.8858 39.4907C44.3904 37.9799 43.7181 36.4666 42.8337 35.1401C42.5922 34.7778 42.7018 35.5831 42.7018 35.7026C42.7018 36.375 42.7018 37.0475 42.7018 37.7199C42.7018 38.2819 42.705 38.8381 42.6393 39.397C42.6247 39.5209 42.6151 39.8784 42.5351 39.5949C42.3336 38.8805 41.9855 38.1966 41.7018 37.5116C41.645 37.3747 41.2717 36.4352 41.0906 36.4352C40.9813 36.4352 41 39.0203 40.9656 39.2685C40.9087 39.68 40.7321 39.2168 40.6531 39.0463C40.4465 38.6002 40.2815 38.1287 40.042 37.6991C39.8635 37.3787 40.3131 38.1401 40.3131 38.2579C40.3131 38.4963 40.3613 38.5 40 38.5" stroke="#F5EFE7" stroke-width="2" stroke-linecap="round"/>
<path d="M25.3472 50.1528C25.5455 50.0867 25.7499 48.066 25.7499 48.066C25.7499 48.066 25.7355 47.3807 25.9861 46.8681C26.0351 46.7679 26.2914 46.0922 26.3403 46.3438C26.4372 46.8423 26.375 47.3983 26.375 47.9028C26.375 49.4821 26.3073 51.1247 26.5139 52.6945C26.5208 52.7469 26.5412 52.9385 26.6146 52.7847C26.8783 52.2322 26.9952 51.5783 27.1493 50.9896C27.4544 49.8239 27.7477 48.6523 28.2049 47.5347C28.2227 47.4912 28.4364 46.8353 28.4861 47.1945C28.6178 48.1459 28.4934 49.202 28.4653 50.1528C28.4351 51.1754 28.3584 52.1987 28.375 53.2222C28.3883 54.0407 28.6394 53.321 28.7257 52.9375C29.0537 51.4799 29.3289 50.0141 29.6875 48.5625C29.8087 48.0721 29.8812 47.5306 30.1215 47.0799C30.3511 46.6494 30.3858 47.7516 30.3889 47.7847C30.5001 48.9636 30.5809 50.1205 30.8125 51.2847C30.8669 51.5581 30.9317 51.8289 30.9931 52.1007C31.0087 52.1701 31.0505 52.6076 31.1007 52.2674C31.2538 51.2298 31.4279 50.2217 31.6736 49.2014C31.6872 49.1449 32.0021 47.9617 32.0903 48.066C32.1753 48.1665 32.176 48.4443 32.1875 48.5556C32.2486 49.1484 32.2458 49.7452 32.25 50.3403C32.255 51.0581 32.2228 51.8308 32.3472 52.5417C32.4348 53.042 32.6343 52.4927 32.7014 52.2986C32.8742 51.799 33 51.2184 33.2778 50.7639C33.3682 50.616 33.375 51.7365 33.375 51.8472C33.375 51.9621 33.2827 53.1475 33.5625 53.132C33.8426 53.1164 34.254 51.8239 34.3472 51.6216C34.4293 51.4435 35.1431 49.8444 35.4236 49.9584C35.6379 50.0454 35.6166 51.0709 35.6215 51.25C35.6318 51.6183 35.4924 52.2853 35.6875 52.6181C35.7329 52.6954 35.9186 52.199 35.9375 52.1597C36.006 52.0178 36.0285 51.6922 36.1874 51.6216C36.3463 51.5509 36.1932 52.1136 36.1875 52.125" stroke="#F5EFE7" stroke-width="2" stroke-linecap="round"/>
<path d="M51.7495 50.2299C51.5314 50.1576 51.5573 47.946 51.5573 47.946C51.5573 47.946 51.5732 47.196 51.2975 46.6349C51.2437 46.5252 50.9619 45.7856 50.9081 46.061C50.8015 46.6067 50.8699 47.2152 50.8699 47.7674C50.8699 49.4959 50.9443 51.2937 50.7171 53.0118C50.7096 53.0692 50.6871 53.2788 50.6064 53.1106C50.3164 52.5058 50.1878 51.7901 50.0184 51.1458C49.6828 49.8699 49.3603 48.5876 48.8576 47.3645C48.838 47.3168 48.603 46.599 48.5483 46.9921C48.4035 48.0334 48.5403 49.1893 48.5712 50.2299C48.6044 51.3491 48.6888 52.4692 48.6705 53.5894C48.6559 54.4852 48.3797 53.6975 48.2849 53.2778C47.9242 51.6824 47.6215 50.0781 47.2272 48.4894C47.0939 47.9527 47.0142 47.3599 46.7499 46.8667C46.4974 46.3955 46.4593 47.6019 46.4559 47.6381C46.3336 48.9284 46.2447 50.1945 45.99 51.4688C45.9302 51.768 45.859 52.0644 45.7915 52.3619C45.7742 52.4378 45.7283 52.9167 45.6731 52.5443C45.5047 51.4087 45.3133 50.3053 45.0431 49.1887C45.0281 49.1268 44.6819 47.8319 44.5849 47.946C44.4914 48.056 44.4906 48.36 44.4779 48.4818C44.4108 49.1306 44.4138 49.7838 44.4092 50.4352C44.4037 51.2208 44.4391 52.0665 44.3023 52.8446C44.206 53.3922 43.9867 52.791 43.9128 52.5785C43.7228 52.0317 43.5844 51.3962 43.279 50.8988C43.1795 50.7369 43.1721 51.9632 43.1721 52.0845C43.1721 52.2102 43.2736 53.5076 42.9659 53.4906C42.6579 53.4736 42.2055 52.0589 42.1029 51.8375C42.0127 51.6426 41.2277 49.8924 40.9192 50.0171C40.6836 50.1124 40.7071 51.2348 40.7016 51.4308C40.6903 51.8339 40.8436 52.5639 40.629 52.9282C40.5792 53.0128 40.3749 52.4695 40.3541 52.4265C40.2787 52.2711 40.2541 51.9148 40.0793 51.8375C39.9045 51.7602 39.9939 52.4875 40.0002 52.5" stroke="#F5EFE7" stroke-width="2" stroke-linecap="round"/>
<path d="M25.2637 61.8264C25.4641 61.9267 26.416 62.25 25.6382 62.3264M25.6382 62.3264C25.6815 62.8184 25.5187 63.2606 25.6382 63.7431C26.2284 63.632 26.3886 64 26.0137 64C26.1505 63.4728 25.4848 62.8495 25.6382 62.3264ZM25.6382 62.3264C25.7303 62.0127 25.8319 61.6397 26.0133 61.3611C26.2242 61.0372 26.4157 61.7097 26.4647 61.8334C26.5761 62.1152 27.7496 65.988 27.9647 65.9097C28.2417 65.809 28.0369 63.9571 28.0306 63.7431C28.0125 63.1223 27.9287 62.4474 28.0063 61.8264C28.0469 61.5019 28.2188 61.7104 28.2911 61.8924C28.6748 62.8595 28.875 63.9197 29.107 64.9306C29.1662 65.1882 29.2518 66.0701 29.5549 66.2049C29.6683 66.2553 29.7752 64.8598 29.7841 64.7639C29.8153 64.4259 29.7386 63.4622 30.0029 63.1979C30.1517 63.0491 30.4055 64.4738 30.423 64.5695C30.5142 65.069 30.5126 65.8021 30.7633 66.257C30.8062 66.3349 30.8908 66.119 30.9056 66.0313C30.9765 65.6113 31.0116 65.185 31.0758 64.7639C31.1621 64.198 31.1941 63.3639 31.5827 62.8959C31.7665 62.6745 31.9232 63.5389 31.9369 63.6042C32.0772 64.2739 32.1254 64.9583 32.2841 65.625C32.4744 66.4244 32.6022 65.3152 32.6383 65.0764C32.7809 64.1329 32.788 63.1122 33.0619 62.1945C33.259 61.5339 33.4431 62.1683 33.4994 62.4861C33.6162 63.1454 33.6357 63.8167 33.7529 64.4757C33.7541 64.4829 33.924 65.3175 34.0341 65.0972C34.3369 64.4917 34.4261 63.7276 34.6244 63.0834C34.7848 62.5621 34.9706 61.6778 35.4577 61.3438C35.8914 61.0464 35.4874 62.7899 35.5001 63C35.5079 63.128 35.4098 63.771 35.5001 63.5" stroke="#F5EFE7" stroke-width="2" stroke-linecap="round"/>
<path d="M51.5675 61.5526C51.3361 61.6529 50.6697 61.9763 51.5675 62.0526M51.5675 62.0526C51.5176 62.5446 51.7055 62.9869 51.5675 63.4694C50.8862 63.3583 50.7013 63.7263 51.1341 63.7263C50.9762 63.1991 51.7447 62.5757 51.5675 62.0526ZM51.5675 62.0526C51.4613 61.7389 51.344 61.3659 51.1346 61.0873C50.8911 60.7634 50.67 61.4359 50.6135 61.5596C50.4848 61.8414 49.1303 65.7143 48.882 65.6361C48.5622 65.5354 48.7986 63.6834 48.8058 63.4694C48.8268 62.8486 48.9235 62.1736 48.8339 61.5526C48.7871 61.2281 48.5886 61.4366 48.5052 61.6186C48.0622 62.5857 47.8311 63.646 47.5633 64.6569C47.495 64.9145 47.3962 65.7965 47.0462 65.9313C46.9154 65.9816 46.7919 64.5861 46.7817 64.4902C46.7456 64.1523 46.8343 63.1885 46.5292 62.9242C46.3573 62.7753 46.0643 64.2001 46.0442 64.2958C45.9389 64.7954 45.9407 65.5284 45.6514 65.9833C45.6018 66.0613 45.5041 65.8454 45.487 65.7576C45.4052 65.3377 45.3648 64.9114 45.2906 64.4902C45.191 63.9243 45.154 63.0902 44.7054 62.6221C44.4933 62.4007 44.3124 63.2651 44.2966 63.3305C44.1346 64.0002 44.079 64.6846 43.8958 65.3514C43.6761 66.1508 43.5286 65.0416 43.487 64.8027C43.3223 63.8592 43.3141 62.8385 42.998 61.9207C42.7704 61.2601 42.5579 61.8945 42.4929 62.2124C42.358 62.8717 42.3356 63.543 42.2003 64.202C42.1988 64.2092 42.0028 65.0438 41.8757 64.8236C41.5261 64.218 41.4231 63.4539 41.1943 62.8096C41.0091 62.2883 40.7947 61.404 40.2323 61.07C39.7316 60.7726 39.8271 62.5995 39.8124 62.8096C39.4415 62.8096 39.9167 63.6015 39.8124 63.3305" stroke="#F5EFE7" stroke-width="2" stroke-linecap="round"/>
<path d="M27.9236 73.4514C27.9236 73.6279 28.3125 74.4166 28.3125 74.4166C28.4923 74.8662 28.7714 74.8046 28.8977 75.2708C29.2866 75.3298 28.7031 76.3276 28.8402 75.875C29.0353 75.2313 28.7013 74.6516 28.8402 73.993C28.883 73.7901 29.0469 72.4076 29.2638 73.1666C29.5592 74.2005 29.8866 75.2281 30.2985 76.2222C30.3782 76.4144 30.472 76.7279 30.5312 76.3333C30.6262 75.6995 30.6127 75.0552 30.6388 74.4166C30.6576 73.9577 30.623 73.3029 30.8437 72.8784C30.9438 72.6859 31.1025 73.2403 31.1527 73.4514C31.2181 73.7259 31.7125 77.0256 32.2013 76.9375C32.5742 76.8702 32.5974 75.7236 32.6249 75.493C32.724 74.6616 32.7006 73.7656 32.9027 72.9514C33.0406 72.3958 33.223 73.1514 33.2499 73.2951C33.3735 73.9544 33.4272 74.6232 33.611 75.2708C33.6643 75.4582 33.7871 75.975 33.9999 75.5798C34.3058 75.0119 34.3467 74.2522 34.486 73.6319C34.5509 73.3433 34.6097 72.4555 34.9374 72.2916C35.2193 72.1507 35.2539 73.1376 35.2638 73.2222C35.3295 73.7815 35.3648 74.3522 35.4687 74.9062C35.5075 75.1131 35.5761 75.1591 35.6249 74.9305C35.7455 74.3658 35.1398 73.8593 35.2722 73.2951C35.2876 73.2297 35.5065 72.2982 35.6249 72.2916C35.7253 72.2861 35.4687 74.0127 35.4687 74.1676" stroke="#F5EFE7" stroke-width="2" stroke-linecap="round"/>
<path d="M50 73.2587C50 73.4481 49.4966 74.2941 49.4966 74.2941C49.2638 74.7763 49.66 74.7103 49.4966 75.2104C48.9931 75.2737 48.9909 76.3439 48.8134 75.8585C48.5609 75.168 48.9931 74.5462 48.8134 73.8398C48.758 73.622 48.5457 72.1391 48.265 72.9533C47.8826 74.0623 47.4588 75.1646 46.9255 76.2309C46.8224 76.4371 46.7009 76.7734 46.6243 76.3501C46.5012 75.6702 46.5188 74.979 46.485 74.2941C46.4607 73.8019 46.5055 73.0995 46.2198 72.6442C46.0902 72.4377 45.8848 73.0323 45.8197 73.2587C45.7351 73.5532 45.095 77.0927 44.4622 76.9981C43.9795 76.926 43.9494 75.6961 43.9138 75.4487C43.7855 74.5569 43.8159 73.5958 43.5542 72.7224C43.3757 72.1265 43.1396 72.937 43.1047 73.0911C42.9447 73.7983 42.8752 74.5157 42.6372 75.2104C42.5683 75.4114 42.4093 75.9658 42.1338 75.5419C41.7379 74.9326 41.6849 74.1177 41.5045 73.4524C41.4205 73.1428 41.3444 72.1905 40.9201 72.0147C40.5552 71.8636 40.5105 72.9221 40.4976 73.0129C40.4126 73.6128 40.3669 74.225 40.2324 74.8193C40.1822 75.0412 40.0933 75.0905 40.0301 74.8454C39.874 74.2396 40.6581 73.6963 40.4867 73.0911C40.4669 73.021 40.1834 72.0218 40.0301 72.0147C39.9002 72.0088 40 73.8338 40 74" stroke="#F5EFE7" stroke-width="2" stroke-linecap="round"/>
</svg>
