<svg width="61" height="66" viewBox="0 0 61 66" fill="none" xmlns="http://www.w3.org/2000/svg">
<mask id="path-1-inside-1_45_918" fill="white">
<path d="M0 0H61V62C61 64.2091 59.2091 66 57 66H4C1.79086 66 0 64.2091 0 62V0Z"/>
</mask>
<path d="M0 0H61V62C61 64.2091 59.2091 66 57 66H4C1.79086 66 0 64.2091 0 62V0Z" fill="#B6DCFA"/>
<path d="M0 0H61H0ZM61.5 62C61.5 64.4853 59.4853 66.5 57 66.5H4C1.51472 66.5 -0.5 64.4853 -0.5 62H0.5C0.5 63.933 2.067 65.5 4 65.5H57C58.933 65.5 60.5 63.933 60.5 62H61.5ZM4 66.5C1.51472 66.5 -0.5 64.4853 -0.5 62V0H0.5V62C0.5 63.933 2.067 65.5 4 65.5V66.5ZM61.5 0V62C61.5 64.4853 59.4853 66.5 57 66.5V65.5C58.933 65.5 60.5 63.933 60.5 62V0H61.5Z" fill="#021120" mask="url(#path-1-inside-1_45_918)"/>
<path d="M46.3144 39.1831C45.3053 39.1831 44.2962 39.1831 43.2871 39.1831C42.0345 39.1831 40.8166 39.1831 39.5639 39.1831C39.5639 37.3711 39.5639 35.5591 39.5639 33.7471C39.5639 33.6077 39.5639 33.4335 39.5639 33.2941C40.3991 33.2941 41.2342 33.2941 42.0693 33.2941C43.1828 33.2941 44.2962 33.2941 45.4097 33.2941C45.7577 33.2941 45.8969 32.8759 45.6881 32.632C44.8182 31.5867 43.9483 30.5761 43.0784 29.5307C43.6003 29.5307 44.1223 29.5307 44.6442 29.5307C44.9922 29.5307 45.1314 29.1126 44.9226 28.8687C43.8787 27.6142 42.8 26.3598 41.7561 25.1053C42.4868 25.1053 43.2176 25.1053 43.9135 25.1053C44.2614 25.1053 44.4006 24.6872 44.1919 24.4432C43.1132 23.1539 42.0345 21.8646 40.921 20.5753C41.269 20.5753 41.5821 20.5753 41.9301 20.5753C42.3129 20.5753 42.4172 20.1572 42.2085 19.9133C41.0602 18.5194 39.8771 17.0908 38.7288 15.6969C38.5549 15.4878 38.4157 15.3136 38.2417 15.1045C38.1025 14.9652 37.8241 14.9652 37.6849 15.1045C36.6063 16.3938 35.5624 17.6831 34.4837 18.9724C33.6138 17.9271 32.7439 16.8468 31.874 15.8015C31.7 15.5575 31.4912 15.3485 31.3172 15.1045C31.178 14.9652 30.8997 14.9652 30.7605 15.1045C29.7514 16.3241 28.7075 17.5786 27.6984 18.7982C26.6893 17.5786 25.6454 16.3241 24.6363 15.1045C24.4972 14.9652 24.2188 14.9652 24.0796 15.1045C22.9313 16.4984 21.7483 17.9271 20.6 19.3209C20.426 19.53 20.2868 19.7042 20.1128 19.9133C19.9041 20.1572 20.0432 20.5753 20.3912 20.5753C20.7392 20.5753 21.0523 20.5753 21.4003 20.5753C20.4608 21.6904 19.5561 22.7706 18.6166 23.8857C18.4426 24.0599 18.3034 24.269 18.1294 24.4432C17.9207 24.6872 18.0599 25.1053 18.4078 25.1053C19.1385 25.1053 19.8693 25.1053 20.5652 25.1053C19.6605 26.1855 18.7558 27.2309 17.8511 28.3111C17.6771 28.4854 17.5379 28.6944 17.3639 28.8687C17.1551 29.1126 17.2943 29.5307 17.6423 29.5307C18.1642 29.5307 18.6862 29.5307 19.2081 29.5307C18.3382 30.5761 17.4683 31.5867 16.5984 32.632C16.3896 32.8759 16.5288 33.2941 16.8768 33.2941C18.8254 33.2941 20.774 33.2941 22.7226 33.2941C22.7226 35.1061 22.7226 36.9181 22.7226 38.7301C22.7226 38.8694 22.7226 39.0437 22.7226 39.1831C21.6439 39.1831 20.5304 39.1831 19.4517 39.1831C18.2338 39.1831 16.9812 39.1482 15.7633 39.1831C15.7285 39.1831 15.7285 39.1831 15.6937 39.1831C15.1718 39.1831 15.1718 39.9845 15.6937 39.9845C16.7028 39.9845 17.7119 39.9845 18.721 39.9845C20.1824 39.9845 21.6439 39.9845 23.1053 39.9845C23.9056 39.9845 24.7059 39.9845 25.4715 39.9845C25.6454 39.9845 25.8542 39.9845 26.0282 39.9845C27.2809 39.9845 28.5335 39.9845 29.7862 39.9845C30.5865 39.9845 31.3868 39.9845 32.1523 39.9845C33.057 39.9845 33.9617 39.9845 34.8665 39.9845C35.4928 39.9845 36.0843 39.9845 36.7107 39.9845C37.511 39.9845 38.3113 39.9845 39.0768 39.9845C40.2251 39.9845 41.3386 39.9845 42.4868 39.9845C43.7047 39.9845 44.9574 40.0194 46.1752 39.9845C46.21 39.9845 46.21 39.9845 46.2448 39.9845C46.8364 39.9845 46.8364 39.1831 46.3144 39.1831ZM38.7636 38.7301C38.7636 38.8694 38.7636 39.0437 38.7636 39.1831C38.2417 39.1831 37.6849 39.1831 37.163 39.1831C37.163 37.3711 37.163 35.5591 37.163 33.7471C37.163 33.6077 37.163 33.4335 37.163 33.2941C37.5806 33.2941 38.0329 33.2941 38.4505 33.2941C38.5549 33.2941 38.6592 33.2941 38.7636 33.2941C38.7636 35.1061 38.7636 36.9181 38.7636 38.7301ZM31.8392 38.7301C31.8392 38.8694 31.8392 39.0437 31.8392 39.1831C31.3172 39.1831 30.7605 39.1831 30.2385 39.1831C30.2385 37.3711 30.2385 35.5591 30.2385 33.7471C30.2385 33.6077 30.2385 33.4335 30.2385 33.2941C30.7605 33.2941 31.3172 33.2941 31.8392 33.2941C31.8392 35.1061 31.8392 36.9181 31.8392 38.7301ZM25.1583 38.7301C25.1583 38.8694 25.1583 39.0437 25.1583 39.1831C24.6363 39.1831 24.0796 39.1831 23.5577 39.1831C23.5577 37.3711 23.5577 35.5591 23.5577 33.7471C23.5577 33.6077 23.5577 33.4335 23.5577 33.2941C23.5925 33.2941 23.5925 33.2941 23.6273 33.2941C24.1492 33.2941 24.6363 33.2941 25.1583 33.2941C25.1583 35.1061 25.1583 36.9181 25.1583 38.7301ZM37.9633 15.9757C39.0072 17.2301 40.0511 18.5194 41.095 19.7739C40.747 19.7739 40.3991 19.7739 40.0511 19.7739C39.7031 19.7739 39.5639 20.192 39.7727 20.436C40.8514 21.7253 41.9301 23.0146 43.0436 24.3039C42.3129 24.3039 41.5821 24.3039 40.8862 24.3039C40.5382 24.3039 40.3991 24.722 40.6078 24.9659C41.6517 26.2204 42.7304 27.4748 43.7743 28.7293C43.2524 28.7293 42.7304 28.7293 42.2085 28.7293C41.8605 28.7293 41.7213 29.1474 41.9301 29.3914C42.8 30.4367 43.6699 31.4473 44.5398 32.4926C42.7652 32.4926 40.9906 32.4926 39.2508 32.4926C39.216 32.4926 39.216 32.4926 39.1812 32.4926C39.0072 32.4926 38.8332 32.4926 38.6592 32.4926C37.8241 31.4821 36.989 30.5064 36.1539 29.4959C36.6759 29.4959 37.1978 29.4959 37.7197 29.4959C38.0677 29.4959 38.2069 29.0777 37.9981 28.8338C36.9542 27.5794 35.8755 26.3249 34.8317 25.0705C34.9012 25.0705 35.0056 25.0705 35.0752 25.0705C35.7016 25.0705 36.3627 25.0705 36.989 25.0705C37.337 25.0705 37.4762 24.6523 37.2674 24.4084C36.1887 23.1191 35.11 21.8298 33.9965 20.5405C34.3445 20.5405 34.6577 20.5405 35.0056 20.5405C35.0404 20.5405 35.0404 20.5405 35.0752 20.5405C35.11 20.5405 35.1448 20.5057 35.1796 20.5057C35.1796 20.5057 35.2144 20.5057 35.2144 20.4708L35.2492 20.436C35.2492 20.436 35.2492 20.436 35.284 20.4011C35.3188 20.3663 35.3188 20.3663 35.3188 20.3314C35.3188 20.2966 35.3536 20.2617 35.3536 20.2269V20.192V20.1572C35.3536 20.0527 35.3188 19.9481 35.2492 19.8784C35.1448 19.7739 35.0752 19.6694 34.9708 19.53C35.9799 18.3452 36.989 17.1604 37.9633 15.9757ZM31.0389 15.9757C32.0828 17.2301 33.0918 18.4497 34.1357 19.7042C34.1705 19.739 34.1705 19.739 34.2053 19.7739C34.1357 19.7739 34.1009 19.7739 34.0313 19.7739C33.753 19.7739 33.4746 19.7739 33.1962 19.7739C32.8483 19.7739 32.7091 20.192 32.9179 20.436C33.9965 21.7253 35.0752 23.0146 36.1887 24.3039C35.458 24.3039 34.7273 24.3039 34.0313 24.3039C33.9965 24.3039 33.9965 24.3039 33.9618 24.3039C33.8922 24.3039 33.8226 24.3387 33.753 24.4084L33.7182 24.4432C33.7182 24.4432 33.7182 24.4781 33.6834 24.4781V24.5129C33.6486 24.5826 33.6486 24.6523 33.6486 24.722C33.6486 24.722 33.6486 24.722 33.6486 24.7569C33.6486 24.8265 33.6834 24.8962 33.753 24.9659C34.7969 26.2204 35.8755 27.4748 36.9194 28.7293C36.4323 28.7293 35.9451 28.7293 35.458 28.7293C35.3884 28.6944 35.284 28.7293 35.2144 28.7641C34.8665 28.8687 34.8317 29.2171 35.0056 29.4262C35.8755 30.4716 36.7455 31.4821 37.6154 32.5275C37.337 32.5275 37.0586 32.5275 36.7802 32.5275C35.6668 32.5275 34.5533 32.5275 33.4398 32.5275C33.057 32.5275 32.6395 32.5275 32.2567 32.5275C31.4564 32.5275 30.6561 32.5275 29.8906 32.5275C28.4987 32.5275 27.1069 32.5275 25.715 32.5275C25.6802 32.5275 25.6454 32.5275 25.6106 32.5275C25.2627 32.5275 24.8799 32.5275 24.532 32.5275C25.4019 31.4821 26.2718 30.4716 27.1417 29.4262C27.3505 29.1823 27.2113 28.7641 26.8633 28.7641C26.3414 28.7641 25.8194 28.7641 25.2975 28.7641C26.1674 27.7188 27.0373 26.6734 27.9072 25.6628C27.942 25.5932 28.0116 25.5583 28.0464 25.4886L28.0812 25.4538C28.2204 25.3144 28.3248 25.1402 28.4639 25.0008C28.4987 24.9311 28.5335 24.8614 28.5683 24.7917V24.7569C28.5683 24.722 28.5683 24.6872 28.5683 24.6523C28.5683 24.6175 28.5683 24.5826 28.5335 24.5478V24.5129C28.4987 24.4084 28.3943 24.3387 28.29 24.3387C28.2552 24.3387 28.2552 24.3387 28.2204 24.3387C27.4896 24.3387 26.7589 24.3387 26.063 24.3387C27.0025 23.2236 27.9072 22.1434 28.8467 21.0283C29.0207 20.8541 29.1599 20.645 29.3338 20.4708C29.5426 20.2269 29.4034 19.8087 29.0555 19.8087C28.8467 19.8087 28.6727 19.8087 28.4639 19.8087C28.3248 19.8087 28.1856 19.8087 28.0464 19.8087C28.9859 18.6588 29.9602 17.5089 30.8997 16.359C30.8301 16.1848 30.9345 16.0802 31.0389 15.9757ZM17.7815 32.5275C18.6514 31.4821 19.5213 30.4716 20.3912 29.4262C20.6 29.1823 20.4608 28.7641 20.1128 28.7641C19.5909 28.7641 19.0689 28.7641 18.547 28.7641C19.4517 27.6839 20.3564 26.6385 21.2611 25.5583C21.4351 25.3841 21.5743 25.175 21.7483 25.0008C21.957 24.7569 21.8178 24.3387 21.4699 24.3387C20.7392 24.3387 20.0084 24.3387 19.3125 24.3387C20.252 23.2236 21.1567 22.1434 22.0962 21.0283C22.2702 20.8541 22.4094 20.645 22.5834 20.4708C22.7921 20.2269 22.653 19.8087 22.305 19.8087C21.957 19.8087 21.6091 19.8087 21.2611 19.8087C22.2354 18.624 23.2097 17.4392 24.184 16.2893C24.2536 16.2196 24.3232 16.1151 24.3928 16.0454C25.3323 17.1953 26.2718 18.3104 27.2113 19.4603C27.0721 19.6345 26.9329 19.7739 26.7937 19.9481C26.7241 20.0178 26.6893 20.1572 26.6893 20.2617V20.2966C26.6893 20.2966 26.6893 20.2966 26.6893 20.3314V20.3663V20.4011C26.6893 20.4011 26.6893 20.436 26.7241 20.436C26.7589 20.5057 26.8633 20.5753 26.9677 20.5753C27.0025 20.5753 27.0025 20.5753 27.0373 20.5753C27.3853 20.5753 27.6984 20.5753 28.0464 20.5753C27.1069 21.6904 26.2022 22.7706 25.2627 23.8857C25.0887 24.0599 24.9495 24.269 24.7755 24.4432C24.5668 24.6872 24.7059 25.1053 25.0539 25.1053C25.715 25.1053 26.3762 25.1053 27.0373 25.1053C27.0721 25.1402 27.1069 25.175 27.1069 25.2098C26.237 26.2204 25.4019 27.2309 24.532 28.2763C24.358 28.4854 24.184 28.6944 24.01 28.9035C23.8012 29.1474 23.9404 29.5656 24.2884 29.5656C24.8103 29.5656 25.3323 29.5656 25.8542 29.5656C25.0191 30.5761 24.184 31.5518 23.3489 32.5623C23.2445 32.5623 23.1749 32.5623 23.0705 32.5623C22.131 32.5623 21.1567 32.5623 20.2172 32.5623C19.4865 32.5275 18.6514 32.5275 17.7815 32.5275ZM25.9586 39.1831C25.9586 37.3711 25.9586 35.5591 25.9586 33.7471C25.9586 33.6077 25.9586 33.4335 25.9586 33.2941C26.8633 33.2941 27.768 33.2941 28.6727 33.2941C28.9511 33.2941 29.1947 33.2941 29.473 33.2941C29.473 35.1061 29.473 36.9181 29.473 38.7301C29.473 38.8694 29.473 39.0437 29.473 39.1831C28.7075 39.1831 27.942 39.1831 27.1765 39.1831C26.7589 39.1831 26.3414 39.1831 25.9586 39.1831ZM32.6395 39.1831C32.6395 37.3711 32.6395 35.5591 32.6395 33.7471C32.6395 33.6077 32.6395 33.4335 32.6395 33.2941C33.8922 33.2941 35.1448 33.2941 36.3975 33.2941C36.3975 35.1061 36.3975 36.9181 36.3975 38.7301C36.3975 38.8694 36.3975 39.0437 36.3975 39.1831C36.2583 39.1831 36.1191 39.1831 35.9799 39.1831C34.8665 39.1831 33.753 39.1831 32.6395 39.1831Z" fill="#021120"/>
<path d="M24.7641 45.424V46.016H22.3401V47.896H24.3081V48.488H22.3401V51H21.6121V45.424H24.7641ZM27.5553 51.072C27.1447 51.072 26.7713 50.9787 26.4353 50.792C26.1047 50.6053 25.8433 50.3413 25.6513 50C25.4647 49.6533 25.3713 49.2533 25.3713 48.8C25.3713 48.352 25.4673 47.9573 25.6593 47.616C25.8567 47.2693 26.1233 47.0053 26.4593 46.824C26.7953 46.6373 27.1713 46.544 27.5873 46.544C28.0033 46.544 28.3793 46.6373 28.7153 46.824C29.0513 47.0053 29.3153 47.2667 29.5073 47.608C29.7047 47.9493 29.8033 48.3467 29.8033 48.8C29.8033 49.2533 29.702 49.6533 29.4993 50C29.302 50.3413 29.0327 50.6053 28.6913 50.792C28.35 50.9787 27.9713 51.072 27.5553 51.072ZM27.5553 50.432C27.8167 50.432 28.062 50.3707 28.2913 50.248C28.5207 50.1253 28.7047 49.9413 28.8433 49.696C28.9873 49.4507 29.0593 49.152 29.0593 48.8C29.0593 48.448 28.99 48.1493 28.8513 47.904C28.7127 47.6587 28.5313 47.4773 28.3073 47.36C28.0833 47.2373 27.8407 47.176 27.5793 47.176C27.3127 47.176 27.0673 47.2373 26.8433 47.36C26.6247 47.4773 26.4487 47.6587 26.3153 47.904C26.182 48.1493 26.1153 48.448 26.1153 48.8C26.1153 49.1573 26.1793 49.4587 26.3073 49.704C26.4407 49.9493 26.6167 50.1333 26.8353 50.256C27.054 50.3733 27.294 50.432 27.5553 50.432ZM31.4885 47.328C31.6165 47.0773 31.7979 46.8827 32.0325 46.744C32.2725 46.6053 32.5632 46.536 32.9045 46.536V47.288H32.7125C31.8965 47.288 31.4885 47.7307 31.4885 48.616V51H30.7605V46.616H31.4885V47.328ZM37.7449 48.64C37.7449 48.7787 37.7369 48.9253 37.7209 49.08H34.2169C34.2436 49.512 34.3902 49.8507 34.6569 50.096C34.9289 50.336 35.2569 50.456 35.6409 50.456C35.9556 50.456 36.2169 50.384 36.4249 50.24C36.6382 50.0907 36.7876 49.8933 36.8729 49.648H37.6569C37.5396 50.0693 37.3049 50.4133 36.9529 50.68C36.6009 50.9413 36.1636 51.072 35.6409 51.072C35.2249 51.072 34.8516 50.9787 34.5209 50.792C34.1956 50.6053 33.9396 50.3413 33.7529 50C33.5662 49.6533 33.4729 49.2533 33.4729 48.8C33.4729 48.3467 33.5636 47.9493 33.7449 47.608C33.9262 47.2667 34.1796 47.0053 34.5049 46.824C34.8356 46.6373 35.2142 46.544 35.6409 46.544C36.0569 46.544 36.4249 46.6347 36.7449 46.816C37.0649 46.9973 37.3102 47.248 37.4809 47.568C37.6569 47.8827 37.7449 48.24 37.7449 48.64ZM36.9929 48.488C36.9929 48.2107 36.9316 47.9733 36.8089 47.776C36.6862 47.5733 36.5182 47.4213 36.3049 47.32C36.0969 47.2133 35.8649 47.16 35.6089 47.16C35.2409 47.16 34.9262 47.2773 34.6649 47.512C34.4089 47.7467 34.2622 48.072 34.2249 48.488H36.9929ZM35.6169 45.544L34.5049 46.224V45.648L35.6169 44.984L36.7209 45.648V46.224L35.6169 45.544ZM39.5938 47.216V49.8C39.5938 50.0133 39.6392 50.1653 39.7298 50.256C39.8205 50.3413 39.9778 50.384 40.2018 50.384H40.7378V51H40.0818C39.6765 51 39.3725 50.9067 39.1698 50.72C38.9672 50.5333 38.8658 50.2267 38.8658 49.8V47.216H38.2978V46.616H38.8658V45.512H39.5938V46.616H40.7378V47.216H39.5938Z" fill="#021120"/>
</svg>
