<svg width="77" height="128" viewBox="0 0 77 128" fill="none" xmlns="http://www.w3.org/2000/svg">
<rect x="0.25" y="0.25" width="76.5" height="127.5" rx="9.75" fill="#2D4941" stroke="#F5EFE7" stroke-width="0.5"/>
<path d="M22.4797 105L20.6537 101.865H19.4437V105H18.4427V97.333H20.9177C21.497 97.333 21.9847 97.432 22.3807 97.63C22.784 97.828 23.0847 98.0957 23.2827 98.433C23.4807 98.7703 23.5797 99.1553 23.5797 99.588C23.5797 100.116 23.4257 100.582 23.1177 100.985C22.817 101.388 22.3624 101.656 21.7537 101.788L23.6787 105H22.4797ZM19.4437 101.062H20.9177C21.4604 101.062 21.8674 100.93 22.1387 100.666C22.41 100.395 22.5457 100.035 22.5457 99.588C22.5457 99.1333 22.41 98.7813 22.1387 98.532C21.8747 98.2827 21.4677 98.158 20.9177 98.158H19.4437V101.062ZM30.6351 101.755C30.6351 101.946 30.6241 102.147 30.6021 102.36H25.7841C25.8208 102.954 26.0224 103.42 26.3891 103.757C26.7631 104.087 27.2141 104.252 27.7421 104.252C28.1748 104.252 28.5341 104.153 28.8201 103.955C29.1134 103.75 29.3188 103.478 29.4361 103.141H30.5141C30.3528 103.72 30.0301 104.193 29.5461 104.56C29.0621 104.919 28.4608 105.099 27.7421 105.099C27.1701 105.099 26.6568 104.971 26.2021 104.714C25.7548 104.457 25.4028 104.094 25.1461 103.625C24.8894 103.148 24.7611 102.598 24.7611 101.975C24.7611 101.352 24.8858 100.805 25.1351 100.336C25.3844 99.8667 25.7328 99.5073 26.1801 99.258C26.6348 99.0013 27.1554 98.873 27.7421 98.873C28.3141 98.873 28.8201 98.9977 29.2601 99.247C29.7001 99.4963 30.0374 99.841 30.2721 100.281C30.5141 100.714 30.6351 101.205 30.6351 101.755ZM29.6011 101.546C29.6011 101.165 29.5168 100.838 29.3481 100.567C29.1794 100.288 28.9484 100.079 28.6551 99.94C28.3691 99.7933 28.0501 99.72 27.6981 99.72C27.1921 99.72 26.7594 99.8813 26.4001 100.204C26.0481 100.527 25.8464 100.974 25.7951 101.546H29.6011ZM28.7761 97.267L26.4331 98.521V97.773L28.7761 96.398V97.267ZM39.2054 98.862C39.6747 98.862 40.0927 98.961 40.4594 99.159C40.826 99.3497 41.1157 99.6393 41.3284 100.028C41.541 100.417 41.6474 100.89 41.6474 101.447V105H40.6574V101.59C40.6574 100.989 40.507 100.53 40.2064 100.215C39.913 99.8923 39.5134 99.731 39.0074 99.731C38.4867 99.731 38.0724 99.8997 37.7644 100.237C37.4564 100.567 37.3024 101.047 37.3024 101.678V105H36.3124V101.59C36.3124 100.989 36.162 100.53 35.8614 100.215C35.568 99.8923 35.1684 99.731 34.6624 99.731C34.1417 99.731 33.7274 99.8997 33.4194 100.237C33.1114 100.567 32.9574 101.047 32.9574 101.678V105H31.9564V98.972H32.9574V99.841C33.1554 99.5257 33.4194 99.2837 33.7494 99.115C34.0867 98.9463 34.457 98.862 34.8604 98.862C35.3664 98.862 35.8137 98.9757 36.2024 99.203C36.591 99.4303 36.8807 99.764 37.0714 100.204C37.24 99.7787 37.5187 99.4487 37.9074 99.214C38.296 98.9793 38.7287 98.862 39.2054 98.862ZM43.8064 97.993C43.6157 97.993 43.4544 97.927 43.3224 97.795C43.1904 97.663 43.1244 97.5017 43.1244 97.311C43.1244 97.1203 43.1904 96.959 43.3224 96.827C43.4544 96.695 43.6157 96.629 43.8064 96.629C43.9897 96.629 44.1437 96.695 44.2684 96.827C44.4004 96.959 44.4664 97.1203 44.4664 97.311C44.4664 97.5017 44.4004 97.663 44.2684 97.795C44.1437 97.927 43.9897 97.993 43.8064 97.993ZM44.2904 98.972V105H43.2894V98.972H44.2904ZM48.4824 98.873C49.0031 98.873 49.4577 98.9867 49.8464 99.214C50.2424 99.4413 50.5357 99.7273 50.7264 100.072V98.972H51.7384V105.132C51.7384 105.682 51.6211 106.17 51.3864 106.595C51.1517 107.028 50.8144 107.365 50.3744 107.607C49.9417 107.849 49.4357 107.97 48.8564 107.97C48.0644 107.97 47.4044 107.783 46.8764 107.409C46.3484 107.035 46.0367 106.525 45.9414 105.88H46.9314C47.0414 106.247 47.2687 106.54 47.6134 106.76C47.9581 106.987 48.3724 107.101 48.8564 107.101C49.4064 107.101 49.8537 106.929 50.1984 106.584C50.5504 106.239 50.7264 105.755 50.7264 105.132V103.867C50.5284 104.219 50.2351 104.512 49.8464 104.747C49.4577 104.982 49.0031 105.099 48.4824 105.099C47.9471 105.099 47.4594 104.967 47.0194 104.703C46.5867 104.439 46.2457 104.069 45.9964 103.592C45.7471 103.115 45.6224 102.573 45.6224 101.964C45.6224 101.348 45.7471 100.809 45.9964 100.347C46.2457 99.8777 46.5867 99.5147 47.0194 99.258C47.4594 99.0013 47.9471 98.873 48.4824 98.873ZM50.7264 101.975C50.7264 101.52 50.6347 101.124 50.4514 100.787C50.2681 100.45 50.0187 100.193 49.7034 100.017C49.3954 99.8337 49.0544 99.742 48.6804 99.742C48.3064 99.742 47.9654 99.83 47.6574 100.006C47.3494 100.182 47.1037 100.439 46.9204 100.776C46.7371 101.113 46.6454 101.509 46.6454 101.964C46.6454 102.426 46.7371 102.829 46.9204 103.174C47.1037 103.511 47.3494 103.772 47.6574 103.955C47.9654 104.131 48.3064 104.219 48.6804 104.219C49.0544 104.219 49.3954 104.131 49.7034 103.955C50.0187 103.772 50.2681 103.511 50.4514 103.174C50.6347 102.829 50.7264 102.43 50.7264 101.975ZM58.93 101.755C58.93 101.946 58.919 102.147 58.897 102.36H54.079C54.1157 102.954 54.3173 103.42 54.684 103.757C55.058 104.087 55.509 104.252 56.037 104.252C56.4697 104.252 56.829 104.153 57.115 103.955C57.4083 103.75 57.6137 103.478 57.731 103.141H58.809C58.6477 103.72 58.325 104.193 57.841 104.56C57.357 104.919 56.7557 105.099 56.037 105.099C55.465 105.099 54.9517 104.971 54.497 104.714C54.0497 104.457 53.6977 104.094 53.441 103.625C53.1843 103.148 53.056 102.598 53.056 101.975C53.056 101.352 53.1807 100.805 53.43 100.336C53.6793 99.8667 54.0277 99.5073 54.475 99.258C54.9297 99.0013 55.4503 98.873 56.037 98.873C56.609 98.873 57.115 98.9977 57.555 99.247C57.995 99.4963 58.3323 99.841 58.567 100.281C58.809 100.714 58.93 101.205 58.93 101.755ZM57.896 101.546C57.896 101.165 57.8117 100.838 57.643 100.567C57.4743 100.288 57.2433 100.079 56.95 99.94C56.664 99.7933 56.345 99.72 55.993 99.72C55.487 99.72 55.0543 99.8813 54.695 100.204C54.343 100.527 54.1413 100.974 54.09 101.546H57.896ZM7.75053 118.099C7.28853 118.099 6.8742 118.022 6.50753 117.868C6.14086 117.707 5.8512 117.487 5.63853 117.208C5.42586 116.922 5.30853 116.596 5.28653 116.229H6.32053C6.34986 116.53 6.4892 116.775 6.73853 116.966C6.9952 117.157 7.32886 117.252 7.73953 117.252C8.12086 117.252 8.42153 117.168 8.64153 116.999C8.86153 116.83 8.97153 116.618 8.97153 116.361C8.97153 116.097 8.8542 115.903 8.61953 115.778C8.38486 115.646 8.02186 115.518 7.53053 115.393C7.0832 115.276 6.71653 115.158 6.43053 115.041C6.15186 114.916 5.90986 114.737 5.70453 114.502C5.50653 114.26 5.40753 113.945 5.40753 113.556C5.40753 113.248 5.4992 112.966 5.68253 112.709C5.86586 112.452 6.1262 112.251 6.46353 112.104C6.80086 111.95 7.18586 111.873 7.61853 111.873C8.28586 111.873 8.82486 112.042 9.23553 112.379C9.6462 112.716 9.8662 113.178 9.89553 113.765H8.89453C8.87253 113.45 8.7442 113.197 8.50953 113.006C8.2822 112.815 7.9742 112.72 7.58553 112.72C7.2262 112.72 6.9402 112.797 6.72753 112.951C6.51486 113.105 6.40853 113.307 6.40853 113.556C6.40853 113.754 6.47086 113.919 6.59553 114.051C6.72753 114.176 6.88886 114.278 7.07953 114.359C7.27753 114.432 7.54886 114.517 7.89353 114.612C8.3262 114.729 8.6782 114.847 8.94953 114.964C9.22086 115.074 9.45186 115.243 9.64253 115.47C9.84053 115.697 9.9432 115.994 9.95053 116.361C9.95053 116.691 9.85886 116.988 9.67553 117.252C9.4922 117.516 9.23186 117.725 8.89453 117.879C8.56453 118.026 8.1832 118.099 7.75053 118.099ZM16.8636 114.755C16.8636 114.946 16.8526 115.147 16.8306 115.36H12.0126C12.0493 115.954 12.2509 116.42 12.6176 116.757C12.9916 117.087 13.4426 117.252 13.9706 117.252C14.4033 117.252 14.7626 117.153 15.0486 116.955C15.3419 116.75 15.5473 116.478 15.6646 116.141H16.7426C16.5813 116.72 16.2586 117.193 15.7746 117.56C15.2906 117.919 14.6893 118.099 13.9706 118.099C13.3986 118.099 12.8853 117.971 12.4306 117.714C11.9833 117.457 11.6313 117.094 11.3746 116.625C11.1179 116.148 10.9896 115.598 10.9896 114.975C10.9896 114.352 11.1143 113.805 11.3636 113.336C11.6129 112.867 11.9613 112.507 12.4086 112.258C12.8633 112.001 13.3839 111.873 13.9706 111.873C14.5426 111.873 15.0486 111.998 15.4886 112.247C15.9286 112.496 16.2659 112.841 16.5006 113.281C16.7426 113.714 16.8636 114.205 16.8636 114.755ZM15.8296 114.546C15.8296 114.165 15.7453 113.838 15.5766 113.567C15.4079 113.288 15.1769 113.079 14.8836 112.94C14.5976 112.793 14.2786 112.72 13.9266 112.72C13.4206 112.72 12.9879 112.881 12.6286 113.204C12.2766 113.527 12.0749 113.974 12.0236 114.546H15.8296ZM17.8109 114.975C17.8109 114.352 17.9356 113.809 18.1849 113.347C18.4342 112.878 18.7789 112.515 19.2189 112.258C19.6662 112.001 20.1759 111.873 20.7479 111.873C21.4886 111.873 22.0972 112.053 22.5739 112.412C23.0579 112.771 23.3769 113.27 23.5309 113.908H22.4529C22.3502 113.541 22.1486 113.252 21.8479 113.039C21.5546 112.826 21.1879 112.72 20.7479 112.72C20.1759 112.72 19.7139 112.918 19.3619 113.314C19.0099 113.703 18.8339 114.256 18.8339 114.975C18.8339 115.701 19.0099 116.262 19.3619 116.658C19.7139 117.054 20.1759 117.252 20.7479 117.252C21.1879 117.252 21.5546 117.149 21.8479 116.944C22.1412 116.739 22.3429 116.445 22.4529 116.064H23.5309C23.3696 116.68 23.0469 117.175 22.5629 117.549C22.0789 117.916 21.4739 118.099 20.7479 118.099C20.1759 118.099 19.6662 117.971 19.2189 117.714C18.7789 117.457 18.4342 117.094 18.1849 116.625C17.9356 116.156 17.8109 115.606 17.8109 114.975ZM27.4955 118.099C26.9309 118.099 26.4175 117.971 25.9555 117.714C25.5009 117.457 25.1415 117.094 24.8775 116.625C24.6209 116.148 24.4925 115.598 24.4925 114.975C24.4925 114.359 24.6245 113.816 24.8885 113.347C25.1599 112.87 25.5265 112.507 25.9885 112.258C26.4505 112.001 26.9675 111.873 27.5395 111.873C28.1115 111.873 28.6285 112.001 29.0905 112.258C29.5525 112.507 29.9155 112.867 30.1795 113.336C30.4509 113.805 30.5865 114.352 30.5865 114.975C30.5865 115.598 30.4472 116.148 30.1685 116.625C29.8972 117.094 29.5269 117.457 29.0575 117.714C28.5882 117.971 28.0675 118.099 27.4955 118.099ZM27.4955 117.219C27.8549 117.219 28.1922 117.135 28.5075 116.966C28.8229 116.797 29.0759 116.544 29.2665 116.207C29.4645 115.87 29.5635 115.459 29.5635 114.975C29.5635 114.491 29.4682 114.08 29.2775 113.743C29.0869 113.406 28.8375 113.156 28.5295 112.995C28.2215 112.826 27.8879 112.742 27.5285 112.742C27.1619 112.742 26.8245 112.826 26.5165 112.995C26.2159 113.156 25.9739 113.406 25.7905 113.743C25.6072 114.08 25.5155 114.491 25.5155 114.975C25.5155 115.466 25.6035 115.881 25.7795 116.218C25.9629 116.555 26.2049 116.808 26.5055 116.977C26.8062 117.138 27.1362 117.219 27.4955 117.219ZM34.8397 111.862C35.573 111.862 36.167 112.086 36.6217 112.533C37.0763 112.973 37.3037 113.611 37.3037 114.447V118H36.3137V114.59C36.3137 113.989 36.1633 113.53 35.8627 113.215C35.562 112.892 35.1513 112.731 34.6307 112.731C34.1027 112.731 33.681 112.896 33.3657 113.226C33.0577 113.556 32.9037 114.036 32.9037 114.667V118H31.9027V111.972H32.9037V112.83C33.1017 112.522 33.3693 112.284 33.7067 112.115C34.0513 111.946 34.429 111.862 34.8397 111.862ZM38.5648 114.964C38.5648 114.348 38.6895 113.809 38.9388 113.347C39.1881 112.878 39.5291 112.515 39.9618 112.258C40.4018 112.001 40.8931 111.873 41.4358 111.873C41.9051 111.873 42.3415 111.983 42.7448 112.203C43.1481 112.416 43.4561 112.698 43.6688 113.05V109.86H44.6808V118H43.6688V116.867C43.4708 117.226 43.1775 117.523 42.7888 117.758C42.4001 117.985 41.9455 118.099 41.4248 118.099C40.8895 118.099 40.4018 117.967 39.9618 117.703C39.5291 117.439 39.1881 117.069 38.9388 116.592C38.6895 116.115 38.5648 115.573 38.5648 114.964ZM43.6688 114.975C43.6688 114.52 43.5771 114.124 43.3938 113.787C43.2105 113.45 42.9611 113.193 42.6458 113.017C42.3378 112.834 41.9968 112.742 41.6228 112.742C41.2488 112.742 40.9078 112.83 40.5998 113.006C40.2918 113.182 40.0461 113.439 39.8628 113.776C39.6795 114.113 39.5878 114.509 39.5878 114.964C39.5878 115.426 39.6795 115.829 39.8628 116.174C40.0461 116.511 40.2918 116.772 40.5998 116.955C40.9078 117.131 41.2488 117.219 41.6228 117.219C41.9968 117.219 42.3378 117.131 42.6458 116.955C42.9611 116.772 43.2105 116.511 43.3938 116.174C43.5771 115.829 43.6688 115.43 43.6688 114.975ZM45.9984 114.964C45.9984 114.348 46.1231 113.809 46.3724 113.347C46.6217 112.878 46.9627 112.515 47.3954 112.258C47.8354 112.001 48.3231 111.873 48.8584 111.873C49.3864 111.873 49.8447 111.987 50.2334 112.214C50.6221 112.441 50.9117 112.727 51.1024 113.072V111.972H52.1144V118H51.1024V116.878C50.9044 117.23 50.6074 117.523 50.2114 117.758C49.8227 117.985 49.3681 118.099 48.8474 118.099C48.3121 118.099 47.8281 117.967 47.3954 117.703C46.9627 117.439 46.6217 117.069 46.3724 116.592C46.1231 116.115 45.9984 115.573 45.9984 114.964ZM51.1024 114.975C51.1024 114.52 51.0107 114.124 50.8274 113.787C50.6441 113.45 50.3947 113.193 50.0794 113.017C49.7714 112.834 49.4304 112.742 49.0564 112.742C48.6824 112.742 48.3414 112.83 48.0334 113.006C47.7254 113.182 47.4797 113.439 47.2964 113.776C47.1131 114.113 47.0214 114.509 47.0214 114.964C47.0214 115.426 47.1131 115.829 47.2964 116.174C47.4797 116.511 47.7254 116.772 48.0334 116.955C48.3414 117.131 48.6824 117.219 49.0564 117.219C49.4304 117.219 49.7714 117.131 50.0794 116.955C50.3947 116.772 50.6441 116.511 50.8274 116.174C51.0107 115.829 51.1024 115.43 51.1024 114.975ZM54.323 110.993C54.1323 110.993 53.971 110.927 53.839 110.795C53.707 110.663 53.641 110.502 53.641 110.311C53.641 110.12 53.707 109.959 53.839 109.827C53.971 109.695 54.1323 109.629 54.323 109.629C54.5063 109.629 54.6603 109.695 54.785 109.827C54.917 109.959 54.983 110.12 54.983 110.311C54.983 110.502 54.917 110.663 54.785 110.795C54.6603 110.927 54.5063 110.993 54.323 110.993ZM54.807 111.972V118H53.806V111.972H54.807ZM57.514 112.951C57.69 112.606 57.9393 112.339 58.262 112.148C58.592 111.957 58.9917 111.862 59.461 111.862V112.896H59.197C58.075 112.896 57.514 113.505 57.514 114.722V118H56.513V111.972H57.514V112.951ZM66.1165 114.755C66.1165 114.946 66.1055 115.147 66.0835 115.36H61.2655C61.3022 115.954 61.5039 116.42 61.8705 116.757C62.2445 117.087 62.6955 117.252 63.2235 117.252C63.6562 117.252 64.0155 117.153 64.3015 116.955C64.5949 116.75 64.8002 116.478 64.9175 116.141H65.9955C65.8342 116.72 65.5115 117.193 65.0275 117.56C64.5435 117.919 63.9422 118.099 63.2235 118.099C62.6515 118.099 62.1382 117.971 61.6835 117.714C61.2362 117.457 60.8842 117.094 60.6275 116.625C60.3709 116.148 60.2425 115.598 60.2425 114.975C60.2425 114.352 60.3672 113.805 60.6165 113.336C60.8659 112.867 61.2142 112.507 61.6615 112.258C62.1162 112.001 62.6369 111.873 63.2235 111.873C63.7955 111.873 64.3015 111.998 64.7415 112.247C65.1815 112.496 65.5189 112.841 65.7535 113.281C65.9955 113.714 66.1165 114.205 66.1165 114.755ZM65.0825 114.546C65.0825 114.165 64.9982 113.838 64.8295 113.567C64.6609 113.288 64.4299 113.079 64.1365 112.94C63.8505 112.793 63.5315 112.72 63.1795 112.72C62.6735 112.72 62.2409 112.881 61.8815 113.204C61.5295 113.527 61.3279 113.974 61.2765 114.546H65.0825ZM71.3714 110.333V118H70.3704V110.333H71.3714Z" fill="#F5EFE7"/>
<g clip-path="url(#clip0_226_2608)">
<path d="M36.575 79.3891C37.0439 79.2572 37.5325 79.2406 38.0167 79.4691L38.0174 79.4695C38.0757 79.498 38.1104 79.5442 38.1214 79.5971C38.132 79.6483 38.1195 79.7007 38.0945 79.7437C38.0449 79.8286 37.9335 79.893 37.8133 79.8344C37.2546 79.5693 36.6619 79.7418 36.1105 80.0119C36.4673 80.0344 36.817 80.1223 37.1427 80.313L37.1435 80.3134C37.1987 80.3472 37.23 80.3961 37.2395 80.4491C37.2488 80.5009 37.2368 80.5534 37.2119 80.5964C37.1869 80.6394 37.1473 80.6758 37.0976 80.693C37.0466 80.7107 36.9886 80.7067 36.9322 80.6744L36.9316 80.6741C36.315 80.3099 35.5803 80.3959 34.892 80.5718C34.812 80.6224 34.7426 80.6629 34.6904 80.6934C34.6727 80.7037 34.657 80.7129 34.6435 80.7209L34.5612 81.2699C34.3616 82.6013 34.1749 83.8465 34.0012 84.9911C33.6361 87.4149 33.3332 89.427 33.1217 90.9046C33.0159 91.6434 32.933 92.2483 32.8766 92.7041C32.8199 93.1612 32.7903 93.4651 32.7903 93.6041C32.7903 93.9448 32.5815 94.3018 32.2911 94.5714C32.0001 94.8413 31.6171 95.0331 31.2546 95.0331C30.9601 95.0331 30.7132 94.9071 30.5392 94.6747L30.5391 94.6745C30.3569 94.4296 30.2675 94.066 30.2675 93.6041C30.2675 93.2962 30.3541 92.716 30.5243 91.7947C30.6913 90.8905 30.9398 89.653 31.2692 88.0128L31.29 87.9093L31.29 87.9092C31.6862 85.9533 32.1835 83.4743 32.7777 80.3963C32.7713 80.3717 32.7673 80.3443 32.7695 80.3155C32.7683 80.314 32.7672 80.3126 32.7664 80.3115L32.766 80.3111C32.7622 80.3062 32.7584 80.3014 32.7531 80.2959C32.7423 80.2871 32.7318 80.2776 32.7223 80.2691L32.7216 80.2685C32.7109 80.2587 32.7014 80.2502 32.6922 80.2428L32.6899 80.241L32.69 80.241C32.649 80.204 32.6036 80.1668 32.5618 80.1332C32.4739 80.0661 32.3819 79.9991 32.29 79.9363C32.1023 79.8109 31.9107 79.7024 31.7068 79.6107L31.7066 79.6106C31.2942 79.4228 30.8482 79.3099 30.3978 79.2723C30.2643 79.2612 30.2 79.1497 30.2 79.0512C30.2 79.0015 30.2158 78.9501 30.2511 78.9115C30.2877 78.8717 30.3412 78.85 30.4061 78.8554L30.4062 78.8554C30.7718 78.8864 31.1301 78.9602 31.4749 79.0767C30.8214 78.7094 30.0793 78.465 29.3695 78.238L29.3847 78.1904M36.575 79.3891L49.1565 33.0193C47.6343 24.8246 43.3739 17.6422 38.7974 15.5457C37.1976 14.8139 35.6908 14.8139 34.4287 15.5584C30.765 18.2951 30.7143 20.8838 30.6046 26.5561L30.6041 26.5778C30.5155 31.0574 30.3817 37.8203 28.2831 48.2893C23.8384 70.4243 32.2845 77.7886 33.192 78.5034C33.161 78.6585 33.1329 78.8108 33.1052 78.9603C33.1036 78.969 33.102 78.9777 33.1004 78.9864C33.0876 78.9647 33.0746 78.943 33.0616 78.9213M36.575 79.3891C37.4019 78.8596 38.4007 78.6265 39.3828 78.735L39.3831 78.735C39.4479 78.7418 39.5018 78.7213 39.5388 78.6818C39.5744 78.6436 39.5902 78.5922 39.5902 78.5425C39.5902 78.4442 39.5263 78.3324 39.3938 78.3184M36.575 79.3891L49.2065 33.0147M29.3847 78.1904L29.3701 78.2382C29.3078 78.2192 29.2654 78.1789 29.2431 78.1295C29.2214 78.0812 29.2199 78.0269 29.2331 77.9789C29.2463 77.9308 29.2753 77.8852 29.3194 77.8564C29.3649 77.8268 29.4224 77.818 29.4846 77.8383C29.4846 77.8383 29.4847 77.8383 29.4847 77.8383L29.4691 77.8859M29.3847 78.1904C29.1906 78.1312 29.275 77.8224 29.4691 77.8859M29.3847 78.1904C30.1799 78.4446 31.0226 78.7227 31.7361 79.1742L29.4691 77.8859M29.4691 77.8859C30.4224 78.1875 31.4216 78.5281 32.2246 79.1242C32.1615 79.0567 32.0966 78.991 32.0301 78.9272M32.0301 78.9272C32.1076 78.9783 32.1836 79.0314 32.258 79.0868C31.3655 78.1326 30.1138 77.5568 28.9246 77.0399M32.0301 78.9272C31.1631 78.0955 30.0116 77.5669 28.9047 77.0857M32.0301 78.9272L49.2065 33.0147M28.9246 77.0399C28.7389 76.9595 28.8993 76.6846 29.085 76.7649C30.4134 77.3449 31.7918 78.0072 32.7203 79.1442C32.6626 79.0486 32.6027 78.9546 32.5406 78.8622M28.9246 77.0399L28.9047 77.0857M28.9246 77.0399L28.9048 77.0858C28.9048 77.0858 28.9047 77.0857 28.9047 77.0857M32.5406 78.8622C32.6166 78.9439 32.6903 79.0282 32.7613 79.1153C31.8333 77.5792 30.3238 76.4361 28.5827 75.9782M32.5406 78.8622C31.6105 77.478 30.1913 76.4529 28.57 76.0265L28.5827 75.9782M32.5406 78.8622C31.6136 77.8654 30.3329 77.2552 29.105 76.7191L29.1049 76.719C28.9831 76.6663 28.8718 76.7322 28.8224 76.8169C28.7974 76.8597 28.7849 76.9121 28.7965 76.9628C28.8085 77.0156 28.8451 77.0599 28.9047 77.0857M28.5827 75.9782C28.3844 75.9274 28.4688 75.6229 28.6672 75.6736C30.4955 76.1536 32.0854 77.3707 33.0478 78.9958C33.0506 78.981 33.0533 78.9662 33.056 78.9514C33.0579 78.9414 33.0597 78.9314 33.0616 78.9213M28.5827 75.9782L28.5703 76.0266C28.5071 76.0104 28.4629 75.9725 28.4393 75.9238C28.4164 75.8764 28.4147 75.8224 28.428 75.7745C28.4413 75.7265 28.4706 75.681 28.5143 75.6513C28.5591 75.6209 28.6164 75.609 28.6796 75.6252L28.6799 75.6253C30.5027 76.1038 32.0898 77.3096 33.0616 78.9213M33.0616 78.9213C33.0857 78.791 33.1103 78.6584 33.137 78.5236C32.6246 78.1133 30.329 76.0762 28.6834 71.4457C27.0104 66.7383 26.0103 59.3541 28.234 48.2795C30.3318 37.8149 30.4655 31.0554 30.5541 26.577L30.5546 26.5551L30.5546 26.5551L30.5547 26.5508C30.6094 23.7193 30.6495 21.6478 31.1358 19.9427C31.6236 18.2321 32.5597 16.8921 34.3988 15.5183L34.4032 15.515L34.4033 15.5153C35.6825 14.7607 37.2071 14.7633 38.8181 15.5002L38.8182 15.5002C41.121 16.5552 43.3383 18.8871 45.1691 21.9766C46.9986 25.064 48.4452 28.9131 49.2065 33.0147M49.2065 33.0147L49.2089 33.0145L49.2106 33.0237C49.8299 36.3698 50.1594 38.1502 50.1077 40.9434C50.0559 43.7367 49.6228 47.5435 48.7197 54.949L48.7196 54.9501C47.2282 65.2085 43.4635 71.6758 40.567 75.2988L40.5669 75.2988C39.5072 76.6194 38.4882 77.6676 37.594 78.4784C38.1733 78.3095 38.7851 78.2502 39.3938 78.3184M39.3938 78.3184L39.3883 78.3681M39.3938 78.3184C39.3937 78.3184 39.3936 78.3183 39.3935 78.3183L39.3883 78.3681M39.3883 78.3681C38.7509 78.2966 38.1097 78.3666 37.5067 78.5571L39.3883 78.6853C39.5909 78.7065 39.5909 78.3892 39.3883 78.3681ZM37.4813 78.5127C38.3924 77.6941 39.4385 76.6251 40.5279 75.2675C43.4192 71.651 47.1801 65.1919 48.6701 54.9429L37.4813 78.5127ZM33.5857 84.9423L33.6352 84.9498L33.5857 84.9424L33.5011 85.5058C33.1625 87.7618 32.8882 89.5889 32.6945 90.9417C32.5898 91.6736 32.5086 92.267 32.4536 92.7145C32.3988 93.1609 32.3696 93.4652 32.3696 93.6168C32.3696 93.8355 32.2198 94.0885 31.9976 94.2899C31.7762 94.4907 31.4953 94.6285 31.2504 94.6285C31.0893 94.6285 30.9644 94.5643 30.8681 94.4411C30.7469 94.276 30.6757 93.993 30.6757 93.6168C30.6757 93.3369 30.7642 92.7509 30.9365 91.8224C31.1084 90.896 31.3627 89.6339 31.6919 88.0052L31.6919 88.0052C31.7271 87.83 31.7632 87.6507 31.8 87.4671C32.1784 85.5843 32.6467 83.2545 33.1952 80.4143C33.2269 80.3886 33.2529 80.354 33.2656 80.3127C33.2808 80.2635 33.2758 80.2086 33.2449 80.1554C34.5784 73.2527 36.388 63.3811 38.6103 49.6127L38.6104 49.6128L38.6107 49.6102C39.1589 44.6267 39.3132 40.4158 39.1901 36.763C39.8066 47.7468 37.895 58.4316 36.4407 66.56L36.4351 66.5917C36.4351 66.5917 36.4351 66.5917 36.4351 66.5917C36.013 68.939 35.6499 70.9702 35.3922 72.769C34.7222 77.395 34.1162 81.4193 33.625 84.6817L33.5857 84.9423ZM36.8458 66.6728L36.8459 66.6728L36.8492 66.6538C39.2041 53.4929 42.7636 33.5989 34.8751 16.523L34.8551 16.4796L34.8109 16.4976L34.5196 16.616L34.4752 16.6341L34.4914 16.6793C35.8716 20.5179 37.2736 24.4182 38.0932 29.5186C38.9128 34.6187 39.1503 40.9205 38.1991 49.56C36.1859 62.0271 34.5117 71.2939 33.2265 78.0622C32.5003 77.4276 30.3672 75.2713 28.8856 70.763C27.3566 66.1102 26.5206 58.9495 28.6444 48.3668C30.7524 37.8636 30.8863 31.0802 30.9749 26.5867L30.9753 26.5655L30.9756 26.5547C31.0304 23.7746 31.0701 21.7579 31.5333 20.1068C31.9956 18.4589 32.8804 17.1738 34.6337 15.8623C35.7724 15.1929 37.155 15.1948 38.6456 15.8787L38.6457 15.8788C40.4721 16.713 42.5729 18.6545 44.4366 21.5722C46.2996 24.4888 47.9234 28.3773 48.7982 33.1004L48.7991 33.1052C49.4148 36.4312 49.7406 38.1912 49.6885 40.9622C49.6363 43.7369 49.2052 47.5248 48.3039 54.9066C45.7706 72.3136 36.6589 78.9599 34.7178 80.1963C35.0523 77.9585 35.4155 75.5017 35.8036 72.8341C36.0651 71.0416 36.4237 69.0163 36.8458 66.6728Z" fill="#F5EFE7" stroke="#F5EFE7" stroke-width="0.1"/>
</g>
<defs>
<clipPath id="clip0_226_2608">
<rect width="23.0631" height="80" fill="white" transform="translate(27 15)"/>
</clipPath>
</defs>
</svg>
