<svg width="61" height="66" viewBox="0 0 61 66" fill="none" xmlns="http://www.w3.org/2000/svg">
<path d="M0 0H61V62C61 64.2091 59.2091 66 57 66H4C1.79086 66 0 64.2091 0 62V0Z" fill="#B6DCFA"/>
<path d="M40.5389 20.5812C40.5401 20.5762 40.5401 20.5713 40.5411 20.5663C40.5572 20.4954 40.552 20.4214 40.526 20.3535C40.5 20.2856 40.4545 20.227 40.3952 20.185C40.3359 20.1429 40.2654 20.1195 40.1928 20.1175C40.1201 20.1155 40.0485 20.1351 39.987 20.1738C39.9811 20.1775 39.9751 20.1807 39.9694 20.1847C39.6972 20.3562 36.8438 22.2883 34.8199 28.8506V23.5511H35.0179C35.3167 23.5507 35.6032 23.4318 35.8146 23.2205C36.0259 23.0092 36.1449 22.7227 36.1454 22.4239V15.398C36.145 15.0989 36.026 14.8123 35.8146 14.6009C35.6031 14.3895 35.3164 14.2705 35.0174 14.2702H34.8177V12.8712C34.8177 12.7728 34.7786 12.6783 34.709 12.6087C34.6393 12.5391 34.5449 12.5 34.4465 12.5C34.348 12.5 34.2536 12.5391 34.184 12.6087C34.1144 12.6783 34.0753 12.7728 34.0753 12.8712V14.2702H33.8755C33.5765 14.2705 33.2898 14.3895 33.0784 14.6009C32.8669 14.8123 32.7479 15.0989 32.7475 15.398V22.4239C32.7479 22.7229 32.8669 23.0096 33.0784 23.221C33.2898 23.4324 33.5765 23.5513 33.8755 23.5516H34.0765V30.679L31.9977 28.2013C31.9365 28.1282 31.8495 28.0815 31.7548 28.0708C31.66 28.0601 31.5648 28.0862 31.4889 28.1438C31.4129 28.2014 31.362 28.286 31.3467 28.3801C31.3314 28.4742 31.3529 28.5705 31.4067 28.6492C32.0605 29.6062 32.2773 32.2839 32.3444 33.5352H29.8981V26.3627H30.096C30.3951 26.3624 30.6818 26.2434 30.8932 26.0319C31.1047 25.8205 31.2237 25.5338 31.2241 25.2347V18.2096C31.2237 17.9105 31.1047 17.6238 30.8932 17.4124C30.6818 17.2009 30.3951 17.082 30.096 17.0816H29.8963V15.6828C29.8963 15.5844 29.8572 15.4899 29.7876 15.4203C29.718 15.3507 29.6236 15.3116 29.5251 15.3116C29.4267 15.3116 29.3322 15.3507 29.2626 15.4203C29.193 15.4899 29.1539 15.5844 29.1539 15.6828V17.0816H28.9542C28.6551 17.082 28.3685 17.2009 28.157 17.4124C27.9455 17.6238 27.8266 17.9105 27.8262 18.2096V25.2347C27.8266 25.5338 27.9455 25.8205 28.157 26.0319C28.3685 26.2434 28.6551 26.3624 28.9542 26.3627H29.1544V33.5339H28.8406L26.539 25.1563C26.4805 24.9675 26.3811 24.794 26.2479 24.648C26.1147 24.502 25.951 24.3872 25.7684 24.3116C24.8889 23.8568 23.4842 23.7672 23.4248 23.7627C23.3706 23.7592 23.3164 23.7676 23.2659 23.7874C23.2154 23.8073 23.1699 23.8381 23.1327 23.8776C22.1067 24.9583 21.5167 29.4307 21.4529 29.9373C21.4423 30.021 21.4606 30.1057 21.5046 30.1776C21.5486 30.2495 21.6158 30.3043 21.6951 30.3329C21.7744 30.3615 21.8611 30.3623 21.9409 30.3351C22.0207 30.3079 22.0888 30.2544 22.1342 30.1833C22.1567 30.1477 24.3058 26.7807 25.6716 25.1293C25.7419 25.1834 25.7938 25.2579 25.8201 25.3426L28.0722 33.5342H26.6123L24.8598 26.4816C24.8392 26.3869 24.7822 26.3039 24.7012 26.2506C24.6201 26.1973 24.5214 26.1778 24.4262 26.1963C24.331 26.2149 24.2468 26.27 24.1917 26.3498C24.1365 26.4296 24.1149 26.5278 24.1313 26.6234L25.856 33.5339H24.2157C24.1173 33.5339 24.0228 33.573 23.9532 33.6427C23.8836 33.7123 23.8445 33.8067 23.8445 33.9051C23.8445 34.0036 23.8836 34.098 23.9532 34.1676C24.0228 34.2373 24.1173 34.2764 24.2157 34.2764H26.2968C26.3 34.2764 26.3029 34.2781 26.3064 34.2781C26.3099 34.2781 26.3178 34.2781 26.3235 34.2764H28.5476C28.5513 34.2764 28.5545 34.2781 28.558 34.2781C28.5614 34.2781 28.5661 34.2766 28.5703 34.2764H29.5108C29.516 34.2764 29.5209 34.2781 29.5264 34.2781C29.5318 34.2781 29.5367 34.2766 29.5419 34.2764H32.722C32.7308 34.2773 32.7397 34.2777 32.7485 34.2776C32.7515 34.2776 32.7542 34.2776 32.7569 34.2764H36.2862C36.2912 34.2764 36.2961 34.2781 36.3011 34.2781C36.306 34.2781 36.307 34.2766 36.31 34.2764H38.8459C38.9443 34.2764 39.0388 34.2373 39.1084 34.1676C39.178 34.098 39.2171 34.0036 39.2171 33.9051C39.2171 33.8067 39.178 33.7123 39.1084 33.6427C39.0388 33.573 38.9443 33.5339 38.8459 33.5339H36.4726L34.8516 31.6019C36.0269 26.4825 37.7582 23.6331 38.9679 22.1663C37.3422 26.1927 36.554 33.0777 36.5161 33.3549C36.5028 33.4524 36.5288 33.5512 36.5882 33.6296C36.6477 33.7079 36.7359 33.7595 36.8334 33.7729C36.8503 33.7753 36.8673 33.7764 36.8844 33.7764C36.9741 33.7762 37.0608 33.7435 37.1283 33.6844C37.1959 33.6252 37.2397 33.5436 37.2516 33.4546C37.2623 33.3769 38.3405 24.4146 40.4887 20.696C40.4926 20.69 40.4946 20.6826 40.4983 20.6762C40.5079 20.6598 40.5162 20.6427 40.5231 20.625C40.5293 20.6107 40.5346 20.5961 40.5389 20.5812ZM33.49 22.4239V15.398C33.4902 15.2958 33.5309 15.1979 33.6031 15.1256C33.6754 15.0534 33.7734 15.0128 33.8755 15.0126H35.0174C35.1196 15.0128 35.2175 15.0534 35.2898 15.1256C35.3621 15.1979 35.4028 15.2958 35.403 15.398V22.4239C35.4028 22.5261 35.3621 22.624 35.2898 22.6962C35.2175 22.7684 35.1196 22.8091 35.0174 22.8092H33.8755C33.7734 22.8091 33.6754 22.7684 33.6031 22.6962C33.5309 22.624 33.4902 22.5261 33.49 22.4239ZM28.5698 25.2347V18.2096C28.57 18.1074 28.6106 18.0094 28.6829 17.9371C28.7552 17.8648 28.8532 17.8241 28.9554 17.824H30.0973C30.1995 17.8241 30.2975 17.8648 30.3698 17.9371C30.4421 18.0094 30.4827 18.1074 30.4829 18.2096V25.2347C30.4827 25.337 30.4421 25.435 30.3698 25.5072C30.2975 25.5795 30.1995 25.6202 30.0973 25.6203H28.9554C28.8532 25.6202 28.7552 25.5795 28.6829 25.5072C28.6106 25.435 28.57 25.337 28.5698 25.2347ZM22.45 28.3411C22.7256 26.8154 23.1323 25.1523 23.5658 24.5198C24.047 24.5638 24.5227 24.655 24.9861 24.792C24.1813 25.7881 23.1738 27.2542 22.45 28.3411ZM33.0883 33.5339C33.0415 32.4188 32.917 31.3083 32.7156 30.2105L34.1369 31.9048C34.1525 31.9285 34.1707 31.9503 34.1913 31.9699L35.503 33.5339H33.0883Z" fill="#021120"/>
<path d="M29.0509 40.3826L28.7128 40.8161C28.347 41.2854 27.5497 41.6432 26.664 41.643C25.7783 41.6432 24.981 41.2854 24.6152 40.8161L23.939 41.3434C24.5261 42.0966 25.5599 42.5002 26.664 42.5C27.6085 42.5002 28.445 42.1487 29.0509 41.5919C29.6569 42.1488 30.4933 42.5002 31.4379 42.5C32.3824 42.5002 33.2188 42.1487 33.8248 41.5919C34.4308 42.1488 35.2672 42.5002 36.2117 42.5C37.3159 42.5002 38.3496 42.0966 38.9368 41.3434L38.2614 40.8161C37.8956 41.2854 37.0974 41.6432 36.2117 41.643C35.3261 41.6432 34.5287 41.2854 34.1629 40.8161L33.8248 40.3826L33.4867 40.8161C33.1209 41.2854 32.3236 41.6432 31.4379 41.643C30.5522 41.6432 29.7549 41.2854 29.3891 40.8161L29.0509 40.3826Z" fill="#021120"/>
<path d="M29.0509 36.767L28.7128 37.2006C28.347 37.6699 27.5497 38.0268 26.664 38.0266C25.7783 38.0268 24.981 37.6699 24.6152 37.2006L23.939 37.727C24.5261 38.4802 25.5599 38.8839 26.664 38.8836C27.6084 38.8838 28.445 38.533 29.0509 37.9764C29.6569 38.5331 30.4935 38.8838 31.4379 38.8836C32.3822 38.8838 33.2188 38.533 33.8248 37.9764C34.4308 38.5331 35.2673 38.8838 36.2117 38.8836C37.3159 38.8839 38.3496 38.4802 38.9368 37.727L38.2614 37.2006C37.8956 37.6699 37.0974 38.0268 36.2117 38.0266C35.3261 38.0268 34.5287 37.6699 34.1629 37.2006L33.8248 36.767L33.4867 37.2006C33.1209 37.6699 32.3236 38.0268 31.4379 38.0266C30.5522 38.0268 29.7549 37.6699 29.3891 37.2006L29.0509 36.767Z" fill="#021120"/>
<path d="M25.0315 48.516V50.38H27.0635V50.98H25.0315V52.9H27.3035V53.5H24.3035V47.916H27.3035V48.516H25.0315ZM28.1331 51.292C28.1331 50.844 28.2237 50.452 28.4051 50.116C28.5864 49.7747 28.8344 49.5107 29.1491 49.324C29.4691 49.1373 29.8237 49.044 30.2131 49.044C30.5971 49.044 30.9304 49.1267 31.2131 49.292C31.4957 49.4573 31.7064 49.6653 31.8451 49.916V49.116H32.5811V53.5H31.8451V52.684C31.7011 52.94 31.4851 53.1533 31.1971 53.324C30.9144 53.4893 30.5837 53.572 30.2051 53.572C29.8157 53.572 29.4637 53.476 29.1491 53.284C28.8344 53.092 28.5864 52.8227 28.4051 52.476C28.2237 52.1293 28.1331 51.7347 28.1331 51.292ZM31.8451 51.3C31.8451 50.9693 31.7784 50.6813 31.6451 50.436C31.5117 50.1907 31.3304 50.004 31.1011 49.876C30.8771 49.7427 30.6291 49.676 30.3571 49.676C30.0851 49.676 29.8371 49.74 29.6131 49.868C29.3891 49.996 29.2104 50.1827 29.0771 50.428C28.9437 50.6733 28.8771 50.9613 28.8771 51.292C28.8771 51.628 28.9437 51.9213 29.0771 52.172C29.2104 52.4173 29.3891 52.6067 29.6131 52.74C29.8371 52.868 30.0851 52.932 30.3571 52.932C30.6291 52.932 30.8771 52.868 31.1011 52.74C31.3304 52.6067 31.5117 52.4173 31.6451 52.172C31.7784 51.9213 31.8451 51.6307 31.8451 51.3ZM37.6993 49.116V53.5H36.9713V52.852C36.8326 53.076 36.638 53.252 36.3873 53.38C36.142 53.5027 35.87 53.564 35.5713 53.564C35.23 53.564 34.9233 53.4947 34.6513 53.356C34.3793 53.212 34.1633 52.9987 34.0033 52.716C33.8486 52.4333 33.7713 52.0893 33.7713 51.684V49.116H34.4913V51.588C34.4913 52.02 34.6006 52.3533 34.8193 52.588C35.038 52.8173 35.3366 52.932 35.7153 52.932C36.1046 52.932 36.4113 52.812 36.6353 52.572C36.8593 52.332 36.9713 51.9827 36.9713 51.524V49.116H37.6993Z" fill="#021120"/>
</svg>
