<svg width="77" height="128" viewBox="0 0 77 128" fill="none" xmlns="http://www.w3.org/2000/svg">
<rect x="0.25" y="0.25" width="76.5" height="127.5" rx="9.75" fill="#F5EFE7" stroke="#2D4941" stroke-width="0.5"/>
<path d="M42.9385 34.8135C42.8663 36.8546 42.2777 38.6644 41.619 40.5774C41.4072 41.1926 41.1841 41.8158 41.0426 42.4524C41.038 42.4732 41.05 42.5352 41.0565 42.5149C41.2869 41.7951 41.4395 41.035 41.6017 40.2996C41.9284 38.8186 42.1978 37.3301 42.4246 35.8309C42.523 35.1802 42.5889 34.512 42.751 33.8725C42.7744 33.7801 42.9179 33.2382 42.9593 33.6815C43.0585 34.7446 42.8402 35.8833 42.6607 36.9246C42.4694 38.0343 42.2075 39.1303 42.001 40.2371C41.8919 40.8219 41.5078 42.5527 41.7301 42.001C42.1152 41.0454 42.1984 39.8483 42.3482 38.8482C42.5771 37.3193 42.8239 35.7642 42.9281 34.2197C42.9405 34.0356 42.9385 33.852 42.9385 33.6677C42.9385 33.6159 42.73 34.4368 42.7093 34.5149C42.1892 36.4782 41.489 38.4611 41.2614 40.4871C41.2349 40.723 41.3062 41.4015 41.1885 41.1954C41.1033 41.0464 41.1628 40.8531 41.1572 40.6815C41.1381 40.0935 41.1321 39.7056 41.1364 39.0947C41.1486 37.3739 41.3474 35.6618 41.376 33.9454C41.3764 33.92 41.3793 33.8438 41.376 33.869C41.3589 34.0001 41.3689 33.9645 41.3343 34.1399C41.2275 34.6817 41.0622 35.2087 40.9732 35.7545C40.815 36.7246 40.7069 37.7023 40.5635 38.6746C40.4948 39.1403 40.4675 39.6094 40.376 40.067C40.2829 40.5323 40.0635 41.9304 40.0635 41.4559C40.0635 40.2765 40.1885 39.1162 40.1885 37.9385C40.1885 36.8746 40.2951 35.7858 40.4524 34.7371C40.5177 34.3015 40.6885 33.8444 40.6885 33.4072C40.6885 32.685 40.777 31.922 40.9072 31.2128C41.0844 30.2484 41.0864 29.298 41.1746 28.3274C41.2879 27.0804 41.4907 25.8293 41.501 24.5774C41.5181 22.4856 41.6183 20.4232 41.4246 18.3413C41.3609 17.6567 41.376 16.9706 41.376 16.2822C41.376 15.8869 40.8512 15.8653 40.8135 15.5635C40.8082 15.521 40.7587 15.4164 40.7371 15.376C40.7082 15.3218 40.6885 15.8283 40.6885 15.9072C40.6885 16.724 40.7238 17.5498 40.685 18.3656C40.6479 19.145 40.376 19.8747 40.376 20.6677C40.376 21.5676 40.2369 22.4635 40.1919 23.3621C40.1213 24.7755 39.8135 26.1987 39.8135 27.6121C39.8135 31.8855 39.8844 36.1674 39.751 40.4385" stroke="#021120" stroke-width="2" stroke-linecap="round"/>
<path d="M40.5009 23.6884C40.4903 23.603 40.1735 24.2104 40.1259 24.3412C40.0605 24.5212 40.1791 23.7141 40.1537 23.7648C40.1042 23.8638 39.8601 24.7925 39.9732 24.3724C40.0582 24.0567 40.0722 23.7881 40.1294 23.4731C40.1886 23.1477 40.1713 23.9267 40.1259 24.0495C40.0222 24.3301 39.9499 24.5916 39.9384 24.8898C39.927 25.1864 39.5257 25.53 40.0009 25.6884" stroke="#021120" stroke-width="2" stroke-linecap="round"/>
<path d="M41.751 29.2509C41.7943 30.578 41.8135 31.9023 41.8135 33.2301C41.8135 34.2536 41.7382 35.3131 41.8482 36.3343C41.8584 36.4288 41.9833 37.2545 41.9975 36.7301C42.0514 34.7346 42.0095 32.7295 41.9975 30.7336C41.9902 29.5251 41.9203 28.3135 41.9385 27.1051C41.9542 26.063 42.3191 27.8273 42.3343 28.0218C42.4987 30.1177 42.3774 32.271 42.3343 34.369C42.2969 36.1905 42.2261 38.0156 42.2649 39.8377C42.2696 40.0594 42.2539 40.5774 42.3899 40.8343C42.4113 40.8748 42.4796 40.7823 42.4871 40.7371C42.6055 40.0268 42.5751 39.2557 42.5982 38.5426C42.6837 35.9087 42.8828 33.2825 42.9871 30.6502C43.0171 29.8934 43.0087 29.1322 42.9697 28.3759C42.908 27.1794 43.0535 28.8847 43.0669 29.0773C43.2704 32.0022 43.2712 34.9355 43.3169 37.8655C43.3396 39.3134 43.2982 40.867 43.7163 42.2718C43.7277 42.3102 43.8423 42.765 43.9385 42.7787C43.9696 42.7832 43.9861 42.7328 43.994 42.7023C44.0533 42.4737 44.059 41.8793 44.0635 41.7475C44.1645 38.7812 44.2074 35.8126 44.1815 32.8447C44.171 31.6419 44.1869 30.4224 44.001 29.2301C43.8578 28.312 44.263 30.0233 44.2649 30.0357C44.6882 32.7958 44.6308 35.5962 44.8065 38.3759C44.9296 40.3228 45.2088 42.2213 45.5357 44.1398C45.5502 44.2249 45.6815 45.3002 45.6815 44.6016C45.6815 42.1264 45.5047 39.6389 45.3343 37.1711C45.1829 34.9779 45.1169 32.6615 44.5426 30.5252C44.5022 30.3749 44.3766 29.8863 44.5149 30.5357C44.7645 31.7081 44.9918 32.8818 45.1746 34.0669C45.5434 36.4588 45.728 38.8743 46.1051 41.2648C46.3012 42.5078 46.4683 43.8358 46.876 45.0357C46.9024 45.1134 47.0021 45.3961 46.9767 45.0739C46.9217 44.3769 46.7778 43.6794 46.6885 42.9871C46.3089 40.0444 46.1246 37.0798 45.7232 34.1398C45.6053 33.2767 45.4636 32.4162 45.3031 31.56C45.2442 31.2462 45.2216 31.1564 45.3551 31.5634C46.0816 33.7773 46.4253 36.0417 46.7301 38.3482C46.9951 40.3532 47.116 42.384 47.4732 44.3759C47.5278 44.6804 47.6999 45.5879 47.6885 45.2787C47.6323 43.7623 47.4393 42.2457 47.3204 40.7336C47.142 38.4639 47.1031 36.1737 46.6572 33.935C46.5094 33.1925 46.2526 32.4398 46.1919 31.6815C46.1812 31.5474 46.3 31.9284 46.3413 32.0565C46.6433 32.9938 46.9169 33.9371 47.1399 34.8968C47.9337 38.3131 48.1654 41.8519 48.7232 45.3134C48.7387 45.4094 48.7534 45.5056 48.7683 45.6016C48.7807 45.6815 48.8068 45.8603 48.7649 45.5704C48.6727 44.9338 48.576 44.2978 48.4871 43.6607C48.1873 41.5125 47.991 39.35 47.6399 37.2093C47.5242 36.504 47.3978 35.8073 47.3794 35.0912C47.3756 34.9417 47.2877 34.2531 47.4975 34.7336C48.7523 37.6075 49.0742 40.7769 49.376 43.8621C49.4596 44.7165 49.5376 45.5741 49.6572 46.4246C49.6784 46.5753 49.7977 47.1633 49.7093 46.6329C49.2059 43.6125 48.8343 40.5712 48.2614 37.5634C48.163 37.0471 48.1097 36.5253 48.0774 36.0009C48.0682 35.8516 48.0511 35.4361 48.1399 35.5565C48.5445 36.1057 48.7438 36.9085 48.9454 37.5426C49.2565 38.5212 49.4831 39.5319 49.6607 40.5426C49.8933 41.8668 50.0571 43.2238 50.1746 44.5634C50.2132 45.0035 50.1469 46.2974 50.2996 45.8829C50.3843 45.6528 50.2203 45.194 50.185 44.9732C50.0323 44.0185 49.9406 43.0567 49.8169 42.0982C49.6665 40.9325 49.6341 39.76 49.501 38.5947C49.4436 38.0923 49.376 37.5727 49.376 37.0669C49.376 36.395 49.634 38.3866 49.7197 39.053C49.8671 40.1996 50.0474 41.3511 50.2649 42.4871C50.3274 42.8136 50.2703 43.2276 50.4072 43.5287C50.4758 43.6795 50.4385 43.3968 50.4385 43.3621C50.4385 42.8835 50.4029 42.4057 50.376 41.928C50.3181 40.901 50.126 39.8367 50.126 38.8134C50.126 38.0093 50.4359 40.3924 50.5496 41.1884C50.633 41.7726 50.6339 42.3822 50.685 42.9697C50.7481 43.695 50.751 44.4248 50.751 45.1537C50.751 45.5983 50.751 45.438 50.751 45.0843C50.751 44.3273 50.751 43.5704 50.751 42.8134C50.751 42.6764 50.7223 41.5126 50.7544 42.1711C50.7984 43.0726 50.9596 43.972 51.0322 44.8725C51.0386 44.9513 51.0708 45.921 51.0635 45.5773C51.0499 44.9395 51.0089 43.0336 50.9385 43.6676C50.8597 44.3763 51.011 45.1671 51.0635 45.8759C51.1051 46.4381 51.126 46.9894 51.126 47.553C51.126 48.1514 51.126 48.7498 51.126 49.3482C51.126 49.9611 51.126 48.7933 51.126 48.6746C51.126 47.8181 51.126 46.9616 51.126 46.1051C51.126 45.8237 51.108 45.562 51.185 45.2926C51.2073 45.2147 51.1855 45.4549 51.1919 45.5357C51.2127 45.7948 51.259 46.0536 51.2822 46.3134C51.3487 47.0584 51.4385 47.786 51.4385 48.5322C51.4385 49.6049 51.4731 50.6827 51.376 51.7509" stroke="#021120" stroke-width="2" stroke-linecap="round"/>
<path d="M42.6258 23.751C42.5533 24.9122 42.5708 26.0699 42.6015 27.2336C42.628 28.2356 42.6681 29.237 42.7369 30.2371C42.7717 30.741 42.7796 31.2859 42.9383 31.7718C42.9567 31.8279 43.05 31.9624 43.0564 31.9038C43.1269 31.2518 43.0497 30.5309 43.0147 29.8829C42.8853 27.4841 42.6191 25.0849 42.2856 22.7058C42.237 22.3597 42.0239 21.3299 42.3203 22.3413C43.073 24.9101 43.5263 27.5608 44.2022 30.1503C44.5484 31.4767 44.842 32.8886 45.3481 34.1676C45.4912 34.5295 45.4117 33.9022 45.4106 33.8899C45.3006 32.7149 45.0757 31.5491 44.8619 30.3899C44.3946 27.8556 43.8012 25.3598 43.2022 22.8551C43.1726 22.7311 43.0554 22.4079 43.0911 22.2649C43.116 22.1652 43.1754 22.4525 43.2092 22.5496C43.3094 22.8382 43.5449 23.5494 43.6189 23.7857C44.4619 26.4782 45.0334 29.2463 45.9106 31.9281C46.1743 32.7346 46.4515 33.5346 46.7717 34.3204C46.8421 34.4932 46.8946 34.6206 46.9592 34.7926C46.9884 34.8705 46.9829 35.0752 47.0494 35.0253C47.0707 35.0093 47.0524 34.9719 47.0494 34.9454C47.0241 34.7176 46.9581 34.3521 46.9175 34.1538C46.6343 32.7686 46.2713 31.397 45.9175 30.0288C45.4825 28.3466 44.9846 26.6658 44.664 24.9558C44.6471 24.8656 44.567 24.6256 44.6397 24.6815C44.8715 24.8598 45.0604 25.7763 45.1328 25.9871C46.0013 28.5165 46.6536 31.1159 47.5356 33.6399C47.6765 34.0432 48.1029 35.2399 48.0425 34.817C47.9939 34.4771 47.8521 34.1173 47.7578 33.7926C47.3959 32.5466 47.038 31.2992 46.6883 30.0496C46.4673 29.2596 46.2496 28.4693 46.0599 27.6711C46.007 27.4485 45.7944 26.7998 45.8967 27.0045C46.1414 27.4939 46.26 28.1312 46.421 28.6468C46.7912 29.8325 47.1337 31.0268 47.5251 32.2058C47.8691 33.2417 48.2276 34.2777 48.6119 35.2996C48.6669 35.4457 48.7188 35.5925 48.7682 35.7406C48.8569 36.0067 48.571 35.2153 48.4731 34.9524C47.7521 33.0166 47.1307 31.0252 46.6258 29.0218C46.5548 28.7398 46.323 27.8996 46.4175 28.1746C46.5941 28.6883 46.8049 29.1904 46.9869 29.7024C47.7118 31.7416 48.3916 33.7885 49.1744 35.8065C49.4072 36.4066 49.6055 37.0477 49.8793 37.6295C50.2538 38.4253 50.4098 39.0082 50.3133 39.876" stroke="#021120" stroke-width="2" stroke-linecap="round"/>
<path d="M45.126 24.001C45.7616 25.3096 46.1729 26.7243 46.7024 28.0774C46.7553 28.2127 47.0668 28.8983 47.06 28.8274C46.9811 27.999 46.6203 27.1966 46.3968 26.4038C46.223 25.7873 46.137 25.0299 45.8482 24.4524C45.6357 24.0274 46.124 25.3624 46.2926 25.8065C46.6431 26.7294 47.5324 29.54 47.3656 28.5669C47.2388 27.8277 47.0021 27.1008 46.8135 26.376C46.7127 25.9889 46.6445 25.3124 46.4072 24.9801C46.109 24.5626 46.6307 25.9829 46.7822 26.4732C47.2526 27.9948 47.9651 29.4573 48.3621 31.001C48.5861 31.8722 48.7916 32.7601 48.9871 33.6399C49.198 34.5888 49.4205 35.5666 49.5044 36.5322C49.5337 36.8685 49.6079 37.1822 49.6885 37.5044C49.7845 37.8887 49.9063 38.2328 49.8725 37.5565C49.8398 36.9022 49.626 36.2479 49.626 35.5947C49.626 35.5283 49.626 36.1345 49.626 36.3135" stroke="#021120" stroke-width="2" stroke-linecap="round"/>
<path d="M42.2508 19.876C42.2633 19.7021 42.3749 19.9756 42.3932 20.0114C42.6969 20.6062 42.936 21.2351 43.1536 21.8655C43.2426 22.1234 43.4612 22.8916 43.4731 22.619C43.4905 22.2177 43.1912 21.6663 43.0772 21.2926C42.929 20.8065 42.7834 20.3197 42.6328 19.8343C42.6037 19.7407 42.3849 19.1646 42.5147 19.5912C42.9334 20.9669 43.5905 22.3142 44.1779 23.626C44.6264 24.6276 43.9617 23.2848 43.855 23.0565C43.203 21.6616 42.7184 20.1691 41.9731 18.8204C41.9305 18.7434 41.7201 18.4815 41.8967 18.6954C42.3208 19.2093 42.6542 19.7609 42.9939 20.3343C43.4293 21.0695 43.8121 21.8285 44.2092 22.5843C44.2361 22.6355 44.4751 23.0667 44.4592 23.0079C44.3719 22.6849 44.1692 22.3725 44.0251 22.0739C43.6537 21.3039 43.3408 20.4987 43.0494 19.6954C42.8427 19.1252 42.6029 18.5766 42.3758 18.0148C42.2284 17.6502 42.0943 17.3409 41.8446 17.0357C41.8229 17.0092 41.6752 16.7118 41.6883 16.7162C42.028 16.8295 42.3249 17.4825 42.5008 17.751C43.0261 18.5526 43.4715 19.4389 43.9349 20.2787C44.6542 21.5826 46.6166 25.5969 45.9106 24.2857C45.2335 23.0283 44.6005 21.7449 43.9244 20.4871C43.5914 19.8675 43.4896 19.1028 43.0946 18.5322C42.9761 18.3611 42.8661 18.1877 42.7508 18.0148C42.4791 17.6072 42.7477 17.965 42.8828 18.1676C43.4553 19.0265 43.9394 19.9695 44.4522 20.8621C44.8283 21.5167 45.1513 22.1307 45.4071 22.8412C45.5555 23.2535 45.7235 23.4988 45.6258 23.9385" stroke="#021120" stroke-width="2" stroke-linecap="round"/>
<path d="M40.2508 41.501C40.1623 42.8834 40.0481 44.3153 39.7021 45.6607C39.4582 46.6095 39.9054 43.7094 40.091 42.7475C40.1347 42.5211 40.1883 42.3084 40.1883 42.0774C40.1883 41.9798 40.0849 42.4573 40.0771 42.5288C40.0098 43.1485 39.9618 43.7809 39.9417 44.4038C39.9216 45.0291 39.9325 44.556 39.973 44.244C40.0538 43.6206 40.3597 42.7655 40.1744 42.1399C40.1604 42.0926 40.1215 41.8604 40.1292 41.9419C40.2205 42.9004 40.256 43.8422 40.2473 44.8065C40.2337 46.3104 40.1297 47.7896 40.0146 49.2857C40.0024 49.445 39.9403 49.9062 40.0146 49.7649C40.132 49.542 40.1486 49.1719 40.1883 48.9315C40.4433 47.3865 40.4752 45.8126 40.6848 44.2614C40.7937 43.4551 40.9521 42.6482 40.9973 41.8343C41.0001 41.7834 41.0039 41.6307 41.0008 41.6815C40.9483 42.5389 40.871 43.3951 40.7994 44.251C40.6322 46.2483 40.4048 48.2587 40.3758 50.2649C40.3621 51.2067 40.4301 50.1255 40.4348 49.8031C40.4514 48.6686 40.3986 47.5444 40.3133 46.4142C40.2876 46.0748 40.3126 45.2749 40.0771 44.9871C40.0071 44.9015 39.9437 44.9523 39.907 45.0461C39.6994 45.5766 39.7651 46.3133 39.7542 46.869C39.7463 47.274 39.7508 47.6793 39.7508 48.0843C39.7508 48.4755 39.7346 47.3008 39.7646 46.9107C39.7896 46.5859 39.8758 46.2733 39.8758 45.9454C39.8758 45.6313 39.8727 46.4699 39.8723 46.4871C39.842 47.7156 39.765 48.9462 39.7508 50.1746C39.7482 50.3944 39.7508 50.6144 39.7508 50.8343C39.7508 51.2302 39.6827 50.0454 39.657 49.6503C39.6204 49.0868 39.6258 48.5237 39.6258 47.9593C39.6258 47.5585 39.7228 48.0393 39.7369 48.1746C39.8796 49.545 39.8022 50.9368 39.973 52.3031C40.0052 52.561 40.0869 53.3014 40.1744 53.0565C40.2553 52.83 40.2379 52.4985 40.2646 52.2649C40.3837 51.2247 40.454 50.1796 40.5771 49.1399C40.6943 48.1506 40.8883 47.1801 41.1883 46.2301C41.1894 46.2264 41.3488 45.7334 41.4035 45.8378C41.6567 46.3211 41.4933 47.4695 41.4869 47.9454C41.4564 50.2122 41.1883 52.4694 41.1883 54.7371C41.1883 54.9473 41.253 55.5166 41.3688 55.3413C41.5314 55.0952 41.6749 54.447 41.716 54.2579C41.8709 53.5468 42.0572 52.3831 42.1605 51.6885C42.5513 49.0591 42.725 46.4314 42.841 43.7788C42.862 43.2995 42.8428 41.8659 42.907 42.3413C42.9574 42.714 42.9409 43.1143 42.9383 43.4871C42.926 45.2189 42.8258 46.9497 42.6744 48.6746C42.4562 51.16 41.9182 53.6679 41.9035 56.1676C41.9028 56.2961 41.9111 56.6567 41.9765 56.5461C42.0794 56.3719 42.0791 56.1543 42.1188 55.9558C42.2193 55.4536 42.3706 54.6552 42.4556 54.1919C43.1588 50.3583 43.3939 46.5343 43.2195 42.6399C43.2116 42.4638 43.2026 42.2877 43.1883 42.1121C43.1775 41.9804 43.2086 41.6332 43.1119 41.7232C42.9374 41.8856 43.0064 42.1886 42.973 42.4246C42.9065 42.8937 42.799 43.7921 42.7508 44.2301C42.3683 47.7001 41.9738 51.2214 42.0146 54.7163C42.0197 55.1499 42.0096 55.6407 42.1292 56.0669C42.2239 56.4044 42.3357 56.3531 42.4105 55.994C42.6683 54.7567 42.6942 53.4352 42.7334 52.1781C42.792 50.2971 42.7055 48.4247 42.5598 46.5496C42.4763 45.4751 42.3662 44.4026 42.2924 43.3274C42.2663 42.9461 42.2508 41.7993 42.2508 42.1815C42.2508 44.8166 42.1144 47.45 42.0633 50.0843C42.0123 52.7099 41.8671 55.4297 42.2785 58.0357C42.3075 58.2193 42.423 58.6988 42.5181 58.5392C42.6479 58.3214 42.7713 57.7256 42.8028 57.5878C42.9965 56.7426 43.1176 56.0858 43.2473 55.2058C43.7686 51.6673 43.932 48.1073 43.9383 44.5357C43.9392 43.9922 43.9293 43.4474 43.9383 42.9038C43.9441 42.547 43.9818 43.6164 43.9869 43.9732C44.0363 47.4489 43.8123 50.9056 43.6049 54.3725C43.5174 55.8362 43.4291 57.3083 43.4799 58.7753C43.4803 58.7848 43.4767 59.9802 43.657 60.0079C43.8869 60.0433 44.7912 51.8909 44.848 51.2996C45.0666 49.023 45.2098 46.741 45.3619 44.4593C45.3835 44.1355 45.4453 43.1874 45.4869 42.7857C45.501 42.6488 45.4426 42.3541 45.5771 42.3829C45.6192 42.3919 45.6183 42.4594 45.6292 42.501C45.7186 42.8418 45.7242 43.2166 45.7334 43.56C45.8019 46.1049 45.6178 48.6621 45.3966 51.1954C45.1956 53.497 44.9108 55.7904 44.7403 58.0947C44.6694 59.0532 44.5478 60.0852 44.6396 61.0496C44.6696 61.3636 44.7886 61.3234 44.8758 61.0288C45.3178 59.5346 45.407 57.8485 45.5771 56.3135C46.007 52.4347 46.1256 48.5836 46.1952 44.6885C46.2003 44.4034 46.2691 43.5596 46.3133 43.8413C46.5532 45.3712 46.44 47.0256 46.4105 48.5635C46.3318 52.668 45.8092 56.7371 45.6396 60.8343C45.6347 60.9534 45.6327 61.0727 45.6327 61.1919C45.6327 61.2968 45.572 61.5478 45.6674 61.5044C45.8417 61.4252 45.7692 61.1345 45.7994 60.9454C45.9011 60.3067 46.0011 59.4955 46.0771 58.8794C46.618 54.4987 46.9222 50.116 47.1466 45.7093C47.1558 45.5288 47.1647 45.3482 47.1744 45.1676C47.1808 45.0471 47.1203 44.8952 47.2021 44.8065C47.301 44.6994 47.2646 45.092 47.2785 45.2371C47.3359 45.8339 47.3824 46.6793 47.3966 47.244C47.4968 51.2374 46.9372 55.1677 46.6674 59.1399C46.6431 59.4981 46.5839 59.9407 46.6327 60.3065C46.6869 60.7127 46.8076 59.5048 46.8584 59.0982C47.3815 54.9138 47.7502 50.7156 48.1813 46.5218C48.2095 46.2481 48.3145 45.4585 48.3896 45.7232C48.471 46.0098 48.515 46.8665 48.5216 47.0426C48.5535 47.896 48.545 49.0724 48.5216 49.9038C48.4575 52.1819 48.2598 54.446 48.0008 56.7093C47.8611 57.9297 47.6605 59.1595 47.6258 60.3899C47.6226 60.5015 47.6075 60.8216 47.6605 60.7232C47.7444 60.5674 47.7215 60.3744 47.7438 60.1989C48.1886 56.6983 47.3576 63.1782 48.0181 58.0288C48.4445 54.7046 48.841 51.382 49.0876 48.0392C49.0988 47.887 49.1062 47.4354 49.1396 47.5843C49.304 48.3166 49.2762 49.1805 49.2855 49.9176C49.3153 52.2782 49.1072 54.6286 48.8549 56.9732C48.7064 58.353 48.4881 59.7328 48.4035 61.119C48.3892 61.3548 48.2548 61.9056 48.4765 61.8239C48.7611 61.719 48.8379 59.9244 48.8549 59.7926C49.3179 56.2191 49.7304 52.6359 50.1466 49.0565C50.1758 48.8051 50.187 48.5264 50.2508 48.2788C50.3681 47.823 50.3209 49.2179 50.3271 49.6885C50.3676 52.7144 50.1729 55.6764 49.8549 58.6815C49.7815 59.375 49.7157 60.0694 49.6292 60.7614C49.5885 61.0873 49.5831 61.4954 49.473 61.81C49.2201 62.5326 49.5844 60.2825 49.6709 59.5218C49.8673 57.7949 50.0503 56.0682 50.2126 54.3378C50.3017 53.3869 50.3427 52.4117 50.4869 51.4663C50.5247 51.2183 50.5453 51.9654 50.5494 52.2163C50.5715 53.59 50.5175 54.9659 50.3966 56.3343C50.225 58.2762 49.8644 60.2027 49.7577 62.1503C49.729 62.6744 49.8152 62.0317 49.8271 61.9454C49.9904 60.7665 50.1205 59.5832 50.2508 58.4003C50.4589 56.51 50.7827 54.593 50.8133 52.6885C50.818 52.3945 50.8208 51.5126 50.8271 51.8065C50.8562 53.1421 50.7176 54.4909 50.5494 55.8135C50.2661 58.0404 49.8325 60.2533 49.2126 62.4107C48.8379 63.7145 48.4373 65.0128 47.7473 66.1885C47.2726 66.9972 46.6655 67.7847 46.4521 68.7093C46.2641 69.5242 46.7167 67.0578 46.8584 66.2336C47.3439 63.4095 47.8164 60.5594 47.8688 57.6885C47.8801 57.0682 47.8758 56.4477 47.8758 55.8274C47.8758 55.6399 47.8786 55.4523 47.8758 55.2649C47.875 55.216 47.8655 55.362 47.8619 55.4107C47.6049 58.8898 46.9118 62.3263 46.2091 65.7371C45.7946 67.7486 45.3011 69.7429 44.8896 71.7544C44.7532 72.4215 44.8978 71.6915 44.9278 71.501C45.1926 69.8244 45.4039 68.1383 45.598 66.4524C45.9305 63.5636 46.3501 60.6295 46.3758 57.7163C46.3792 57.3211 46.4024 57.0866 46.2785 57.7024C45.9497 59.3365 45.6348 60.9739 45.3271 62.6121C44.8379 65.2174 44.2966 67.8385 44.1049 70.4871C44.0863 70.7442 43.9902 71.2192 44.0667 71.4871C44.0965 71.5914 44.0989 71.2723 44.1084 71.1642C44.1689 70.4752 44.2127 69.8201 44.2577 69.1225C44.4797 65.6822 44.7842 62.1622 44.5008 58.7163C44.4749 58.4018 44.3871 57.4759 44.3271 57.7857C44.1615 58.6415 44.2192 59.6105 44.1466 60.4732C43.807 64.5092 43.1708 68.5079 42.4278 72.4871C42.3202 73.0637 42.1958 73.6427 42.1327 74.2267C42.0868 74.6514 42.246 73.3797 42.2994 72.9558C42.7578 69.3148 42.8939 65.6549 42.8619 61.9871C42.8572 61.4531 42.9506 60.6265 42.8133 60.0774C42.7807 59.947 42.8048 60.3459 42.7994 60.4801C42.7707 61.1918 42.7474 61.6467 42.7091 62.4038C42.5313 65.9213 42.2757 69.4558 42.3271 72.9801C42.3378 73.7068 42.318 74.5465 42.5598 75.2475C42.5835 75.3163 42.6292 75.484 42.6952 75.31C42.7967 75.0425 42.8582 74.4211 42.8792 74.2371C43.3369 70.2251 43.1339 66.1839 42.9799 62.1607C42.9166 60.5065 42.9314 60.9429 42.8896 59.5635C42.8833 59.355 42.9196 58.7381 42.8619 58.9385C42.7336 59.3836 42.7582 59.8591 42.716 60.3204C42.5991 61.5991 42.4334 63.5681 42.341 64.7857C42.0754 68.2862 41.7289 71.8752 42.0633 75.3864C42.0876 75.6419 42.1115 75.8363 42.1535 76.0808C42.1665 76.1562 42.1664 76.351 42.223 76.2996C42.3552 76.1794 42.2998 75.9497 42.3167 75.7718C42.3792 75.1162 42.4072 74.5071 42.4313 73.8413C42.5884 69.5109 42.4143 65.1782 42.341 60.8482C42.3218 59.7128 42.5693 56.3176 42.6119 57.4524C42.6411 58.232 42.5646 59.0307 42.5216 59.8065C42.396 62.0737 42.2719 64.3408 42.157 66.6086C42.0495 68.7302 41.9322 70.8526 41.8862 72.9767C41.8751 73.4858 41.767 74.224 41.8862 74.7406C41.9434 74.9887 42.0408 74.253 42.0771 74.001C42.3476 72.126 42.417 70.2185 42.4591 68.3274C42.5347 64.9324 42.3105 61.5218 42.5355 58.1329C42.8335 53.6436 41.5914 67.1073 41.7056 71.6051C41.723 72.2912 41.7795 72.9744 41.8758 73.6538C41.913 73.9165 41.9378 74.2566 42.0633 74.501C42.1118 74.5955 42.1675 74.3083 42.1744 74.2024C42.2057 73.7195 42.2246 73.2342 42.2508 72.751" stroke="#021120" stroke-width="2" stroke-linecap="round"/>
<path d="M40.6883 52.5634C40.5985 52.2153 40.5607 52.5233 40.5147 52.7301C40.3591 53.4303 40.2791 54.1584 40.1883 54.869C40.1372 55.2693 40.0905 55.6701 40.039 56.0704C40.0369 56.0871 40.0272 56.3565 39.987 56.3968C39.9329 56.4509 39.9453 56.2476 39.9453 56.1711C39.9453 55.8365 39.9781 55.501 40.0008 55.1676C40.0664 54.2043 40.0633 51.3063 40.0633 52.2718C40.0633 52.6302 40.1241 53.0505 40.0599 53.4037C40.0505 53.4553 40.0008 52.7511 40.0008 52.5634C40.0008 52.303 39.8133 52.326 39.8133 52.5877C39.8133 53.8824 40.0533 55.1101 40.0633 56.4037C40.074 57.7849 40.0081 59.1677 40.0008 60.5495C39.9992 60.8708 39.9889 61.1907 39.9696 61.5113C39.9595 61.6792 39.9791 62.1779 39.9383 62.0148C39.896 61.8455 39.9405 61.4962 39.9453 61.3481C39.9642 60.7581 40.0135 60.171 40.0772 59.5843C40.2002 58.4508 40.7154 55.0714 40.487 56.1884C40.3972 56.6273 40.3578 57.0837 40.3133 57.5287C40.2604 58.0586 40.3623 58.9312 40.0946 59.4072C40.0513 59.4842 39.9434 58.6735 39.9418 58.6086C39.9273 57.9986 39.9596 57.3874 39.9071 56.7787C39.8245 55.821 39.6597 57.2354 39.6397 57.487C39.6138 57.8145 39.6258 58.145 39.6258 58.4731C39.6258 58.6114 39.663 58.425 39.6883 58.3759C39.765 58.2271 39.8366 58.2382 39.8758 58.4106C40.0047 58.976 40.0411 59.58 40.0633 60.1572C40.094 60.9546 40.1258 61.7514 40.1258 62.5495C40.1258 62.8704 39.9905 63.7812 40.164 63.5113C40.281 63.3295 40.3082 62.9087 40.3411 62.7231C40.4692 62.0016 40.57 61.2771 40.6571 60.5495C40.8039 59.3231 40.9135 58.0906 41.1224 56.8725C41.1285 56.8366 41.1752 56.7517 41.1883 56.7856C41.2604 56.9721 41.2684 57.2164 41.2786 57.4072C41.385 59.3977 41.2319 61.3992 41.1293 63.3863C41.0521 64.883 40.9589 66.3971 41.0043 67.8968C41.0079 68.0141 40.9735 68.3196 41.0633 68.244C41.179 68.1466 41.1355 67.9496 41.1536 67.7995C41.2054 67.3703 41.2712 66.6122 41.2995 66.2162C41.4414 64.2294 41.4861 62.2303 41.3133 60.244C41.2803 59.8641 41.2355 59.484 41.1918 59.1051C41.1835 59.0327 41.1569 58.8309 41.1258 58.8968C41.0112 59.1395 41.0436 59.6597 41.0321 59.8863C40.9955 60.6093 40.9704 61.3329 40.9522 62.0565C40.9251 63.138 40.8946 64.2188 40.8446 65.2995C40.837 65.4628 40.8763 65.8611 40.7995 66.0287C40.7145 66.214 40.7098 65.6303 40.6849 65.428C40.556 64.381 40.4348 63.3188 40.3828 62.2648C40.3794 62.1955 40.3096 60.894 40.1883 61.5218C40.0301 62.3408 40.2299 63.2238 40.0495 64.0356C39.9113 64.6574 40.0233 62.7618 39.987 62.1259C39.9765 61.9434 40.0112 61.5772 39.9245 61.4037C39.8739 61.3027 39.7743 61.456 39.7647 61.5009C39.6853 61.8715 39.7508 62.3114 39.7508 62.6884C39.7508 63.0977 39.7486 63.4989 39.8133 63.9037C39.9899 65.0074 39.8758 66.194 39.8758 67.3134C39.8758 68.017 39.8713 68.7519 39.7995 69.4523C39.7792 69.6503 39.7325 69.9303 39.7647 69.5287C39.8239 68.7927 39.9204 68.0633 39.9349 67.3238C39.9439 66.8634 39.9383 66.4024 39.9383 65.9419C39.9383 65.5646 39.9383 66.6965 39.9383 67.0738C39.9383 68.8123 39.9383 70.5507 39.9383 72.2891C39.9383 72.3574 39.9383 72.4257 39.9383 72.494C39.9383 72.4986 39.9383 72.4847 39.9383 72.4801C39.9383 72.0495 39.9383 71.619 39.9383 71.1884C39.9383 70.25 39.9176 69.3166 39.8793 68.3794C39.8186 66.8911 39.8758 71.3586 39.8758 72.8482C39.8758 73.7298 39.8639 74.6124 39.8758 75.494C39.887 76.3167 40.0468 75.3405 40.0633 75.0912C40.1272 74.1263 40.1815 73.1556 40.1883 72.1884C40.1885 72.1726 40.1786 71.7465 40.1918 72.1502C40.2058 72.5775 40.2326 73.0044 40.2508 73.4315C40.3081 74.7766 40.3613 76.1214 40.4245 77.4662C40.4369 77.7314 40.435 78.0018 40.4765 78.2648C40.4904 78.3525 40.5848 78.5785 40.612 78.494C40.7357 78.1086 40.7022 77.5851 40.7161 77.1954C40.7435 76.4294 40.7483 75.663 40.7647 74.8968C40.7794 74.2158 40.6933 72.1918 40.8481 72.8551C41.1267 74.0491 41.0358 75.4087 41.0911 76.6259C41.1292 77.4629 41.0089 78.5608 41.3133 79.3655C41.4075 79.6143 41.4492 79.188 41.4522 79.1676C41.5387 78.5808 41.5764 77.9838 41.6258 77.3933C41.7048 76.4502 41.6541 75.3287 41.9661 74.4211C42.036 74.2177 42.1493 75.2078 42.1536 75.2718C42.2148 76.1812 42.1883 77.0969 42.1883 78.0079C42.1883 78.0375 42.1779 78.7339 42.23 78.6155C42.6595 77.6395 42.8439 76.4535 43.0981 75.4245C43.3307 74.4827 43.5384 73.5341 43.7647 72.5912C43.954 71.8025 43.6531 74.2104 43.5495 75.0148C43.4057 76.1307 43.1969 77.2544 43.1883 78.3829C43.1807 79.3869 43.4216 77.7023 43.4314 77.6329C43.7357 75.4754 43.9778 73.2858 44.487 71.1641C44.5387 70.9486 44.6461 70.3348 44.7231 70.5426C44.8323 70.8375 44.7495 71.414 44.7404 71.6954C44.6827 73.4845 43.8587 78.7772 44.3272 77.0495C44.8806 75.009 45.6759 68.7276 45.6258 70.8412C45.5867 72.4938 45.2826 74.1345 45.0356 75.7648C45.0171 75.8865 44.7098 78.3611 44.8064 78.3412C44.9718 78.3072 45.0653 77.8473 45.0807 77.7857C45.3232 76.8157 45.4717 75.8125 45.6328 74.8273C45.9713 72.7574 46.2182 70.6703 46.6258 68.612C46.6838 68.3194 46.8133 67.4388 46.8133 67.737C46.8133 69.8546 46.6265 71.9666 46.3724 74.0669C46.1937 75.5433 46.0032 77.0185 45.8168 78.494C45.7358 79.1353 45.8221 78.5593 45.862 78.3482C46.0456 77.3742 46.2418 76.4028 46.4557 75.435C46.8384 73.7032 47.2605 71.9788 47.4835 70.2162C47.7021 68.4874 47.761 66.7331 47.862 64.994C47.8759 64.7536 47.8871 64.0312 47.8758 64.2718C47.8019 65.8495 47.6145 67.4237 47.4522 68.994C47.2724 70.7339 47.0958 72.4739 46.8758 74.2093C46.7258 75.393 46.5191 76.5771 46.4383 77.7683C46.4335 77.8398 46.3139 78.5266 46.4592 78.1502C46.9106 76.9805 47.2239 75.7349 47.5321 74.5218C48.2911 71.5337 48.5008 68.4994 48.5008 65.428C48.5008 64.7625 48.5008 64.097 48.5008 63.4315C48.5008 63.1404 48.5008 62.7713 48.5008 63.3481C48.5008 67.0097 47.768 70.6491 47.112 74.237C46.9373 75.1924 46.5832 76.2558 46.6258 77.237C46.6396 77.5524 46.8925 77.1621 46.9314 77.0843C47.4927 75.9616 47.8169 74.7005 48.1224 73.4905C49.1346 69.4807 49.8856 65.3944 49.6883 61.2509" stroke="#021120" stroke-width="2" stroke-linecap="round"/>
<path d="M46.376 78.501C46.9029 78.6631 47.0985 77.8192 47.2579 77.4593C47.8273 76.174 48.2429 74.8258 48.6538 73.4836C48.7718 73.0982 48.9108 72.7122 48.994 72.3169C49.0081 72.25 48.9956 72.651 48.994 72.6746C48.9311 73.634 48.6203 74.5962 48.3482 75.5114C48.1265 76.257 47.8601 76.9893 47.6954 77.751C47.6193 78.1029 47.6928 77.6944 47.7406 77.5669C48.1519 76.47 48.4315 75.3569 48.685 74.2163C48.7129 74.0908 48.8002 73.7236 48.81 73.8517C48.8308 74.1227 48.7911 74.4018 48.744 74.6676C48.574 75.6269 48.3704 76.5791 48.2232 77.5426C48.185 77.7927 48.0529 78.5361 48.1329 78.2961C48.2795 77.8563 48.5212 77.4529 48.6572 77.0044C48.8837 76.2581 49.0098 75.4569 49.06 74.6781C49.0834 74.3161 48.9299 75.0164 48.9107 75.0913C48.8053 75.5033 48.7284 75.9223 48.6572 76.3413C48.6092 76.6242 48.5197 76.8748 48.4419 77.1468C48.3788 77.368 48.5821 76.7067 48.685 76.501C49.0491 75.7729 49.2447 74.9504 49.501 74.1815C49.7253 73.5086 49.876 72.7556 49.876 72.0461C49.876 71.826 49.7816 72.4763 49.7232 72.6885C49.6001 73.136 49.4948 73.5897 49.4107 74.0461C49.3892 74.1629 49.2957 74.5067 49.3169 74.3899C49.3895 73.9907 49.5096 73.6015 49.5982 73.2058C49.7771 72.4067 49.9988 71.6054 50.0843 70.7892C50.1805 69.8708 50.126 68.9263 50.126 68.0044C50.126 66.662 50.1885 65.3209 50.1885 63.9801C50.1885 63.6192 50.1547 64.6584 50.1503 64.7093C50.0315 66.0689 49.8893 67.4287 49.6885 68.7788C49.5167 69.9338 49.3135 71.1669 49.3135 72.3413C49.3135 72.5453 49.2047 72.9681 49.501 72.9385C49.898 72.8988 50.2085 71.7191 50.2996 71.4107C50.4542 70.8875 50.4824 70.2765 50.501 69.7371C50.5075 69.547 50.5255 69.3727 50.5774 69.1885C50.6278 69.0091 50.4739 69.6577 50.4524 69.7371C50.3582 70.0848 50.2748 70.4466 50.2024 70.7996C50.1479 71.0652 50.3322 70.2729 50.3899 70.0079C50.7036 68.567 50.8274 67.1517 50.9246 65.6815C50.9704 64.9881 50.9385 64.2861 50.9385 63.5913C50.9385 63.481 50.9385 63.0042 50.9385 63.4107C50.9385 64.6726 50.6293 65.8756 50.5635 67.126C50.5452 67.4729 50.6232 66.4325 50.6885 66.0913C50.9309 64.8237 51.083 63.5756 51.1399 62.2857C51.1659 61.6941 51.1885 61.107 51.1885 60.5149C51.1885 60.2752 51.1889 60.5712 51.1885 60.619C51.1843 61.0557 51.1522 61.4898 51.1121 61.9246C51.0601 62.4882 51.0003 63.0512 50.9246 63.6121C50.9129 63.6987 50.867 64.5328 50.7649 64.5635C50.7093 64.5802 50.7516 64.4479 50.751 64.3899C50.7492 64.2325 50.7502 64.075 50.751 63.9176C50.7544 63.2065 50.772 62.4958 50.8135 61.7857C50.8929 60.4256 51.1646 59.0472 51.1885 57.6885C51.201 56.9737 51.2448 56.2261 51.1746 55.5149C51.1087 54.8472 50.9471 54.1562 50.9385 53.4871C50.9316 52.9503 50.9385 52.4129 50.9385 51.876C50.9385 51.2962 50.9577 51.0294 50.5635 50.5635" stroke="#021120" stroke-width="2" stroke-linecap="round"/>
<path d="M51.9385 49.9385C51.8686 50.8905 51.6974 51.8606 51.6885 52.8135C51.6843 53.2579 51.6885 54.5913 51.6885 54.1468C51.6885 53.0512 51.6236 51.9346 51.7024 50.8413C51.7159 50.6535 51.751 50.0906 51.751 50.2788C51.751 50.6919 51.7559 51.1053 51.7475 51.5183C51.7171 53.0058 51.565 54.4886 51.5044 55.9732C51.476 56.67 51.4512 57.3373 51.3482 58.0288C51.307 58.3051 51.2709 58.5935 51.2544 58.8725C51.2406 59.108 51.2404 59.1929 51.2544 58.8899C51.2827 58.2814 51.4067 57.6765 51.4663 57.0704C51.5475 56.243 51.5457 55.4112 51.626 54.5843C51.6582 54.2521 51.733 53.9244 51.751 53.5913C51.7602 53.4198 51.8124 53.5926 51.8135 53.6676C51.8304 54.8004 51.7583 55.9134 51.7024 57.0426C51.6603 57.8916 51.6767 58.7839 51.5496 59.626C51.5379 59.7031 51.483 59.9849 51.5149 59.7301C51.6039 59.0178 51.7057 58.3049 51.7475 57.5878C51.785 56.9433 51.8135 56.2959 51.8135 55.6503C51.8135 55.4376 51.821 55.4405 51.81 55.6503C51.7425 56.933 51.6473 58.239 51.501 59.5149C51.4092 60.3151 51.3804 61.1195 51.2996 61.9176C51.2539 62.3684 51.126 62.8172 51.126 63.2683C51.126 64.1418 51.2657 61.5271 51.3447 60.6572C51.3876 60.1858 51.3892 59.6969 51.4697 59.2301C51.5306 58.8769 51.501 59.3679 51.501 59.4524C51.501 60.4945 51.442 61.5233 51.3413 62.56C51.3053 62.93 51.2167 63.2933 51.1919 63.6642C51.1853 63.7641 51.1853 63.7763 51.1885 63.6538C51.198 63.2886 51.2627 62.9362 51.3274 62.5774C51.4725 61.7719 51.5909 60.9614 51.7232 60.1538C51.7557 59.9551 51.7234 59.3765 51.8135 59.5565C51.9261 59.7818 51.7698 60.3722 51.7371 60.5982C51.6513 61.1918 51.5388 61.7801 51.4663 62.376C51.3723 63.1473 51.2653 63.9219 51.1399 64.6885C51.079 65.0605 50.9311 65.4105 50.876 65.7822C50.8343 66.0637 50.6885 66.3669 50.6885 66.6503C50.6885 67.2392 50.8838 65.4886 50.9975 64.9107C51.0691 64.5466 51.1369 64.1679 51.1815 63.7996C51.2195 63.4861 51.1885 63.7724 51.1885 63.9176C51.1885 64.7248 51.0996 65.562 50.9871 66.3621C50.9673 66.5028 50.9385 66.9278 50.9385 66.7857C50.9385 66.3863 51.0312 65.983 51.0982 65.5913C51.1526 65.2731 51.1936 64.9462 51.2996 64.6399C51.3825 64.4002 51.312 65.1489 51.2788 65.4003C51.2377 65.7114 51.1527 66.0174 51.1294 66.3308C51.1063 66.6433 51.1773 66.2055 51.1919 66.1433C51.2712 65.8067 51.3135 65.4855 51.3135 65.1399C51.3135 65.1094 51.3071 65.0201 51.2996 65.0496C51.1866 65.4939 50.9849 65.8906 50.8135 66.3135" stroke="#021120" stroke-width="2" stroke-linecap="round"/>
<path d="M40.3134 76.5635C40.2377 76.4166 40.1657 76.2646 40.0322 76.1607C39.8871 76.0479 39.9384 76.7326 39.9384 76.7857C39.9384 77.1549 39.9384 77.5242 39.9384 77.8934C39.9384 78.1994 39.9371 77.779 39.9384 77.7024C39.9436 77.3906 40.0415 77.0849 40.0599 76.7718C40.0857 76.3333 40.0699 76.9512 40.0773 77.0704C40.1521 78.2768 40.1983 79.5235 40.0322 80.7232C39.9601 81.2438 39.8289 81.7739 39.8134 82.2996C39.8028 82.6595 39.7978 82.5195 39.8204 82.2371C39.9082 81.139 40.4384 80.1472 40.4384 79.0288C40.4384 77.7973 40.4384 81.4917 40.4384 82.7232C40.4384 82.8291 40.4255 84.2467 40.5079 84.2232C40.6964 84.1694 40.9113 83.4529 40.9558 83.3448C41.3031 82.5003 41.5657 81.6296 41.8343 80.7579C41.9796 80.2864 42.1165 79.8073 42.2995 79.3482C42.3005 79.3457 42.5707 78.7854 42.5981 78.8274C42.6888 78.9661 42.5486 79.5574 42.5356 79.6364C42.3748 80.6199 42.1433 81.5907 41.9002 82.5566C41.8214 82.8697 41.7328 83.1785 41.7023 83.501C41.7013 83.5112 41.6666 84.0249 41.744 83.9663C42.055 83.7309 42.2196 83.0649 42.3343 82.7441C42.6946 81.7356 42.9797 80.7032 43.3204 79.6885C43.3744 79.5275 43.5656 79.0707 43.5634 79.2406C43.5511 80.2048 43.3349 81.2054 43.1433 82.1468C43.0817 82.4495 42.7926 83.1052 42.8759 83.4385C42.9013 83.54 42.9824 83.2581 43.0287 83.1642C43.3313 82.5507 43.6302 81.9373 43.9037 81.31C44.157 80.729 44.3915 80.1396 44.6711 79.5704C44.691 79.5298 44.8311 79.1607 44.9002 79.1607C45.0549 79.1607 44.4204 81.144 44.362 81.2857C44.1055 81.9083 43.756 82.4997 43.5426 83.1399C43.0676 84.5647 45.1875 80.6229 45.9106 79.3066C45.9463 79.2417 46.4777 78.4132 46.4905 78.56C46.5482 79.2237 46.0255 80.0804 45.737 80.6399C45.3266 81.436 44.8036 82.1528 44.3551 82.9246C44.3065 83.0083 43.8381 83.779 43.9905 83.6399C44.9939 82.7238 45.8369 81.8035 46.4384 80.567C46.7207 79.9867 46.9434 79.2363 47.4349 78.7857C47.5233 78.7048 47.5802 78.6607 47.5495 78.8413C47.4774 79.2662 47.2213 79.6635 46.987 80.0149C46.6039 80.5895 46.1585 81.1178 45.7509 81.6746C45.5849 81.9014 45.2452 82.3892 45.6606 81.876C46.3298 81.0493 46.9802 80.2425 47.4245 79.2649C47.4846 79.1327 47.9151 77.8759 47.8065 78.6364C47.6966 79.4059 47.159 80.1846 46.7856 80.8413C46.7407 80.9202 46.3135 81.6509 46.5565 81.3204C46.8456 80.9273 47.1508 80.5103 47.3898 80.0843C47.6296 79.6569 47.7102 78.9736 48.0773 78.6399C48.1992 78.5291 48.1608 78.7625 48.1468 78.7996C48.0014 79.1828 47.7538 79.5443 47.5252 79.8829C46.8925 80.8203 46.3035 81.7922 45.612 82.6885C45.3762 82.9942 45.1274 83.2927 44.8898 83.5982C44.6485 83.9085 44.2738 84.0821 44.0322 84.3795C43.6554 84.8432 43.1618 85.3335 42.6884 85.6885" stroke="#021120" stroke-width="2" stroke-linecap="round"/>
<path d="M41.251 86.6885C42.1181 86.6735 43.0437 85.9996 43.685 85.4385C43.9925 85.1694 44.3143 84.8752 44.6017 84.5878C44.845 84.3445 45.0212 84.0467 45.31 83.8482C45.5907 83.6552 45.8458 83.2559 46.0635 82.9871C46.2508 82.7557 46.4227 82.5002 46.626 82.2857C47.0983 81.7871 47.3908 80.961 47.5635 80.3135" stroke="#021120" stroke-width="2" stroke-linecap="round"/>
<path d="M40.6259 85.3135C40.6259 84.6681 40.6139 84.0366 40.685 83.3968C40.7352 82.9445 40.528 84.2939 40.4246 84.7371C40.3566 85.0285 40.1954 85.9044 40.1954 85.6051C40.1954 84.9301 40.493 84.2617 40.5009 83.5704C40.5027 83.4217 40.5009 82.674 40.5009 83.2058C40.5009 83.4258 40.497 83.6435 40.4697 83.8621C40.4522 84.0024 40.4782 84.3892 40.3898 84.2787C40.2823 84.1443 40.4419 82.2214 40.2509 83.3551C40.2153 83.5668 40.0577 84.251 40.1919 84.4523C40.3195 84.6437 40.2509 83.9949 40.2509 83.7648C40.2509 83.7221 40.2395 83.4444 40.2544 83.6155C40.2972 84.1075 40.3249 84.5987 40.3621 85.0912C40.3824 85.3601 40.4626 85.8318 40.3447 86.0912C40.2969 86.1964 40.3538 85.5225 40.3621 85.4246C40.3684 85.3488 40.4384 84.7064 40.4384 84.8621C40.4384 85.2492 40.4373 85.6192 40.5009 86.001" stroke="#021120" stroke-width="2" stroke-linecap="round"/>
<path d="M40.126 87.6885C40.156 87.317 40.251 86.2047 40.251 86.5774C40.251 86.8704 40.2088 87.2746 40.0322 87.5218C39.9987 87.5687 40.0874 87.3629 40.0982 87.3413C40.2101 87.1174 40.1076 87.4222 40.0774 87.494C40.0019 87.6732 39.9385 87.7676 39.9385 87.9628C39.9385 87.9731 39.9872 87.8819 40.001 87.8621C40.0837 87.7425 40.2081 87.6746 40.2996 87.5635C40.4443 87.3877 40.5375 87.376 40.751 87.376C40.897 87.376 40.938 87.4931 41.0635 87.5496C41.3667 87.6861 41.6806 87.3866 41.9142 87.251C42.4145 86.9604 43.0826 86.8956 43.4385 86.3899C43.5832 86.1842 43.8541 85.8993 43.8725 85.6503C43.8996 85.2846 43.9675 84.5958 43.5496 84.4176C43.1039 84.2277 42.411 85.1662 42.1399 85.3899C42.1043 85.4192 41.7994 85.7049 41.7649 85.5565C41.697 85.2646 41.852 84.9158 41.9246 84.6399C42.1323 83.8507 41.797 84.7193 41.7197 84.994C41.6763 85.1484 41.6081 85.2519 41.7163 85.0357C42.0482 84.3719 42.4054 83.7202 42.751 83.0635" stroke="#021120" stroke-width="2" stroke-linecap="round"/>
<path d="M40.0633 15.5635C40.0633 15.3378 40.1471 15.1406 40.237 14.9385C40.4185 14.5299 39.8677 14.6844 40.1258 14.8135" stroke="#021120" stroke-linecap="round"/>
<path d="M40.126 15.126C40.0362 15.2662 40.001 15.5383 40.001 15.2649C40.001 14.9887 40.001 15.4578 40.001 15.2787C40.001 15.1411 40.0286 15.076 40.06 14.9662C40.1092 14.7941 40.0486 14.8886 40.1885 15.0635" stroke="#021120" stroke-linecap="round"/>
<path d="M42.3306 15.2958C41.4138 14.3735 40.5729 13.9377 39.8331 14.0072C34.7811 14.4809 24.9428 30.1211 24.0449 54.2573C23.5075 68.7226 27.8956 77.8945 31.5691 82.9858C31.5249 82.9668 31.4933 82.9352 31.449 82.9163C30.431 82.4552 29.3182 82.6004 28.2496 82.771C27.9461 82.8152 28.0789 83.2763 28.3761 83.2258C29.3056 83.0805 30.3235 82.9289 31.2151 83.3269C31.8284 83.5985 32.3026 84.0912 32.6124 84.6786C31.8094 84.2681 30.9052 84.0659 29.9947 84.1101C29.6913 84.1228 29.6913 84.5965 29.9947 84.5839C31.2467 84.5207 32.4923 84.9566 33.4217 85.7967C33.1625 85.8662 32.8969 85.9862 32.663 86.0746C31.9675 86.3463 31.2403 86.5547 30.5069 86.7C30.2097 86.7568 30.3362 87.218 30.6334 87.1548C31.2783 87.0285 31.9106 86.8516 32.5239 86.6305C32.8337 86.5168 33.1309 86.3715 33.4344 86.2641C33.6936 86.1757 33.9529 86.1441 34.1489 86.3778C34.1805 86.4157 34.2121 86.4347 34.25 86.441C34.1868 86.4536 34.1236 86.4536 34.0667 86.4726C33.5988 86.5863 33.1435 86.7821 32.7199 87.0221C31.86 87.5148 31.1455 88.216 30.5069 88.9614C30.3109 89.1888 30.646 89.5299 30.842 89.2962C31.3731 88.6771 31.9548 88.0834 32.644 87.6285C32.9855 87.4011 33.3459 87.2116 33.7252 87.0727C33.9149 87.0032 34.1046 86.9463 34.3006 86.9084C34.4018 86.8895 34.5029 86.8705 34.6041 86.8579C34.6547 86.8516 34.7053 86.8453 34.7622 86.839C34.876 86.8263 34.8633 86.8516 34.8254 86.7947C34.8507 86.8263 34.8823 86.8516 34.9266 86.8642C35.0846 87.0158 35.2364 87.1548 35.3755 87.2811C35.1479 87.3317 34.9202 87.4517 34.7306 87.5464C34.2563 87.7738 33.8011 88.0518 33.3838 88.3676C32.5492 89.0056 31.841 89.8078 31.3289 90.7237C31.1771 90.989 31.5881 91.2291 31.7399 90.9638C32.1761 90.1931 32.7389 89.5109 33.4154 88.9424C33.7442 88.6645 34.0983 88.4245 34.4776 88.2097C34.6673 88.1023 34.8633 88.0012 35.0657 87.9128C35.1668 87.8686 35.268 87.8244 35.3755 87.7802C35.3945 87.7738 35.4893 87.7422 35.5462 87.7233C34.7685 88.355 34.1742 89.1761 33.8454 90.13C33.7442 90.4205 34.2058 90.5406 34.3006 90.2563C34.6168 89.3404 35.2174 88.5255 35.9951 87.9507C36.0267 87.9254 36.052 87.9002 36.071 87.8686C36.1279 87.9128 36.1785 87.9507 36.2164 87.9823C36.3872 102.89 37.0131 112.725 37.2597 113.167C37.5442 113.672 38.0374 113.982 38.5812 114.001C38.5938 114.001 38.6065 114.001 38.6191 114.001C39.1629 114.001 39.6561 113.704 39.9849 113.18C40.1935 112.845 40.1176 110.325 39.8584 102.391C39.7383 98.8028 39.5928 94.3495 39.4601 89.2014C39.4917 89.2204 39.5296 89.233 39.5675 89.233C40.0797 89.2835 40.5097 89.6689 40.7689 90.0921C41.0977 90.629 41.2115 91.2733 41.3253 91.8797C41.3822 92.1766 41.8375 92.0503 41.7805 91.7534C41.6478 91.0585 41.5087 90.3384 41.1103 89.7447C40.9206 89.4604 40.674 89.2267 40.3958 89.0498C41.3253 88.8477 42.4255 88.7466 43.14 89.492C43.3486 89.7131 43.6837 89.3783 43.4751 89.1572C43.1147 88.7782 42.6784 88.5824 42.2105 88.5003C43.0894 88.1276 44.1706 88.2918 44.8724 88.9424C45.0937 89.1509 45.4352 88.8161 45.2075 88.6076C44.727 88.1655 44.1137 87.9065 43.4751 87.8433C43.943 87.6349 44.4867 87.6665 44.9167 87.9507C45.0242 88.0202 45.1759 87.9697 45.2391 87.8686C45.3087 87.7549 45.2644 87.6159 45.1569 87.5464C44.7776 87.3001 44.3097 87.199 43.8671 87.2495C43.924 87.2053 43.9746 87.1674 44.0315 87.1232C44.4109 86.8137 44.8092 86.4536 45.2075 86.0241C45.2518 86.0431 45.3087 86.0557 45.3593 86.0367C45.8588 85.8725 46.352 85.7841 46.8704 85.7651C46.9969 85.7651 47.1107 85.6577 47.1107 85.5251C47.1107 85.3988 47.0095 85.285 46.8704 85.285C46.6238 85.2914 46.3836 85.323 46.1433 85.3608C46.5543 85.1398 46.9906 84.9818 47.4585 84.8871C47.5849 84.8618 47.6545 84.7102 47.6229 84.5965C47.5849 84.4639 47.4585 84.407 47.332 84.4323C46.9653 84.5081 46.6049 84.6281 46.2634 84.7797C48.8432 81.3876 51.4924 75.1909 52.6495 63.884C54.9827 40.8153 47.3004 20.2986 42.3306 15.2958ZM34.446 86.4031C34.446 86.4031 34.4524 86.4094 34.4587 86.4157C34.446 86.4157 34.4334 86.4157 34.4207 86.4157C34.4271 86.4157 34.4397 86.4031 34.446 86.3968V86.4031ZM39.5739 112.927C39.3273 113.319 38.9542 113.508 38.5875 113.527C38.2145 113.521 37.873 113.3 37.677 112.946C37.1649 111.411 34.9961 67.1561 39.2008 23.0464C37.892 57.0051 38.8847 87.2875 39.3842 102.403C39.5802 108.291 39.7193 112.542 39.5802 112.927H39.5739ZM52.15 63.8398C49.7537 87.2685 40.8953 88.5129 39.4284 88.5571C38.9542 70.3902 38.6128 43.7652 40.0101 15.2137L39.5359 15.1758C36.5515 41.4786 36.0015 68.4194 36.2038 87.3822C35.9572 87.1801 35.6031 86.8769 35.1732 86.4663C35.1732 86.4663 35.1732 86.4663 35.1668 86.46C33.9276 85.2787 32.0497 83.2195 30.2224 80.1243C27.3644 75.2794 24.0513 66.8655 24.5192 54.2763C25.4676 28.8767 35.7169 14.8662 39.8774 14.4809C40.4527 14.4304 41.1925 14.822 41.9955 15.6306C44.7333 18.3847 47.8062 25.3141 49.8295 33.2795C51.5999 40.2531 53.4399 51.219 52.15 63.8398Z" fill="#021120"/>
</svg>
