<svg width="77" height="128" viewBox="0 0 77 128" fill="none" xmlns="http://www.w3.org/2000/svg">
<rect width="77" height="128" rx="10" fill="#F5EFE7"/>
<rect x="0.25" y="0.25" width="76.5" height="127.5" rx="9.75" stroke="#2D4941" stroke-width="0.5"/>
<g clip-path="url(#clip0_58_3522)">
<mask id="path-3-outside-1_58_3522" maskUnits="userSpaceOnUse" x="25.7349" y="13.9993" width="25" height="82" fill="black">
<rect fill="white" x="25.7349" y="13.9993" width="25" height="82"/>
<path d="M41.577 16.036C40.8346 15.2982 40.1537 14.9495 39.5547 15.0051C35.4642 15.3841 27.4982 27.8962 26.7713 47.2052C26.3361 58.7774 29.8891 66.1149 32.8635 70.1879C32.8277 70.1728 32.8021 70.1475 32.7662 70.1323C31.942 69.7635 31.041 69.8797 30.1757 70.0161C29.93 70.0515 30.0375 70.4204 30.2781 70.38C31.0307 70.2637 31.855 70.1425 32.5768 70.4608C33.0734 70.6781 33.4574 71.0723 33.7082 71.5422C33.0581 71.2138 32.326 71.0521 31.5887 71.0874C31.343 71.0975 31.343 71.4765 31.5887 71.4664C32.6024 71.4159 33.611 71.7646 34.3635 72.4367C34.1536 72.4923 33.9386 72.5883 33.7492 72.659C33.186 72.8763 32.5973 73.0431 32.0034 73.1593C31.7628 73.2048 31.8652 73.5737 32.1058 73.5232C32.628 73.4221 33.14 73.2806 33.6366 73.1037C33.8874 73.0128 34.128 72.8965 34.3738 72.8106C34.5837 72.7399 34.7936 72.7146 34.9523 72.9016C34.9779 72.9319 35.0035 72.9471 35.0342 72.9521C34.983 72.9622 34.9318 72.9622 34.8857 72.9774C34.5069 73.0684 34.1383 73.225 33.7953 73.417C33.099 73.8112 32.5205 74.3721 32.0034 74.9684C31.8447 75.1504 32.1161 75.4232 32.2748 75.2363C32.7048 74.741 33.1758 74.266 33.7338 73.9022C34.0103 73.7202 34.3021 73.5686 34.6093 73.4575C34.7629 73.4019 34.9164 73.3564 35.0752 73.3261C35.1571 73.3109 35.239 73.2958 35.3209 73.2857C35.3618 73.2806 35.4028 73.2755 35.4489 73.2705C35.541 73.2604 35.5308 73.2806 35.5001 73.2351C35.5205 73.2604 35.5461 73.2806 35.582 73.2907C35.71 73.412 35.8328 73.5232 35.9455 73.6242C35.7612 73.6647 35.5769 73.7607 35.4233 73.8365C35.0393 74.0184 34.6707 74.2407 34.3328 74.4934C33.657 75.0038 33.0836 75.6456 32.669 76.3783C32.5461 76.5906 32.8789 76.7826 33.0017 76.5704C33.355 75.9538 33.8106 75.4081 34.3584 74.9533C34.6246 74.7309 34.9113 74.5389 35.2185 74.3671C35.3721 74.2812 35.5308 74.2003 35.6946 74.1296C35.7765 74.0942 35.8584 74.0588 35.9455 74.0234C35.9608 74.0184 36.0376 73.9931 36.0837 73.978C35.454 74.4833 34.9728 75.1402 34.7065 75.9033C34.6246 76.1358 34.9984 76.2318 35.0752 76.0044C35.3311 75.2716 35.8175 74.6197 36.4472 74.1599C36.4728 74.1397 36.4933 74.1195 36.5086 74.0942C36.5547 74.1296 36.5957 74.1599 36.6264 74.1852C36.7646 86.1111 37.2714 93.9792 37.4711 94.333C37.7015 94.7372 38.1008 94.9849 38.5411 95C38.5513 95 38.5616 95 38.5718 95C39.0121 95 39.4114 94.7625 39.6776 94.3431C39.8466 94.0752 39.7851 92.059 39.5752 85.7119C39.478 82.8416 39.3602 79.279 39.2527 75.1605C39.2783 75.1756 39.309 75.1857 39.3397 75.1857C39.7544 75.2262 40.1025 75.5344 40.3124 75.873C40.5787 76.3025 40.6708 76.818 40.763 77.3031C40.809 77.5406 41.1776 77.4395 41.1316 77.202C41.0241 76.6461 40.9114 76.0701 40.5889 75.5951C40.4353 75.3676 40.2356 75.1807 40.0104 75.0392C40.763 74.8775 41.6538 74.7966 42.2323 75.3929C42.4012 75.5698 42.6725 75.302 42.5036 75.1251C42.2118 74.8219 41.8585 74.6652 41.4797 74.5995C42.1913 74.3014 43.0668 74.4328 43.635 74.9533C43.8142 75.12 44.0907 74.8522 43.9064 74.6854C43.5173 74.3317 43.0207 74.1245 42.5036 74.074C42.8825 73.9072 43.3227 73.9325 43.6709 74.1599C43.7579 74.2155 43.8808 74.1751 43.932 74.0942C43.9883 74.0032 43.9524 73.8921 43.8654 73.8365C43.5582 73.6394 43.1794 73.5585 42.821 73.599C42.8671 73.5636 42.908 73.5333 42.9541 73.4979C43.2613 73.2503 43.5838 72.9622 43.9064 72.6186C43.9422 72.6338 43.9883 72.6439 44.0292 72.6287C44.4337 72.4973 44.833 72.4266 45.2528 72.4114C45.3552 72.4114 45.4473 72.3255 45.4473 72.2194C45.4473 72.1183 45.3654 72.0274 45.2528 72.0274C45.0531 72.0324 44.8586 72.0577 44.664 72.088C44.9968 71.9111 45.3501 71.7848 45.7289 71.709C45.8313 71.6888 45.8876 71.5675 45.862 71.4765C45.8313 71.3704 45.7289 71.3249 45.6265 71.3452C45.3296 71.4058 45.0378 71.5018 44.7613 71.6231C46.8501 68.9094 48.9952 63.9521 49.9321 54.9065C51.8212 36.4516 45.6009 20.0382 41.577 16.036ZM35.1929 72.9218C35.1929 72.9218 35.198 72.9269 35.2031 72.9319C35.1929 72.9319 35.1827 72.9319 35.1724 72.9319C35.1775 72.9319 35.1878 72.9218 35.1929 72.9168V72.9218ZM39.3448 94.1409C39.1452 94.4543 38.8431 94.6059 38.5462 94.621C38.2441 94.616 37.9677 94.4391 37.809 94.1561C37.3943 92.9281 35.6383 57.5242 39.0428 22.2364C37.983 49.4034 38.7868 73.6293 39.1913 85.722C39.35 90.4318 39.4626 93.8327 39.35 94.1409H39.3448ZM49.5276 54.8712C47.5873 73.6141 40.4148 74.6096 39.2271 74.645C38.8431 60.1115 38.5667 38.8115 39.6981 15.9703L39.3141 15.9399C36.8977 36.9822 36.4523 58.5348 36.6161 73.7051C36.4165 73.5434 36.1298 73.3008 35.7816 72.9723C35.7816 72.9723 35.7816 72.9723 35.7765 72.9673C34.7731 72.0223 33.2526 70.3749 31.773 67.8988C29.459 64.0228 26.7764 57.2917 27.1552 47.2203C27.9232 26.9007 36.2219 15.6923 39.5906 15.3841C40.0565 15.3436 40.6554 15.657 41.3056 16.3038C43.5224 18.5071 46.0105 24.0506 47.6487 30.4229C49.0822 36.0018 50.572 44.7745 49.5276 54.8712Z"/>
</mask>
<path d="M41.577 16.036C40.8346 15.2982 40.1537 14.9495 39.5547 15.0051C35.4642 15.3841 27.4982 27.8962 26.7713 47.2052C26.3361 58.7774 29.8891 66.1149 32.8635 70.1879C32.8277 70.1728 32.8021 70.1475 32.7662 70.1323C31.942 69.7635 31.041 69.8797 30.1757 70.0161C29.93 70.0515 30.0375 70.4204 30.2781 70.38C31.0307 70.2637 31.855 70.1425 32.5768 70.4608C33.0734 70.6781 33.4574 71.0723 33.7082 71.5422C33.0581 71.2138 32.326 71.0521 31.5887 71.0874C31.343 71.0975 31.343 71.4765 31.5887 71.4664C32.6024 71.4159 33.611 71.7646 34.3635 72.4367C34.1536 72.4923 33.9386 72.5883 33.7492 72.659C33.186 72.8763 32.5973 73.0431 32.0034 73.1593C31.7628 73.2048 31.8652 73.5737 32.1058 73.5232C32.628 73.4221 33.14 73.2806 33.6366 73.1037C33.8874 73.0128 34.128 72.8965 34.3738 72.8106C34.5837 72.7399 34.7936 72.7146 34.9523 72.9016C34.9779 72.9319 35.0035 72.9471 35.0342 72.9521C34.983 72.9622 34.9318 72.9622 34.8857 72.9774C34.5069 73.0684 34.1383 73.225 33.7953 73.417C33.099 73.8112 32.5205 74.3721 32.0034 74.9684C31.8447 75.1504 32.1161 75.4232 32.2748 75.2363C32.7048 74.741 33.1758 74.266 33.7338 73.9022C34.0103 73.7202 34.3021 73.5686 34.6093 73.4575C34.7629 73.4019 34.9164 73.3564 35.0752 73.3261C35.1571 73.3109 35.239 73.2958 35.3209 73.2857C35.3618 73.2806 35.4028 73.2755 35.4489 73.2705C35.541 73.2604 35.5308 73.2806 35.5001 73.2351C35.5205 73.2604 35.5461 73.2806 35.582 73.2907C35.71 73.412 35.8328 73.5232 35.9455 73.6242C35.7612 73.6647 35.5769 73.7607 35.4233 73.8365C35.0393 74.0184 34.6707 74.2407 34.3328 74.4934C33.657 75.0038 33.0836 75.6456 32.669 76.3783C32.5461 76.5906 32.8789 76.7826 33.0017 76.5704C33.355 75.9538 33.8106 75.4081 34.3584 74.9533C34.6246 74.7309 34.9113 74.5389 35.2185 74.3671C35.3721 74.2812 35.5308 74.2003 35.6946 74.1296C35.7765 74.0942 35.8584 74.0588 35.9455 74.0234C35.9608 74.0184 36.0376 73.9931 36.0837 73.978C35.454 74.4833 34.9728 75.1402 34.7065 75.9033C34.6246 76.1358 34.9984 76.2318 35.0752 76.0044C35.3311 75.2716 35.8175 74.6197 36.4472 74.1599C36.4728 74.1397 36.4933 74.1195 36.5086 74.0942C36.5547 74.1296 36.5957 74.1599 36.6264 74.1852C36.7646 86.1111 37.2714 93.9792 37.4711 94.333C37.7015 94.7372 38.1008 94.9849 38.5411 95C38.5513 95 38.5616 95 38.5718 95C39.0121 95 39.4114 94.7625 39.6776 94.3431C39.8466 94.0752 39.7851 92.059 39.5752 85.7119C39.478 82.8416 39.3602 79.279 39.2527 75.1605C39.2783 75.1756 39.309 75.1857 39.3397 75.1857C39.7544 75.2262 40.1025 75.5344 40.3124 75.873C40.5787 76.3025 40.6708 76.818 40.763 77.3031C40.809 77.5406 41.1776 77.4395 41.1316 77.202C41.0241 76.6461 40.9114 76.0701 40.5889 75.5951C40.4353 75.3676 40.2356 75.1807 40.0104 75.0392C40.763 74.8775 41.6538 74.7966 42.2323 75.3929C42.4012 75.5698 42.6725 75.302 42.5036 75.1251C42.2118 74.8219 41.8585 74.6652 41.4797 74.5995C42.1913 74.3014 43.0668 74.4328 43.635 74.9533C43.8142 75.12 44.0907 74.8522 43.9064 74.6854C43.5173 74.3317 43.0207 74.1245 42.5036 74.074C42.8825 73.9072 43.3227 73.9325 43.6709 74.1599C43.7579 74.2155 43.8808 74.1751 43.932 74.0942C43.9883 74.0032 43.9524 73.8921 43.8654 73.8365C43.5582 73.6394 43.1794 73.5585 42.821 73.599C42.8671 73.5636 42.908 73.5333 42.9541 73.4979C43.2613 73.2503 43.5838 72.9622 43.9064 72.6186C43.9422 72.6338 43.9883 72.6439 44.0292 72.6287C44.4337 72.4973 44.833 72.4266 45.2528 72.4114C45.3552 72.4114 45.4473 72.3255 45.4473 72.2194C45.4473 72.1183 45.3654 72.0274 45.2528 72.0274C45.0531 72.0324 44.8586 72.0577 44.664 72.088C44.9968 71.9111 45.3501 71.7848 45.7289 71.709C45.8313 71.6888 45.8876 71.5675 45.862 71.4765C45.8313 71.3704 45.7289 71.3249 45.6265 71.3452C45.3296 71.4058 45.0378 71.5018 44.7613 71.6231C46.8501 68.9094 48.9952 63.9521 49.9321 54.9065C51.8212 36.4516 45.6009 20.0382 41.577 16.036ZM35.1929 72.9218C35.1929 72.9218 35.198 72.9269 35.2031 72.9319C35.1929 72.9319 35.1827 72.9319 35.1724 72.9319C35.1775 72.9319 35.1878 72.9218 35.1929 72.9168V72.9218ZM39.3448 94.1409C39.1452 94.4543 38.8431 94.6059 38.5462 94.621C38.2441 94.616 37.9677 94.4391 37.809 94.1561C37.3943 92.9281 35.6383 57.5242 39.0428 22.2364C37.983 49.4034 38.7868 73.6293 39.1913 85.722C39.35 90.4318 39.4626 93.8327 39.35 94.1409H39.3448ZM49.5276 54.8712C47.5873 73.6141 40.4148 74.6096 39.2271 74.645C38.8431 60.1115 38.5667 38.8115 39.6981 15.9703L39.3141 15.9399C36.8977 36.9822 36.4523 58.5348 36.6161 73.7051C36.4165 73.5434 36.1298 73.3008 35.7816 72.9723C35.7816 72.9723 35.7816 72.9723 35.7765 72.9673C34.7731 72.0223 33.2526 70.3749 31.773 67.8988C29.459 64.0228 26.7764 57.2917 27.1552 47.2203C27.9232 26.9007 36.2219 15.6923 39.5906 15.3841C40.0565 15.3436 40.6554 15.657 41.3056 16.3038C43.5224 18.5071 46.0105 24.0506 47.6487 30.4229C49.0822 36.0018 50.572 44.7745 49.5276 54.8712Z" fill="#2D4941"/>
<path d="M41.577 16.036C40.8346 15.2982 40.1537 14.9495 39.5547 15.0051C35.4642 15.3841 27.4982 27.8962 26.7713 47.2052C26.3361 58.7774 29.8891 66.1149 32.8635 70.1879C32.8277 70.1728 32.8021 70.1475 32.7662 70.1323C31.942 69.7635 31.041 69.8797 30.1757 70.0161C29.93 70.0515 30.0375 70.4204 30.2781 70.38C31.0307 70.2637 31.855 70.1425 32.5768 70.4608C33.0734 70.6781 33.4574 71.0723 33.7082 71.5422C33.0581 71.2138 32.326 71.0521 31.5887 71.0874C31.343 71.0975 31.343 71.4765 31.5887 71.4664C32.6024 71.4159 33.611 71.7646 34.3635 72.4367C34.1536 72.4923 33.9386 72.5883 33.7492 72.659C33.186 72.8763 32.5973 73.0431 32.0034 73.1593C31.7628 73.2048 31.8652 73.5737 32.1058 73.5232C32.628 73.4221 33.14 73.2806 33.6366 73.1037C33.8874 73.0128 34.128 72.8965 34.3738 72.8106C34.5837 72.7399 34.7936 72.7146 34.9523 72.9016C34.9779 72.9319 35.0035 72.9471 35.0342 72.9521C34.983 72.9622 34.9318 72.9622 34.8857 72.9774C34.5069 73.0684 34.1383 73.225 33.7953 73.417C33.099 73.8112 32.5205 74.3721 32.0034 74.9684C31.8447 75.1504 32.1161 75.4232 32.2748 75.2363C32.7048 74.741 33.1758 74.266 33.7338 73.9022C34.0103 73.7202 34.3021 73.5686 34.6093 73.4575C34.7629 73.4019 34.9164 73.3564 35.0752 73.3261C35.1571 73.3109 35.239 73.2958 35.3209 73.2857C35.3618 73.2806 35.4028 73.2755 35.4489 73.2705C35.541 73.2604 35.5308 73.2806 35.5001 73.2351C35.5205 73.2604 35.5461 73.2806 35.582 73.2907C35.71 73.412 35.8328 73.5232 35.9455 73.6242C35.7612 73.6647 35.5769 73.7607 35.4233 73.8365C35.0393 74.0184 34.6707 74.2407 34.3328 74.4934C33.657 75.0038 33.0836 75.6456 32.669 76.3783C32.5461 76.5906 32.8789 76.7826 33.0017 76.5704C33.355 75.9538 33.8106 75.4081 34.3584 74.9533C34.6246 74.7309 34.9113 74.5389 35.2185 74.3671C35.3721 74.2812 35.5308 74.2003 35.6946 74.1296C35.7765 74.0942 35.8584 74.0588 35.9455 74.0234C35.9608 74.0184 36.0376 73.9931 36.0837 73.978C35.454 74.4833 34.9728 75.1402 34.7065 75.9033C34.6246 76.1358 34.9984 76.2318 35.0752 76.0044C35.3311 75.2716 35.8175 74.6197 36.4472 74.1599C36.4728 74.1397 36.4933 74.1195 36.5086 74.0942C36.5547 74.1296 36.5957 74.1599 36.6264 74.1852C36.7646 86.1111 37.2714 93.9792 37.4711 94.333C37.7015 94.7372 38.1008 94.9849 38.5411 95C38.5513 95 38.5616 95 38.5718 95C39.0121 95 39.4114 94.7625 39.6776 94.3431C39.8466 94.0752 39.7851 92.059 39.5752 85.7119C39.478 82.8416 39.3602 79.279 39.2527 75.1605C39.2783 75.1756 39.309 75.1857 39.3397 75.1857C39.7544 75.2262 40.1025 75.5344 40.3124 75.873C40.5787 76.3025 40.6708 76.818 40.763 77.3031C40.809 77.5406 41.1776 77.4395 41.1316 77.202C41.0241 76.6461 40.9114 76.0701 40.5889 75.5951C40.4353 75.3676 40.2356 75.1807 40.0104 75.0392C40.763 74.8775 41.6538 74.7966 42.2323 75.3929C42.4012 75.5698 42.6725 75.302 42.5036 75.1251C42.2118 74.8219 41.8585 74.6652 41.4797 74.5995C42.1913 74.3014 43.0668 74.4328 43.635 74.9533C43.8142 75.12 44.0907 74.8522 43.9064 74.6854C43.5173 74.3317 43.0207 74.1245 42.5036 74.074C42.8825 73.9072 43.3227 73.9325 43.6709 74.1599C43.7579 74.2155 43.8808 74.1751 43.932 74.0942C43.9883 74.0032 43.9524 73.8921 43.8654 73.8365C43.5582 73.6394 43.1794 73.5585 42.821 73.599C42.8671 73.5636 42.908 73.5333 42.9541 73.4979C43.2613 73.2503 43.5838 72.9622 43.9064 72.6186C43.9422 72.6338 43.9883 72.6439 44.0292 72.6287C44.4337 72.4973 44.833 72.4266 45.2528 72.4114C45.3552 72.4114 45.4473 72.3255 45.4473 72.2194C45.4473 72.1183 45.3654 72.0274 45.2528 72.0274C45.0531 72.0324 44.8586 72.0577 44.664 72.088C44.9968 71.9111 45.3501 71.7848 45.7289 71.709C45.8313 71.6888 45.8876 71.5675 45.862 71.4765C45.8313 71.3704 45.7289 71.3249 45.6265 71.3452C45.3296 71.4058 45.0378 71.5018 44.7613 71.6231C46.8501 68.9094 48.9952 63.9521 49.9321 54.9065C51.8212 36.4516 45.6009 20.0382 41.577 16.036ZM35.1929 72.9218C35.1929 72.9218 35.198 72.9269 35.2031 72.9319C35.1929 72.9319 35.1827 72.9319 35.1724 72.9319C35.1775 72.9319 35.1878 72.9218 35.1929 72.9168V72.9218ZM39.3448 94.1409C39.1452 94.4543 38.8431 94.6059 38.5462 94.621C38.2441 94.616 37.9677 94.4391 37.809 94.1561C37.3943 92.9281 35.6383 57.5242 39.0428 22.2364C37.983 49.4034 38.7868 73.6293 39.1913 85.722C39.35 90.4318 39.4626 93.8327 39.35 94.1409H39.3448ZM49.5276 54.8712C47.5873 73.6141 40.4148 74.6096 39.2271 74.645C38.8431 60.1115 38.5667 38.8115 39.6981 15.9703L39.3141 15.9399C36.8977 36.9822 36.4523 58.5348 36.6161 73.7051C36.4165 73.5434 36.1298 73.3008 35.7816 72.9723C35.7816 72.9723 35.7816 72.9723 35.7765 72.9673C34.7731 72.0223 33.2526 70.3749 31.773 67.8988C29.459 64.0228 26.7764 57.2917 27.1552 47.2203C27.9232 26.9007 36.2219 15.6923 39.5906 15.3841C40.0565 15.3436 40.6554 15.657 41.3056 16.3038C43.5224 18.5071 46.0105 24.0506 47.6487 30.4229C49.0822 36.0018 50.572 44.7745 49.5276 54.8712Z" stroke="#021120" stroke-width="0.2" mask="url(#path-3-outside-1_58_3522)"/>
</g>
<path d="M15.4113 111L13.5853 107.865H12.3753V111H11.3743V103.333H13.8493C14.4287 103.333 14.9163 103.432 15.3123 103.63C15.7157 103.828 16.0163 104.096 16.2143 104.433C16.4123 104.77 16.5113 105.155 16.5113 105.588C16.5113 106.116 16.3573 106.582 16.0493 106.985C15.7487 107.388 15.294 107.656 14.6853 107.788L16.6103 111H15.4113ZM12.3753 107.062H13.8493C14.392 107.062 14.799 106.93 15.0703 106.666C15.3417 106.395 15.4773 106.035 15.4773 105.588C15.4773 105.133 15.3417 104.781 15.0703 104.532C14.8063 104.283 14.3993 104.158 13.8493 104.158H12.3753V107.062ZM23.5667 107.755C23.5667 107.946 23.5557 108.147 23.5337 108.36H18.7157C18.7524 108.954 18.9541 109.42 19.3207 109.757C19.6947 110.087 20.1457 110.252 20.6737 110.252C21.1064 110.252 21.4657 110.153 21.7517 109.955C22.0451 109.75 22.2504 109.478 22.3677 109.141H23.4457C23.2844 109.72 22.9617 110.193 22.4777 110.56C21.9937 110.919 21.3924 111.099 20.6737 111.099C20.1017 111.099 19.5884 110.971 19.1337 110.714C18.6864 110.457 18.3344 110.094 18.0777 109.625C17.8211 109.148 17.6927 108.598 17.6927 107.975C17.6927 107.352 17.8174 106.805 18.0667 106.336C18.3161 105.867 18.6644 105.507 19.1117 105.258C19.5664 105.001 20.0871 104.873 20.6737 104.873C21.2457 104.873 21.7517 104.998 22.1917 105.247C22.6317 105.496 22.9691 105.841 23.2037 106.281C23.4457 106.714 23.5667 107.205 23.5667 107.755ZM22.5327 107.546C22.5327 107.165 22.4484 106.838 22.2797 106.567C22.1111 106.288 21.8801 106.079 21.5867 105.94C21.3007 105.793 20.9817 105.72 20.6297 105.72C20.1237 105.72 19.6911 105.881 19.3317 106.204C18.9797 106.527 18.7781 106.974 18.7267 107.546H22.5327ZM24.514 107.975C24.514 107.352 24.6387 106.809 24.888 106.347C25.1373 105.878 25.482 105.515 25.922 105.258C26.3693 105.001 26.879 104.873 27.451 104.873C28.1917 104.873 28.8003 105.053 29.277 105.412C29.761 105.771 30.08 106.27 30.234 106.908H29.156C29.0533 106.541 28.8517 106.252 28.551 106.039C28.2577 105.826 27.891 105.72 27.451 105.72C26.879 105.72 26.417 105.918 26.065 106.314C25.713 106.703 25.537 107.256 25.537 107.975C25.537 108.701 25.713 109.262 26.065 109.658C26.417 110.054 26.879 110.252 27.451 110.252C27.891 110.252 28.2577 110.149 28.551 109.944C28.8443 109.739 29.046 109.445 29.156 109.064H30.234C30.0727 109.68 29.75 110.175 29.266 110.549C28.782 110.916 28.177 111.099 27.451 111.099C26.879 111.099 26.3693 110.971 25.922 110.714C25.482 110.457 25.1373 110.094 24.888 109.625C24.6387 109.156 24.514 108.606 24.514 107.975ZM32.7907 105.797V109.35C32.7907 109.643 32.853 109.852 32.9777 109.977C33.1023 110.094 33.3187 110.153 33.6267 110.153H34.3637V111H33.4617C32.9043 111 32.4863 110.872 32.2077 110.615C31.929 110.358 31.7897 109.937 31.7897 109.35V105.797H31.0087V104.972H31.7897V103.454H32.7907V104.972H34.3637V105.797H32.7907ZM36.5775 105.951C36.7535 105.606 37.0028 105.339 37.3255 105.148C37.6555 104.957 38.0552 104.862 38.5245 104.862V105.896H38.2605C37.1385 105.896 36.5775 106.505 36.5775 107.722V111H35.5765V104.972H36.5775V105.951ZM40.197 103.993C40.0063 103.993 39.845 103.927 39.713 103.795C39.581 103.663 39.515 103.502 39.515 103.311C39.515 103.12 39.581 102.959 39.713 102.827C39.845 102.695 40.0063 102.629 40.197 102.629C40.3803 102.629 40.5343 102.695 40.659 102.827C40.791 102.959 40.857 103.12 40.857 103.311C40.857 103.502 40.791 103.663 40.659 103.795C40.5343 103.927 40.3803 103.993 40.197 103.993ZM40.681 104.972V111H39.68V104.972H40.681ZM42.013 107.975C42.013 107.352 42.1377 106.809 42.387 106.347C42.6364 105.878 42.981 105.515 43.421 105.258C43.8684 105.001 44.378 104.873 44.95 104.873C45.6907 104.873 46.2994 105.053 46.776 105.412C47.26 105.771 47.579 106.27 47.733 106.908H46.655C46.5524 106.541 46.3507 106.252 46.05 106.039C45.7567 105.826 45.39 105.72 44.95 105.72C44.378 105.72 43.916 105.918 43.564 106.314C43.212 106.703 43.036 107.256 43.036 107.975C43.036 108.701 43.212 109.262 43.564 109.658C43.916 110.054 44.378 110.252 44.95 110.252C45.39 110.252 45.7567 110.149 46.05 109.944C46.3434 109.739 46.545 109.445 46.655 109.064H47.733C47.5717 109.68 47.249 110.175 46.765 110.549C46.281 110.916 45.676 111.099 44.95 111.099C44.378 111.099 43.8684 110.971 43.421 110.714C42.981 110.457 42.6364 110.094 42.387 109.625C42.1377 109.156 42.013 108.606 42.013 107.975ZM54.5687 107.755C54.5687 107.946 54.5577 108.147 54.5357 108.36H49.7177C49.7543 108.954 49.956 109.42 50.3227 109.757C50.6967 110.087 51.1477 110.252 51.6757 110.252C52.1083 110.252 52.4677 110.153 52.7537 109.955C53.047 109.75 53.2523 109.478 53.3697 109.141H54.4477C54.2863 109.72 53.9637 110.193 53.4797 110.56C52.9957 110.919 52.3943 111.099 51.6757 111.099C51.1037 111.099 50.5903 110.971 50.1357 110.714C49.6883 110.457 49.3363 110.094 49.0797 109.625C48.823 109.148 48.6947 108.598 48.6947 107.975C48.6947 107.352 48.8193 106.805 49.0687 106.336C49.318 105.867 49.6663 105.507 50.1137 105.258C50.5683 105.001 51.089 104.873 51.6757 104.873C52.2477 104.873 52.7537 104.998 53.1937 105.247C53.6337 105.496 53.971 105.841 54.2057 106.281C54.4477 106.714 54.5687 107.205 54.5687 107.755ZM53.5347 107.546C53.5347 107.165 53.4503 106.838 53.2817 106.567C53.113 106.288 52.882 106.079 52.5887 105.94C52.3027 105.793 51.9837 105.72 51.6317 105.72C51.1257 105.72 50.693 105.881 50.3337 106.204C49.9817 106.527 49.78 106.974 49.7287 107.546H53.5347ZM58.4486 107.161C58.4486 106.413 58.6173 105.742 58.9546 105.148C59.2919 104.547 59.7503 104.077 60.3296 103.74C60.9163 103.403 61.5653 103.234 62.2766 103.234C63.1126 103.234 63.8423 103.436 64.4656 103.839C65.0889 104.242 65.5436 104.814 65.8296 105.555H64.6306C64.4179 105.093 64.1099 104.737 63.7066 104.488C63.3106 104.239 62.8339 104.114 62.2766 104.114C61.7413 104.114 61.2609 104.239 60.8356 104.488C60.4103 104.737 60.0766 105.093 59.8346 105.555C59.5926 106.01 59.4716 106.545 59.4716 107.161C59.4716 107.77 59.5926 108.305 59.8346 108.767C60.0766 109.222 60.4103 109.574 60.8356 109.823C61.2609 110.072 61.7413 110.197 62.2766 110.197C62.8339 110.197 63.3106 110.076 63.7066 109.834C64.1099 109.585 64.4179 109.229 64.6306 108.767H65.8296C65.5436 109.5 65.0889 110.069 64.4656 110.472C63.8423 110.868 63.1126 111.066 62.2766 111.066C61.5653 111.066 60.9163 110.901 60.3296 110.571C59.7503 110.234 59.2919 109.768 58.9546 109.174C58.6173 108.58 58.4486 107.909 58.4486 107.161Z" fill="#2D4941"/>
<defs>
<clipPath id="clip0_58_3522">
<rect width="23.5294" height="80" fill="white" transform="translate(26.7354 15)"/>
</clipPath>
</defs>
</svg>
