<svg width="77" height="128" viewBox="0 0 77 128" fill="none" xmlns="http://www.w3.org/2000/svg">
<rect x="0.25" y="0.25" width="76.5" height="127.5" rx="9.75" fill="#F5EFE7" stroke="#2D4941" stroke-width="0.5"/>
<path d="M32.1584 105.077C31.6524 105.077 31.1977 104.989 30.7944 104.813C30.3984 104.63 30.0867 104.38 29.8594 104.065C29.632 103.742 29.5147 103.372 29.5074 102.954H30.5744C30.611 103.313 30.7577 103.618 31.0144 103.867C31.2784 104.109 31.6597 104.23 32.1584 104.23C32.635 104.23 33.009 104.113 33.2804 103.878C33.559 103.636 33.6984 103.328 33.6984 102.954C33.6984 102.661 33.6177 102.422 33.4564 102.239C33.295 102.056 33.0934 101.916 32.8514 101.821C32.6094 101.726 32.283 101.623 31.8724 101.513C31.3664 101.381 30.9594 101.249 30.6514 101.117C30.3507 100.985 30.0904 100.78 29.8704 100.501C29.6577 100.215 29.5514 99.8337 29.5514 99.357C29.5514 98.939 29.6577 98.5687 29.8704 98.246C30.083 97.9233 30.38 97.674 30.7614 97.498C31.15 97.322 31.5937 97.234 32.0924 97.234C32.811 97.234 33.3977 97.4137 33.8524 97.773C34.3144 98.1323 34.5747 98.609 34.6334 99.203H33.5334C33.4967 98.9097 33.3427 98.653 33.0714 98.433C32.8 98.2057 32.4407 98.092 31.9934 98.092C31.5754 98.092 31.2344 98.202 30.9704 98.422C30.7064 98.6347 30.5744 98.9353 30.5744 99.324C30.5744 99.6027 30.6514 99.83 30.8054 100.006C30.9667 100.182 31.161 100.318 31.3884 100.413C31.623 100.501 31.9494 100.604 32.3674 100.721C32.8734 100.86 33.2804 101 33.5884 101.139C33.8964 101.271 34.1604 101.48 34.3804 101.766C34.6004 102.045 34.7104 102.426 34.7104 102.91C34.7104 103.284 34.6114 103.636 34.4134 103.966C34.2154 104.296 33.922 104.564 33.5334 104.769C33.1447 104.974 32.6864 105.077 32.1584 105.077ZM41.5294 98.972V105H40.5284V104.109C40.3378 104.417 40.0701 104.659 39.7254 104.835C39.3881 105.004 39.0141 105.088 38.6034 105.088C38.1341 105.088 37.7124 104.993 37.3384 104.802C36.9644 104.604 36.6674 104.311 36.4474 103.922C36.2348 103.533 36.1284 103.06 36.1284 102.503V98.972H37.1184V102.371C37.1184 102.965 37.2688 103.423 37.5694 103.746C37.8701 104.061 38.2808 104.219 38.8014 104.219C39.3368 104.219 39.7584 104.054 40.0664 103.724C40.3744 103.394 40.5284 102.914 40.5284 102.283V98.972H41.5294ZM45.3536 105.099C44.8916 105.099 44.4772 105.022 44.1106 104.868C43.7439 104.707 43.4542 104.487 43.2416 104.208C43.0289 103.922 42.9116 103.596 42.8896 103.229H43.9236C43.9529 103.53 44.0922 103.775 44.3416 103.966C44.5982 104.157 44.9319 104.252 45.3426 104.252C45.7239 104.252 46.0246 104.168 46.2446 103.999C46.4646 103.83 46.5746 103.618 46.5746 103.361C46.5746 103.097 46.4572 102.903 46.2226 102.778C45.9879 102.646 45.6249 102.518 45.1336 102.393C44.6862 102.276 44.3196 102.158 44.0336 102.041C43.7549 101.916 43.5129 101.737 43.3076 101.502C43.1096 101.26 43.0106 100.945 43.0106 100.556C43.0106 100.248 43.1022 99.9657 43.2856 99.709C43.4689 99.4523 43.7292 99.2507 44.0666 99.104C44.4039 98.95 44.7889 98.873 45.2216 98.873C45.8889 98.873 46.4279 99.0417 46.8386 99.379C47.2492 99.7163 47.4692 100.178 47.4986 100.765H46.4976C46.4756 100.45 46.3472 100.197 46.1126 100.006C45.8852 99.8153 45.5772 99.72 45.1886 99.72C44.8292 99.72 44.5432 99.797 44.3306 99.951C44.1179 100.105 44.0116 100.307 44.0116 100.556C44.0116 100.754 44.0739 100.919 44.1986 101.051C44.3306 101.176 44.4919 101.278 44.6826 101.359C44.8806 101.432 45.1519 101.517 45.4966 101.612C45.9292 101.729 46.2812 101.847 46.5526 101.964C46.8239 102.074 47.0549 102.243 47.2456 102.47C47.4436 102.697 47.5462 102.994 47.5536 103.361C47.5536 103.691 47.4619 103.988 47.2786 104.252C47.0952 104.516 46.8349 104.725 46.4976 104.879C46.1676 105.026 45.7862 105.099 45.3536 105.099ZM16.1996 114.975C16.1996 114.352 16.3242 113.809 16.5736 113.347C16.8229 112.878 17.1676 112.515 17.6076 112.258C18.0549 112.001 18.5646 111.873 19.1366 111.873C19.8772 111.873 20.4859 112.053 20.9626 112.412C21.4466 112.771 21.7656 113.27 21.9196 113.908H20.8416C20.7389 113.541 20.5372 113.252 20.2366 113.039C19.9432 112.826 19.5766 112.72 19.1366 112.72C18.5646 112.72 18.1026 112.918 17.7506 113.314C17.3986 113.703 17.2226 114.256 17.2226 114.975C17.2226 115.701 17.3986 116.262 17.7506 116.658C18.1026 117.054 18.5646 117.252 19.1366 117.252C19.5766 117.252 19.9432 117.149 20.2366 116.944C20.5299 116.739 20.7316 116.445 20.8416 116.064H21.9196C21.7582 116.68 21.4356 117.175 20.9516 117.549C20.4676 117.916 19.8626 118.099 19.1366 118.099C18.5646 118.099 18.0549 117.971 17.6076 117.714C17.1676 117.457 16.8229 117.094 16.5736 116.625C16.3242 116.156 16.1996 115.606 16.1996 114.975ZM22.8812 114.964C22.8812 114.348 23.0059 113.809 23.2552 113.347C23.5045 112.878 23.8455 112.515 24.2782 112.258C24.7182 112.001 25.2059 111.873 25.7412 111.873C26.2692 111.873 26.7275 111.987 27.1162 112.214C27.5049 112.441 27.7945 112.727 27.9852 113.072V111.972H28.9972V118H27.9852V116.878C27.7872 117.23 27.4902 117.523 27.0942 117.758C26.7055 117.985 26.2509 118.099 25.7302 118.099C25.1949 118.099 24.7109 117.967 24.2782 117.703C23.8455 117.439 23.5045 117.069 23.2552 116.592C23.0059 116.115 22.8812 115.573 22.8812 114.964ZM27.9852 114.975C27.9852 114.52 27.8935 114.124 27.7102 113.787C27.5269 113.45 27.2775 113.193 26.9622 113.017C26.6542 112.834 26.3132 112.742 25.9392 112.742C25.5652 112.742 25.2242 112.83 24.9162 113.006C24.6082 113.182 24.3625 113.439 24.1792 113.776C23.9959 114.113 23.9042 114.509 23.9042 114.964C23.9042 115.426 23.9959 115.829 24.1792 116.174C24.3625 116.511 24.6082 116.772 24.9162 116.955C25.2242 117.131 25.5652 117.219 25.9392 117.219C26.3132 117.219 26.6542 117.131 26.9622 116.955C27.2775 116.772 27.5269 116.511 27.7102 116.174C27.8935 115.829 27.9852 115.43 27.9852 114.975ZM36.0348 111.972V118H35.0338V117.109C34.8431 117.417 34.5755 117.659 34.2308 117.835C33.8935 118.004 33.5195 118.088 33.1088 118.088C32.6395 118.088 32.2178 117.993 31.8438 117.802C31.4698 117.604 31.1728 117.311 30.9528 116.922C30.7401 116.533 30.6338 116.06 30.6338 115.503V111.972H31.6238V115.371C31.6238 115.965 31.7741 116.423 32.0748 116.746C32.3755 117.061 32.7861 117.219 33.3068 117.219C33.8421 117.219 34.2638 117.054 34.5718 116.724C34.8798 116.394 35.0338 115.914 35.0338 115.283V111.972H36.0348ZM37.3509 114.964C37.3509 114.348 37.4756 113.809 37.7249 113.347C37.9743 112.878 38.3153 112.515 38.7479 112.258C39.1879 112.001 39.6793 111.873 40.2219 111.873C40.6913 111.873 41.1276 111.983 41.5309 112.203C41.9343 112.416 42.2423 112.698 42.4549 113.05V109.86H43.4669V118H42.4549V116.867C42.2569 117.226 41.9636 117.523 41.5749 117.758C41.1863 117.985 40.7316 118.099 40.2109 118.099C39.6756 118.099 39.1879 117.967 38.7479 117.703C38.3153 117.439 37.9743 117.069 37.7249 116.592C37.4756 116.115 37.3509 115.573 37.3509 114.964ZM42.4549 114.975C42.4549 114.52 42.3633 114.124 42.1799 113.787C41.9966 113.45 41.7473 113.193 41.4319 113.017C41.1239 112.834 40.7829 112.742 40.4089 112.742C40.0349 112.742 39.6939 112.83 39.3859 113.006C39.0779 113.182 38.8323 113.439 38.6489 113.776C38.4656 114.113 38.3739 114.509 38.3739 114.964C38.3739 115.426 38.4656 115.829 38.6489 116.174C38.8323 116.511 39.0779 116.772 39.3859 116.955C39.6939 117.131 40.0349 117.219 40.4089 117.219C40.7829 117.219 41.1239 117.131 41.4319 116.955C41.7473 116.772 41.9966 116.511 42.1799 116.174C42.3633 115.829 42.4549 115.43 42.4549 114.975ZM44.7845 114.964C44.7845 114.348 44.9092 113.809 45.1585 113.347C45.4079 112.878 45.7489 112.515 46.1815 112.258C46.6215 112.001 47.1092 111.873 47.6445 111.873C48.1725 111.873 48.6309 111.987 49.0195 112.214C49.4082 112.441 49.6979 112.727 49.8885 113.072V111.972H50.9005V118H49.8885V116.878C49.6905 117.23 49.3935 117.523 48.9975 117.758C48.6089 117.985 48.1542 118.099 47.6335 118.099C47.0982 118.099 46.6142 117.967 46.1815 117.703C45.7489 117.439 45.4079 117.069 45.1585 116.592C44.9092 116.115 44.7845 115.573 44.7845 114.964ZM49.8885 114.975C49.8885 114.52 49.7969 114.124 49.6135 113.787C49.4302 113.45 49.1809 113.193 48.8655 113.017C48.5575 112.834 48.2165 112.742 47.8425 112.742C47.4685 112.742 47.1275 112.83 46.8195 113.006C46.5115 113.182 46.2659 113.439 46.0825 113.776C45.8992 114.113 45.8075 114.509 45.8075 114.964C45.8075 115.426 45.8992 115.829 46.0825 116.174C46.2659 116.511 46.5115 116.772 46.8195 116.955C47.1275 117.131 47.4685 117.219 47.8425 117.219C48.2165 117.219 48.5575 117.131 48.8655 116.955C49.1809 116.772 49.4302 116.511 49.6135 116.174C49.7969 115.829 49.8885 115.43 49.8885 114.975ZM53.5931 109.86V118H52.5921V109.86H53.5931ZM60.7991 114.755C60.7991 114.946 60.7881 115.147 60.7661 115.36H55.9481C55.9848 115.954 56.1865 116.42 56.5531 116.757C56.9271 117.087 57.3781 117.252 57.9061 117.252C58.3388 117.252 58.6981 117.153 58.9841 116.955C59.2775 116.75 59.4828 116.478 59.6001 116.141H60.6781C60.5168 116.72 60.1941 117.193 59.7101 117.56C59.2261 117.919 58.6248 118.099 57.9061 118.099C57.3341 118.099 56.8208 117.971 56.3661 117.714C55.9188 117.457 55.5668 117.094 55.3101 116.625C55.0535 116.148 54.9251 115.598 54.9251 114.975C54.9251 114.352 55.0498 113.805 55.2991 113.336C55.5485 112.867 55.8968 112.507 56.3441 112.258C56.7988 112.001 57.3195 111.873 57.9061 111.873C58.4781 111.873 58.9841 111.998 59.4241 112.247C59.8641 112.496 60.2015 112.841 60.4361 113.281C60.6781 113.714 60.7991 114.205 60.7991 114.755ZM59.7651 114.546C59.7651 114.165 59.6808 113.838 59.5121 113.567C59.3435 113.288 59.1125 113.079 58.8191 112.94C58.5331 112.793 58.2141 112.72 57.8621 112.72C57.3561 112.72 56.9235 112.881 56.5641 113.204C56.2121 113.527 56.0105 113.974 55.9591 114.546H59.7651Z" fill="#2D4941"/>
<g clip-path="url(#clip0_226_1585)">
<path d="M46.0364 15.1869C44.2213 14.644 42.2911 15.2937 40.29 17.1092C32.5781 24.1223 25.7781 46.7277 27.9562 58.1016L27.9827 58.1817C29.851 61.973 36.4739 67.5264 37.439 68.3185C37.439 68.7724 37.439 69.2441 37.4478 69.7069C33.5874 67.117 30.3911 63.6283 28.151 59.5433C27.9473 59.1695 27.3718 59.5077 27.5754 59.8815C29.9218 64.1534 33.2864 67.7845 37.3504 70.4544C37.3859 70.4811 37.4213 70.49 37.4567 70.4989C37.4567 70.9706 37.4567 71.4423 37.4656 71.9229C37.4656 72.2344 37.4744 72.5281 37.4833 72.8307C37.076 72.2166 36.6067 71.647 36.1197 71.0952C35.3583 70.2319 34.5702 69.3954 33.7557 68.5855C32.1619 67.0013 30.4708 65.5329 28.6911 64.1712C28.3546 63.9131 28.0182 64.4916 28.3546 64.7497C30.0812 66.0847 31.7281 67.5264 33.2864 69.0661C34.039 69.8137 34.7739 70.5879 35.4822 71.38C36.1994 72.181 36.8812 72.9998 37.377 73.9609C37.4124 74.0232 37.4567 74.0588 37.501 74.0855C37.501 74.6017 37.5187 75.1179 37.5275 75.6074C35.3494 71.9941 32.3833 68.9504 29.302 66.1025C28.9921 65.8088 28.514 66.2804 28.8327 66.5741C32.1619 69.6535 35.3671 72.9553 37.5541 76.978C37.5541 77.0759 37.5541 77.1738 37.5541 77.2717C35.0395 73.2223 31.9406 69.6891 28.0624 66.8856C27.7171 66.6364 27.3807 67.2149 27.726 67.4641C31.7546 70.3743 34.9156 74.0944 37.4478 78.3574C37.4833 78.4197 37.5364 78.4553 37.5807 78.482C37.5807 78.838 37.5984 79.1851 37.6072 79.5233C34.9598 75.2603 31.8343 71.1397 27.4869 68.5232C27.115 68.3007 26.7874 68.8792 27.1504 69.1017C30.5593 71.1575 33.189 74.1567 35.4379 77.4141C33.9416 75.8833 32.1531 74.7263 29.8952 74.7619C29.4702 74.7619 29.4702 75.4383 29.8952 75.4294C32.5869 75.376 34.5702 77.2361 36.1728 79.2474C34.9333 78.2773 33.3926 77.6721 31.8432 77.3518C31.427 77.2628 31.2499 77.9035 31.6661 77.9925C33.5963 78.393 35.5088 79.2385 36.7749 80.7604C36.5004 80.618 36.2171 80.4934 35.9072 80.4222C34.8624 80.1908 33.7999 80.44 32.8171 80.8138C32.4187 80.9651 32.5958 81.6058 32.9942 81.4546C33.8353 81.1431 34.7562 80.8672 35.6593 81.0541C36.2879 81.1787 36.8635 81.5079 37.3062 81.9707C36.1551 82.1131 35.0395 82.4513 34.0124 83.0031C33.6317 83.2078 33.9682 83.7774 34.3489 83.5816C35.3848 83.0298 36.5359 82.6916 37.7046 82.5937C38.0676 93.5582 38.652 94.8131 39.2807 94.9733L39.4577 95.0178L39.5906 94.8932C41.0781 93.5404 41.0072 89.3575 40.476 82.9942C40.5379 82.9853 40.5911 82.9675 40.6442 82.9141C41.751 81.9351 43.1588 81.3033 44.6286 81.1431C44.8057 81.1253 44.965 81.0007 44.965 80.8049C44.965 80.6358 44.8145 80.4489 44.6286 80.4667C43.3093 80.6091 42.0609 81.0897 40.9718 81.8372C42.9906 79.1228 46.7447 78.1616 48.4624 75.109C48.6749 74.7352 48.0994 74.397 47.8869 74.7708C46.1692 77.8234 42.3708 78.7757 40.352 81.5524C40.3343 81.3567 40.3166 81.152 40.2989 80.9562C40.3609 80.9295 40.414 80.8939 40.4583 80.8227C43.2473 76.3372 49.277 74.9844 51.4817 70.0095C51.6499 69.6179 51.0833 69.2797 50.9062 69.6713C48.8254 74.3614 43.2739 75.8566 40.3343 79.8348C40.7504 78.5354 41.8218 77.5565 42.8843 76.7288C44.2213 75.6964 45.6645 74.8153 46.9218 73.6762C47.2406 73.3914 46.7713 72.9197 46.4525 73.2045C45.1333 74.397 43.5926 75.3048 42.2114 76.4173C41.4057 77.067 40.6088 77.8234 40.0952 78.7401C40.0775 78.5087 40.051 78.2773 40.0333 78.0459C40.0952 78.0459 40.1661 78.0103 40.2192 77.9391C43.6103 73.5516 50.2156 71.8161 51.8004 66.0135C51.9156 65.5952 51.2692 65.4172 51.163 65.8355C49.826 70.7481 44.6109 72.7061 41.1223 75.9812C43.5307 72.7862 47.2051 70.7125 49.4452 67.3484C49.6843 66.9924 49.1088 66.6542 48.8697 67.0102C46.6739 70.3031 43.1145 72.3501 40.7062 75.4294C41.1046 74.6284 41.6624 73.8898 42.2379 73.2134C43.0968 72.2077 44.0442 71.2732 44.9827 70.3298C46.7801 68.5321 48.5775 66.672 49.6489 64.3225C49.826 63.9309 49.2504 63.5927 49.0734 63.9843C47.9135 66.5385 45.8859 68.4787 43.9379 70.4366C42.3973 71.9852 40.5822 73.7118 39.8385 75.8388C39.8031 75.4472 39.7676 75.0556 39.7322 74.6551C39.7588 74.6284 39.7853 74.5928 39.7942 74.5572C40.9187 71.6826 43.4864 69.7603 45.576 67.6154C47.7895 65.346 49.7197 62.8184 51.3577 60.104C51.5791 59.7391 51.0036 59.4009 50.7822 59.7658C49.0379 62.6493 46.9572 65.3193 44.5666 67.6866C42.7692 69.4577 40.8036 71.1308 39.6171 73.3736C39.5817 72.9286 39.5374 72.4747 39.502 72.0208C40.2369 70.9439 40.9895 69.8849 41.8572 68.9059C42.7161 67.9358 43.7077 67.1081 44.664 66.236C46.5322 64.545 48.0374 62.5603 49.5249 60.5312C49.7817 60.1841 49.2062 59.8548 48.9494 60.193C47.4088 62.2934 45.8327 64.3047 43.8848 66.0402C42.9463 66.8767 42.0077 67.7133 41.1843 68.6656C40.5557 69.4043 39.9801 70.1874 39.4223 70.9795C39.3515 70.1073 39.2807 69.2174 39.2187 68.3185C40.5645 67.2594 50.7114 59.214 53.5182 54.3192L53.5536 54.2302C55.0942 48.0359 54.4833 18.6489 46.0541 15.178L46.0364 15.1869ZM39.3603 94.1367C38.4218 92.0898 38.2093 77.0136 38.1385 71.914C38.0853 68.2829 38.0942 64.8031 38.1473 61.5013C38.3952 67.5709 38.9176 73.2312 39.3692 78.1171C40.1041 85.9934 40.6885 92.2945 39.3692 94.1456L39.3603 94.1367ZM52.8984 54.0344C50.3307 58.4487 41.3437 65.7643 39.139 67.5175C38.6343 60.1129 38.3864 51.8183 39.1656 43.3902C39.5551 39.679 40.051 36.2704 40.6619 33.1555C41.6801 28.1894 43.1676 23.2768 45.2661 18.5955L44.664 18.3107C42.7426 22.1287 41.2197 26.9257 40.0687 32.7461C39.3161 36.3416 38.8114 39.9638 38.4838 43.5593C37.7666 50.4834 37.4213 58.4398 37.439 67.473C35.7124 66.0135 30.2406 61.2165 28.6025 57.9503C26.5218 46.9324 33.3129 24.3447 40.7327 17.5987C42.5478 15.9434 44.2656 15.356 45.815 15.8099C49.1442 17.1804 51.6411 23.6061 52.8364 33.9031C53.8015 42.171 53.651 50.964 52.9072 54.0344H52.8984Z" fill="#021120"/>
</g>
<defs>
<clipPath id="clip0_226_1585">
<rect width="27.2" height="80" fill="white" transform="translate(27 15)"/>
</clipPath>
</defs>
</svg>
