<svg width="61" height="66" viewBox="0 0 61 66" fill="none" xmlns="http://www.w3.org/2000/svg">
<path d="M0 0H61V62C61 64.2091 59.2091 66 57 66H4C1.79086 66 0 64.2091 0 62V0Z" fill="#B6DCFA"/>
<path d="M42.5 39.3333V30.4444C42.5 30.4167 42.5 30.3889 42.4722 30.3611C42.4722 30.3333 42.4722 30.3333 42.4722 30.3333L42.4167 30.25L38.1667 26.6389C37.9167 26.4167 37.5833 26.25 37.2222 26.2222V16C37.2222 15.4722 36.7778 15 36.2222 15H26.3889C25.8611 15 25.3889 15.4444 25.3889 16V20.9444H20.4722C19.9444 20.9444 19.4722 21.3889 19.4722 21.9444V39.3889H18.5V40H43.5V39.3333H42.5ZM23.4444 33.75C23.4444 33.5556 23.5833 33.4167 23.7778 33.4167H27.0556C27.25 33.4167 27.3889 33.5556 27.3889 33.75V39.3333H23.4444V33.75ZM28.0278 33.75C28.0278 33.2222 27.5833 32.75 27.0278 32.75H23.75C23.2222 32.75 22.75 33.1944 22.75 33.75V39.3333H20.1111V21.9167C20.1111 21.7222 20.25 21.5833 20.4444 21.5833H30.3056C30.5 21.5833 30.6389 21.7222 30.6389 21.9167V39.3611H28V33.75H28.0278ZM31.3333 34.75H34.6111V39.3611H31.3333V34.75ZM34.9444 34.0833H31.3333V28.3611L32.7778 27.1389C32.8889 27.0278 33.0833 27.0278 33.1944 27.1389L33.8611 27.7222L37.25 30.6111V39.3333H35.2778V34.4167C35.2778 34.2222 35.1389 34.0833 34.9444 34.0833ZM37.9167 30.7778H41.8611V39.3333H37.9167V30.7778ZM23.75 27.5H22.4444C21.9167 27.5 21.4444 27.9444 21.4444 28.5V29.8056C21.4444 30.3333 21.8889 30.8056 22.4444 30.8056H23.75C24.2778 30.8056 24.75 30.3611 24.75 29.8056V28.5C24.75 27.9444 24.3056 27.5 23.75 27.5ZM28.3611 30.7778C28.8889 30.7778 29.3611 30.3333 29.3611 29.7778V28.4722C29.3611 27.9444 28.9167 27.4722 28.3611 27.4722H27.0556C26.5278 27.4722 26.0556 27.9167 26.0556 28.4722V29.7778C26.0556 30.3056 26.5 30.7778 27.0556 30.7778H28.3611ZM24.0833 29.8056C24.0833 30 23.9444 30.1389 23.75 30.1389H22.4444C22.25 30.1389 22.1111 30 22.1111 29.8056V28.5C22.1111 28.3056 22.25 28.1667 22.4444 28.1667H23.75C23.9444 28.1667 24.0833 28.3056 24.0833 28.5V29.8056ZM26.7222 29.8056V28.5C26.7222 28.3056 26.8611 28.1667 27.0556 28.1667H28.3611C28.5556 28.1667 28.6944 28.3056 28.6944 28.5V29.8056C28.6944 30 28.5556 30.1389 28.3611 30.1389H27.0556C26.8611 30.1389 26.7222 29.9722 26.7222 29.8056ZM37.6944 30.1389L33.8611 26.8333H37.0833C37.3333 26.8333 37.5556 26.9167 37.75 27.0833L41.3056 30.1389H37.6944ZM26.3889 15.6667H36.25C36.4444 15.6667 36.5833 15.8056 36.5833 16V26.1944H32.9722C32.8333 26.1944 32.7222 26.2778 32.6667 26.4167V26.4722C32.5556 26.5 32.4444 26.5833 32.3333 26.6667L31.3333 27.5V21.9167C31.3333 21.3889 30.8889 20.9167 30.3333 20.9167H26.0556V16C26.0556 15.8056 26.2222 15.6667 26.3889 15.6667ZM23.75 22.8889H22.4444C21.9167 22.8889 21.4444 23.3333 21.4444 23.8889V25.1944C21.4444 25.7222 21.8889 26.1944 22.4444 26.1944H23.75C24.2778 26.1944 24.75 25.75 24.75 25.1944V23.8889C24.75 23.3333 24.3056 22.8889 23.75 22.8889ZM27.0556 26.1944H28.3611C28.8889 26.1944 29.3611 25.75 29.3611 25.1944V23.8889C29.3611 23.3611 28.9167 22.8889 28.3611 22.8889H27.0556C26.5278 22.8889 26.0556 23.3333 26.0556 23.8889V25.1944C26.0556 25.75 26.5 26.1944 27.0556 26.1944ZM24.0833 25.1944C24.0833 25.3889 23.9444 25.5278 23.75 25.5278H22.4444C22.25 25.5278 22.1111 25.3889 22.1111 25.1944V23.8889C22.1111 23.6944 22.25 23.5556 22.4444 23.5556H23.75C23.9444 23.5556 24.0833 23.6944 24.0833 23.8889V25.1944ZM26.7222 23.8889C26.7222 23.6944 26.8611 23.5556 27.0556 23.5556H28.3611C28.5556 23.5556 28.6944 23.6944 28.6944 23.8889V25.1944C28.6944 25.3889 28.5556 25.5278 28.3611 25.5278H27.0556C26.8611 25.5278 26.7222 25.3889 26.7222 25.1944V23.8889ZM32.9722 24.8611H34.2778C34.8056 24.8611 35.2778 24.4167 35.2778 23.8611V22.5556C35.2778 22.0278 34.8333 21.5556 34.2778 21.5556H32.9722C32.4444 21.5556 31.9722 22 31.9722 22.5556V23.8889C32 24.4167 32.4444 24.8611 32.9722 24.8611ZM32.6389 22.5556C32.6389 22.3611 32.7778 22.2222 32.9722 22.2222H34.2778C34.4722 22.2222 34.6111 22.3611 34.6111 22.5556V23.8889C34.6111 24.0833 34.4722 24.2222 34.2778 24.2222H32.9722C32.7778 24.2222 32.6389 24.0833 32.6389 23.8889V22.5556ZM28.3611 20.25H29.6667C30.1944 20.25 30.6667 19.8056 30.6667 19.25V17.9444C30.6667 17.4167 30.2222 16.9444 29.6667 16.9444H28.3611C27.8333 16.9444 27.3611 17.3889 27.3611 17.9444V19.25C27.3889 19.8056 27.8333 20.25 28.3611 20.25ZM32.9722 20.25H34.2778C34.8056 20.25 35.2778 19.8056 35.2778 19.25V17.9444C35.2778 17.4167 34.8333 16.9444 34.2778 16.9444H32.9722C32.4444 16.9444 31.9722 17.3889 31.9722 17.9444V19.25C32 19.8056 32.4444 20.25 32.9722 20.25ZM28.0278 17.9722C28.0278 17.7778 28.1667 17.6389 28.3611 17.6389H29.6667C29.8611 17.6389 30 17.7778 30 17.9722V19.2778C30 19.4722 29.8611 19.6111 29.6667 19.6111H28.3611C28.1667 19.6111 28.0278 19.4722 28.0278 19.2778V17.9722ZM32.6389 17.9722C32.6389 17.7778 32.7778 17.6389 32.9722 17.6389H34.2778C34.4722 17.6389 34.6111 17.7778 34.6111 17.9722V19.2778C34.6111 19.4722 34.4722 19.6111 34.2778 19.6111H32.9722C32.7778 19.6111 32.6389 19.4722 32.6389 19.2778V17.9722Z" fill="#021120"/>
<path d="M28.0873 45.424L25.9833 51H25.1433L23.0393 45.424H23.8153L25.5673 50.232L27.3193 45.424H28.0873ZM29.2615 45.904C29.1229 45.904 29.0055 45.856 28.9095 45.76C28.8135 45.664 28.7655 45.5467 28.7655 45.408C28.7655 45.2693 28.8135 45.152 28.9095 45.056C29.0055 44.96 29.1229 44.912 29.2615 44.912C29.3949 44.912 29.5069 44.96 29.5975 45.056C29.6935 45.152 29.7415 45.2693 29.7415 45.408C29.7415 45.5467 29.6935 45.664 29.5975 45.76C29.5069 45.856 29.3949 45.904 29.2615 45.904ZM29.6135 46.616V51H28.8855V46.616H29.6135ZM31.5823 45.08V51H30.8543V45.08H31.5823ZM33.551 45.08V51H32.823V45.08H33.551ZM38.7918 48.64C38.7918 48.7787 38.7838 48.9253 38.7678 49.08H35.2638C35.2904 49.512 35.4371 49.8507 35.7038 50.096C35.9758 50.336 36.3038 50.456 36.6878 50.456C37.0024 50.456 37.2638 50.384 37.4718 50.24C37.6851 50.0907 37.8344 49.8933 37.9198 49.648H38.7038C38.5864 50.0693 38.3518 50.4133 37.9998 50.68C37.6478 50.9413 37.2104 51.072 36.6878 51.072C36.2718 51.072 35.8984 50.9787 35.5678 50.792C35.2424 50.6053 34.9864 50.3413 34.7998 50C34.6131 49.6533 34.5198 49.2533 34.5198 48.8C34.5198 48.3467 34.6104 47.9493 34.7918 47.608C34.9731 47.2667 35.2264 47.0053 35.5518 46.824C35.8824 46.6373 36.2611 46.544 36.6878 46.544C37.1038 46.544 37.4718 46.6347 37.7918 46.816C38.1118 46.9973 38.3571 47.248 38.5278 47.568C38.7038 47.8827 38.7918 48.24 38.7918 48.64ZM38.0398 48.488C38.0398 48.2107 37.9784 47.9733 37.8558 47.776C37.7331 47.5733 37.5651 47.4213 37.3518 47.32C37.1438 47.2133 36.9118 47.16 36.6558 47.16C36.2878 47.16 35.9731 47.2773 35.7118 47.512C35.4558 47.7467 35.3091 48.072 35.2718 48.488H38.0398Z" fill="#021120"/>
</svg>
