<svg width="77" height="128" viewBox="0 0 77 128" fill="none" xmlns="http://www.w3.org/2000/svg">
<rect x="0.25" y="0.25" width="76.5" height="127.5" rx="9.75" fill="#2D4941" stroke="#2D4941" stroke-width="0.5"/>
<path d="M42.3306 15.2958C41.4138 14.3735 40.5729 13.9377 39.8331 14.0072C34.7811 14.4809 24.9428 30.1211 24.0449 54.2573C23.5075 68.7226 27.8956 77.8945 31.5691 82.9858C31.5249 82.9668 31.4933 82.9352 31.449 82.9163C30.431 82.4552 29.3182 82.6004 28.2496 82.771C27.9461 82.8152 28.0789 83.2763 28.3761 83.2258C29.3056 83.0805 30.3235 82.9289 31.2151 83.3269C31.8284 83.5985 32.3026 84.0912 32.6124 84.6786C31.8094 84.2681 30.9052 84.0659 29.9947 84.1101C29.6913 84.1228 29.6913 84.5965 29.9947 84.5839C31.2467 84.5207 32.4923 84.9566 33.4217 85.7967C33.1625 85.8662 32.8969 85.9862 32.663 86.0746C31.9675 86.3463 31.2403 86.5547 30.5069 86.7C30.2097 86.7568 30.3362 87.218 30.6334 87.1548C31.2783 87.0285 31.9106 86.8516 32.5239 86.6305C32.8337 86.5168 33.1309 86.3715 33.4344 86.2641C33.6936 86.1757 33.9529 86.1441 34.1489 86.3778C34.1805 86.4157 34.2121 86.4347 34.25 86.441C34.1868 86.4536 34.1236 86.4536 34.0667 86.4726C33.5988 86.5863 33.1435 86.7821 32.7199 87.0221C31.86 87.5148 31.1455 88.216 30.5069 88.9614C30.3109 89.1888 30.646 89.5299 30.842 89.2962C31.3731 88.6771 31.9548 88.0834 32.644 87.6285C32.9855 87.4011 33.3459 87.2116 33.7252 87.0727C33.9149 87.0032 34.1046 86.9463 34.3006 86.9084C34.4018 86.8895 34.5029 86.8705 34.6041 86.8579C34.6547 86.8516 34.7053 86.8453 34.7622 86.839C34.876 86.8263 34.8633 86.8516 34.8254 86.7947C34.8507 86.8263 34.8823 86.8516 34.9266 86.8642C35.0846 87.0158 35.2364 87.1548 35.3755 87.2811C35.1479 87.3317 34.9202 87.4517 34.7306 87.5464C34.2563 87.7738 33.8011 88.0518 33.3838 88.3676C32.5492 89.0056 31.841 89.8078 31.3289 90.7237C31.1771 90.989 31.5881 91.2291 31.7399 90.9638C32.1761 90.1931 32.7389 89.5109 33.4154 88.9424C33.7442 88.6645 34.0983 88.4245 34.4776 88.2097C34.6673 88.1023 34.8633 88.0012 35.0657 87.9128C35.1668 87.8686 35.268 87.8244 35.3755 87.7802C35.3945 87.7738 35.4893 87.7422 35.5462 87.7233C34.7685 88.355 34.1742 89.1761 33.8454 90.13C33.7442 90.4205 34.2058 90.5406 34.3006 90.2563C34.6168 89.3404 35.2174 88.5255 35.9951 87.9507C36.0267 87.9254 36.052 87.9002 36.071 87.8686C36.1279 87.9128 36.1785 87.9507 36.2164 87.9823C36.3872 102.89 37.0131 112.725 37.2597 113.167C37.5442 113.672 38.0374 113.982 38.5812 114.001C38.5938 114.001 38.6065 114.001 38.6191 114.001C39.1629 114.001 39.6561 113.704 39.9849 113.18C40.1935 112.845 40.1176 110.325 39.8584 102.391C39.7383 98.8028 39.5928 94.3495 39.4601 89.2014C39.4917 89.2204 39.5296 89.233 39.5675 89.233C40.0797 89.2835 40.5097 89.6689 40.7689 90.0921C41.0977 90.629 41.2115 91.2733 41.3253 91.8797C41.3822 92.1766 41.8375 92.0503 41.7805 91.7534C41.6478 91.0585 41.5087 90.3384 41.1103 89.7447C40.9206 89.4604 40.674 89.2267 40.3958 89.0498C41.3253 88.8477 42.4255 88.7466 43.14 89.492C43.3486 89.7131 43.6837 89.3783 43.4751 89.1572C43.1147 88.7782 42.6784 88.5824 42.2105 88.5003C43.0894 88.1276 44.1706 88.2918 44.8724 88.9424C45.0937 89.1509 45.4352 88.8161 45.2075 88.6076C44.727 88.1655 44.1137 87.9065 43.4751 87.8433C43.943 87.6349 44.4867 87.6665 44.9167 87.9507C45.0242 88.0202 45.1759 87.9697 45.2391 87.8686C45.3087 87.7549 45.2644 87.6159 45.1569 87.5464C44.7776 87.3001 44.3097 87.199 43.8671 87.2495C43.924 87.2053 43.9746 87.1674 44.0315 87.1232C44.4109 86.8137 44.8092 86.4536 45.2075 86.0241C45.2518 86.0431 45.3087 86.0557 45.3593 86.0367C45.8588 85.8725 46.352 85.7841 46.8704 85.7651C46.9969 85.7651 47.1107 85.6577 47.1107 85.5251C47.1107 85.3988 47.0095 85.285 46.8704 85.285C46.6238 85.2914 46.3836 85.323 46.1433 85.3608C46.5543 85.1398 46.9906 84.9818 47.4585 84.8871C47.5849 84.8618 47.6545 84.7102 47.6229 84.5965C47.5849 84.4639 47.4585 84.407 47.332 84.4323C46.9653 84.5081 46.6049 84.6281 46.2634 84.7797C48.8432 81.3876 51.4924 75.1909 52.6495 63.884C54.9827 40.8153 47.3004 20.2986 42.3306 15.2958ZM34.446 86.4031C34.446 86.4031 34.4524 86.4094 34.4587 86.4157C34.446 86.4157 34.4334 86.4157 34.4207 86.4157C34.4271 86.4157 34.4397 86.4031 34.446 86.3968V86.4031ZM39.5739 112.927C39.3273 113.319 38.9542 113.508 38.5875 113.527C38.2145 113.521 37.873 113.3 37.677 112.946C37.1649 111.411 34.9961 67.1561 39.2008 23.0464C37.892 57.0051 38.8847 87.2875 39.3842 102.403C39.5802 108.291 39.7193 112.542 39.5802 112.927H39.5739ZM52.15 63.8398C49.7537 87.2685 40.8953 88.5129 39.4284 88.5571C38.9542 70.3902 38.6128 43.7652 40.0101 15.2137L39.5359 15.1758C36.5515 41.4786 36.0015 68.4194 36.2038 87.3822C35.9572 87.1801 35.6031 86.8769 35.1732 86.4663C35.1732 86.4663 35.1732 86.4663 35.1668 86.46C33.9276 85.2787 32.0497 83.2195 30.2224 80.1243C27.3644 75.2794 24.0513 66.8655 24.5192 54.2763C25.4676 28.8767 35.7169 14.8662 39.8774 14.4809C40.4527 14.4304 41.1925 14.822 41.9955 15.6306C44.7333 18.3847 47.8062 25.3141 49.8295 33.2795C51.5999 40.2531 53.4399 51.219 52.15 63.8398Z" fill="#F5EFE7"/>
<path d="M30.8132 35.0635C30.2094 36.2162 29.7948 37.5181 29.4035 38.7545C29.2826 39.1366 29.0702 39.6524 29.0702 40.0705C29.0702 40.162 29.1373 39.9 29.1674 39.8135C29.3881 39.1795 29.6253 38.5516 29.8653 37.9246C30.298 36.7947 30.6964 35.6215 31.2507 34.5427C31.2988 34.4491 31.8723 33.4562 31.6535 34.0496C30.7942 36.3799 27.6539 43.1391 28.7646 40.9177C29.1572 40.1325 29.3932 39.2076 29.6952 38.3864C30.1834 37.0591 30.6758 35.7403 31.2611 34.4524C31.2832 34.4038 31.6004 33.6488 31.5424 34.1052C31.36 35.5417 30.7159 36.9642 30.2125 38.3066C29.8737 39.2101 29.511 40.1096 29.2959 41.0531C29.2781 41.1312 29.2385 41.362 29.2785 41.2927C29.5392 40.8408 29.7072 40.2101 29.8827 39.7406C30.4982 38.0932 31.1122 36.4453 31.723 34.7962C31.7593 34.6981 31.8666 34.4105 31.8618 34.5149C31.8387 35.0246 31.5811 35.649 31.4313 36.1087C30.9886 37.4673 30.468 38.7975 29.9799 40.1399C29.8656 40.4542 29.7442 40.771 29.6709 41.0982C29.6455 41.2116 29.5357 41.4974 29.6396 41.4455C29.6721 41.4292 29.6805 41.3849 29.6952 41.3517C29.8085 41.0958 30.0032 40.5375 30.0702 40.3482C30.4237 39.3489 30.7604 38.3438 31.0841 37.3343C31.3427 36.5277 31.5864 35.7164 31.848 34.9107C31.9001 34.7502 31.992 34.3179 32.1257 34.1538C32.1847 34.0815 32.1735 34.3392 32.1605 34.4316C32.0604 35.1404 31.8 35.8436 31.5702 36.5149C30.9224 38.4068 30.1135 40.2621 29.5702 42.1885C29.4517 42.6086 29.353 43.4313 29.723 42.508C30.5609 40.4168 31.1708 38.2208 31.7855 36.0566C31.9427 35.503 32.1575 34.7219 32.3132 34.1468C32.3555 33.9908 32.3969 33.8344 32.4382 33.6781C32.4647 33.5782 32.4356 33.3222 32.5216 33.3795C32.5418 33.393 32.5259 33.4285 32.5216 33.4524C32.4481 33.8593 32.3053 34.3872 32.2021 34.751C31.788 36.2106 31.311 37.6514 30.8445 39.0948C30.3201 40.7171 29.6765 42.3875 29.4868 44.0948C29.3554 45.2774 30.0266 43.464 30.0667 43.3413C31.1136 40.1359 31.8726 36.8215 32.6327 33.5392C32.801 32.8122 32.9493 32.0756 33.1466 31.3552C33.1553 31.3234 33.2389 30.9034 33.282 31.1955C33.3897 31.9257 33.2871 32.7812 33.2091 33.4941C33.01 35.3131 32.6721 37.108 32.216 38.8795C31.6988 40.8886 30.8983 42.8569 30.6153 44.9212C30.4476 46.1444 30.9426 44.6473 31.0355 44.3691C32.1481 41.0368 32.88 37.6121 33.6466 34.1885C33.8929 33.0883 34.1212 31.9786 34.4174 30.8899C34.4806 30.6576 34.5494 30.3252 34.6743 30.1052C34.8056 29.8741 34.6569 30.6378 34.6153 30.9003C34.4112 32.1893 34.1289 33.4664 33.8341 34.7371C33.1621 37.6329 32.3022 40.4843 31.6605 43.3864C31.5193 44.025 31.2821 45.8663 31.6813 45.3482C32.1 44.8048 32.2743 43.8361 32.4452 43.2163C32.8969 41.5779 33.2689 39.9186 33.6118 38.2545C34.1058 35.8579 34.4229 33.3778 35.1396 31.0323C35.1702 30.932 35.2716 30.6604 35.2993 30.7614C35.4598 31.346 35.3248 32.2231 35.2716 32.7996C34.961 36.1619 33.986 39.4466 33.3966 42.7649C33.2711 43.4712 33.172 44.1826 33.1049 44.8968C33.0894 45.0614 33.0171 45.4121 33.1049 45.5843C33.2046 45.78 33.3358 45.2016 33.3827 44.9871C33.7229 43.432 33.981 41.8502 34.2299 40.2788C34.733 37.1022 34.9519 33.8793 35.5355 30.7163C35.6206 30.255 35.7141 29.7803 35.8653 29.3343C35.9514 29.0805 35.978 29.1907 35.973 29.4246C35.8901 33.2697 33.4007 44.5836 34.2577 40.8343C35.3541 36.0375 34.5528 30.8686 36.3341 26.2163C36.529 25.7071 36.7623 25.2225 37.0216 24.7441C37.06 24.6731 37.1783 24.3738 37.2681 24.3239C37.419 24.2401 37.2249 24.6674 37.1813 24.8343C37.0001 25.5279 36.7931 26.2159 36.5806 26.9003C36.0196 28.7071 34.1793 34.0718 34.8861 32.317C35.6315 30.4665 36.1281 28.5157 36.7021 26.6087C36.9833 25.6743 37.1958 24.4728 37.7716 23.6503C37.7955 23.6161 37.8421 23.5322 37.8653 23.567C37.9311 23.6657 37.784 24.2052 37.7785 24.2302C37.4275 25.8285 36.9373 27.4088 36.4174 28.9593C36.2761 29.3807 35.8869 30.6558 36.0146 30.2302C36.4043 28.9313 36.8694 27.6521 37.3271 26.376C37.6938 25.3539 38.004 24.1925 38.6327 23.2857C38.7319 23.1426 38.7525 23.1985 38.723 23.3587C38.6262 23.883 38.4276 24.4017 38.2577 24.9038C37.5978 26.8537 35.5623 32.6844 36.2299 30.7371C37.1681 28.0007 37.8393 25.2064 39.0459 22.567C39.2492 22.1221 39.7609 20.7663 39.6952 21.251C39.6099 21.8802 39.3356 22.5364 39.1396 23.133C38.8803 23.9222 38.6067 24.7061 38.2959 25.4767C38.0253 26.1475 37.7222 26.8035 37.466 27.4802C37.4467 27.5311 37.255 28.1448 37.341 27.7649C37.7216 26.0839 38.2802 24.4314 38.7646 22.7788C39.0464 21.8176 39.2975 20.8372 39.6257 19.8899C39.6392 19.851 39.7749 19.4008 39.7368 19.5531C39.5828 20.1692 39.3575 20.7606 39.157 21.3621C39.0268 21.7526 38.9198 22.1456 38.8132 22.5427C38.7934 22.6167 38.7487 22.9029 38.6639 22.9593C38.5175 23.0569 38.646 22.6062 38.6674 22.4316C38.7618 21.6616 38.9251 20.9003 39.091 20.1434C39.3321 19.0433 40.0506 15.7419 39.8063 16.8413C39.6959 17.3379 39.4913 17.8189 39.3202 18.2962C39.1701 18.7147 39.0792 19.2317 38.8549 19.6191C38.8172 19.6842 38.8452 19.0908 38.8549 19.0357C38.9902 18.2706 39.2608 17.5207 39.4868 16.7788C39.5909 16.4372 39.6882 16.1076 39.6882 15.751C39.6882 15.5544 39.7401 15.3805 39.7507 15.1885C39.7582 15.0549 39.9821 14.5772 39.6743 14.8621C38.7254 15.7408 37.9171 16.9264 37.3132 18.067C36.9307 18.7896 36.4996 19.4851 36.1466 20.2232C34.9199 22.7881 34.0027 25.4798 33.0702 28.1607C32.3663 30.1843 31.4367 32.1246 30.7924 34.1677C30.6048 34.7624 30.7002 34.2044 30.7577 33.9385C31.1755 32.0061 31.8641 30.098 32.6466 28.2857C32.9839 27.5045 33.3838 26.7621 33.775 26.008C33.9231 25.7226 34.0628 25.4331 34.2091 25.1468C34.216 25.1332 34.3525 24.8417 34.2785 25.0913C33.3121 28.3531 31.3885 31.2652 30.3271 34.4871C30.1374 35.0632 29.6944 36.8277 29.8167 36.2337C30.1653 34.5404 30.703 32.8732 31.223 31.2267C31.4473 30.5163 31.8165 29.7711 31.9278 29.0288C31.9351 28.9804 31.9363 28.8414 31.9105 28.883C31.6774 29.2588 31.4904 29.7091 31.3028 30.1017C30.4889 31.8057 29.8042 33.5519 29.2855 35.3691C29.0928 36.0441 28.9142 36.7339 28.8028 37.4281C28.7871 37.526 28.7701 37.6242 28.7646 37.7232C28.7631 37.7504 28.764 37.8236 28.782 37.8031C28.8274 37.7512 28.8411 37.6779 28.8618 37.6121C29.444 35.7701 29.8568 33.8517 30.2716 31.9663C30.3907 31.4249 30.801 29.8154 30.6257 30.3413C29.8172 32.7669 28.8724 35.1555 28.1396 37.6052C28.0236 37.993 27.7269 39.1698 27.8549 38.7857C28.3177 37.3972 28.6829 35.9569 29.0563 34.5427C29.2827 33.685 29.5301 32.8009 29.6188 31.9142C29.624 31.8619 29.6369 31.7227 29.598 31.758C29.4709 31.873 29.3737 32.2204 29.3236 32.3482C28.6573 34.051 27.9717 35.7677 27.4764 37.5288C27.0288 39.1205 28.4956 34.3743 28.8098 32.751C28.8695 32.4426 28.8507 32.8442 28.8306 32.9385C28.6436 33.8159 28.3166 34.6841 28.0389 35.5357C27.8476 36.1226 27.6572 36.7056 27.5146 37.3066C27.482 37.4439 27.3696 37.8789 27.4938 37.4593C27.723 36.6849 28.0125 35.9298 28.2368 35.1538C28.339 34.8003 28.6373 33.7737 28.4105 34.0635C28.2165 34.3114 28.1239 34.7741 28.025 35.06C27.8014 35.7069 27.5824 36.3568 27.3827 37.0114C27.2973 37.2911 27.2507 37.6688 27.2507 37.2093C27.2507 35.606 28.1119 34.2334 28.4521 32.7024C28.6743 31.7028 29.0313 30.5667 29.5042 29.6503C29.9698 28.7483 30.3472 27.7666 30.8827 26.9038C31.3613 26.1326 31.8369 25.3683 32.341 24.6121C33.3014 23.1715 34.217 21.701 35.223 20.2927C36.163 18.9766 36.9667 17.5975 38.1223 16.442C38.5237 16.0405 38.9286 15.4722 39.4382 15.2024C39.7233 15.0515 39.5162 14.6217 39.1882 14.7857C38.9943 14.8827 38.8209 15.1372 38.6535 15.2823C38.3747 15.5239 38.094 15.7393 37.8375 16.008C37.1134 16.7666 36.4105 17.4997 35.9243 18.4385C35.6698 18.9301 35.296 19.4041 34.966 19.8482C34.5466 20.4128 34.2285 21.0365 33.8341 21.6191C33.2964 22.4132 32.9313 23.2995 32.525 24.1642C31.9359 25.418 31.2871 26.6224 30.8098 27.9281C30.3556 29.1704 30.1032 30.4025 29.9695 31.7128C29.9595 31.8107 29.919 32.0944 29.966 32.008C30.2279 31.5264 30.3988 30.9141 30.6084 30.4177C31.3943 28.5564 32.3314 26.8028 33.3167 25.0427C33.6862 24.3827 34.0459 23.7184 34.4243 23.0635C34.4682 22.9877 34.592 22.756 34.5528 22.8343C34.3512 23.2376 34.1452 23.6388 33.9313 24.0357C33.041 25.6878 32.0732 27.2961 31.1535 28.9316C30.8611 29.4516 30.5663 29.9745 30.3271 30.5218C30.2603 30.6748 30.0592 31.1149 30.1813 31.001C30.3311 30.8612 30.4042 30.657 30.5077 30.4802C31.2342 29.239 31.9343 27.9819 32.6361 26.7267C33.7562 24.7237 34.8713 22.7178 35.9625 20.6989C36.0058 20.619 36.1421 20.3833 36.1049 20.4663C35.9256 20.8664 35.6939 21.2568 35.4799 21.6364C34.4198 23.5172 33.3149 25.3859 32.0736 27.1538C31.8427 27.4828 31.1858 28.4933 31.3896 28.1468C32.1581 26.8404 32.7858 25.4485 33.5424 24.133C33.8633 23.575 34.2015 23.0286 34.5598 22.4941C34.6674 22.3335 34.7032 22.0218 34.8966 22.0218C35.0741 22.0218 34.7409 22.3415 34.65 22.4941C34.3461 23.0043 34.0259 23.5057 33.7091 24.008C33.3086 24.643 32.904 25.2749 32.4834 25.8968C32.4473 25.9502 32.1119 26.5531 31.9799 26.6191C31.9544 26.6318 32.0045 26.5677 32.0181 26.5427C32.0944 26.4023 32.4082 25.8484 32.4278 25.8135C32.8653 25.0364 33.2998 24.2576 33.7368 23.4802C34.0927 22.8472 34.9895 20.8889 34.8341 21.5982C34.7512 21.9764 34.549 22.3641 34.3931 22.7093C33.9602 23.6678 33.4981 24.6129 33.0632 25.5705C32.705 26.3593 32.2787 27.3182 31.9521 28.126C31.9037 28.2458 31.2916 29.4917 31.4417 29.7753C31.4619 29.8135 31.5368 29.8201 31.5702 29.7927C31.9298 29.4967 32.4698 28.561 32.6118 28.3135C33.4329 26.8827 34.1303 25.3852 34.8306 23.8934C35.03 23.4686 35.2445 22.9834 35.0077 23.7371C34.6813 24.7756 34.3246 25.8067 33.966 26.8343C33.2971 28.751 32.4584 30.6194 31.8827 32.567C31.8375 32.7199 31.7929 32.8733 31.7577 33.0288C31.7326 33.1394 31.6474 33.3956 31.7577 33.3691C32.0795 33.2916 32.5821 32.0191 32.6257 31.9246C33.7405 29.5107 34.3359 26.9279 34.8966 24.3413C34.9435 24.1248 35.077 23.474 35.0216 23.6885C34.8461 24.367 34.6874 25.0471 34.5007 25.7232C33.7536 28.4299 32.7647 31.0818 32.0806 33.8031C31.9608 34.2795 31.9433 35.2486 32.473 34.3066C33.1173 33.1606 33.5082 31.8133 33.8792 30.567C34.4407 28.6805 34.8834 26.767 35.2855 24.8413C35.4379 24.1112 35.5643 23.3746 35.7438 22.6503C35.7717 22.5375 35.7973 22.4238 35.8341 22.3135C35.8428 22.2873 35.8733 22.2171 35.8792 22.2441C35.8954 22.3188 35.8793 22.3975 35.8688 22.4732C35.4709 25.3319 34.58 28.137 33.8341 30.9177C33.629 31.6822 33.4004 32.4585 33.2855 33.2441C33.2696 33.3521 33.2494 33.4616 33.2577 33.5705C33.2718 33.756 33.42 33.5829 33.4452 33.5427C34.02 32.6239 34.3679 31.4046 34.716 30.4073C35.393 28.4677 35.9696 26.5019 36.5146 24.5218C36.8871 23.1688 37.2359 21.8091 37.6327 20.4628C37.6769 20.3129 37.7182 20.1618 37.7716 20.0149C37.8127 19.9016 37.8587 19.8642 37.8618 20.0288C37.8763 20.7936 37.6975 21.6031 37.5424 22.3413C37.2327 23.8156 36.8269 25.2685 36.3896 26.7093C35.9022 28.3152 35.3023 29.8935 34.8792 31.5184C34.8597 31.5931 34.8408 31.6681 34.8271 31.7441C34.8201 31.7828 34.8708 31.6774 34.8827 31.6399C35.1259 30.8714 35.3164 30.0825 35.5181 29.3031C36.1571 26.834 36.7487 24.3457 37.5111 21.9107C37.5614 21.7503 37.5918 21.3008 37.6882 21.4385C37.7921 21.5869 37.5669 22.3198 37.5528 22.376C37.1428 24.0068 36.5192 25.5928 35.8757 27.1434C35.7598 27.4229 35.6382 27.6999 35.5424 27.9871C35.432 28.3184 35.7526 27.321 35.8549 26.9871C36.5977 24.5622 37.2107 22.1118 37.775 19.6399C37.8766 19.1949 38.1421 17.8579 38.1153 18.3135C38.058 19.2885 37.675 20.2861 37.341 21.1885C37.0304 22.0278 36.6832 22.8557 36.2993 23.6642C36.2776 23.71 36.0638 24.26 35.9521 24.3205C35.9331 24.3308 35.9335 24.2795 35.9348 24.258C35.9496 24.0009 36.0661 23.484 36.1049 23.31C36.3391 22.2609 36.6347 21.2291 36.9521 20.2024C37.1977 19.408 37.4592 18.6182 37.716 17.8274C37.7801 17.63 37.8358 17.4139 37.9382 17.2302C38.1653 16.8228 37.9534 18.1073 37.9521 18.1121C37.6327 19.3495 37.0245 20.5817 36.4035 21.6955C36.3686 21.758 36.2626 21.9447 36.2924 21.8795C36.5048 21.4149 36.7103 20.9472 36.9174 20.4802C37.2874 19.6457 37.6544 18.8097 38.0355 17.9802C38.2343 17.5472 38.4268 17.0534 38.7091 16.6607C38.745 16.6107 38.8216 16.5099 38.8618 16.5566C38.98 16.6936 38.7992 17.325 38.782 17.4003C38.5751 18.307 38.2182 19.1842 37.8028 20.0149C37.2433 21.1339 38.4929 17.6088 38.8966 16.4246C39.7128 14.0302 37.6007 21.3153 36.9556 23.7614C36.8492 24.1647 36.7378 24.5712 36.6535 24.9802C36.6471 25.0111 36.6396 25.0423 36.6396 25.0739C36.6396 25.1384 36.69 24.955 36.7091 24.8934C37.1211 23.5637 37.4558 22.2118 37.8341 20.8725C37.9592 20.4294 38.0526 20.1055 38.1986 19.6816C38.2582 19.5087 38.309 19.0397 38.4243 19.1816C38.4946 19.268 38.4114 19.8331 38.4105 19.8413C38.3225 20.6497 38.1565 21.4506 37.9521 22.2371C37.7437 23.0392 37.3242 23.7985 37.1396 24.5982C36.9116 25.5862 37.768 22.6693 38.1327 21.7232C38.3069 21.2712 38.4737 20.7582 38.7473 20.3517C38.9086 20.112 38.8771 20.548 38.8757 20.5913C38.8329 21.9057 38.3849 23.2007 37.9591 24.4316C37.7703 24.9771 37.8162 24.9053 37.9035 24.3899C37.96 24.0563 38.0408 23.703 38.0077 23.3621C37.9806 23.084 37.8926 23.1587 37.7507 23.001" stroke="#F5EFE7" stroke-linecap="round"/>
<path d="M29.8759 31.8135C29.8825 31.7684 30.0603 29.7788 30.362 29.7788C30.553 29.7788 30.2156 30.1334 30.1155 30.2961C29.8997 30.6468 29.6982 31.001 29.5009 31.3621C29.4161 31.5172 29.3201 31.6666 29.2544 31.8308C29.1863 32.0011 29.3116 31.4669 29.369 31.2927C29.4839 30.9431 29.5964 30.481 29.803 30.1711C29.9262 29.9863 29.7201 30.6124 29.6259 30.8135C29.4874 31.109 29.3553 31.3996 29.2613 31.7128C29.1941 31.9368 29.3494 31.2525 29.4176 31.0288C29.5957 30.4439 29.8182 29.8745 30.0252 29.2996C30.1137 29.0538 30.2362 28.7937 30.2509 28.5288C30.2514 28.5197 29.8667 29.2123 29.7787 29.3968C29.7755 29.4035 29.5602 29.8827 29.5738 29.7197C29.5995 29.4117 29.7082 29.0814 29.8134 28.7927C29.9585 28.3947 30.156 28.0172 30.303 27.619C30.3061 27.6105 30.5269 27.0305 30.4384 27.3274C30.3117 27.7522 30.1288 28.2252 29.9384 28.626C29.7644 28.9923 29.7962 28.893 29.9523 28.5496C30.2808 27.8268 30.6484 27.1155 31.0009 26.4038C31.1478 26.1072 31.2966 25.818 31.3898 25.501C31.4096 25.4335 31.4573 25.3232 31.5287 25.2927C31.5893 25.2667 31.3684 25.7052 31.362 25.7163C30.9966 26.3452 30.5911 26.9387 30.2787 27.5982C30.1896 27.7862 30.2379 27.6422 30.2544 27.494C30.3302 26.8112 30.8124 26.1263 31.1606 25.5565C31.4553 25.0744 31.6636 24.5504 31.9419 24.0635C32.2073 23.599 32.6169 23.2006 32.8446 22.7197C33.0116 22.3672 33.2251 21.9458 33.4523 21.626C33.7761 21.1703 33.9734 20.6408 34.3412 20.2093C34.7727 19.7031 35.0519 19.0956 35.5148 18.6121C36.2253 17.87 36.7909 16.9109 37.5946 16.2857C38.0362 15.9423 37.3699 16.5695 37.2509 16.6885C36.8732 17.0662 36.4641 17.4311 36.1606 17.8725C35.8899 18.2663 35.5984 18.657 35.3099 19.0357C34.8338 19.6606 34.4706 20.3493 34.0321 20.9975C33.4773 21.8178 32.9885 22.7634 32.2821 23.4697C32.2298 23.5221 31.9872 23.8135 32.0981 23.56C32.2118 23.3002 32.3719 23.0763 32.5321 22.8447C32.7641 22.5097 32.9423 22.1065 33.1398 21.751C33.754 20.6453 34.5823 19.5794 35.3481 18.5947C35.6905 18.1546 36.0058 17.7224 36.3481 17.2822C36.4717 17.1234 36.6076 16.8527 36.7856 16.751C36.8801 16.697 37.4868 16.2748 37.1259 16.5635" stroke="#F5EFE7" stroke-linecap="round"/>
<path d="M34.9382 37.626C34.9665 36.9829 35.1528 35.0726 34.9903 35.6955C34.6587 36.9667 34.1787 38.2202 33.7646 39.4663C33.592 39.9858 33.3897 40.4986 33.2507 41.0288C33.2397 41.0709 33.0616 41.8152 33.1882 41.4628C33.9429 39.3629 34.5065 37.1987 35.1952 35.0774C35.3108 34.7213 35.4007 34.3505 35.5355 34.001C35.5591 33.9397 35.5981 33.8586 35.5841 33.9941C35.5295 34.5194 35.3917 35.0538 35.282 35.567C34.7233 38.181 34.0064 40.7877 33.7785 43.4594C33.5025 46.6946 35.0156 37.0812 35.466 33.8656C35.5174 33.4986 35.479 32.87 35.6257 32.4941C35.8431 31.9371 35.6133 33.6921 35.5424 34.2857C35.1997 37.1561 34.4237 39.9886 34.2021 42.8691C34.1606 43.4085 34.2426 43.0515 34.341 42.6191C34.8319 40.4632 35.2557 38.292 35.6813 36.1225C35.9506 34.7498 36.2115 33.3756 36.4521 31.9975C36.5668 31.3405 36.631 30.6655 36.7785 30.0149C36.8167 29.8464 36.9382 29.3491 36.9382 29.5219C36.9382 30.251 36.6788 31.0468 36.5389 31.751C36.2235 33.3394 35.9132 34.9289 35.5528 36.508C35.3648 37.3318 35.0888 38.1632 34.966 39.001C34.6319 41.2811 35.9416 34.496 36.3618 32.2302C36.7165 30.3179 37.107 28.4491 37.598 26.5705C37.66 26.3329 38.0088 25.1526 37.8341 26.0635C37.2957 28.8706 35.6624 37.2883 36.1952 34.4802C36.625 32.2145 37.2369 29.9906 37.8341 27.7649C38.0529 26.9492 38.3352 26.1302 38.3757 25.2788C38.3935 24.9064 38.1329 25.9861 38.0598 26.3517C37.6116 28.5928 37.0608 30.8063 36.5285 33.0288C36.4192 33.4853 36.3233 33.9426 36.2368 34.4038C36.2254 34.465 36.1681 35.1061 36.098 35.1295C36.035 35.1505 36.1064 34.9967 36.1188 34.9316C36.2379 34.3043 36.3826 33.6811 36.5146 33.0566C36.8534 31.4544 37.1691 29.8477 37.4834 28.2406C37.5959 27.6651 37.6915 27.0851 37.8132 26.5114C37.8393 26.3887 37.8696 25.9431 37.9868 25.8552C38.1327 25.7458 37.9451 26.2178 37.9105 26.3969C37.6919 27.5262 37.5071 28.6588 37.3341 29.7962C36.9808 32.119 36.5403 34.4333 36.2507 36.7649C36.2291 36.9388 36.1679 37.4518 36.1396 37.2788C36.1252 37.1906 36.1373 36.8722 36.1396 36.8344C36.1946 35.9437 36.3289 35.0568 36.4556 34.1746C36.7999 31.7774 37.239 29.3936 37.5632 26.9941C37.6292 26.5057 37.7438 26.1242 37.7438 26.9038C37.7438 29.1384 37.2626 31.3928 36.841 33.5774C36.7412 34.0946 36.6652 34.6156 36.5667 35.133C36.5393 35.277 36.4761 35.653 36.5146 35.2649C36.7928 32.4617 37.4072 29.7159 37.7993 26.9316C38.1314 24.5742 37.227 31.6589 37.0007 34.0288C36.9656 34.397 36.9243 34.7647 36.8896 35.133C36.8864 35.1675 36.8809 35.2707 36.8896 35.2371C36.9379 35.0501 36.9552 34.8429 36.9834 34.6538C37.2602 32.7974 37.5436 30.9256 37.723 29.0566C37.7821 28.4397 37.8132 27.8218 37.8132 27.2024C37.8132 27.1165 37.8131 26.8937 37.8757 26.9524C37.9543 27.0261 37.9213 27.1642 37.9243 27.2719C37.9414 27.8692 37.9009 28.4679 37.8236 29.06C37.6032 30.7504 37.2638 32.4448 36.9382 34.1191C36.8719 34.4601 36.8094 34.8023 36.7646 35.1469C36.739 35.3442 36.7941 34.7494 36.8271 34.5531C37.1161 32.8353 37.4613 31.1327 37.6882 29.4038C37.7363 29.0377 37.8132 27.9338 37.8132 28.3031C37.8132 30.673 37.4005 33.0648 37.0007 35.3969C36.8736 36.1387 36.7111 36.9059 36.6882 37.6607C36.668 38.3274 36.7006 36.3258 36.7507 35.6607C36.8613 34.1923 37.0662 32.7389 37.2125 31.2753C37.2139 31.2618 37.2507 30.6536 37.2507 30.7719C37.2507 31.2024 37.2541 31.633 37.2507 32.0635C37.2381 33.6853 37.0004 35.2566 36.7855 36.8587C36.7174 37.3657 36.6876 37.8994 36.5632 38.3969C36.5189 38.5743 36.562 38.0311 36.5632 37.8482C36.568 37.1261 36.6522 36.41 36.723 35.692C36.8396 34.5094 36.999 33.3574 37.2368 32.1955C37.2851 31.9597 37.3757 31.2465 37.3757 31.4871C37.3757 32.6591 37.3743 33.8307 37.2473 34.9975C37.1353 36.0265 36.8603 37.05 36.8132 38.0844C36.8115 38.1214 36.8223 37.7484 36.8271 37.6955C36.9117 36.7723 37.0885 35.8502 37.2125 34.9316C37.3577 33.8564 37.551 32.8024 37.5632 31.7163C37.5635 31.6934 37.6114 31.3503 37.6223 31.4316C37.667 31.7673 37.6275 32.1446 37.6118 32.4802C37.5353 34.126 37.2833 35.7516 37.098 37.3864C36.975 38.4708 36.9346 39.5621 36.8132 40.6469C36.7913 40.8429 36.7182 41.9968 36.6917 41.1885C36.6438 39.7262 36.9026 38.266 37.1292 36.8274C37.221 36.2448 37.3258 35.6631 37.3966 35.0774C37.4216 34.8701 37.4421 34.2436 37.4382 34.4524C37.4077 36.0992 37.1327 37.7813 36.907 39.4107C36.7441 40.5863 36.594 41.7758 36.5007 42.9594C36.4626 43.4428 36.4226 43.9269 36.3896 44.4107C36.3872 44.4465 36.3757 45.1101 36.3757 44.751C36.3757 42.6086 36.5781 40.4844 36.7091 38.3482C36.7688 37.3743 36.7507 34.4454 36.7507 35.4212C36.7507 38.4054 35.9321 41.3861 35.3966 44.2996C35.2662 45.0091 35.1294 45.7282 35.0667 46.4489C35.0654 46.4635 35.1781 45.3375 35.1952 45.2094C35.5978 42.1866 36.2507 39.1346 36.2507 36.0739C36.2507 35.9583 36.2625 35.7238 36.2438 36.0566C36.1612 37.5233 35.9611 38.9869 35.7438 40.4385C35.3706 42.931 34.715 45.4307 34.5667 47.9524C34.5515 48.2116 34.6413 47.4386 34.6778 47.1816C34.9537 45.2403 35.2015 43.3019 35.3757 41.3482C35.4775 40.2065 35.5956 39.0576 35.6257 37.9107C35.6375 37.4652 35.5933 37.7521 35.5493 38.06C35.106 41.1635 34.8615 44.3099 34.5771 47.4316C34.5195 48.0646 34.4382 48.711 34.4382 49.3482C34.4382 49.8544 34.7607 48.3859 34.8618 47.8899C35.2762 45.8575 35.5811 43.8052 35.9105 41.758C35.9887 41.2718 36.0659 40.7854 36.1466 40.2996C36.1811 40.0916 36.1973 39.7672 36.3098 39.5705C36.4485 39.3277 36.3754 40.1277 36.3688 40.4073C36.3346 41.8592 36.1891 43.2979 36.0007 44.7371C35.8844 45.6263 35.6003 48.3017 35.7021 47.4107C35.9931 44.8644 36.516 42.3144 36.973 39.7927C37.0182 39.5431 37.1846 38.0725 37.1118 39.1816C36.9682 41.3722 36.5826 43.538 36.3896 45.7232C36.3432 46.2489 36.3139 46.7756 36.2507 47.2996C36.2326 47.4496 36.1696 48.1776 36.1952 47.5253C36.2745 45.5017 36.6441 43.5219 36.9243 41.5219C36.9837 41.0985 37.0416 40.6716 37.0598 40.2441C37.0777 39.8221 37.0651 40.2457 37.0632 40.3969C37.0366 42.5947 36.6534 44.807 36.3549 46.9802C36.2823 47.5087 36.2125 48.0364 36.157 48.567C36.1319 48.8068 36.1185 48.931 36.098 49.1712C36.0842 49.3319 36.1354 49.7981 36.0632 49.6538C35.9914 49.5101 36.0617 49.0355 36.0632 48.9038C36.0789 47.5548 36.2179 46.2222 36.4 44.8864C36.4887 44.2363 36.5873 43.588 36.6535 42.935C36.6635 42.8366 36.6148 42.7099 36.6848 42.6399C36.7011 42.6235 36.6882 42.6862 36.6882 42.7094C36.6882 42.8956 36.6767 43.5441 36.6743 43.633C36.6156 45.8617 36.3546 48.0734 36.1605 50.2927C36.1349 50.5847 36.1257 50.8747 36.1257 51.1677C36.1257 51.6509 36.125 50.9944 36.1257 50.9107C36.1448 48.8597 36.4245 46.8352 36.5563 44.7927C36.5694 44.5894 36.5224 44.3091 36.6118 44.1191C36.7326 43.8625 36.6268 44.6862 36.6223 44.9698C36.5894 47.024 36.3035 49.0566 36.2021 51.1052C36.1855 51.4406 36.1882 51.7764 36.1882 52.1121C36.1882 52.2753 36.1882 52.7404 36.1882 52.2337C36.1882 50.157 36.8111 43.9531 36.7473 46.0288C36.6627 48.777 36.0632 51.4876 36.0632 54.2371C36.0632 55.6719 36.1559 51.3674 36.2855 49.9385C36.3365 49.3761 36.4919 47.6933 36.5007 48.258C36.5212 49.5682 36.397 50.8846 36.282 52.1885C36.2017 53.0985 36.0823 55.8371 36.1257 54.9246C36.2015 53.3342 36.3701 51.7484 36.5285 50.1642C36.537 50.0794 36.5632 49.8255 36.5632 49.9107C36.5632 50.4645 36.5364 51.0179 36.5007 51.5705C36.4234 52.7697 36.2859 53.9615 36.2542 55.1642C36.2495 55.3447 36.2507 55.5253 36.2507 55.7059C36.2507 55.9061 36.2507 55.3054 36.2507 55.1052C36.2507 54.1552 36.3181 51.3096 36.3723 52.258C36.4483 53.588 36.2562 54.9347 36.1605 56.258C36.1524 56.3688 36.1852 57.1464 36.0632 57.2684C35.972 57.3596 36.0338 57.0118 36.0285 56.883C35.9757 55.5856 35.9686 54.2853 35.9799 52.9871C36 50.6787 36.2593 48.3367 36.091 46.0288C36.0764 45.828 36.0869 45.5039 36.0007 45.31C35.9872 45.2796 35.9711 45.3709 35.966 45.4038C35.8904 45.8901 35.8743 46.3943 35.8341 46.883C35.6144 49.5487 35.3044 52.2073 34.9799 54.8621C34.9563 55.0553 34.9547 55.0603 34.9417 55.2163C34.9355 55.2906 34.9382 55.3103 34.9382 55.1503C34.9382 53.339 34.9382 51.5276 34.9382 49.7163C34.9382 47.3077 34.9382 44.8992 34.9382 42.4906C34.9382 42.0262 34.914 43.4191 34.8931 43.883C34.7905 46.1551 34.5181 48.4096 34.2577 50.6677C34.0983 52.0495 33.9466 53.4335 33.8861 54.8239C33.8735 55.1143 33.8566 55.6758 33.8896 55.0427C34.1098 50.8191 34.1882 46.598 34.1882 42.3691C34.1882 41.7919 34.2663 41.1021 34.1535 40.5219C34.0762 40.1243 33.9469 41.3075 33.8966 41.7094C33.635 43.7976 33.3561 45.8832 33.0563 47.9663C32.8343 49.5085 32.5302 51.0621 32.4243 52.6191C32.4198 52.6865 32.4352 52.8867 32.4486 52.8205C32.6153 52.0012 32.5891 51.0643 32.6118 50.2441C32.692 47.3555 32.7026 44.4632 32.657 41.5739C32.6492 41.082 32.6128 39.6065 32.6292 40.0982C32.6786 41.5801 32.6867 43.0545 32.591 44.5357C32.415 47.2595 31.8757 49.9866 31.8757 52.7198C31.8757 53.1712 31.9728 51.8221 32.0146 51.3725C32.2157 49.2111 32.3574 47.0477 32.5146 44.883C32.5238 44.7562 32.6127 43.5922 32.6466 43.3413C32.6535 43.2898 32.6629 43.1487 32.6917 43.192C32.9092 43.5183 32.7888 43.9707 32.8132 44.3621C32.966 46.8059 32.9413 49.2561 32.8757 51.7024C32.8513 52.6136 32.8042 53.5267 32.8132 54.4385C32.8144 54.5528 32.781 54.8659 32.8549 54.7788C33.0688 54.5267 33.1009 53.4924 33.1257 53.2788C33.3281 51.5399 33.3963 49.7918 33.4313 48.0427C33.4505 47.0837 33.45 46.5071 33.473 45.5705C33.485 45.079 33.4498 44.4573 33.5493 43.9594C33.6679 43.3666 33.6052 45.1674 33.6118 45.7719C33.6326 47.6643 33.5591 49.5525 33.4035 51.4385C33.3195 52.4566 33.1809 53.4763 33.1396 54.4975C33.1365 54.5759 33.15 54.8047 33.1743 54.7302C33.3883 54.0742 33.4156 53.2391 33.4868 52.5705C33.7192 50.3903 33.8547 48.2007 34.0216 46.0149C34.0289 45.9189 34.1322 44.5338 34.1743 44.2232C34.2478 43.6819 34.1907 45.3166 34.1605 45.8621C34.045 47.9461 33.8349 50.023 33.4834 52.0809C33.392 52.6158 33.3066 53.0666 33.1813 53.5809C32.9997 54.326 33.0634 53.2182 33.0632 53.1885C33.0368 49.0778 33.1545 44.9317 32.6605 40.8413C32.6577 40.8183 32.446 39.5369 32.4382 39.7371C32.3695 41.5114 32.2757 43.284 32.1188 45.0531C31.9802 46.6162 31.7577 48.1681 31.5806 49.7267C31.5092 50.3552 31.4382 52.2516 31.4382 51.6191C31.4382 47.9851 31.5442 44.3505 31.5667 40.7163C31.5716 39.9181 31.5876 39.1213 31.6223 38.3239C31.6617 37.4173 31.491 40.1348 31.3827 41.0357C31.1758 42.7554 30.8717 44.4626 30.6118 46.1746C30.395 47.6032 30.2232 49.0425 29.9764 50.4663C29.8981 50.9183 29.8827 50.6107 29.8827 50.2545C29.8827 47.7763 29.9695 45.297 30.0493 42.8205C30.0935 41.4508 30.1528 37.3439 30.216 38.7128C30.3461 41.5312 29.6707 44.366 29.2785 47.1399C29.2689 47.2079 29.1223 48.4235 29.1361 47.6538C29.1727 45.6264 29.3655 43.5882 29.5493 41.5705C29.6398 40.5774 29.7599 39.5884 29.8757 38.5982C29.9092 38.3123 29.9637 38.0088 29.9348 37.7198C29.9304 37.6758 29.6223 38.6607 29.6223 38.6607C29.357 39.6295 29.1631 40.6144 28.9313 41.5913C28.8223 42.0507 28.6926 42.5007 28.5563 42.9524C28.537 43.0162 28.5137 43.2009 28.4868 43.1399C28.3982 42.9384 28.4745 42.3964 28.4834 42.2302C28.5744 40.5306 28.9803 38.8392 29.0007 37.1399C29.0056 36.7375 28.9206 36.7902 28.8375 37.1607C28.6403 38.0407 28.4447 38.9246 28.1743 39.7857C28.1535 39.8521 28.0632 40.1149 28.0632 39.8691C28.0632 39.258 28.1616 38.6469 28.1813 38.0357C28.1933 37.6633 28.1882 37.2903 28.1882 36.9177C28.1882 36.8694 28.2005 36.717 28.1223 36.8344C27.9911 37.0311 27.9644 37.3182 27.9 37.5392C27.774 37.9722 27.6159 38.3951 27.4868 38.8274C27.4313 39.0133 27.3308 39.5762 27.3132 39.383C27.269 38.896 27.3946 38.346 27.4695 37.8691C27.4994 37.6789 27.6267 36.761 27.6257 36.7788C27.6006 37.2567 27.4159 37.7337 27.348 38.2094C27.2492 38.9005 27.3346 38.2694 27.3757 37.9594C27.3921 37.8359 27.6098 36.7766 27.4348 37.3309C27.2853 37.8041 27.2429 38.2844 27.1743 38.7719C27.1007 39.2957 27.1787 38.2932 27.1882 38.2163C27.2227 37.9388 27.2529 37.6564 27.3132 37.383C27.361 37.1666 27.382 37.281 27.3375 37.4142C27.2683 37.6219 27.1949 38.2434 27.1257 38.0357C27.0578 37.832 27.1872 37.4545 27.2785 37.2719C27.2842 37.2605 27.2302 37.6908 27.2021 37.8135C27.0069 38.6674 26.8704 39.5247 26.8098 40.4038C26.7541 41.2113 26.4565 41.9991 26.3757 42.8066C26.3081 43.4825 26.1296 44.1432 26.0632 44.8205C25.9416 46.0627 25.8636 47.3115 25.7785 48.5566C25.65 50.4371 25.5632 52.3104 25.5632 54.1955C25.5632 54.6422 25.5632 55.089 25.5632 55.5357C25.5632 56.7346 25.69 53.1399 25.8271 51.9489C26.2283 48.463 27.1428 45.0827 27.973 41.6816C28.145 40.9768 28.313 40.2642 28.5598 39.5809C28.6266 39.3957 28.7507 38.8249 28.7507 39.0219C28.7507 39.3068 28.6838 39.5943 28.6188 39.8691C28.3199 41.1322 27.9903 42.3861 27.7091 43.6538C27.3918 45.0841 27.0796 46.518 26.8757 47.9698C26.8059 48.4674 26.6982 49.9714 26.7646 49.4732C27.1791 46.3646 27.392 43.2294 27.7993 40.1191C27.8561 39.6858 27.8962 39.239 28.0007 38.8135C28.0514 38.6074 28.1545 38.4077 28.0841 38.7649C27.5672 41.3851 27.1816 44.0305 26.7403 46.6642C26.6709 47.0783 26.5702 47.515 26.5702 47.9385C26.5702 48.844 26.8439 46.1482 26.966 45.251C27.2706 43.0132 27.4914 40.7384 27.9348 38.5219C28.502 35.6856 26.8793 44.2112 26.466 47.0739C26.2634 48.4774 26.1612 49.886 26.1327 51.3031C26.1202 51.9243 26.0344 52.8071 26.348 53.383C26.4694 53.6059 26.5688 53.1999 26.5702 53.1955C26.6878 52.8212 26.8695 51.8836 26.9243 51.5705C27.3186 49.3198 27.4862 47.0389 27.6813 44.7649C27.7341 44.149 27.7939 43.4243 27.8653 42.7962C27.8867 42.6082 27.7779 42.2782 27.9625 42.2371C27.9973 42.2294 27.9861 42.3056 27.9868 42.3413C27.9907 42.5184 27.9843 42.6956 27.9764 42.8725C27.9114 44.3302 27.7692 45.7856 27.6257 47.2371C27.3903 49.6199 27.0735 51.995 26.9868 54.3899C26.9641 55.019 26.9986 56.8285 27.2646 56.258C27.4053 55.9562 27.505 55.2741 27.5355 55.0149C27.6416 54.1114 27.7004 52.85 27.7368 51.9802C27.8532 49.205 27.8766 46.4262 28.0563 43.6538C28.0692 43.4552 28.0981 43.037 28.1188 42.7892C28.1254 42.7105 28.1599 42.4578 28.1014 42.9628C27.8397 45.2247 27.4728 47.475 27.1605 49.7302C26.7914 52.3942 25.8181 60.4014 26.2542 57.7475C26.9459 53.5379 27.2431 49.2266 27.3723 44.9628C27.376 44.8384 27.3888 44.7444 27.3514 44.9073C27.2933 45.1606 27.1399 45.9141 27.1188 46.0184C26.6864 48.1574 26.2354 50.3172 26.0424 52.4941C25.9445 53.5981 25.9022 54.7569 26.0146 55.8621C26.0249 55.9635 26.0085 56.0887 26.0806 56.1607C26.1197 56.1999 26.1681 56.0825 26.1813 56.0288C26.7273 53.8009 26.882 51.363 27.1743 49.1052C27.2839 48.2595 27.6942 44.9996 27.8653 43.7927C27.9002 43.5465 27.9231 43.297 27.9868 43.0566C28.0007 43.0041 28.0156 43.1621 28.0181 43.2163C28.0426 43.7449 27.9903 44.6565 27.966 45.0774C27.842 47.2278 27.6308 49.3706 27.4313 51.5149C27.2322 53.6554 27.0017 55.8069 26.9938 57.9594C26.9936 58.0174 26.9986 58.885 27.0771 59.0774C27.2321 59.4573 27.5597 58.395 27.6743 58.001C28.3376 55.7215 28.5088 53.3282 28.6396 50.9698C28.8207 47.7051 28.8928 44.4342 29.0355 41.1677C29.0465 40.9154 29.0742 40.663 29.0632 40.4107C29.0515 40.1398 29.0369 40.9525 29.0216 41.2232C28.842 44.4036 28.4872 47.5689 28.2403 50.7441C28.0742 52.8808 27.9452 55.0204 27.9452 57.1642C27.9452 57.8928 27.8949 60.0275 28.1396 59.3413C28.2436 59.0498 28.4048 57.8354 28.4105 57.7927C28.7338 55.3449 28.9568 52.8841 29.1674 50.4246C29.3823 47.9148 29.5258 45.3958 29.7855 42.8899C29.858 42.1896 29.7624 44.2985 29.716 45.001C29.4496 49.0378 28.9837 53.0557 28.6257 57.0844C28.5007 58.4921 28.2661 60.0427 28.4 61.4628C28.4328 61.8099 28.5089 61.6699 28.5945 61.3864C29.0106 60.0081 29.1076 58.4705 29.2299 57.0496C29.5236 53.6376 29.588 50.2093 29.8132 46.7927C29.8688 45.9502 29.9637 44.6931 30.0702 43.7927C30.1827 42.8412 30.176 43.7229 30.1674 44.0288C30.0886 46.8279 29.9045 49.6253 29.7542 52.4212C29.5902 55.4731 29.3332 58.5469 29.341 61.6052C29.3414 61.7383 29.3908 62.1208 29.4313 61.9941C29.5523 61.6156 29.7126 60.306 29.7299 60.1538C30.1561 56.3981 30.215 52.6224 30.3132 48.8482C30.3371 47.9293 30.4162 45.1769 30.466 46.0948C30.6174 48.8844 30.3625 51.7218 30.1605 54.501C29.9861 56.8994 29.6984 59.305 29.6188 61.7094C29.6123 61.906 29.6082 62.104 29.6292 62.2996C29.6385 62.3866 29.6255 62.5755 29.7091 62.5496C29.8258 62.5135 29.8394 62.3399 29.8757 62.2232C30.115 61.455 30.265 60.3587 30.3618 59.6225C30.8516 55.9001 30.8886 52.1398 31.1118 48.3969C31.1327 48.0467 31.2141 46.7576 31.2855 46.2441C31.2922 46.1955 31.315 46.06 31.3341 46.1052C31.4973 46.4911 31.3658 46.9431 31.3584 47.3621C31.3099 50.0928 31.0885 52.8179 30.8723 55.5392C30.7387 57.2208 30.6324 58.4652 30.4938 60.1191C30.4521 60.6168 30.4083 61.1143 30.3688 61.6121C30.3367 62.0165 30.1963 62.437 30.3063 62.8274C30.3804 63.0906 30.4741 62.3051 30.5216 62.0357C30.6804 61.1337 30.8551 59.8072 30.9452 58.9385C31.3824 54.7215 31.4278 50.4766 31.7959 46.2545C31.8366 45.7879 31.8617 45.4581 31.9556 45.0392C32.0095 44.7986 31.995 45.0423 31.9973 45.2059C32.0369 48.0823 31.928 50.9645 31.7438 53.8344C31.5619 56.6676 31.2861 59.4943 31.1049 62.3274C31.0884 62.5852 31.0685 62.8434 31.0702 63.1017C31.0708 63.1988 31.0191 63.4187 31.1118 63.3899C31.2345 63.3518 31.2321 63.1615 31.2716 63.0392C31.5378 62.2144 31.7222 61.2398 31.8653 60.4107C32.3712 57.4801 32.5107 54.5348 32.5841 51.567C32.5948 51.1323 32.6349 49.0339 32.657 48.3725C32.6937 47.2725 32.735 47.8147 32.7368 48.3413C32.7479 51.4969 32.5193 54.6529 32.3132 57.7996C32.1497 60.2964 31.6089 67.7556 32.1049 65.3031C32.3349 64.1659 32.54 61.829 32.6188 60.935C32.8442 58.3769 32.943 56.722 33.091 54.1746C33.0923 54.1524 33.2461 51.1564 33.2993 50.5288C33.3071 50.4374 33.3326 50.1675 33.348 50.258C33.4519 50.8696 33.3512 51.4989 33.3341 52.1191C33.2435 55.3909 33.0981 58.6626 32.8757 61.9281C32.7834 63.2844 32.336 67.3194 32.6674 66.001C33.1683 64.0084 33.2242 61.8026 33.3827 59.7719C33.5271 57.9211 33.6127 56.3515 33.723 54.508C33.7966 53.2763 33.8201 52.0112 33.9938 50.7857C34.0369 50.4814 34.0635 50.4295 34.0875 50.7719C34.1327 51.4145 34.1081 52.2273 34.0875 52.8239C33.9509 56.7942 33.6362 60.7715 33.1674 64.7163C33.1502 64.8614 33.0047 65.9569 32.9799 66.2163C32.9726 66.2924 32.935 66.3791 32.973 66.4455C32.9971 66.4877 33.0231 66.3606 33.0355 66.3135C33.7355 63.6557 33.7787 60.77 33.9868 58.0496C34.0195 57.6221 34.2294 54.7584 34.2889 54.0184C34.3108 53.7462 34.3313 53.4738 34.3618 53.2024C34.3684 53.1446 34.3492 53.004 34.4 53.0323C34.4602 53.0657 34.4225 53.1684 34.4243 53.2371C34.4317 53.5102 34.4295 53.7834 34.4278 54.0566C34.4163 55.9153 34.3703 57.7762 34.2855 59.633C34.1795 61.9503 33.9266 64.2475 33.723 66.5566C33.7195 66.596 33.6189 67.748 33.6396 67.9871C33.7013 68.6994 33.9179 66.5839 34.0181 65.876C34.3536 63.5062 34.6042 61.1347 34.775 58.7475C34.941 56.429 34.834 57.7834 34.9903 55.6607C35.0318 55.0976 35.0308 53.4191 35.1396 53.9732C35.2195 54.3799 35.1639 54.8019 35.1605 55.2163C35.1512 56.325 35.1185 57.6281 35.0563 58.7232C34.9182 61.154 34.4997 63.5493 34.3132 65.9732C34.298 66.1718 34.176 66.696 34.3306 66.5705C34.5704 66.3756 34.6936 64.3893 34.6952 64.376C35.0924 61.0776 35.3158 57.7647 35.6396 54.4594C35.6756 54.0924 35.7106 53.7398 35.7716 53.3795C35.8062 53.1749 35.8063 53.2298 35.8063 53.435C35.8063 55.6398 35.5295 57.8398 35.2438 60.0219C35.0042 61.8516 34.3941 67.3499 34.7125 65.5323C35.2728 62.3341 35.596 59.0444 35.848 55.8066C35.8754 55.4537 35.8704 55.0946 35.9243 54.7441C35.9742 54.4203 35.9386 55.3992 35.9348 55.7267C35.9025 58.467 35.5191 61.1662 35.3896 63.8969C35.371 64.29 35.3757 64.684 35.3757 65.0774C35.3757 65.1445 35.3697 65.3456 35.3757 65.2788C35.3994 65.0182 35.4049 64.7505 35.4243 64.4906C35.619 61.8953 35.9382 59.3003 35.9382 56.6955C35.9382 56.3563 35.9382 56.0172 35.9382 55.6781C35.9382 55.4824 35.9434 56.0694 35.9521 56.2649C36.0559 58.5867 35.6995 60.8979 35.5146 63.2094C35.4708 63.7565 35.4472 64.3044 35.407 64.8517C35.4008 64.9353 35.3865 65.1852 35.3792 65.1017C35.3321 64.5604 35.4083 63.9334 35.4452 63.4038C35.6087 61.0543 35.8289 58.6984 36.157 56.3656C36.1993 56.0649 36.2328 55.7631 36.2785 55.4628C36.295 55.3546 36.3132 55.0628 36.3132 55.3552C36.3132 57.6861 36.036 60.0116 35.8618 62.3344C35.7891 63.3042 35.681 64.293 35.473 65.2441C35.277 66.1401 35.1795 67.0801 35.1257 67.9941C35.1092 68.2759 35.0738 68.5514 35.0355 68.8309C35.0172 68.9635 35.0007 69.3126 35.0007 68.9524C35.0007 67.0694 35.1501 65.1926 35.3098 63.317C35.4 62.2563 35.4651 61.1133 35.7021 60.0705C35.7504 59.858 35.7423 60.5054 35.7368 60.7232C35.7014 62.1438 35.6376 63.563 35.532 64.9802C35.4396 66.2207 35.3132 67.4706 35.3132 68.7163C35.3132 69.5358 35.3831 67.0785 35.4452 66.2614C35.5341 65.0905 35.6568 63.9234 35.7993 62.758C35.8932 61.9902 35.908 61.2114 36.0598 60.4524C36.0649 60.4269 36.0632 60.8337 36.0632 60.8448C36.0632 61.6214 36.0664 62.3981 36.0493 63.1746C36.0166 64.6619 35.8707 66.1407 35.8167 67.626C35.8154 67.6611 35.8132 68.109 35.8132 67.8205C35.8132 67.4132 35.8262 67.0085 35.848 66.6017C35.9255 65.1513 36.0449 63.7015 36.1118 62.251C36.1218 62.0357 36.1257 61.8206 36.1257 61.6052C36.1257 61.2369 36.1127 62.3421 36.0841 62.7094C35.9694 64.1793 35.7566 65.6484 35.5771 67.1121C35.4943 67.7872 35.4955 68.5115 35.1882 69.126" stroke="#F5EFE7" stroke-linecap="round"/>
<path d="M25.3134 58.9384C25.242 58.7512 25.2467 58.5532 25.2544 58.3551C25.2827 57.6188 25.417 56.8828 25.5356 56.1572C25.7103 55.0881 25.9859 54.0574 26.2474 53.0114C26.4699 52.1215 25.9294 54.819 25.7231 55.7127C25.6481 56.0377 25.6141 56.9837 25.4731 56.6815C25.3899 56.5033 25.4577 56.0451 25.4662 55.8968C25.5051 55.213 25.5702 54.5313 25.6537 53.8516C25.7133 53.3658 25.8052 52.8805 25.8134 52.3898C25.8171 52.1671 25.6933 52.9768 25.6745 53.0565C25.295 54.6673 25.1255 56.2534 24.9523 57.8898C24.857 58.7894 25.0384 56.0819 25.1259 55.1815C25.1508 54.9249 25.1884 54.1529 25.1884 54.4107C25.1884 54.8032 25.1594 55.1923 25.1398 55.5843C25.0937 56.5061 25.0254 57.429 24.9419 58.3482C24.9032 58.7735 24.9384 57.494 24.9384 57.0669C24.9384 56.3987 24.8785 55.7013 24.9731 55.0391C25.075 54.3256 25.2485 53.6389 25.3064 52.9141C25.5085 50.3883 26.0695 47.8198 26.6884 45.3621C27.187 43.3819 27.2839 41.3449 27.6884 39.3516C27.7969 38.8168 27.9441 38.2929 28.0044 37.7509C28.0096 37.7038 28.0988 37.5208 28.0252 37.5044C27.8633 37.4684 27.7589 37.6335 27.6919 37.7509C27.4896 38.1048 27.3511 38.4601 27.1745 38.8134C27.0986 38.9653 27.0496 39.4109 26.9523 39.2718C26.8503 39.1261 27.2238 38.3493 27.2648 38.1398C27.2755 38.0849 27.3488 37.4472 27.2196 37.6051C27.0936 37.7592 27.0323 38.0866 26.9974 38.2787C26.9313 38.6423 26.6259 38.9771 26.6259 39.3759C26.6259 39.9152 26.43 40.4244 26.3794 40.9558C26.3467 41.2985 26.3759 41.6566 26.3759 42.0009C26.3759 42.4611 26.1743 42.9619 26.0773 43.4107C25.9091 44.1883 25.762 45.0421 25.7509 45.8412C25.7262 47.6152 25.3614 49.3345 25.2474 51.1016C25.1844 52.0784 25.1476 53.0736 25.1259 54.0496C25.1226 54.1957 24.9504 55.2906 24.9384 55.2718C24.8021 55.0589 24.8759 54.6438 24.8759 54.4072C24.8759 53.8968 24.8759 53.3864 24.8759 52.8759C24.8759 52.314 25.0009 51.7655 25.0009 51.2127C25.0009 50.6972 25.0352 50.1962 25.0634 49.6884C25.0772 49.4395 25.136 49.1301 25.2023 48.8898C25.2773 48.6179 25.2523 48.3214 25.3273 48.0496C25.4384 47.6467 25.4327 47.1474 25.4974 46.7266C25.5682 46.2663 25.6884 45.7449 25.6884 45.2822C25.6884 44.4486 25.9384 43.6598 25.9384 42.8134C25.9384 41.7675 26.5245 40.8298 26.8759 39.8759" stroke="#F5EFE7" stroke-linecap="round"/>
<path d="M26.3133 58.501C26.1098 57.9624 26.0889 58.5991 26.0494 58.8552C25.9096 59.7612 25.8239 60.6709 25.7508 61.5844C25.7212 61.9541 25.6883 63.0664 25.6883 62.6955C25.6883 61.9663 25.6883 61.2371 25.6883 60.508C25.6883 59.6157 25.7654 58.6771 25.5668 57.7996C25.5349 57.6589 25.4944 57.1428 25.4383 57.5983C25.3304 58.4743 25.3162 59.3628 25.3133 60.2441C25.311 60.93 25.2408 61.6645 25.3168 62.3483C25.4712 63.7379 25.4334 59.5479 25.3272 58.1538C25.3242 58.1151 25.2647 57.7719 25.2647 57.7719C25.0902 58.2955 25.1384 59.0665 25.1293 59.6121C25.1198 60.1778 25.0822 60.7694 25.1293 61.3344C25.1803 61.9467 25.2212 60.1084 25.2369 59.4941C25.2533 58.8515 25.276 58.1996 25.2508 57.5566C25.2478 57.4789 25.0706 58.233 25.0668 58.3934C25.0489 59.1428 25.0633 59.8938 25.0633 60.6434C25.0633 60.7835 25.0633 61.5439 25.0633 60.9385C25.0633 60.1978 25.0633 59.457 25.0633 58.7163C25.0633 58.5349 25.1987 57.4848 24.9696 57.383C24.8179 57.3156 24.8186 57.914 24.8168 57.9663C24.7838 58.907 24.9217 59.8638 25.0008 60.7996C25.04 61.2635 25.0499 61.7356 25.1258 62.1955C25.2226 62.7825 25.1883 61.5295 25.1883 61.4489C25.1883 60.5901 25.1883 59.7314 25.1883 58.8726C25.1883 58.6838 25.2519 58.1345 25.1744 58.3066C24.9846 58.7283 25.0648 59.3379 25.0633 59.7788C25.0585 61.1411 24.9915 62.5419 25.1918 63.8934C25.2631 64.3745 25.3815 64.9009 25.5876 65.3448C25.6345 65.4458 25.6629 65.4162 25.6744 65.3135C25.7152 64.951 25.6883 64.5732 25.6883 64.2094C25.6883 63.4204 25.685 62.6354 25.6258 61.8483C25.5924 61.404 25.6117 60.8877 25.3827 60.4871C25.3678 60.4609 25.3758 60.5472 25.3758 60.5774C25.3758 60.882 25.3751 61.186 25.3862 61.4906C25.4462 63.1401 25.6508 64.7963 25.8689 66.4316C25.9418 66.9787 26.0548 67.5149 26.2161 68.0427C26.22 68.0556 26.28 68.2804 26.2994 68.1121C26.365 67.5439 26.3146 66.9383 26.3133 66.3691C26.3091 64.5251 26.2356 62.6845 26.2022 60.8413C26.1918 60.269 26.1838 59.6941 26.223 59.1226C26.2301 59.0201 26.2257 58.4678 26.348 58.3899C26.4969 58.2952 26.4769 58.722 26.5008 58.8969C26.6039 59.6522 26.6288 60.4209 26.6501 61.1816C26.7233 63.8006 26.6258 66.417 26.6258 69.0358C26.6258 69.4248 26.6168 69.8217 26.6605 70.2094C26.6693 70.2867 26.7475 70.4821 26.7786 70.4108C26.9521 70.0128 26.9401 69.4298 26.9626 69.0219C27.0578 67.2937 27.0222 65.5594 26.9591 63.8309C26.8918 61.9847 26.7185 60.147 26.6327 58.3031C26.625 58.1366 26.6162 57.9601 26.6258 57.7927C26.645 57.456 26.7378 58.458 26.7786 58.7927C27.0748 61.2266 27.1475 63.6569 27.2161 66.1052C27.2515 67.37 27.295 68.6356 27.4418 69.8934C27.51 70.4776 27.5696 71.2008 27.8446 71.7406C27.9153 71.8794 28.0426 72.0027 28.1119 71.7649C28.2913 71.1493 28.2569 70.389 28.2751 69.7649C28.3701 66.5156 28.287 63.2545 28.1397 60.008C28.1129 59.4178 28.0008 58.8071 28.0008 58.2163C28.0008 56.3672 28.1209 61.9127 28.1536 63.7614C28.1976 66.2532 28.1234 68.787 28.4696 71.2614C28.5077 71.5343 28.5547 72.0156 28.7508 72.258C28.9573 72.5133 29.1215 71.6882 29.1605 71.3621C29.3185 70.0427 29.3049 68.6867 29.2855 67.3621C29.2556 65.3142 29.1356 63.2731 28.9105 61.2371C28.7962 60.2028 28.6566 59.1569 28.4626 58.133C28.4304 57.9632 28.4146 57.8769 28.4175 58.1017C28.4223 58.4733 28.4608 58.9823 28.4834 59.317C28.6673 62.0358 28.8263 64.748 28.8723 67.4733C28.8853 68.2387 28.8563 69.0309 28.9661 69.7927C28.9899 69.9582 29.0511 70.5923 29.2369 70.6955C29.4002 70.7862 29.3071 70.3267 29.3098 70.1399C29.3235 69.1994 29.2843 68.2574 29.2022 67.3205C28.9687 64.6559 28.5128 61.9957 27.8932 59.3934C27.6983 58.5751 27.9627 60.0423 27.9696 60.0983C28.3361 63.0693 28.2828 66.0881 28.7369 69.0496C28.7941 69.4225 28.9935 70.3617 29.0355 69.3413C29.1484 66.6001 28.6753 63.8887 28.0112 61.2406C27.7864 60.3442 27.1426 57.6544 27.2647 58.5705C27.3199 58.9848 27.4249 59.3982 27.5077 59.8066C27.8874 61.6777 28.2026 63.5587 28.4939 65.4455C28.7491 67.0989 28.9649 68.76 29.2369 70.4108C29.2516 70.4998 29.3275 70.75 29.3411 70.6608C29.4167 70.1639 29.3815 69.6006 29.3758 69.1052C29.3433 66.303 28.7756 63.6349 28.0147 60.9455C27.8245 60.2731 27.6242 59.5969 27.3689 58.9455C27.3462 58.8876 27.2742 58.7159 27.2925 58.7753C27.6267 59.8615 26.9059 57.427 27.5668 59.6434C28.2377 61.8934 28.7437 64.1919 29.0841 66.5149C29.2527 67.6654 29.3764 68.8215 29.5355 69.9733C29.6044 70.4721 29.6288 71.165 29.8758 71.633C29.9784 71.8273 30.0662 71.5971 30.0911 71.501C30.2479 70.896 30.2285 70.2069 30.2369 69.5913C30.2793 66.5105 29.9597 63.4565 29.6432 60.3969C29.5969 59.9492 29.3915 58.6309 29.5564 59.0496C29.8537 59.8051 29.9206 60.8514 30.0321 61.6226C30.5263 65.0416 30.6182 68.4765 30.848 71.9177C30.8842 72.4587 30.9088 73.0098 31.0668 73.5323C31.1149 73.6915 31.2035 74.0913 31.3133 73.9663C31.4973 73.7568 31.4267 72.8369 31.4279 72.692C31.4449 70.5427 31.3196 68.3911 31.1779 66.2476C31.0393 64.1507 30.8367 62.0638 30.6327 59.9733C30.4832 58.4403 31.0035 63.0331 31.098 64.5705C31.269 67.3504 31.2766 70.1352 31.3758 72.9177C31.3907 73.3347 31.3847 73.7945 31.4696 74.2094C31.4771 74.2462 31.5198 74.3386 31.5321 74.3031C31.61 74.078 31.5853 73.8293 31.5946 73.5913C31.7208 70.3507 31.6466 67.104 31.6293 63.8621C31.625 63.0556 31.6007 62.2384 31.6397 61.4316C31.6445 61.3323 31.6543 61.0528 31.7022 61.1399C31.8443 61.3988 31.8127 61.721 31.8411 62.0149C32.102 64.7195 32.078 67.4416 31.9869 70.1538C31.9555 71.0891 31.9086 72.0239 31.8827 72.9594C31.8791 73.0913 31.8731 73.487 31.8793 73.3552C31.8909 73.1059 31.9061 72.2653 31.9071 72.2128C31.9486 69.8717 31.926 67.5322 31.848 65.192C31.836 64.8312 31.8133 64.4668 31.8133 64.1052C31.8133 63.9073 31.8654 64.4979 31.8758 64.6955C32.0074 67.1886 32.0002 69.694 31.9244 72.1885C31.8825 73.5678 31.7508 74.9472 31.7508 76.3274C31.7508 77.509 31.8725 73.967 31.9001 72.7858C31.9323 71.4087 31.9363 70.0312 31.9383 68.6538C31.9394 67.8852 31.7719 65.6083 31.98 66.3483C32.1761 67.0457 32.1683 67.9234 32.2091 68.626C32.2855 69.9395 32.3159 71.2551 32.2716 72.5705C32.2383 73.561 32.1483 74.5479 32.0737 75.5358C32.0671 75.6235 31.873 76.8764 32.039 76.9871C32.0577 76.9996 32.0715 76.9533 32.0772 76.9316C32.1274 76.74 32.1887 76.211 32.2022 76.0844C32.3154 75.0265 32.3824 73.963 32.4279 72.9003C32.4858 71.5478 32.4929 70.1941 32.5425 68.8413C32.5766 67.9092 32.5344 66.8512 32.7508 65.9316C32.7676 65.86 32.8409 66.0563 32.848 66.1295C32.9386 67.0602 32.9522 68.0049 32.973 68.9385C33.0294 71.4657 32.9452 73.9886 32.9452 76.5149C32.9452 77.0716 33.0452 77.3183 33.1293 76.5358C33.4601 73.4548 33.4094 70.2782 33.2508 67.1885C33.2192 66.5735 33.1669 65.9597 33.1327 65.3448C33.1299 65.2927 33.1235 65.2406 33.1258 65.1885C33.1312 65.0652 33.1558 65.4337 33.1675 65.5566C33.4496 68.5241 33.538 71.518 33.4661 74.4976C33.4483 75.2351 33.4179 75.9721 33.3897 76.7094C33.3837 76.8667 33.2385 77.1112 33.3793 77.1816C33.3901 77.187 33.3881 77.1588 33.3897 77.1469C33.4111 76.9841 33.4457 76.5575 33.4522 76.4594C33.5723 74.6571 33.5928 72.8482 33.6119 71.0427C33.6303 69.3018 33.4752 67.4875 33.6397 65.751C33.7779 64.2927 33.9095 68.6716 33.9244 70.1364C33.9457 72.2266 33.8484 74.3111 33.7265 76.3969C33.7134 76.621 33.5843 77.2413 33.73 77.0705C33.8639 76.9134 33.8739 76.682 33.9175 76.4802C34.0335 75.9436 34.144 75.2172 34.2091 74.6885C34.4578 72.6702 34.4607 70.6399 34.5633 68.6121C34.578 68.3218 34.5844 68.0162 34.6258 67.7267C34.6521 67.5429 34.7092 68.0901 34.723 68.2753C34.8865 70.4605 34.8713 72.6649 34.7508 74.8517C34.7225 75.3653 34.6732 75.8768 34.6397 76.3899C34.6383 76.4115 34.6243 76.6548 34.6258 76.7094C34.6269 76.7498 34.6482 76.6314 34.6536 76.5913C34.9124 74.6569 34.9577 72.6994 35.0008 70.751C35.031 69.3876 35.0518 68.024 35.0911 66.6608C35.102 66.2805 35.0496 65.735 35.1571 65.3483C35.2062 65.1715 35.1974 65.7134 35.2022 65.8969C35.2281 66.8885 35.2489 67.8806 35.2334 68.8726C35.2015 70.9146 34.8302 77.0308 34.98 74.9941C35.1814 72.2547 35.1732 69.5047 35.3619 66.7649C35.381 66.4876 35.3812 66.1267 35.4696 65.8517C35.5214 65.6903 35.5827 66.1756 35.5946 66.3448C35.7968 69.2218 35.4544 72.0904 35.5008 74.9663C35.5172 75.9811 35.5991 72.9388 35.6397 71.9246C35.6948 70.5502 35.8133 69.1687 35.8133 67.7927C35.8133 67.7237 35.8133 67.4317 35.8133 67.4594C35.8133 67.7857 35.8107 68.1122 35.8133 68.4385C35.826 70.039 35.8758 71.6387 35.8758 73.2406C35.8758 73.6906 35.8445 74.1277 35.7855 74.5739C35.7439 74.8891 35.7508 75.3252 35.7508 74.6816C35.7508 72.8483 35.7508 71.0149 35.7508 69.1816C35.7508 66.5713 35.6317 74.4017 35.4869 77.008C35.3929 78.6999 35.2351 80.3789 35.0772 82.0635C35.0156 82.7203 35.0633 83.4003 35.0633 84.0601C35.0633 84.4525 35.0965 84.6156 34.973 84.0496C34.4426 81.6184 34.1635 79.1234 33.7577 76.6677C33.5953 75.6846 33.4181 74.7083 33.23 73.7302C33.1958 73.5525 33.1724 73.3733 33.1397 73.1955C33.0516 72.7175 33.2248 74.1638 33.2786 74.6469C33.5137 76.7588 33.7474 78.8748 34.0355 80.9802C34.0606 81.1633 34.0897 81.6953 34.1536 81.5219C34.2197 81.3425 34.1801 81.1401 34.1779 80.9489C34.1717 80.4064 34.1411 79.546 34.1258 79.0427C34.066 77.0797 34.0111 75.1066 34.098 73.1434C34.1017 73.0615 34.0874 72.5464 34.2022 72.4316C34.2513 72.3825 34.3086 72.5313 34.3272 72.5983C34.4003 72.8619 34.4632 73.3456 34.4869 73.5844C34.7353 76.0861 34.4683 83.6381 34.5668 81.126C34.6558 78.8569 34.8564 72.0497 34.8758 74.3205C34.8966 76.748 34.7508 79.1708 34.7508 81.5948C34.7508 81.6673 34.7574 81.8326 34.723 81.6191C34.6421 81.1167 34.5853 80.6098 34.5216 80.1052C34.2408 77.8781 33.9834 75.6332 33.5772 73.4246C33.1419 71.058 33.7844 78.2329 33.9001 80.6364C33.9185 81.0177 33.9172 81.4051 33.9522 81.7858C33.9558 81.8251 33.9877 82.092 33.9973 81.8274C34.0735 79.7324 33.6693 77.5854 33.2647 75.5427C33.0763 74.5918 32.8554 73.6461 32.5807 72.7163C32.4811 72.3792 32.3827 71.9916 32.2022 71.6816C32.1163 71.5341 32.0761 71.5918 32.0807 71.7406C32.0995 72.3535 32.2353 72.9916 32.3341 73.5913C32.6865 75.7298 33.111 77.8508 33.3897 80.001C33.505 80.8906 33.5867 81.7981 33.7473 82.6816C33.9428 83.7565 33.4815 80.5118 33.2959 79.4351C32.8672 76.9471 32.2669 74.4851 31.605 72.0496C31.5885 71.989 31.4086 71.2646 31.4522 71.7163C31.6634 73.9037 32.1414 76.0792 32.5911 78.2267C32.8628 79.5243 33.0501 80.8868 33.4383 82.1573C33.4783 82.2881 33.5417 82.535 33.6466 82.6399C33.6893 82.6826 33.6681 82.5193 33.6605 82.4594C33.6324 82.2362 33.5417 81.7201 33.5077 81.5427C33.0616 79.214 32.4004 76.9266 31.7091 74.6608C31.3151 73.3692 30.9299 72.0467 30.3237 70.8344C30.0866 70.3602 30.2368 70.9888 30.2682 71.1816C30.6811 73.721 31.1093 76.267 31.6675 78.7788C31.8089 79.4151 31.9463 80.0788 32.2057 80.6816C32.4451 81.2382 32.3283 80.5705 32.2994 80.4177C31.7394 77.4547 30.9337 74.5019 30.1084 71.6017C29.9922 71.1933 29.8741 70.7401 29.6883 70.3552C29.6601 70.2968 29.5977 70.1339 29.5772 70.1955C29.4594 70.5489 29.6802 71.2971 29.73 71.626C30.03 73.6099 30.4546 75.5793 31.0077 77.508C31.184 78.1226 31.3757 78.7374 31.6154 79.3309C31.7064 79.5563 31.8285 79.9683 32.0182 80.1434C32.1902 80.3022 31.9867 79.6746 31.9383 79.4455C31.7603 78.6023 31.5483 77.765 31.3168 76.9351C30.649 74.5416 29.9435 72.1139 28.9105 69.8483C28.7622 69.523 28.3196 68.5602 28.3897 68.9108C28.7641 70.7828 29.2936 72.6435 29.7265 74.5045C30.032 75.8177 30.2646 77.2469 30.7786 78.501C30.8259 78.6164 30.8932 78.9162 30.973 78.8205C31.1516 78.6061 30.7183 77.2392 30.6814 77.0774C30.0004 74.0941 29.0156 71.1893 28.3202 68.2094C27.8266 66.0937 29.0376 72.4965 29.5008 74.6191C29.7251 75.6469 29.9149 76.7611 30.3619 77.7233C30.7483 78.5549 30.2614 76.7182 30.2543 76.692C29.753 74.8417 29.273 72.9829 28.7091 71.1503C28.5114 70.5078 28.2548 69.8831 28.0702 69.2371C28.0269 69.0855 27.9352 68.7258 27.9487 69.1503C28.004 70.8911 28.5845 72.7005 29.0564 74.3621C29.2358 74.9942 29.4169 75.6635 29.7369 76.2441C29.7674 76.2993 29.8541 76.445 29.8654 76.383C29.9032 76.1749 29.6903 75.743 29.6327 75.5878C29.0223 73.9419 28.3839 72.3062 27.7716 70.6608C27.6581 70.3557 27.5379 70.0544 27.4036 69.758C27.4012 69.7526 27.2113 69.2754 27.2161 69.508C27.2403 70.6814 27.5898 71.9225 27.855 73.0566C28.0935 74.0768 28.3025 75.1814 28.9314 76.0462C29.1861 76.3964 29.1998 76.2616 29.098 75.8899C28.6706 74.3281 28.0225 72.8348 27.5702 71.2788C27.3955 70.6776 27.23 70.0825 27.1536 69.4594C27.1266 69.2391 27.0633 68.5777 27.0633 68.7996C27.0633 69.2532 27.1651 69.7079 27.2161 70.1573C27.2531 70.4839 27.2804 70.8118 27.2994 71.1399C27.2994 71.1399 27.2974 71.6095 27.2855 71.5913C27.0085 71.1684 26.957 70.4835 26.8758 70.001C26.7519 69.2646 26.7034 68.5203 26.5946 67.7823C26.517 67.2566 26.453 66.752 26.4383 66.2233C26.4298 65.9168 26.3106 65.6158 26.2508 65.317C26.0949 64.5373 26.0256 65.7834 26.0147 65.9871C25.9899 66.4516 26.0008 66.918 26.0008 67.383C26.0008 67.6767 25.9768 67.0042 25.9696 66.9351C25.9206 66.4651 25.9003 65.9672 25.8758 65.501C25.8674 65.3406 25.7197 64.9754 25.6918 65.3517C25.6606 65.7728 25.6067 66.3666 25.7508 66.7719C25.88 67.1353 25.8133 67.1501 25.8133 66.6885C25.8133 66.486 25.8133 66.2834 25.8133 66.0809C25.8133 65.8945 25.8105 66.4536 25.8133 66.6399C25.8283 67.6296 26.1018 68.6716 26.2994 69.6399C26.4463 70.3598 26.6604 70.9955 26.9348 71.6816C27.1387 72.1912 27.2378 72.7411 27.4244 73.258C27.744 74.1431 28.1352 74.9701 28.5147 75.8274C28.9644 76.8434 29.3679 77.8788 29.8133 78.8969C30.1248 79.6089 30.4807 80.0367 30.9271 80.6816C31.0002 80.7872 31.5946 81.6191 31.5946 81.6191C31.9071 81.6191 31.3899 81.1671 31.3758 81.126C31.1782 80.5512 30.721 79.9409 30.6258 79.3413C30.5678 78.9758 30.4759 78.6208 30.3758 78.2649C30.3712 78.2487 30.2671 77.9261 30.2543 77.9837C30.2061 78.2005 30.3746 78.4349 30.4383 78.626" stroke="#F5EFE7" stroke-linecap="round"/>
<path d="M29.1258 63.001C28.5847 62.5843 28.255 62.2028 28.0702 63.0739C27.978 63.5086 28.0205 63.9512 27.9695 64.3899C27.9285 64.7423 27.9383 64.6235 27.9383 64.3274C27.9383 63.9518 28.0008 62.8268 28.0008 63.2024C28.0008 64.0753 27.9881 64.9419 27.9383 65.8135" stroke="#F5EFE7" stroke-linecap="round"/>
<path d="M29.3757 76.126C29.4883 76.6239 29.6381 77.0811 29.8132 77.5565C29.8404 77.6303 29.9432 77.9884 29.9382 77.7232C29.93 77.2869 29.7626 76.8927 29.6986 76.4663C29.6257 75.9801 29.9297 77.3406 29.9382 77.376" stroke="#F5EFE7" stroke-linecap="round"/>
<path d="M35.3132 65.6885C35.1584 66.391 34.9095 67.0697 34.7542 67.7683C34.6582 68.2002 34.8105 66.8849 34.8618 66.4454C34.9027 66.0958 34.5986 66.8021 34.5007 66.9419C34.1591 67.4299 34.1707 68.2401 34.0632 68.8135" stroke="#F5EFE7" stroke-linecap="round"/>
<path d="M31.0007 79.3135C31.04 80.099 31.504 80.943 31.8757 81.6121C31.9753 81.7913 32.7895 82.8195 32.3375 82.1121C32.1137 81.7618 31.9875 81.3662 31.7785 81.0079C31.5987 80.6998 31.3806 80.4157 31.1986 80.1086C31.0803 79.9089 31.0747 79.9962 31.1466 80.192C31.3451 80.7325 31.6001 81.2806 31.8827 81.7822C32.061 82.0988 32.5314 83.0521 32.4834 82.692C32.453 82.4638 32.2322 82.1849 32.1188 81.9906C31.9356 81.6765 31.759 81.3589 31.5736 81.0461C31.5575 81.0188 31.4452 80.7758 31.4452 80.9558C31.4452 81.6617 32.1666 82.5941 32.65 83.0565C32.9792 83.3714 32.9755 83.0759 32.8688 82.7406C32.7729 82.4391 32.6579 82.1397 32.5355 81.8482C32.4459 81.635 32.3207 80.9849 32.2646 81.2093C32.1795 81.55 32.6515 82.1791 32.7855 82.4593C33.0171 82.9439 33.2411 83.4123 33.5355 83.8621C33.5512 83.8862 33.7507 84.275 33.7507 84.0982C33.7507 83.6679 33.5369 83.2341 33.3896 82.8413C33.1661 82.2451 32.9399 81.6414 32.6882 81.0565C32.5012 80.6217 32.726 81.7294 32.7438 81.7857C32.9725 82.5088 33.6538 84.6408 33.6257 83.8829C33.6069 83.3752 33.3166 82.8496 33.1327 82.3899C32.9634 81.9666 32.789 81.5454 32.6188 81.1225C32.5751 81.0139 32.474 80.6985 32.4521 80.8135C32.3562 81.317 32.7123 82.0372 32.8896 82.4871C33.1182 83.0672 33.4157 83.5997 33.7577 84.119C33.8007 84.1843 33.9614 84.4934 33.9243 84.2301C33.8564 83.748 33.6527 83.308 33.4382 82.876C33.3176 82.6329 32.6996 81.4095 32.9209 82.3968C32.9774 82.6492 33.9378 85.1703 34.1535 85.1086C34.4791 85.0156 33.2089 82.7539 33.0841 82.5426C32.8983 82.2283 32.9304 82.6102 32.9486 82.7683C33.0143 83.3373 33.3531 83.8363 33.6153 84.3308C33.6321 84.3625 34.0633 85.2295 34.0459 84.942C34.0131 84.4006 33.4934 83.8221 33.2368 83.369C33.2067 83.3158 32.7823 82.4157 32.7611 82.8378C32.7369 83.3237 33.0015 83.8292 33.2473 84.2301C33.3718 84.4333 33.6069 84.86 33.8653 84.9246C34.0216 84.9636 33.9874 84.3556 33.9834 84.3031C33.9236 83.5157 33.669 82.7371 33.5077 81.9663C33.4578 81.7278 33.3757 81.0039 33.3757 81.2475C33.3757 81.719 33.5352 82.1837 33.6605 82.6329C33.861 83.3519 34.0745 84.0676 34.2785 84.7857C34.2791 84.7877 34.5397 85.6227 34.5598 85.2822C34.5932 84.7143 34.5713 84.126 34.525 83.56C34.489 83.12 34.3757 81.8026 34.3757 82.244C34.3757 82.7313 34.5555 83.2414 34.6188 83.7232C34.6934 84.2911 34.6478 84.9776 34.8757 85.5149C34.9673 85.7307 35.0544 85.7607 35.091 85.494C35.1917 84.7608 35.0534 82.5368 35.0042 83.2753C34.9559 84.0001 34.9883 84.7624 35.2195 85.4558C35.3086 85.7232 35.4998 86.2399 35.7195 86.4107C35.856 86.5169 36.0533 86.7702 36.0632 86.9385C36.1091 87.718 35.843 85.3914 35.6882 84.626C35.5915 84.1476 35.58 83.6554 35.4382 83.1885C35.3205 82.8005 35.1977 82.3722 35.1882 81.9663C35.17 81.1831 35.1257 80.401 35.1257 79.6121C35.1257 78.6933 35.0632 77.782 35.0632 76.8656C35.0632 76.7643 35.1221 75.3834 35.4105 75.4246C35.8071 75.4813 35.4752 78.1303 35.4382 78.3864C35.4326 78.4252 35.3132 79.3156 35.3132 79.067C35.3132 78.6393 35.3191 78.2211 35.3757 77.7961C35.4985 76.8751 35.5537 75.9345 35.7542 75.0322C35.8361 74.6636 35.8996 74.869 35.9243 75.1538C36.0004 76.028 35.9905 76.9875 35.9243 77.8621C35.8241 79.1875 35.6882 80.4962 35.6882 81.8274C35.6882 82.6176 35.6693 83.4712 35.5493 84.251C35.5084 84.5168 35.5007 85.4837 35.5007 84.6954C35.5007 83.7768 35.5048 82.814 35.6396 81.9038C35.6713 81.6898 35.6851 81.7419 35.6882 81.9246C35.6931 82.2128 35.748 82.4961 35.7507 82.7857C35.7553 83.2722 35.8132 84.7306 35.8132 84.244C35.8132 83.7556 35.8132 83.2672 35.8132 82.7788C35.8132 82.3436 35.8132 83.6491 35.8132 84.0843C35.8132 84.7877 35.8487 85.5877 36.0493 86.2649C36.0884 86.3968 36.1231 87.0023 36.0007 87.0635" stroke="#F5EFE7" stroke-linecap="round"/>
<path d="M35.0007 85.5635V86.3135" stroke="#F5EFE7" stroke-linecap="round"/>
<path d="M42.9385 34.8135C42.8663 36.8546 42.2777 38.6644 41.619 40.5774C41.4072 41.1926 41.1841 41.8158 41.0426 42.4524C41.038 42.4732 41.05 42.5352 41.0565 42.5149C41.2869 41.7951 41.4395 41.035 41.6017 40.2996C41.9284 38.8186 42.1978 37.3301 42.4246 35.8309C42.523 35.1802 42.5889 34.512 42.751 33.8725C42.7744 33.7801 42.9179 33.2382 42.9593 33.6815C43.0585 34.7446 42.8402 35.8833 42.6607 36.9246C42.4694 38.0343 42.2075 39.1303 42.001 40.2371C41.8919 40.8219 41.5078 42.5527 41.7301 42.001C42.1152 41.0454 42.1984 39.8483 42.3482 38.8482C42.5771 37.3193 42.8239 35.7642 42.9281 34.2197C42.9405 34.0356 42.9385 33.852 42.9385 33.6677C42.9385 33.6159 42.73 34.4368 42.7093 34.5149C42.1892 36.4782 41.489 38.4611 41.2614 40.4871C41.2349 40.723 41.3062 41.4015 41.1885 41.1954C41.1033 41.0464 41.1628 40.8531 41.1572 40.6815C41.1381 40.0935 41.1321 39.7056 41.1364 39.0947C41.1486 37.3739 41.3474 35.6618 41.376 33.9454C41.3764 33.92 41.3793 33.8438 41.376 33.869C41.3589 34.0001 41.3689 33.9645 41.3343 34.1399C41.2275 34.6817 41.0622 35.2087 40.9732 35.7545C40.815 36.7246 40.7069 37.7023 40.5635 38.6746C40.4948 39.1403 40.4675 39.6094 40.376 40.067C40.2829 40.5323 40.0635 41.9304 40.0635 41.4559C40.0635 40.2765 40.1885 39.1162 40.1885 37.9385C40.1885 36.8746 40.2951 35.7858 40.4524 34.7371C40.5177 34.3015 40.6885 33.8444 40.6885 33.4072C40.6885 32.685 40.777 31.922 40.9072 31.2128C41.0844 30.2484 41.0864 29.298 41.1746 28.3274C41.2879 27.0804 41.4907 25.8293 41.501 24.5774C41.5181 22.4856 41.6183 20.4232 41.4246 18.3413C41.3609 17.6567 41.376 16.9706 41.376 16.2822C41.376 15.8869 40.8512 15.8653 40.8135 15.5635C40.8082 15.521 40.7587 15.4164 40.7371 15.376C40.7082 15.3218 40.6885 15.8283 40.6885 15.9072C40.6885 16.724 40.7238 17.5498 40.685 18.3656C40.6479 19.145 40.376 19.8747 40.376 20.6677C40.376 21.5676 40.2369 22.4635 40.1919 23.3621C40.1213 24.7755 39.8135 26.1987 39.8135 27.6121C39.8135 31.8855 39.8844 36.1674 39.751 40.4385" stroke="#F5EFE7" stroke-width="2" stroke-linecap="round"/>
<path d="M40.5009 23.6884C40.4903 23.603 40.1735 24.2104 40.1259 24.3412C40.0605 24.5212 40.1791 23.7141 40.1537 23.7648C40.1042 23.8638 39.8601 24.7925 39.9732 24.3724C40.0582 24.0567 40.0722 23.7881 40.1294 23.4731C40.1886 23.1477 40.1713 23.9267 40.1259 24.0495C40.0222 24.3301 39.9499 24.5916 39.9384 24.8898C39.927 25.1864 39.5257 25.53 40.0009 25.6884" stroke="#F5EFE7" stroke-width="2" stroke-linecap="round"/>
<path d="M41.751 29.2509C41.7943 30.578 41.8135 31.9023 41.8135 33.2301C41.8135 34.2536 41.7382 35.3131 41.8482 36.3343C41.8584 36.4288 41.9833 37.2545 41.9975 36.7301C42.0514 34.7346 42.0095 32.7295 41.9975 30.7336C41.9902 29.5251 41.9203 28.3135 41.9385 27.1051C41.9542 26.063 42.3191 27.8273 42.3343 28.0218C42.4987 30.1177 42.3774 32.271 42.3343 34.369C42.2969 36.1905 42.2261 38.0156 42.2649 39.8377C42.2696 40.0594 42.2539 40.5774 42.3899 40.8343C42.4113 40.8748 42.4796 40.7823 42.4871 40.7371C42.6055 40.0268 42.5751 39.2557 42.5982 38.5426C42.6837 35.9087 42.8828 33.2825 42.9871 30.6502C43.0171 29.8934 43.0087 29.1322 42.9697 28.3759C42.908 27.1794 43.0535 28.8847 43.0669 29.0773C43.2704 32.0022 43.2712 34.9355 43.3169 37.8655C43.3396 39.3134 43.2982 40.867 43.7163 42.2718C43.7277 42.3102 43.8423 42.765 43.9385 42.7787C43.9696 42.7832 43.9861 42.7328 43.994 42.7023C44.0533 42.4737 44.059 41.8793 44.0635 41.7475C44.1645 38.7812 44.2074 35.8126 44.1815 32.8447C44.171 31.6419 44.1869 30.4224 44.001 29.2301C43.8578 28.312 44.263 30.0233 44.2649 30.0357C44.6882 32.7958 44.6308 35.5962 44.8065 38.3759C44.9296 40.3228 45.2088 42.2213 45.5357 44.1398C45.5502 44.2249 45.6815 45.3002 45.6815 44.6016C45.6815 42.1264 45.5047 39.6389 45.3343 37.1711C45.1829 34.9779 45.1169 32.6615 44.5426 30.5252C44.5022 30.3749 44.3766 29.8863 44.5149 30.5357C44.7645 31.7081 44.9918 32.8818 45.1746 34.0669C45.5434 36.4588 45.728 38.8743 46.1051 41.2648C46.3012 42.5078 46.4683 43.8358 46.876 45.0357C46.9024 45.1134 47.0021 45.3961 46.9767 45.0739C46.9217 44.3769 46.7778 43.6794 46.6885 42.9871C46.3089 40.0444 46.1246 37.0798 45.7232 34.1398C45.6053 33.2767 45.4636 32.4162 45.3031 31.56C45.2442 31.2462 45.2216 31.1564 45.3551 31.5634C46.0816 33.7773 46.4253 36.0417 46.7301 38.3482C46.9951 40.3532 47.116 42.384 47.4732 44.3759C47.5278 44.6804 47.6999 45.5879 47.6885 45.2787C47.6323 43.7623 47.4393 42.2457 47.3204 40.7336C47.142 38.4639 47.1031 36.1737 46.6572 33.935C46.5094 33.1925 46.2526 32.4398 46.1919 31.6815C46.1812 31.5474 46.3 31.9284 46.3413 32.0565C46.6433 32.9938 46.9169 33.9371 47.1399 34.8968C47.9337 38.3131 48.1654 41.8519 48.7232 45.3134C48.7387 45.4094 48.7534 45.5056 48.7683 45.6016C48.7807 45.6815 48.8068 45.8603 48.7649 45.5704C48.6727 44.9338 48.576 44.2978 48.4871 43.6607C48.1873 41.5125 47.991 39.35 47.6399 37.2093C47.5242 36.504 47.3978 35.8073 47.3794 35.0912C47.3756 34.9417 47.2877 34.2531 47.4975 34.7336C48.7523 37.6075 49.0742 40.7769 49.376 43.8621C49.4596 44.7165 49.5376 45.5741 49.6572 46.4246C49.6784 46.5753 49.7977 47.1633 49.7093 46.6329C49.2059 43.6125 48.8343 40.5712 48.2614 37.5634C48.163 37.0471 48.1097 36.5253 48.0774 36.0009C48.0682 35.8516 48.0511 35.4361 48.1399 35.5565C48.5445 36.1057 48.7438 36.9085 48.9454 37.5426C49.2565 38.5212 49.4831 39.5319 49.6607 40.5426C49.8933 41.8668 50.0571 43.2238 50.1746 44.5634C50.2132 45.0035 50.1469 46.2974 50.2996 45.8829C50.3843 45.6528 50.2203 45.194 50.185 44.9732C50.0323 44.0185 49.9406 43.0567 49.8169 42.0982C49.6665 40.9325 49.6341 39.76 49.501 38.5947C49.4436 38.0923 49.376 37.5727 49.376 37.0669C49.376 36.395 49.634 38.3866 49.7197 39.053C49.8671 40.1996 50.0474 41.3511 50.2649 42.4871C50.3274 42.8136 50.2703 43.2276 50.4072 43.5287C50.4758 43.6795 50.4385 43.3968 50.4385 43.3621C50.4385 42.8835 50.4029 42.4057 50.376 41.928C50.3181 40.901 50.126 39.8367 50.126 38.8134C50.126 38.0093 50.4359 40.3924 50.5496 41.1884C50.633 41.7726 50.6339 42.3822 50.685 42.9697C50.7481 43.695 50.751 44.4248 50.751 45.1537C50.751 45.5983 50.751 45.438 50.751 45.0843C50.751 44.3273 50.751 43.5704 50.751 42.8134C50.751 42.6764 50.7223 41.5126 50.7544 42.1711C50.7984 43.0726 50.9596 43.972 51.0322 44.8725C51.0386 44.9513 51.0708 45.921 51.0635 45.5773C51.0499 44.9395 51.0089 43.0336 50.9385 43.6676C50.8597 44.3763 51.011 45.1671 51.0635 45.8759C51.1051 46.4381 51.126 46.9894 51.126 47.553C51.126 48.1514 51.126 48.7498 51.126 49.3482C51.126 49.9611 51.126 48.7933 51.126 48.6746C51.126 47.8181 51.126 46.9616 51.126 46.1051C51.126 45.8237 51.108 45.562 51.185 45.2926C51.2073 45.2147 51.1855 45.4549 51.1919 45.5357C51.2127 45.7948 51.259 46.0536 51.2822 46.3134C51.3487 47.0584 51.4385 47.786 51.4385 48.5322C51.4385 49.6049 51.4731 50.6827 51.376 51.7509" stroke="#F5EFE7" stroke-width="2" stroke-linecap="round"/>
<path d="M42.6258 23.751C42.5533 24.9122 42.5708 26.0699 42.6015 27.2336C42.628 28.2356 42.6681 29.237 42.7369 30.2371C42.7717 30.741 42.7796 31.2859 42.9383 31.7718C42.9567 31.8279 43.05 31.9624 43.0564 31.9038C43.1269 31.2518 43.0497 30.5309 43.0147 29.8829C42.8853 27.4841 42.6191 25.0849 42.2856 22.7058C42.237 22.3597 42.0239 21.3299 42.3203 22.3413C43.073 24.9101 43.5263 27.5608 44.2022 30.1503C44.5484 31.4767 44.842 32.8886 45.3481 34.1676C45.4912 34.5295 45.4117 33.9022 45.4106 33.8899C45.3006 32.7149 45.0757 31.5491 44.8619 30.3899C44.3946 27.8556 43.8012 25.3598 43.2022 22.8551C43.1726 22.7311 43.0554 22.4079 43.0911 22.2649C43.116 22.1652 43.1754 22.4525 43.2092 22.5496C43.3094 22.8382 43.5449 23.5494 43.6189 23.7857C44.4619 26.4782 45.0334 29.2463 45.9106 31.9281C46.1743 32.7346 46.4515 33.5346 46.7717 34.3204C46.8421 34.4932 46.8946 34.6206 46.9592 34.7926C46.9884 34.8705 46.9829 35.0752 47.0494 35.0253C47.0707 35.0093 47.0524 34.9719 47.0494 34.9454C47.0241 34.7176 46.9581 34.3521 46.9175 34.1538C46.6343 32.7686 46.2713 31.397 45.9175 30.0288C45.4825 28.3466 44.9846 26.6658 44.664 24.9558C44.6471 24.8656 44.567 24.6256 44.6397 24.6815C44.8715 24.8598 45.0604 25.7763 45.1328 25.9871C46.0013 28.5165 46.6536 31.1159 47.5356 33.6399C47.6765 34.0432 48.1029 35.2399 48.0425 34.817C47.9939 34.4771 47.8521 34.1173 47.7578 33.7926C47.3959 32.5466 47.038 31.2992 46.6883 30.0496C46.4673 29.2596 46.2496 28.4693 46.0599 27.6711C46.007 27.4485 45.7944 26.7998 45.8967 27.0045C46.1414 27.4939 46.26 28.1312 46.421 28.6468C46.7912 29.8325 47.1337 31.0268 47.5251 32.2058C47.8691 33.2417 48.2276 34.2777 48.6119 35.2996C48.6669 35.4457 48.7188 35.5925 48.7682 35.7406C48.8569 36.0067 48.571 35.2153 48.4731 34.9524C47.7521 33.0166 47.1307 31.0252 46.6258 29.0218C46.5548 28.7398 46.323 27.8996 46.4175 28.1746C46.5941 28.6883 46.8049 29.1904 46.9869 29.7024C47.7118 31.7416 48.3916 33.7885 49.1744 35.8065C49.4072 36.4066 49.6055 37.0477 49.8793 37.6295C50.2538 38.4253 50.4098 39.0082 50.3133 39.876" stroke="#F5EFE7" stroke-width="2" stroke-linecap="round"/>
<path d="M45.126 24.001C45.7616 25.3096 46.1729 26.7243 46.7024 28.0774C46.7553 28.2127 47.0668 28.8983 47.06 28.8274C46.9811 27.999 46.6203 27.1966 46.3968 26.4038C46.223 25.7873 46.137 25.0299 45.8482 24.4524C45.6357 24.0274 46.124 25.3624 46.2926 25.8065C46.6431 26.7294 47.5324 29.54 47.3656 28.5669C47.2388 27.8277 47.0021 27.1008 46.8135 26.376C46.7127 25.9889 46.6445 25.3124 46.4072 24.9801C46.109 24.5626 46.6307 25.9829 46.7822 26.4732C47.2526 27.9948 47.9651 29.4573 48.3621 31.001C48.5861 31.8722 48.7916 32.7601 48.9871 33.6399C49.198 34.5888 49.4205 35.5666 49.5044 36.5322C49.5337 36.8685 49.6079 37.1822 49.6885 37.5044C49.7845 37.8887 49.9063 38.2328 49.8725 37.5565C49.8398 36.9022 49.626 36.2479 49.626 35.5947C49.626 35.5283 49.626 36.1345 49.626 36.3135" stroke="#F5EFE7" stroke-width="2" stroke-linecap="round"/>
<path d="M42.2508 19.876C42.2633 19.7021 42.3749 19.9756 42.3932 20.0114C42.6969 20.6062 42.936 21.2351 43.1536 21.8655C43.2426 22.1234 43.4612 22.8916 43.4731 22.619C43.4905 22.2177 43.1912 21.6663 43.0772 21.2926C42.929 20.8065 42.7834 20.3197 42.6328 19.8343C42.6037 19.7407 42.3849 19.1646 42.5147 19.5912C42.9334 20.9669 43.5905 22.3142 44.1779 23.626C44.6264 24.6276 43.9617 23.2848 43.855 23.0565C43.203 21.6616 42.7184 20.1691 41.9731 18.8204C41.9305 18.7434 41.7201 18.4815 41.8967 18.6954C42.3208 19.2093 42.6542 19.7609 42.9939 20.3343C43.4293 21.0695 43.8121 21.8285 44.2092 22.5843C44.2361 22.6355 44.4751 23.0667 44.4592 23.0079C44.3719 22.6849 44.1692 22.3725 44.0251 22.0739C43.6537 21.3039 43.3408 20.4987 43.0494 19.6954C42.8427 19.1252 42.6029 18.5766 42.3758 18.0148C42.2284 17.6502 42.0943 17.3409 41.8446 17.0357C41.8229 17.0092 41.6752 16.7118 41.6883 16.7162C42.028 16.8295 42.3249 17.4825 42.5008 17.751C43.0261 18.5526 43.4715 19.4389 43.9349 20.2787C44.6542 21.5826 46.6166 25.5969 45.9106 24.2857C45.2335 23.0283 44.6005 21.7449 43.9244 20.4871C43.5914 19.8675 43.4896 19.1028 43.0946 18.5322C42.9761 18.3611 42.8661 18.1877 42.7508 18.0148C42.4791 17.6072 42.7477 17.965 42.8828 18.1676C43.4553 19.0265 43.9394 19.9695 44.4522 20.8621C44.8283 21.5167 45.1513 22.1307 45.4071 22.8412C45.5555 23.2535 45.7235 23.4988 45.6258 23.9385" stroke="#F5EFE7" stroke-width="2" stroke-linecap="round"/>
<path d="M40.2508 41.501C40.1623 42.8834 40.0481 44.3153 39.7021 45.6607C39.4582 46.6095 39.9054 43.7094 40.091 42.7475C40.1347 42.5211 40.1883 42.3084 40.1883 42.0774C40.1883 41.9798 40.0849 42.4573 40.0771 42.5288C40.0098 43.1485 39.9618 43.7809 39.9417 44.4038C39.9216 45.0291 39.9325 44.556 39.973 44.244C40.0538 43.6206 40.3597 42.7655 40.1744 42.1399C40.1604 42.0926 40.1215 41.8604 40.1292 41.9419C40.2205 42.9004 40.256 43.8422 40.2473 44.8065C40.2337 46.3104 40.1297 47.7896 40.0146 49.2857C40.0024 49.445 39.9403 49.9062 40.0146 49.7649C40.132 49.542 40.1486 49.1719 40.1883 48.9315C40.4433 47.3865 40.4752 45.8126 40.6848 44.2614C40.7937 43.4551 40.9521 42.6482 40.9973 41.8343C41.0001 41.7834 41.0039 41.6307 41.0008 41.6815C40.9483 42.5389 40.871 43.3951 40.7994 44.251C40.6322 46.2483 40.4048 48.2587 40.3758 50.2649C40.3621 51.2067 40.4301 50.1255 40.4348 49.8031C40.4514 48.6686 40.3986 47.5444 40.3133 46.4142C40.2876 46.0748 40.3126 45.2749 40.0771 44.9871C40.0071 44.9015 39.9437 44.9523 39.907 45.0461C39.6994 45.5766 39.7651 46.3133 39.7542 46.869C39.7463 47.274 39.7508 47.6793 39.7508 48.0843C39.7508 48.4755 39.7346 47.3008 39.7646 46.9107C39.7896 46.5859 39.8758 46.2733 39.8758 45.9454C39.8758 45.6313 39.8727 46.4699 39.8723 46.4871C39.842 47.7156 39.765 48.9462 39.7508 50.1746C39.7482 50.3944 39.7508 50.6144 39.7508 50.8343C39.7508 51.2302 39.6827 50.0454 39.657 49.6503C39.6204 49.0868 39.6258 48.5237 39.6258 47.9593C39.6258 47.5585 39.7228 48.0393 39.7369 48.1746C39.8796 49.545 39.8022 50.9368 39.973 52.3031C40.0052 52.561 40.0869 53.3014 40.1744 53.0565C40.2553 52.83 40.2379 52.4985 40.2646 52.2649C40.3837 51.2247 40.454 50.1796 40.5771 49.1399C40.6943 48.1506 40.8883 47.1801 41.1883 46.2301C41.1894 46.2264 41.3488 45.7334 41.4035 45.8378C41.6567 46.3211 41.4933 47.4695 41.4869 47.9454C41.4564 50.2122 41.1883 52.4694 41.1883 54.7371C41.1883 54.9473 41.253 55.5166 41.3688 55.3413C41.5314 55.0952 41.6749 54.447 41.716 54.2579C41.8709 53.5468 42.0572 52.3831 42.1605 51.6885C42.5513 49.0591 42.725 46.4314 42.841 43.7788C42.862 43.2995 42.8428 41.8659 42.907 42.3413C42.9574 42.714 42.9409 43.1143 42.9383 43.4871C42.926 45.2189 42.8258 46.9497 42.6744 48.6746C42.4562 51.16 41.9182 53.6679 41.9035 56.1676C41.9028 56.2961 41.9111 56.6567 41.9765 56.5461C42.0794 56.3719 42.0791 56.1543 42.1188 55.9558C42.2193 55.4536 42.3706 54.6552 42.4556 54.1919C43.1588 50.3583 43.3939 46.5343 43.2195 42.6399C43.2116 42.4638 43.2026 42.2877 43.1883 42.1121C43.1775 41.9804 43.2086 41.6332 43.1119 41.7232C42.9374 41.8856 43.0064 42.1886 42.973 42.4246C42.9065 42.8937 42.799 43.7921 42.7508 44.2301C42.3683 47.7001 41.9738 51.2214 42.0146 54.7163C42.0197 55.1499 42.0096 55.6407 42.1292 56.0669C42.2239 56.4044 42.3357 56.3531 42.4105 55.994C42.6683 54.7567 42.6942 53.4352 42.7334 52.1781C42.792 50.2971 42.7055 48.4247 42.5598 46.5496C42.4763 45.4751 42.3662 44.4026 42.2924 43.3274C42.2663 42.9461 42.2508 41.7993 42.2508 42.1815C42.2508 44.8166 42.1144 47.45 42.0633 50.0843C42.0123 52.7099 41.8671 55.4297 42.2785 58.0357C42.3075 58.2193 42.423 58.6988 42.5181 58.5392C42.6479 58.3214 42.7713 57.7256 42.8028 57.5878C42.9965 56.7426 43.1176 56.0858 43.2473 55.2058C43.7686 51.6673 43.932 48.1073 43.9383 44.5357C43.9392 43.9922 43.9293 43.4474 43.9383 42.9038C43.9441 42.547 43.9818 43.6164 43.9869 43.9732C44.0363 47.4489 43.8123 50.9056 43.6049 54.3725C43.5174 55.8362 43.4291 57.3083 43.4799 58.7753C43.4803 58.7848 43.4767 59.9802 43.657 60.0079C43.8869 60.0433 44.7912 51.8909 44.848 51.2996C45.0666 49.023 45.2098 46.741 45.3619 44.4593C45.3835 44.1355 45.4453 43.1874 45.4869 42.7857C45.501 42.6488 45.4426 42.3541 45.5771 42.3829C45.6192 42.3919 45.6183 42.4594 45.6292 42.501C45.7186 42.8418 45.7242 43.2166 45.7334 43.56C45.8019 46.1049 45.6178 48.6621 45.3966 51.1954C45.1956 53.497 44.9108 55.7904 44.7403 58.0947C44.6694 59.0532 44.5478 60.0852 44.6396 61.0496C44.6696 61.3636 44.7886 61.3234 44.8758 61.0288C45.3178 59.5346 45.407 57.8485 45.5771 56.3135C46.007 52.4347 46.1256 48.5836 46.1952 44.6885C46.2003 44.4034 46.2691 43.5596 46.3133 43.8413C46.5532 45.3712 46.44 47.0256 46.4105 48.5635C46.3318 52.668 45.8092 56.7371 45.6396 60.8343C45.6347 60.9534 45.6327 61.0727 45.6327 61.1919C45.6327 61.2968 45.572 61.5478 45.6674 61.5044C45.8417 61.4252 45.7692 61.1345 45.7994 60.9454C45.9011 60.3067 46.0011 59.4955 46.0771 58.8794C46.618 54.4987 46.9222 50.116 47.1466 45.7093C47.1558 45.5288 47.1647 45.3482 47.1744 45.1676C47.1808 45.0471 47.1203 44.8952 47.2021 44.8065C47.301 44.6994 47.2646 45.092 47.2785 45.2371C47.3359 45.8339 47.3824 46.6793 47.3966 47.244C47.4968 51.2374 46.9372 55.1677 46.6674 59.1399C46.6431 59.4981 46.5839 59.9407 46.6327 60.3065C46.6869 60.7127 46.8076 59.5048 46.8584 59.0982C47.3815 54.9138 47.7502 50.7156 48.1813 46.5218C48.2095 46.2481 48.3145 45.4585 48.3896 45.7232C48.471 46.0098 48.515 46.8665 48.5216 47.0426C48.5535 47.896 48.545 49.0724 48.5216 49.9038C48.4575 52.1819 48.2598 54.446 48.0008 56.7093C47.8611 57.9297 47.6605 59.1595 47.6258 60.3899C47.6226 60.5015 47.6075 60.8216 47.6605 60.7232C47.7444 60.5674 47.7215 60.3744 47.7438 60.1989C48.1886 56.6983 47.3576 63.1782 48.0181 58.0288C48.4445 54.7046 48.841 51.382 49.0876 48.0392C49.0988 47.887 49.1062 47.4354 49.1396 47.5843C49.304 48.3166 49.2762 49.1805 49.2855 49.9176C49.3153 52.2782 49.1072 54.6286 48.8549 56.9732C48.7064 58.353 48.4881 59.7328 48.4035 61.119C48.3892 61.3548 48.2548 61.9056 48.4765 61.8239C48.7611 61.719 48.8379 59.9244 48.8549 59.7926C49.3179 56.2191 49.7304 52.6359 50.1466 49.0565C50.1758 48.8051 50.187 48.5264 50.2508 48.2788C50.3681 47.823 50.3209 49.2179 50.3271 49.6885C50.3676 52.7144 50.1729 55.6764 49.8549 58.6815C49.7815 59.375 49.7157 60.0694 49.6292 60.7614C49.5885 61.0873 49.5831 61.4954 49.473 61.81C49.2201 62.5326 49.5844 60.2825 49.6709 59.5218C49.8673 57.7949 50.0503 56.0682 50.2126 54.3378C50.3017 53.3869 50.3427 52.4117 50.4869 51.4663C50.5247 51.2183 50.5453 51.9654 50.5494 52.2163C50.5715 53.59 50.5175 54.9659 50.3966 56.3343C50.225 58.2762 49.8644 60.2027 49.7577 62.1503C49.729 62.6744 49.8152 62.0317 49.8271 61.9454C49.9904 60.7665 50.1205 59.5832 50.2508 58.4003C50.4589 56.51 50.7827 54.593 50.8133 52.6885C50.818 52.3945 50.8208 51.5126 50.8271 51.8065C50.8562 53.1421 50.7176 54.4909 50.5494 55.8135C50.2661 58.0404 49.8325 60.2533 49.2126 62.4107C48.8379 63.7145 48.4373 65.0128 47.7473 66.1885C47.2726 66.9972 46.6655 67.7847 46.4521 68.7093C46.2641 69.5242 46.7167 67.0578 46.8584 66.2336C47.3439 63.4095 47.8164 60.5594 47.8688 57.6885C47.8801 57.0682 47.8758 56.4477 47.8758 55.8274C47.8758 55.6399 47.8786 55.4523 47.8758 55.2649C47.875 55.216 47.8655 55.362 47.8619 55.4107C47.6049 58.8898 46.9118 62.3263 46.2091 65.7371C45.7946 67.7486 45.3011 69.7429 44.8896 71.7544C44.7532 72.4215 44.8978 71.6915 44.9278 71.501C45.1926 69.8244 45.4039 68.1383 45.598 66.4524C45.9305 63.5636 46.3501 60.6295 46.3758 57.7163C46.3792 57.3211 46.4024 57.0866 46.2785 57.7024C45.9497 59.3365 45.6348 60.9739 45.3271 62.6121C44.8379 65.2174 44.2966 67.8385 44.1049 70.4871C44.0863 70.7442 43.9902 71.2192 44.0667 71.4871C44.0965 71.5914 44.0989 71.2723 44.1084 71.1642C44.1689 70.4752 44.2127 69.8201 44.2577 69.1225C44.4797 65.6822 44.7842 62.1622 44.5008 58.7163C44.4749 58.4018 44.3871 57.4759 44.3271 57.7857C44.1615 58.6415 44.2192 59.6105 44.1466 60.4732C43.807 64.5092 43.1708 68.5079 42.4278 72.4871C42.3202 73.0637 42.1958 73.6427 42.1327 74.2267C42.0868 74.6514 42.246 73.3797 42.2994 72.9558C42.7578 69.3148 42.8939 65.6549 42.8619 61.9871C42.8572 61.4531 42.9506 60.6265 42.8133 60.0774C42.7807 59.947 42.8048 60.3459 42.7994 60.4801C42.7707 61.1918 42.7474 61.6467 42.7091 62.4038C42.5313 65.9213 42.2757 69.4558 42.3271 72.9801C42.3378 73.7068 42.318 74.5465 42.5598 75.2475C42.5835 75.3163 42.6292 75.484 42.6952 75.31C42.7967 75.0425 42.8582 74.4211 42.8792 74.2371C43.3369 70.2251 43.1339 66.1839 42.9799 62.1607C42.9166 60.5065 42.9314 60.9429 42.8896 59.5635C42.8833 59.355 42.9196 58.7381 42.8619 58.9385C42.7336 59.3836 42.7582 59.8591 42.716 60.3204C42.5991 61.5991 42.4334 63.5681 42.341 64.7857C42.0754 68.2862 41.7289 71.8752 42.0633 75.3864C42.0876 75.6419 42.1115 75.8363 42.1535 76.0808C42.1665 76.1562 42.1664 76.351 42.223 76.2996C42.3552 76.1794 42.2998 75.9497 42.3167 75.7718C42.3792 75.1162 42.4072 74.5071 42.4313 73.8413C42.5884 69.5109 42.4143 65.1782 42.341 60.8482C42.3218 59.7128 42.5693 56.3176 42.6119 57.4524C42.6411 58.232 42.5646 59.0307 42.5216 59.8065C42.396 62.0737 42.2719 64.3408 42.157 66.6086C42.0495 68.7302 41.9322 70.8526 41.8862 72.9767C41.8751 73.4858 41.767 74.224 41.8862 74.7406C41.9434 74.9887 42.0408 74.253 42.0771 74.001C42.3476 72.126 42.417 70.2185 42.4591 68.3274C42.5347 64.9324 42.3105 61.5218 42.5355 58.1329C42.8335 53.6436 41.5914 67.1073 41.7056 71.6051C41.723 72.2912 41.7795 72.9744 41.8758 73.6538C41.913 73.9165 41.9378 74.2566 42.0633 74.501C42.1118 74.5955 42.1675 74.3083 42.1744 74.2024C42.2057 73.7195 42.2246 73.2342 42.2508 72.751" stroke="#F5EFE7" stroke-width="2" stroke-linecap="round"/>
<path d="M40.6883 52.5634C40.5985 52.2153 40.5607 52.5233 40.5147 52.7301C40.3591 53.4303 40.2791 54.1584 40.1883 54.869C40.1372 55.2693 40.0905 55.6701 40.039 56.0704C40.0369 56.0871 40.0272 56.3565 39.987 56.3968C39.9329 56.4509 39.9453 56.2476 39.9453 56.1711C39.9453 55.8365 39.9781 55.501 40.0008 55.1676C40.0664 54.2043 40.0633 51.3063 40.0633 52.2718C40.0633 52.6302 40.1241 53.0505 40.0599 53.4037C40.0505 53.4553 40.0008 52.7511 40.0008 52.5634C40.0008 52.303 39.8133 52.326 39.8133 52.5877C39.8133 53.8824 40.0533 55.1101 40.0633 56.4037C40.074 57.7849 40.0081 59.1677 40.0008 60.5495C39.9992 60.8708 39.9889 61.1907 39.9696 61.5113C39.9595 61.6792 39.9791 62.1779 39.9383 62.0148C39.896 61.8455 39.9405 61.4962 39.9453 61.3481C39.9642 60.7581 40.0135 60.171 40.0772 59.5843C40.2002 58.4508 40.7154 55.0714 40.487 56.1884C40.3972 56.6273 40.3578 57.0837 40.3133 57.5287C40.2604 58.0586 40.3623 58.9312 40.0946 59.4072C40.0513 59.4842 39.9434 58.6735 39.9418 58.6086C39.9273 57.9986 39.9596 57.3874 39.9071 56.7787C39.8245 55.821 39.6597 57.2354 39.6397 57.487C39.6138 57.8145 39.6258 58.145 39.6258 58.4731C39.6258 58.6114 39.663 58.425 39.6883 58.3759C39.765 58.2271 39.8366 58.2382 39.8758 58.4106C40.0047 58.976 40.0411 59.58 40.0633 60.1572C40.094 60.9546 40.1258 61.7514 40.1258 62.5495C40.1258 62.8704 39.9905 63.7812 40.164 63.5113C40.281 63.3295 40.3082 62.9087 40.3411 62.7231C40.4692 62.0016 40.57 61.2771 40.6571 60.5495C40.8039 59.3231 40.9135 58.0906 41.1224 56.8725C41.1285 56.8366 41.1752 56.7517 41.1883 56.7856C41.2604 56.9721 41.2684 57.2164 41.2786 57.4072C41.385 59.3977 41.2319 61.3992 41.1293 63.3863C41.0521 64.883 40.9589 66.3971 41.0043 67.8968C41.0079 68.0141 40.9735 68.3196 41.0633 68.244C41.179 68.1466 41.1355 67.9496 41.1536 67.7995C41.2054 67.3703 41.2712 66.6122 41.2995 66.2162C41.4414 64.2294 41.4861 62.2303 41.3133 60.244C41.2803 59.8641 41.2355 59.484 41.1918 59.1051C41.1835 59.0327 41.1569 58.8309 41.1258 58.8968C41.0112 59.1395 41.0436 59.6597 41.0321 59.8863C40.9955 60.6093 40.9704 61.3329 40.9522 62.0565C40.9251 63.138 40.8946 64.2188 40.8446 65.2995C40.837 65.4628 40.8763 65.8611 40.7995 66.0287C40.7145 66.214 40.7098 65.6303 40.6849 65.428C40.556 64.381 40.4348 63.3188 40.3828 62.2648C40.3794 62.1955 40.3096 60.894 40.1883 61.5218C40.0301 62.3408 40.2299 63.2238 40.0495 64.0356C39.9113 64.6574 40.0233 62.7618 39.987 62.1259C39.9765 61.9434 40.0112 61.5772 39.9245 61.4037C39.8739 61.3027 39.7743 61.456 39.7647 61.5009C39.6853 61.8715 39.7508 62.3114 39.7508 62.6884C39.7508 63.0977 39.7486 63.4989 39.8133 63.9037C39.9899 65.0074 39.8758 66.194 39.8758 67.3134C39.8758 68.017 39.8713 68.7519 39.7995 69.4523C39.7792 69.6503 39.7325 69.9303 39.7647 69.5287C39.8239 68.7927 39.9204 68.0633 39.9349 67.3238C39.9439 66.8634 39.9383 66.4024 39.9383 65.9419C39.9383 65.5646 39.9383 66.6965 39.9383 67.0738C39.9383 68.8123 39.9383 70.5507 39.9383 72.2891C39.9383 72.3574 39.9383 72.4257 39.9383 72.494C39.9383 72.4986 39.9383 72.4847 39.9383 72.4801C39.9383 72.0495 39.9383 71.619 39.9383 71.1884C39.9383 70.25 39.9176 69.3166 39.8793 68.3794C39.8186 66.8911 39.8758 71.3586 39.8758 72.8482C39.8758 73.7298 39.8639 74.6124 39.8758 75.494C39.887 76.3167 40.0468 75.3405 40.0633 75.0912C40.1272 74.1263 40.1815 73.1556 40.1883 72.1884C40.1885 72.1726 40.1786 71.7465 40.1918 72.1502C40.2058 72.5775 40.2326 73.0044 40.2508 73.4315C40.3081 74.7766 40.3613 76.1214 40.4245 77.4662C40.4369 77.7314 40.435 78.0018 40.4765 78.2648C40.4904 78.3525 40.5848 78.5785 40.612 78.494C40.7357 78.1086 40.7022 77.5851 40.7161 77.1954C40.7435 76.4294 40.7483 75.663 40.7647 74.8968C40.7794 74.2158 40.6933 72.1918 40.8481 72.8551C41.1267 74.0491 41.0358 75.4087 41.0911 76.6259C41.1292 77.4629 41.0089 78.5608 41.3133 79.3655C41.4075 79.6143 41.4492 79.188 41.4522 79.1676C41.5387 78.5808 41.5764 77.9838 41.6258 77.3933C41.7048 76.4502 41.6541 75.3287 41.9661 74.4211C42.036 74.2177 42.1493 75.2078 42.1536 75.2718C42.2148 76.1812 42.1883 77.0969 42.1883 78.0079C42.1883 78.0375 42.1779 78.7339 42.23 78.6155C42.6595 77.6395 42.8439 76.4535 43.0981 75.4245C43.3307 74.4827 43.5384 73.5341 43.7647 72.5912C43.954 71.8025 43.6531 74.2104 43.5495 75.0148C43.4057 76.1307 43.1969 77.2544 43.1883 78.3829C43.1807 79.3869 43.4216 77.7023 43.4314 77.6329C43.7357 75.4754 43.9778 73.2858 44.487 71.1641C44.5387 70.9486 44.6461 70.3348 44.7231 70.5426C44.8323 70.8375 44.7495 71.414 44.7404 71.6954C44.6827 73.4845 43.8587 78.7772 44.3272 77.0495C44.8806 75.009 45.6759 68.7276 45.6258 70.8412C45.5867 72.4938 45.2826 74.1345 45.0356 75.7648C45.0171 75.8865 44.7098 78.3611 44.8064 78.3412C44.9718 78.3072 45.0653 77.8473 45.0807 77.7857C45.3232 76.8157 45.4717 75.8125 45.6328 74.8273C45.9713 72.7574 46.2182 70.6703 46.6258 68.612C46.6838 68.3194 46.8133 67.4388 46.8133 67.737C46.8133 69.8546 46.6265 71.9666 46.3724 74.0669C46.1937 75.5433 46.0032 77.0185 45.8168 78.494C45.7358 79.1353 45.8221 78.5593 45.862 78.3482C46.0456 77.3742 46.2418 76.4028 46.4557 75.435C46.8384 73.7032 47.2605 71.9788 47.4835 70.2162C47.7021 68.4874 47.761 66.7331 47.862 64.994C47.8759 64.7536 47.8871 64.0312 47.8758 64.2718C47.8019 65.8495 47.6145 67.4237 47.4522 68.994C47.2724 70.7339 47.0958 72.4739 46.8758 74.2093C46.7258 75.393 46.5191 76.5771 46.4383 77.7683C46.4335 77.8398 46.3139 78.5266 46.4592 78.1502C46.9106 76.9805 47.2239 75.7349 47.5321 74.5218C48.2911 71.5337 48.5008 68.4994 48.5008 65.428C48.5008 64.7625 48.5008 64.097 48.5008 63.4315C48.5008 63.1404 48.5008 62.7713 48.5008 63.3481C48.5008 67.0097 47.768 70.6491 47.112 74.237C46.9373 75.1924 46.5832 76.2558 46.6258 77.237C46.6396 77.5524 46.8925 77.1621 46.9314 77.0843C47.4927 75.9616 47.8169 74.7005 48.1224 73.4905C49.1346 69.4807 49.8856 65.3944 49.6883 61.2509" stroke="#F5EFE7" stroke-width="2" stroke-linecap="round"/>
<path d="M46.376 78.501C46.9029 78.6631 47.0985 77.8192 47.2579 77.4593C47.8273 76.174 48.2429 74.8258 48.6538 73.4836C48.7718 73.0982 48.9108 72.7122 48.994 72.3169C49.0081 72.25 48.9956 72.651 48.994 72.6746C48.9311 73.634 48.6203 74.5962 48.3482 75.5114C48.1265 76.257 47.8601 76.9893 47.6954 77.751C47.6193 78.1029 47.6928 77.6944 47.7406 77.5669C48.1519 76.47 48.4315 75.3569 48.685 74.2163C48.7129 74.0908 48.8002 73.7236 48.81 73.8517C48.8308 74.1227 48.7911 74.4018 48.744 74.6676C48.574 75.6269 48.3704 76.5791 48.2232 77.5426C48.185 77.7927 48.0529 78.5361 48.1329 78.2961C48.2795 77.8563 48.5212 77.4529 48.6572 77.0044C48.8837 76.2581 49.0098 75.4569 49.06 74.6781C49.0834 74.3161 48.9299 75.0164 48.9107 75.0913C48.8053 75.5033 48.7284 75.9223 48.6572 76.3413C48.6092 76.6242 48.5197 76.8748 48.4419 77.1468C48.3788 77.368 48.5821 76.7067 48.685 76.501C49.0491 75.7729 49.2447 74.9504 49.501 74.1815C49.7253 73.5086 49.876 72.7556 49.876 72.0461C49.876 71.826 49.7816 72.4763 49.7232 72.6885C49.6001 73.136 49.4948 73.5897 49.4107 74.0461C49.3892 74.1629 49.2957 74.5067 49.3169 74.3899C49.3895 73.9907 49.5096 73.6015 49.5982 73.2058C49.7771 72.4067 49.9988 71.6054 50.0843 70.7892C50.1805 69.8708 50.126 68.9263 50.126 68.0044C50.126 66.662 50.1885 65.3209 50.1885 63.9801C50.1885 63.6192 50.1547 64.6584 50.1503 64.7093C50.0315 66.0689 49.8893 67.4287 49.6885 68.7788C49.5167 69.9338 49.3135 71.1669 49.3135 72.3413C49.3135 72.5453 49.2047 72.9681 49.501 72.9385C49.898 72.8988 50.2085 71.7191 50.2996 71.4107C50.4542 70.8875 50.4824 70.2765 50.501 69.7371C50.5075 69.547 50.5255 69.3727 50.5774 69.1885C50.6278 69.0091 50.4739 69.6577 50.4524 69.7371C50.3582 70.0848 50.2748 70.4466 50.2024 70.7996C50.1479 71.0652 50.3322 70.2729 50.3899 70.0079C50.7036 68.567 50.8274 67.1517 50.9246 65.6815C50.9704 64.9881 50.9385 64.2861 50.9385 63.5913C50.9385 63.481 50.9385 63.0042 50.9385 63.4107C50.9385 64.6726 50.6293 65.8756 50.5635 67.126C50.5452 67.4729 50.6232 66.4325 50.6885 66.0913C50.9309 64.8237 51.083 63.5756 51.1399 62.2857C51.1659 61.6941 51.1885 61.107 51.1885 60.5149C51.1885 60.2752 51.1889 60.5712 51.1885 60.619C51.1843 61.0557 51.1522 61.4898 51.1121 61.9246C51.0601 62.4882 51.0003 63.0512 50.9246 63.6121C50.9129 63.6987 50.867 64.5328 50.7649 64.5635C50.7093 64.5802 50.7516 64.4479 50.751 64.3899C50.7492 64.2325 50.7502 64.075 50.751 63.9176C50.7544 63.2065 50.772 62.4958 50.8135 61.7857C50.8929 60.4256 51.1646 59.0472 51.1885 57.6885C51.201 56.9737 51.2448 56.2261 51.1746 55.5149C51.1087 54.8472 50.9471 54.1562 50.9385 53.4871C50.9316 52.9503 50.9385 52.4129 50.9385 51.876C50.9385 51.2962 50.9577 51.0294 50.5635 50.5635" stroke="#F5EFE7" stroke-width="2" stroke-linecap="round"/>
<path d="M51.9385 49.9385C51.8686 50.8905 51.6974 51.8606 51.6885 52.8135C51.6843 53.2579 51.6885 54.5913 51.6885 54.1468C51.6885 53.0512 51.6236 51.9346 51.7024 50.8413C51.7159 50.6535 51.751 50.0906 51.751 50.2788C51.751 50.6919 51.7559 51.1053 51.7475 51.5183C51.7171 53.0058 51.565 54.4886 51.5044 55.9732C51.476 56.67 51.4512 57.3373 51.3482 58.0288C51.307 58.3051 51.2709 58.5935 51.2544 58.8725C51.2406 59.108 51.2404 59.1929 51.2544 58.8899C51.2827 58.2814 51.4067 57.6765 51.4663 57.0704C51.5475 56.243 51.5457 55.4112 51.626 54.5843C51.6582 54.2521 51.733 53.9244 51.751 53.5913C51.7602 53.4198 51.8124 53.5926 51.8135 53.6676C51.8304 54.8004 51.7583 55.9134 51.7024 57.0426C51.6603 57.8916 51.6767 58.7839 51.5496 59.626C51.5379 59.7031 51.483 59.9849 51.5149 59.7301C51.6039 59.0178 51.7057 58.3049 51.7475 57.5878C51.785 56.9433 51.8135 56.2959 51.8135 55.6503C51.8135 55.4376 51.821 55.4405 51.81 55.6503C51.7425 56.933 51.6473 58.239 51.501 59.5149C51.4092 60.3151 51.3804 61.1195 51.2996 61.9176C51.2539 62.3684 51.126 62.8172 51.126 63.2683C51.126 64.1418 51.2657 61.5271 51.3447 60.6572C51.3876 60.1858 51.3892 59.6969 51.4697 59.2301C51.5306 58.8769 51.501 59.3679 51.501 59.4524C51.501 60.4945 51.442 61.5233 51.3413 62.56C51.3053 62.93 51.2167 63.2933 51.1919 63.6642C51.1853 63.7641 51.1853 63.7763 51.1885 63.6538C51.198 63.2886 51.2627 62.9362 51.3274 62.5774C51.4725 61.7719 51.5909 60.9614 51.7232 60.1538C51.7557 59.9551 51.7234 59.3765 51.8135 59.5565C51.9261 59.7818 51.7698 60.3722 51.7371 60.5982C51.6513 61.1918 51.5388 61.7801 51.4663 62.376C51.3723 63.1473 51.2653 63.9219 51.1399 64.6885C51.079 65.0605 50.9311 65.4105 50.876 65.7822C50.8343 66.0637 50.6885 66.3669 50.6885 66.6503C50.6885 67.2392 50.8838 65.4886 50.9975 64.9107C51.0691 64.5466 51.1369 64.1679 51.1815 63.7996C51.2195 63.4861 51.1885 63.7724 51.1885 63.9176C51.1885 64.7248 51.0996 65.562 50.9871 66.3621C50.9673 66.5028 50.9385 66.9278 50.9385 66.7857C50.9385 66.3863 51.0312 65.983 51.0982 65.5913C51.1526 65.2731 51.1936 64.9462 51.2996 64.6399C51.3825 64.4002 51.312 65.1489 51.2788 65.4003C51.2377 65.7114 51.1527 66.0174 51.1294 66.3308C51.1063 66.6433 51.1773 66.2055 51.1919 66.1433C51.2712 65.8067 51.3135 65.4855 51.3135 65.1399C51.3135 65.1094 51.3071 65.0201 51.2996 65.0496C51.1866 65.4939 50.9849 65.8906 50.8135 66.3135" stroke="#F5EFE7" stroke-width="2" stroke-linecap="round"/>
<path d="M40.3134 76.5635C40.2377 76.4166 40.1657 76.2646 40.0322 76.1607C39.8871 76.0479 39.9384 76.7326 39.9384 76.7857C39.9384 77.1549 39.9384 77.5242 39.9384 77.8934C39.9384 78.1994 39.9371 77.779 39.9384 77.7024C39.9436 77.3906 40.0415 77.0849 40.0599 76.7718C40.0857 76.3333 40.0699 76.9512 40.0773 77.0704C40.1521 78.2768 40.1983 79.5235 40.0322 80.7232C39.9601 81.2438 39.8289 81.7739 39.8134 82.2996C39.8028 82.6595 39.7978 82.5195 39.8204 82.2371C39.9082 81.139 40.4384 80.1472 40.4384 79.0288C40.4384 77.7973 40.4384 81.4917 40.4384 82.7232C40.4384 82.8291 40.4255 84.2467 40.5079 84.2232C40.6964 84.1694 40.9113 83.4529 40.9558 83.3448C41.3031 82.5003 41.5657 81.6296 41.8343 80.7579C41.9796 80.2864 42.1165 79.8073 42.2995 79.3482C42.3005 79.3457 42.5707 78.7854 42.5981 78.8274C42.6888 78.9661 42.5486 79.5574 42.5356 79.6364C42.3748 80.6199 42.1433 81.5907 41.9002 82.5566C41.8214 82.8697 41.7328 83.1785 41.7023 83.501C41.7013 83.5112 41.6666 84.0249 41.744 83.9663C42.055 83.7309 42.2196 83.0649 42.3343 82.7441C42.6946 81.7356 42.9797 80.7032 43.3204 79.6885C43.3744 79.5275 43.5656 79.0707 43.5634 79.2406C43.5511 80.2048 43.3349 81.2054 43.1433 82.1468C43.0817 82.4495 42.7926 83.1052 42.8759 83.4385C42.9013 83.54 42.9824 83.2581 43.0287 83.1642C43.3313 82.5507 43.6302 81.9373 43.9037 81.31C44.157 80.729 44.3915 80.1396 44.6711 79.5704C44.691 79.5298 44.8311 79.1607 44.9002 79.1607C45.0549 79.1607 44.4204 81.144 44.362 81.2857C44.1055 81.9083 43.756 82.4997 43.5426 83.1399C43.0676 84.5647 45.1875 80.6229 45.9106 79.3066C45.9463 79.2417 46.4777 78.4132 46.4905 78.56C46.5482 79.2237 46.0255 80.0804 45.737 80.6399C45.3266 81.436 44.8036 82.1528 44.3551 82.9246C44.3065 83.0083 43.8381 83.779 43.9905 83.6399C44.9939 82.7238 45.8369 81.8035 46.4384 80.567C46.7207 79.9867 46.9434 79.2363 47.4349 78.7857C47.5233 78.7048 47.5802 78.6607 47.5495 78.8413C47.4774 79.2662 47.2213 79.6635 46.987 80.0149C46.6039 80.5895 46.1585 81.1178 45.7509 81.6746C45.5849 81.9014 45.2452 82.3892 45.6606 81.876C46.3298 81.0493 46.9802 80.2425 47.4245 79.2649C47.4846 79.1327 47.9151 77.8759 47.8065 78.6364C47.6966 79.4059 47.159 80.1846 46.7856 80.8413C46.7407 80.9202 46.3135 81.6509 46.5565 81.3204C46.8456 80.9273 47.1508 80.5103 47.3898 80.0843C47.6296 79.6569 47.7102 78.9736 48.0773 78.6399C48.1992 78.5291 48.1608 78.7625 48.1468 78.7996C48.0014 79.1828 47.7538 79.5443 47.5252 79.8829C46.8925 80.8203 46.3035 81.7922 45.612 82.6885C45.3762 82.9942 45.1274 83.2927 44.8898 83.5982C44.6485 83.9085 44.2738 84.0821 44.0322 84.3795C43.6554 84.8432 43.1618 85.3335 42.6884 85.6885" stroke="#F5EFE7" stroke-width="2" stroke-linecap="round"/>
<path d="M41.251 86.6885C42.1181 86.6735 43.0437 85.9996 43.685 85.4385C43.9925 85.1694 44.3143 84.8752 44.6017 84.5878C44.845 84.3445 45.0212 84.0467 45.31 83.8482C45.5907 83.6552 45.8458 83.2559 46.0635 82.9871C46.2508 82.7557 46.4227 82.5002 46.626 82.2857C47.0983 81.7871 47.3908 80.961 47.5635 80.3135" stroke="#F5EFE7" stroke-width="2" stroke-linecap="round"/>
<path d="M40.6259 85.3135C40.6259 84.6681 40.6139 84.0366 40.685 83.3968C40.7352 82.9445 40.528 84.2939 40.4246 84.7371C40.3566 85.0285 40.1954 85.9044 40.1954 85.6051C40.1954 84.9301 40.493 84.2617 40.5009 83.5704C40.5027 83.4217 40.5009 82.674 40.5009 83.2058C40.5009 83.4258 40.497 83.6435 40.4697 83.8621C40.4522 84.0024 40.4782 84.3892 40.3898 84.2787C40.2823 84.1443 40.4419 82.2214 40.2509 83.3551C40.2153 83.5668 40.0577 84.251 40.1919 84.4523C40.3195 84.6437 40.2509 83.9949 40.2509 83.7648C40.2509 83.7221 40.2395 83.4444 40.2544 83.6155C40.2972 84.1075 40.3249 84.5987 40.3621 85.0912C40.3824 85.3601 40.4626 85.8318 40.3447 86.0912C40.2969 86.1964 40.3538 85.5225 40.3621 85.4246C40.3684 85.3488 40.4384 84.7064 40.4384 84.8621C40.4384 85.2492 40.4373 85.6192 40.5009 86.001" stroke="#F5EFE7" stroke-width="2" stroke-linecap="round"/>
<path d="M40.126 87.6885C40.156 87.317 40.251 86.2047 40.251 86.5774C40.251 86.8704 40.2088 87.2746 40.0322 87.5218C39.9987 87.5687 40.0874 87.3629 40.0982 87.3413C40.2101 87.1174 40.1076 87.4222 40.0774 87.494C40.0019 87.6732 39.9385 87.7676 39.9385 87.9628C39.9385 87.9731 39.9872 87.8819 40.001 87.8621C40.0837 87.7425 40.2081 87.6746 40.2996 87.5635C40.4443 87.3877 40.5375 87.376 40.751 87.376C40.897 87.376 40.938 87.4931 41.0635 87.5496C41.3667 87.6861 41.6806 87.3866 41.9142 87.251C42.4145 86.9604 43.0826 86.8956 43.4385 86.3899C43.5832 86.1842 43.8541 85.8993 43.8725 85.6503C43.8996 85.2846 43.9675 84.5958 43.5496 84.4176C43.1039 84.2277 42.411 85.1662 42.1399 85.3899C42.1043 85.4192 41.7994 85.7049 41.7649 85.5565C41.697 85.2646 41.852 84.9158 41.9246 84.6399C42.1323 83.8507 41.797 84.7193 41.7197 84.994C41.6763 85.1484 41.6081 85.2519 41.7163 85.0357C42.0482 84.3719 42.4054 83.7202 42.751 83.0635" stroke="#F5EFE7" stroke-width="2" stroke-linecap="round"/>
<path d="M40.0633 15.5635C40.0633 15.3378 40.1471 15.1406 40.237 14.9385C40.4185 14.5299 39.8677 14.6844 40.1258 14.8135" stroke="#F5EFE7" stroke-linecap="round"/>
<path d="M40.126 15.126C40.0362 15.2662 40.001 15.5383 40.001 15.2649C40.001 14.9887 40.001 15.4578 40.001 15.2787C40.001 15.1411 40.0286 15.076 40.06 14.9662C40.1092 14.7941 40.0486 14.8886 40.1885 15.0635" stroke="#F5EFE7" stroke-linecap="round"/>
<path d="M36.9999 86C36.9999 86 25.5176 77.028 25.9999 55C27.4465 23.1818 39.9999 16 39.9999 16" stroke="#2D4941" stroke-width="3" stroke-linecap="round" stroke-linejoin="round"/>
</svg>
