<svg width="78" height="78" viewBox="0 0 78 78" fill="none" xmlns="http://www.w3.org/2000/svg">
<rect x="0.25" y="0.25" width="77.5" height="77.5" rx="9.75" stroke="#2D4941" stroke-width="0.5"/>
<mask id="path-2-inside-1_67_4425" fill="white">
<path d="M55.1 48.0667V35.6222C55.1 35.5833 55.1 35.5444 55.0611 35.5056C55.0611 35.4667 55.0611 35.4667 55.0611 35.4667L54.9833 35.35L49.0333 30.2944C48.6833 29.9833 48.2167 29.75 47.7111 29.7111V15.4C47.7111 14.6611 47.0889 14 46.3111 14H32.5444C31.8056 14 31.1444 14.6222 31.1444 15.4V22.3222H24.2611C23.5222 22.3222 22.8611 22.9444 22.8611 23.7222V48.1444H21.5V49H56.5V48.0667H55.1ZM28.4222 40.25C28.4222 39.9778 28.6167 39.7833 28.8889 39.7833H33.4778C33.75 39.7833 33.9444 39.9778 33.9444 40.25V48.0667H28.4222V40.25ZM34.8389 40.25C34.8389 39.5111 34.2167 38.85 33.4389 38.85H28.85C28.1111 38.85 27.45 39.4722 27.45 40.25V48.0667H23.7556V23.6833C23.7556 23.4111 23.95 23.2167 24.2222 23.2167H38.0278C38.3 23.2167 38.4944 23.4111 38.4944 23.6833V48.1056H34.8V40.25H34.8389ZM39.4667 41.65H44.0556V48.1056H39.4667V41.65ZM44.5222 40.7167H39.4667V32.7056L41.4889 30.9944C41.6444 30.8389 41.9167 30.8389 42.0722 30.9944L43.0056 31.8111L47.75 35.8556V48.0667H44.9889V41.1833C44.9889 40.9111 44.7944 40.7167 44.5222 40.7167ZM48.6833 36.0889H54.2056V48.0667H48.6833V36.0889ZM28.85 31.5H27.0222C26.2833 31.5 25.6222 32.1222 25.6222 32.9V34.7278C25.6222 35.4667 26.2444 36.1278 27.0222 36.1278H28.85C29.5889 36.1278 30.25 35.5056 30.25 34.7278V32.9C30.25 32.1222 29.6278 31.5 28.85 31.5ZM35.3056 36.0889C36.0444 36.0889 36.7056 35.4667 36.7056 34.6889V32.8611C36.7056 32.1222 36.0833 31.4611 35.3056 31.4611H33.4778C32.7389 31.4611 32.0778 32.0833 32.0778 32.8611V34.6889C32.0778 35.4278 32.7 36.0889 33.4778 36.0889H35.3056ZM29.3167 34.7278C29.3167 35 29.1222 35.1944 28.85 35.1944H27.0222C26.75 35.1944 26.5556 35 26.5556 34.7278V32.9C26.5556 32.6278 26.75 32.4333 27.0222 32.4333H28.85C29.1222 32.4333 29.3167 32.6278 29.3167 32.9V34.7278ZM33.0111 34.7278V32.9C33.0111 32.6278 33.2056 32.4333 33.4778 32.4333H35.3056C35.5778 32.4333 35.7722 32.6278 35.7722 32.9V34.7278C35.7722 35 35.5778 35.1944 35.3056 35.1944H33.4778C33.2056 35.1944 33.0111 34.9611 33.0111 34.7278ZM48.3722 35.1944L43.0056 30.5667H47.5167C47.8667 30.5667 48.1778 30.6833 48.45 30.9167L53.4278 35.1944H48.3722ZM32.5444 14.9333H46.35C46.6222 14.9333 46.8167 15.1278 46.8167 15.4V29.6722H41.7611C41.5667 29.6722 41.4111 29.7889 41.3333 29.9833V30.0611C41.1778 30.1 41.0222 30.2167 40.8667 30.3333L39.4667 31.5V23.6833C39.4667 22.9444 38.8444 22.2833 38.0667 22.2833H32.0778V15.4C32.0778 15.1278 32.3111 14.9333 32.5444 14.9333ZM28.85 25.0444H27.0222C26.2833 25.0444 25.6222 25.6667 25.6222 26.4444V28.2722C25.6222 29.0111 26.2444 29.6722 27.0222 29.6722H28.85C29.5889 29.6722 30.25 29.05 30.25 28.2722V26.4444C30.25 25.6667 29.6278 25.0444 28.85 25.0444ZM33.4778 29.6722H35.3056C36.0444 29.6722 36.7056 29.05 36.7056 28.2722V26.4444C36.7056 25.7056 36.0833 25.0444 35.3056 25.0444H33.4778C32.7389 25.0444 32.0778 25.6667 32.0778 26.4444V28.2722C32.0778 29.05 32.7 29.6722 33.4778 29.6722ZM29.3167 28.2722C29.3167 28.5444 29.1222 28.7389 28.85 28.7389H27.0222C26.75 28.7389 26.5556 28.5444 26.5556 28.2722V26.4444C26.5556 26.1722 26.75 25.9778 27.0222 25.9778H28.85C29.1222 25.9778 29.3167 26.1722 29.3167 26.4444V28.2722ZM33.0111 26.4444C33.0111 26.1722 33.2056 25.9778 33.4778 25.9778H35.3056C35.5778 25.9778 35.7722 26.1722 35.7722 26.4444V28.2722C35.7722 28.5444 35.5778 28.7389 35.3056 28.7389H33.4778C33.2056 28.7389 33.0111 28.5444 33.0111 28.2722V26.4444ZM41.7611 27.8056H43.5889C44.3278 27.8056 44.9889 27.1833 44.9889 26.4056V24.5778C44.9889 23.8389 44.3667 23.1778 43.5889 23.1778H41.7611C41.0222 23.1778 40.3611 23.8 40.3611 24.5778V26.4444C40.4 27.1833 41.0222 27.8056 41.7611 27.8056ZM41.2944 24.5778C41.2944 24.3056 41.4889 24.1111 41.7611 24.1111H43.5889C43.8611 24.1111 44.0556 24.3056 44.0556 24.5778V26.4444C44.0556 26.7167 43.8611 26.9111 43.5889 26.9111H41.7611C41.4889 26.9111 41.2944 26.7167 41.2944 26.4444V24.5778ZM35.3056 21.35H37.1333C37.8722 21.35 38.5333 20.7278 38.5333 19.95V18.1222C38.5333 17.3833 37.9111 16.7222 37.1333 16.7222H35.3056C34.5667 16.7222 33.9056 17.3444 33.9056 18.1222V19.95C33.9444 20.7278 34.5667 21.35 35.3056 21.35ZM41.7611 21.35H43.5889C44.3278 21.35 44.9889 20.7278 44.9889 19.95V18.1222C44.9889 17.3833 44.3667 16.7222 43.5889 16.7222H41.7611C41.0222 16.7222 40.3611 17.3444 40.3611 18.1222V19.95C40.4 20.7278 41.0222 21.35 41.7611 21.35ZM34.8389 18.1611C34.8389 17.8889 35.0333 17.6944 35.3056 17.6944H37.1333C37.4056 17.6944 37.6 17.8889 37.6 18.1611V19.9889C37.6 20.2611 37.4056 20.4556 37.1333 20.4556H35.3056C35.0333 20.4556 34.8389 20.2611 34.8389 19.9889V18.1611ZM41.2944 18.1611C41.2944 17.8889 41.4889 17.6944 41.7611 17.6944H43.5889C43.8611 17.6944 44.0556 17.8889 44.0556 18.1611V19.9889C44.0556 20.2611 43.8611 20.4556 43.5889 20.4556H41.7611C41.4889 20.4556 41.2944 20.2611 41.2944 19.9889V18.1611Z"/>
</mask>
<path d="M55.1 48.0667V35.6222C55.1 35.5833 55.1 35.5444 55.0611 35.5056C55.0611 35.4667 55.0611 35.4667 55.0611 35.4667L54.9833 35.35L49.0333 30.2944C48.6833 29.9833 48.2167 29.75 47.7111 29.7111V15.4C47.7111 14.6611 47.0889 14 46.3111 14H32.5444C31.8056 14 31.1444 14.6222 31.1444 15.4V22.3222H24.2611C23.5222 22.3222 22.8611 22.9444 22.8611 23.7222V48.1444H21.5V49H56.5V48.0667H55.1ZM28.4222 40.25C28.4222 39.9778 28.6167 39.7833 28.8889 39.7833H33.4778C33.75 39.7833 33.9444 39.9778 33.9444 40.25V48.0667H28.4222V40.25ZM34.8389 40.25C34.8389 39.5111 34.2167 38.85 33.4389 38.85H28.85C28.1111 38.85 27.45 39.4722 27.45 40.25V48.0667H23.7556V23.6833C23.7556 23.4111 23.95 23.2167 24.2222 23.2167H38.0278C38.3 23.2167 38.4944 23.4111 38.4944 23.6833V48.1056H34.8V40.25H34.8389ZM39.4667 41.65H44.0556V48.1056H39.4667V41.65ZM44.5222 40.7167H39.4667V32.7056L41.4889 30.9944C41.6444 30.8389 41.9167 30.8389 42.0722 30.9944L43.0056 31.8111L47.75 35.8556V48.0667H44.9889V41.1833C44.9889 40.9111 44.7944 40.7167 44.5222 40.7167ZM48.6833 36.0889H54.2056V48.0667H48.6833V36.0889ZM28.85 31.5H27.0222C26.2833 31.5 25.6222 32.1222 25.6222 32.9V34.7278C25.6222 35.4667 26.2444 36.1278 27.0222 36.1278H28.85C29.5889 36.1278 30.25 35.5056 30.25 34.7278V32.9C30.25 32.1222 29.6278 31.5 28.85 31.5ZM35.3056 36.0889C36.0444 36.0889 36.7056 35.4667 36.7056 34.6889V32.8611C36.7056 32.1222 36.0833 31.4611 35.3056 31.4611H33.4778C32.7389 31.4611 32.0778 32.0833 32.0778 32.8611V34.6889C32.0778 35.4278 32.7 36.0889 33.4778 36.0889H35.3056ZM29.3167 34.7278C29.3167 35 29.1222 35.1944 28.85 35.1944H27.0222C26.75 35.1944 26.5556 35 26.5556 34.7278V32.9C26.5556 32.6278 26.75 32.4333 27.0222 32.4333H28.85C29.1222 32.4333 29.3167 32.6278 29.3167 32.9V34.7278ZM33.0111 34.7278V32.9C33.0111 32.6278 33.2056 32.4333 33.4778 32.4333H35.3056C35.5778 32.4333 35.7722 32.6278 35.7722 32.9V34.7278C35.7722 35 35.5778 35.1944 35.3056 35.1944H33.4778C33.2056 35.1944 33.0111 34.9611 33.0111 34.7278ZM48.3722 35.1944L43.0056 30.5667H47.5167C47.8667 30.5667 48.1778 30.6833 48.45 30.9167L53.4278 35.1944H48.3722ZM32.5444 14.9333H46.35C46.6222 14.9333 46.8167 15.1278 46.8167 15.4V29.6722H41.7611C41.5667 29.6722 41.4111 29.7889 41.3333 29.9833V30.0611C41.1778 30.1 41.0222 30.2167 40.8667 30.3333L39.4667 31.5V23.6833C39.4667 22.9444 38.8444 22.2833 38.0667 22.2833H32.0778V15.4C32.0778 15.1278 32.3111 14.9333 32.5444 14.9333ZM28.85 25.0444H27.0222C26.2833 25.0444 25.6222 25.6667 25.6222 26.4444V28.2722C25.6222 29.0111 26.2444 29.6722 27.0222 29.6722H28.85C29.5889 29.6722 30.25 29.05 30.25 28.2722V26.4444C30.25 25.6667 29.6278 25.0444 28.85 25.0444ZM33.4778 29.6722H35.3056C36.0444 29.6722 36.7056 29.05 36.7056 28.2722V26.4444C36.7056 25.7056 36.0833 25.0444 35.3056 25.0444H33.4778C32.7389 25.0444 32.0778 25.6667 32.0778 26.4444V28.2722C32.0778 29.05 32.7 29.6722 33.4778 29.6722ZM29.3167 28.2722C29.3167 28.5444 29.1222 28.7389 28.85 28.7389H27.0222C26.75 28.7389 26.5556 28.5444 26.5556 28.2722V26.4444C26.5556 26.1722 26.75 25.9778 27.0222 25.9778H28.85C29.1222 25.9778 29.3167 26.1722 29.3167 26.4444V28.2722ZM33.0111 26.4444C33.0111 26.1722 33.2056 25.9778 33.4778 25.9778H35.3056C35.5778 25.9778 35.7722 26.1722 35.7722 26.4444V28.2722C35.7722 28.5444 35.5778 28.7389 35.3056 28.7389H33.4778C33.2056 28.7389 33.0111 28.5444 33.0111 28.2722V26.4444ZM41.7611 27.8056H43.5889C44.3278 27.8056 44.9889 27.1833 44.9889 26.4056V24.5778C44.9889 23.8389 44.3667 23.1778 43.5889 23.1778H41.7611C41.0222 23.1778 40.3611 23.8 40.3611 24.5778V26.4444C40.4 27.1833 41.0222 27.8056 41.7611 27.8056ZM41.2944 24.5778C41.2944 24.3056 41.4889 24.1111 41.7611 24.1111H43.5889C43.8611 24.1111 44.0556 24.3056 44.0556 24.5778V26.4444C44.0556 26.7167 43.8611 26.9111 43.5889 26.9111H41.7611C41.4889 26.9111 41.2944 26.7167 41.2944 26.4444V24.5778ZM35.3056 21.35H37.1333C37.8722 21.35 38.5333 20.7278 38.5333 19.95V18.1222C38.5333 17.3833 37.9111 16.7222 37.1333 16.7222H35.3056C34.5667 16.7222 33.9056 17.3444 33.9056 18.1222V19.95C33.9444 20.7278 34.5667 21.35 35.3056 21.35ZM41.7611 21.35H43.5889C44.3278 21.35 44.9889 20.7278 44.9889 19.95V18.1222C44.9889 17.3833 44.3667 16.7222 43.5889 16.7222H41.7611C41.0222 16.7222 40.3611 17.3444 40.3611 18.1222V19.95C40.4 20.7278 41.0222 21.35 41.7611 21.35ZM34.8389 18.1611C34.8389 17.8889 35.0333 17.6944 35.3056 17.6944H37.1333C37.4056 17.6944 37.6 17.8889 37.6 18.1611V19.9889C37.6 20.2611 37.4056 20.4556 37.1333 20.4556H35.3056C35.0333 20.4556 34.8389 20.2611 34.8389 19.9889V18.1611ZM41.2944 18.1611C41.2944 17.8889 41.4889 17.6944 41.7611 17.6944H43.5889C43.8611 17.6944 44.0556 17.8889 44.0556 18.1611V19.9889C44.0556 20.2611 43.8611 20.4556 43.5889 20.4556H41.7611C41.4889 20.4556 41.2944 20.2611 41.2944 19.9889V18.1611Z" fill="#2D4941" stroke="#2D4941" stroke-width="0.2" mask="url(#path-2-inside-1_67_4425)"/>
<path d="M34.995 56.333L32.102 64H30.947L28.054 56.333H29.121L31.53 62.944L33.939 56.333H34.995ZM36.6096 56.993C36.4189 56.993 36.2576 56.927 36.1256 56.795C35.9936 56.663 35.9276 56.5017 35.9276 56.311C35.9276 56.1203 35.9936 55.959 36.1256 55.827C36.2576 55.695 36.4189 55.629 36.6096 55.629C36.7929 55.629 36.9469 55.695 37.0716 55.827C37.2036 55.959 37.2696 56.1203 37.2696 56.311C37.2696 56.5017 37.2036 56.663 37.0716 56.795C36.9469 56.927 36.7929 56.993 36.6096 56.993ZM37.0936 57.972V64H36.0926V57.972H37.0936ZM39.8006 55.86V64H38.7996V55.86H39.8006ZM42.5077 55.86V64H41.5067V55.86H42.5077ZM49.7137 60.755C49.7137 60.9457 49.7027 61.1473 49.6807 61.36H44.8627C44.8994 61.954 45.101 62.4197 45.4677 62.757C45.8417 63.087 46.2927 63.252 46.8207 63.252C47.2534 63.252 47.6127 63.153 47.8987 62.955C48.192 62.7497 48.3974 62.4783 48.5147 62.141H49.5927C49.4314 62.7203 49.1087 63.1933 48.6247 63.56C48.1407 63.9193 47.5394 64.099 46.8207 64.099C46.2487 64.099 45.7354 63.9707 45.2807 63.714C44.8334 63.4573 44.4814 63.0943 44.2247 62.625C43.968 62.1483 43.8397 61.5983 43.8397 60.975C43.8397 60.3517 43.9644 59.8053 44.2137 59.336C44.463 58.8667 44.8114 58.5073 45.2587 58.258C45.7134 58.0013 46.234 57.873 46.8207 57.873C47.3927 57.873 47.8987 57.9977 48.3387 58.247C48.7787 58.4963 49.116 58.841 49.3507 59.281C49.5927 59.7137 49.7137 60.205 49.7137 60.755ZM48.6797 60.546C48.6797 60.1647 48.5954 59.8383 48.4267 59.567C48.258 59.2883 48.027 59.0793 47.7337 58.94C47.4477 58.7933 47.1287 58.72 46.7767 58.72C46.2707 58.72 45.838 58.8813 45.4787 59.204C45.1267 59.5267 44.925 59.974 44.8737 60.546H48.6797Z" fill="#2D4941"/>
</svg>
