<svg width="77" height="128" viewBox="0 0 77 128" fill="none" xmlns="http://www.w3.org/2000/svg">
<rect width="77" height="128" rx="10" fill="#F5EFE7"/>
<rect x="0.25" y="0.25" width="76.5" height="127.5" rx="9.75" stroke="#2D4941" stroke-width="0.5"/>
<g clip-path="url(#clip0_58_3521)">
<path d="M23.9316 61.381C23.7218 61.2071 23.4214 61.5045 23.6311 61.6784M23.9316 61.381C24.9474 62.2149 25.7253 63.2626 26.3755 64.3887C26.3046 64.2456 26.2312 64.091 26.1561 63.9249M23.9316 61.381L23.9633 61.3424C23.9633 61.3424 23.9634 61.3425 23.9634 61.3425C24.8516 62.0716 25.5582 62.9625 26.1561 63.9249M23.9316 61.381L42.5878 15.6411M23.6311 61.6784L42.5982 15.69C38.9136 16.3856 32.8539 23.3192 26.9189 40.7037C22.4601 53.7495 24.9756 61.448 26.4194 64.3647C26.3339 64.2167 26.2463 64.07 26.1561 63.9249M23.6311 61.6784C24.8356 62.6646 25.6893 63.9583 26.4043 65.3217L23.6311 61.6784ZM26.1561 63.9249C24.6969 60.6955 22.6254 53.1113 26.8716 40.6875C29.84 31.9927 32.8404 25.9087 35.5611 21.9104C36.9215 19.9112 38.2126 18.4324 39.3958 17.4093C40.578 16.387 41.6551 15.8175 42.5878 15.6411M42.5878 15.6411C45.0842 15.046 47.1435 14.8331 48.7858 15.0078C50.4159 15.1812 51.6385 15.737 52.4679 16.6831L52.4907 16.6775L52.5108 16.7007C53.845 18.2482 53.9395 20.6845 53.3914 23.4768C52.8426 26.272 51.6464 29.441 50.3766 32.4704M42.5878 15.6411L50.3766 32.4704M25.8872 66.009L25.9104 65.9648C25.9105 65.9648 25.9107 65.9649 25.9108 65.9649C26.1133 66.0711 26.3075 66.1962 26.4914 66.3364C25.7198 65.153 24.7072 64.1395 23.5132 63.3639L23.5126 63.3636C23.3719 63.2696 23.3711 63.1088 23.435 63.0007C23.4671 62.9464 23.5173 62.901 23.5796 62.8814C23.6434 62.8614 23.7149 62.87 23.7833 62.9156C24.7126 63.5175 25.538 64.2593 26.2346 65.1092L24.7762 65.5378M25.8872 66.009C25.5301 65.8183 25.156 65.6725 24.7762 65.5378M25.8872 66.009C26.1292 66.1358 26.3592 66.2901 26.574 66.4653L25.8872 66.009ZM24.7762 65.5378L24.793 65.4908C24.793 65.4907 24.7929 65.4907 24.7929 65.4907C24.7737 65.4838 24.7544 65.4769 24.7351 65.47C24.3641 65.3366 23.9852 65.2005 23.5797 65.1571L23.5796 65.1571C23.4976 65.1487 23.4308 65.1742 23.3851 65.2225C23.3406 65.2694 23.3204 65.3335 23.3204 65.3962C23.3204 65.521 23.4022 65.6601 23.5693 65.6773L23.5744 65.6276M24.7762 65.5378C24.7574 65.5311 24.7386 65.5243 24.7198 65.5176C24.3474 65.3838 23.9738 65.2496 23.5744 65.2069C23.3023 65.1788 23.3023 65.5995 23.5744 65.6276M23.5744 65.6276C23.856 65.659 24.1303 65.7553 24.4002 65.85C24.4672 65.8736 24.5339 65.897 24.6004 65.9193M23.5744 65.6276L23.5689 65.6773C23.8442 65.708 24.1116 65.8019 24.381 65.8964C24.4486 65.9201 24.5163 65.9438 24.5842 65.9666M24.6004 65.9193L24.5836 65.9664C24.5838 65.9664 24.584 65.9665 24.5842 65.9666M24.6004 65.9193C24.9462 66.0427 25.292 66.1717 25.6151 66.34L44.5763 45.6169L44.4885 45.8011C42.9905 48.9414 41.5742 51.9105 40.452 54.9061M24.6004 65.9193L24.5845 65.9667C24.5844 65.9667 24.5843 65.9666 24.5842 65.9666M24.5842 65.9666C24.9297 66.0899 25.2724 66.2179 25.592 66.3844L25.5926 66.3847C25.8786 66.5289 26.1469 66.7006 26.3869 66.9103C26.4998 67.0109 26.6263 67.1294 26.7328 67.2594C26.8397 67.3899 26.9236 67.5287 26.9551 67.6693C26.9673 67.7235 26.995 67.762 27.0265 67.792C26.6822 74.9824 26.8849 81.6396 27.2963 86.5503C27.5023 89.0083 27.7605 91.0297 28.0289 92.4617C28.163 93.1775 28.2999 93.7475 28.4346 94.1516C28.5018 94.3536 28.5691 94.5158 28.636 94.6347C28.7015 94.7509 28.7719 94.8355 28.8503 94.8669L28.8506 94.867C29.1839 94.9978 29.4736 95.0556 29.7362 95.0556C30.3326 95.0556 30.7809 94.7595 31.2466 94.3942L31.2472 94.3937L31.3095 94.3433L31.3232 94.3322L31.3269 94.315L31.3439 94.2364L31.3442 94.2351C31.3939 93.9717 31.3759 93.5129 31.3129 92.8565C31.2507 92.2072 31.1436 91.3575 31.0103 90.2992L31.0045 90.2536C30.4563 85.8853 29.5477 78.5911 29.6605 69.3704C29.6805 69.3773 29.7018 69.3824 29.7244 69.3852L29.7244 69.3853L29.7273 69.3855C30.401 69.4296 31.0419 69.7217 31.5269 70.1852C31.5866 70.2424 31.6564 70.2648 31.7238 70.2597C31.79 70.2547 31.8507 70.2234 31.8957 70.1789C31.9405 70.1345 31.9722 70.0744 31.9765 70.0087C31.9808 69.9416 31.9563 69.873 31.8966 69.8157L31.8964 69.8155C31.5091 69.4473 31.0405 69.173 30.5345 69.0162C30.8408 68.9436 31.1976 68.8306 31.5989 68.6624C31.734 68.668 31.8704 68.6659 32.005 68.6638C32.0548 68.6631 32.1044 68.6623 32.1535 68.6619C32.3405 68.6605 32.5239 68.6648 32.7035 68.6949C32.9772 68.7446 33.2542 68.8533 33.4013 69.0821C33.493 69.2251 33.6541 69.2274 33.7633 69.1643C33.818 69.1326 33.8641 69.0826 33.8847 69.0203C33.9058 68.9566 33.8986 68.8845 33.854 68.815M33.854 68.815C33.854 68.815 33.854 68.815 33.8541 68.8151L33.8119 68.8419L33.854 68.815ZM33.854 68.815C33.6406 68.4807 33.2755 68.2844 32.8983 68.204L32.8983 68.204C32.791 68.1813 32.6816 68.1686 32.5739 68.161M32.5739 68.161C32.6333 68.1246 32.6933 68.0867 32.7548 68.0472M32.5739 68.161C32.5444 68.1589 32.5151 68.1572 32.4859 68.1557C32.5673 68.1072 32.6495 68.0554 32.7349 68.0005M32.5739 68.161C32.5487 68.1764 32.5236 68.1916 32.4985 68.2064C32.628 68.2132 32.7598 68.2258 32.8879 68.2529L33.5629 67.3965C33.5911 67.395 33.6193 67.3937 33.6476 67.3925M32.7548 68.0472C33.3297 67.9101 33.9215 67.8829 34.5082 67.9547M32.7548 68.0472C32.752 68.0478 32.7493 68.0485 32.7465 68.0491L32.7349 68.0005M32.7548 68.0472C32.7571 68.0456 32.7595 68.0441 32.7619 68.0425L32.7349 68.0005M34.5082 67.9547C34.5855 67.9659 34.6544 67.9289 34.7014 67.8791C34.7484 67.8293 34.7802 67.76 34.7802 67.692C34.7802 67.6159 34.75 67.5536 34.701 67.5086C34.6529 67.4645 34.5889 67.4388 34.5218 67.4293L34.5213 67.4292C34.2298 67.3907 33.9385 67.3809 33.6476 67.3925M34.5082 67.9547C34.5079 67.9547 34.5077 67.9546 34.5075 67.9546L34.5148 67.9051M34.5082 67.9547C34.5084 67.9547 34.5085 67.9547 34.5087 67.9548L34.5148 67.9051M33.6476 67.3925C35.8338 65.6217 38.4527 62.0588 40.452 54.9061M33.6476 67.3925C33.6255 67.4104 33.6035 67.4281 33.5815 67.4456C33.8926 67.4296 34.2037 67.4377 34.5148 67.4788C34.6338 67.4956 34.7302 67.5685 34.7302 67.692C34.7302 67.7985 34.6282 67.922 34.5148 67.9051M40.452 54.9061C40.4518 54.9068 40.4515 54.9075 40.4513 54.9081L40.4045 54.8906L40.4526 54.9041C40.4524 54.9048 40.4522 54.9054 40.452 54.9061ZM34.5148 67.9051C33.9196 67.8322 33.3187 67.8603 32.7349 68.0005M50.3766 32.4704C48.3862 37.6555 46.3619 41.8866 44.5763 45.6169L50.3766 32.4704ZM27.0877 65.6269C27.0179 65.4845 26.9468 65.3425 26.8741 65.2011C27.025 65.4522 27.1361 65.6106 27.1853 65.6781M27.0877 65.6269C27.0278 65.5404 26.9393 65.4067 26.8303 65.2253C26.9316 65.4225 27.03 65.6209 27.1261 65.8201C27.1294 65.7867 27.1326 65.7549 27.1342 65.7221M27.0877 65.6269C27.1064 65.6539 27.1223 65.6763 27.1352 65.6941M27.0877 65.6269C27.1033 65.6586 27.1188 65.6904 27.1342 65.7221M27.1342 65.7221C27.1486 65.7517 27.1629 65.7814 27.1772 65.8111C27.1815 65.7672 27.1853 65.7236 27.1853 65.6781M27.1342 65.7221C27.1346 65.7129 27.135 65.7035 27.1352 65.6941M27.1853 65.6781L27.1449 65.7076C27.1419 65.7034 27.1386 65.6989 27.1352 65.6941M27.1853 65.6781H27.1353C27.1353 65.6835 27.1353 65.6888 27.1352 65.6941M29.6107 69.3485C29.611 69.3293 29.6112 69.31 29.6115 69.2907C29.6269 69.3009 29.6434 69.3099 29.6611 69.3172L29.6107 69.3485ZM30.4745 90.3221L30.4752 90.322L30.4998 90.5199C30.6055 91.3686 30.6975 92.1077 30.7585 92.7016C30.8227 93.3268 30.8519 93.7858 30.828 94.0421C30.5191 94.2757 30.2698 94.4322 30.0049 94.4971C29.7401 94.5619 29.4539 94.5364 29.0697 94.3916C29.0502 94.3651 29.0271 94.3218 29.0013 94.2589C28.9724 94.1888 28.9414 94.0979 28.9086 93.9865C28.8432 93.7639 28.7717 93.4623 28.6965 93.087C28.546 92.3365 28.3812 91.2938 28.2204 90.0033C27.8987 87.4223 27.5931 83.8519 27.4493 79.6473C27.1617 71.2383 27.5216 60.2955 29.6943 49.662C31.1587 43.536 33.0378 38.311 34.9987 33.9435C32.6747 39.8976 31.5433 45.5495 30.8149 50.4343C27.7527 68.5553 29.5901 83.2585 30.4745 90.3221ZM49.8702 32.281L49.8697 32.2824C47.8865 37.4525 45.8692 41.675 44.0837 45.3998L44.0836 45.3999L44.0305 45.5111C42.514 48.684 41.0764 51.692 39.9325 54.7497L39.9323 54.7496L39.9312 54.7537C37.8471 62.2019 35.0856 65.5741 33.1406 67.0916C31.5245 68.3516 30.1893 68.5756 29.6681 68.6095C29.7665 63.1559 30.2317 57.0568 31.3387 50.5065L31.3388 50.5056C32.7553 41.0126 35.7009 28.6036 46.0427 16.7494L46.0748 16.7127L46.0388 16.6797L45.7271 16.3936L45.692 16.3614L45.6581 16.3949C44.5082 17.5328 34.3215 28.0814 29.1887 49.5441L29.1884 49.5458C28.167 54.5439 27.54 59.7613 27.1918 64.8065C25.9621 62.6743 22.5478 54.9586 27.3687 40.8489C30.3098 32.2406 33.2954 26.223 35.9712 22.2779C37.3091 20.3053 38.569 18.8519 39.7062 17.852C40.844 16.8515 41.856 16.3076 42.6982 16.1486L42.6982 16.1487L42.7005 16.1481C45.0785 15.5822 47.0579 15.3773 48.6276 15.5294C50.1971 15.6815 51.3522 16.19 52.0892 17.0465L52.0893 17.0466C53.3169 18.469 53.3915 20.7835 52.8391 23.5007C52.2875 26.2141 51.1144 29.311 49.8702 32.281Z" fill="#2D4941" stroke="#2D4941" stroke-width="0.1"/>
</g>
<path d="M22.4797 105L20.6537 101.865H19.4437V105H18.4427V97.333H20.9177C21.497 97.333 21.9847 97.432 22.3807 97.63C22.784 97.828 23.0847 98.0957 23.2827 98.433C23.4807 98.7703 23.5797 99.1553 23.5797 99.588C23.5797 100.116 23.4257 100.582 23.1177 100.985C22.817 101.388 22.3624 101.656 21.7537 101.788L23.6787 105H22.4797ZM19.4437 101.062H20.9177C21.4604 101.062 21.8674 100.93 22.1387 100.666C22.41 100.395 22.5457 100.035 22.5457 99.588C22.5457 99.1333 22.41 98.7813 22.1387 98.532C21.8747 98.2827 21.4677 98.158 20.9177 98.158H19.4437V101.062ZM30.6351 101.755C30.6351 101.946 30.6241 102.147 30.6021 102.36H25.7841C25.8208 102.954 26.0224 103.42 26.3891 103.757C26.7631 104.087 27.2141 104.252 27.7421 104.252C28.1748 104.252 28.5341 104.153 28.8201 103.955C29.1134 103.75 29.3188 103.478 29.4361 103.141H30.5141C30.3528 103.72 30.0301 104.193 29.5461 104.56C29.0621 104.919 28.4608 105.099 27.7421 105.099C27.1701 105.099 26.6568 104.971 26.2021 104.714C25.7548 104.457 25.4028 104.094 25.1461 103.625C24.8894 103.148 24.7611 102.598 24.7611 101.975C24.7611 101.352 24.8858 100.805 25.1351 100.336C25.3844 99.8667 25.7328 99.5073 26.1801 99.258C26.6348 99.0013 27.1554 98.873 27.7421 98.873C28.3141 98.873 28.8201 98.9977 29.2601 99.247C29.7001 99.4963 30.0374 99.841 30.2721 100.281C30.5141 100.714 30.6351 101.205 30.6351 101.755ZM29.6011 101.546C29.6011 101.165 29.5168 100.838 29.3481 100.567C29.1794 100.288 28.9484 100.079 28.6551 99.94C28.3691 99.7933 28.0501 99.72 27.6981 99.72C27.1921 99.72 26.7594 99.8813 26.4001 100.204C26.0481 100.527 25.8464 100.974 25.7951 101.546H29.6011ZM28.7761 97.267L26.4331 98.521V97.773L28.7761 96.398V97.267ZM39.2054 98.862C39.6747 98.862 40.0927 98.961 40.4594 99.159C40.826 99.3497 41.1157 99.6393 41.3284 100.028C41.541 100.417 41.6474 100.89 41.6474 101.447V105H40.6574V101.59C40.6574 100.989 40.507 100.53 40.2064 100.215C39.913 99.8923 39.5134 99.731 39.0074 99.731C38.4867 99.731 38.0724 99.8997 37.7644 100.237C37.4564 100.567 37.3024 101.047 37.3024 101.678V105H36.3124V101.59C36.3124 100.989 36.162 100.53 35.8614 100.215C35.568 99.8923 35.1684 99.731 34.6624 99.731C34.1417 99.731 33.7274 99.8997 33.4194 100.237C33.1114 100.567 32.9574 101.047 32.9574 101.678V105H31.9564V98.972H32.9574V99.841C33.1554 99.5257 33.4194 99.2837 33.7494 99.115C34.0867 98.9463 34.457 98.862 34.8604 98.862C35.3664 98.862 35.8137 98.9757 36.2024 99.203C36.591 99.4303 36.8807 99.764 37.0714 100.204C37.24 99.7787 37.5187 99.4487 37.9074 99.214C38.296 98.9793 38.7287 98.862 39.2054 98.862ZM43.8064 97.993C43.6157 97.993 43.4544 97.927 43.3224 97.795C43.1904 97.663 43.1244 97.5017 43.1244 97.311C43.1244 97.1203 43.1904 96.959 43.3224 96.827C43.4544 96.695 43.6157 96.629 43.8064 96.629C43.9897 96.629 44.1437 96.695 44.2684 96.827C44.4004 96.959 44.4664 97.1203 44.4664 97.311C44.4664 97.5017 44.4004 97.663 44.2684 97.795C44.1437 97.927 43.9897 97.993 43.8064 97.993ZM44.2904 98.972V105H43.2894V98.972H44.2904ZM48.4824 98.873C49.0031 98.873 49.4577 98.9867 49.8464 99.214C50.2424 99.4413 50.5357 99.7273 50.7264 100.072V98.972H51.7384V105.132C51.7384 105.682 51.6211 106.17 51.3864 106.595C51.1517 107.028 50.8144 107.365 50.3744 107.607C49.9417 107.849 49.4357 107.97 48.8564 107.97C48.0644 107.97 47.4044 107.783 46.8764 107.409C46.3484 107.035 46.0367 106.525 45.9414 105.88H46.9314C47.0414 106.247 47.2687 106.54 47.6134 106.76C47.9581 106.987 48.3724 107.101 48.8564 107.101C49.4064 107.101 49.8537 106.929 50.1984 106.584C50.5504 106.239 50.7264 105.755 50.7264 105.132V103.867C50.5284 104.219 50.2351 104.512 49.8464 104.747C49.4577 104.982 49.0031 105.099 48.4824 105.099C47.9471 105.099 47.4594 104.967 47.0194 104.703C46.5867 104.439 46.2457 104.069 45.9964 103.592C45.7471 103.115 45.6224 102.573 45.6224 101.964C45.6224 101.348 45.7471 100.809 45.9964 100.347C46.2457 99.8777 46.5867 99.5147 47.0194 99.258C47.4594 99.0013 47.9471 98.873 48.4824 98.873ZM50.7264 101.975C50.7264 101.52 50.6347 101.124 50.4514 100.787C50.2681 100.45 50.0187 100.193 49.7034 100.017C49.3954 99.8337 49.0544 99.742 48.6804 99.742C48.3064 99.742 47.9654 99.83 47.6574 100.006C47.3494 100.182 47.1037 100.439 46.9204 100.776C46.7371 101.113 46.6454 101.509 46.6454 101.964C46.6454 102.426 46.7371 102.829 46.9204 103.174C47.1037 103.511 47.3494 103.772 47.6574 103.955C47.9654 104.131 48.3064 104.219 48.6804 104.219C49.0544 104.219 49.3954 104.131 49.7034 103.955C50.0187 103.772 50.2681 103.511 50.4514 103.174C50.6347 102.829 50.7264 102.43 50.7264 101.975ZM58.93 101.755C58.93 101.946 58.919 102.147 58.897 102.36H54.079C54.1157 102.954 54.3173 103.42 54.684 103.757C55.058 104.087 55.509 104.252 56.037 104.252C56.4697 104.252 56.829 104.153 57.115 103.955C57.4083 103.75 57.6137 103.478 57.731 103.141H58.809C58.6477 103.72 58.325 104.193 57.841 104.56C57.357 104.919 56.7557 105.099 56.037 105.099C55.465 105.099 54.9517 104.971 54.497 104.714C54.0497 104.457 53.6977 104.094 53.441 103.625C53.1843 103.148 53.056 102.598 53.056 101.975C53.056 101.352 53.1807 100.805 53.43 100.336C53.6793 99.8667 54.0277 99.5073 54.475 99.258C54.9297 99.0013 55.4503 98.873 56.037 98.873C56.609 98.873 57.115 98.9977 57.555 99.247C57.995 99.4963 58.3323 99.841 58.567 100.281C58.809 100.714 58.93 101.205 58.93 101.755ZM57.896 101.546C57.896 101.165 57.8117 100.838 57.643 100.567C57.4743 100.288 57.2433 100.079 56.95 99.94C56.664 99.7933 56.345 99.72 55.993 99.72C55.487 99.72 55.0543 99.8813 54.695 100.204C54.343 100.527 54.1413 100.974 54.09 101.546H57.896ZM6.28422 118.099C5.82222 118.099 5.40789 118.022 5.04122 117.868C4.67456 117.707 4.38489 117.487 4.17222 117.208C3.95956 116.922 3.84222 116.596 3.82022 116.229H4.85422C4.88356 116.53 5.02289 116.775 5.27222 116.966C5.52889 117.157 5.86256 117.252 6.27322 117.252C6.65456 117.252 6.95522 117.168 7.17522 116.999C7.39522 116.83 7.50522 116.618 7.50522 116.361C7.50522 116.097 7.38789 115.903 7.15322 115.778C6.91856 115.646 6.55556 115.518 6.06422 115.393C5.61689 115.276 5.25022 115.158 4.96422 115.041C4.68556 114.916 4.44356 114.737 4.23822 114.502C4.04022 114.26 3.94122 113.945 3.94122 113.556C3.94122 113.248 4.03289 112.966 4.21622 112.709C4.39956 112.452 4.65989 112.251 4.99722 112.104C5.33456 111.95 5.71956 111.873 6.15222 111.873C6.81956 111.873 7.35856 112.042 7.76922 112.379C8.17989 112.716 8.39989 113.178 8.42922 113.765H7.42822C7.40622 113.45 7.27789 113.197 7.04322 113.006C6.81589 112.815 6.50789 112.72 6.11922 112.72C5.75989 112.72 5.47389 112.797 5.26122 112.951C5.04856 113.105 4.94222 113.307 4.94222 113.556C4.94222 113.754 5.00456 113.919 5.12922 114.051C5.26122 114.176 5.42256 114.278 5.61322 114.359C5.81122 114.432 6.08256 114.517 6.42722 114.612C6.85989 114.729 7.21189 114.847 7.48322 114.964C7.75456 115.074 7.98556 115.243 8.17622 115.47C8.37422 115.697 8.47689 115.994 8.48422 116.361C8.48422 116.691 8.39256 116.988 8.20922 117.252C8.02589 117.516 7.76556 117.725 7.42822 117.879C7.09822 118.026 6.71689 118.099 6.28422 118.099ZM15.3973 114.755C15.3973 114.946 15.3863 115.147 15.3643 115.36H10.5463C10.583 115.954 10.7846 116.42 11.1513 116.757C11.5253 117.087 11.9763 117.252 12.5043 117.252C12.937 117.252 13.2963 117.153 13.5823 116.955C13.8756 116.75 14.081 116.478 14.1983 116.141H15.2763C15.115 116.72 14.7923 117.193 14.3083 117.56C13.8243 117.919 13.223 118.099 12.5043 118.099C11.9323 118.099 11.419 117.971 10.9643 117.714C10.517 117.457 10.165 117.094 9.90829 116.625C9.65163 116.148 9.52329 115.598 9.52329 114.975C9.52329 114.352 9.64796 113.805 9.89729 113.336C10.1466 112.867 10.495 112.507 10.9423 112.258C11.397 112.001 11.9176 111.873 12.5043 111.873C13.0763 111.873 13.5823 111.998 14.0223 112.247C14.4623 112.496 14.7996 112.841 15.0343 113.281C15.2763 113.714 15.3973 114.205 15.3973 114.755ZM14.3633 114.546C14.3633 114.165 14.279 113.838 14.1103 113.567C13.9416 113.288 13.7106 113.079 13.4173 112.94C13.1313 112.793 12.8123 112.72 12.4603 112.72C11.9543 112.72 11.5216 112.881 11.1623 113.204C10.8103 113.527 10.6086 113.974 10.5573 114.546H14.3633ZM16.3446 114.975C16.3446 114.352 16.4692 113.809 16.7186 113.347C16.9679 112.878 17.3126 112.515 17.7526 112.258C18.1999 112.001 18.7096 111.873 19.2816 111.873C20.0222 111.873 20.6309 112.053 21.1076 112.412C21.5916 112.771 21.9106 113.27 22.0646 113.908H20.9866C20.8839 113.541 20.6822 113.252 20.3816 113.039C20.0882 112.826 19.7216 112.72 19.2816 112.72C18.7096 112.72 18.2476 112.918 17.8956 113.314C17.5436 113.703 17.3676 114.256 17.3676 114.975C17.3676 115.701 17.5436 116.262 17.8956 116.658C18.2476 117.054 18.7096 117.252 19.2816 117.252C19.7216 117.252 20.0882 117.149 20.3816 116.944C20.6749 116.739 20.8766 116.445 20.9866 116.064H22.0646C21.9032 116.68 21.5806 117.175 21.0966 117.549C20.6126 117.916 20.0076 118.099 19.2816 118.099C18.7096 118.099 18.1999 117.971 17.7526 117.714C17.3126 117.457 16.9679 117.094 16.7186 116.625C16.4692 116.156 16.3446 115.606 16.3446 114.975ZM26.0292 118.099C25.4646 118.099 24.9512 117.971 24.4892 117.714C24.0346 117.457 23.6752 117.094 23.4112 116.625C23.1546 116.148 23.0262 115.598 23.0262 114.975C23.0262 114.359 23.1582 113.816 23.4222 113.347C23.6936 112.87 24.0602 112.507 24.5222 112.258C24.9842 112.001 25.5012 111.873 26.0732 111.873C26.6452 111.873 27.1622 112.001 27.6242 112.258C28.0862 112.507 28.4492 112.867 28.7132 113.336C28.9846 113.805 29.1202 114.352 29.1202 114.975C29.1202 115.598 28.9809 116.148 28.7022 116.625C28.4309 117.094 28.0606 117.457 27.5912 117.714C27.1219 117.971 26.6012 118.099 26.0292 118.099ZM26.0292 117.219C26.3886 117.219 26.7259 117.135 27.0412 116.966C27.3566 116.797 27.6096 116.544 27.8002 116.207C27.9982 115.87 28.0972 115.459 28.0972 114.975C28.0972 114.491 28.0019 114.08 27.8112 113.743C27.6206 113.406 27.3712 113.156 27.0632 112.995C26.7552 112.826 26.4216 112.742 26.0622 112.742C25.6956 112.742 25.3582 112.826 25.0502 112.995C24.7496 113.156 24.5076 113.406 24.3242 113.743C24.1409 114.08 24.0492 114.491 24.0492 114.975C24.0492 115.466 24.1372 115.881 24.3132 116.218C24.4966 116.555 24.7386 116.808 25.0392 116.977C25.3399 117.138 25.6699 117.219 26.0292 117.219ZM33.3734 111.862C34.1067 111.862 34.7007 112.086 35.1554 112.533C35.61 112.973 35.8374 113.611 35.8374 114.447V118H34.8474V114.59C34.8474 113.989 34.697 113.53 34.3964 113.215C34.0957 112.892 33.685 112.731 33.1644 112.731C32.6364 112.731 32.2147 112.896 31.8994 113.226C31.5914 113.556 31.4374 114.036 31.4374 114.667V118H30.4364V111.972H31.4374V112.83C31.6354 112.522 31.903 112.284 32.2404 112.115C32.585 111.946 32.9627 111.862 33.3734 111.862ZM37.0985 114.964C37.0985 114.348 37.2232 113.809 37.4725 113.347C37.7218 112.878 38.0628 112.515 38.4955 112.258C38.9355 112.001 39.4268 111.873 39.9695 111.873C40.4388 111.873 40.8752 111.983 41.2785 112.203C41.6818 112.416 41.9898 112.698 42.2025 113.05V109.86H43.2145V118H42.2025V116.867C42.0045 117.226 41.7112 117.523 41.3225 117.758C40.9338 117.985 40.4792 118.099 39.9585 118.099C39.4232 118.099 38.9355 117.967 38.4955 117.703C38.0628 117.439 37.7218 117.069 37.4725 116.592C37.2232 116.115 37.0985 115.573 37.0985 114.964ZM42.2025 114.975C42.2025 114.52 42.1108 114.124 41.9275 113.787C41.7442 113.45 41.4948 113.193 41.1795 113.017C40.8715 112.834 40.5305 112.742 40.1565 112.742C39.7825 112.742 39.4415 112.83 39.1335 113.006C38.8255 113.182 38.5798 113.439 38.3965 113.776C38.2132 114.113 38.1215 114.509 38.1215 114.964C38.1215 115.426 38.2132 115.829 38.3965 116.174C38.5798 116.511 38.8255 116.772 39.1335 116.955C39.4415 117.131 39.7825 117.219 40.1565 117.219C40.5305 117.219 40.8715 117.131 41.1795 116.955C41.4948 116.772 41.7442 116.511 41.9275 116.174C42.1108 115.829 42.2025 115.43 42.2025 114.975ZM44.5321 114.964C44.5321 114.348 44.6567 113.809 44.9061 113.347C45.1554 112.878 45.4964 112.515 45.9291 112.258C46.3691 112.001 46.8567 111.873 47.3921 111.873C47.9201 111.873 48.3784 111.987 48.7671 112.214C49.1557 112.441 49.4454 112.727 49.6361 113.072V111.972H50.6481V118H49.6361V116.878C49.4381 117.23 49.1411 117.523 48.7451 117.758C48.3564 117.985 47.9017 118.099 47.3811 118.099C46.8457 118.099 46.3617 117.967 45.9291 117.703C45.4964 117.439 45.1554 117.069 44.9061 116.592C44.6567 116.115 44.5321 115.573 44.5321 114.964ZM49.6361 114.975C49.6361 114.52 49.5444 114.124 49.3611 113.787C49.1777 113.45 48.9284 113.193 48.6131 113.017C48.3051 112.834 47.9641 112.742 47.5901 112.742C47.2161 112.742 46.8751 112.83 46.5671 113.006C46.2591 113.182 46.0134 113.439 45.8301 113.776C45.6467 114.113 45.5551 114.509 45.5551 114.964C45.5551 115.426 45.6467 115.829 45.8301 116.174C46.0134 116.511 46.2591 116.772 46.5671 116.955C46.8751 117.131 47.2161 117.219 47.5901 117.219C47.9641 117.219 48.3051 117.131 48.6131 116.955C48.9284 116.772 49.1777 116.511 49.3611 116.174C49.5444 115.829 49.6361 115.43 49.6361 114.975ZM52.8567 110.993C52.666 110.993 52.5047 110.927 52.3727 110.795C52.2407 110.663 52.1747 110.502 52.1747 110.311C52.1747 110.12 52.2407 109.959 52.3727 109.827C52.5047 109.695 52.666 109.629 52.8567 109.629C53.04 109.629 53.194 109.695 53.3187 109.827C53.4507 109.959 53.5167 110.12 53.5167 110.311C53.5167 110.502 53.4507 110.663 53.3187 110.795C53.194 110.927 53.04 110.993 52.8567 110.993ZM53.3407 111.972V118H52.3397V111.972H53.3407ZM56.0477 112.951C56.2237 112.606 56.473 112.339 56.7957 112.148C57.1257 111.957 57.5254 111.862 57.9947 111.862V112.896H57.7307C56.6087 112.896 56.0477 113.505 56.0477 114.722V118H55.0467V111.972H56.0477V112.951ZM64.6502 114.755C64.6502 114.946 64.6392 115.147 64.6172 115.36H59.7992C59.8359 115.954 60.0376 116.42 60.4042 116.757C60.7782 117.087 61.2292 117.252 61.7572 117.252C62.1899 117.252 62.5492 117.153 62.8352 116.955C63.1286 116.75 63.3339 116.478 63.4512 116.141H64.5292C64.3679 116.72 64.0452 117.193 63.5612 117.56C63.0772 117.919 62.4759 118.099 61.7572 118.099C61.1852 118.099 60.6719 117.971 60.2172 117.714C59.7699 117.457 59.4179 117.094 59.1612 116.625C58.9046 116.148 58.7762 115.598 58.7762 114.975C58.7762 114.352 58.9009 113.805 59.1502 113.336C59.3996 112.867 59.7479 112.507 60.1952 112.258C60.6499 112.001 61.1706 111.873 61.7572 111.873C62.3292 111.873 62.8352 111.998 63.2752 112.247C63.7152 112.496 64.0526 112.841 64.2872 113.281C64.5292 113.714 64.6502 114.205 64.6502 114.755ZM63.6162 114.546C63.6162 114.165 63.5319 113.838 63.3632 113.567C63.1946 113.288 62.9636 113.079 62.6702 112.94C62.3842 112.793 62.0652 112.72 61.7132 112.72C61.2072 112.72 60.7746 112.881 60.4152 113.204C60.0632 113.527 59.8616 113.974 59.8102 114.546H63.6162ZM69.9051 111.147V113.71H72.6991V114.535H69.9051V117.175H73.0291V118H68.9041V110.322H73.0291V111.147H69.9051Z" fill="#2D4941"/>
<defs>
<clipPath id="clip0_58_3521">
<rect width="30.2703" height="80" fill="white" transform="translate(23.3647 15)"/>
</clipPath>
</defs>
</svg>
