<svg width="77" height="128" viewBox="0 0 77 128" fill="none" xmlns="http://www.w3.org/2000/svg">
<rect width="77" height="128" rx="10" fill="#F5EFE7"/>
<rect x="0.25" y="0.25" width="76.5" height="127.5" rx="9.75" stroke="#2D4941" stroke-width="0.5"/>
<g clip-path="url(#clip0_58_3520)">
<mask id="path-3-inside-1_58_3520" fill="white">
<path d="M51.5502 17.7526C50.5665 16.151 48.845 15.2416 46.4254 15.0323C42.0462 14.6701 37.9368 16.8432 34.5176 21.31C31.9472 24.6581 30.6541 28.1752 30.6541 28.1752C30.6303 28.2154 28.6232 32.3039 26.9096 39.7245C25.3388 46.5735 23.7045 57.7204 24.8707 72.0544C25.2436 74.7667 26.4336 76.7466 27.687 78.1309C26.6636 78.147 25.6482 78.5655 24.9104 79.2898C24.6327 79.5635 25.0532 79.9901 25.3309 79.7164C26.0607 79.0082 27.0682 78.654 28.0678 78.7426C28.1234 78.7426 28.1789 78.7265 28.2265 78.6862C28.5756 79.0243 28.9246 79.322 29.2499 79.5715C28.4804 79.5715 27.7108 79.7325 27.0524 80.143C26.3066 80.6098 25.7275 81.3904 25.5927 82.2758C25.5689 82.4367 25.6323 82.5977 25.7989 82.646C25.9417 82.6862 26.1401 82.5977 26.1639 82.4367C26.2828 81.6721 26.7588 81.0283 27.4094 80.6339C28.1551 80.1832 29.0436 80.1027 29.8845 80.2074C29.9559 80.2154 30.0115 80.1832 30.067 80.143C30.3923 80.3522 30.662 80.5051 30.8603 80.6098C30.2098 80.6178 29.5672 80.7305 28.9643 80.9639C28.3534 81.1973 27.7743 81.5434 27.5363 82.1872C27.4808 82.3401 27.5998 82.5172 27.7426 82.5575C27.9092 82.6057 28.052 82.5011 28.1075 82.3482C28.282 81.8653 28.8453 81.6319 29.2895 81.479C29.8607 81.2858 30.4637 81.2053 31.0666 81.2134C31.0825 81.4548 31.0983 81.6882 31.1142 81.9216C30.5033 81.7124 29.7814 82.0021 29.4482 82.5494C29.3689 82.6862 29.4165 82.8874 29.5513 82.9599C29.6941 83.0404 29.8687 82.9921 29.9559 82.8552C29.9559 82.8552 29.9956 82.7989 30.0035 82.7828C30.0115 82.7667 30.0273 82.7587 30.0353 82.7506C30.0511 82.7265 30.0749 82.7104 30.0987 82.6862C30.1067 82.6782 30.1225 82.6621 30.1305 82.654C30.1305 82.654 30.1305 82.654 30.1384 82.646L30.1543 82.6299C30.1622 82.6299 30.1781 82.6138 30.186 82.6057C30.2098 82.5896 30.2415 82.5736 30.2653 82.5575C30.2653 82.5575 30.305 82.5414 30.3288 82.5253C30.3129 82.5253 30.305 82.5253 30.3367 82.5253C30.3526 82.5253 30.3605 82.5172 30.3764 82.5092C30.4319 82.4931 30.4875 82.477 30.5509 82.4609C30.5509 82.4609 30.5509 82.4609 30.543 82.4609C30.5589 82.4609 30.5747 82.4609 30.5906 82.4609C30.6223 82.4609 30.6461 82.4609 30.6779 82.4609C30.7096 82.4609 30.7413 82.4609 30.7731 82.4609C30.7731 82.4609 30.7969 82.4609 30.8048 82.4609C30.8683 82.4689 30.9317 82.4931 30.9873 82.5092C31.0349 82.5253 31.0904 82.5253 31.1459 82.5092C31.6299 89.141 32.4549 94.0746 33.637 94.8633L33.8115 94.984L33.9781 94.8552C35.7472 93.5031 35.2236 90.2999 34.351 85.0041C34.224 84.2395 34.0971 83.4347 33.9622 82.6057C34.2637 82.4528 34.589 82.2999 34.9142 82.2919C34.9539 82.2919 34.9936 82.2919 35.0332 82.2919C35.0491 82.2919 35.0649 82.2919 35.0808 82.2919C35.0808 82.2919 35.0808 82.2919 35.0967 82.2919C35.1681 82.308 35.2395 82.3241 35.3109 82.3562C35.3188 82.3562 35.3743 82.3884 35.3823 82.3884C35.3823 82.3884 35.4378 82.4287 35.4457 82.4287C35.4695 82.4528 35.4933 82.477 35.5171 82.5011C35.533 82.5172 35.5409 82.5333 35.5568 82.5414C35.5409 82.5172 35.5409 82.5253 35.5568 82.5494C35.6441 82.6862 35.8186 82.7426 35.9614 82.654C36.0963 82.5735 36.1597 82.3804 36.0645 82.2436C35.8186 81.8653 35.3981 81.6802 34.9539 81.6721C34.5652 81.6641 34.2002 81.809 33.8512 81.9699C33.8353 81.8573 33.8194 81.7526 33.8036 81.64C33.8591 81.64 33.9146 81.6399 33.9622 81.6158C34.462 81.3744 35.0015 81.1168 35.5568 81.0283C36.0407 80.9478 36.5088 81.1168 36.8341 81.487C37.0879 81.7768 37.5084 81.3502 37.2545 81.0605C36.842 80.5937 36.2073 80.3442 35.5885 80.4166C35.5568 80.4166 35.5171 80.4327 35.4854 80.4408C35.7155 80.32 35.9614 80.1832 36.2073 80.0222C36.2629 80.0464 36.3263 80.0625 36.3898 80.0464C36.8341 79.9579 37.2149 79.7003 37.6512 79.5796C38.0161 79.475 38.4286 79.5393 38.7301 79.7888C38.857 79.8935 39.0316 79.9096 39.1506 79.7888C39.2537 79.6842 39.2775 79.4669 39.1506 79.3623C38.7222 79.0162 38.1986 78.8633 37.6591 78.9599C37.6115 78.9599 37.5719 78.984 37.5322 78.9921C37.7147 78.823 37.8971 78.646 38.0796 78.4528C38.1748 78.5253 38.2938 78.5333 38.4128 78.477C38.3572 78.5011 38.4604 78.4609 38.4683 78.4528C38.4921 78.4448 38.5238 78.4367 38.5476 78.4287C38.6111 78.4126 38.6746 78.3965 38.7301 78.3804C38.738 78.3804 38.8015 78.3723 38.8094 78.3643C38.8332 78.3643 38.8491 78.3643 38.8729 78.3643C38.9443 78.3643 39.0078 78.3643 39.0792 78.3643C39.1426 78.3643 39.2061 78.3643 39.2616 78.3804C39.2775 78.3804 39.2934 78.3804 39.3092 78.3884C39.341 78.3884 39.3727 78.4045 39.4044 78.4045C39.4679 78.4206 39.5314 78.4367 39.5869 78.4609C39.6186 78.4689 39.6504 78.485 39.6742 78.4931C39.6186 78.4689 39.7218 78.5172 39.7297 78.5172C39.8725 78.5896 40.055 78.5575 40.1343 78.4126C40.2057 78.2758 40.174 78.0746 40.0312 78.0021C39.5948 77.7848 39.1188 77.7285 38.6508 77.809C40.5865 75.4106 42.5381 70.9518 41.9272 62.8874C41.9034 58.7909 42.2207 55.3623 42.9109 52.0947C43.7915 47.9337 45.2433 44.2717 47.0759 39.6359C47.7819 37.8412 48.5911 35.8049 49.4321 33.5514C49.5352 33.2536 49.6859 32.8673 49.8605 32.4086C51.2012 28.9478 53.9857 21.7365 51.5264 17.7365L51.5502 17.7526ZM33.8036 94.2275C31.7568 91.7567 30.3288 68.642 31.733 49.6158C31.8361 48.2476 32.0027 46.8794 32.2248 45.5192C31.7013 53.1651 31.9948 64.9719 32.1138 68.8029C32.1772 75.4508 33.0578 80.811 33.7639 85.1168C34.5334 89.8009 35.0491 92.9639 33.8036 94.2275ZM49.3289 32.2073C49.1465 32.6742 48.9957 33.0685 48.8926 33.3663C48.0517 35.6037 47.2504 37.6399 46.5444 39.4347C44.7038 44.0947 43.2441 47.7808 42.3556 51.99C41.6495 55.2979 41.3322 58.7748 41.356 62.9357C41.9907 71.4025 39.7773 75.7566 37.8099 77.9216C36.128 79.7647 34.343 80.3764 33.6608 80.5454C33.1768 77.1651 32.7564 73.2778 32.7167 68.7868C32.5818 64.4086 32.209 49.5675 33.1134 42.5414C33.7084 37.8653 37.0324 29.6239 40.174 23.6923C41.7685 20.8029 43.1648 18.7104 43.9026 17.7768C44.085 17.5675 44.2596 17.3824 44.4262 17.2214L44.0692 16.7466C44.0216 16.7788 43.9502 16.8432 43.855 16.9478C42.3397 18.485 40.1898 22.1067 38.1668 26.2999C35.057 32.489 31.7727 40.98 31.1459 49.5675C30.5113 58.1792 30.4399 70.4045 30.9873 80.0061C29.7179 79.314 26.1401 76.9478 25.4657 71.982C24.3075 57.7607 25.9259 46.6862 27.4808 39.8935C29.1706 32.5373 31.1618 28.489 31.1935 28.4247C31.2411 28.2878 36.3105 14.7748 46.3778 15.644C48.5911 15.8291 50.1619 16.65 51.0425 18.0746C53.3431 21.8251 50.63 28.8351 49.3289 32.2073Z"/>
</mask>
<path d="M51.5502 17.7526C50.5665 16.151 48.845 15.2416 46.4254 15.0323C42.0462 14.6701 37.9368 16.8432 34.5176 21.31C31.9472 24.6581 30.6541 28.1752 30.6541 28.1752C30.6303 28.2154 28.6232 32.3039 26.9096 39.7245C25.3388 46.5735 23.7045 57.7204 24.8707 72.0544C25.2436 74.7667 26.4336 76.7466 27.687 78.1309C26.6636 78.147 25.6482 78.5655 24.9104 79.2898C24.6327 79.5635 25.0532 79.9901 25.3309 79.7164C26.0607 79.0082 27.0682 78.654 28.0678 78.7426C28.1234 78.7426 28.1789 78.7265 28.2265 78.6862C28.5756 79.0243 28.9246 79.322 29.2499 79.5715C28.4804 79.5715 27.7108 79.7325 27.0524 80.143C26.3066 80.6098 25.7275 81.3904 25.5927 82.2758C25.5689 82.4367 25.6323 82.5977 25.7989 82.646C25.9417 82.6862 26.1401 82.5977 26.1639 82.4367C26.2828 81.6721 26.7588 81.0283 27.4094 80.6339C28.1551 80.1832 29.0436 80.1027 29.8845 80.2074C29.9559 80.2154 30.0115 80.1832 30.067 80.143C30.3923 80.3522 30.662 80.5051 30.8603 80.6098C30.2098 80.6178 29.5672 80.7305 28.9643 80.9639C28.3534 81.1973 27.7743 81.5434 27.5363 82.1872C27.4808 82.3401 27.5998 82.5172 27.7426 82.5575C27.9092 82.6057 28.052 82.5011 28.1075 82.3482C28.282 81.8653 28.8453 81.6319 29.2895 81.479C29.8607 81.2858 30.4637 81.2053 31.0666 81.2134C31.0825 81.4548 31.0983 81.6882 31.1142 81.9216C30.5033 81.7124 29.7814 82.0021 29.4482 82.5494C29.3689 82.6862 29.4165 82.8874 29.5513 82.9599C29.6941 83.0404 29.8687 82.9921 29.9559 82.8552C29.9559 82.8552 29.9956 82.7989 30.0035 82.7828C30.0115 82.7667 30.0273 82.7587 30.0353 82.7506C30.0511 82.7265 30.0749 82.7104 30.0987 82.6862C30.1067 82.6782 30.1225 82.6621 30.1305 82.654C30.1305 82.654 30.1305 82.654 30.1384 82.646L30.1543 82.6299C30.1622 82.6299 30.1781 82.6138 30.186 82.6057C30.2098 82.5896 30.2415 82.5736 30.2653 82.5575C30.2653 82.5575 30.305 82.5414 30.3288 82.5253C30.3129 82.5253 30.305 82.5253 30.3367 82.5253C30.3526 82.5253 30.3605 82.5172 30.3764 82.5092C30.4319 82.4931 30.4875 82.477 30.5509 82.4609C30.5509 82.4609 30.5509 82.4609 30.543 82.4609C30.5589 82.4609 30.5747 82.4609 30.5906 82.4609C30.6223 82.4609 30.6461 82.4609 30.6779 82.4609C30.7096 82.4609 30.7413 82.4609 30.7731 82.4609C30.7731 82.4609 30.7969 82.4609 30.8048 82.4609C30.8683 82.4689 30.9317 82.4931 30.9873 82.5092C31.0349 82.5253 31.0904 82.5253 31.1459 82.5092C31.6299 89.141 32.4549 94.0746 33.637 94.8633L33.8115 94.984L33.9781 94.8552C35.7472 93.5031 35.2236 90.2999 34.351 85.0041C34.224 84.2395 34.0971 83.4347 33.9622 82.6057C34.2637 82.4528 34.589 82.2999 34.9142 82.2919C34.9539 82.2919 34.9936 82.2919 35.0332 82.2919C35.0491 82.2919 35.0649 82.2919 35.0808 82.2919C35.0808 82.2919 35.0808 82.2919 35.0967 82.2919C35.1681 82.308 35.2395 82.3241 35.3109 82.3562C35.3188 82.3562 35.3743 82.3884 35.3823 82.3884C35.3823 82.3884 35.4378 82.4287 35.4457 82.4287C35.4695 82.4528 35.4933 82.477 35.5171 82.5011C35.533 82.5172 35.5409 82.5333 35.5568 82.5414C35.5409 82.5172 35.5409 82.5253 35.5568 82.5494C35.6441 82.6862 35.8186 82.7426 35.9614 82.654C36.0963 82.5735 36.1597 82.3804 36.0645 82.2436C35.8186 81.8653 35.3981 81.6802 34.9539 81.6721C34.5652 81.6641 34.2002 81.809 33.8512 81.9699C33.8353 81.8573 33.8194 81.7526 33.8036 81.64C33.8591 81.64 33.9146 81.6399 33.9622 81.6158C34.462 81.3744 35.0015 81.1168 35.5568 81.0283C36.0407 80.9478 36.5088 81.1168 36.8341 81.487C37.0879 81.7768 37.5084 81.3502 37.2545 81.0605C36.842 80.5937 36.2073 80.3442 35.5885 80.4166C35.5568 80.4166 35.5171 80.4327 35.4854 80.4408C35.7155 80.32 35.9614 80.1832 36.2073 80.0222C36.2629 80.0464 36.3263 80.0625 36.3898 80.0464C36.8341 79.9579 37.2149 79.7003 37.6512 79.5796C38.0161 79.475 38.4286 79.5393 38.7301 79.7888C38.857 79.8935 39.0316 79.9096 39.1506 79.7888C39.2537 79.6842 39.2775 79.4669 39.1506 79.3623C38.7222 79.0162 38.1986 78.8633 37.6591 78.9599C37.6115 78.9599 37.5719 78.984 37.5322 78.9921C37.7147 78.823 37.8971 78.646 38.0796 78.4528C38.1748 78.5253 38.2938 78.5333 38.4128 78.477C38.3572 78.5011 38.4604 78.4609 38.4683 78.4528C38.4921 78.4448 38.5238 78.4367 38.5476 78.4287C38.6111 78.4126 38.6746 78.3965 38.7301 78.3804C38.738 78.3804 38.8015 78.3723 38.8094 78.3643C38.8332 78.3643 38.8491 78.3643 38.8729 78.3643C38.9443 78.3643 39.0078 78.3643 39.0792 78.3643C39.1426 78.3643 39.2061 78.3643 39.2616 78.3804C39.2775 78.3804 39.2934 78.3804 39.3092 78.3884C39.341 78.3884 39.3727 78.4045 39.4044 78.4045C39.4679 78.4206 39.5314 78.4367 39.5869 78.4609C39.6186 78.4689 39.6504 78.485 39.6742 78.4931C39.6186 78.4689 39.7218 78.5172 39.7297 78.5172C39.8725 78.5896 40.055 78.5575 40.1343 78.4126C40.2057 78.2758 40.174 78.0746 40.0312 78.0021C39.5948 77.7848 39.1188 77.7285 38.6508 77.809C40.5865 75.4106 42.5381 70.9518 41.9272 62.8874C41.9034 58.7909 42.2207 55.3623 42.9109 52.0947C43.7915 47.9337 45.2433 44.2717 47.0759 39.6359C47.7819 37.8412 48.5911 35.8049 49.4321 33.5514C49.5352 33.2536 49.6859 32.8673 49.8605 32.4086C51.2012 28.9478 53.9857 21.7365 51.5264 17.7365L51.5502 17.7526ZM33.8036 94.2275C31.7568 91.7567 30.3288 68.642 31.733 49.6158C31.8361 48.2476 32.0027 46.8794 32.2248 45.5192C31.7013 53.1651 31.9948 64.9719 32.1138 68.8029C32.1772 75.4508 33.0578 80.811 33.7639 85.1168C34.5334 89.8009 35.0491 92.9639 33.8036 94.2275ZM49.3289 32.2073C49.1465 32.6742 48.9957 33.0685 48.8926 33.3663C48.0517 35.6037 47.2504 37.6399 46.5444 39.4347C44.7038 44.0947 43.2441 47.7808 42.3556 51.99C41.6495 55.2979 41.3322 58.7748 41.356 62.9357C41.9907 71.4025 39.7773 75.7566 37.8099 77.9216C36.128 79.7647 34.343 80.3764 33.6608 80.5454C33.1768 77.1651 32.7564 73.2778 32.7167 68.7868C32.5818 64.4086 32.209 49.5675 33.1134 42.5414C33.7084 37.8653 37.0324 29.6239 40.174 23.6923C41.7685 20.8029 43.1648 18.7104 43.9026 17.7768C44.085 17.5675 44.2596 17.3824 44.4262 17.2214L44.0692 16.7466C44.0216 16.7788 43.9502 16.8432 43.855 16.9478C42.3397 18.485 40.1898 22.1067 38.1668 26.2999C35.057 32.489 31.7727 40.98 31.1459 49.5675C30.5113 58.1792 30.4399 70.4045 30.9873 80.0061C29.7179 79.314 26.1401 76.9478 25.4657 71.982C24.3075 57.7607 25.9259 46.6862 27.4808 39.8935C29.1706 32.5373 31.1618 28.489 31.1935 28.4247C31.2411 28.2878 36.3105 14.7748 46.3778 15.644C48.5911 15.8291 50.1619 16.65 51.0425 18.0746C53.3431 21.8251 50.63 28.8351 49.3289 32.2073Z" fill="#2D4941" stroke="#2D4941" stroke-width="2" mask="url(#path-3-inside-1_58_3520)"/>
<path d="M30.3289 82.5407C30.3289 82.5407 30.3441 82.5407 30.3441 82.5332C30.3441 82.5332 30.3365 82.5332 30.3289 82.5332V82.5407Z" fill="#021120"/>
</g>
<path d="M15.5173 105.555C15.3046 105.108 14.9966 104.763 14.5933 104.521C14.19 104.272 13.7206 104.147 13.1853 104.147C12.65 104.147 12.166 104.272 11.7333 104.521C11.308 104.763 10.9706 105.115 10.7213 105.577C10.4793 106.032 10.3583 106.56 10.3583 107.161C10.3583 107.762 10.4793 108.29 10.7213 108.745C10.9706 109.2 11.308 109.552 11.7333 109.801C12.166 110.043 12.65 110.164 13.1853 110.164C13.9333 110.164 14.5493 109.94 15.0333 109.493C15.5173 109.046 15.7996 108.441 15.8803 107.678H12.8223V106.864H16.9473V107.634C16.8886 108.265 16.6906 108.844 16.3533 109.372C16.016 109.893 15.5723 110.307 15.0223 110.615C14.4723 110.916 13.86 111.066 13.1853 111.066C12.474 111.066 11.825 110.901 11.2383 110.571C10.6516 110.234 10.186 109.768 9.8413 109.174C9.50397 108.58 9.3353 107.909 9.3353 107.161C9.3353 106.413 9.50397 105.742 9.8413 105.148C10.186 104.547 10.6516 104.081 11.2383 103.751C11.825 103.414 12.474 103.245 13.1853 103.245C13.9993 103.245 14.718 103.447 15.3413 103.85C15.972 104.253 16.4303 104.822 16.7163 105.555H15.5173ZM19.2718 105.951C19.4478 105.606 19.6972 105.339 20.0198 105.148C20.3498 104.957 20.7495 104.862 21.2188 104.862V105.896H20.9548C19.8328 105.896 19.2718 106.505 19.2718 107.722V111H18.2708V104.972H19.2718V105.951ZM22.0003 107.964C22.0003 107.348 22.125 106.809 22.3743 106.347C22.6237 105.878 22.9647 105.515 23.3973 105.258C23.8373 105.001 24.325 104.873 24.8603 104.873C25.3883 104.873 25.8467 104.987 26.2353 105.214C26.624 105.441 26.9137 105.727 27.1043 106.072V104.972H28.1163V111H27.1043V109.878C26.9063 110.23 26.6093 110.523 26.2133 110.758C25.8247 110.985 25.37 111.099 24.8493 111.099C24.314 111.099 23.83 110.967 23.3973 110.703C22.9647 110.439 22.6237 110.069 22.3743 109.592C22.125 109.115 22.0003 108.573 22.0003 107.964ZM27.1043 107.975C27.1043 107.52 27.0127 107.124 26.8293 106.787C26.646 106.45 26.3967 106.193 26.0813 106.017C25.7733 105.834 25.4323 105.742 25.0583 105.742C24.6843 105.742 24.3433 105.83 24.0353 106.006C23.7273 106.182 23.4817 106.439 23.2983 106.776C23.115 107.113 23.0233 107.509 23.0233 107.964C23.0233 108.426 23.115 108.829 23.2983 109.174C23.4817 109.511 23.7273 109.772 24.0353 109.955C24.3433 110.131 24.6843 110.219 25.0583 110.219C25.4323 110.219 25.7733 110.131 26.0813 109.955C26.3967 109.772 26.646 109.511 26.8293 109.174C27.0127 108.829 27.1043 108.43 27.1043 107.975ZM32.7449 104.862C33.4783 104.862 34.0723 105.086 34.5269 105.533C34.9816 105.973 35.2089 106.611 35.2089 107.447V111H34.2189V107.59C34.2189 106.989 34.0686 106.53 33.7679 106.215C33.4673 105.892 33.0566 105.731 32.5359 105.731C32.0079 105.731 31.5863 105.896 31.2709 106.226C30.9629 106.556 30.8089 107.036 30.8089 107.667V111H29.8079V104.972H30.8089V105.83C31.0069 105.522 31.2746 105.284 31.6119 105.115C31.9566 104.946 32.3343 104.862 32.7449 104.862ZM36.4701 107.964C36.4701 107.348 36.5947 106.809 36.8441 106.347C37.0934 105.878 37.4344 105.515 37.8671 105.258C38.3071 105.001 38.7984 104.873 39.3411 104.873C39.8104 104.873 40.2467 104.983 40.6501 105.203C41.0534 105.416 41.3614 105.698 41.5741 106.05V102.86H42.5861V111H41.5741V109.867C41.3761 110.226 41.0827 110.523 40.6941 110.758C40.3054 110.985 39.8507 111.099 39.3301 111.099C38.7947 111.099 38.3071 110.967 37.8671 110.703C37.4344 110.439 37.0934 110.069 36.8441 109.592C36.5947 109.115 36.4701 108.573 36.4701 107.964ZM41.5741 107.975C41.5741 107.52 41.4824 107.124 41.2991 106.787C41.1157 106.45 40.8664 106.193 40.5511 106.017C40.2431 105.834 39.9021 105.742 39.5281 105.742C39.1541 105.742 38.8131 105.83 38.5051 106.006C38.1971 106.182 37.9514 106.439 37.7681 106.776C37.5847 107.113 37.4931 107.509 37.4931 107.964C37.4931 108.426 37.5847 108.829 37.7681 109.174C37.9514 109.511 38.1971 109.772 38.5051 109.955C38.8131 110.131 39.1541 110.219 39.5281 110.219C39.9021 110.219 40.2431 110.131 40.5511 109.955C40.8664 109.772 41.1157 109.511 41.2991 109.174C41.4824 108.829 41.5741 108.43 41.5741 107.975ZM49.7777 107.755C49.7777 107.946 49.7667 108.147 49.7447 108.36H44.9267C44.9633 108.954 45.165 109.42 45.5317 109.757C45.9057 110.087 46.3567 110.252 46.8847 110.252C47.3173 110.252 47.6767 110.153 47.9627 109.955C48.256 109.75 48.4613 109.478 48.5787 109.141H49.6567C49.4953 109.72 49.1727 110.193 48.6887 110.56C48.2047 110.919 47.6033 111.099 46.8847 111.099C46.3127 111.099 45.7993 110.971 45.3447 110.714C44.8973 110.457 44.5453 110.094 44.2887 109.625C44.032 109.148 43.9037 108.598 43.9037 107.975C43.9037 107.352 44.0283 106.805 44.2777 106.336C44.527 105.867 44.8753 105.507 45.3227 105.258C45.7773 105.001 46.298 104.873 46.8847 104.873C47.4567 104.873 47.9627 104.998 48.4027 105.247C48.8427 105.496 49.18 105.841 49.4147 106.281C49.6567 106.714 49.7777 107.205 49.7777 107.755ZM48.7437 107.546C48.7437 107.165 48.6593 106.838 48.4907 106.567C48.322 106.288 48.091 106.079 47.7977 105.94C47.5117 105.793 47.1927 105.72 46.8407 105.72C46.3347 105.72 45.902 105.881 45.5427 106.204C45.1907 106.527 44.989 106.974 44.9377 107.546H48.7437ZM53.6576 107.161C53.6576 106.413 53.8262 105.742 54.1636 105.148C54.5009 104.547 54.9592 104.077 55.5386 103.74C56.1252 103.403 56.7742 103.234 57.4856 103.234C58.3216 103.234 59.0512 103.436 59.6746 103.839C60.2979 104.242 60.7526 104.814 61.0386 105.555H59.8396C59.6269 105.093 59.3189 104.737 58.9156 104.488C58.5196 104.239 58.0429 104.114 57.4856 104.114C56.9502 104.114 56.4699 104.239 56.0446 104.488C55.6192 104.737 55.2856 105.093 55.0436 105.555C54.8016 106.01 54.6806 106.545 54.6806 107.161C54.6806 107.77 54.8016 108.305 55.0436 108.767C55.2856 109.222 55.6192 109.574 56.0446 109.823C56.4699 110.072 56.9502 110.197 57.4856 110.197C58.0429 110.197 58.5196 110.076 58.9156 109.834C59.3189 109.585 59.6269 109.229 59.8396 108.767H61.0386C60.7526 109.5 60.2979 110.069 59.6746 110.472C59.0512 110.868 58.3216 111.066 57.4856 111.066C56.7742 111.066 56.1252 110.901 55.5386 110.571C54.9592 110.234 54.5009 109.768 54.1636 109.174C53.8262 108.58 53.6576 107.909 53.6576 107.161ZM64.9596 111.077C64.4536 111.077 63.999 110.989 63.5956 110.813C63.1996 110.63 62.888 110.38 62.6606 110.065C62.4333 109.742 62.316 109.372 62.3086 108.954H63.3756C63.4123 109.313 63.559 109.618 63.8156 109.867C64.0796 110.109 64.461 110.23 64.9596 110.23C65.4363 110.23 65.8103 110.113 66.0816 109.878C66.3603 109.636 66.4996 109.328 66.4996 108.954C66.4996 108.661 66.419 108.422 66.2576 108.239C66.0963 108.056 65.8946 107.916 65.6526 107.821C65.4106 107.726 65.0843 107.623 64.6736 107.513C64.1676 107.381 63.7606 107.249 63.4526 107.117C63.152 106.985 62.8916 106.78 62.6716 106.501C62.459 106.215 62.3526 105.834 62.3526 105.357C62.3526 104.939 62.459 104.569 62.6716 104.246C62.8843 103.923 63.1813 103.674 63.5626 103.498C63.9513 103.322 64.395 103.234 64.8936 103.234C65.6123 103.234 66.199 103.414 66.6536 103.773C67.1156 104.132 67.376 104.609 67.4346 105.203H66.3346C66.298 104.91 66.144 104.653 65.8726 104.433C65.6013 104.206 65.242 104.092 64.7946 104.092C64.3766 104.092 64.0356 104.202 63.7716 104.422C63.5076 104.635 63.3756 104.935 63.3756 105.324C63.3756 105.603 63.4526 105.83 63.6066 106.006C63.768 106.182 63.9623 106.318 64.1896 106.413C64.4243 106.501 64.7506 106.604 65.1686 106.721C65.6746 106.86 66.0816 107 66.3896 107.139C66.6976 107.271 66.9616 107.48 67.1816 107.766C67.4016 108.045 67.5116 108.426 67.5116 108.91C67.5116 109.284 67.4126 109.636 67.2146 109.966C67.0166 110.296 66.7233 110.564 66.3346 110.769C65.946 110.974 65.4876 111.077 64.9596 111.077Z" fill="#2D4941"/>
<defs>
<clipPath id="clip0_58_3520">
<rect width="28.0519" height="80" fill="white" transform="translate(24.4741 15)"/>
</clipPath>
</defs>
</svg>
