<svg width="77" height="128" viewBox="0 0 77 128" fill="none" xmlns="http://www.w3.org/2000/svg">
<rect x="0.25" y="0.25" width="76.5" height="127.5" rx="9.75" fill="#F5EFE7" stroke="#2D4941" stroke-width="0.5"/>
<path d="M28.6403 105.077C28.1343 105.077 27.6796 104.989 27.2763 104.813C26.8803 104.63 26.5686 104.38 26.3413 104.065C26.114 103.742 25.9966 103.372 25.9893 102.954H27.0563C27.093 103.313 27.2396 103.618 27.4963 103.867C27.7603 104.109 28.1416 104.23 28.6403 104.23C29.117 104.23 29.491 104.113 29.7623 103.878C30.041 103.636 30.1803 103.328 30.1803 102.954C30.1803 102.661 30.0996 102.422 29.9383 102.239C29.777 102.056 29.5753 101.916 29.3333 101.821C29.0913 101.726 28.765 101.623 28.3543 101.513C27.8483 101.381 27.4413 101.249 27.1333 101.117C26.8326 100.985 26.5723 100.78 26.3523 100.501C26.1396 100.215 26.0333 99.8337 26.0333 99.357C26.0333 98.939 26.1396 98.5687 26.3523 98.246C26.565 97.9233 26.862 97.674 27.2433 97.498C27.632 97.322 28.0756 97.234 28.5743 97.234C29.293 97.234 29.8796 97.4137 30.3343 97.773C30.7963 98.1323 31.0566 98.609 31.1153 99.203H30.0153C29.9786 98.9097 29.8246 98.653 29.5533 98.433C29.282 98.2057 28.9226 98.092 28.4753 98.092C28.0573 98.092 27.7163 98.202 27.4523 98.422C27.1883 98.6347 27.0563 98.9353 27.0563 99.324C27.0563 99.6027 27.1333 99.83 27.2873 100.006C27.4486 100.182 27.643 100.318 27.8703 100.413C28.105 100.501 28.4313 100.604 28.8493 100.721C29.3553 100.86 29.7623 101 30.0703 101.139C30.3783 101.271 30.6423 101.48 30.8623 101.766C31.0823 102.045 31.1923 102.426 31.1923 102.91C31.1923 103.284 31.0933 103.636 30.8953 103.966C30.6973 104.296 30.404 104.564 30.0153 104.769C29.6266 104.974 29.1683 105.077 28.6403 105.077ZM35.2944 105.099C34.7297 105.099 34.2164 104.971 33.7544 104.714C33.2997 104.457 32.9404 104.094 32.6764 103.625C32.4197 103.148 32.2914 102.598 32.2914 101.975C32.2914 101.359 32.4234 100.816 32.6874 100.347C32.9587 99.8703 33.3254 99.5073 33.7874 99.258C34.2494 99.0013 34.7664 98.873 35.3384 98.873C35.9104 98.873 36.4274 99.0013 36.8894 99.258C37.3514 99.5073 37.7144 99.8667 37.9784 100.336C38.2497 100.805 38.3854 101.352 38.3854 101.975C38.3854 102.598 38.246 103.148 37.9674 103.625C37.696 104.094 37.3257 104.457 36.8564 104.714C36.387 104.971 35.8664 105.099 35.2944 105.099ZM35.2944 104.219C35.6537 104.219 35.991 104.135 36.3064 103.966C36.6217 103.797 36.8747 103.544 37.0654 103.207C37.2634 102.87 37.3624 102.459 37.3624 101.975C37.3624 101.491 37.267 101.08 37.0764 100.743C36.8857 100.406 36.6364 100.156 36.3284 99.995C36.0204 99.8263 35.6867 99.742 35.3274 99.742C34.9607 99.742 34.6234 99.8263 34.3154 99.995C34.0147 100.156 33.7727 100.406 33.5894 100.743C33.406 101.08 33.3144 101.491 33.3144 101.975C33.3144 102.466 33.4024 102.881 33.5784 103.218C33.7617 103.555 34.0037 103.808 34.3044 103.977C34.605 104.138 34.935 104.219 35.2944 104.219ZM45.0475 98.972V105H44.0465V104.109C43.8558 104.417 43.5882 104.659 43.2435 104.835C42.9062 105.004 42.5322 105.088 42.1215 105.088C41.6522 105.088 41.2305 104.993 40.8565 104.802C40.4825 104.604 40.1855 104.311 39.9655 103.922C39.7528 103.533 39.6465 103.06 39.6465 102.503V98.972H40.6365V102.371C40.6365 102.965 40.7868 103.423 41.0875 103.746C41.3882 104.061 41.7988 104.219 42.3195 104.219C42.8548 104.219 43.2765 104.054 43.5845 103.724C43.8925 103.394 44.0465 102.914 44.0465 102.283V98.972H45.0475ZM48.8716 105.099C48.4096 105.099 47.9953 105.022 47.6286 104.868C47.262 104.707 46.9723 104.487 46.7596 104.208C46.547 103.922 46.4296 103.596 46.4076 103.229H47.4416C47.471 103.53 47.6103 103.775 47.8596 103.966C48.1163 104.157 48.45 104.252 48.8606 104.252C49.242 104.252 49.5426 104.168 49.7626 103.999C49.9826 103.83 50.0926 103.618 50.0926 103.361C50.0926 103.097 49.9753 102.903 49.7406 102.778C49.506 102.646 49.143 102.518 48.6516 102.393C48.2043 102.276 47.8376 102.158 47.5516 102.041C47.273 101.916 47.031 101.737 46.8256 101.502C46.6276 101.26 46.5286 100.945 46.5286 100.556C46.5286 100.248 46.6203 99.9657 46.8036 99.709C46.987 99.4523 47.2473 99.2507 47.5846 99.104C47.922 98.95 48.307 98.873 48.7396 98.873C49.407 98.873 49.946 99.0417 50.3566 99.379C50.7673 99.7163 50.9873 100.178 51.0166 100.765H50.0156C49.9936 100.45 49.8653 100.197 49.6306 100.006C49.4033 99.8153 49.0953 99.72 48.7066 99.72C48.3473 99.72 48.0613 99.797 47.8486 99.951C47.636 100.105 47.5296 100.307 47.5296 100.556C47.5296 100.754 47.592 100.919 47.7166 101.051C47.8486 101.176 48.01 101.278 48.2006 101.359C48.3986 101.432 48.67 101.517 49.0146 101.612C49.4473 101.729 49.7993 101.847 50.0706 101.964C50.342 102.074 50.573 102.243 50.7636 102.47C50.9616 102.697 51.0643 102.994 51.0716 103.361C51.0716 103.691 50.98 103.988 50.7966 104.252C50.6133 104.516 50.353 104.725 50.0156 104.879C49.6856 105.026 49.3043 105.099 48.8716 105.099ZM16.1996 114.975C16.1996 114.352 16.3242 113.809 16.5736 113.347C16.8229 112.878 17.1676 112.515 17.6076 112.258C18.0549 112.001 18.5646 111.873 19.1366 111.873C19.8772 111.873 20.4859 112.053 20.9626 112.412C21.4466 112.771 21.7656 113.27 21.9196 113.908H20.8416C20.7389 113.541 20.5372 113.252 20.2366 113.039C19.9432 112.826 19.5766 112.72 19.1366 112.72C18.5646 112.72 18.1026 112.918 17.7506 113.314C17.3986 113.703 17.2226 114.256 17.2226 114.975C17.2226 115.701 17.3986 116.262 17.7506 116.658C18.1026 117.054 18.5646 117.252 19.1366 117.252C19.5766 117.252 19.9432 117.149 20.2366 116.944C20.5299 116.739 20.7316 116.445 20.8416 116.064H21.9196C21.7582 116.68 21.4356 117.175 20.9516 117.549C20.4676 117.916 19.8626 118.099 19.1366 118.099C18.5646 118.099 18.0549 117.971 17.6076 117.714C17.1676 117.457 16.8229 117.094 16.5736 116.625C16.3242 116.156 16.1996 115.606 16.1996 114.975ZM22.8812 114.964C22.8812 114.348 23.0059 113.809 23.2552 113.347C23.5045 112.878 23.8455 112.515 24.2782 112.258C24.7182 112.001 25.2059 111.873 25.7412 111.873C26.2692 111.873 26.7275 111.987 27.1162 112.214C27.5049 112.441 27.7945 112.727 27.9852 113.072V111.972H28.9972V118H27.9852V116.878C27.7872 117.23 27.4902 117.523 27.0942 117.758C26.7055 117.985 26.2509 118.099 25.7302 118.099C25.1949 118.099 24.7109 117.967 24.2782 117.703C23.8455 117.439 23.5045 117.069 23.2552 116.592C23.0059 116.115 22.8812 115.573 22.8812 114.964ZM27.9852 114.975C27.9852 114.52 27.8935 114.124 27.7102 113.787C27.5269 113.45 27.2775 113.193 26.9622 113.017C26.6542 112.834 26.3132 112.742 25.9392 112.742C25.5652 112.742 25.2242 112.83 24.9162 113.006C24.6082 113.182 24.3625 113.439 24.1792 113.776C23.9959 114.113 23.9042 114.509 23.9042 114.964C23.9042 115.426 23.9959 115.829 24.1792 116.174C24.3625 116.511 24.6082 116.772 24.9162 116.955C25.2242 117.131 25.5652 117.219 25.9392 117.219C26.3132 117.219 26.6542 117.131 26.9622 116.955C27.2775 116.772 27.5269 116.511 27.7102 116.174C27.8935 115.829 27.9852 115.43 27.9852 114.975ZM36.0348 111.972V118H35.0338V117.109C34.8431 117.417 34.5755 117.659 34.2308 117.835C33.8935 118.004 33.5195 118.088 33.1088 118.088C32.6395 118.088 32.2178 117.993 31.8438 117.802C31.4698 117.604 31.1728 117.311 30.9528 116.922C30.7401 116.533 30.6338 116.06 30.6338 115.503V111.972H31.6238V115.371C31.6238 115.965 31.7741 116.423 32.0748 116.746C32.3755 117.061 32.7861 117.219 33.3068 117.219C33.8421 117.219 34.2638 117.054 34.5718 116.724C34.8798 116.394 35.0338 115.914 35.0338 115.283V111.972H36.0348ZM37.3509 114.964C37.3509 114.348 37.4756 113.809 37.7249 113.347C37.9743 112.878 38.3153 112.515 38.7479 112.258C39.1879 112.001 39.6793 111.873 40.2219 111.873C40.6913 111.873 41.1276 111.983 41.5309 112.203C41.9343 112.416 42.2423 112.698 42.4549 113.05V109.86H43.4669V118H42.4549V116.867C42.2569 117.226 41.9636 117.523 41.5749 117.758C41.1863 117.985 40.7316 118.099 40.2109 118.099C39.6756 118.099 39.1879 117.967 38.7479 117.703C38.3153 117.439 37.9743 117.069 37.7249 116.592C37.4756 116.115 37.3509 115.573 37.3509 114.964ZM42.4549 114.975C42.4549 114.52 42.3633 114.124 42.1799 113.787C41.9966 113.45 41.7473 113.193 41.4319 113.017C41.1239 112.834 40.7829 112.742 40.4089 112.742C40.0349 112.742 39.6939 112.83 39.3859 113.006C39.0779 113.182 38.8323 113.439 38.6489 113.776C38.4656 114.113 38.3739 114.509 38.3739 114.964C38.3739 115.426 38.4656 115.829 38.6489 116.174C38.8323 116.511 39.0779 116.772 39.3859 116.955C39.6939 117.131 40.0349 117.219 40.4089 117.219C40.7829 117.219 41.1239 117.131 41.4319 116.955C41.7473 116.772 41.9966 116.511 42.1799 116.174C42.3633 115.829 42.4549 115.43 42.4549 114.975ZM44.7845 114.964C44.7845 114.348 44.9092 113.809 45.1585 113.347C45.4079 112.878 45.7489 112.515 46.1815 112.258C46.6215 112.001 47.1092 111.873 47.6445 111.873C48.1725 111.873 48.6309 111.987 49.0195 112.214C49.4082 112.441 49.6979 112.727 49.8885 113.072V111.972H50.9005V118H49.8885V116.878C49.6905 117.23 49.3935 117.523 48.9975 117.758C48.6089 117.985 48.1542 118.099 47.6335 118.099C47.0982 118.099 46.6142 117.967 46.1815 117.703C45.7489 117.439 45.4079 117.069 45.1585 116.592C44.9092 116.115 44.7845 115.573 44.7845 114.964ZM49.8885 114.975C49.8885 114.52 49.7969 114.124 49.6135 113.787C49.4302 113.45 49.1809 113.193 48.8655 113.017C48.5575 112.834 48.2165 112.742 47.8425 112.742C47.4685 112.742 47.1275 112.83 46.8195 113.006C46.5115 113.182 46.2659 113.439 46.0825 113.776C45.8992 114.113 45.8075 114.509 45.8075 114.964C45.8075 115.426 45.8992 115.829 46.0825 116.174C46.2659 116.511 46.5115 116.772 46.8195 116.955C47.1275 117.131 47.4685 117.219 47.8425 117.219C48.2165 117.219 48.5575 117.131 48.8655 116.955C49.1809 116.772 49.4302 116.511 49.6135 116.174C49.7969 115.829 49.8885 115.43 49.8885 114.975ZM53.5931 109.86V118H52.5921V109.86H53.5931ZM60.7991 114.755C60.7991 114.946 60.7881 115.147 60.7661 115.36H55.9481C55.9848 115.954 56.1865 116.42 56.5531 116.757C56.9271 117.087 57.3781 117.252 57.9061 117.252C58.3388 117.252 58.6981 117.153 58.9841 116.955C59.2775 116.75 59.4828 116.478 59.6001 116.141H60.6781C60.5168 116.72 60.1941 117.193 59.7101 117.56C59.2261 117.919 58.6248 118.099 57.9061 118.099C57.3341 118.099 56.8208 117.971 56.3661 117.714C55.9188 117.457 55.5668 117.094 55.3101 116.625C55.0535 116.148 54.9251 115.598 54.9251 114.975C54.9251 114.352 55.0498 113.805 55.2991 113.336C55.5485 112.867 55.8968 112.507 56.3441 112.258C56.7988 112.001 57.3195 111.873 57.9061 111.873C58.4781 111.873 58.9841 111.998 59.4241 112.247C59.8641 112.496 60.2015 112.841 60.4361 113.281C60.6781 113.714 60.7991 114.205 60.7991 114.755ZM59.7651 114.546C59.7651 114.165 59.6808 113.838 59.5121 113.567C59.3435 113.288 59.1125 113.079 58.8191 112.94C58.5331 112.793 58.2141 112.72 57.8621 112.72C57.3561 112.72 56.9235 112.881 56.5641 113.204C56.2121 113.527 56.0105 113.974 55.9591 114.546H59.7651Z" fill="#2D4941"/>
<g clip-path="url(#clip0_226_1584)">
<path d="M49.3773 45.853C49.9553 37.9632 48.6114 17.9254 41.8411 15.1586C40.0926 14.6398 38.2067 15.3747 36.2486 17.3418C30.5984 23.0339 25.5478 38.4532 27.383 44.3975C29.5651 51.4443 35.2154 57.7272 35.9163 58.4838C35.9018 59.7519 35.8874 60.7607 35.8585 61.3947C35.8585 61.4307 35.8585 61.474 35.8585 61.5172C35.8079 61.3587 35.7429 61.2002 35.6851 61.0417C35.1576 59.017 34.0955 57.1724 32.8166 55.4936C32.0218 54.4488 31.1547 53.4473 30.2877 52.4602C29.4567 51.5091 28.5897 50.5868 27.4264 50.0536C27.1085 49.9095 26.8339 50.3779 27.1518 50.522C28.2501 51.0191 29.0593 51.8766 29.8397 52.77C30.6995 53.7499 31.5593 54.7299 32.3469 55.7674C32.8671 56.4519 33.3513 57.1652 33.7848 57.9074C33.6475 57.7344 33.503 57.5615 33.3513 57.3958C31.8773 55.7386 30.1215 53.9949 27.9611 53.3176C27.6287 53.2095 27.4842 53.7355 27.8166 53.8364C29.8469 54.4705 31.4799 56.1205 32.8671 57.6624C33.8137 58.7144 34.6591 59.896 35.1721 61.2074C35.201 61.3155 35.2299 61.4235 35.2588 61.5388C34.7313 60.5661 33.9871 59.7015 33.1345 58.9882C32.253 58.246 31.2776 57.6264 30.2804 57.0572C29.3917 56.5456 28.3585 55.753 27.2747 55.9475C26.9351 56.0124 27.0796 56.5312 27.4192 56.4663C27.9828 56.3654 28.503 56.6825 28.9726 56.9419C29.4278 57.1941 29.8758 57.439 30.3238 57.7056C31.2125 58.2244 32.0868 58.7864 32.8671 59.4637C33.7992 60.2707 34.6013 61.265 35.0781 62.389C33.6764 60.2131 31.3859 58.6207 28.8065 58.1668C28.4669 58.1091 28.3223 58.6279 28.6619 58.6855C31.9278 59.2548 34.7169 61.719 35.6345 64.8965C35.6417 64.9325 35.6634 64.9613 35.6851 64.9901C35.6851 65.1198 35.6706 65.2495 35.6634 65.3864C35.6489 65.653 35.6345 65.898 35.62 66.1574C34.5579 63.2825 32.2458 60.912 29.3556 59.8168C29.0304 59.6943 28.8859 60.2131 29.2111 60.3355C32.4119 61.5532 34.8397 64.4353 35.5261 67.7714C35.5261 67.7786 35.5333 67.7858 35.5406 67.8002C35.5406 67.9227 35.5261 68.038 35.5189 68.1605C34.5651 65.3936 32.6215 63.0087 30.0637 61.5604C29.7602 61.3875 29.4856 61.8559 29.7891 62.0288C31.7472 63.1384 33.3368 64.8172 34.3556 66.7987C33.3729 65.4153 32.0434 64.284 30.49 63.5923C30.1721 63.4482 29.8975 63.9166 30.2154 64.0607C32.7154 65.1775 34.6229 67.4111 35.3021 70.0626C35.3238 70.1347 35.3671 70.1851 35.4177 70.214C35.4177 70.2716 35.4177 70.322 35.4105 70.3725C34.3628 68.2325 32.607 66.4672 30.4322 65.4513C30.1215 65.3072 29.8397 65.7683 30.1576 65.9196C32.477 67.0076 34.3411 68.9747 35.2588 71.3668C35.2804 71.4172 35.3166 71.4533 35.3527 71.4893C35.3527 71.5613 35.3455 71.6334 35.3382 71.7054C34.175 69.6952 32.4697 68.0092 30.4322 66.8851C30.1287 66.7194 29.8541 67.1805 30.1576 67.3535C31.7906 68.2541 33.1851 69.515 34.2544 71.0209C33.2356 69.8681 32.0651 68.8594 30.7429 68.0596C30.4466 67.8795 30.1721 68.3478 30.4683 68.5279C32.3686 69.6808 33.9871 71.2515 35.1937 73.1105C35.2154 73.1393 35.2371 73.1609 35.266 73.1825C35.266 73.305 35.2515 73.4275 35.2515 73.55C34.3845 71.8784 32.9972 70.495 31.292 69.6736C30.9813 69.5223 30.7067 69.9906 31.0174 70.1419C32.9177 71.0642 34.4351 72.6998 35.1721 74.6812C35.1721 74.6956 35.1865 74.7028 35.1937 74.7172C35.1937 74.7965 35.1865 74.8758 35.1793 74.955C34.7891 74.1336 34.2472 73.4059 33.6258 72.743C32.9828 72.0513 32.2602 71.2227 31.3209 70.9561C30.9885 70.8624 30.844 71.3812 31.1764 71.4749C31.6099 71.5974 31.9712 71.8712 32.2963 72.1738C32.6215 72.4764 32.9394 72.7934 33.2429 73.1249C33.3802 73.269 33.5102 73.4203 33.6403 73.5716C32.8238 73.0744 31.8845 72.7502 30.9596 72.534C30.62 72.4548 30.4755 72.9736 30.8151 73.0528C32.4842 73.4419 34.2183 74.1696 35.0276 75.7836C35.0565 75.8341 35.0926 75.8701 35.1287 75.8917C35.107 76.2952 35.0926 76.6843 35.0709 77.0734C34.8541 76.4897 34.5579 75.9421 34.1605 75.4594C33.4741 74.6308 32.4986 74.0688 31.4221 73.9463C31.0752 73.903 31.0825 74.4506 31.4221 74.4867C32.3758 74.5948 33.2356 75.1568 33.8209 75.8989C34.2617 76.4465 34.5434 77.095 34.7241 77.7651C34.0304 76.6266 33.0189 75.6755 31.8122 75.0847C31.5015 74.9334 31.227 75.4017 31.5377 75.5531C33.0333 76.2808 34.2039 77.5705 34.7891 79.1125C33.9799 77.9884 32.8238 77.1166 31.5088 76.6555C31.1764 76.5402 31.0391 77.059 31.3643 77.1742C32.8816 77.7002 34.146 78.8314 34.8614 80.2581C34.8758 80.2941 34.8975 80.3157 34.9192 80.3373C34.3845 92.7736 34.5651 94.6758 34.9408 94.9568C34.9986 94.9929 35.0637 95.0145 35.1287 95.0145C35.1865 95.0145 35.2515 95.0001 35.3021 94.964C35.9524 94.5966 36.3787 88.4 36.6605 81.2812C36.6894 81.274 36.7111 81.2668 36.74 81.2524C37.6215 80.6688 37.9683 79.6601 38.4596 78.7738C39.016 77.7723 39.7024 76.8428 40.5044 76.0142C40.7429 75.762 40.3599 75.3801 40.1215 75.6323C39.3556 76.4249 38.6836 77.3111 38.1273 78.2622C37.6865 79.026 37.3758 80.0059 36.6894 80.6039C36.7039 80.1572 36.7183 79.7105 36.74 79.2638C36.7761 79.2494 36.8122 79.2277 36.8484 79.1917C37.1374 78.8603 37.318 78.4784 37.5131 78.0893C37.7154 77.7002 37.9394 77.3328 38.1923 76.9725C38.6908 76.2736 39.2906 75.6467 39.9625 75.1063C40.2371 74.8902 39.8469 74.5083 39.5796 74.7244C38.9076 75.2648 38.3151 75.8917 37.8093 76.5906C37.5565 76.9365 37.3325 77.2895 37.1302 77.6642C37.0073 77.8876 36.8989 78.1253 36.7761 78.3559C36.7906 78.0028 36.7978 77.6498 36.8122 77.2967C37.7299 75.7332 38.7053 74.0832 40.331 73.1609C40.6345 72.988 40.3599 72.5196 40.0565 72.6926C38.6403 73.4924 37.6793 74.8181 36.8411 76.1871C36.8484 75.8341 36.8628 75.4882 36.87 75.1352C37.253 74.6668 37.6359 74.2057 37.9755 73.7085C38.3223 73.2041 38.5897 72.6637 38.9004 72.1378C39.4712 71.1506 40.2588 70.3725 41.2992 69.8825C41.6171 69.7312 41.3426 69.2701 41.0247 69.4142C40.0059 69.8969 39.175 70.6607 38.5825 71.619C38.2645 72.1378 37.9972 72.6854 37.6721 73.1969C37.4336 73.5644 37.1735 73.9103 36.8989 74.2561C36.9062 73.8526 36.9206 73.4563 36.9278 73.06C36.9567 73.0456 36.9929 73.0312 37.0218 73.0096C37.8599 72.253 38.3079 71.2155 38.9148 70.286C39.5507 69.3133 40.4539 68.5495 41.5449 68.1316C41.87 68.0091 41.7255 67.4832 41.4004 67.6129C40.2804 68.0452 39.3195 68.7801 38.6258 69.76C38.0333 70.5886 37.6359 71.5613 36.9567 72.3179C36.9567 72.1306 36.964 71.936 36.9712 71.7487C37.0362 71.7199 37.094 71.6694 37.1302 71.5902C38.0984 69.0251 39.9264 66.8203 42.2602 65.372C42.5565 65.1919 42.2819 64.7236 41.9856 64.9037C39.8108 66.2511 38.0767 68.2181 37.0001 70.5238C37.0073 70.1059 37.0145 69.6952 37.0218 69.2845C37.0579 69.2629 37.094 69.234 37.1229 69.1836C38.4524 66.5825 40.6056 64.4714 43.2429 63.196C43.5536 63.0447 43.279 62.5764 42.9683 62.7277C40.4972 63.9238 38.4235 65.862 37.0434 68.2253C37.0434 67.8506 37.0579 67.4832 37.0651 67.1229C37.9828 63.9238 41.1258 62.2305 43.9004 60.8399C44.2111 60.6814 43.9365 60.2203 43.6258 60.3716C41.1692 61.6037 38.503 63.0808 37.1518 65.5233C38.6836 62.0288 42.2313 60.2131 45.4828 58.5991C45.7934 58.4478 45.5189 57.9794 45.2082 58.1307C42.6215 59.4133 39.8541 60.8399 38.0117 63.0952C39.5362 60.3572 42.2024 58.4262 44.7674 56.6897C45.0565 56.4951 44.7819 56.0268 44.4929 56.2213C42.1302 57.8209 39.7169 59.5862 38.0984 61.9351C38.4813 61.1569 38.9365 60.4148 39.4784 59.7303C40.4033 58.5703 41.5449 57.6408 42.7082 56.7257C45.0276 54.8956 47.0579 52.8061 48.7197 50.3635C48.9148 50.0753 48.4452 49.8015 48.2501 50.0897C46.451 52.7196 44.2328 54.8163 41.7544 56.7906C39.9481 58.2316 38.4885 59.9032 37.5059 61.9279C37.8744 60.5949 38.4958 59.334 39.3628 58.246C39.5796 57.9794 39.1966 57.5903 38.9799 57.8641C38.1634 58.8873 37.5348 60.0473 37.1302 61.2794C37.1374 60.2563 37.1374 59.5934 37.1302 59.4061C37.1157 59.1323 37.1013 58.8585 37.0868 58.5919C38.2356 58.0299 48.8932 52.6259 49.3845 45.8674L49.3773 45.853ZM35.1937 94.0417C34.8758 90.6769 35.8296 72.5413 36.1981 65.4081C36.292 63.6356 36.3643 62.2377 36.4004 61.4235C36.4365 60.5949 36.451 59.1611 36.4654 57.3526C36.5015 58.0371 36.5377 58.7288 36.581 59.4205C36.6099 60.5949 36.581 63.4122 36.5232 66.9572C36.5232 66.9644 36.5232 66.9716 36.516 66.9788C36.5015 67.0364 36.5088 67.0869 36.516 67.1301C36.3426 76.605 35.8729 91.1596 35.1865 94.0417H35.1937ZM37.0434 57.9866C36.003 38.2802 38.3585 23.7112 41.2125 17.9182L40.7284 17.6804C36.1836 26.6654 36.0102 47.3517 35.9235 57.2949C35.9235 57.4246 35.9235 57.5471 35.9235 57.6768C34.4567 56.0124 29.818 50.4211 27.9033 44.2318C26.1041 38.4316 31.0825 23.3149 36.6316 17.7308C38.438 15.9151 40.1432 15.2306 41.6605 15.6701C48.055 18.2857 49.3845 38.2947 48.8354 45.8169C48.3946 51.9054 38.8281 57.0788 37.0434 57.9938V57.9866Z" fill="#021120"/>
</g>
<defs>
<clipPath id="clip0_226_1584">
<rect width="22.5" height="80" fill="white" transform="translate(27 15)"/>
</clipPath>
</defs>
</svg>
