<svg width="77" height="128" viewBox="0 0 77 128" fill="none" xmlns="http://www.w3.org/2000/svg">
<rect width="77" height="128" rx="10" fill="#F5EFE7"/>
<rect x="0.25" y="0.25" width="76.5" height="127.5" rx="9.75" stroke="#2D4941" stroke-width="0.5"/>
<g clip-path="url(#clip0_58_3519)">
<mask id="path-3-outside-1_58_3519" maskUnits="userSpaceOnUse" x="25.1599" y="14.0059" width="26" height="82" fill="black">
<rect fill="white" x="25.1599" y="14.0059" width="26" height="82"/>
<path d="M50.1254 52.8431C52.0847 32.8096 49.7416 19.9442 46.5439 16.0799C45.9973 15.4145 45.4392 15.0584 44.9043 15.0117C44.852 15.0117 44.7996 15.0059 44.7473 15.0059C40.9158 15 31.4272 28.7643 27.0085 55.0555C24.8631 70.1682 27.1887 75.8362 29.5202 77.9318C29.8167 78.2003 30.1132 78.4046 30.4039 78.5739C30.3051 78.5856 30.2063 78.5914 30.1132 78.6148C29.462 78.7782 28.9678 79.2569 28.5143 79.7238C28.3167 79.9282 28.6248 80.2375 28.8225 80.0332C29.2295 79.6188 29.6539 79.181 30.2295 79.035C30.7528 78.9066 31.2993 79 31.8168 79.1168C31.6947 79.1751 31.5726 79.2393 31.4621 79.3094C30.8981 79.6596 30.4214 80.1208 29.9562 80.5936C29.7586 80.7921 30.0667 81.1014 30.2644 80.903C30.6772 80.4827 31.1016 80.0682 31.59 79.7472C32.0203 79.4612 32.5435 79.2218 33.061 79.3619C31.9679 79.9632 31.1307 80.9964 30.7702 82.193C30.6888 82.4615 31.1074 82.5783 31.1888 82.3098C31.5261 81.189 32.3168 80.2434 33.3517 79.7005C33.4273 79.8698 33.5145 80.0566 33.6133 80.2609C33.1307 80.4769 32.7528 80.868 32.5726 81.3758C32.5319 81.4809 32.6133 81.621 32.7238 81.6443C32.8459 81.6735 32.9505 81.6093 32.9912 81.4925C32.9912 81.4809 33.0028 81.4634 33.0086 81.4517C33.0086 81.4517 33.0086 81.4517 33.0086 81.4458C33.0145 81.4225 33.0319 81.3991 33.0435 81.3758C33.0668 81.3233 33.0959 81.2766 33.1249 81.224C33.1366 81.2007 33.154 81.1773 33.1714 81.154C33.1773 81.1423 33.1831 81.1365 33.1947 81.1248C33.1947 81.1248 33.1947 81.119 33.2005 81.1131C33.2354 81.0723 33.2703 81.0314 33.3052 80.9905C33.3401 80.9497 33.3807 80.9146 33.4214 80.8796C33.4389 80.8621 33.4621 80.8446 33.4796 80.8329C33.4796 80.8329 33.4796 80.8329 33.4854 80.8329C33.497 80.8271 33.5087 80.8154 33.5203 80.8096C33.5668 80.7804 33.6133 80.7512 33.6598 80.722C33.6598 80.722 33.6656 80.722 33.6715 80.722C33.5842 81.154 33.4331 81.5334 33.2005 81.907C33.1366 82.0062 33.1773 82.1522 33.2761 82.2047C33.3866 82.2631 33.5087 82.228 33.5726 82.1288C33.7761 81.8078 33.9273 81.4634 34.0319 81.0956C36.375 85.4853 42.1368 94.2587 42.9624 94.7549C43.2473 94.93 43.5322 95.0175 43.7822 95.0175C43.9857 95.0175 44.1775 94.9592 44.3345 94.8483C44.7182 94.5739 44.852 94.031 44.7008 93.3597C44.5787 92.8227 43.2763 90.7038 41.16 87.2948C39.7937 85.0941 38.2646 82.6308 37.2588 80.8563C37.3867 80.9613 37.5262 81.0547 37.6774 81.1248C38.1832 81.3524 38.7413 81.3641 39.2762 81.4692C39.3925 81.4925 39.5088 81.4342 39.5437 81.3174C39.5728 81.2124 39.5088 81.0723 39.3925 81.0489C38.91 80.9555 38.4041 80.9438 37.939 80.7629C37.6657 80.6578 37.4099 80.471 37.2762 80.2083C37.689 80.2083 38.1018 80.1733 38.5146 80.2083C38.91 80.2434 39.3402 80.3893 39.5553 80.7454C39.7007 80.9847 40.0786 80.7629 39.9332 80.5236C39.6774 80.0974 39.2123 79.8698 38.7355 79.7939C38.6134 79.7764 38.4972 79.7705 38.3751 79.7647C38.5902 79.6771 38.8053 79.5896 39.0262 79.5254C39.5263 79.3794 40.1251 79.3619 40.5088 79.7647C40.7065 79.969 41.0147 79.6596 40.817 79.4553C40.41 79.035 39.8053 78.9417 39.2472 79.0292C39.1193 79.0526 38.9914 79.0876 38.8693 79.1226C39.2181 78.9241 39.5902 78.6848 39.9856 78.3988C40.5844 78.1595 41.2879 78.3404 41.6717 78.9008C41.8286 79.1343 42.2066 78.9125 42.0496 78.679C41.7821 78.282 41.3751 77.9902 40.9042 77.8909C40.8751 77.8851 40.8461 77.8909 40.817 77.8793C41.4565 77.4531 42.1891 77.0737 42.9508 77.3656C43.0612 77.4064 43.1891 77.3189 43.2182 77.2138C43.2531 77.0912 43.1775 76.9862 43.067 76.9453C42.5787 76.7585 42.1019 76.811 41.6484 76.9687C44.9043 73.6764 48.7358 66.8818 50.1079 52.8665L50.1254 52.8431ZM27.4387 55.1197C29.9214 40.3572 33.7529 30.7198 36.532 25.2328C40.0728 18.2397 43.2356 15.2744 44.8636 15.4437C45.2822 15.4787 45.7473 15.7939 46.2125 16.3601C48.5555 19.1912 51.9219 30.0485 49.6951 52.7964C47.3927 76.3557 37.875 79.2627 36.5785 79.5487C36.3983 79.1868 36.2704 78.895 36.2006 78.6965L36.1599 78.5739C29.8574 59.7603 36.1483 37.4035 41.1309 24.4272C42.4449 21.0942 43.6891 18.2339 44.7008 16.0215L44.3054 15.8348C42.5496 19.5648 41.0495 23.1605 39.7763 26.6104C35.2994 38.2908 32.6017 49.1773 31.7412 59.0715C31.1074 66.3156 31.4795 72.6841 32.84 78.0194L32.9738 78.5214C32.9912 78.5914 33.0086 78.6556 33.0261 78.714C32.5086 78.7782 31.154 78.8016 29.8167 77.5874C27.5725 75.556 25.3399 70.0106 27.4562 55.1139L27.4387 55.1197ZM44.2822 93.4356C44.3868 93.9201 44.3171 94.3112 44.0845 94.4747C43.8752 94.6264 43.5496 94.5856 43.1891 94.3638C42.2531 93.7975 33.9738 80.9088 33.4912 78.8424C33.468 78.7373 33.4273 78.5914 33.3808 78.4105L33.2528 77.9085C30.5028 67.1387 32.1133 54.3842 35.061 42.9139C31.1598 61.8734 34.2936 74.3944 35.7413 78.714L35.782 78.8307C35.8634 79.0817 36.0204 79.432 36.2587 79.8931C36.3808 80.1325 36.5262 80.401 36.6832 80.687C37.6774 82.4907 39.3344 85.1584 40.7995 87.5108C42.4624 90.1843 44.1775 92.9453 44.288 93.4415L44.2822 93.4356Z"/>
</mask>
<path d="M50.1254 52.8431C52.0847 32.8096 49.7416 19.9442 46.5439 16.0799C45.9973 15.4145 45.4392 15.0584 44.9043 15.0117C44.852 15.0117 44.7996 15.0059 44.7473 15.0059C40.9158 15 31.4272 28.7643 27.0085 55.0555C24.8631 70.1682 27.1887 75.8362 29.5202 77.9318C29.8167 78.2003 30.1132 78.4046 30.4039 78.5739C30.3051 78.5856 30.2063 78.5914 30.1132 78.6148C29.462 78.7782 28.9678 79.2569 28.5143 79.7238C28.3167 79.9282 28.6248 80.2375 28.8225 80.0332C29.2295 79.6188 29.6539 79.181 30.2295 79.035C30.7528 78.9066 31.2993 79 31.8168 79.1168C31.6947 79.1751 31.5726 79.2393 31.4621 79.3094C30.8981 79.6596 30.4214 80.1208 29.9562 80.5936C29.7586 80.7921 30.0667 81.1014 30.2644 80.903C30.6772 80.4827 31.1016 80.0682 31.59 79.7472C32.0203 79.4612 32.5435 79.2218 33.061 79.3619C31.9679 79.9632 31.1307 80.9964 30.7702 82.193C30.6888 82.4615 31.1074 82.5783 31.1888 82.3098C31.5261 81.189 32.3168 80.2434 33.3517 79.7005C33.4273 79.8698 33.5145 80.0566 33.6133 80.2609C33.1307 80.4769 32.7528 80.868 32.5726 81.3758C32.5319 81.4809 32.6133 81.621 32.7238 81.6443C32.8459 81.6735 32.9505 81.6093 32.9912 81.4925C32.9912 81.4809 33.0028 81.4634 33.0086 81.4517C33.0086 81.4517 33.0086 81.4517 33.0086 81.4458C33.0145 81.4225 33.0319 81.3991 33.0435 81.3758C33.0668 81.3233 33.0959 81.2766 33.1249 81.224C33.1366 81.2007 33.154 81.1773 33.1714 81.154C33.1773 81.1423 33.1831 81.1365 33.1947 81.1248C33.1947 81.1248 33.1947 81.119 33.2005 81.1131C33.2354 81.0723 33.2703 81.0314 33.3052 80.9905C33.3401 80.9497 33.3807 80.9146 33.4214 80.8796C33.4389 80.8621 33.4621 80.8446 33.4796 80.8329C33.4796 80.8329 33.4796 80.8329 33.4854 80.8329C33.497 80.8271 33.5087 80.8154 33.5203 80.8096C33.5668 80.7804 33.6133 80.7512 33.6598 80.722C33.6598 80.722 33.6656 80.722 33.6715 80.722C33.5842 81.154 33.4331 81.5334 33.2005 81.907C33.1366 82.0062 33.1773 82.1522 33.2761 82.2047C33.3866 82.2631 33.5087 82.228 33.5726 82.1288C33.7761 81.8078 33.9273 81.4634 34.0319 81.0956C36.375 85.4853 42.1368 94.2587 42.9624 94.7549C43.2473 94.93 43.5322 95.0175 43.7822 95.0175C43.9857 95.0175 44.1775 94.9592 44.3345 94.8483C44.7182 94.5739 44.852 94.031 44.7008 93.3597C44.5787 92.8227 43.2763 90.7038 41.16 87.2948C39.7937 85.0941 38.2646 82.6308 37.2588 80.8563C37.3867 80.9613 37.5262 81.0547 37.6774 81.1248C38.1832 81.3524 38.7413 81.3641 39.2762 81.4692C39.3925 81.4925 39.5088 81.4342 39.5437 81.3174C39.5728 81.2124 39.5088 81.0723 39.3925 81.0489C38.91 80.9555 38.4041 80.9438 37.939 80.7629C37.6657 80.6578 37.4099 80.471 37.2762 80.2083C37.689 80.2083 38.1018 80.1733 38.5146 80.2083C38.91 80.2434 39.3402 80.3893 39.5553 80.7454C39.7007 80.9847 40.0786 80.7629 39.9332 80.5236C39.6774 80.0974 39.2123 79.8698 38.7355 79.7939C38.6134 79.7764 38.4972 79.7705 38.3751 79.7647C38.5902 79.6771 38.8053 79.5896 39.0262 79.5254C39.5263 79.3794 40.1251 79.3619 40.5088 79.7647C40.7065 79.969 41.0147 79.6596 40.817 79.4553C40.41 79.035 39.8053 78.9417 39.2472 79.0292C39.1193 79.0526 38.9914 79.0876 38.8693 79.1226C39.2181 78.9241 39.5902 78.6848 39.9856 78.3988C40.5844 78.1595 41.2879 78.3404 41.6717 78.9008C41.8286 79.1343 42.2066 78.9125 42.0496 78.679C41.7821 78.282 41.3751 77.9902 40.9042 77.8909C40.8751 77.8851 40.8461 77.8909 40.817 77.8793C41.4565 77.4531 42.1891 77.0737 42.9508 77.3656C43.0612 77.4064 43.1891 77.3189 43.2182 77.2138C43.2531 77.0912 43.1775 76.9862 43.067 76.9453C42.5787 76.7585 42.1019 76.811 41.6484 76.9687C44.9043 73.6764 48.7358 66.8818 50.1079 52.8665L50.1254 52.8431ZM27.4387 55.1197C29.9214 40.3572 33.7529 30.7198 36.532 25.2328C40.0728 18.2397 43.2356 15.2744 44.8636 15.4437C45.2822 15.4787 45.7473 15.7939 46.2125 16.3601C48.5555 19.1912 51.9219 30.0485 49.6951 52.7964C47.3927 76.3557 37.875 79.2627 36.5785 79.5487C36.3983 79.1868 36.2704 78.895 36.2006 78.6965L36.1599 78.5739C29.8574 59.7603 36.1483 37.4035 41.1309 24.4272C42.4449 21.0942 43.6891 18.2339 44.7008 16.0215L44.3054 15.8348C42.5496 19.5648 41.0495 23.1605 39.7763 26.6104C35.2994 38.2908 32.6017 49.1773 31.7412 59.0715C31.1074 66.3156 31.4795 72.6841 32.84 78.0194L32.9738 78.5214C32.9912 78.5914 33.0086 78.6556 33.0261 78.714C32.5086 78.7782 31.154 78.8016 29.8167 77.5874C27.5725 75.556 25.3399 70.0106 27.4562 55.1139L27.4387 55.1197ZM44.2822 93.4356C44.3868 93.9201 44.3171 94.3112 44.0845 94.4747C43.8752 94.6264 43.5496 94.5856 43.1891 94.3638C42.2531 93.7975 33.9738 80.9088 33.4912 78.8424C33.468 78.7373 33.4273 78.5914 33.3808 78.4105L33.2528 77.9085C30.5028 67.1387 32.1133 54.3842 35.061 42.9139C31.1598 61.8734 34.2936 74.3944 35.7413 78.714L35.782 78.8307C35.8634 79.0817 36.0204 79.432 36.2587 79.8931C36.3808 80.1325 36.5262 80.401 36.6832 80.687C37.6774 82.4907 39.3344 85.1584 40.7995 87.5108C42.4624 90.1843 44.1775 92.9453 44.288 93.4415L44.2822 93.4356Z" fill="#2D4941"/>
<path d="M50.1254 52.8431C52.0847 32.8096 49.7416 19.9442 46.5439 16.0799C45.9973 15.4145 45.4392 15.0584 44.9043 15.0117C44.852 15.0117 44.7996 15.0059 44.7473 15.0059C40.9158 15 31.4272 28.7643 27.0085 55.0555C24.8631 70.1682 27.1887 75.8362 29.5202 77.9318C29.8167 78.2003 30.1132 78.4046 30.4039 78.5739C30.3051 78.5856 30.2063 78.5914 30.1132 78.6148C29.462 78.7782 28.9678 79.2569 28.5143 79.7238C28.3167 79.9282 28.6248 80.2375 28.8225 80.0332C29.2295 79.6188 29.6539 79.181 30.2295 79.035C30.7528 78.9066 31.2993 79 31.8168 79.1168C31.6947 79.1751 31.5726 79.2393 31.4621 79.3094C30.8981 79.6596 30.4214 80.1208 29.9562 80.5936C29.7586 80.7921 30.0667 81.1014 30.2644 80.903C30.6772 80.4827 31.1016 80.0682 31.59 79.7472C32.0203 79.4612 32.5435 79.2218 33.061 79.3619C31.9679 79.9632 31.1307 80.9964 30.7702 82.193C30.6888 82.4615 31.1074 82.5783 31.1888 82.3098C31.5261 81.189 32.3168 80.2434 33.3517 79.7005C33.4273 79.8698 33.5145 80.0566 33.6133 80.2609C33.1307 80.4769 32.7528 80.868 32.5726 81.3758C32.5319 81.4809 32.6133 81.621 32.7238 81.6443C32.8459 81.6735 32.9505 81.6093 32.9912 81.4925C32.9912 81.4809 33.0028 81.4634 33.0086 81.4517C33.0086 81.4517 33.0086 81.4517 33.0086 81.4458C33.0145 81.4225 33.0319 81.3991 33.0435 81.3758C33.0668 81.3233 33.0959 81.2766 33.1249 81.224C33.1366 81.2007 33.154 81.1773 33.1714 81.154C33.1773 81.1423 33.1831 81.1365 33.1947 81.1248C33.1947 81.1248 33.1947 81.119 33.2005 81.1131C33.2354 81.0723 33.2703 81.0314 33.3052 80.9905C33.3401 80.9497 33.3807 80.9146 33.4214 80.8796C33.4389 80.8621 33.4621 80.8446 33.4796 80.8329C33.4796 80.8329 33.4796 80.8329 33.4854 80.8329C33.497 80.8271 33.5087 80.8154 33.5203 80.8096C33.5668 80.7804 33.6133 80.7512 33.6598 80.722C33.6598 80.722 33.6656 80.722 33.6715 80.722C33.5842 81.154 33.4331 81.5334 33.2005 81.907C33.1366 82.0062 33.1773 82.1522 33.2761 82.2047C33.3866 82.2631 33.5087 82.228 33.5726 82.1288C33.7761 81.8078 33.9273 81.4634 34.0319 81.0956C36.375 85.4853 42.1368 94.2587 42.9624 94.7549C43.2473 94.93 43.5322 95.0175 43.7822 95.0175C43.9857 95.0175 44.1775 94.9592 44.3345 94.8483C44.7182 94.5739 44.852 94.031 44.7008 93.3597C44.5787 92.8227 43.2763 90.7038 41.16 87.2948C39.7937 85.0941 38.2646 82.6308 37.2588 80.8563C37.3867 80.9613 37.5262 81.0547 37.6774 81.1248C38.1832 81.3524 38.7413 81.3641 39.2762 81.4692C39.3925 81.4925 39.5088 81.4342 39.5437 81.3174C39.5728 81.2124 39.5088 81.0723 39.3925 81.0489C38.91 80.9555 38.4041 80.9438 37.939 80.7629C37.6657 80.6578 37.4099 80.471 37.2762 80.2083C37.689 80.2083 38.1018 80.1733 38.5146 80.2083C38.91 80.2434 39.3402 80.3893 39.5553 80.7454C39.7007 80.9847 40.0786 80.7629 39.9332 80.5236C39.6774 80.0974 39.2123 79.8698 38.7355 79.7939C38.6134 79.7764 38.4972 79.7705 38.3751 79.7647C38.5902 79.6771 38.8053 79.5896 39.0262 79.5254C39.5263 79.3794 40.1251 79.3619 40.5088 79.7647C40.7065 79.969 41.0147 79.6596 40.817 79.4553C40.41 79.035 39.8053 78.9417 39.2472 79.0292C39.1193 79.0526 38.9914 79.0876 38.8693 79.1226C39.2181 78.9241 39.5902 78.6848 39.9856 78.3988C40.5844 78.1595 41.2879 78.3404 41.6717 78.9008C41.8286 79.1343 42.2066 78.9125 42.0496 78.679C41.7821 78.282 41.3751 77.9902 40.9042 77.8909C40.8751 77.8851 40.8461 77.8909 40.817 77.8793C41.4565 77.4531 42.1891 77.0737 42.9508 77.3656C43.0612 77.4064 43.1891 77.3189 43.2182 77.2138C43.2531 77.0912 43.1775 76.9862 43.067 76.9453C42.5787 76.7585 42.1019 76.811 41.6484 76.9687C44.9043 73.6764 48.7358 66.8818 50.1079 52.8665L50.1254 52.8431ZM27.4387 55.1197C29.9214 40.3572 33.7529 30.7198 36.532 25.2328C40.0728 18.2397 43.2356 15.2744 44.8636 15.4437C45.2822 15.4787 45.7473 15.7939 46.2125 16.3601C48.5555 19.1912 51.9219 30.0485 49.6951 52.7964C47.3927 76.3557 37.875 79.2627 36.5785 79.5487C36.3983 79.1868 36.2704 78.895 36.2006 78.6965L36.1599 78.5739C29.8574 59.7603 36.1483 37.4035 41.1309 24.4272C42.4449 21.0942 43.6891 18.2339 44.7008 16.0215L44.3054 15.8348C42.5496 19.5648 41.0495 23.1605 39.7763 26.6104C35.2994 38.2908 32.6017 49.1773 31.7412 59.0715C31.1074 66.3156 31.4795 72.6841 32.84 78.0194L32.9738 78.5214C32.9912 78.5914 33.0086 78.6556 33.0261 78.714C32.5086 78.7782 31.154 78.8016 29.8167 77.5874C27.5725 75.556 25.3399 70.0106 27.4562 55.1139L27.4387 55.1197ZM44.2822 93.4356C44.3868 93.9201 44.3171 94.3112 44.0845 94.4747C43.8752 94.6264 43.5496 94.5856 43.1891 94.3638C42.2531 93.7975 33.9738 80.9088 33.4912 78.8424C33.468 78.7373 33.4273 78.5914 33.3808 78.4105L33.2528 77.9085C30.5028 67.1387 32.1133 54.3842 35.061 42.9139C31.1598 61.8734 34.2936 74.3944 35.7413 78.714L35.782 78.8307C35.8634 79.0817 36.0204 79.432 36.2587 79.8931C36.3808 80.1325 36.5262 80.401 36.6832 80.687C37.6774 82.4907 39.3344 85.1584 40.7995 87.5108C42.4624 90.1843 44.1775 92.9453 44.288 93.4415L44.2822 93.4356Z" stroke="#021120" stroke-width="0.2" mask="url(#path-3-outside-1_58_3519)"/>
</g>
<path d="M16.8401 111L15.0141 107.865H13.8041V111H12.8031V103.333H15.2781C15.8574 103.333 16.3451 103.432 16.7411 103.63C17.1444 103.828 17.4451 104.096 17.6431 104.433C17.8411 104.77 17.9401 105.155 17.9401 105.588C17.9401 106.116 17.7861 106.582 17.4781 106.985C17.1774 107.388 16.7227 107.656 16.1141 107.788L18.0391 111H16.8401ZM13.8041 107.062H15.2781C15.8207 107.062 16.2277 106.93 16.4991 106.666C16.7704 106.395 16.9061 106.035 16.9061 105.588C16.9061 105.133 16.7704 104.781 16.4991 104.532C16.2351 104.283 15.8281 104.158 15.2781 104.158H13.8041V107.062ZM24.9954 107.755C24.9954 107.946 24.9844 108.147 24.9624 108.36H20.1444C20.1811 108.954 20.3828 109.42 20.7494 109.757C21.1234 110.087 21.5744 110.252 22.1024 110.252C22.5351 110.252 22.8944 110.153 23.1804 109.955C23.4738 109.75 23.6791 109.478 23.7964 109.141H24.8744C24.7131 109.72 24.3904 110.193 23.9064 110.56C23.4224 110.919 22.8211 111.099 22.1024 111.099C21.5304 111.099 21.0171 110.971 20.5624 110.714C20.1151 110.457 19.7631 110.094 19.5064 109.625C19.2498 109.148 19.1214 108.598 19.1214 107.975C19.1214 107.352 19.2461 106.805 19.4954 106.336C19.7448 105.867 20.0931 105.507 20.5404 105.258C20.9951 105.001 21.5158 104.873 22.1024 104.873C22.6744 104.873 23.1804 104.998 23.6204 105.247C24.0604 105.496 24.3978 105.841 24.6324 106.281C24.8744 106.714 24.9954 107.205 24.9954 107.755ZM23.9614 107.546C23.9614 107.165 23.8771 106.838 23.7084 106.567C23.5398 106.288 23.3088 106.079 23.0154 105.94C22.7294 105.793 22.4104 105.72 22.0584 105.72C21.5524 105.72 21.1198 105.881 20.7604 106.204C20.4084 106.527 20.2068 106.974 20.1554 107.546H23.9614ZM25.9427 107.975C25.9427 107.352 26.0674 106.809 26.3167 106.347C26.5661 105.878 26.9107 105.515 27.3507 105.258C27.7981 105.001 28.3077 104.873 28.8797 104.873C29.6204 104.873 30.2291 105.053 30.7057 105.412C31.1897 105.771 31.5087 106.27 31.6627 106.908H30.5847C30.4821 106.541 30.2804 106.252 29.9797 106.039C29.6864 105.826 29.3197 105.72 28.8797 105.72C28.3077 105.72 27.8457 105.918 27.4937 106.314C27.1417 106.703 26.9657 107.256 26.9657 107.975C26.9657 108.701 27.1417 109.262 27.4937 109.658C27.8457 110.054 28.3077 110.252 28.8797 110.252C29.3197 110.252 29.6864 110.149 29.9797 109.944C30.2731 109.739 30.4747 109.445 30.5847 109.064H31.6627C31.5014 109.68 31.1787 110.175 30.6947 110.549C30.2107 110.916 29.6057 111.099 28.8797 111.099C28.3077 111.099 27.7981 110.971 27.3507 110.714C26.9107 110.457 26.5661 110.094 26.3167 109.625C26.0674 109.156 25.9427 108.606 25.9427 107.975ZM34.2194 105.797V109.35C34.2194 109.643 34.2817 109.852 34.4064 109.977C34.531 110.094 34.7474 110.153 35.0554 110.153H35.7924V111H34.8904C34.333 111 33.915 110.872 33.6364 110.615C33.3577 110.358 33.2184 109.937 33.2184 109.35V105.797H32.4374V104.972H33.2184V103.454H34.2194V104.972H35.7924V105.797H34.2194ZM38.0062 105.951C38.1822 105.606 38.4315 105.339 38.7542 105.148C39.0842 104.957 39.4839 104.862 39.9532 104.862V105.896H39.6892C38.5672 105.896 38.0062 106.505 38.0062 107.722V111H37.0052V104.972H38.0062V105.951ZM41.6257 103.993C41.4351 103.993 41.2737 103.927 41.1417 103.795C41.0097 103.663 40.9437 103.502 40.9437 103.311C40.9437 103.12 41.0097 102.959 41.1417 102.827C41.2737 102.695 41.4351 102.629 41.6257 102.629C41.8091 102.629 41.9631 102.695 42.0877 102.827C42.2197 102.959 42.2857 103.12 42.2857 103.311C42.2857 103.502 42.2197 103.663 42.0877 103.795C41.9631 103.927 41.8091 103.993 41.6257 103.993ZM42.1097 104.972V111H41.1087V104.972H42.1097ZM43.4418 107.975C43.4418 107.352 43.5664 106.809 43.8158 106.347C44.0651 105.878 44.4098 105.515 44.8498 105.258C45.2971 105.001 45.8068 104.873 46.3788 104.873C47.1194 104.873 47.7281 105.053 48.2048 105.412C48.6888 105.771 49.0078 106.27 49.1618 106.908H48.0838C47.9811 106.541 47.7794 106.252 47.4788 106.039C47.1854 105.826 46.8188 105.72 46.3788 105.72C45.8068 105.72 45.3448 105.918 44.9928 106.314C44.6408 106.703 44.4648 107.256 44.4648 107.975C44.4648 108.701 44.6408 109.262 44.9928 109.658C45.3448 110.054 45.8068 110.252 46.3788 110.252C46.8188 110.252 47.1854 110.149 47.4788 109.944C47.7721 109.739 47.9738 109.445 48.0838 109.064H49.1618C49.0004 109.68 48.6778 110.175 48.1938 110.549C47.7098 110.916 47.1048 111.099 46.3788 111.099C45.8068 111.099 45.2971 110.971 44.8498 110.714C44.4098 110.457 44.0651 110.094 43.8158 109.625C43.5664 109.156 43.4418 108.606 43.4418 107.975ZM55.9974 107.755C55.9974 107.946 55.9864 108.147 55.9644 108.36H51.1464C51.1831 108.954 51.3847 109.42 51.7514 109.757C52.1254 110.087 52.5764 110.252 53.1044 110.252C53.5371 110.252 53.8964 110.153 54.1824 109.955C54.4757 109.75 54.6811 109.478 54.7984 109.141H55.8764C55.7151 109.72 55.3924 110.193 54.9084 110.56C54.4244 110.919 53.8231 111.099 53.1044 111.099C52.5324 111.099 52.0191 110.971 51.5644 110.714C51.1171 110.457 50.7651 110.094 50.5084 109.625C50.2517 109.148 50.1234 108.598 50.1234 107.975C50.1234 107.352 50.2481 106.805 50.4974 106.336C50.7467 105.867 51.0951 105.507 51.5424 105.258C51.9971 105.001 52.5177 104.873 53.1044 104.873C53.6764 104.873 54.1824 104.998 54.6224 105.247C55.0624 105.496 55.3997 105.841 55.6344 106.281C55.8764 106.714 55.9974 107.205 55.9974 107.755ZM54.9634 107.546C54.9634 107.165 54.8791 106.838 54.7104 106.567C54.5417 106.288 54.3107 106.079 54.0174 105.94C53.7314 105.793 53.4124 105.72 53.0604 105.72C52.5544 105.72 52.1217 105.881 51.7624 106.204C51.4104 106.527 51.2087 106.974 51.1574 107.546H54.9634ZM61.2523 104.147V106.71H64.0463V107.535H61.2523V110.175H64.3763V111H60.2513V103.322H64.3763V104.147H61.2523Z" fill="#2D4941"/>
<defs>
<clipPath id="clip0_58_3519">
<rect width="24.6809" height="80" fill="white" transform="translate(26.1597 15)"/>
</clipPath>
</defs>
</svg>
