<svg width="58" height="81" viewBox="0 0 58 81" fill="none" xmlns="http://www.w3.org/2000/svg">
<path d="M52.7496 2.90471L52.7498 2.90501L52.75 2.90524L52.7502 2.90546L52.7502 2.90555L52.8794 3.06687L53.086 3.08927L53.0861 3.08928L53.0866 3.08934L53.0889 3.08959L53.0985 3.09064L53.1366 3.09489C53.1702 3.09866 53.2197 3.10428 53.2828 3.11164C53.4091 3.12637 53.5899 3.14803 53.807 3.17568C54.2417 3.23106 54.8194 3.31014 55.3954 3.40533C55.8115 3.4741 56.2188 3.55001 56.5677 3.62979C56.2192 3.70923 55.8123 3.78474 55.3967 3.85313C54.821 3.94785 54.2436 4.02647 53.809 4.0815C53.592 4.10898 53.4113 4.13049 53.285 4.14512C53.2219 4.15243 53.1724 4.15801 53.1389 4.16175L53.1008 4.16597L53.0912 4.16701L53.0889 4.16726L53.0884 4.16732L53.0883 4.16733L52.8372 4.19436L52.71 4.41243L50.8937 7.52456L50.8213 7.64858L50.8258 7.79203V7.79211V7.79214L50.8258 7.79292L50.8259 7.79672L50.8264 7.81315L50.8278 7.88017C50.829 7.93963 50.8303 8.02807 50.831 8.14222C50.8325 8.37055 50.8314 8.70149 50.8213 9.10881C50.8011 9.9242 50.7448 11.042 50.6009 12.2535C50.4567 13.4668 50.2259 14.7626 49.8606 15.9382C49.4933 17.1204 49.0017 18.1419 48.3591 18.8414L48.359 18.8414C46.2493 21.1385 43.0699 24.0556 39.0292 24.8958L38.2476 25.0583L38.735 25.6906L42.4756 30.5433L42.591 30.693L42.7766 30.7289L48.7861 31.8917L49.118 32.4159H41.7181H37.5648H32.5832L32.8596 32.0409L35.7927 31.347L36.3394 31.2177L36.1476 30.6896L34.1037 25.0654L34.0077 24.8014L33.7323 24.746C33.4938 24.6981 33.2598 24.6509 33.0301 24.6045C30.4218 24.0785 28.3704 23.6648 26.6294 23.4843C24.7213 23.2864 23.1482 23.3634 21.5706 23.8877L21.5703 23.8879C19.9722 24.4203 15.7154 26.4488 11.9027 28.3195C9.9863 29.2597 8.16764 30.1673 6.8282 30.8398C6.15844 31.1761 5.60838 31.4536 5.22571 31.6472C5.12795 31.6966 5.0411 31.7405 4.96598 31.7786L2.84266 29.466L22.4468 20.9314L23.2342 20.5886L22.5474 20.0731L22.0272 19.6826L22.238 19.515C22.6957 19.1511 23.3517 18.6299 24.1446 18.0003C25.7303 16.7411 27.8635 15.0488 30.0534 13.3161C34.4425 9.84328 39.035 6.22775 39.9306 5.58976C40.4281 5.23535 40.9458 4.71597 41.4719 4.17494C41.5419 4.103 41.6122 4.0304 41.683 3.95733C42.1566 3.46869 42.6511 2.95852 43.1875 2.47799C44.4242 1.37012 45.799 0.5 47.428 0.5C49.1228 0.5 50.4557 1.10337 51.3704 1.7123C51.8277 2.01671 52.1775 2.32069 52.4112 2.54666C52.528 2.65949 52.6153 2.75238 52.6721 2.81548C52.7005 2.84701 52.7213 2.87105 52.7342 2.88635L52.7478 2.90257L52.7496 2.90471ZM41.3966 31.1835L41.8828 30.9222L41.5749 30.4641L38.1086 25.3076L37.9454 25.0649L37.6539 25.0881C36.8282 25.1539 35.9651 25.1222 35.0676 24.986L34.1285 24.8435L34.5426 25.6983L37.0159 30.8044L37.1001 30.9783L37.2793 31.0504L39.5584 31.9672L39.7756 32.0546L39.9817 31.9438L41.3966 31.1835Z" stroke="#B6DCFA"/>
<path d="M0.646447 42.6464C0.451184 42.8417 0.451184 43.1583 0.646447 43.3536L3.82843 46.5355C4.02369 46.7308 4.34027 46.7308 4.53553 46.5355C4.7308 46.3403 4.7308 46.0237 4.53553 45.8284L1.70711 43L4.53553 40.1716C4.7308 39.9763 4.7308 39.6597 4.53553 39.4645C4.34027 39.2692 4.02369 39.2692 3.82843 39.4645L0.646447 42.6464ZM57.1675 43.3536C57.3628 43.1583 57.3628 42.8417 57.1675 42.6464L53.9855 39.4645C53.7903 39.2692 53.4737 39.2692 53.2784 39.4645C53.0832 39.6597 53.0832 39.9763 53.2784 40.1716L56.1068 43L53.2784 45.8284C53.0832 46.0237 53.0832 46.3403 53.2784 46.5355C53.4737 46.7308 53.7903 46.7308 53.9855 46.5355L57.1675 43.3536ZM1 43.5H56.814V42.5H1V43.5Z" fill="#B6DCFA"/>
<path d="M46.1355 58.1C45.6422 58.1 45.1989 57.9867 44.8055 57.76C44.4122 57.5333 44.1055 57.2267 43.8855 56.84C43.6722 56.4467 43.5655 56.0167 43.5655 55.55C43.5655 55.0833 43.6722 54.6567 43.8855 54.27C44.1055 53.8767 44.4122 53.5667 44.8055 53.34C45.1989 53.1067 45.6422 52.99 46.1355 52.99C46.7289 52.99 47.2355 53.1533 47.6555 53.48C48.0755 53.8 48.3589 54.2233 48.5055 54.75L47.4355 55.05C47.3489 54.75 47.1889 54.51 46.9555 54.33C46.7289 54.1433 46.4555 54.05 46.1355 54.05C45.7222 54.05 45.3855 54.1933 45.1255 54.48C44.8722 54.7667 44.7455 55.1233 44.7455 55.55C44.7455 55.9767 44.8722 56.3333 45.1255 56.62C45.3855 56.9067 45.7222 57.05 46.1355 57.05C46.4555 57.05 46.7289 56.96 46.9555 56.78C47.1822 56.6 47.3389 56.36 47.4255 56.06L48.4955 56.37C48.3422 56.89 48.0555 57.31 47.6355 57.63C47.2222 57.9433 46.7222 58.1 46.1355 58.1ZM49.8091 58V54.72L48.9591 53.67L49.8491 52.94L50.6091 53.9C50.7691 53.6133 50.9858 53.39 51.2591 53.23C51.5391 53.07 51.8625 52.99 52.2291 52.99C52.5758 52.99 52.8925 53.0633 53.1791 53.21C53.4725 53.3567 53.7025 53.5633 53.8691 53.83C54.0291 53.5633 54.2425 53.3567 54.5091 53.21C54.7825 53.0633 55.0991 52.99 55.4591 52.99C55.8325 52.99 56.1658 53.07 56.4591 53.23C56.7591 53.39 56.9925 53.6233 57.1591 53.93C57.3325 54.2367 57.4191 54.5967 57.4191 55.01V58H56.2491V55.07C56.2491 54.77 56.1525 54.5267 55.9591 54.34C55.7658 54.1467 55.5225 54.05 55.2291 54.05C54.9291 54.05 54.6825 54.1467 54.4891 54.34C54.3025 54.5267 54.2091 54.77 54.2091 55.07V58H53.0291V55.07C53.0291 54.77 52.9325 54.5267 52.7391 54.34C52.5458 54.1467 52.3025 54.05 52.0091 54.05C51.7158 54.05 51.4725 54.1467 51.2791 54.34C51.0858 54.5267 50.9891 54.77 50.9891 55.07V58H49.8091Z" fill="#F8F8F8"/>
<path d="M14.158 63.23C16.5373 63.316 18.415 64.133 19.791 65.681C21.167 67.2003 21.855 69.1497 21.855 71.529C21.855 73.1917 21.4537 74.6967 20.651 76.044C19.8483 77.3913 18.7017 78.4663 17.211 79.269C15.749 80.043 14.0577 80.43 12.137 80.43C10.1017 80.43 8.33867 80.0287 6.848 79.226C5.386 78.4233 4.268 77.3483 3.494 76.001C2.74867 74.625 2.376 73.12 2.376 71.486H7.407C7.407 72.7473 7.82267 73.808 8.654 74.668C9.48533 75.4993 10.675 75.915 12.223 75.915C13.6563 75.915 14.7743 75.528 15.577 74.754C16.4083 73.98 16.824 72.9623 16.824 71.701C16.824 70.4683 16.4083 69.465 15.577 68.691C14.7743 67.8883 13.685 67.487 12.309 67.487H8.052L7.02 64.434L13.943 57.468H3.924V52.91H19.748L20.737 56.608L14.158 63.23ZM42.9018 69.981H46.0408V74.496H42.9018V80H37.8278V74.496H26.9918L24.4118 71.271L36.8818 52.136L40.6228 54.716L30.7328 69.981H37.8278V65.165H42.9018V69.981Z" fill="#F8F8F8"/>
</svg>
