<svg width="128" height="81" viewBox="0 0 128 81" fill="none" xmlns="http://www.w3.org/2000/svg">
<path d="M70.3797 31.0405C70.3797 26.2134 74.3065 22.2866 79.1336 22.2866C83.9607 22.2866 87.8875 26.2134 87.8875 31.0405C87.8875 35.8676 83.9607 39.7944 79.1336 39.7944C74.3065 39.7944 70.3797 35.8676 70.3797 31.0405ZM71.6823 31.0405C71.6823 35.149 75.0251 38.4918 79.1336 38.4918C83.2421 38.4918 86.5848 35.149 86.5848 31.0405C86.5848 26.932 83.2421 23.5893 79.1336 23.5893C75.0251 23.5893 71.6823 26.932 71.6823 31.0405Z" fill="#B6DCFA" stroke="#2D4941" stroke-width="0.4"/>
<path d="M40.1126 31.0405C40.1126 26.2134 44.0394 22.2866 48.8665 22.2866C53.6936 22.2866 57.6204 26.2134 57.6204 31.0405C57.6204 35.8676 53.6936 39.7944 48.8665 39.7944C44.0394 39.7944 40.1126 35.8676 40.1126 31.0405ZM41.4153 31.0405C41.4153 35.149 44.758 38.4918 48.8665 38.4918C52.975 38.4918 56.3177 35.149 56.3177 31.0405C56.3177 26.932 52.975 23.5893 48.8665 23.5893C44.758 23.5893 41.4153 26.932 41.4153 31.0405Z" fill="#B6DCFA" stroke="#2D4941" stroke-width="0.4"/>
<path d="M81.3945 8.96589L81.3557 8.86839L78.7699 2.37666L78.7698 2.37642C78.5861 1.91381 78.2427 1.52606 77.8034 1.2844L77.8032 1.28428C77.1731 0.936882 75.7928 0.288557 74.2626 0.251646C72.7533 0.215237 71.0851 0.77108 69.8242 2.86139L69.6101 2.73226L69.8242 2.8614C69.6356 3.17406 69.5334 3.54956 69.5334 3.9469V10.6346V10.7484L69.4475 10.8232C68.4226 11.7149 67.6275 12.7747 67.0748 13.9977L66.9709 14.2274L66.7421 14.1216C65.6354 13.61 63.6735 13.1009 61.2747 14.1718L61.0462 14.2738L60.9444 14.0453C60.3908 12.8024 59.5901 11.726 58.5525 10.8232L58.4667 10.7484V10.6346V3.9469C58.4667 3.54971 58.3646 3.17417 58.1759 2.86057C56.9154 0.771133 55.2473 0.215656 53.7379 0.252165C52.2077 0.289177 50.8273 0.937314 50.1977 1.28431L50.1974 1.28449C49.7573 1.52617 49.414 1.91386 49.2312 2.37539L49.231 2.37585L46.6444 8.86841L46.6055 8.96589L46.5088 9.00645C44.0738 10.027 43.0663 11.5815 43.0267 11.6444C43.0075 11.6751 42.9909 11.7072 42.9774 11.74C42.9773 11.7401 42.9773 11.7403 42.9772 11.7404L37.0942 26.2517C37.0921 26.265 37.0884 26.2839 37.0808 26.3054L37.0771 26.3161L37.0768 26.316C36.4884 27.779 36.1562 29.3708 36.1562 31.0405C36.1562 38.0481 41.8581 43.75 48.8665 43.75C55.8741 43.75 61.576 38.0481 61.576 31.0405C61.576 30.9945 61.5731 30.9474 61.5693 30.8929C61.5657 30.8408 61.561 30.7795 61.5594 30.7172L61.5592 30.7096L61.5595 30.702C61.5603 30.6784 61.5638 30.6589 61.5667 30.6456C61.5669 30.6448 61.5671 30.6441 61.5672 30.6434L61.4524 24.6901L61.4493 24.5288L61.595 24.4595C63.8056 23.4086 65.5659 23.9808 66.4122 24.412L66.5517 24.4831L66.5487 24.6396L66.4329 30.6433C66.433 30.644 66.4332 30.6447 66.4333 30.6455C66.4363 30.6588 66.4398 30.6783 66.4406 30.702L66.4409 30.7096L66.4407 30.7172C66.4393 30.7724 66.4354 30.8269 66.432 30.8748L66.4308 30.8929C66.427 30.9473 66.4241 30.9944 66.4241 31.0405C66.4241 38.0481 72.126 43.75 79.1335 43.75C86.142 43.75 91.8438 38.0481 91.8438 31.0405C91.8438 29.3707 91.5118 27.7788 90.9232 26.3158L90.9189 26.3051L90.9191 26.305C90.9117 26.2836 90.9079 26.2649 90.9059 26.2517L85.0229 11.7404C85.0228 11.7401 85.0226 11.7398 85.0225 11.7396C85.0091 11.707 84.9926 11.6751 84.9734 11.6446L81.3945 8.96589ZM81.3945 8.96589L81.4913 9.00645M81.3945 8.96589L81.4913 9.00645M81.4913 9.00645C83.9263 10.027 84.9337 11.5815 84.9733 11.6444L81.4913 9.00645ZM77.224 2.33789L77.2239 2.33783C76.4521 1.91298 75.3295 1.43809 74.1624 1.44908C72.9738 1.46027 71.7627 1.97639 70.8543 3.48187C70.7723 3.61774 70.7361 3.78398 70.7361 3.9469V9.42836V9.86123L71.111 9.6449C73.3204 8.37017 76.0203 7.87419 78.7517 8.26233C78.993 8.29675 79.2239 8.33983 79.4531 8.3863L79.9061 8.47814L79.735 8.04876L77.6525 2.82131C77.5698 2.61297 77.4198 2.44579 77.224 2.33789ZM78.5811 9.45334L78.5458 9.70084L78.581 9.45334C76.0687 9.09517 73.579 9.55736 71.5692 10.7626L71.6977 10.977L71.5692 10.7626C69.8394 11.7999 68.6188 13.2333 67.9517 15.0233L67.9369 15.0632L67.9361 15.1058L67.7684 23.7863L67.7668 23.869L67.8149 23.9363C67.878 24.0248 67.915 24.1089 67.927 24.1908L68.0252 24.8599L68.3858 24.2879C70.6391 20.7145 74.6092 18.3303 79.1335 18.3303C82.1071 18.3303 84.8395 19.3641 87.0078 21.0823L87.751 21.6713L87.3947 20.7925L83.9419 12.2756L83.9307 12.2479L83.9133 12.2237C83.6434 11.848 82.123 9.95848 78.5811 9.45334ZM57.1462 3.48186L57.1457 3.48098C56.2373 1.97634 55.0262 1.46048 53.8378 1.44929C52.6709 1.4383 51.5486 1.91287 50.7772 2.33773C50.5808 2.44546 50.4304 2.61261 50.3484 2.82064C50.3483 2.8208 50.3483 2.82097 50.3482 2.82114L48.2652 8.04874L48.0941 8.47814L48.5471 8.3863C48.7763 8.33983 49.0071 8.29676 49.2484 8.26233C51.9783 7.87656 54.6791 8.37111 56.8892 9.64505L57.264 9.86113V9.42846V3.9469C57.264 3.78366 57.2276 3.61795 57.1462 3.48186ZM44.0864 12.2239L44.0687 12.2484L44.0573 12.2765L40.605 20.7927L40.2488 21.6716L40.992 21.0826C43.1603 19.3642 45.8928 18.3303 48.8665 18.3303C53.3953 18.3303 57.3687 20.7193 59.6208 24.2986L59.9879 24.8821L60.0801 24.1989C60.0957 24.0834 60.1282 23.9908 60.1818 23.9187L60.2328 23.8501L60.2312 23.7646L60.064 15.1058L60.0632 15.0632L60.0483 15.0233C59.3813 13.2333 58.1606 11.7999 56.4309 10.7626L56.4309 10.7626C54.4201 9.55731 51.9263 9.09686 49.4191 9.45333L49.419 9.45334C45.8881 9.95679 44.3662 11.837 44.0864 12.2239ZM38.2672 26.56L38.2672 26.5599L38.2655 26.5639L38.2603 26.577C37.6802 27.9505 37.3589 29.4589 37.3589 31.0405C37.3589 37.3857 42.5206 42.5473 48.8665 42.5473C55.2116 42.5473 60.3733 37.3857 60.3733 31.0405C60.3733 24.6946 55.2117 19.5329 48.8665 19.5329C44.1085 19.5329 40.0173 22.4346 38.2672 26.56ZM61.4171 22.8616L61.4239 23.2132L61.7537 23.0913C63.6212 22.4009 65.1874 22.6511 66.2485 23.0379L66.5773 23.1577L66.584 22.8078L66.7228 15.6166L66.7256 15.4681L66.5966 15.3945C65.8247 14.9546 63.888 14.1766 61.4146 15.4383L61.2752 15.5094L61.2783 15.6658L61.4171 22.8616ZM89.7344 26.5636L89.7344 26.5636L89.7328 26.5599C87.9827 22.4346 83.8916 19.5329 79.1335 19.5329C72.7884 19.5329 67.6267 24.6946 67.6267 31.0405C67.6267 37.3857 72.7884 42.5473 79.1335 42.5473C85.4795 42.5473 90.6412 37.3857 90.6412 31.0405C90.6412 29.4589 90.3199 27.9506 89.7399 26.5772C89.7396 26.5766 89.7394 26.576 89.7391 26.5754L89.7344 26.5636Z" fill="#B6DCFA" stroke="#2D4941" stroke-width="0.5"/>
<path d="M17.2998 63.105C16.3198 63.105 15.4198 62.875 14.5998 62.415C13.7798 61.955 13.1298 61.32 12.6498 60.51C12.1698 59.69 11.9298 58.765 11.9298 57.735C11.9298 56.715 12.1698 55.8 12.6498 54.99C13.1298 54.17 13.7798 53.53 14.5998 53.07C15.4198 52.61 16.3198 52.38 17.2998 52.38C18.2898 52.38 19.1898 52.61 19.9998 53.07C20.8198 53.53 21.4648 54.17 21.9348 54.99C22.4148 55.8 22.6548 56.715 22.6548 57.735C22.6548 58.765 22.4148 59.69 21.9348 60.51C21.4648 61.32 20.8198 61.955 19.9998 62.415C19.1798 62.875 18.2798 63.105 17.2998 63.105ZM17.2998 61.23C17.9298 61.23 18.4848 61.09 18.9648 60.81C19.4448 60.52 19.8198 60.11 20.0898 59.58C20.3598 59.05 20.4948 58.435 20.4948 57.735C20.4948 57.035 20.3598 56.425 20.0898 55.905C19.8198 55.375 19.4448 54.97 18.9648 54.69C18.4848 54.41 17.9298 54.27 17.2998 54.27C16.6698 54.27 16.1098 54.41 15.6198 54.69C15.1398 54.97 14.7648 55.375 14.4948 55.905C14.2248 56.425 14.0898 57.035 14.0898 57.735C14.0898 58.435 14.2248 59.05 14.4948 59.58C14.7648 60.11 15.1398 60.52 15.6198 60.81C16.1098 61.09 16.6698 61.23 17.2998 61.23ZM30.1571 57.63C30.7471 57.74 31.2321 58.035 31.6121 58.515C31.9921 58.995 32.1821 59.545 32.1821 60.165C32.1821 60.725 32.0421 61.22 31.7621 61.65C31.4921 62.07 31.0971 62.4 30.5771 62.64C30.0571 62.88 29.4421 63 28.7321 63H24.2171V52.53H28.5371C29.2471 52.53 29.8571 52.645 30.3671 52.875C30.8871 53.105 31.2771 53.425 31.5371 53.835C31.8071 54.245 31.9421 54.71 31.9421 55.23C31.9421 55.84 31.7771 56.35 31.4471 56.76C31.1271 57.17 30.6971 57.46 30.1571 57.63ZM26.3171 56.85H28.2371C28.7371 56.85 29.1221 56.74 29.3921 56.52C29.6621 56.29 29.7971 55.965 29.7971 55.545C29.7971 55.125 29.6621 54.8 29.3921 54.57C29.1221 54.34 28.7371 54.225 28.2371 54.225H26.3171V56.85ZM28.4321 61.29C28.9421 61.29 29.3371 61.17 29.6171 60.93C29.9071 60.69 30.0521 60.35 30.0521 59.91C30.0521 59.46 29.9021 59.11 29.6021 58.86C29.3021 58.6 28.8971 58.47 28.3871 58.47H26.3171V61.29H28.4321ZM37.4708 63.105C36.7408 63.105 36.0808 62.98 35.4908 62.73C34.9108 62.48 34.4508 62.12 34.1108 61.65C33.7708 61.18 33.5958 60.625 33.5858 59.985H35.8358C35.8658 60.415 36.0158 60.755 36.2858 61.005C36.5658 61.255 36.9458 61.38 37.4258 61.38C37.9158 61.38 38.3008 61.265 38.5808 61.035C38.8608 60.795 39.0008 60.485 39.0008 60.105C39.0008 59.795 38.9058 59.54 38.7158 59.34C38.5258 59.14 38.2858 58.985 37.9958 58.875C37.7158 58.755 37.3258 58.625 36.8258 58.485C36.1458 58.285 35.5908 58.09 35.1608 57.9C34.7408 57.7 34.3758 57.405 34.0658 57.015C33.7658 56.615 33.6158 56.085 33.6158 55.425C33.6158 54.805 33.7708 54.265 34.0808 53.805C34.3908 53.345 34.8258 52.995 35.3858 52.755C35.9458 52.505 36.5858 52.38 37.3058 52.38C38.3858 52.38 39.2608 52.645 39.9308 53.175C40.6108 53.695 40.9858 54.425 41.0558 55.365H38.7458C38.7258 55.005 38.5708 54.71 38.2808 54.48C38.0008 54.24 37.6258 54.12 37.1558 54.12C36.7458 54.12 36.4158 54.225 36.1658 54.435C35.9258 54.645 35.8058 54.95 35.8058 55.35C35.8058 55.63 35.8958 55.865 36.0758 56.055C36.2658 56.235 36.4958 56.385 36.7658 56.505C37.0458 56.615 37.4358 56.745 37.9358 56.895C38.6158 57.095 39.1708 57.295 39.6008 57.495C40.0308 57.695 40.4008 57.995 40.7108 58.395C41.0208 58.795 41.1758 59.32 41.1758 59.97C41.1758 60.53 41.0308 61.05 40.7408 61.53C40.4508 62.01 40.0258 62.395 39.4658 62.685C38.9058 62.965 38.2408 63.105 37.4708 63.105ZM45.0964 54.225V56.85H48.6214V58.515H45.0964V61.29H49.0714V63H42.9964V52.515H49.0714V54.225H45.0964ZM56.3798 63L54.0698 58.92H53.0798V63H50.9798V52.53H54.9098C55.7198 52.53 56.4098 52.675 56.9798 52.965C57.5498 53.245 57.9748 53.63 58.2548 54.12C58.5448 54.6 58.6898 55.14 58.6898 55.74C58.6898 56.43 58.4898 57.055 58.0898 57.615C57.6898 58.165 57.0948 58.545 56.3048 58.755L58.8098 63H56.3798ZM53.0798 57.345H54.8348C55.4048 57.345 55.8298 57.21 56.1098 56.94C56.3898 56.66 56.5298 56.275 56.5298 55.785C56.5298 55.305 56.3898 54.935 56.1098 54.675C55.8298 54.405 55.4048 54.27 54.8348 54.27H53.0798V57.345ZM69.9942 52.53L66.1542 63H63.6042L59.7642 52.53H62.0142L64.8942 60.855L67.7592 52.53H69.9942ZM77.6733 61.005H73.5033L72.8133 63H70.6083L74.3733 52.515H76.8183L80.5833 63H78.3633L77.6733 61.005ZM77.1033 59.325L75.5883 54.945L74.0733 59.325H77.1033ZM89.1156 52.53V54.225H86.3256V63H84.2256V54.225H81.4356V52.53H89.1156ZM92.7478 52.53V63H90.6478V52.53H92.7478ZM99.6826 63.105C98.7026 63.105 97.8026 62.875 96.9826 62.415C96.1626 61.955 95.5126 61.32 95.0326 60.51C94.5526 59.69 94.3126 58.765 94.3126 57.735C94.3126 56.715 94.5526 55.8 95.0326 54.99C95.5126 54.17 96.1626 53.53 96.9826 53.07C97.8026 52.61 98.7026 52.38 99.6826 52.38C100.673 52.38 101.573 52.61 102.383 53.07C103.203 53.53 103.848 54.17 104.318 54.99C104.798 55.8 105.038 56.715 105.038 57.735C105.038 58.765 104.798 59.69 104.318 60.51C103.848 61.32 103.203 61.955 102.383 62.415C101.563 62.875 100.663 63.105 99.6826 63.105ZM99.6826 61.23C100.313 61.23 100.868 61.09 101.348 60.81C101.828 60.52 102.203 60.11 102.473 59.58C102.743 59.05 102.878 58.435 102.878 57.735C102.878 57.035 102.743 56.425 102.473 55.905C102.203 55.375 101.828 54.97 101.348 54.69C100.868 54.41 100.313 54.27 99.6826 54.27C99.0526 54.27 98.4926 54.41 98.0026 54.69C97.5226 54.97 97.1476 55.375 96.8776 55.905C96.6076 56.425 96.4726 57.035 96.4726 57.735C96.4726 58.435 96.6076 59.05 96.8776 59.58C97.1476 60.11 97.5226 60.52 98.0026 60.81C98.4926 61.09 99.0526 61.23 99.6826 61.23ZM115.555 63H113.455L108.7 55.815V63H106.6V52.515H108.7L113.455 59.715V52.515H115.555V63ZM16.7157 69.53V71.225H13.9257V80H11.8257V71.225H9.03566V69.53H16.7157ZM23.1079 80.105C22.1279 80.105 21.2279 79.875 20.4079 79.415C19.5879 78.955 18.9379 78.32 18.4579 77.51C17.9779 76.69 17.7379 75.765 17.7379 74.735C17.7379 73.715 17.9779 72.8 18.4579 71.99C18.9379 71.17 19.5879 70.53 20.4079 70.07C21.2279 69.61 22.1279 69.38 23.1079 69.38C24.0979 69.38 24.9979 69.61 25.8079 70.07C26.6279 70.53 27.2729 71.17 27.7429 71.99C28.2229 72.8 28.4629 73.715 28.4629 74.735C28.4629 75.765 28.2229 76.69 27.7429 77.51C27.2729 78.32 26.6279 78.955 25.8079 79.415C24.9879 79.875 24.0879 80.105 23.1079 80.105ZM23.1079 78.23C23.7379 78.23 24.2929 78.09 24.7729 77.81C25.2529 77.52 25.6279 77.11 25.8979 76.58C26.1679 76.05 26.3029 75.435 26.3029 74.735C26.3029 74.035 26.1679 73.425 25.8979 72.905C25.6279 72.375 25.2529 71.97 24.7729 71.69C24.2929 71.41 23.7379 71.27 23.1079 71.27C22.4779 71.27 21.9179 71.41 21.4279 71.69C20.9479 71.97 20.5729 72.375 20.3029 72.905C20.0329 73.425 19.8979 74.035 19.8979 74.735C19.8979 75.435 20.0329 76.05 20.3029 76.58C20.5729 77.11 20.9479 77.52 21.4279 77.81C21.9179 78.09 22.4779 78.23 23.1079 78.23ZM32.0952 69.53V76.01C32.0952 76.72 32.2802 77.265 32.6502 77.645C33.0202 78.015 33.5402 78.2 34.2102 78.2C34.8902 78.2 35.4152 78.015 35.7852 77.645C36.1552 77.265 36.3402 76.72 36.3402 76.01V69.53H38.4552V75.995C38.4552 76.885 38.2602 77.64 37.8702 78.26C37.4902 78.87 36.9752 79.33 36.3252 79.64C35.6852 79.95 34.9702 80.105 34.1802 80.105C33.4002 80.105 32.6902 79.95 32.0502 79.64C31.4202 79.33 30.9202 78.87 30.5502 78.26C30.1802 77.64 29.9952 76.885 29.9952 75.995V69.53H32.0952ZM47.6092 69.53V71.225H44.8192V80H42.7192V71.225H39.9292V69.53H47.6092ZM51.2414 71.225V73.85H54.7664V75.515H51.2414V78.29H55.2164V80H49.1414V69.515H55.2164V71.225H51.2414ZM62.7991 78.335H66.2491V80H60.6991V69.53H62.7991V78.335ZM68.0038 69.53H70.2088L68.5888 73.31H67.1488L68.0038 69.53ZM78.1347 78.005H73.9647L73.2747 80H71.0697L74.8347 69.515H77.2797L81.0447 80H78.8247L78.1347 78.005ZM77.5647 76.325L76.0497 71.945L74.5347 76.325H77.5647ZM91.407 80H89.307L84.552 72.815V80H82.452V69.515H84.552L89.307 76.715V69.515H91.407V80ZM102.437 80H100.337L95.5823 72.815V80H93.4823V69.515H95.5823L100.337 76.715V69.515H102.437V80ZM106.613 71.225V73.85H110.138V75.515H106.613V78.29H110.588V80H104.513V69.515H110.588V71.225H106.613ZM109.118 67.355L105.668 68.93V67.43L109.118 65.645V67.355ZM114.596 71.225V73.85H118.121V75.515H114.596V78.29H118.571V80H112.496V69.515H118.571V71.225H114.596Z" fill="#F8F8F8"/>
</svg>
